<?xml version="1.0" encoding="UTF-8"?><svg id="_Слой_1" xmlns="http://www.w3.org/2000/svg" viewBox="0 0 12000 3400"><defs><style>.cls-1{stroke-width:6px;}.cls-1,.cls-2,.cls-3,.cls-4{fill:none;stroke-miterlimit:10;}.cls-1,.cls-2,.cls-4{stroke:#fff;}.cls-5{fill:#fff;}.cls-6{fill:#040d2b;}.cls-7{fill:#d5aa65;}.cls-2{stroke-width:6.42px;}.cls-3{stroke:#d5aa65;}.cls-3,.cls-4{stroke-width:6.66px;}</style></defs><rect class="cls-6" width="12000" height="3400"/><g><path class="cls-7" d="M6005.41,2575.19c-.13,.04-.2,.09-.2,.13l-.53,.26c-6.12,3.17-12.61,4.75-19.48,4.75-5.41,0-10.22-.97-14.43-2.91-4.2-1.94-7.44-4.69-9.71-8.25-2.27-3.57-3.4-7.7-3.4-12.41,0-10.7,7.09-20.07,21.26-28.13l.46-.26v-.4c0-4.75,.73-9.41,2.18-13.97,1.45-4.55,3.37-8.29,5.74-11.19,4.31-5.24,9.05-7.86,14.2-7.86,2.77,0,5.03,.8,6.77,2.41,1.74,1.61,2.61,3.6,2.61,5.98,0,5.33-3.98,10.54-11.95,15.65-1.32,.88-3.79,2.33-7.39,4.36-3.92,2.16-6.49,3.54-7.73,4.16,.18,3.96,1.2,8.5,3.07,13.6,1.87,5.11,4.15,9.62,6.83,13.54,4.09,5.99,9.24,11.25,15.45,15.78,3.08-2.2,5.83-4.76,8.25-7.69,2.42-2.93,4.33-5.94,5.71-9.04,1.39-3.1,2.08-6.02,2.08-8.75s-.74-5.09-2.21-6.83c-1.47-1.74-3.38-2.61-5.71-2.61-6.16,0-10.74,5.39-13.73,16.18l-3.43-5.08c.84-2.86,2.08-5.41,3.73-7.66,1.65-2.24,3.57-3.98,5.75-5.22,2.18-1.23,4.43-1.85,6.77-1.85,2.11,0,4.03,.53,5.74,1.58,1.72,1.06,3.07,2.53,4.06,4.42,.99,1.89,1.49,3.98,1.49,6.27s-.42,4.59-1.25,7.03c-.84,2.44-1.98,4.85-3.43,7.23-1.45,2.38-3.27,4.75-5.45,7.13-2.18,2.38-4.39,4.38-6.64,6.01l.33,.2c4.49,2.82,9.02,4.23,13.6,4.23,3.52,0,6.52-.68,9.01-2.05,2.49-1.36,5.01-3.67,7.56-6.93l.92,1.06c-5.24,7.97-12.06,11.95-20.47,11.95-5.64,0-11.12-1.61-16.44-4.82Zm-2.05-1.25c-6.73-4.4-12.24-10.44-16.51-18.12-4.27-7.68-6.73-16.03-7.39-25.06l-.07-.33c-9.86,6.3-14.79,13.95-14.79,22.98,0,6.73,2.35,12.34,7.06,16.8,4.71,4.47,10.61,6.7,17.7,6.7,4.89,0,9.55-.99,14-2.97Zm-19.54-48.27c6.29-3.34,11.05-6.27,14.26-8.78,2.42-1.8,4.36-3.93,5.81-6.37,1.45-2.44,2.18-4.76,2.18-6.97,0-1.89-.58-3.37-1.75-4.42-1.17-1.06-2.72-1.58-4.66-1.58-2.82,0-5.45,1.15-7.89,3.47-2.44,2.31-4.39,5.41-5.84,9.31-1.45,3.9-2.18,8.07-2.18,12.51v1.72l.07,1.12Z"/><g><rect class="cls-7" x="6102.03" y="2535.34" width="1049.81" height="4.64"/><rect class="cls-7" x="4848.16" y="2535.34" width="1049.81" height="4.64"/></g></g><g><path class="cls-7" d="M4773.35,2302.1c0,2.74-2.28,4.11-6.39,4.11-28.29,0-66.16-26.46-66.16-69.35,0-59.32,59.32-100.84,143.27-100.84,49.28,0,97.19,16.88,138.25,41.98,4.11-5.93,6.84-9.58,8.21-9.58,5.48,0,8.21,3.19,8.21,6.84,0,.91-.91,4.56-2.74,11.86l11.86,8.21c1.37,.91,2.74,2.28,2.74,3.65s-2.28,4.56-3.65,4.56-2.74-.91-5.47-2.74l-7.3-4.56c-8.67,40.15-26.46,135.06-26.46,255.97,11.41-28.75,123.65-233.61,196.2-282.89,10.04-6.84,16.43-10.49,21.44-10.49,4.56,0,5.93,2.28,5.93,5.02,0,3.65-6.39,12.32-12.32,21.44-29.2,45.17-73.46,138.25-73.46,246.39,0,41.06,21.44,64.79,47,64.79,15.97,0,23.73-7.3,25.55-7.3s3.19,1.82,3.19,3.65-13.23,12.32-33.76,12.32c-27.38,0-54.75-20.08-54.75-73.46,0-115.44,51.56-212.17,74.83-253.23-79.39,67.98-177.49,251.4-191.18,283.34-2.74,6.84-9.13,8.67-15.97,8.67-4.11,0-5.47-10.49-5.47-27.83,.91-131.41,23.27-234.98,23.27-234.98-73.92,125.02-184.79,340.38-321.67,340.38-47.45,0-72.55-37.87-72.55-58.4,0-2.28,1.37-4.11,3.65-4.11,1.82,0,2.74,1.82,3.19,4.56,3.65,17.79,23.27,45.63,66.16,45.63,127.76,0,235.89-205.78,302.96-320.3,6.84-11.41,12.32-21.44,17.34-29.2-39.24-21.9-85.78-38.78-133.23-38.78-72.55,0-129.12,36.05-129.12,89.43,0,36.5,27.38,59.32,54.3,62.51,3.19,.46,4.11,1.37,4.11,2.74Z"/><path class="cls-7" d="M5191.29,2445.83c-23.73,0-43.8-14.6-43.8-40.61,0-42.43,56.58-88.52,91.25-88.52,14.14,0,22.81,8.21,22.81,19.62,0,26.92-62.51,52.47-100.84,61.6-.46,2.74-.46,5.93-.46,8.67,0,17.34,12.32,28.75,31.03,28.75,51.56,0,96.73-54.3,96.73-54.3,0,0,2.28-2.74,4.56-2.74,2.74,0,4.11,1.83,4.11,4.11,0,1.82-2.28,4.56-2.28,4.56,0,0-50.19,58.86-103.12,58.86Zm-27.38-58.4c34.68-8.21,86.69-31.48,86.69-52.47,0-4.11-3.65-8.21-10.04-8.21-26.46,0-64.33,29.66-76.65,60.68Z"/><path class="cls-7" d="M5336.38,2315.34c5.48-10.95,14.14-40.15,23.73-40.15,3.65,0,8.67,4.11,8.67,7.76,0,6.84-19.62,24.64-19.62,31.94,0,3.19,18.25,14.14,27.38,19.16,5.02,2.28,6.39,4.56,6.39,8.21,0,19.62-39.7,48.36-39.7,74.83,0,8.67,5.93,14.14,14.6,14.14,20.53,0,47.91-23.73,71.63-50.19,0,0,2.28-2.74,4.56-2.74s4.11,1.83,4.11,4.11c0,1.82-2.28,4.56-2.28,4.56-25.55,27.83-56.58,53.84-80.76,53.84-12.78,0-23.73-8.67-23.73-22.81,0-28.29,37.87-55.66,37.87-73,0-2.74-2.28-4.11-5.48-6.39-9.13-6.39-17.34-11.41-20.08-11.41-1.82,0-2.74,1.37-5.48,5.02-6.84,9.58-26.92,35.59-43.8,54.75,0,0-2.28,2.28-4.56,2.28-2.74,0-4.11-1.83-4.11-3.65s2.28-4.56,2.28-4.56c15.51-17.34,41.06-51.56,48.36-65.7Z"/><path class="cls-7" d="M5477.82,2315.34c5.48-10.95,14.14-40.15,23.73-40.15,3.65,0,8.67,4.11,8.67,7.76,0,6.84-19.62,24.64-19.62,31.94,0,3.19,18.25,14.14,27.38,19.16,5.02,2.28,6.39,4.56,6.39,8.21,0,19.62-39.7,48.36-39.7,74.83,0,8.67,5.93,14.14,14.6,14.14,20.53,0,47.91-23.73,71.63-50.19,0,0,2.28-2.74,4.56-2.74s4.11,1.83,4.11,4.11c0,1.82-2.28,4.56-2.28,4.56-25.55,27.83-56.58,53.84-80.76,53.84-12.78,0-23.73-8.67-23.73-22.81,0-28.29,37.87-55.66,37.87-73,0-2.74-2.28-4.11-5.48-6.39-9.13-6.39-17.34-11.41-20.08-11.41-1.82,0-2.74,1.37-5.48,5.02-6.84,9.58-26.92,35.59-43.8,54.75,0,0-2.28,2.28-4.56,2.28-2.74,0-4.11-1.83-4.11-3.65s2.28-4.56,2.28-4.56c15.51-17.34,41.06-51.56,48.36-65.7Z"/><path class="cls-7" d="M5661.69,2450.39c-27.38,80.76-75.74,189.81-153.76,189.81-27.38,0-47.45-18.25-47.45-43.35,0-63.88,104.03-102.66,190.26-150.57,5.48-16.88,10.04-32.85,13.69-46.08-25.55,26.01-54.75,47.45-79.85,47.45-15.97,0-27.38-10.49-27.38-27.83,0-32.4,56.58-107.68,63.88-107.68,2.74,0,6.39,3.65,6.39,5.93,0,1.83-.46,2.28-2.74,5.02-15.51,18.71-53.84,69.35-53.84,96.73,0,10.95,5.93,16.88,16.43,16.88,21.9,0,47.45-18.25,75.74-49.73,12.78-15.06,22.81-33.76,31.94-50.19,2.28-4.11,4.11-6.39,5.93-6.39,2.74,0,5.93,2.74,5.93,5.93,0,1.37-1.37,3.65-2.74,5.93-8.21,15.97-18.25,30.57-28.29,63.42l-10.04,31.94c29.2-16.88,55.21-35.59,73.46-56.58,0,0,2.28-2.74,4.11-2.74,2.74,0,4.56,1.83,4.56,4.11,0,1.82-2.28,4.56-2.28,4.56-21.44,24.18-51.56,44.71-83.95,63.42Zm-15.51,8.67c-82.58,46.08-174.29,82.58-174.29,137.34,0,19.62,14.14,32.85,34.68,32.85,67.98,0,113.61-93.99,139.62-170.19Z"/><path class="cls-7" d="M6022.59,2181.19c0,2.28-1.37,3.65-3.19,3.65-3.65,0-21.9-12.78-59.77-12.78-55.21,0-115.89,36.05-115.89,97.19,0,53.38,36.5,86.69,100.38,97.19,46.08-114.52,178.4-230.42,281.97-230.42,35.59,0,54.3,18.25,54.3,48.82,0,86.69-159.24,196.65-289.28,196.65-12.78,0-25.09-.46-36.5-1.83-7.76,21.9-11.86,43.8-11.86,64.79,0,57.49,32.4,91.25,84.41,91.25,44.71,0,90.8-21.9,122.28-45.63,3.65-2.74,5.93-4.11,7.76-4.11,2.28,0,3.65,1.37,3.65,3.65s-1.83,4.56-5.02,7.3c-34.68,29.66-83.04,51.1-129.12,51.1-60.23,0-99.47-37.87-99.47-103.57,0-21.44,4.56-44.26,12.78-67.07-67.53-12.32-109.51-50.19-109.51-106.77,0-69.35,66.62-109.96,131.86-109.96,36.5,0,60.23,15.97,60.23,20.53Zm-63.88,187.53c10.49,.91,21.9,1.37,34.22,1.37,121.82,0,274.67-103.12,274.67-184.33,0-23.73-13.69-38.78-41.52-38.78-98.55,0-223.57,110.87-267.37,221.75Z"/><path class="cls-7" d="M6334.68,2434.88c-13.23,0-22.36-7.76-22.36-20.99,0-27.38,44.26-55.67,44.26-73.92,0-4.56-3.19-6.84-6.84-6.84-20.53,0-101.29,63.42-138.71,103.57-4.56,5.02-7.76,8.67-11.41,8.67-3.19,0-7.3-3.19-7.3-6.84,0-4.56,21.9-50.65,40.15-85.78,43.8-83.95,97.64-161.06,143.73-161.06,14.6,0,23.27,10.04,23.27,22.36,0,38.78-105.85,120-163.8,165.17-9.58,12.32-25.09,45.17-25.09,45.17,32.85-36.05,114.98-102.66,141.44-102.66,10.04,0,17.34,6.39,17.34,18.25,0,22.36-44.26,52.47-44.26,73.46,0,7.76,4.11,11.41,12.78,11.41,29.2,0,67.98-43.8,67.98-43.8,0,0,2.28-2.74,4.56-2.74,2.74,0,4.11,1.83,4.11,4.11,0,1.82-2.28,4.56-2.28,4.56,0,0-41.52,47.91-77.57,47.91Zm-94.9-70.72c47-36.96,148.74-115.44,148.74-151.48,0-5.93-4.56-10.95-11.41-10.95-37.41,0-92.17,75.28-137.34,162.43Z"/><path class="cls-7" d="M6454.21,2315.34c5.48-10.95,14.14-40.15,23.73-40.15,3.65,0,8.67,4.11,8.67,7.76,0,6.84-19.62,24.64-19.62,31.94,0,3.19,18.25,14.14,27.38,19.16,5.02,2.28,6.39,4.56,6.39,8.21,0,19.62-39.7,48.36-39.7,74.83,0,8.67,5.93,14.14,14.6,14.14,20.53,0,47.91-23.73,71.63-50.19,0,0,2.28-2.74,4.56-2.74s4.11,1.83,4.11,4.11c0,1.82-2.28,4.56-2.28,4.56-25.55,27.83-56.58,53.84-80.76,53.84-12.78,0-23.73-8.67-23.73-22.81,0-28.29,37.87-55.66,37.87-73,0-2.74-2.28-4.11-5.48-6.39-9.13-6.39-17.34-11.41-20.08-11.41-1.83,0-2.74,1.37-5.48,5.02-6.84,9.58-26.92,35.59-43.8,54.75,0,0-2.28,2.28-4.56,2.28-2.74,0-4.11-1.83-4.11-3.65s2.28-4.56,2.28-4.56c15.51-17.34,41.06-51.56,48.36-65.7Z"/><path class="cls-7" d="M6565.08,2436.7c-15.51,0-26.46-10.04-26.46-26.46,0-31.03,47.45-92.62,54.75-92.62,3.19,0,5.48,2.28,5.48,5.02,0,.91-.46,2.74-2.28,5.02-10.95,13.23-45.63,56.12-45.63,82.59,0,10.49,6.84,16.88,17.34,16.88,27.38,0,69.35-46.08,69.35-46.08,0,0,2.28-2.74,4.11-2.74,2.74,0,4.56,1.83,4.56,4.11,0,1.82-2.28,4.56-2.28,4.56,0,0-43.8,49.73-78.93,49.73Zm76.65-175.66c0,6.39-6.39,18.25-13.69,18.25-4.11,0-7.3-2.28-7.3-6.84,0-7.76,7.3-17.79,13.69-17.79,4.11,0,7.3,2.28,7.3,6.39Z"/><path class="cls-7" d="M6639.45,2389.25c-2.74,0-4.11-1.83-4.11-3.65s2.28-4.56,2.28-4.56c17.34-19.16,31.48-40.61,39.7-55.21,7.76-14.14,15.97-25.55,20.53-25.55,3.65,0,8.21,4.11,8.21,7.3,0,5.02-20.53,20.99-20.53,39.24,0,19.62,16.43,35.13,16.43,63.42,0,1.82,0,3.19-.46,4.56,19.16-4.56,37.87-14.14,54.3-33.76,0,0,2.28-2.74,4.11-2.74,2.74,0,4.56,1.83,4.56,4.11,0,1.82-2.28,4.56-2.28,4.56-19.62,22.81-41.98,32.4-62.51,37.41-6.39,20.99-26.46,33.76-46.54,33.76-15.97,0-27.38-10.49-27.38-20.08,0-11.86,8.67-16.43,25.1-17.34,12.78-.46,26.01-.91,38.78-3.19,.46-2.28,.91-5.02,.91-7.76,0-24.18-16.43-40.15-16.43-61.14-.46,.91-11.86,17.79-30.11,38.33,0,0-2.28,2.28-4.56,2.28Zm47.45,37.41c-28.75,4.11-50.65,0-50.65,10.49,0,6.39,6.39,11.86,17.34,11.86,14.14,0,27.38-8.67,33.31-22.36Z"/><path class="cls-7" d="M6747.13,2303.02c-2.28,0-4.11-1.37-4.11-3.65,0-3.65,7.3-10.95,26.01-10.95,9.58,0,20.99,1.37,33.31,2.74,22.36-33.31,44.71-60.23,51.1-67.53,2.74-3.19,5.02-4.56,6.84-4.56,2.28,0,5.93,3.65,5.93,6.39,0,2.28-1.37,3.19-5.02,7.76-5.48,6.84-25.09,30.11-45.63,59.77,16.88,2.74,32.85,5.02,43.35,5.02,3.65,0,5.48,.91,5.48,2.74s-4.11,6.39-8.21,6.39c-11.41,0-29.2-2.74-46.54-5.02-24.64,37.41-47.91,82.13-47.91,117.26,0,27.83,12.32,35.59,20.53,39.24,4.11,1.82,5.47,1.82,5.47,3.65s-1.37,3.19-4.11,3.19c-10.95,0-34.68-13.69-34.68-48.36s22.81-78.48,47-116.35c-10.95-1.37-21.44-2.74-29.2-2.74-12.78,0-17.34,5.02-19.62,5.02Z"/><path class="cls-7" d="M7046.89,2434.88c-11.86,0-23.27-8.21-23.27-21.9,0-20.99,20.08-42.43,20.08-57.03,0-5.48-4.11-8.21-9.13-8.21-20.08,0-67.07,41.52-90.8,63.42-6.39,5.93-10.04,10.04-13.23,10.04-2.74,0-5.48-2.28-5.48-5.93,0-14.6,53.38-67.98,53.38-84.87,0-5.93-3.65-9.58-10.49-9.58-28.75,0-103.12,62.05-140.08,106.77-5.02,5.48-7.3,8.67-10.49,8.67-2.74,0-6.84-3.19-6.84-7.3,0-5.02,7.3-17.34,21.9-41.52,19.16-31.94,57.95-74.83,62.97-74.83,3.19,0,5.93,3.19,5.93,5.93,0,1.82-1.82,3.65-4.56,6.39-15.97,15.97-36.96,37.41-70.27,91.71,33.31-41.98,107.68-106.31,143.73-106.31,12.32,0,20.53,9.13,20.53,20.08,0,18.25-34.68,50.65-41.52,64.33,14.14-12.78,61.14-57.49,88.97-57.49,10.04,0,17.79,7.76,17.79,17.34,0,16.43-19.62,40.61-19.62,57.49,0,8.21,5.93,13.23,14.6,13.23,30.11,0,67.98-44.26,67.98-44.26,0,0,2.28-2.74,4.56-2.74s4.11,1.83,4.11,4.11c0,1.82-2.28,4.56-2.28,4.56,0,0-41.06,47.91-78.48,47.91Z"/><path class="cls-7" d="M7203.39,2391.08c-17.79,20.53-52.47,53.84-75.74,53.84-12.32,0-22.81-8.21-22.81-23.73,0-44.71,64.79-106.31,114.52-106.31,21.44,0,31.03,11.41,31.03,22.81,0,8.21-5.48,14.6-8.21,14.6-1.83,0-2.74-.91-2.74-2.74,0-2.28,1.37-4.56,1.37-9.13,0-6.39-3.65-15.51-17.34-15.51-50.19,0-106.31,58.86-106.31,96.27,0,9.58,4.56,13.23,11.86,13.23,19.16,0,49.73-28.75,64.79-47,12.32-14.6,20.99-28.74,25.09-28.74,2.74,0,5.93,2.28,5.93,5.93,0,2.74-9.13,13.69-9.13,29.66,0,16.88,7.76,24.64,19.62,24.64,12.78,0,30.11-11.41,53.84-37.87,0,0,2.28-2.74,4.11-2.74,2.74,0,4.56,1.83,4.56,4.11,0,1.82-2.28,4.56-2.28,4.56-25.55,27.83-45.63,41.52-62.51,41.52s-29.66-15.51-29.66-37.41Z"/><path class="cls-7" d="M7290.98,2389.25c-2.74,0-4.11-1.83-4.11-3.65s2.28-4.56,2.28-4.56c17.34-19.16,31.48-40.61,39.7-55.21,7.76-14.14,15.97-25.55,20.53-25.55,3.65,0,8.21,4.11,8.21,7.3,0,5.02-20.53,20.99-20.53,39.24,0,19.62,16.43,35.13,16.43,63.42,0,1.82,0,3.19-.46,4.56,19.16-4.56,37.87-14.14,54.3-33.76,0,0,2.28-2.74,4.11-2.74,2.74,0,4.56,1.83,4.56,4.11,0,1.82-2.28,4.56-2.28,4.56-19.62,22.81-41.98,32.4-62.51,37.41-6.39,20.99-26.46,33.76-46.54,33.76-15.97,0-27.38-10.49-27.38-20.08,0-11.86,8.67-16.43,25.1-17.34,12.78-.46,26.01-.91,38.78-3.19,.46-2.28,.91-5.02,.91-7.76,0-24.18-16.43-40.15-16.43-61.14-.46,.91-11.86,17.79-30.11,38.33,0,0-2.28,2.28-4.56,2.28Zm47.45,37.41c-28.75,4.11-50.65,0-50.65,10.49,0,6.39,6.39,11.86,17.34,11.86,14.14,0,27.38-8.67,33.31-22.36Z"/></g><g><path class="cls-5" d="M5092.09,2723.44h-6.58v-19.9h-85.25v19.9h-6.58v-101.54h6.58v75.37h85.25v-75.37h6.58v101.54Z"/><path class="cls-5" d="M5240.33,2723.44v-9.87c-6.27,7.84-16.14,12.22-28.05,12.22-21.31,0-38.55-17.71-38.55-39.49s17.71-39.33,38.55-39.33c11.91,0,21.78,4.39,28.05,12.22v-10.66h6.58v74.9h-6.58Zm0-19.9v-34.16c-4.7-9.72-15.67-16.14-28.05-16.14-17.39,0-31.81,15.04-31.81,33.06s14.42,33.22,31.81,33.22c12.38,0,23.35-6.43,28.05-15.98Z"/><path class="cls-5" d="M5328.23,2749.45v-100.92h6.58v10.66c6.27-7.84,16.14-12.22,28.05-12.22,20.84,0,38.55,17.71,38.55,39.33s-17.24,39.49-38.55,39.49c-11.91,0-21.78-4.39-28.05-12.22v35.88h-6.58Zm66.44-63.15c0-18.02-14.42-33.06-31.81-33.06-12.54,0-23.51,6.43-28.05,16.14v34.16c4.54,9.56,15.51,15.98,28.05,15.98,17.39,0,31.81-15.04,31.81-33.22Z"/><path class="cls-5" d="M5480.7,2749.45v-100.92h6.58v10.66c6.27-7.84,16.14-12.22,28.05-12.22,20.84,0,38.55,17.71,38.55,39.33s-17.24,39.49-38.55,39.49c-11.91,0-21.78-4.39-28.05-12.22v35.88h-6.58Zm66.44-63.15c0-18.02-14.42-33.06-31.81-33.06-12.54,0-23.51,6.43-28.05,16.14v34.16c4.54,9.56,15.51,15.98,28.05,15.98,17.39,0,31.81-15.04,31.81-33.22Z"/><path class="cls-5" d="M5628.78,2646.97l31.03,68.95,31.5-68.95,5.64,2.66-37.14,81.17c-5.17,11.44-12.85,20.37-24.6,20.37v-6.27c8.62,0,14.57-7.52,18.8-16.61l2.35-5.17-33.38-73.49,5.8-2.66Z"/><path class="cls-5" d="M5976.97,2723.44l-87.75-91.05v91.05h-6.58v-101.54h5.64l87.75,91.05v-91.05h6.58v101.54h-5.64Z"/><path class="cls-5" d="M6131.78,2703.85l4.86,3.92c-6.74,10.66-18.49,18.02-33.07,18.02-24.29,0-39.33-17.71-39.33-39.49s16.92-39.33,37.77-39.33,37.77,17.71,37.77,39.33c0,2.19-.31,4.7-.31,4.7h-68.17c2.04,15.98,14.42,28.52,32.28,28.52,13.16,0,22.57-6.74,28.21-15.67Zm-60.8-19.12h62.21c-.78-17.24-14.42-31.5-31.18-31.5s-30.24,14.26-31.03,31.5Z"/><path class="cls-5" d="M6313.87,2649.01l-25.23,76.32h-5.48l-20.53-67.38-20.53,67.38h-5.48l-25.39-76.47,6.11-1.88,21.63,65.66,20.53-65.03h6.27l20.37,65.03,21.78-65.66,5.95,2.04Z"/><path class="cls-5" d="M6577.59,2620.49l4.54,4.23-47.32,48.42v50.3h-6.58v-50.15l-47.48-48.58,4.54-4.23,46.23,46.7,46.07-46.7Z"/><path class="cls-5" d="M6702.95,2703.85l4.86,3.92c-6.74,10.66-18.49,18.02-33.07,18.02-24.29,0-39.33-17.71-39.33-39.49s16.92-39.33,37.77-39.33,37.77,17.71,37.77,39.33c0,2.19-.31,4.7-.31,4.7h-68.17c2.04,15.98,14.42,28.52,32.28,28.52,13.16,0,22.57-6.74,28.21-15.67Zm-60.8-19.12h62.21c-.78-17.24-14.42-31.5-31.18-31.5s-30.24,14.26-31.03,31.5Z"/><path class="cls-5" d="M6854.79,2723.44v-9.87c-6.27,7.84-16.14,12.22-28.05,12.22-21.31,0-38.55-17.71-38.55-39.49s17.71-39.33,38.55-39.33c11.91,0,21.78,4.39,28.05,12.22v-10.66h6.58v74.9h-6.58Zm0-19.9v-34.16c-4.7-9.72-15.67-16.14-28.05-16.14-17.39,0-31.81,15.04-31.81,33.06s14.42,33.22,31.81,33.22c12.38,0,23.35-6.43,28.05-15.98Z"/><path class="cls-5" d="M6942.7,2723.44v-74.9h6.58v10.19c5.8-7.52,14.89-11.75,25.7-11.75,18.65,0,29.62,10.97,31.34,28.36h-6.74c-1.72-14.73-10.19-21.78-25.39-21.78-10.97,0-20.68,6.11-24.92,15.51v54.38h-6.58Z"/></g><g><polygon class="cls-5" points="6904.06 1626.17 6484.45 1626.69 6576.46 1466.86 6693.8 1263.04 6811.65 1466.57 6904.06 1626.17"/><polygon class="cls-6" points="6811.65 1466.57 6576.46 1466.86 6693.8 1263.04 6811.65 1466.57"/><polygon class="cls-5" points="6848.72 1449.91 6539.35 1450.29 6618.36 1313.05 6693.7 1182.18 6769.37 1312.86 6848.72 1449.91"/><polygon class="cls-6" points="6769.37 1312.86 6618.36 1313.05 6693.7 1182.18 6769.37 1312.86"/><polygon class="cls-5" points="6803.22 1303.2 6584.48 1303.47 6693.62 1113.9 6803.22 1303.2"/></g><g><polygon class="cls-4" points="5245.5 1788.7 4848.53 1789.36 4935.58 1584.15 5046.59 1322.45 5158.08 1583.77 5245.5 1788.7"/><polygon class="cls-4" points="5193.15 1562.39 4900.46 1562.88 4975.22 1386.66 5046.49 1218.62 5118.08 1386.42 5193.15 1562.39"/><polygon class="cls-4" points="5150.1 1374.01 4943.17 1374.36 5046.41 1130.96 5150.1 1374.01"/></g><g><polygon class="cls-3" points="7140.81 2051.76 6743.84 2052.43 6830.89 1847.21 6941.9 1585.51 7053.39 1846.84 7140.81 2051.76"/><polygon class="cls-3" points="7088.47 1825.45 6795.78 1825.94 6870.53 1649.72 6941.81 1481.69 7013.39 1649.48 7088.47 1825.45"/><polygon class="cls-3" points="7045.42 1637.08 6838.48 1637.42 6941.73 1394.03 7045.42 1637.08"/></g><g><path class="cls-7" d="M5612.4,1997.79c-.78-.18-1.52-.56-2.15-1.15l-430.57-407.41c-1.86-1.76-1.94-4.69-.18-6.56,1.76-1.86,4.69-1.94,6.56-.18l430.57,407.41c1.86,1.76,1.94,4.69,.18,6.56-1.17,1.24-2.86,1.69-4.41,1.33Z"/><path class="cls-7" d="M5133,1847.22c-1.97-.45-3.49-2.16-3.6-4.29-.13-2.56,1.84-4.74,4.4-4.87l592.01-29.9c2.56-.13,4.74,1.84,4.87,4.4,.13,2.56-1.84,4.74-4.4,4.87l-592.01,29.9c-.44,.02-.86-.02-1.27-.11Z"/><path class="cls-7" d="M5218.78,2044.6c-.83-.19-1.61-.61-2.25-1.25-1.8-1.82-1.79-4.75,.03-6.56l420.94-417.35c1.82-1.8,4.75-1.79,6.56,.03,1.8,1.82,1.79,4.75-.03,6.56l-420.94,417.35c-1.17,1.16-2.8,1.57-4.3,1.23Z"/><path class="cls-7" d="M5149.74,1658.52c-1.97-.45-3.49-2.16-3.59-4.28-.13-2.56,1.84-4.74,4.39-4.87l94.72-4.85,7.68-93.38c.21-2.55,2.45-4.45,5-4.24,2.57,.22,4.45,2.45,4.24,5l-8.02,97.42c-.19,2.32-2.06,4.13-4.38,4.25l-98.77,5.05c-.44,.02-.87-.02-1.27-.11Z"/><path class="cls-7" d="M5589.13,1677.42c-.76-.17-1.46-.53-2.05-1.06-.94-.84-1.5-2.03-1.55-3.29l-2.16-59.19c-.09-2.56,1.91-4.71,4.47-4.8,2.55-.09,4.71,1.91,4.8,4.47l1.98,54.36,55.33-4.33c2.55-.2,4.78,1.71,4.99,4.26,.2,2.55-1.71,4.78-4.26,4.99l-60.15,4.71c-.47,.04-.94,0-1.4-.1Z"/><path class="cls-7" d="M5709.19,1855.66c-.76-.17-1.5-.55-2.11-1.12l-38.44-35.59c-1.68-1.56-1.97-4.11-.69-6.01l32.82-48.35c1.44-2.12,4.32-2.67,6.44-1.23,2.12,1.44,2.67,4.32,1.23,6.44l-30.58,45.05,35.52,32.89c1.88,1.74,1.99,4.67,.25,6.55-1.17,1.26-2.88,1.73-4.44,1.37Z"/><path class="cls-7" d="M5577.87,2029.43c-.09-.02-.17-.04-.25-.07-2.46-.71-3.88-3.28-3.17-5.74l14.55-50.56c.52-1.82,2.1-3.13,3.98-3.33l47.72-4.94c2.55-.26,4.83,1.59,5.09,4.13,.26,2.55-1.59,4.83-4.13,5.09l-44.61,4.62-13.69,47.55c-.68,2.38-3.1,3.78-5.48,3.24Z"/><path class="cls-7" d="M5268.86,2068.47c-1.96-.45-3.47-2.14-3.59-4.24l-3.89-64.44c-59.61,7.32-63.28,4.1-64.87,2.71-1.93-1.69-2.13-4.62-.44-6.54,1.48-1.69,3.92-2.05,5.8-.97h0c5.22,1.19,36.01-1.58,63.27-5.01,1.27-.16,2.55,.21,3.54,1.03,.99,.82,1.59,2.01,1.67,3.29l4.19,69.37c.16,2.56-1.79,4.75-4.35,4.91-.45,.03-.89-.01-1.31-.11Zm-66.26-72.96s0,0,0,0c0,0,0,0,0,0Z"/><path class="cls-7" d="M5164.91,1884.8c-.3-.07-.61-.17-.9-.31-2.33-1.07-3.35-3.82-2.29-6.15l15.25-33.31-30.71-37.75c-1.62-1.99-1.32-4.91,.67-6.52,1.98-1.62,4.91-1.32,6.52,.67l32.53,39.98c1.11,1.37,1.35,3.25,.62,4.86l-16.45,35.93c-.93,2.03-3.15,3.07-5.24,2.59Z"/><path class="cls-7" d="M5212.54,1720.3c-1.57-.36-2.9-1.52-3.41-3.17-.75-2.45,.64-5.04,3.08-5.79l71.16-21.67,3.38-70.98c.12-2.56,2.29-4.53,4.85-4.41,2.57,.12,4.53,2.3,4.41,4.85l-3.54,74.24c-.09,1.96-1.41,3.64-3.28,4.21l-74.29,22.63c-.8,.24-1.62,.26-2.38,.09Z"/><path class="cls-7" d="M5528.74,1737.29c-.89-.2-1.71-.67-2.35-1.35-.97-1.03-1.41-2.45-1.21-3.85l12.74-86.69c.37-2.53,2.73-4.29,5.26-3.91,2.54,.34,4.29,2.73,3.91,5.26l-11.89,80.91,89.19-7.4c2.55-.21,4.79,1.69,5,4.24s-1.69,4.79-4.24,5l-95.01,7.88c-.48,.04-.96,0-1.42-.1Z"/><path class="cls-7" d="M5655.92,1881.22c-.6-.14-1.19-.4-1.72-.79l-73.41-54.35c-1.09-.81-1.78-2.06-1.87-3.41-.09-1.36,.42-2.69,1.39-3.63,.27-.27,27.55-26.9,43.9-49.42,1.5-2.07,4.41-2.53,6.48-1.03,2.07,1.5,2.53,4.4,1.03,6.48-13.26,18.26-32.82,38.49-41.07,46.79l69.07,51.14c2.06,1.52,2.49,4.43,.97,6.48-1.13,1.53-3.02,2.16-4.76,1.76Z"/><path class="cls-7" d="M5545.24,1980.29c-1.94-.44-3.44-2.11-3.59-4.19l-3.53-49.4c-.18-2.51,1.68-4.71,4.19-4.95l62.15-5.86c2.55-.24,4.81,1.63,5.05,4.18,.24,2.55-1.63,4.81-4.18,5.05l-57.64,5.43,3.21,44.87c.18,2.55-1.74,4.77-4.29,4.96-.47,.03-.93,0-1.36-.1Z"/><path class="cls-7" d="M5310.22,2029.04c-1.78-.41-3.22-1.84-3.54-3.75l-10.81-64.38c-.42-2.52,1.28-4.92,3.81-5.34,2.52-.42,4.91,1.28,5.34,3.81l10.81,64.38c.42,2.52-1.28,4.92-3.81,5.34-.62,.1-1.22,.08-1.8-.05Z"/><path class="cls-7" d="M5246.93,1959.96c-1.85-.42-3.32-1.96-3.57-3.95-.32-2.54,1.49-4.86,4.03-5.17l65.44-8.15c2.54-.32,4.86,1.49,5.17,4.03s-1.49,4.86-4.03,5.17l-65.44,8.15c-.55,.07-1.09,.04-1.61-.08Z"/><path class="cls-7" d="M5223.31,1880.89c-.24-.05-.47-.13-.71-.22-2.37-.96-3.52-3.66-2.57-6.03l14.83-36.81-31.5-49.48c-1.37-2.16-.74-5.03,1.42-6.4,2.16-1.38,5.02-.74,6.4,1.42l32.78,51.49c.8,1.26,.95,2.83,.39,4.22l-15.72,39.02c-.86,2.14-3.15,3.29-5.33,2.79Z"/><path class="cls-7" d="M5446.7,2095.86c-1.97-.45-3.48-2.16-3.59-4.28l-29.18-565.79c-.13-2.56,1.83-4.74,4.39-4.87,2.56-.13,4.74,1.84,4.87,4.39l29.18,565.79c.13,2.56-1.83,4.74-4.39,4.87-.44,.02-.87-.02-1.27-.11Z"/><path class="cls-7" d="M5423.69,1622.03c-1.1-.25-2.08-.9-2.75-1.83l-62.68-88.18c-1.48-2.09-.99-4.98,1.09-6.47,2.09-1.48,4.98-.99,6.47,1.09l58.79,82.7,51.84-77.42c1.42-2.13,4.3-2.7,6.43-1.27,2.13,1.43,2.7,4.3,1.27,6.43l-55.58,83c-.85,1.27-2.26,2.04-3.79,2.06-.37,0-.74-.03-1.1-.11Z"/><path class="cls-7" d="M5428.99,1701.05c-1.19-.27-2.23-1-2.89-2.05l-53.75-85.18c-1.37-2.17-.72-5.03,1.45-6.39,2.16-1.37,5.03-.72,6.39,1.45l50.51,80.05,52.88-57.56c1.73-1.88,4.67-2.01,6.55-.28,1.89,1.73,2.01,4.67,.28,6.55l-56.99,62.02c-.98,1.06-2.39,1.61-3.83,1.48-.21-.02-.41-.05-.62-.1Z"/><path class="cls-7" d="M5383.8,2069.5c-.59-.14-1.17-.39-1.69-.77-2.07-1.51-2.53-4.41-1.02-6.48l59.99-82.41c.86-1.18,2.23-1.89,3.69-1.91,1.46-.02,2.84,.65,3.74,1.81l57.4,74.54c1.56,2.03,1.18,4.94-.84,6.5-2.03,1.56-4.94,1.19-6.5-.84l-53.62-69.64-56.34,77.4c-1.13,1.55-3.03,2.19-4.78,1.79Z"/><path class="cls-7" d="M5402.93,2094.42c-.78-.18-1.53-.56-2.16-1.16-1.86-1.76-1.93-4.7-.17-6.55l40.76-42.94c.93-.98,2.23-1.5,3.58-1.44,1.35,.06,2.6,.71,3.43,1.77l43.01,54.8c1.58,2.01,1.23,4.93-.78,6.51-2.01,1.58-4.93,1.23-6.51-.78l-39.7-50.57-37.07,39.05c-1.17,1.23-2.86,1.68-4.4,1.33Z"/></g><g><path class="cls-5" d="M6161.65,1500.93c-.62-.16-1.21-.48-1.7-.96l-338.44-333.44c-1.46-1.44-1.48-3.79-.04-5.26,1.44-1.46,3.79-1.48,5.26-.04l338.44,333.44c1.46,1.44,1.48,3.79,.04,5.26-.96,.97-2.32,1.3-3.55,1Z"/><path class="cls-5" d="M5779.92,1372.52c-1.57-.39-2.76-1.79-2.81-3.49-.06-2.05,1.55-3.76,3.6-3.83l474.89-14.38c2.06-.06,3.77,1.55,3.83,3.6,.06,2.05-1.55,3.76-3.6,3.83l-474.89,14.38c-.35,.01-.69-.03-1.02-.11Z"/><path class="cls-5" d="M5845.46,1532.07c-.66-.16-1.28-.51-1.79-1.04-1.42-1.49-1.36-3.84,.13-5.25l344.07-327.63c1.49-1.41,3.84-1.36,5.25,.13,1.42,1.49,1.36,3.84-.13,5.25l-344.07,327.63c-.96,.91-2.27,1.21-3.47,.91Z"/><path class="cls-5" d="M5796.39,1221.57c-1.57-.39-2.76-1.79-2.81-3.49-.06-2.05,1.55-3.77,3.6-3.83l75.98-2.35,7.67-74.7c.21-2.04,2.03-3.53,4.08-3.32,2.05,.21,3.53,2.03,3.32,4.08l-8,77.94c-.19,1.85-1.72,3.28-3.58,3.34l-79.23,2.45c-.35,.01-.69-.03-1.02-.11Z"/><path class="cls-5" d="M6148.18,1243.82c-.6-.15-1.16-.45-1.63-.88-.74-.69-1.17-1.65-1.19-2.66l-.77-47.47c-.03-2.05,1.6-3.74,3.66-3.78,2.04-.03,3.74,1.6,3.78,3.66l.71,43.6,44.41-2.58c2.04-.12,3.81,1.44,3.93,3.49,.12,2.05-1.45,3.81-3.49,3.93l-48.28,2.8c-.38,.02-.76-.01-1.12-.1Z"/><path class="cls-5" d="M6241.51,1388.6c-.61-.15-1.19-.46-1.67-.93l-30.23-29.14c-1.32-1.28-1.52-3.33-.45-4.82l27.08-38.21c1.19-1.68,3.5-2.07,5.18-.88,1.67,1.19,2.07,3.51,.88,5.18l-25.23,35.61,27.93,26.93c1.48,1.43,1.52,3.78,.1,5.25-.96,.99-2.33,1.34-3.58,1.03Z"/><path class="cls-5" d="M6133.46,1525.73c-.07-.02-.14-.04-.2-.06-1.96-.61-3.06-2.69-2.45-4.65l12.48-40.28c.45-1.45,1.73-2.48,3.24-2.6l38.32-3.19c2.05-.17,3.84,1.35,4.01,3.4,.17,2.04-1.35,3.84-3.4,4.01l-35.82,2.98-11.74,37.88c-.59,1.89-2.55,2.98-4.45,2.51Z"/><path class="cls-5" d="M5885.21,1552.01c-1.56-.39-2.74-1.77-2.81-3.46l-2.08-51.7c-47.89,4.9-50.78,2.26-52.03,1.13-1.52-1.38-1.63-3.73-.25-5.25,1.21-1.33,3.17-1.58,4.66-.69h0c4.17,1.04,28.88-.68,50.78-2.99,1.02-.11,2.04,.21,2.82,.88,.78,.67,1.24,1.64,1.28,2.66l2.23,55.66c.08,2.05-1.51,3.78-3.56,3.86-.36,.02-.72-.02-1.05-.11Zm-51.92-59.54s0,0,0,0c0,0,0,0,0,0Z"/><path class="cls-5" d="M5804.88,1403.15c-.24-.06-.48-.15-.72-.26-1.85-.89-2.62-3.11-1.73-4.96l12.76-26.45-24-30.74c-1.26-1.62-.98-3.95,.64-5.22,1.62-1.26,3.95-.98,5.22,.64l25.42,32.56c.87,1.12,1.03,2.63,.42,3.9l-13.76,28.53c-.78,1.61-2.57,2.41-4.24,1.99Z"/><path class="cls-5" d="M5845.71,1272.1c-1.25-.31-2.3-1.27-2.68-2.6-.56-1.97,.59-4.03,2.57-4.59l57.38-16.22,3.86-56.82c.14-2.05,1.91-3.6,3.96-3.46,2.06,.14,3.6,1.91,3.46,3.96l-4.04,59.43c-.11,1.57-1.19,2.9-2.7,3.32l-59.9,16.93c-.65,.18-1.3,.18-1.91,.03Z"/><path class="cls-5" d="M6098.82,1290.83c-.71-.18-1.36-.56-1.86-1.12-.76-.84-1.09-1.99-.9-3.1l11.62-69.26c.34-2.02,2.25-3.39,4.28-3.05,2.03,.32,3.39,2.26,3.05,4.28l-10.84,64.65,71.59-4.49c2.04-.13,3.81,1.43,3.94,3.48,.13,2.05-1.43,3.81-3.48,3.94l-76.27,4.78c-.38,.02-.77-.01-1.13-.1Z"/><path class="cls-5" d="M6198.4,1408.23c-.48-.12-.95-.34-1.37-.66l-57.95-44.74c-.86-.67-1.39-1.68-1.44-2.77-.05-1.09,.38-2.15,1.17-2.89,.22-.21,22.51-21.11,35.98-38.9,1.24-1.64,3.57-1.96,5.21-.72,1.64,1.24,1.96,3.57,.72,5.21-10.92,14.42-26.92,30.31-33.67,36.83l54.52,42.1c1.62,1.25,1.92,3.59,.67,5.21-.93,1.2-2.46,1.68-3.84,1.33Z"/><path class="cls-5" d="M6108.11,1485.82c-1.54-.39-2.72-1.74-2.81-3.42l-2.03-39.64c-.1-2.02,1.42-3.75,3.44-3.9l49.9-3.69c2.05-.15,3.83,1.38,3.98,3.43,.15,2.05-1.39,3.83-3.43,3.98l-46.28,3.42,1.85,36.01c.11,2.05-1.47,3.8-3.52,3.9-.38,.02-.74-.02-1.09-.11Z"/><path class="cls-5" d="M5918.99,1521.08c-1.42-.35-2.55-1.53-2.78-3.07l-7.62-51.76c-.3-2.03,1.11-3.92,3.14-4.22,2.03-.3,3.92,1.1,4.22,3.14l7.62,51.76c.3,2.03-1.11,3.92-3.14,4.22-.5,.07-.98,.04-1.44-.07Z"/><path class="cls-5" d="M5869.39,1464.7c-1.47-.37-2.63-1.62-2.8-3.22-.21-2.04,1.27-3.87,3.31-4.08l52.58-5.47c2.04-.21,3.87,1.27,4.08,3.31s-1.27,3.87-3.31,4.08l-52.58,5.47c-.44,.05-.88,.01-1.29-.09Z"/><path class="cls-5" d="M5851.74,1400.96c-.19-.05-.38-.11-.56-.19-1.89-.81-2.76-2.99-1.96-4.88l12.48-29.25-24.44-40.16c-1.07-1.75-.51-4.04,1.24-5.11,1.75-1.07,4.04-.51,5.11,1.24l25.43,41.79c.62,1.02,.71,2.29,.24,3.39l-13.23,31.01c-.73,1.7-2.57,2.58-4.31,2.15Z"/><path class="cls-5" d="M6027.28,1576.83c-1.57-.39-2.76-1.79-2.81-3.49l-14.23-453.86c-.06-2.05,1.55-3.77,3.6-3.83,2.05-.06,3.77,1.55,3.83,3.6l14.23,453.86c.06,2.05-1.55,3.77-3.6,3.83-.35,.01-.69-.03-1.02-.11Z"/><path class="cls-5" d="M6016.5,1196.77c-.88-.22-1.65-.75-2.17-1.51l-48.8-71.68c-1.15-1.7-.72-4.01,.98-5.16,1.7-1.15,4.01-.71,5.16,.98l45.77,67.23,42.8-61.2c1.17-1.68,3.49-2.09,5.17-.92,1.68,1.18,2.09,3.49,.92,5.17l-45.88,65.62c-.7,1-1.85,1.59-3.07,1.59-.3,0-.59-.04-.88-.11Z"/><path class="cls-5" d="M6019.47,1260.18c-.95-.24-1.77-.84-2.28-1.69l-41.69-69.12c-1.06-1.76-.5-4.04,1.26-5.1,1.76-1.06,4.04-.5,5.1,1.26l39.18,64.96,43.31-45.27c1.42-1.48,3.77-1.54,5.25-.12,1.48,1.42,1.54,3.77,.12,5.25l-46.67,48.78c-.8,.84-1.94,1.25-3.09,1.12-.17-.02-.33-.05-.49-.09Z"/><path class="cls-5" d="M5977.3,1554.7c-.47-.12-.93-.33-1.34-.65-1.63-1.24-1.95-3.57-.71-5.21l49.4-65.07c.71-.93,1.81-1.48,2.99-1.47,1.17,0,2.27,.57,2.96,1.51l44.79,60.66c1.22,1.65,.87,3.98-.78,5.2-1.65,1.22-3.98,.87-5.2-.78l-41.84-56.67-46.4,61.11c-.93,1.22-2.46,1.71-3.86,1.36Z"/><path class="cls-5" d="M5992.23,1574.98c-.62-.16-1.22-.48-1.71-.96-1.46-1.44-1.47-3.79-.03-5.26l33.36-33.75c.76-.77,1.81-1.17,2.89-1.09,1.08,.07,2.07,.61,2.72,1.47l33.58,44.61c1.23,1.64,.91,3.97-.73,5.2-1.64,1.23-3.97,.91-5.2-.73l-30.99-41.17-30.33,30.69c-.96,.97-2.32,1.3-3.55,.99Z"/></g><path class="cls-2" d="M5720.41,1482.31c.81-4.39,1.46-8.78,1.96-13.15,.14-1.24,.27-2.47,.38-3.73,1.39-14.59,1.1-29.03-.74-43.14-.15-1.21-.33-2.43-.51-3.65-10.45-69.75-58.65-130.7-127.09-158.36l29.29-60.26-30.21,24.14-5.89-30.93-33.75,7.12-32.22-19.54s.26,38.51,.13,63.96c-77.91-2.9-149.41,37.31-185.62,101.61-.61,1.08-1.2,2.15-1.77,3.23-3.66,6.8-6.94,13.88-9.79,21.19l-1.76,4.74c-1.65,4.54-3.1,9.18-4.41,13.9-.35,1.22-.67,2.45-.98,3.67-1.06,4.2-2.01,8.46-2.81,12.78-.34,1.84-.64,3.69-.92,5.53l-.82,5.89c-.72,5.77-1.17,11.54-1.36,17.28v.02c-.06,1.38-.07,2.76-.1,4.14-1.14,95.73,69.37,182.17,170,201.11,91.83,17.28,180.26-26.96,220.15-103.01,1.03-1.94,2.02-3.9,2.97-5.9,2.68-5.54,5.11-11.28,7.26-17.14,.46-1.25,.92-2.53,1.35-3.82,.2-.57,.39-1.15,.58-1.74,.55-1.64,1.08-3.29,1.59-4.96,2.07-6.83,3.76-13.83,5.09-21Z"/><g><rect class="cls-5" x="5046" y="402" width="2" height="729"/><path class="cls-5" d="M5047.86,1126.84l-2.58-.75c-.18-.05-18.55-5.43-38.24-14.26-26.58-11.92-42.78-24.12-48.17-36.26-2.7-6.08-2.62-12.14,.23-18,2.6-5.34,6.36-8.19,11.18-8.49,25.75-1.61,74.07,72.36,76.11,75.51l1.46,2.26Zm-76.71-75.79c-.25,0-.5,0-.74,.02-4.11,.25-7.22,2.66-9.51,7.37-2.58,5.31-2.65,10.8-.2,16.31,11.04,24.89,69.28,44.45,82.49,48.6-8.46-12.62-49.69-72.3-72.03-72.3Z"/><path class="cls-5" d="M5045.25,1126.25l1.7-2.08c.1-.12,9.65-11.79,22.12-23.36,16.85-15.64,30.73-23.66,41.25-23.83,5.28-.1,9.73,1.86,13.14,5.78,3.12,3.59,4.05,7.26,2.75,10.93-6.82,19.3-75.4,31.59-78.32,32.1l-2.65,.47Zm65.41-47.27c-.1,0-.21,0-.31,0-20.98,.34-52.27,35.24-60.05,44.32,13.06-2.53,68.33-14.16,74.03-30.28,1.05-2.98,.28-5.91-2.38-8.95-2.98-3.43-6.68-5.09-11.29-5.09Z"/></g><g><rect class="cls-5" x="5577.5" y="265" width="2" height="933"/><path class="cls-5" d="M5579.36,1193.84l-2.58-.75c-.18-.05-18.55-5.43-38.24-14.26-26.58-11.92-42.78-24.12-48.17-36.26-2.7-6.08-2.62-12.14,.23-18,2.6-5.34,6.36-8.19,11.18-8.49,25.76-1.58,74.07,72.36,76.11,75.51l1.46,2.26Zm-76.71-75.79c-.25,0-.5,0-.74,.02-4.11,.25-7.22,2.66-9.51,7.37-2.58,5.31-2.65,10.8-.2,16.31,11.04,24.89,69.28,44.45,82.49,48.6-8.46-12.62-49.69-72.3-72.03-72.3Z"/><path class="cls-5" d="M5575.75,1193.25l1.7-2.08c.1-.12,9.65-11.79,22.12-23.36,16.85-15.64,30.73-23.66,41.25-23.83,5.3-.1,9.73,1.86,13.14,5.78,3.12,3.59,4.05,7.26,2.75,10.93-6.82,19.3-75.4,31.59-78.32,32.1l-2.65,.47Zm65.41-47.27c-.1,0-.21,0-.31,0-20.98,.34-52.27,35.24-60.05,44.32,13.06-2.53,68.33-14.16,74.03-30.28,1.05-2.98,.28-5.91-2.38-8.95-2.98-3.43-6.68-5.09-11.29-5.09Z"/></g><g><rect class="cls-5" x="6014.5" y="57" width="2" height="1077"/><path class="cls-5" d="M6016.36,1129.84l-2.58-.75c-.18-.05-18.55-5.43-38.24-14.26-26.58-11.92-42.78-24.12-48.17-36.26-2.7-6.08-2.62-12.14,.23-18,2.6-5.34,6.36-8.19,11.18-8.49,25.77-1.6,74.07,72.36,76.11,75.51l1.46,2.26Zm-76.71-75.79c-.25,0-.5,0-.74,.02-4.11,.25-7.22,2.66-9.51,7.37-2.58,5.31-2.65,10.8-.2,16.31,11.04,24.89,69.28,44.45,82.49,48.6-8.46-12.62-49.69-72.3-72.03-72.3Z"/><path class="cls-5" d="M6012.75,1129.25l1.7-2.08c.09-.12,9.65-11.79,22.12-23.36,16.85-15.64,30.73-23.66,41.25-23.83,5.29-.1,9.73,1.86,13.14,5.78,3.12,3.59,4.05,7.26,2.75,10.93-6.82,19.3-75.4,31.59-78.32,32.1l-2.65,.47Zm65.42-47.27c-.1,0-.21,0-.32,0-20.98,.34-52.27,35.24-60.05,44.32,13.06-2.53,68.33-14.16,74.03-30.28,1.05-2.98,.28-5.91-2.38-8.95-2.99-3.43-6.68-5.09-11.29-5.09Z"/></g><g><rect class="cls-5" x="6694.5" y="212" width="2" height="914"/><path class="cls-5" d="M6696.36,1121.84l-2.58-.75c-.18-.05-18.55-5.43-38.24-14.26-26.58-11.92-42.79-24.12-48.17-36.26-2.7-6.08-2.62-12.14,.23-18,2.6-5.34,6.36-8.19,11.18-8.49,25.76-1.58,74.07,72.36,76.11,75.51l1.46,2.26Zm-76.71-75.79c-.25,0-.5,0-.74,.02-4.11,.25-7.22,2.66-9.51,7.37-2.58,5.31-2.65,10.8-.2,16.31,11.04,24.89,69.28,44.45,82.49,48.6-8.46-12.62-49.69-72.3-72.03-72.3Z"/><path class="cls-5" d="M6692.75,1121.25l1.7-2.08c.09-.12,9.65-11.79,22.12-23.36,16.85-15.64,30.73-23.66,41.25-23.83,5.29-.11,9.73,1.86,13.14,5.78,3.12,3.59,4.05,7.26,2.75,10.93-6.82,19.3-75.4,31.59-78.32,32.1l-2.65,.47Zm65.42-47.27c-.1,0-.21,0-.32,0-20.98,.34-52.27,35.24-60.05,44.32,13.06-2.53,68.33-14.16,74.03-30.28,1.05-2.98,.28-5.91-2.38-8.95-2.99-3.43-6.68-5.09-11.29-5.09Z"/></g><g><rect class="cls-5" x="6309" y="575" width="2" height="1160"/><path class="cls-5" d="M6310.86,1730.84l-2.58-.75c-.18-.05-18.55-5.43-38.24-14.26-26.58-11.92-42.79-24.12-48.17-36.26-2.7-6.08-2.62-12.14,.23-18,2.6-5.34,6.36-8.19,11.18-8.49,25.76-1.58,74.07,72.36,76.11,75.51l1.46,2.26Zm-76.71-75.79c-.25,0-.5,0-.74,.02-4.11,.25-7.22,2.66-9.51,7.37-2.58,5.31-2.65,10.8-.2,16.31,11.04,24.89,69.28,44.45,82.49,48.6-8.46-12.62-49.69-72.3-72.03-72.3Z"/><path class="cls-5" d="M6307.25,1730.25l1.7-2.08c.09-.12,9.65-11.79,22.12-23.36,16.85-15.64,30.73-23.66,41.25-23.83,5.29-.11,9.73,1.86,13.14,5.78,3.12,3.59,4.05,7.26,2.75,10.93-6.82,19.3-75.4,31.59-78.32,32.1l-2.65,.47Zm65.42-47.27c-.1,0-.21,0-.32,0-20.98,.34-52.27,35.24-60.05,44.32,13.06-2.53,68.33-14.16,74.03-30.28,1.05-2.98,.28-5.91-2.38-8.95-2.99-3.43-6.68-5.09-11.29-5.09Z"/></g><g><rect class="cls-7" x="6941.5" y="327" width="2" height="1073"/><path class="cls-7" d="M6943.36,1395.84l-2.58-.75c-.18-.05-18.55-5.43-38.24-14.26-26.58-11.92-42.79-24.12-48.17-36.26-2.7-6.08-2.62-12.14,.23-18,2.6-5.34,6.36-8.19,11.18-8.49,25.74-1.57,74.07,72.36,76.11,75.51l1.46,2.26Zm-76.71-75.79c-.25,0-.5,0-.74,.02-4.11,.25-7.22,2.66-9.51,7.37-2.58,5.31-2.65,10.8-.2,16.31,11.04,24.89,69.28,44.45,82.49,48.6-8.46-12.62-49.69-72.3-72.03-72.3Z"/><path class="cls-7" d="M6939.75,1395.25l1.7-2.08c.09-.12,9.65-11.79,22.12-23.36,16.85-15.64,30.73-23.66,41.25-23.83,5.31-.11,9.73,1.86,13.14,5.78,3.12,3.59,4.05,7.26,2.75,10.93-6.82,19.3-75.4,31.59-78.32,32.1l-2.65,.47Zm65.42-47.27c-.1,0-.21,0-.32,0-20.98,.34-52.27,35.24-60.05,44.32,13.06-2.53,68.33-14.16,74.03-30.28,1.05-2.98,.28-5.91-2.38-8.95-2.99-3.43-6.68-5.09-11.29-5.09Z"/></g><g><rect class="cls-7" x="5418.5" y="603" width="2" height="933"/><path class="cls-7" d="M5420.36,1531.84l-2.58-.75c-.18-.05-18.55-5.43-38.24-14.26-26.58-11.92-42.78-24.12-48.17-36.26-2.7-6.08-2.62-12.14,.23-18,2.6-5.34,6.36-8.19,11.18-8.49,25.76-1.58,74.07,72.36,76.11,75.51l1.46,2.26Zm-76.71-75.79c-.25,0-.5,0-.74,.02-4.11,.25-7.22,2.66-9.51,7.37-2.58,5.31-2.65,10.8-.2,16.31,11.04,24.89,69.28,44.45,82.49,48.6-8.46-12.62-49.69-72.3-72.03-72.3Z"/><path class="cls-7" d="M5416.75,1531.25l1.7-2.08c.1-.12,9.65-11.79,22.12-23.36,16.85-15.64,30.73-23.66,41.25-23.83,5.28-.09,9.73,1.86,13.14,5.78,3.12,3.59,4.05,7.26,2.75,10.93-6.82,19.3-75.4,31.59-78.32,32.1l-2.65,.47Zm65.41-47.27c-.1,0-.21,0-.31,0-20.98,.34-52.27,35.24-60.05,44.32,13.06-2.53,68.33-14.16,74.03-30.28,1.05-2.98,.28-5.91-2.38-8.95-2.98-3.43-6.68-5.09-11.29-5.09Z"/></g><g><path class="cls-7" d="M5739.61,2888.92c15.81-9.88,27.45-20.35,34.91-31.4,7.45-11.05,11.19-23.86,11.19-38.41,0-12.22-2.7-23.45-8.09-33.69-5.39-10.24-12.98-18.42-22.78-24.53-9.8-6.11-20.98-9.17-33.56-9.17s-24.39,3.23-34.91,9.7c-10.51,6.47-18.83,15.19-24.93,26.15-6.11,10.96-9.17,23.09-9.17,36.39h-8.89c0-14.91,3.41-28.48,10.24-40.7,6.83-12.22,16.17-21.83,28.03-28.84,11.86-7.01,25.07-10.51,39.62-10.51s26.86,3.42,38.01,10.24c11.14,6.83,19.81,16,26.01,27.49,6.2,11.5,9.3,24.08,9.3,37.74,0,29.29-15.9,54.09-47.71,74.4l-73.32,46.9h120.22v7.82h-148.26l94.08-59.57Z"/><path class="cls-7" d="M5870.08,2937.85c-16-9.43-28.62-22.19-37.87-38.28-9.26-16.08-13.88-33.56-13.88-52.43s4.72-35.49,14.15-51.49c9.43-15.99,22.19-28.71,38.28-38.14,16.08-9.43,33.47-14.15,52.16-14.15s36.3,4.72,52.29,14.15c15.99,9.43,28.71,22.15,38.14,38.14,9.43,16,14.15,33.42,14.15,52.29s-4.68,35.99-14.02,51.89c-9.35,15.9-22.02,28.57-38.01,38.01-16,9.43-33.52,14.15-52.56,14.15s-36.84-4.72-52.83-14.15Zm100.68-6.74c14.64-8.71,26.28-20.44,34.91-35.18,8.63-14.73,12.94-30.82,12.94-48.25s-4.31-33.29-12.94-48.12c-8.63-14.83-20.26-26.59-34.91-35.31-14.65-8.71-30.6-13.07-47.85-13.07s-33.2,4.36-47.85,13.07c-14.65,8.72-26.28,20.49-34.91,35.31-8.63,14.83-12.94,30.86-12.94,48.12s4.31,33.52,12.94,48.25c8.63,14.74,20.26,26.46,34.91,35.18,14.64,8.72,30.59,13.07,47.85,13.07s33.2-4.35,47.85-13.07Z"/><path class="cls-7" d="M6142.05,2888.92c15.81-9.88,27.45-20.35,34.91-31.4,7.45-11.05,11.19-23.86,11.19-38.41,0-12.22-2.7-23.45-8.09-33.69-5.39-10.24-12.98-18.42-22.78-24.53-9.8-6.11-20.98-9.17-33.56-9.17s-24.39,3.23-34.91,9.7-18.83,15.19-24.93,26.15c-6.11,10.96-9.17,23.09-9.17,36.39h-8.89c0-14.91,3.41-28.48,10.24-40.7,6.83-12.22,16.17-21.83,28.03-28.84,11.86-7.01,25.07-10.51,39.62-10.51s26.86,3.42,38.01,10.24c11.14,6.83,19.81,16,26.01,27.49,6.2,11.5,9.3,24.08,9.3,37.74,0,29.29-15.9,54.09-47.71,74.4l-73.32,46.9h120.22v7.82h-148.26l94.08-59.57Z"/><path class="cls-7" d="M6251.63,2942.43c-10.51-5.84-18.73-13.7-24.66-23.59-5.93-9.88-8.9-20.76-8.9-32.62v-5.66h8.36v4.31c0,10.78,2.51,20.67,7.55,29.65,5.03,8.99,12.17,16.08,21.43,21.3,9.25,5.21,19.72,7.82,31.4,7.82s22.42-2.38,31.67-7.14c9.25-4.76,16.44-11.36,21.56-19.81,5.12-8.44,7.68-17.97,7.68-28.57,0-15.63-3.6-28.71-10.78-39.22-7.19-10.51-17.97-17.66-32.35-21.43,7.55-4.67,13.21-10.38,16.98-17.12,3.77-6.74,5.66-13.79,5.66-21.16,0-6.83-1.58-13.16-4.72-19-3.15-5.84-7.68-10.51-13.61-14.02-5.93-3.5-12.85-5.26-20.76-5.26s-15.63,1.89-22.1,5.66c-6.47,3.77-11.55,8.89-15.23,15.36-3.69,6.47-5.71,13.66-6.07,21.56h-8.63c.36-9.34,2.7-17.83,7.01-25.47,4.31-7.64,10.38-13.66,18.2-18.06,7.82-4.4,16.75-6.6,26.82-6.6,9.52,0,17.88,2.16,25.07,6.47,7.18,4.31,12.76,10.02,16.71,17.12,3.95,7.1,5.93,14.51,5.93,22.24,0,7.01-1.53,13.66-4.58,19.95-3.06,6.29-7.64,11.68-13.75,16.17,12.94,5.03,22.69,12.94,29.25,23.72,6.56,10.78,9.84,24.26,9.84,40.43,0,11.32-2.96,21.7-8.9,31.13-5.93,9.43-14.2,16.89-24.8,22.37-10.61,5.48-22.55,8.22-35.85,8.22s-24.93-2.92-35.45-8.76Z"/></g><path class="cls-1" d="M6620.12,1845.24c-11.36-18.67-28.24-32.36-50.65-41.08,10.58-7.78,18.51-17.11,23.81-28.01,5.29-10.89,7.94-22.41,7.94-34.54,0-13.38-3.43-26.21-10.27-38.51-6.85-12.29-16.5-22.17-28.94-29.64-12.45-7.47-26.92-11.2-43.41-11.2-17.43,0-32.91,3.81-46.45,11.44-13.54,7.63-24.04,18.05-31.51,31.28-7.47,13.23-11.52,27.94-12.14,44.11h14.94c.62-13.69,4.12-26.14,10.5-37.34,6.37-11.2,15.17-20.07,26.38-26.61,11.2-6.54,23.96-9.8,38.28-9.8s25.67,3.03,35.94,9.1c10.27,6.07,18.13,14.16,23.57,24.27,5.44,10.12,8.17,21.09,8.17,32.91,0,12.76-3.27,24.97-9.8,36.64-6.54,11.67-16.34,21.55-29.41,29.64,24.9,6.54,43.57,18.91,56.02,37.11,12.44,18.2,18.67,40.85,18.67,67.92,0,18.37-4.43,34.86-13.3,49.48-8.87,14.63-21.32,26.07-37.34,34.31-16.03,8.25-34.31,12.37-54.85,12.37s-38.36-4.51-54.38-13.54c-16.03-9.02-28.4-21.31-37.11-36.88-2.89-5.16-5.29-10.5-7.23-16.01,20.84-25.31,31.28-53.57,31.28-84.77,0-23.65-5.37-45.43-16.11-65.35-10.74-19.91-25.75-35.78-45.05-47.61-19.3-11.82-41.24-17.74-65.82-17.74s-45.97,5.54-65.78,16.59c-11.77-12.38-25.24-23.06-40.43-32.01-27.7-16.34-57.88-24.51-90.56-24.51s-62.48,8.17-90.33,24.51c-16.34,9.58-30.68,21.14-43.06,34.63-10.09-15.23-23.07-27.72-38.96-37.47-19.3-11.82-41.24-17.74-65.82-17.74s-48.08,6.07-68.62,18.21-36.72,28.79-48.55,49.95c-11.83,21.17-17.74,44.66-17.74,70.49h15.4c0-23.03,5.29-44.03,15.87-63.02,10.58-18.98,24.97-34.08,43.18-45.28,18.21-11.2,38.35-16.8,60.45-16.8s41.15,5.3,58.12,15.87c15.37,9.59,27.6,22.13,36.71,37.59-4.78,6.19-9.2,12.73-13.27,19.62-16.34,27.7-24.51,57.42-24.51,89.16,0,17.94,2.43,35.15,7.26,51.63-9.39,8.11-20.24,16.02-32.56,23.72l-162.92,103.16h256.74v-13.54h-208.2l126.97-81.22c9.01-5.75,17.27-11.72,24.81-17.89,3.31,8.51,7.27,16.82,11.93,24.92,16.02,27.86,37.88,49.95,65.59,66.29,27.7,16.34,58.19,24.51,91.5,24.51s63.32-8.17,91.03-24.51c27.69-16.34,49.63-38.28,65.82-65.82,16.18-27.54,24.27-57.49,24.27-89.86s-8.17-62.86-24.51-90.56c-4.79-8.12-10.08-15.73-15.85-22.88,17.02-9.47,35.68-14.21,56-14.21,21.78,0,41.15,5.3,58.12,15.87,16.96,10.58,30.11,24.74,39.44,42.48,9.34,17.74,14,37.19,14,58.35,0,25.21-6.46,47.38-19.37,66.52-.3,.44-.61,.87-.92,1.31-.94-5.81-1.43-11.78-1.43-17.93v-7.47h-14.47v9.8c0,10.55,1.37,20.65,4.08,30.3-12.2,13.31-28.09,26.1-47.71,38.37l-162.92,103.16h256.74v-13.54h-208.2l126.97-81.22c15.74-10.05,29.22-20.73,40.46-32.05,1.75,3.9,3.74,7.72,5.98,11.46,10.27,17.12,24.51,30.74,42.71,40.85,18.21,10.12,38.67,15.17,61.39,15.17s43.72-4.74,62.09-14.24c18.36-9.49,32.68-22.41,42.95-38.74,10.27-16.34,15.41-34.31,15.41-53.92,0-28.01-5.68-51.35-17.04-70.02Zm-638.36-60.66c2.32-3.99,4.79-7.84,7.36-11.58,6.23,15,9.34,31.14,9.34,48.42,0,25.21-6.46,47.38-19.37,66.52-4.3,6.37-9.42,12.63-15.32,18.77-2.94-12.48-4.42-25.41-4.42-38.81,0-29.88,7.47-57.65,22.41-83.32Zm309.03,83.32c0,30.19-7.47,58.05-22.41,83.56-14.94,25.52-35.09,45.83-60.45,60.92-25.37,15.1-52.98,22.64-82.86,22.64s-57.5-7.54-82.86-22.64c-25.37-15.09-45.51-35.4-60.45-60.92-5.54-9.47-10.05-19.26-13.54-29.37,30.42-29.1,45.65-62.5,45.65-100.2,0-22.44-4.84-43.2-14.52-62.29,12.08-14.29,26.36-26.35,42.85-36.17,25.36-15.09,52.98-22.64,82.86-22.64s57.49,7.55,82.86,22.64c13.34,7.94,25.22,17.35,35.67,28.22-16.04,11.4-29.02,25.96-38.94,43.69-11.83,21.17-17.74,44.66-17.74,70.49h15.4c0-23.03,5.29-44.03,15.87-63.02,8.99-16.13,20.75-29.45,35.26-39.97,5.44,6.77,10.42,14.01,14.92,21.74,14.94,25.67,22.41,53.45,22.41,83.32Z"/></svg>