<?xml version="1.0" encoding="UTF-8"?><svg id="_Слой_1" xmlns="http://www.w3.org/2000/svg" viewBox="0 0 16000 4200"><defs><style>.cls-1{fill:#f9c89b;}.cls-2{fill:#fff;}.cls-3{fill:#e5e5e5;}.cls-4{fill:#d5aa65;}.cls-5{fill:#3f7a54;}.cls-6{fill:#606060;}</style></defs><rect class="cls-3" width="16000" height="4200"/><g><rect class="cls-5" x="4367.92" y="335.44" width="3365.24" height="3529.11"/><g><path class="cls-1" d="M5169.27,2113.58c-.36-11.59-2.9-16.66-4.71-19.92-1.45-2.17-2.17-4.35-2.17-5.79,0-4.35,3.98-7.97,8.69-7.97,8.33,0,16.66,12.31,17.02,36.21,22.81,6.52,35.85,26.8,35.85,58.3,0,35.13-14.49,79.31-37.3,121.68,40.56,17.38,70.26,47.08,81.48,76.77,68.08-207.14,132.54-260.38,181.43-260.38,15.93,0,25.35,7.97,25.35,13.76,0,3.98-2.9,6.88-6.52,6.88-6.16,0-5.79-4.35-19.19-4.35-40.56,0-110.09,72.07-175.28,289.71-1.81,6.16-3.26,9.42-9.05,9.42-5.07,0-9.05-2.9-9.05-7.97,0-1.81,1.09-7.24,2.17-11.95-.72-35.49-30.06-77.14-79.31-97.78-40.92,68.81-103.21,128.56-160.79,128.56-38.75,0-63.01-22.81-63.01-55.77,0-50.34,67-102.48,156.44-102.48,19.92,0,39.11,3.26,56.49,8.69,22.09-40.56,36.21-82.93,36.21-114.8,0-21-6.52-34.76-17.74-40.92-8.69,46.72-51.06,103.57-89.09,103.57-21.37,0-38.39-13.76-38.39-39.11,0-43.82,61.2-84.02,110.45-84.38Zm-9.42,189.76c-14.85-3.98-31.14-6.52-48.53-6.52-76.77,0-136.89,46.35-136.89,86.19,0,23.54,16.66,39.47,43.09,39.47,48.89,0,104.66-55.41,142.32-119.14Zm8.33-174.19c-40.2,.36-90.17,33.68-90.17,70.25,0,14.12,8.33,22.09,19.56,22.09,30.06,0,64.1-52.51,70.62-92.35Z"/><path class="cls-1" d="M5510.05,2339.2s2.54-3.98,5.79-3.98c4.71,0,7.6,3.26,7.6,7.61,0,1.45-.72,3.26-1.45,4.71-25.35,39.11-65.91,67.72-107.19,67.72-35.13,0-54.68-17.38-54.68-49.25,0-59.75,53.23-103.93,91.98-103.93,21.73,0,34.4,10.86,34.4,30.06,0,29.33-46.35,56.49-105.02,61.93-.36,3.98-.72,8.33-.72,12.31,0,22.09,14.49,33.32,35.85,33.32,29.7,0,69.89-23.9,93.43-60.48Zm-124.94,0c46.72-5.79,81.84-27.52,81.84-49.25,0-7.97-6.16-13.04-15.21-13.04-22.09,0-55.05,26.07-66.63,62.29Z"/><path class="cls-1" d="M5603.84,2339.2c1.81-2.9,3.98-3.98,6.16-3.98,3.98,0,7.24,3.26,7.24,7.24,0,1.45-.36,3.26-1.45,5.07-22.45,34.77-48.89,67.72-78.58,67.72-21.37,0-34.77-13.04-34.77-39.84,0-35.13,37.3-116.25,64.46-168.4,9.42-18.11,17.02-30.78,22.81-30.78s9.42,3.62,9.42,9.05c0,14.85-21.73,52.87-45.99,94.16-17.74,38.75-31.14,74.96-31.14,97.05,0,16.66,7.6,24.26,18.11,24.26,19.19,0,43.09-29.69,63.74-61.56Z"/><path class="cls-1" d="M5697.63,2339.2c1.81-2.9,3.98-3.98,6.16-3.98,3.98,0,7.24,3.26,7.24,7.24,0,1.45-.36,3.26-1.45,5.07-22.45,34.77-48.89,67.72-78.58,67.72-21.37,0-34.77-13.04-34.77-39.84,0-35.13,37.3-116.25,64.46-168.4,9.42-18.11,17.02-30.78,22.81-30.78s9.42,3.62,9.42,9.05c0,14.85-21.73,52.87-45.99,94.16-17.74,38.75-31.14,74.96-31.14,97.05,0,16.66,7.6,24.26,18.11,24.26,19.19,0,43.09-29.69,63.74-61.56Z"/><path class="cls-1" d="M5743.26,2415.25c-28.61,0-49.25-17.74-49.25-51.79,0-53.96,49.25-101.4,91.62-101.4,28.97,0,46.72,17.38,46.72,47.44,0,50.34-44.54,105.74-89.09,105.74Zm42.01-138.7c-29.7,0-71.7,43.82-71.7,88,0,23.54,14.49,35.49,30.42,35.49,35.49,0,69.53-48.89,69.53-91.26,0-21.37-11.59-32.23-28.25-32.23Z"/><path class="cls-1" d="M6211.51,2406.55c22.81,0,51.06-31.87,73.88-67.36,1.81-2.9,3.98-3.98,6.16-3.98,3.98,0,7.24,3.26,7.24,7.24,0,1.45-.36,3.26-1.45,5.07-24.63,38.39-54.68,74.24-88.72,74.24-24.63,0-43.46-16.66-43.46-46.72,0-9.78,2.17-19.19,5.07-25.35-31.14,42.01-73.88,74.6-120.59,74.6-50.7,0-87.64-31.87-87.64-88.72,0-73.88,56.49-145.22,125.3-181.79v-6.16c0-26.07,14.12-43.82,21.37-43.82,5.07,0,8.69,3.26,8.69,7.97,0,2.53-1.09,4.35-3.62,7.6-3.62,5.07-7.97,13.76-7.97,24.99v.36c24.99-10.86,51.42-17.02,76.77-17.02,34.77,0,56.86,14.85,64.1,36.21l6.52-14.49c3.62-7.97,8.33-12.67,13.04-12.67,6.52,0,10.5,4.35,10.5,10.5,0,12.68-11.23,35.85-32.59,70.26-6.16,12.31-26.44,55.05-40.2,90.9-12.31,31.14-17.74,52.87-17.74,67,0,19.92,10.86,31.14,25.35,31.14Zm7.24-178.54c-11.23,6.16-24.26,9.78-38.03,9.78-42.37,0-79.31-27.89-90.17-66.27-59.75,35.49-106.83,100.67-106.83,164.05,0,47.08,31.51,71.7,66.63,71.7,41.65,0,80.03-32.23,109-71.34,18.47-25.35,29.7-43.82,43.82-73.88l15.57-34.04Zm-111.54-65.55c7.24,36.58,36.58,60.48,73.51,60.48,29.33,0,51.79-19.56,51.79-42.37s-18.47-36.94-49.98-36.94c-25.35,0-51.06,6.88-75.33,18.83Z"/><path class="cls-1" d="M6467.54,2339.2c1.81-2.9,3.98-3.98,6.16-3.98,3.98,0,7.24,3.26,7.24,7.24,0,1.45-.36,3.26-1.45,5.07-22.45,34.77-48.89,67.72-78.58,67.72-18.83,0-34.76-13.04-34.76-37.66,0-1.81,0-3.26,.36-4.71-17.02,23.9-35.85,42.37-55.41,42.37s-33.32-12.68-33.32-38.02c0-23.9,14.49-59.39,27.16-84.38,11.23-21.73,17.02-30.78,22.45-30.78,6.16,0,9.78,3.62,9.78,8.69,0,6.16-5.43,17.02-15.57,33.32-11.59,23.9-23.9,53.24-23.9,73.88,0,15.93,6.88,21.73,15.21,21.73,16.3,0,33.32-19.19,49.98-43.09,12.68-18.11,24.63-45.63,34.4-68.44,8.33-19.19,13.4-26.07,19.19-26.07,6.16,0,9.78,3.62,9.78,8.69,0,6.16-6.16,17.02-16.3,33.32-11.23,24.26-24.26,53.24-24.26,73.51,0,15.93,7.24,23.18,18.11,23.18,19.19,0,43.09-29.69,63.74-61.56Z"/><path class="cls-1" d="M6563.87,2339.2c1.81-2.9,3.62-4.35,6.16-4.35,3.62,0,7.61,2.9,7.61,6.52,0,2.53-.72,3.98-1.81,5.79-23.9,37.3-49.25,68.08-78.58,68.08-22.09,0-36.21-13.76-36.21-40.56,0-22.81,14.49-61.56,31.51-98.5h-17.02c-5.79,0-9.42-2.17-9.42-7.24,0-4.71,3.62-6.88,9.42-6.88h23.9c6.52-13.4,13.4-26.8,19.56-38.39,11.23-21.73,17.02-30.78,22.45-30.78,6.16,0,9.78,3.62,9.78,8.69,0,6.16-5.43,17.02-15.57,33.32l-13.76,27.16h20.64c5.79,0,9.05,2.9,9.05,6.52,0,5.07-3.62,7.6-9.05,7.6h-27.52c-18.11,38.39-34.04,77.86-34.04,101.04,0,16.66,7.97,23.54,18.83,23.54,19.19,0,44.18-28.61,64.1-61.56Z"/><path class="cls-1" d="M6746.03,2339.2c1.81-2.9,3.98-3.98,6.16-3.98,3.98,0,7.24,3.26,7.24,7.24,0,1.45-.36,3.26-1.45,5.07-22.45,34.77-48.89,67.72-78.58,67.72-18.83,0-34.77-13.04-34.77-37.66,0-1.81,0-3.26,.36-4.71-17.02,23.9-35.85,42.37-55.41,42.37s-33.32-12.68-33.32-38.02c0-23.9,14.49-59.39,27.16-84.38,11.23-21.73,17.02-30.78,22.45-30.78,6.16,0,9.78,3.62,9.78,8.69,0,6.16-5.43,17.02-15.57,33.32-11.59,23.9-23.9,53.24-23.9,73.88,0,15.93,6.88,21.73,15.21,21.73,16.3,0,33.32-19.19,49.98-43.09,12.68-18.11,24.63-45.63,34.4-68.44,8.33-19.19,13.4-26.07,19.19-26.07,6.16,0,9.78,3.62,9.78,8.69,0,6.16-6.16,17.02-16.3,33.32-11.23,24.26-24.26,53.24-24.26,73.51,0,15.93,7.24,23.18,18.11,23.18,19.19,0,43.09-29.69,63.74-61.56Z"/><path class="cls-1" d="M6953.17,2290.31c0,31.14-33.32,61.93-33.32,94.16,0,10.5,5.79,16.3,14.85,16.3,19.19,0,43.09-29.69,63.74-61.56,1.81-2.9,3.98-3.98,6.16-3.98,3.98,0,7.24,3.26,7.24,7.24,0,1.45-.36,3.26-1.45,5.07-22.45,34.77-48.89,67.72-78.58,67.72-18.83,0-31.14-12.31-31.14-33.32,0-32.59,34.04-67.36,34.04-93.07,0-7.6-3.98-11.95-10.86-11.95-15.21,0-40.92,24.63-56.86,44.9-14.49,18.47-28.25,53.6-37.3,82.57-1.45,4.71-3.62,10.86-10.86,10.86-3.62,0-7.97-2.17-7.97-7.6,0-2.9,1.09-5.79,2.17-9.42,8.33-24.26,22.81-62.29,31.87-88.36,2.9-9.05,4.71-16.66,4.71-21,0-7.6-3.98-11.95-11.23-11.95-17.02,0-43.46,24.63-59.39,44.9-14.48,18.47-28.61,53.6-37.66,82.57-1.45,4.71-3.62,10.86-10.86,10.86-3.62,0-7.24-2.17-7.24-7.24,0-3.26,.36-5.07,1.45-8.69,14.12-43.46,33.32-91.26,48.53-127.83,2.53-6.16,6.52-9.42,11.59-9.42,5.43,0,8.69,3.26,8.69,7.97,0,4.34-2.9,11.59-8.69,21.37l-4.71,10.86c18.11-21.37,40.2-40.2,59.39-40.2,17.75,0,28.61,10.86,28.61,28.25,0,5.07-1.09,9.78-2.9,15.57,18.11-22.45,41.28-43.82,59.03-43.82,16.66,0,28.97,11.23,28.97,28.25Z"/><path class="cls-1" d="M7134.6,2381.2c1.81-3.26,3.98-4.34,5.79-4.34,2.9,0,5.79,2.53,5.79,6.16,0,10.14-17.02,32.23-36.94,32.23-18.83,0-31.14-12.31-31.14-33.32,0-32.23,34.04-67,34.04-92.35,0-7.97-4.71-12.68-12.68-12.68-19.19,0-50.7,23.54-68.44,44.9-14.85,18.11-28.25,53.6-37.3,82.57-1.45,4.71-3.62,10.86-10.86,10.86-3.62,0-7.24-2.17-7.24-7.24,0-3.26,.36-5.07,1.45-8.69,14.12-43.46,33.32-91.26,48.53-127.83,2.53-6.16,6.52-9.42,11.59-9.42,5.43,0,8.69,3.26,8.69,7.97,0,4.34-3.26,11.59-8.69,21l-5.07,12.31c20.28-22.09,46.72-41.28,67.72-41.28,17.74,0,30.78,11.59,30.78,28.97,0,30.78-33.32,61.56-33.32,93.43,0,10.5,5.43,16.3,14.12,16.3s17.02-9.42,23.18-19.56Z"/></g></g><g><rect class="cls-4" x="8266.84" y="335.44" width="3365.24" height="3529.11"/><g><g><rect class="cls-5" x="10604.67" y="2459.98" width="7.11" height="31.92" transform="translate(7753.08 12988.45) rotate(-87.94)"/><rect class="cls-5" x="10639.06" y="2333.23" width="84.37" height="7.11" transform="translate(10 4718.85) rotate(-24.92)"/><rect class="cls-5" x="10630.31" y="2268.34" width="7.11" height="84.37" transform="translate(-236.86 2805.5) rotate(-14.87)"/><rect class="cls-5" x="10659.27" y="2191.58" width="7.11" height="84.37" transform="translate(-216.2 2810.37) rotate(-14.87)"/><g><g><path class="cls-5" d="M10780.78,1624.38c3.16,5.78,92.59,167.08-38.13,401.24-5.9,.69-14.36-196.9,38.13-401.24Z"/><path class="cls-5" d="M10952.61,1921.34s-32.79,135.45-227.35,181.7c0,0,117.51-93.33,227.35-181.7Z"/><path class="cls-5" d="M10914.7,2287.89s-72.87,130.52-295.07,120.49c0,0,152.35-61.67,295.07-120.49Z"/><path class="cls-5" d="M10978.02,2016.96c3.85-17.07-35.4,138.1-295.26,225.87,0,0,152.61-116.01,295.26-225.87Z"/><path class="cls-5" d="M10819.55,2564.54c8.06-15.14-69.42,121.37-347.14,134.72,0,0,179.24-68.93,347.14-134.72Z"/><path class="cls-5" d="M10765.79,2484.21c6.01-13.36-51.63,107.41-252.31,139.34,0,0,130.27-71.42,252.31-139.34Z"/><path class="cls-5" d="M10572.56,2513.59c11.6,9.91-92.74-83.1-91.27-296.43,0,0,46.63,152.9,91.27,296.43Z"/><path class="cls-5" d="M10532.3,2594.91c9,7.69-71.98-64.5-70.84-230.08,0,0,36.19,118.68,70.84,230.08Z"/><path class="cls-5" d="M10621.12,2394.53c13.23,7.31-106.58-62.79-146.46-306.95,0,0,75.11,158.48,146.46,306.95Z"/><path class="cls-5" d="M10497.77,2658.03c13.23,7.31-106.58-62.79-146.46-306.95,0,0,75.11,158.48,146.46,306.95Z"/><path class="cls-5" d="M10672.54,1876.32s-55.33,107.7,40.82,271.52c0,0-21.42-139.97-40.82-271.52Z"/><path class="cls-5" d="M10755.57,1972c-1.92,21.61-5.81,42.32-9.77,63.18-2.2,10.34-4.27,20.72-6.58,31.02l-7.42,30.74c-1.18,5.14-2.54,10.23-3.96,15.28l-4.16,15.21-4.16,15.21c-1.36,5.08-2.77,10.14-4.35,15.14l-9.19,30.08-4.6,15.04c-1.53,5.02-3.31,9.93-4.95,14.89l-10.05,29.73c-3.37,9.9-6.59,19.87-10.34,29.6l-21.76,58.71-23.36,57.94-5.84,14.49c-1.93,4.84-4.11,9.54-6.16,14.32l-12.46,28.57-12.46,28.57-6.25,14.28-6.6,14.08-26.42,56.33c-8.59,18.9-18.16,37.23-27.39,55.76l-27.87,55.49c-19.36,36.52-38.9,72.92-58.49,109.3l-61.2,107.56c-2,3.51-6.49,4.48-10.03,2.15-3.54-2.32-4.79-7.06-2.79-10.57l.03-.05,.09-.15,61.86-106.72c19.81-36.09,39.58-72.22,59.17-108.46l28.21-55.07c9.34-18.39,19.03-36.59,27.74-55.35l26.77-55.91,6.69-13.98,6.33-14.17,12.63-28.36,12.64-28.37c2.07-4.74,4.28-9.42,6.25-14.22l5.93-14.38,23.72-57.52,22.13-58.28c3.81-9.66,7.09-19.56,10.52-29.38l10.23-29.51c1.67-4.93,3.48-9.81,5.04-14.79l4.69-14.93,9.38-29.86c1.62-4.96,3.05-9.98,4.45-15.02l4.25-15.09,4.25-15.09c1.45-5.02,2.84-10.06,4.05-15.16l7.61-30.49c2.37-10.21,4.5-20.49,6.76-30.74,2.15-10.27,3.95-20.63,5.84-30.97l2.41-15.59c.67-5.18,1.41-10.47,1.86-15.56v-.13c.19-2,1.91-3.36,3.86-3.04,1.95,.32,3.39,2.21,3.21,4.21h0Z"/></g><g><ellipse class="cls-1" cx="10627.76" cy="2121.49" rx="50.21" ry="78.38" transform="translate(-182.44 2889.31) rotate(-15.35)"/><ellipse class="cls-2" cx="10641.16" cy="2084.88" rx="7.35" ry="24.14" transform="translate(487.58 5890.9) rotate(-31.63)"/></g><g><ellipse class="cls-1" cx="10599.54" cy="2248.1" rx="40.05" ry="62.51" transform="translate(642.47 6521.4) rotate(-35.2)"/><ellipse class="cls-2" cx="10599.68" cy="2217" rx="5.86" ry="19.26" transform="translate(2264.28 9130) rotate(-51.48)"/></g><g><ellipse class="cls-1" cx="10680.25" cy="2472.06" rx="69.38" ry="44.45" transform="translate(-279.68 2714.42) rotate(-14.3)"/><ellipse class="cls-2" cx="10702.33" cy="2444.3" rx="21.37" ry="6.5" transform="translate(-65.33 306.09) rotate(-1.63)"/></g><g><ellipse class="cls-1" cx="10758.73" cy="2280.16" rx="82.23" ry="52.68" transform="translate(503.96 6253.7) rotate(-33.15)"/><ellipse class="cls-2" cx="10767" cy="2240.78" rx="25.33" ry="7.71" transform="translate(-117 3818.12) rotate(-20)"/></g></g></g><g><path class="cls-2" d="M9345.01,1918.73c20.74,0,46.43-28.98,67.17-61.24,1.65-2.63,3.62-3.62,5.6-3.62,3.62,0,6.59,2.96,6.59,6.59,0,1.32-.33,2.96-1.32,4.61-22.39,34.9-49.72,67.5-80.67,67.5-22.39,0-39.51-15.15-39.51-42.48,0-8.89,1.98-17.45,4.61-23.05-28.32,38.2-67.17,67.83-109.65,67.83-46.1,0-79.68-28.98-79.68-80.67,0-67.17,51.37-132.04,113.93-165.3v-5.6c0-23.71,12.84-39.84,19.43-39.84,4.61,0,7.9,2.96,7.9,7.24,0,2.3-.99,3.95-3.29,6.91-3.29,4.61-7.24,12.51-7.24,22.72v.33c22.72-9.88,46.76-15.48,69.81-15.48,31.61,0,51.7,13.5,58.28,32.93l5.93-13.17c3.29-7.24,7.57-11.52,11.85-11.52,5.93,0,9.55,3.95,9.55,9.55,0,11.52-10.21,32.6-29.63,63.88-5.6,11.2-24.04,50.05-36.55,82.65-11.2,28.32-16.13,48.07-16.13,60.92,0,18.11,9.88,28.32,23.05,28.32Zm6.59-162.33c-10.21,5.6-22.06,8.89-34.57,8.89-38.52,0-72.11-25.35-81.99-60.26-54.33,32.27-97.14,91.54-97.14,149.16,0,42.81,28.65,65.2,60.59,65.2,37.87,0,72.77-29.31,99.11-64.87,16.79-23.05,27-39.84,39.84-67.17l14.16-30.95Zm-101.42-59.6c6.59,33.26,33.26,54.99,66.84,54.99,26.67,0,47.09-17.78,47.09-38.52s-16.79-33.59-45.44-33.59c-23.05,0-46.43,6.26-68.49,17.12Z"/><path class="cls-2" d="M9577.81,1857.48c1.65-2.63,3.62-3.62,5.6-3.62,3.62,0,6.58,2.96,6.58,6.59,0,1.32-.33,2.96-1.32,4.61-20.41,31.61-44.45,61.57-71.45,61.57-17.12,0-31.61-11.85-31.61-34.24,0-1.65,0-2.96,.33-4.28-15.48,21.73-32.6,38.52-50.38,38.52s-30.29-11.52-30.29-34.57c0-21.73,13.17-54,24.7-76.72,10.21-19.76,15.48-27.99,20.42-27.99,5.6,0,8.89,3.29,8.89,7.9,0,5.6-4.94,15.48-14.16,30.29-10.54,21.73-21.73,48.4-21.73,67.17,0,14.49,6.26,19.76,13.83,19.76,14.82,0,30.29-17.45,45.44-39.18,11.52-16.46,22.39-41.49,31.28-62.23,7.57-17.45,12.18-23.71,17.45-23.71,5.6,0,8.89,3.29,8.89,7.9,0,5.6-5.6,15.48-14.82,30.29-10.21,22.06-22.06,48.4-22.06,66.84,0,14.49,6.59,21.07,16.46,21.07,17.45,0,39.18-27,57.95-55.98Z"/><path class="cls-2" d="M9665.39,1857.48c1.65-2.63,3.29-3.95,5.6-3.95,3.29,0,6.92,2.64,6.92,5.93,0,2.3-.66,3.62-1.65,5.27-21.73,33.92-44.78,61.9-71.45,61.9-20.09,0-32.93-12.51-32.93-36.88,0-20.74,13.17-55.98,28.65-89.56h-15.48c-5.27,0-8.56-1.98-8.56-6.59,0-4.28,3.29-6.26,8.56-6.26h21.73c5.93-12.18,12.18-24.37,17.78-34.9,10.21-19.76,15.48-27.99,20.41-27.99,5.6,0,8.89,3.29,8.89,7.9,0,5.6-4.94,15.48-14.16,30.29l-12.51,24.7h18.77c5.27,0,8.23,2.63,8.23,5.93,0,4.61-3.29,6.91-8.23,6.91h-25.02c-16.46,34.9-30.95,70.79-30.95,91.87,0,15.15,7.24,21.4,17.12,21.4,17.45,0,40.17-26.01,58.28-55.98Z"/><path class="cls-2" d="M9831.02,1857.48c1.65-2.63,3.62-3.62,5.6-3.62,3.62,0,6.59,2.96,6.59,6.59,0,1.32-.33,2.96-1.32,4.61-20.42,31.61-44.45,61.57-71.45,61.57-17.12,0-31.61-11.85-31.61-34.24,0-1.65,0-2.96,.33-4.28-15.48,21.73-32.6,38.52-50.38,38.52s-30.29-11.52-30.29-34.57c0-21.73,13.17-54,24.7-76.72,10.21-19.76,15.48-27.99,20.42-27.99,5.6,0,8.89,3.29,8.89,7.9,0,5.6-4.94,15.48-14.16,30.29-10.54,21.73-21.73,48.4-21.73,67.17,0,14.49,6.26,19.76,13.83,19.76,14.82,0,30.29-17.45,45.44-39.18,11.52-16.46,22.39-41.49,31.28-62.23,7.57-17.45,12.18-23.71,17.45-23.71,5.6,0,8.89,3.29,8.89,7.9,0,5.6-5.6,15.48-14.82,30.29-10.21,22.06-22.06,48.4-22.06,66.84,0,14.49,6.59,21.07,16.46,21.07,17.45,0,39.18-27,57.95-55.98Z"/><path class="cls-2" d="M10019.36,1813.03c0,28.32-30.29,56.31-30.29,85.61,0,9.55,5.27,14.82,13.5,14.82,17.45,0,39.18-27,57.95-55.98,1.65-2.63,3.62-3.62,5.6-3.62,3.62,0,6.59,2.96,6.59,6.59,0,1.32-.33,2.96-1.32,4.61-20.42,31.61-44.45,61.57-71.45,61.57-17.12,0-28.32-11.2-28.32-30.29,0-29.64,30.95-61.24,30.95-84.62,0-6.91-3.62-10.87-9.88-10.87-13.83,0-37.21,22.39-51.7,40.83-13.17,16.79-25.68,48.73-33.92,75.07-1.32,4.28-3.29,9.88-9.88,9.88-3.29,0-7.24-1.98-7.24-6.91,0-2.63,.99-5.27,1.98-8.56,7.57-22.06,20.74-56.64,28.98-80.34,2.63-8.23,4.28-15.15,4.28-19.1,0-6.91-3.62-10.87-10.21-10.87-15.48,0-39.51,22.39-54,40.83-13.17,16.79-26.01,48.73-34.24,75.07-1.32,4.28-3.29,9.88-9.88,9.88-3.29,0-6.59-1.98-6.59-6.59,0-2.96,.33-4.61,1.32-7.9,12.84-39.51,30.29-82.98,44.12-116.23,2.3-5.6,5.93-8.56,10.54-8.56,4.94,0,7.9,2.96,7.9,7.24,0,3.95-2.63,10.54-7.9,19.43l-4.28,9.88c16.46-19.43,36.55-36.55,54-36.55,16.14,0,26.01,9.88,26.01,25.68,0,4.61-.99,8.89-2.63,14.16,16.46-20.42,37.54-39.84,53.67-39.84,15.15,0,26.34,10.21,26.34,25.68Z"/><path class="cls-2" d="M10184.33,1895.68c1.65-2.96,3.62-3.95,5.27-3.95,2.63,0,5.27,2.3,5.27,5.6,0,9.22-15.48,29.31-33.59,29.31-17.12,0-28.32-11.2-28.32-30.29,0-29.31,30.95-60.92,30.95-83.96,0-7.24-4.28-11.52-11.52-11.52-17.45,0-46.1,21.4-62.23,40.83-13.5,16.46-25.68,48.73-33.92,75.07-1.32,4.28-3.29,9.88-9.88,9.88-3.29,0-6.59-1.98-6.59-6.59,0-2.96,.33-4.61,1.32-7.9,12.84-39.51,30.29-82.98,44.12-116.23,2.3-5.6,5.93-8.56,10.54-8.56,4.94,0,7.9,2.96,7.9,7.24,0,3.95-2.96,10.54-7.9,19.1l-4.61,11.2c18.44-20.09,42.48-37.54,61.57-37.54,16.13,0,27.99,10.54,27.99,26.34,0,27.99-30.29,55.98-30.29,84.95,0,9.55,4.94,14.82,12.84,14.82s15.48-8.56,21.07-17.78Z"/></g><g><g><path class="cls-2" d="M9501.22,2792.6h5.1v71.09h35.87v2.86h-40.98v-73.94Z"/><path class="cls-2" d="M9558.43,2792.6h5.1v73.94h-5.1v-73.94Z"/><path class="cls-2" d="M9707.65,2792.6v73.94h-5.1v-69.21l-54.74,70.59-54.43-71.48v70.1h-5.1v-73.94h7.27l52.27,68.62,52.73-68.62h7.11Z"/><path class="cls-2" d="M9732.85,2792.6h5.1v73.94h-5.1v-73.94Z"/><path class="cls-2" d="M9780.94,2795.46h-26.75v-2.86h58.3v2.86h-26.44v71.09h-5.1v-71.09Z"/><path class="cls-2" d="M9827.95,2792.6h41.6v2.86h-36.49v40.23h30.46v2.86h-30.46v25.14h36.49v2.86h-41.6v-73.94Z"/><path class="cls-2" d="M9885.78,2792.6h4.95c18.45,0,32.7,3.2,42.76,9.61,10.05,6.41,15.08,15.53,15.08,27.36,0,6.77-2.58,12.98-7.73,18.63-5.16,5.65-12.14,10.12-20.95,13.41-8.81,3.29-18.53,4.93-29.15,4.93h-4.95v-73.94Zm6.19,70.89c9.48,0,18.14-1.49,25.98-4.49,7.83-2.99,14.04-7.08,18.63-12.28,4.59-5.19,6.88-10.91,6.88-17.16,0-10.91-4.46-19.31-13.38-25.19-8.92-5.88-21.62-8.82-38.12-8.82h-1.24v67.93h1.24Z"/><path class="cls-2" d="M10019.84,2795.46h-26.75v-2.86h58.3v2.86h-26.44v71.09h-5.1v-71.09Z"/><path class="cls-2" d="M10067.62,2792.6h5.1v73.94h-5.1v-73.94Z"/><path class="cls-2" d="M10216.84,2792.6v73.94h-5.1v-69.21l-54.74,70.59-54.43-71.48v70.1h-5.1v-73.94h7.27l52.27,68.62,52.73-68.62h7.11Z"/><path class="cls-2" d="M10241.27,2792.6h41.6v2.86h-36.49v40.23h30.46v2.86h-30.46v25.14h36.49v2.86h-41.6v-73.94Z"/></g><g><path class="cls-2" d="M9739.96,2956.64c-9.28-3.61-16.62-8.43-22.04-14.44-5.41-6.01-8.12-12.47-8.12-19.37s2.73-13.23,8.2-19.18c5.46-5.95,12.83-10.68,22.11-14.2,9.28-3.52,19.33-5.27,30.15-5.27s20.98,1.74,30.15,5.23c9.17,3.48,16.47,8.2,21.88,14.15,5.41,5.95,8.12,12.37,8.12,19.28s-2.71,13.65-8.12,19.67c-5.41,6.01-12.73,10.78-21.96,14.3-9.23,3.52-19.3,5.27-30.23,5.27s-20.88-1.81-30.15-5.42Zm57.68-2.32c8.45-3.25,15.18-7.66,20.18-13.21,5-5.55,7.5-11.58,7.5-18.09s-2.47-12.42-7.42-17.94c-4.95-5.52-11.65-9.91-20.1-13.16-8.45-3.25-17.63-4.88-27.52-4.88s-19.23,1.63-27.68,4.88c-8.45,3.25-15.18,7.64-20.18,13.16-5,5.52-7.5,11.5-7.5,17.94s2.5,12.54,7.5,18.09c5,5.56,11.73,9.96,20.18,13.21,8.45,3.25,17.63,4.88,27.52,4.88s19.07-1.63,27.52-4.88Z"/><path class="cls-2" d="M9855.93,2893.54v66.55h-4.48v-75.03l85.36,67.54v-66.45h4.48v75.03l-85.36-67.64Z"/><path class="cls-2" d="M9965.72,2886.14h5.1v71.09h35.87v2.86h-40.98v-73.94Z"/><path class="cls-2" d="M10074.28,2886.14l-34.48,44.37v29.58h-5.1v-29.58l-35.26-44.37h5.57l32.32,40.52,31.7-40.52h5.26Z"/></g></g><g><g><path class="cls-2" d="M8967.16,2292v-21.59c7.2,15.99,17.65,28.52,31.38,37.58,13.72,9.06,30.18,13.59,49.37,13.59,13.32,0,25.65-2.93,36.98-8.8,11.33-5.86,20.32-14.12,26.99-24.79,6.66-10.66,9.99-22.92,9.99-36.78,0-12.52-2.14-23.32-6.4-32.38-4.27-9.06-11.33-17.79-21.19-26.19-9.86-8.4-24.13-18.32-42.78-29.78l-12.79-8c-11.73-7.2-21.19-13.59-28.39-19.19-7.2-5.6-13.46-12.13-18.79-19.59-6.93-10.39-10.4-22.39-10.4-35.98,0-18.12,5.86-32.25,17.59-42.38,11.73-10.13,26.65-15.19,44.78-15.19,24.52,0,43.98,9.06,58.37,27.19v20.39c-6.13-11.19-14.53-19.99-25.19-26.39-10.66-6.4-22.39-9.6-35.18-9.6s-24.53,4.14-33.58,12.39c-9.06,8.26-13.59,19.33-13.59,33.18s4.2,25.26,12.59,34.98c8.4,9.73,22.59,20.33,42.58,31.78,24.52,14.39,43.58,27.45,57.17,39.18,9.6,8.8,16.59,18.53,20.99,29.19,4.4,10.66,6.6,22.53,6.6,35.58,0,16.53-3.87,31.05-11.59,43.58-7.73,12.53-18.39,22.19-31.98,28.99-13.59,6.8-28.92,10.19-45.98,10.19-33.32,0-59.17-13.72-77.56-41.18Z"/><path class="cls-2" d="M9182.25,2027.73h13.19c31.45,0,55.97,8.33,73.56,24.99,17.59,16.66,26.39,38.98,26.39,66.97,0,19.46-4.27,36.72-12.79,51.77-8.53,15.06-20.13,26.66-34.78,34.78-14.66,8.13-31.05,12.19-49.17,12.19h-3.2v109.14h-13.19v-299.85Zm17.19,179.11c24.25,0,44.11-7.53,59.57-22.59,15.45-15.05,23.19-36.31,23.19-63.77s-7.27-46.18-21.79-60.17c-14.53-13.99-35.12-20.99-61.77-20.99h-3.2v167.51h4Z"/><path class="cls-2" d="M9340.97,2027.73h107.54v11.59h-94.35v163.12h78.76v11.59h-78.76v101.95h94.35v11.59h-107.54v-299.85Z"/><path class="cls-2" d="M9554.06,2314.99c-23.46-13.72-42.05-32.65-55.77-56.77-13.73-24.12-20.59-51.24-20.59-81.36s7.13-55.57,21.39-79.56c14.25-23.99,33.31-42.91,57.17-56.77,23.85-13.86,49.24-20.79,76.16-20.79,18.65,0,33.45,1.67,44.38,5,10.93,3.34,23.59,9.13,37.98,17.39v14.79c-13.59-9.33-26.19-15.92-37.78-19.79-11.59-3.86-26.06-5.8-43.38-5.8-26.39,0-50.44,6.73-72.16,20.19-21.73,13.46-38.92,31.45-51.57,53.97-12.66,22.53-18.99,46.71-18.99,72.56s6.4,50.37,19.19,72.76c12.79,22.39,29.78,40.18,50.97,53.37,21.19,13.19,44.04,19.79,68.56,19.79,17.59,0,32.91-2.06,45.98-6.2,13.06-4.13,26.12-10.59,39.18-19.39v14.79c-12.79,7.73-25.92,13.39-39.38,16.99-13.46,3.6-28.19,5.4-44.18,5.4-27.99,0-53.71-6.87-77.16-20.59Z"/><path class="cls-2" d="M9773.54,2027.73h13.19v299.85h-13.19v-299.85Z"/><path class="cls-2" d="M10132.55,2327.58h-13.99l-56.77-114.34h-159.12l-55.57,114.34h-13.99l149.52-307.04,149.92,307.04Zm-75.56-125.94l-75.16-152.32-73.56,152.32h148.72Z"/><path class="cls-2" d="M10176.92,2027.73h13.19v288.25h92.75v11.59h-105.95v-299.85Z"/></g><g><path class="cls-2" d="M9488.88,2687.69v-21.59c7.2,15.99,17.65,28.52,31.38,37.58,13.72,9.06,30.18,13.59,49.37,13.59,13.33,0,25.65-2.93,36.98-8.8,11.33-5.86,20.32-14.12,26.99-24.79,6.66-10.66,9.99-22.92,9.99-36.78,0-12.52-2.14-23.32-6.4-32.38-4.27-9.06-11.33-17.79-21.19-26.19-9.86-8.4-24.13-18.32-42.78-29.78l-12.79-8c-11.73-7.2-21.19-13.59-28.39-19.19-7.2-5.6-13.46-12.13-18.79-19.59-6.93-10.39-10.4-22.39-10.4-35.98,0-18.12,5.86-32.25,17.59-42.38,11.72-10.13,26.65-15.19,44.78-15.19,24.52,0,43.98,9.06,58.37,27.19v20.39c-6.13-11.19-14.53-19.99-25.19-26.39-10.66-6.4-22.39-9.6-35.18-9.6s-24.53,4.14-33.58,12.39c-9.06,8.26-13.59,19.33-13.59,33.18s4.2,25.26,12.59,34.98c8.4,9.73,22.59,20.33,42.58,31.78,24.52,14.39,43.58,27.45,57.17,39.18,9.59,8.8,16.59,18.53,20.99,29.19,4.4,10.66,6.6,22.53,6.6,35.58,0,16.53-3.87,31.05-11.59,43.58-7.73,12.53-18.39,22.19-31.98,28.99-13.59,6.8-28.92,10.19-45.98,10.19-33.32,0-59.17-13.72-77.56-41.18Z"/><path class="cls-2" d="M9985.03,2723.27h-13.99l-56.77-114.34h-159.12l-55.57,114.34h-13.99l149.52-307.04,149.92,307.04Zm-75.56-125.94l-75.16-152.32-73.56,152.32h148.72Z"/><path class="cls-2" d="M10029.4,2423.43h13.19v288.25h92.75v11.59h-105.95v-299.85Z"/><path class="cls-2" d="M10175.32,2423.43h107.55v11.59h-94.35v163.12h78.76v11.59h-78.76v101.95h94.35v11.59h-107.55v-299.85Z"/></g></g></g></g><g><rect class="cls-4" x="469" y="335.44" width="3365.24" height="3529.11"/><g><path class="cls-2" d="M1445.14,3282.14h6.05v84.3h42.55v3.39h-48.6v-87.69Z"/><path class="cls-2" d="M1513,3282.14h6.05v87.69h-6.05v-87.69Z"/><path class="cls-2" d="M1689.96,3282.14v87.69h-6.05v-82.08l-64.92,83.72-64.55-84.77v83.13h-6.05v-87.69h8.62l61.98,81.38,62.53-81.38h8.44Z"/><path class="cls-2" d="M1719.85,3282.14h6.05v87.69h-6.05v-87.69Z"/><path class="cls-2" d="M1776.88,3285.53h-31.73v-3.39h69.14v3.39h-31.36v84.3h-6.05v-84.3Z"/><path class="cls-2" d="M1832.63,3282.14h49.33v3.39h-43.28v47.71h36.13v3.39h-36.13v29.82h43.28v3.39h-49.33v-87.69Z"/><path class="cls-2" d="M1901.21,3282.14h5.87c21.88,0,38.79,3.8,50.71,11.4,11.92,7.6,17.88,18.42,17.88,32.45,0,8.03-3.06,15.4-9.17,22.1-6.11,6.7-14.4,12-24.85,15.9-10.45,3.9-21.98,5.85-34.57,5.85h-5.87v-87.69Zm7.34,84.07c11.25,0,21.52-1.77,30.81-5.32,9.29-3.55,16.66-8.4,22.1-14.56,5.44-6.16,8.16-12.94,8.16-20.34,0-12.94-5.29-22.9-15.86-29.87-10.58-6.98-25.65-10.47-45.2-10.47h-1.47v80.56h1.47Z"/><path class="cls-2" d="M2060.2,3285.53h-31.73v-3.39h69.14v3.39h-31.36v84.3h-6.05v-84.3Z"/><path class="cls-2" d="M2116.87,3282.14h6.05v87.69h-6.05v-87.69Z"/><path class="cls-2" d="M2293.83,3282.14v87.69h-6.05v-82.08l-64.92,83.72-64.55-84.77v83.13h-6.05v-87.69h8.62l61.98,81.38,62.53-81.38h8.44Z"/><path class="cls-2" d="M2322.8,3282.14h49.33v3.39h-43.28v47.71h36.13v3.39h-36.13v29.82h43.28v3.39h-49.33v-87.69Z"/><path class="cls-2" d="M2461.62,3365.74c-11-4.29-19.71-10-26.13-17.13-6.42-7.13-9.63-14.79-9.63-22.98s3.24-15.69,9.72-22.74c6.48-7.05,15.22-12.67,26.22-16.84,11-4.17,22.92-6.26,35.76-6.26s24.88,2.07,35.76,6.2c10.88,4.13,19.53,9.73,25.95,16.78,6.42,7.06,9.63,14.67,9.63,22.86s-3.21,16.19-9.63,23.33c-6.42,7.13-15.1,12.79-26.04,16.95-10.94,4.17-22.89,6.26-35.85,6.26s-24.76-2.14-35.76-6.43Zm68.4-2.75c10.02-3.86,18-9.08,23.93-15.67,5.93-6.59,8.89-13.74,8.89-21.46s-2.93-14.73-8.8-21.28c-5.87-6.55-13.82-11.75-23.84-15.61-10.03-3.86-20.91-5.79-32.64-5.79s-22.8,1.93-32.83,5.79c-10.03,3.86-18,9.06-23.93,15.61-5.93,6.55-8.89,13.64-8.89,21.28s2.96,14.87,8.89,21.46c5.93,6.59,13.91,11.81,23.93,15.67,10.02,3.86,20.91,5.79,32.64,5.79s22.62-1.93,32.64-5.79Z"/><path class="cls-2" d="M2599.16,3290.91v78.92h-5.32v-88.98l101.23,80.09v-78.81h5.32v88.98l-101.23-80.21Z"/><path class="cls-2" d="M2729.36,3282.14h6.05v84.3h42.55v3.39h-48.6v-87.69Z"/><path class="cls-2" d="M2858.09,3282.14l-40.89,52.62v35.08h-6.05v-35.08l-41.81-52.62h6.6l38.33,48.06,37.59-48.06h6.23Z"/></g><g><g><path class="cls-5" d="M2056.12,2236.5c-1,.12-1.94-.54-2.14-1.54-13.7-66.78-33.37-131.6-58.45-192.64-20.07-48.84-43.64-95.39-70.05-138.36-35.98-58.55-70.34-98.49-83.48-111.43-.76-.75-.77-1.98-.02-2.75,.75-.77,1.98-.78,2.75-.02,13.23,13.03,47.81,53.2,83.98,112.03,26.53,43.15,50.21,89.9,70.38,138.95,25.2,61.3,44.95,126.38,58.71,193.44,.22,1.05-.46,2.08-1.51,2.29-.05,.01-.1,.02-.15,.02Z"/><g><path class="cls-5" d="M1747.91,1643.55c13.96,22.39,28.09,44.68,42.45,66.82,14.4,22.09,28.83,44.24,44.37,65.41,2.01,2.56,3.91,5.28,6.01,7.72l3.11,3.7c.57,.64,1.16,1.29,1.75,2.07,.3,.43,.59,.78,.94,1.6,.05,.12,.08,.2,.13,.37,.05,.18,.08,.37,.11,.55,.03,.23,0,.64-.06,.94-.08,.39-.37,.95-.69,1.25-.78,.72-1.41,.76-1.79,.81-.16,.01-.33,.01-.5,0l-.34-.04c-1.49-.28-2.13-.67-3.01-1.04-.81-.38-1.58-.77-2.33-1.18-1.5-.81-2.96-1.65-4.4-2.5-2.87-1.71-5.69-3.47-8.49-5.25-11.17-7.15-22.09-14.58-32.99-22.06-21.77-14.99-43.33-30.23-64.81-45.62-1.47-1.05-1.81-3.1-.75-4.57,1.05-1.47,3.1-1.81,4.57-.75,0,0,.01,0,.02,.01l.02,.02c21.23,15.63,42.59,31.15,64.12,46.37,10.77,7.6,21.58,15.15,32.55,22.38,2.74,1.8,5.5,3.57,8.28,5.27,1.39,.85,2.79,1.68,4.18,2.45,.7,.38,1.39,.75,2.07,1.08,.62,.31,1.49,.65,1.62,.66h-.03c-.06,0-.12,0-.19,0-.18,.04-.61,.02-1.22,.6-.25,.23-.5,.69-.55,.99-.07,.2-.06,.5-.05,.63,0,.09,.02,.17,.05,.25l.02,.07c.04,.06-.15-.27-.33-.51-.4-.55-.9-1.12-1.42-1.72l-3.22-3.91c-2.17-2.6-4.02-5.32-6.05-7.98-15.43-21.59-29.55-43.89-43.69-66.21-14.08-22.34-27.93-44.82-41.62-67.41-.36-.59-.17-1.36,.42-1.71,.58-.35,1.35-.17,1.71,.41Z"/><path class="cls-5" d="M1823.48,1671.03c3.62,19.37,7.33,38.72,11.18,58.04,1.93,9.66,3.9,19.3,5.96,28.91,1.03,4.8,2.09,9.6,3.22,14.36,.56,2.38,1.14,4.75,1.76,7.08,.31,1.16,.63,2.32,.96,3.42l.52,1.59,.26,.66,.11,.25s.02,0,.02,.02l-7.21,.89,49.49-159.34c.2-.65,.89-1.01,1.54-.81,.63,.2,.99,.86,.82,1.5l-44.25,160.87-2.55,9.29-4.66-8.4h0s-.4-.81-.4-.81l-.24-.61c-.15-.39-.25-.72-.36-1.08-.2-.67-.38-1.32-.54-1.95-.32-1.26-.6-2.5-.88-3.73-.54-2.46-1.02-4.9-1.48-7.34-.93-4.88-1.78-9.75-2.61-14.62-1.65-9.74-3.2-19.49-4.71-29.23-3.01-19.5-5.87-39-8.64-58.53-.11-.75,.42-1.44,1.16-1.55,.73-.1,1.4,.39,1.54,1.11Z"/><path class="cls-5" d="M1841.14,1788.76l72.34-71.65c.21-.21,.56-.21,.77,0,.2,.2,.21,.53,.02,.74l-67.37,76.34c-1.45,1.64-3.95,1.8-5.59,.35-1.64-1.45-1.8-3.95-.35-5.59,.06-.06,.12-.13,.18-.19Z"/><ellipse class="cls-5" cx="1725.22" cy="1714.04" rx="17.54" ry="15.84" transform="translate(-383.73 502.98) rotate(-14.95)"/><ellipse class="cls-5" cx="1822.38" cy="1672.21" rx="12.06" ry="10.89" transform="translate(-369.65 526.63) rotate(-14.95)"/><ellipse class="cls-5" cx="1916.79" cy="1715.68" rx="12.06" ry="10.89" transform="translate(-377.67 552.45) rotate(-14.95)"/><ellipse class="cls-5" cx="1741.88" cy="1638.36" rx="17.54" ry="15.84" transform="translate(-363.64 504.72) rotate(-14.95)"/><ellipse class="cls-5" cx="1891.8" cy="1617.81" rx="17.54" ry="15.84" transform="translate(-353.27 542.69) rotate(-14.95)"/></g><g><path class="cls-5" d="M1977.73,1758.84c3.93,21.26,8.02,42.5,12.33,63.68,4.37,21.15,8.73,42.38,14.32,63.13,.76,2.55,1.41,5.19,2.32,7.63,.45,1.27,.8,2.41,1.32,3.8,.24,.75,.51,1.32,.66,2.55-.03,.36,.19,.67-.36,1.87-.12,.24-.43,.64-.87,.92-.42,.27-.81,.36-1.25,.41-.35,.02-.54-.02-.81-.07-.24-.05-.31-.09-.47-.15-.94-.43-1.14-.7-1.51-.99-1.25-1.12-2.11-2.15-3.03-3.23-.9-1.07-1.76-2.14-2.61-3.22-1.69-2.16-3.32-4.34-4.94-6.53-6.44-8.76-12.61-17.66-18.76-26.58-12.25-17.86-24.27-35.86-36.19-53.95-1-1.51-.58-3.54,.93-4.54s3.54-.58,4.54,.93c0,0,.01,.02,.02,.03l.02,.02c11.6,18.23,23.33,36.4,35.27,54.4,5.98,8.99,12,17.96,18.24,26.73,1.56,2.19,3.14,4.36,4.75,6.49,.81,1.06,1.62,2.11,2.45,3.12,.81,.99,1.7,2.04,2.46,2.73,.13,.15,.46,.33,.14,.17-.08-.03-.08-.03-.23-.07-.19-.04-.3-.05-.56-.04-.36,.02-.65,.12-1.01,.33-.37,.23-.61,.57-.7,.73-.4,.89-.19,.85-.25,.88,0-.12-.19-.84-.38-1.36-.41-1.16-.86-2.6-1.28-3.89-.93-2.65-1.53-5.28-2.27-7.92-5.34-21.12-9.36-42.37-13.4-63.64-3.99-21.28-7.74-42.58-11.34-63.93-.11-.68,.34-1.32,1.02-1.44,.67-.11,1.31,.34,1.43,1.01Z"/><path class="cls-5" d="M2028.24,1803.04c-3.2,15.66-6.33,31.35-9.33,47.05-1.5,7.85-2.96,15.7-4.34,23.55-.69,3.93-1.35,7.85-1.95,11.76-.3,1.96-.58,3.91-.83,5.84-.12,.96-.23,1.92-.31,2.84l-.08,1.31v.53s0,.18,0,.18c0-.02,0-.05,0-.08l-6.96-1.91,89.21-103.8c.44-.51,1.22-.57,1.73-.13,.5,.43,.57,1.18,.16,1.69l-84.99,107.28-5.74,7.25-1.22-9.16h0c-.03-.28-.05-.56-.07-.83v-.57c.02-.37,.04-.65,.07-.97,.06-.59,.12-1.14,.2-1.67,.15-1.07,.33-2.09,.51-3.1,.37-2.02,.77-4.01,1.18-5.99,.83-3.95,1.71-7.87,2.62-11.78,1.81-7.82,3.7-15.6,5.62-23.38,3.85-15.55,7.82-31.05,11.87-46.53,.19-.73,.94-1.17,1.67-.98,.71,.18,1.14,.9,1,1.6Z"/><path class="cls-5" d="M2085.72,1869.52l-78.67,32.21,.94-.77c-7.96,11.08-15.77,22.32-23.31,33.72-3.76,5.7-7.45,11.45-10.95,17.31-1.75,2.93-3.44,5.89-5.01,8.9-.78,1.51-1.52,3.03-2.18,4.59-.62,1.54-1.28,3.17-1.33,4.68v.06c-.01,.3-.26,.53-.56,.52-.29-.01-.52-.25-.52-.54,0-1.93,.64-3.55,1.21-5.2,.61-1.63,1.31-3.21,2.04-4.77,1.46-3.12,3.05-6.17,4.68-9.19,3.28-6.04,6.75-11.96,10.28-17.83,7.09-11.74,14.44-23.3,22-34.77l.32-.49,.62-.28,77.28-35.41c1.99-.91,4.34-.04,5.25,1.95,.91,1.99,.04,4.34-1.95,5.25-.04,.02-.1,.05-.15,.06Z"/><ellipse class="cls-5" cx="1937.59" cy="1804.72" rx="12.85" ry="14.8" transform="translate(-97.28 3499) rotate(-82.75)"/><ellipse class="cls-5" cx="2026.8" cy="1803.52" rx="8.84" ry="10.18" transform="translate(-18.14 3586.44) rotate(-82.75)"/><ellipse class="cls-5" cx="2087" cy="1865.44" rx="8.84" ry="10.18" transform="translate(-26.97 3700.26) rotate(-82.75)"/><ellipse class="cls-5" cx="1974.46" cy="1753.13" rx="12.85" ry="14.8" transform="translate(-13.88 3490.49) rotate(-82.75)"/><ellipse class="cls-5" cx="2098.26" cy="1784.27" rx="12.85" ry="14.8" transform="translate(63.39 3640.51) rotate(-82.75)"/></g><g><path class="cls-5" d="M1710.05,1922.05c21.62,.33,43.25,.51,64.86,.45,21.6-.11,43.27-.21,64.71-1.61,2.65-.24,5.37-.36,7.94-.77,1.34-.19,2.52-.31,3.98-.55,.78-.09,1.4-.24,2.63-.14,.35,.1,.69-.06,1.76,.72,.22,.17,.54,.55,.73,1.03,.19,.46,.19,.86,.15,1.3-.05,.34-.12,.53-.23,.78-.1,.22-.15,.28-.24,.43-.61,.84-.91,.98-1.27,1.29-1.34,1-2.53,1.64-3.76,2.34-1.22,.67-2.45,1.3-3.67,1.92-2.45,1.23-4.91,2.4-7.37,3.56-9.86,4.59-19.8,8.89-29.76,13.15-19.93,8.5-39.93,16.74-60.02,24.86-1.68,.68-3.59-.13-4.27-1.81-.68-1.68,.13-3.59,1.81-4.27,.01,0,.02,0,.03-.01h.03c20.15-7.79,40.28-15.72,60.28-23.88,9.99-4.09,19.97-8.23,29.8-12.62,2.45-1.1,4.89-2.22,7.29-3.38,1.2-.58,2.39-1.17,3.54-1.78,1.13-.6,2.33-1.27,3.16-1.87,.17-.1,.41-.39,.19-.1-.05,.07-.04,.07-.11,.21-.08,.18-.11,.28-.15,.54-.05,.36,0,.67,.12,1.06,.15,.41,.44,.71,.58,.83,.8,.57,.79,.36,.81,.41-.12-.03-.86,.02-1.41,.1-1.22,.18-2.72,.33-4.06,.49-2.78,.39-5.48,.46-8.22,.67-21.76,1.08-43.38,.83-65.03,.61-21.65-.28-43.28-.79-64.91-1.47-.69-.02-1.23-.6-1.21-1.28,.02-.68,.59-1.22,1.27-1.21Z"/><path class="cls-5" d="M1763.32,1881.24c14.73,6.23,29.49,12.38,44.29,18.41,7.4,3.01,14.81,6,22.24,8.89,3.71,1.45,7.43,2.87,11.15,4.23,1.86,.68,3.72,1.34,5.56,1.96,.92,.3,1.84,.6,2.72,.86l1.27,.34,.52,.11,.18,.03s-.05-.02-.08-.01h0s-3.25,6.45-3.25,6.45l-84.2-107.9c-.42-.53-.32-1.31,.21-1.72,.52-.41,1.27-.32,1.69,.17l88.44,104.45,5.97,7.05-9.22-.6h0c-.27-.02-.56-.06-.82-.1l-.56-.12c-.36-.08-.63-.16-.94-.25-.56-.17-1.09-.35-1.6-.52-1.01-.36-1.98-.73-2.94-1.11-1.91-.76-3.78-1.54-5.64-2.34-3.71-1.59-7.38-3.23-11.04-4.89-7.31-3.31-14.57-6.7-21.81-10.12-14.48-6.84-28.9-13.78-43.29-20.8-.68-.33-.96-1.15-.63-1.83,.32-.66,1.1-.94,1.77-.66Z"/><path class="cls-5" d="M1839.82,1837.98l16.19,83.45-2.07-1.82c15.26,1.6,30.49,3.3,45.72,5.17,7.61,.94,15.22,1.92,22.81,3.01,3.8,.55,7.59,1.13,11.38,1.79,1.89,.33,3.78,.68,5.67,1.09,.94,.21,1.89,.42,2.83,.68,.47,.13,.94,.27,1.42,.45,.24,.09,.47,.18,.72,.3,.24,.14,.5,.21,.8,.63,.18,.24,.12,.58-.12,.76-.24,.18-.58,.12-.76-.12,0-.01-.02-.03-.03-.04l-.02-.04s-.58-.32-.97-.42c-.43-.14-.88-.26-1.34-.36-.91-.22-1.85-.39-2.78-.56-1.87-.33-3.76-.6-5.65-.86-3.78-.51-7.59-.94-11.39-1.34-7.61-.8-15.23-1.48-22.86-2.13-15.26-1.28-30.54-2.39-45.81-3.4l-1.67-.11-.4-1.71-19.4-82.76c-.5-2.13,.82-4.26,2.95-4.76,2.13-.5,4.26,.82,4.76,2.95,.01,.04,.02,.11,.03,.15Z"/><ellipse class="cls-5" cx="1747.13" cy="1970.45" rx="14.8" ry="12.85" transform="translate(-677.81 2997.49) rotate(-71.39)"/><ellipse class="cls-5" cx="1763.51" cy="1882.75" rx="10.18" ry="8.84" transform="translate(-583.53 2953.3) rotate(-71.39)"/><ellipse class="cls-5" cx="1836.08" cy="1835.92" rx="10.18" ry="8.84" transform="translate(-489.75 2990.19) rotate(-71.39)"/><ellipse class="cls-5" cx="1703.8" cy="1924.14" rx="14.8" ry="12.85" transform="translate(-663.42 2924.89) rotate(-71.39)"/><ellipse class="cls-5" cx="1758.71" cy="1808.9" rx="14.8" ry="12.85" transform="translate(-516.81 2898.46) rotate(-71.39)"/></g></g><g><rect class="cls-5" x="2273.99" y="2001.12" width="5.53" height="24.79" transform="translate(111.99 4146.96) rotate(-86.07)"/><rect class="cls-5" x="2304.2" y="1904.59" width="65.53" height="5.53" transform="translate(-560.25 1067.4) rotate(-23.05)"/><rect class="cls-5" x="2298.1" y="1852.99" width="5.53" height="65.53" transform="translate(-365.1 565.64) rotate(-12.99)"/><rect class="cls-5" x="2322.52" y="1794.15" width="5.53" height="65.53" transform="translate(-351.24 569.63) rotate(-12.99)"/><g><g><path class="cls-5" d="M2432.3,1356.87c2.3,4.56,67.63,132.04-39.77,310.49-4.59,.39-6.15-153.21,39.77-310.49Z"/><path class="cls-5" d="M2558.15,1591.74s-28.89,104.31-181.09,135.28c0,0,93.58-69.46,181.09-135.28Z"/><path class="cls-5" d="M2519.43,1875.32s-59.87,99.47-232.1,86.05c0,0,119.82-44.01,232.1-86.05Z"/><path class="cls-5" d="M2575.45,1666.61c3.42-13.15-30.98,106.31-234.93,167.84,0,0,121.41-86.18,234.93-167.84Z"/><path class="cls-5" d="M2438.55,2087.65c6.64-11.55-56.97,92.45-272.89,95.77,0,0,140.88-48.96,272.89-95.77Z"/><path class="cls-5" d="M2398.86,2023.93c5-10.21-42.8,82.07-199.39,101.77,0,0,102.93-52.14,199.39-101.77Z"/><path class="cls-5" d="M2248.12,2041.83c8.75,7.99-69.88-66.86-63.33-232.42,0,0,32.32,119.87,63.33,232.42Z"/><path class="cls-5" d="M2214.8,2103.94c6.79,6.2-54.24-51.89-49.15-180.4,0,0,25.09,93.04,49.15,180.4Z"/><path class="cls-5" d="M2288.83,1950.65c10.09,6.01-81.14-51.44-105.9-241.99,0,0,54.28,124.92,105.9,241.99Z"/><path class="cls-5" d="M2186.4,2152.06c10.09,6.01-81.14-51.44-105.9-241.99,0,0,54.28,124.92,105.9,241.99Z"/><path class="cls-5" d="M2341.89,1549.69s-45.68,82.2,24.8,211.8c0,0-13.08-109.19-24.8-211.8Z"/><path class="cls-5" d="M2403.92,1626.06c-2.04,16.73-5.59,32.71-9.19,48.8-1.97,7.97-3.84,15.98-5.89,23.92l-6.54,23.68c-1.05,3.96-2.23,7.87-3.46,11.76l-3.61,11.7-3.61,11.7c-1.19,3.91-2.4,7.8-3.76,11.64l-7.9,23.12-3.95,11.56c-1.31,3.86-2.82,7.62-4.22,11.44l-8.55,22.82c-2.87,7.6-5.62,15.26-8.77,22.71l-18.38,45.02-19.6,44.38-4.9,11.1c-1.62,3.7-3.43,7.3-5.14,10.96l-10.39,21.86-10.4,21.86-5.21,10.93-5.48,10.76-21.93,43.05c-7.15,14.46-15.04,28.44-22.68,42.59l-23.04,42.37c-15.95,27.85-32.04,55.62-48.18,83.36l-50.23,81.94c-1.64,2.68-5.15,3.31-7.84,1.42-2.69-1.89-3.54-5.6-1.9-8.28l.02-.04,.07-.11,50.73-81.27c16.3-27.51,32.56-55.06,48.68-82.69l23.29-42.03c7.72-14.04,15.7-27.92,22.93-42.26l22.2-42.72,5.55-10.68,5.28-10.84,10.53-21.7,10.53-21.7c1.73-3.63,3.56-7.2,5.21-10.88l4.97-11.01,19.87-44.05,18.65-44.68c3.2-7.4,6-15,8.91-22.54l8.69-22.65c1.42-3.79,2.95-7.53,4.29-11.35l4.02-11.47,8.04-22.94c1.38-3.81,2.62-7.67,3.83-11.55l3.68-11.61,3.68-11.61c1.25-3.86,2.46-7.74,3.53-11.67l6.68-23.47c2.1-7.87,4.01-15.79,6.03-23.69,1.93-7.92,3.59-15.92,5.32-23.89l2.26-12.04c.65-4,1.36-8.09,1.84-12.03v-.1c.2-1.55,1.57-2.56,3.08-2.26,1.51,.3,2.57,1.8,2.39,3.35h0Z"/></g><g><ellipse class="cls-1" cx="2300.91" cy="1738.87" rx="39" ry="60.87" transform="translate(-341.96 584.26) rotate(-13.48)"/><ellipse class="cls-2" cx="2312.24" cy="1710.79" rx="5.71" ry="18.75" transform="translate(-544.24 1373.46) rotate(-29.76)"/></g><g><ellipse class="cls-1" cx="2275.8" cy="1836.43" rx="31.1" ry="48.55" transform="translate(-634.73 1552.56) rotate(-33.33)"/><ellipse class="cls-2" cx="2276.69" cy="1812.3" rx="4.55" ry="14.96" transform="translate(-578.89 2372.14) rotate(-49.61)"/></g><g><ellipse class="cls-1" cx="2332.77" cy="2012.33" rx="53.89" ry="34.52" transform="translate(-378.4 549.17) rotate(-12.43)"/><ellipse class="cls-2" cx="2350.61" cy="1991.34" rx="5.05" ry="16.6" transform="translate(349.53 4333.66) rotate(-89.76)"/></g><g><ellipse class="cls-1" cx="2398.56" cy="1865.35" rx="63.86" ry="40.91" transform="translate(-619.85 1516.26) rotate(-31.27)"/><ellipse class="cls-2" cx="2405.97" cy="1835" rx="19.67" ry="5.99" transform="translate(-451.57 839.82) rotate(-18.13)"/></g></g></g><g><path class="cls-2" d="M1789.15,2550.99c24.14,0,54.02-33.72,78.16-71.27,1.92-3.07,4.22-4.22,6.51-4.22,4.22,0,7.66,3.45,7.66,7.66,0,1.53-.38,3.45-1.53,5.36-26.06,40.62-57.86,78.55-93.87,78.55-26.06,0-45.98-17.62-45.98-49.43,0-10.35,2.3-20.31,5.36-26.82-32.95,44.45-78.16,78.93-127.59,78.93-53.64,0-92.72-33.72-92.72-93.87,0-78.16,59.77-153.65,132.57-192.34v-6.51c0-27.59,14.94-46.36,22.61-46.36,5.36,0,9.2,3.45,9.2,8.43,0,2.68-1.15,4.6-3.83,8.05-3.83,5.36-8.43,14.56-8.43,26.44v.38c26.44-11.49,54.41-18.01,81.23-18.01,36.78,0,60.16,15.71,67.82,38.32l6.9-15.33c3.83-8.43,8.81-13.41,13.79-13.41,6.9,0,11.11,4.6,11.11,11.11,0,13.41-11.88,37.93-34.48,74.33-6.51,13.03-27.97,58.24-42.53,96.17-13.03,32.95-18.77,55.94-18.77,70.88,0,21.07,11.49,32.95,26.82,32.95Zm7.66-188.9c-11.88,6.51-25.67,10.35-40.23,10.35-44.83,0-83.91-29.5-95.41-70.12-63.22,37.55-113.03,106.52-113.03,173.57,0,49.81,33.33,75.87,70.5,75.87,44.06,0,84.68-34.1,115.33-75.48,19.54-26.82,31.42-46.36,46.36-78.16l16.48-36.02Zm-118.01-69.35c7.66,38.7,38.7,63.99,77.78,63.99,31.04,0,54.79-20.69,54.79-44.83s-19.54-39.08-52.88-39.08c-26.82,0-54.02,7.28-79.7,19.92Z"/><path class="cls-2" d="M2060.05,2479.72c1.92-3.07,4.21-4.22,6.51-4.22,4.21,0,7.66,3.45,7.66,7.66,0,1.53-.38,3.45-1.53,5.36-23.75,36.78-51.73,71.65-83.15,71.65-19.92,0-36.78-13.79-36.78-39.85,0-1.92,0-3.45,.38-4.98-18.01,25.29-37.93,44.83-58.62,44.83s-35.25-13.41-35.25-40.23c0-25.29,15.33-62.84,28.74-89.28,11.88-22.99,18.01-32.57,23.76-32.57,6.51,0,10.35,3.83,10.35,9.2,0,6.51-5.75,18.01-16.48,35.25-12.26,25.29-25.29,56.32-25.29,78.16,0,16.86,7.28,22.99,16.09,22.99,17.24,0,35.25-20.31,52.88-45.6,13.41-19.16,26.06-48.28,36.4-72.42,8.81-20.31,14.18-27.59,20.31-27.59,6.51,0,10.35,3.83,10.35,9.2,0,6.51-6.51,18.01-17.24,35.25-11.88,25.67-25.67,56.32-25.67,77.78,0,16.86,7.66,24.52,19.16,24.52,20.31,0,45.6-31.42,67.44-65.14Z"/><path class="cls-2" d="M2161.97,2479.72c1.92-3.07,3.83-4.6,6.51-4.6,3.83,0,8.05,3.07,8.05,6.9,0,2.68-.77,4.21-1.92,6.13-25.29,39.46-52.11,72.03-83.15,72.03-23.37,0-38.32-14.56-38.32-42.91,0-24.14,15.33-65.14,33.33-104.22h-18.01c-6.13,0-9.96-2.3-9.96-7.66,0-4.98,3.83-7.28,9.96-7.28h25.29c6.9-14.18,14.18-28.35,20.69-40.61,11.88-22.99,18.01-32.57,23.75-32.57,6.51,0,10.35,3.83,10.35,9.2,0,6.51-5.75,18.01-16.48,35.25l-14.56,28.74h21.84c6.13,0,9.58,3.07,9.58,6.9,0,5.36-3.83,8.05-9.58,8.05h-29.12c-19.16,40.62-36.02,82.38-36.02,106.9,0,17.62,8.43,24.9,19.92,24.9,20.31,0,46.75-30.27,67.82-65.14Z"/><path class="cls-2" d="M2354.69,2479.72c1.92-3.07,4.22-4.22,6.51-4.22,4.22,0,7.66,3.45,7.66,7.66,0,1.53-.38,3.45-1.53,5.36-23.76,36.78-51.73,71.65-83.14,71.65-19.93,0-36.78-13.79-36.78-39.85,0-1.92,0-3.45,.38-4.98-18.01,25.29-37.93,44.83-58.62,44.83s-35.25-13.41-35.25-40.23c0-25.29,15.33-62.84,28.74-89.28,11.88-22.99,18.01-32.57,23.76-32.57,6.51,0,10.35,3.83,10.35,9.2,0,6.51-5.75,18.01-16.48,35.25-12.26,25.29-25.29,56.32-25.29,78.16,0,16.86,7.28,22.99,16.09,22.99,17.24,0,35.25-20.31,52.88-45.6,13.41-19.16,26.05-48.28,36.4-72.42,8.81-20.31,14.18-27.59,20.31-27.59,6.51,0,10.35,3.83,10.35,9.2,0,6.51-6.51,18.01-17.24,35.25-11.88,25.67-25.67,56.32-25.67,77.78,0,16.86,7.66,24.52,19.16,24.52,20.31,0,45.6-31.42,67.44-65.14Z"/><path class="cls-2" d="M2573.86,2427.99c0,32.95-35.25,65.52-35.25,99.62,0,11.11,6.13,17.24,15.71,17.24,20.31,0,45.6-31.42,67.44-65.14,1.92-3.07,4.21-4.22,6.51-4.22,4.22,0,7.66,3.45,7.66,7.66,0,1.53-.38,3.45-1.53,5.36-23.76,36.78-51.73,71.65-83.15,71.65-19.93,0-32.95-13.03-32.95-35.25,0-34.48,36.02-71.27,36.02-98.47,0-8.05-4.21-12.64-11.49-12.64-16.09,0-43.3,26.05-60.16,47.51-15.33,19.54-29.89,56.71-39.46,87.36-1.53,4.98-3.83,11.49-11.49,11.49-3.83,0-8.43-2.3-8.43-8.05,0-3.07,1.15-6.13,2.3-9.96,8.81-25.67,24.14-65.9,33.72-93.49,3.07-9.58,4.98-17.62,4.98-22.22,0-8.05-4.22-12.64-11.88-12.64-18.01,0-45.98,26.05-62.84,47.51-15.33,19.54-30.27,56.71-39.85,87.36-1.53,4.98-3.83,11.49-11.49,11.49-3.83,0-7.66-2.3-7.66-7.66,0-3.45,.38-5.36,1.53-9.2,14.94-45.98,35.25-96.56,51.34-135.25,2.68-6.51,6.9-9.96,12.26-9.96,5.75,0,9.2,3.45,9.2,8.43,0,4.6-3.07,12.26-9.2,22.61l-4.98,11.49c19.16-22.61,42.53-42.53,62.84-42.53,18.78,0,30.27,11.49,30.27,29.89,0,5.36-1.15,10.35-3.07,16.48,19.16-23.76,43.68-46.36,62.45-46.36,17.63,0,30.65,11.88,30.65,29.89Z"/><path class="cls-2" d="M2765.82,2524.16c1.91-3.45,4.21-4.6,6.13-4.6,3.07,0,6.13,2.68,6.13,6.51,0,10.73-18.01,34.1-39.08,34.1-19.92,0-32.95-13.03-32.95-35.25,0-34.1,36.02-70.88,36.02-97.7,0-8.43-4.98-13.41-13.41-13.41-20.31,0-53.64,24.9-72.42,47.51-15.71,19.16-29.89,56.71-39.46,87.36-1.53,4.98-3.83,11.49-11.49,11.49-3.83,0-7.66-2.3-7.66-7.66,0-3.45,.38-5.36,1.53-9.2,14.94-45.98,35.25-96.56,51.34-135.25,2.68-6.51,6.9-9.96,12.26-9.96,5.75,0,9.2,3.45,9.2,8.43,0,4.6-3.45,12.26-9.2,22.22l-5.36,13.03c21.46-23.37,49.43-43.68,71.65-43.68,18.77,0,32.57,12.26,32.57,30.65,0,32.57-35.25,65.14-35.25,98.85,0,11.11,5.75,17.24,14.94,17.24s18.01-9.96,24.52-20.69Z"/></g><g><path class="cls-2" d="M1823.53,2809.76v-17.84c5.95,13.22,14.59,23.57,25.94,31.06,11.34,7.49,24.95,11.23,40.8,11.23,11.01,0,21.2-2.42,30.56-7.27,9.36-4.84,16.79-11.67,22.3-20.49,5.5-8.81,8.26-18.94,8.26-30.4,0-10.35-1.76-19.27-5.29-26.76-3.53-7.49-9.37-14.7-17.51-21.64-8.15-6.94-19.94-15.14-35.35-24.62l-10.57-6.61c-9.7-5.95-17.51-11.23-23.46-15.86-5.95-4.63-11.13-10.02-15.53-16.19-5.73-8.59-8.59-18.5-8.59-29.74,0-14.98,4.84-26.65,14.54-35.02,9.69-8.37,22.02-12.56,37.01-12.56,20.26,0,36.34,7.49,48.24,22.47v16.85c-5.07-9.25-12.01-16.52-20.81-21.81-8.81-5.29-18.5-7.93-29.08-7.93s-20.27,3.42-27.75,10.24c-7.49,6.83-11.23,15.97-11.23,27.42s3.47,20.87,10.41,28.91c6.94,8.04,18.67,16.8,35.19,26.27,20.26,11.89,36.01,22.69,47.25,32.38,7.93,7.27,13.71,15.31,17.35,24.12,3.63,8.81,5.45,18.62,5.45,29.41,0,13.66-3.2,25.66-9.58,36.01-6.39,10.36-15.2,18.34-26.43,23.95-11.23,5.62-23.9,8.43-38,8.43-27.54,0-48.9-11.34-64.1-34.03Z"/><path class="cls-2" d="M2233.56,2839.17h-11.56l-46.92-94.5h-131.5l-45.93,94.5h-11.56l123.57-253.75,123.9,253.75Zm-62.45-104.08l-62.12-125.88-60.79,125.88h122.91Z"/><path class="cls-2" d="M2270.24,2591.36h10.9v238.22h76.65v9.58h-87.56v-247.81Z"/><path class="cls-2" d="M2390.83,2591.36h88.88v9.58h-77.98v134.81h65.09v9.58h-65.09v84.25h77.98v9.58h-88.88v-247.81Z"/></g></g></g><g><rect class="cls-2" x="12165.76" y="335.44" width="3365.24" height="3529.11"/><g><g><path class="cls-6" d="M13502.57,3279.8h4.52v62.9h31.74v2.53h-36.26v-65.43Z"/><path class="cls-6" d="M13553.19,3279.8h4.52v65.43h-4.52v-65.43Z"/><path class="cls-6" d="M13685.22,3279.8v65.43h-4.52v-61.24l-48.44,62.46-48.16-63.25v62.03h-4.51v-65.43h6.43l46.25,60.72,46.66-60.72h6.29Z"/><path class="cls-6" d="M13707.52,3279.8h4.52v65.43h-4.52v-65.43Z"/><path class="cls-6" d="M13750.07,3282.33h-23.67v-2.53h51.58v2.53h-23.4v62.9h-4.52v-62.9Z"/><path class="cls-6" d="M13791.67,3279.8h36.81v2.53h-32.29v35.59h26.95v2.53h-26.95v22.25h32.29v2.53h-36.81v-65.43Z"/><path class="cls-6" d="M13842.84,3279.8h4.38c16.33,0,28.94,2.84,37.83,8.51,8.89,5.67,13.34,13.74,13.34,24.21,0,5.99-2.28,11.49-6.84,16.49-4.56,5-10.74,8.96-18.54,11.86-7.8,2.91-16.4,4.36-25.79,4.36h-4.38v-65.43Zm5.47,62.72c8.39,0,16.05-1.32,22.99-3.97,6.93-2.65,12.43-6.27,16.49-10.86,4.06-4.59,6.09-9.65,6.09-15.18,0-9.65-3.95-17.08-11.84-22.29-7.89-5.2-19.13-7.81-33.73-7.81h-1.09v60.11h1.09Z"/><path class="cls-6" d="M13961.46,3282.33h-23.67v-2.53h51.58v2.53h-23.4v62.9h-4.52v-62.9Z"/><path class="cls-6" d="M14003.74,3279.8h4.52v65.43h-4.52v-65.43Z"/><path class="cls-6" d="M14135.77,3279.8v65.43h-4.52v-61.24l-48.44,62.46-48.16-63.25v62.03h-4.51v-65.43h6.43l46.25,60.72,46.66-60.72h6.29Z"/><path class="cls-6" d="M14157.39,3279.8h36.81v2.53h-32.29v35.59h26.95v2.53h-26.95v22.25h32.29v2.53h-36.81v-65.43Z"/></g><g><path class="cls-6" d="M13713.81,3424.95c-8.21-3.2-14.71-7.46-19.5-12.78-4.79-5.32-7.18-11.04-7.18-17.14s2.42-11.7,7.25-16.97c4.83-5.26,11.36-9.45,19.57-12.56,8.21-3.11,17.1-4.67,26.68-4.67s18.56,1.54,26.68,4.62c8.12,3.08,14.57,7.26,19.36,12.52,4.79,5.26,7.18,10.95,7.18,17.06s-2.39,12.08-7.18,17.4c-4.79,5.32-11.27,9.54-19.43,12.65-8.16,3.11-17.08,4.67-26.75,4.67s-18.47-1.6-26.68-4.8Zm51.04-2.05c7.48-2.88,13.43-6.77,17.86-11.69,4.42-4.91,6.64-10.25,6.64-16.01s-2.19-10.99-6.57-15.88c-4.38-4.89-10.31-8.77-17.79-11.65-7.48-2.88-15.6-4.32-24.35-4.32s-17.01,1.44-24.49,4.32c-7.48,2.88-13.43,6.76-17.86,11.65-4.43,4.89-6.64,10.18-6.64,15.88s2.21,11.09,6.64,16.01c4.42,4.92,10.38,8.81,17.86,11.69,7.48,2.88,15.6,4.32,24.35,4.32s16.87-1.44,24.35-4.32Z"/><path class="cls-6" d="M13816.43,3369.12v58.89h-3.97v-66.39l75.53,59.76v-58.8h3.97v66.39l-75.53-59.85Z"/><path class="cls-6" d="M13913.58,3362.57h4.52v62.9h31.74v2.53h-36.26v-65.43Z"/><path class="cls-6" d="M14009.63,3362.57l-30.51,39.26v26.17h-4.52v-26.17l-31.2-39.26h4.93l28.6,35.86,28.05-35.86h4.65Z"/></g></g><g><g><g><path class="cls-4" d="M12897.4,2113.76c-.36-11.59-2.9-16.66-4.71-19.92-1.45-2.17-2.17-4.35-2.17-5.79,0-4.35,3.98-7.97,8.69-7.97,8.33,0,16.66,12.31,17.02,36.21,22.81,6.52,35.85,26.8,35.85,58.3,0,35.13-14.49,79.31-37.3,121.68,40.56,17.38,70.26,47.08,81.48,76.77,68.08-207.14,132.54-260.38,181.43-260.38,15.93,0,25.35,7.97,25.35,13.76,0,3.98-2.9,6.88-6.52,6.88-6.16,0-5.79-4.35-19.19-4.35-40.56,0-110.09,72.07-175.28,289.71-1.81,6.16-3.26,9.42-9.05,9.42-5.07,0-9.05-2.9-9.05-7.97,0-1.81,1.09-7.24,2.17-11.95-.72-35.49-30.06-77.14-79.31-97.78-40.92,68.81-103.21,128.56-160.79,128.56-38.75,0-63.01-22.81-63.01-55.77,0-50.34,67-102.48,156.44-102.48,19.92,0,39.11,3.26,56.49,8.69,22.09-40.56,36.21-82.93,36.21-114.8,0-21-6.52-34.76-17.74-40.92-8.69,46.72-51.06,103.57-89.09,103.57-21.37,0-38.39-13.76-38.39-39.11,0-43.82,61.2-84.02,110.45-84.38Zm-9.42,189.76c-14.85-3.98-31.14-6.52-48.53-6.52-76.77,0-136.89,46.35-136.89,86.19,0,23.54,16.66,39.47,43.09,39.47,48.89,0,104.66-55.41,142.32-119.14Zm8.33-174.19c-40.2,.36-90.17,33.68-90.17,70.25,0,14.12,8.33,22.09,19.56,22.09,30.06,0,64.1-52.51,70.62-92.35Z"/><path class="cls-4" d="M13238.18,2339.38s2.54-3.98,5.79-3.98c4.71,0,7.6,3.26,7.6,7.61,0,1.45-.72,3.26-1.45,4.71-25.35,39.11-65.91,67.72-107.19,67.72-35.13,0-54.68-17.38-54.68-49.25,0-59.75,53.23-103.93,91.98-103.93,21.73,0,34.4,10.86,34.4,30.06,0,29.33-46.35,56.49-105.02,61.93-.36,3.98-.72,8.33-.72,12.31,0,22.09,14.49,33.32,35.85,33.32,29.7,0,69.89-23.9,93.43-60.48Zm-124.94,0c46.72-5.79,81.84-27.52,81.84-49.25,0-7.97-6.16-13.04-15.21-13.04-22.09,0-55.05,26.07-66.63,62.29Z"/><path class="cls-4" d="M13331.97,2339.38c1.81-2.9,3.98-3.98,6.16-3.98,3.98,0,7.24,3.26,7.24,7.24,0,1.45-.36,3.26-1.45,5.07-22.45,34.77-48.89,67.72-78.58,67.72-21.37,0-34.77-13.04-34.77-39.84,0-35.13,37.3-116.25,64.46-168.4,9.42-18.11,17.02-30.78,22.81-30.78s9.42,3.62,9.42,9.05c0,14.85-21.73,52.87-45.99,94.16-17.74,38.75-31.14,74.96-31.14,97.05,0,16.66,7.6,24.26,18.11,24.26,19.19,0,43.09-29.69,63.74-61.56Z"/><path class="cls-4" d="M13425.76,2339.38c1.81-2.9,3.98-3.98,6.16-3.98,3.98,0,7.24,3.26,7.24,7.24,0,1.45-.36,3.26-1.45,5.07-22.45,34.77-48.89,67.72-78.58,67.72-21.37,0-34.77-13.04-34.77-39.84,0-35.13,37.3-116.25,64.46-168.4,9.42-18.11,17.02-30.78,22.81-30.78s9.42,3.62,9.42,9.05c0,14.85-21.73,52.87-45.99,94.16-17.74,38.75-31.14,74.96-31.14,97.05,0,16.66,7.6,24.26,18.11,24.26,19.19,0,43.09-29.69,63.74-61.56Z"/><path class="cls-4" d="M13471.39,2415.43c-28.61,0-49.25-17.74-49.25-51.79,0-53.96,49.25-101.4,91.62-101.4,28.97,0,46.72,17.38,46.72,47.44,0,50.34-44.54,105.74-89.09,105.74Zm42.01-138.7c-29.7,0-71.7,43.82-71.7,88,0,23.54,14.49,35.49,30.42,35.49,35.49,0,69.53-48.89,69.53-91.26,0-21.37-11.59-32.23-28.25-32.23Z"/></g><g><path class="cls-4" d="M14079.06,2406.74c22.81,0,51.06-31.87,73.88-67.36,1.81-2.9,3.98-3.98,6.16-3.98,3.98,0,7.24,3.26,7.24,7.24,0,1.45-.36,3.26-1.45,5.07-24.63,38.39-54.68,74.24-88.72,74.24-24.63,0-43.46-16.66-43.46-46.72,0-9.78,2.17-19.19,5.07-25.35-31.14,42.01-73.88,74.6-120.59,74.6-50.7,0-87.64-31.87-87.64-88.72,0-73.88,56.49-145.22,125.3-181.79v-6.16c0-26.07,14.12-43.82,21.37-43.82,5.07,0,8.69,3.26,8.69,7.97,0,2.53-1.09,4.35-3.62,7.6-3.62,5.07-7.97,13.76-7.97,24.99v.36c24.99-10.86,51.42-17.02,76.77-17.02,34.77,0,56.86,14.85,64.1,36.21l6.52-14.49c3.62-7.97,8.33-12.67,13.04-12.67,6.52,0,10.5,4.35,10.5,10.5,0,12.68-11.23,35.85-32.59,70.26-6.16,12.31-26.44,55.05-40.2,90.9-12.31,31.14-17.74,52.87-17.74,67,0,19.92,10.86,31.14,25.35,31.14Zm7.24-178.54c-11.23,6.16-24.26,9.78-38.03,9.78-42.37,0-79.31-27.89-90.17-66.27-59.75,35.49-106.83,100.67-106.83,164.05,0,47.08,31.51,71.7,66.63,71.7,41.65,0,80.03-32.23,109-71.34,18.47-25.35,29.7-43.82,43.82-73.88l15.57-34.04Zm-111.54-65.55c7.24,36.58,36.58,60.48,73.51,60.48,29.33,0,51.79-19.56,51.79-42.37s-18.47-36.94-49.98-36.94c-25.35,0-51.06,6.88-75.33,18.83Z"/><path class="cls-4" d="M14335.1,2339.38c1.81-2.9,3.98-3.98,6.16-3.98,3.98,0,7.24,3.26,7.24,7.24,0,1.45-.36,3.26-1.45,5.07-22.45,34.77-48.89,67.72-78.58,67.72-18.83,0-34.76-13.04-34.76-37.66,0-1.81,0-3.26,.36-4.71-17.02,23.9-35.85,42.37-55.41,42.37s-33.32-12.68-33.32-38.02c0-23.9,14.49-59.39,27.16-84.38,11.23-21.73,17.02-30.78,22.45-30.78,6.16,0,9.78,3.62,9.78,8.69,0,6.16-5.43,17.02-15.57,33.32-11.59,23.9-23.9,53.24-23.9,73.88,0,15.93,6.88,21.73,15.21,21.73,16.3,0,33.32-19.19,49.98-43.09,12.68-18.11,24.63-45.63,34.4-68.44,8.33-19.19,13.4-26.07,19.19-26.07,6.16,0,9.78,3.62,9.78,8.69,0,6.16-6.16,17.02-16.3,33.32-11.23,24.26-24.26,53.24-24.26,73.51,0,15.93,7.24,23.18,18.11,23.18,19.19,0,43.09-29.69,63.74-61.56Z"/><path class="cls-4" d="M14431.43,2339.38c1.81-2.9,3.62-4.35,6.16-4.35,3.62,0,7.61,2.9,7.61,6.52,0,2.53-.72,3.98-1.81,5.79-23.9,37.3-49.25,68.08-78.58,68.08-22.09,0-36.21-13.76-36.21-40.56,0-22.81,14.49-61.56,31.51-98.5h-17.02c-5.79,0-9.42-2.17-9.42-7.24,0-4.71,3.62-6.88,9.42-6.88h23.9c6.52-13.4,13.4-26.8,19.56-38.39,11.23-21.73,17.02-30.78,22.45-30.78,6.16,0,9.78,3.62,9.78,8.69,0,6.16-5.43,17.02-15.57,33.32l-13.76,27.16h20.64c5.79,0,9.05,2.9,9.05,6.52,0,5.07-3.62,7.6-9.05,7.6h-27.52c-18.11,38.39-34.04,77.86-34.04,101.04,0,16.66,7.97,23.54,18.83,23.54,19.19,0,44.18-28.61,64.1-61.56Z"/><path class="cls-4" d="M14613.58,2339.38c1.81-2.9,3.98-3.98,6.16-3.98,3.98,0,7.24,3.26,7.24,7.24,0,1.45-.36,3.26-1.45,5.07-22.45,34.77-48.89,67.72-78.58,67.72-18.83,0-34.77-13.04-34.77-37.66,0-1.81,0-3.26,.36-4.71-17.02,23.9-35.85,42.37-55.41,42.37s-33.32-12.68-33.32-38.02c0-23.9,14.49-59.39,27.16-84.38,11.23-21.73,17.02-30.78,22.45-30.78,6.16,0,9.78,3.62,9.78,8.69,0,6.16-5.43,17.02-15.57,33.32-11.59,23.9-23.9,53.24-23.9,73.88,0,15.93,6.88,21.73,15.21,21.73,16.3,0,33.32-19.19,49.98-43.09,12.68-18.11,24.63-45.63,34.4-68.44,8.33-19.19,13.4-26.07,19.19-26.07,6.16,0,9.78,3.62,9.78,8.69,0,6.16-6.16,17.02-16.3,33.32-11.23,24.26-24.26,53.24-24.26,73.51,0,15.93,7.24,23.18,18.11,23.18,19.19,0,43.09-29.69,63.74-61.56Z"/><path class="cls-4" d="M14820.72,2290.49c0,31.14-33.32,61.93-33.32,94.16,0,10.5,5.79,16.3,14.85,16.3,19.19,0,43.09-29.69,63.74-61.56,1.81-2.9,3.98-3.98,6.16-3.98,3.98,0,7.24,3.26,7.24,7.24,0,1.45-.36,3.26-1.45,5.07-22.45,34.77-48.89,67.72-78.58,67.72-18.83,0-31.14-12.31-31.14-33.32,0-32.59,34.04-67.36,34.04-93.07,0-7.6-3.98-11.95-10.86-11.95-15.21,0-40.92,24.63-56.86,44.9-14.49,18.47-28.25,53.6-37.3,82.57-1.45,4.71-3.62,10.86-10.86,10.86-3.62,0-7.97-2.17-7.97-7.6,0-2.9,1.09-5.79,2.17-9.42,8.33-24.26,22.81-62.29,31.87-88.36,2.9-9.05,4.71-16.66,4.71-21,0-7.6-3.98-11.95-11.23-11.95-17.02,0-43.46,24.63-59.39,44.9-14.48,18.47-28.61,53.6-37.66,82.57-1.45,4.71-3.62,10.86-10.86,10.86-3.62,0-7.24-2.17-7.24-7.24,0-3.26,.36-5.07,1.45-8.69,14.12-43.46,33.32-91.26,48.53-127.83,2.53-6.16,6.52-9.42,11.59-9.42,5.43,0,8.69,3.26,8.69,7.97,0,4.34-2.9,11.59-8.69,21.37l-4.71,10.86c18.11-21.37,40.2-40.2,59.39-40.2,17.75,0,28.61,10.86,28.61,28.25,0,5.07-1.09,9.78-2.9,15.57,18.11-22.45,41.28-43.82,59.03-43.82,16.66,0,28.97,11.23,28.97,28.25Z"/><path class="cls-4" d="M15002.16,2381.39c1.81-3.26,3.98-4.34,5.79-4.34,2.9,0,5.79,2.53,5.79,6.16,0,10.14-17.02,32.23-36.94,32.23-18.83,0-31.14-12.31-31.14-33.32,0-32.23,34.04-67,34.04-92.35,0-7.97-4.71-12.68-12.68-12.68-19.19,0-50.7,23.54-68.44,44.9-14.85,18.11-28.25,53.6-37.3,82.57-1.45,4.71-3.62,10.86-10.86,10.86-3.62,0-7.24-2.17-7.24-7.24,0-3.26,.36-5.07,1.45-8.69,14.12-43.46,33.32-91.26,48.53-127.83,2.53-6.16,6.52-9.42,11.59-9.42,5.43,0,8.69,3.26,8.69,7.97,0,4.34-3.26,11.59-8.69,21l-5.07,12.31c20.28-22.09,46.72-41.28,67.72-41.28,17.74,0,30.78,11.59,30.78,28.97,0,30.78-33.32,61.56-33.32,93.43,0,10.5,5.43,16.3,14.12,16.3s17.02-9.42,23.18-19.56Z"/></g></g><g><rect class="cls-5" x="13700.03" y="2208.04" width="3.28" height="14.7" transform="translate(3491.02 11616.79) rotate(-51.82)"/><rect class="cls-5" x="13715.75" y="2125.3" width="3.28" height="38.87" transform="translate(368.15 5961.05) rotate(-24.84)"/><rect class="cls-5" x="13722.43" y="2147.95" width="38.87" height="3.28" transform="translate(1241.44 8248.68) rotate(-34.9)"/><rect class="cls-5" x="13735.09" y="2112.34" width="38.87" height="3.28" transform="translate(1264.09 8249.52) rotate(-34.9)"/><g><g><path class="cls-5" d="M13894.37,1864.59c-2.83,1.09-82.27,31.21-105.98,152.44,1.87,2,63.64-64.97,105.98-152.44Z"/><path class="cls-5" d="M13745.58,1917.89s-28.77,57.39,25.88,131.54c0,0-13.55-67.78-25.88-131.54Z"/><path class="cls-5" d="M13649.84,2058.07s-13.21,67.58,67.91,130.17c0,0-35.22-67.02-67.91-130.17Z"/><path class="cls-5" d="M13708.2,1943.95c3.73-7.15-28.64,59.1,36.62,167.28,0,0-19.15-86.2-36.62-167.28Z"/><path class="cls-5" d="M13600.99,2183.67c1.67-7.72-11.7,63.34,81.99,150.67,0,0-42.52-77.57-81.99-150.67Z"/><path class="cls-5" d="M13643.8,2171.41c1.86-6.48-13.8,53.13,47.27,124.08,0,0-24.56-63.88-47.27-124.08Z"/><path class="cls-5" d="M13703,2239.24c-7.03,.04,57.34-1.63,120.3-77.09,0,0-61.89,39.89-120.3,77.09Z"/><path class="cls-5" d="M13692.97,2279.82c-5.45,.03,44.5-1.26,93.37-59.83,0,0-48.04,30.96-93.37,59.83Z"/><path class="cls-5" d="M13721.35,2182.92c-6.83-1.37,56.16,9.63,142.84-64.36,0,0-73.57,33.38-142.84,64.36Z"/><path class="cls-5" d="M13686.33,2312.28c-6.83-1.37,56.16,9.63,142.84-64.36,0,0-73.57,33.38-142.84,64.36Z"/><path class="cls-5" d="M13857.46,1985.39s-12.59,54.34-95.14,83.34c0,0,49.18-42.85,95.14-83.34Z"/><path class="cls-5" d="M13799.8,1994.33c-5.76,8.17-10.55,16.61-15.36,25.12-2.3,4.29-4.66,8.56-6.92,12.87l-6.54,13.02c-1.11,2.16-2.15,4.35-3.16,6.55l-3.06,6.59-3.06,6.59c-1.03,2.19-2.05,4.39-2.97,6.62l-5.72,13.31-2.86,6.66c-.96,2.22-1.79,4.47-2.69,6.71l-5.31,13.44c-1.76,4.48-3.59,8.95-5.17,13.48l-9.82,27.12-9.03,27.33-2.26,6.83c-.76,2.28-1.39,4.58-2.1,6.87l-4.12,13.75-4.12,13.75-2.05,6.88-1.87,6.92-7.47,27.67c-2.6,9.2-4.69,18.5-6.96,27.76l-6.71,27.81c-4.06,18.6-8.02,37.22-11.95,55.84l-10.48,56.03c-.34,1.83,.95,3.51,2.89,3.74,1.94,.24,3.78-1.06,4.13-2.89v-.03s.02-.08,.02-.08l10-55.94c3.77-18.59,7.57-37.17,11.46-55.75l6.47-27.76c2.19-9.25,4.19-18.53,6.71-27.72l7.22-27.63,1.81-6.91,1.99-6.87,4-13.73,4-13.73c.68-2.29,1.3-4.59,2.03-6.86l2.19-6.82,8.77-27.29,9.56-27.08c1.54-4.53,3.33-8.99,5.04-13.46l5.18-13.42c.88-2.23,1.69-4.49,2.63-6.7l2.79-6.64,5.59-13.29c.91-2.22,1.9-4.42,2.91-6.6l3-6.57,3-6.57c.98-2.2,2-4.38,3.09-6.54l6.4-12.98c2.2-4.3,4.52-8.55,6.77-12.82,2.3-4.25,4.75-8.43,7.16-12.63l3.79-6.2c1.31-2.02,2.62-4.1,3.98-6.03l.03-.05c.53-.76,.33-1.75-.45-2.22-.78-.47-1.85-.23-2.38,.53h0Z"/></g><g><ellipse class="cls-4" cx="13800.26" cy="2084.93" rx="36.11" ry="23.13" transform="translate(1236.93 8164.15) rotate(-34.41)"/><ellipse class="cls-2" cx="13806.44" cy="2068.07" rx="11.12" ry="3.38" transform="translate(41.96 4399.1) rotate(-18.13)"/></g><g><ellipse class="cls-4" cx="13772.51" cy="2137.85" rx="28.8" ry="18.45" transform="translate(-95.08 3531.51) rotate(-14.56)"/><ellipse class="cls-2" cx="13781.72" cy="2126.87" rx="2.7" ry="8.87" transform="translate(11242.19 15838.55) rotate(-88.28)"/></g><g><ellipse class="cls-4" cx="13677.49" cy="2192.59" rx="20.48" ry="31.96" transform="translate(1265.48 8342.65) rotate(-35.47)"/><ellipse class="cls-2" cx="13677.99" cy="2176.26" rx="3" ry="9.85" transform="translate(2928.28 10909.37) rotate(-48.13)"/></g><g><ellipse class="cls-4" cx="13706.99" cy="2101.76" rx="24.27" ry="37.88" transform="translate(-28.57 4007.87) rotate(-16.62)"/><ellipse class="cls-2" cx="13715.8" cy="2085.45" rx="3.55" ry="11.67" transform="translate(773.98 7083.6) rotate(-29.76)"/></g></g></g></g><g><path class="cls-6" d="M13215.54,2673.91c-6.7-2.99-11.5-6.83-14.39-11.54v-14.4c3.44,7.79,8.15,13.54,14.12,17.25,5.98,3.71,13.58,5.57,22.82,5.57s16.03-2.76,21.46-8.28c5.43-5.52,8.15-12.63,8.15-21.32,0-7.42-1.54-13.17-4.62-17.25-3.08-4.07-8.06-8.19-14.94-12.36l-10.32-5.98c-7.43-4.52-13-8.1-16.7-10.73-3.71-2.62-6.65-5.61-8.83-8.96-2.17-3.35-3.26-7.29-3.26-11.81,0-7.24,2.53-13.04,7.6-17.38,5.07-4.34,11.68-6.52,19.83-6.52,9.96,0,18.29,2.27,24.99,6.79v11.95c-5.61-7.42-13.67-11.13-24.17-11.13-5.8,0-10.5,1.45-14.12,4.34-3.62,2.9-5.43,6.61-5.43,11.14,0,3.98,1.09,7.47,3.26,10.46,2.17,2.99,5.2,5.75,9.1,8.28,3.89,2.54,10.36,6.34,19.42,11.41,9.23,5.25,16.03,10.64,20.37,16.16,4.35,5.53,6.52,12.72,6.52,21.59,0,11.23-3.67,20.23-11,27.02-7.33,6.79-16.25,10.19-26.75,10.19-8.69,0-16.39-1.49-23.09-4.48Z"/><path class="cls-6" d="M13303.54,2553.18h8.69v29.88c4.89-9.78,12.49-17.7,22.82-23.77,10.32-6.06,21.18-9.1,32.59-9.1s22.59,2.9,32.46,8.69c9.87,5.8,17.7,13.58,23.49,23.36,5.79,9.78,8.69,20.46,8.69,32.05s-2.9,22.27-8.69,32.05c-5.8,9.78-13.63,17.57-23.49,23.36-9.87,5.79-20.69,8.69-32.46,8.69-11.05,0-21.69-2.99-31.91-8.96-10.23-5.98-18.06-13.85-23.49-23.63v83.93h-8.69v-176.55Zm92.35,109.87c8.51-5.16,15.25-12.04,20.23-20.64,4.98-8.6,7.47-17.97,7.47-28.11s-2.54-19.28-7.61-27.98c-5.07-8.69-11.86-15.62-20.37-20.78-8.51-5.16-17.75-7.74-27.7-7.74s-19.24,2.63-27.84,7.88c-8.6,5.25-15.48,12.22-20.64,20.91-5.16,8.69-7.74,18.02-7.74,27.98s2.58,19.24,7.74,27.84c5.16,8.6,12.09,15.48,20.78,20.64,8.69,5.16,18.02,7.74,27.98,7.74s19.19-2.58,27.7-7.74Z"/><path class="cls-6" d="M13545.82,2663.73c8.51-4.89,15.57-11.59,21.18-20.1v13.85c-6.7,7.43-14.03,12.81-22,16.16-7.97,3.35-17.02,5.03-27.16,5.03-11.23,0-21.78-2.99-31.64-8.96-9.87-5.98-17.75-13.94-23.63-23.9-5.89-9.96-8.83-20.55-8.83-31.78,0-12.13,2.89-23.04,8.69-32.73,5.79-9.68,13.72-17.25,23.77-22.68,10.05-5.43,21.23-8.15,33.54-8.15,18.83,0,34.85,7.43,48.07,22.27l-85.29,84.2c5.98,4.89,11.77,8.47,17.38,10.73,5.61,2.27,11.95,3.4,19.01,3.4,9.41,0,18.38-2.44,26.89-7.33Zm-68.45-11.95l79.58-79.04c-5.98-5.25-11.77-9.01-17.38-11.27-5.61-2.26-12.32-3.4-20.1-3.4-11.05,0-20.87,2.4-29.47,7.2-8.6,4.8-15.35,11.36-20.23,19.69-4.89,8.33-7.33,17.75-7.33,28.25,0,15.03,4.98,27.89,14.94,38.57Z"/><path class="cls-6" d="M13620.1,2670.52c-9.87-5.61-17.7-13.31-23.49-23.09-5.8-9.78-8.69-20.82-8.69-33.14,0-11.41,2.89-21.95,8.69-31.64,5.79-9.68,13.72-17.42,23.77-23.22,10.05-5.79,21.14-8.69,33.27-8.69,10.14,0,18.83,1.63,26.07,4.89,7.24,3.26,14.3,8.33,21.19,15.21v14.67c-5.98-8.87-12.63-15.62-19.96-20.23-7.33-4.62-16.43-6.93-27.3-6.93-9.96,0-19.33,2.58-28.11,7.74-8.78,5.16-15.8,12.09-21.05,20.78-5.25,8.69-7.88,18.02-7.88,27.98,0,10.86,2.53,20.6,7.61,29.2,5.07,8.6,11.9,15.3,20.51,20.1,8.6,4.8,17.88,7.2,27.84,7.2,20.28,0,36.4-9.14,48.35-27.43v14.67c-6.52,6.88-13.72,12-21.59,15.35-7.88,3.35-16.8,5.02-26.75,5.02-11.77,0-22.59-2.81-32.46-8.42Z"/><path class="cls-6" d="M13729.01,2522.49c-1.9-1.81-2.85-4.07-2.85-6.79,0-2.53,.95-4.71,2.85-6.52,1.9-1.81,4.12-2.72,6.65-2.72s4.75,.91,6.65,2.72c1.9,1.81,2.85,3.99,2.85,6.52,0,2.72-.95,4.98-2.85,6.79-1.9,1.81-4.12,2.72-6.65,2.72s-4.75-.9-6.65-2.72Zm2.31,30.69h8.69v122.22h-8.69v-122.22Z"/><path class="cls-6" d="M13805.74,2669.7c-9.96-5.79-17.84-13.62-23.63-23.49-5.8-9.87-8.69-20.51-8.69-31.91s2.89-22.04,8.69-31.91c5.79-9.87,13.67-17.7,23.63-23.49,9.96-5.79,20.73-8.69,32.32-8.69s22.9,3.12,33.41,9.37c10.5,6.25,17.83,14.35,22,24.31v-30.69h8.69v122.22h-8.69v-30.42c-4.89,10.14-12.45,18.25-22.68,24.31-10.23,6.07-21.14,9.1-32.73,9.1s-22.37-2.9-32.32-8.69Zm60.57-6.65c8.51-5.16,15.25-12.04,20.23-20.64,4.98-8.6,7.47-17.97,7.47-28.11s-2.54-19.28-7.6-27.98c-5.07-8.69-11.86-15.62-20.37-20.78-8.51-5.16-17.75-7.74-27.7-7.74s-19.24,2.63-27.84,7.88c-8.6,5.25-15.48,12.22-20.64,20.91-5.16,8.69-7.74,18.02-7.74,27.98s2.58,19.24,7.74,27.84c5.16,8.6,12.09,15.48,20.78,20.64,8.69,5.16,18.02,7.74,27.98,7.74s19.19-2.58,27.7-7.74Z"/><path class="cls-6" d="M13959.47,2672.01c-7.06-3.89-12.68-9.37-16.84-16.43-4.17-7.06-6.25-14.94-6.25-23.63v-160.25h8.69v160.25c0,7.24,1.67,13.76,5.02,19.56,3.35,5.8,7.92,10.37,13.72,13.72,5.79,3.35,12.13,5.02,19.01,5.02v7.61c-8.51,0-16.3-1.95-23.36-5.84Z"/><path class="cls-6" d="M14077.07,2673.91c-6.7-2.99-11.5-6.83-14.4-11.54v-14.4c3.44,7.79,8.15,13.54,14.12,17.25,5.98,3.71,13.58,5.57,22.82,5.57s16.03-2.76,21.46-8.28c5.43-5.52,8.15-12.63,8.15-21.32,0-7.42-1.54-13.17-4.62-17.25-3.08-4.07-8.06-8.19-14.94-12.36l-10.32-5.98c-7.43-4.52-13-8.1-16.7-10.73-3.71-2.62-6.65-5.61-8.83-8.96-2.17-3.35-3.26-7.29-3.26-11.81,0-7.24,2.53-13.04,7.6-17.38,5.07-4.34,11.68-6.52,19.83-6.52,9.96,0,18.29,2.27,24.99,6.79v11.95c-5.61-7.42-13.67-11.13-24.17-11.13-5.8,0-10.5,1.45-14.12,4.34-3.62,2.9-5.43,6.61-5.43,11.14,0,3.98,1.09,7.47,3.26,10.46,2.17,2.99,5.2,5.75,9.1,8.28,3.89,2.54,10.36,6.34,19.42,11.41,9.23,5.25,16.02,10.64,20.37,16.16,4.35,5.53,6.52,12.72,6.52,21.59,0,11.23-3.67,20.23-11,27.02-7.33,6.79-16.25,10.19-26.75,10.19-8.69,0-16.39-1.49-23.09-4.48Z"/><path class="cls-6" d="M14190.33,2669.7c-9.96-5.79-17.84-13.62-23.63-23.49-5.8-9.87-8.69-20.51-8.69-31.91s2.89-22.04,8.69-31.91c5.79-9.87,13.67-17.7,23.63-23.49,9.96-5.79,20.73-8.69,32.32-8.69s22.9,3.12,33.41,9.37c10.5,6.25,17.83,14.35,22,24.31v-30.69h8.69v122.22h-8.69v-30.42c-4.89,10.14-12.45,18.25-22.68,24.31-10.23,6.07-21.14,9.1-32.73,9.1s-22.37-2.9-32.32-8.69Zm60.57-6.65c8.51-5.16,15.25-12.04,20.24-20.64,4.98-8.6,7.47-17.97,7.47-28.11s-2.54-19.28-7.61-27.98c-5.07-8.69-11.86-15.62-20.37-20.78-8.51-5.16-17.75-7.74-27.7-7.74s-19.24,2.63-27.84,7.88c-8.6,5.25-15.48,12.22-20.64,20.91-5.16,8.69-7.74,18.02-7.74,27.98s2.58,19.24,7.74,27.84c5.16,8.6,12.09,15.48,20.78,20.64,8.69,5.16,18.02,7.74,27.98,7.74s19.19-2.58,27.7-7.74Z"/><path class="cls-6" d="M14344.06,2672.01c-7.06-3.89-12.68-9.37-16.84-16.43-4.17-7.06-6.25-14.94-6.25-23.63v-160.25h8.69v160.25c0,7.24,1.67,13.76,5.02,19.56,3.35,5.8,7.92,10.37,13.72,13.72,5.79,3.35,12.13,5.02,19.01,5.02v7.61c-8.51,0-16.3-1.95-23.36-5.84Z"/><path class="cls-6" d="M14473.61,2663.73c8.51-4.89,15.57-11.59,21.19-20.1v13.85c-6.7,7.43-14.03,12.81-22,16.16-7.97,3.35-17.02,5.03-27.16,5.03-11.23,0-21.77-2.99-31.64-8.96-9.87-5.98-17.75-13.94-23.63-23.9-5.89-9.96-8.83-20.55-8.83-31.78,0-12.13,2.89-23.04,8.69-32.73,5.79-9.68,13.72-17.25,23.77-22.68,10.05-5.43,21.23-8.15,33.54-8.15,18.83,0,34.86,7.43,48.08,22.27l-85.29,84.2c5.98,4.89,11.77,8.47,17.38,10.73,5.61,2.27,11.95,3.4,19.01,3.4,9.41,0,18.38-2.44,26.89-7.33Zm-68.45-11.95l79.58-79.04c-5.98-5.25-11.77-9.01-17.38-11.27-5.61-2.26-12.32-3.4-20.1-3.4-11.05,0-20.87,2.4-29.47,7.2-8.6,4.8-15.35,11.36-20.23,19.69-4.89,8.33-7.33,17.75-7.33,28.25,0,15.03,4.98,27.89,14.94,38.57Z"/></g></g></svg>