<?xml version="1.0" encoding="UTF-8"?><svg xmlns="http://www.w3.org/2000/svg" xmlns:xlink="http://www.w3.org/1999/xlink" viewBox="0 0 8000 3300"><defs><style>.cls-1{mix-blend-mode:screen;opacity:.58;}.cls-1,.cls-2{fill:#e0e0e0;}.cls-3,.cls-4{fill:#f4d4bd;}.cls-5{fill:#fff;}.cls-6,.cls-7{fill:#fcb454;}.cls-8{fill:#efeae8;}.cls-9{fill:#6b9ac1;}.cls-10,.cls-11,.cls-12{fill:#9eaf7d;}.cls-13,.cls-14{fill:#8e8e8e;}.cls-15{fill:#d8d8d8;}.cls-16,.cls-17,.cls-18{fill:#b2b2b2;}.cls-19{fill:#cccdce;}.cls-20,.cls-21{fill:#ccc8c8;}.cls-22{fill:#d86a77;}.cls-23,.cls-24{fill:#444443;}.cls-25,.cls-26{fill:#705750;}.cls-27{fill:#4f4f4e;}.cls-28,.cls-29{fill:#757575;}.cls-29,.cls-26,.cls-24,.cls-2,.cls-17,.cls-21,.cls-14,.cls-11,.cls-7,.cls-4,.cls-30,.cls-31{mix-blend-mode:multiply;}.cls-18{stroke:#fff;stroke-miterlimit:10;stroke-width:9.01px;}.cls-30{fill:url(#_Безымянный_градиент_2);}.cls-30,.cls-31{opacity:.61;}.cls-12{mix-blend-mode:color-burn;}.cls-32{isolation:isolate;}.cls-31{fill:url(#_Безымянный_градиент_2-2);}</style><linearGradient id="_Безымянный_градиент_2" x1="3338.45" y1="4124.02" x2="3833.29" y2="3165.26" gradientTransform="translate(1855.42 -420.59) rotate(-19.79)" gradientUnits="userSpaceOnUse"><stop offset="0" stop-color="#fff"/><stop offset="1" stop-color="#ffe0bb"/></linearGradient><linearGradient id="_Безымянный_градиент_2-2" x1="811.05" y1="433.96" x2="1297.7" y2="-508.91" gradientTransform="translate(378.38 1985.76) rotate(-19.96) scale(.91 1)" xlink:href="#_Безымянный_градиент_2"/></defs><g class="cls-32"><g id="_Слой_1"><g><rect class="cls-5" width="8000" height="3300"/><g><ellipse class="cls-8" cx="6314.52" cy="2657.07" rx="798.84" ry="218.09"/><g><g><path class="cls-5" d="M6088.76,2442.8c5.91,3.64,27.71,18.34,21.71,35.58-6,17.25-32.94,18.95-39.38,20.16-6.44,1.21-244.51,24.25-244.51,24.25,0,0-4.4-40.69-9.14-52.44-4.74-11.75,271.32-27.54,271.32-27.54Z"/><path class="cls-22" d="M5671.37,2430.93c23.91,11.6,151.04,48.27,151.05,48.28h0c4.92,1.56,6.96,2.18,10.79,1.72l252.36-29.81c6.74-.8,13.39,1.38,16.46,5.53,3.41,4.6,4.73,12.44-2.46,25.62-2.03,3.71-6.79,6.42-12.38,6.99l-251.5,25.62c-1.29,.13-3.12,.32-3.95,.4-.28,.03-.57,0-.82-.1l-143.87-52.48c-.22-.08-.48-.12-.73-.1-13.22,.74-7.52,9.72-6.34,11.39,.12,.17,.32,.31,.56,.4,8,2.93,144.89,53,147.89,54.09,.04,.01,.07,.02,.11,.03,2.6,.77,6.17,1.42,10.98,1.87,29.37,2.77,220.73-22.83,260.4-28.21,4.85-.66,9.03-2.92,11.15-6.06,7.39-10.98,19.23-37.78-20.04-60.69-1.23-.72-2.61-1.3-4.1-1.73-18.07-5.17-143.45-41.02-167.9-48.01-2.7-.77-5.68-1.01-8.62-.68-30.79,3.44-210.2,23.47-237.6,26.53-3.48,.39-6.77,1.51-9.26,3.3-4.38,3.15-7.37,8.73,7.81,16.09Z"/><path class="cls-5" d="M5827.45,2480.57s22.82,7.79,4.82,32.6c-.6,.82-2.44,1.86-3.59,1.45l-138.61-50.51c-.99-.35-1.42-1.16-1.03-1.9,1.53-2.91,3.46-11.01-10.21-24.76-1.31-1.32,.83-3.06,2.95-2.39l145.67,45.51Z"/></g><g><path class="cls-5" d="M6045.32,2365.31c5.09,3.64,23.84,18.34,18.67,35.58-5.16,17.25-28.33,18.95-33.87,20.16-5.53,1.21-210.3,24.25-210.3,24.25,0,0-3.79-40.69-7.86-52.44-4.07-11.75,233.36-27.54,233.36-27.54Z"/><path class="cls-10" d="M5686.32,2353.44c20.57,11.6,129.91,48.27,129.92,48.28h0c4.23,1.56,5.98,2.18,9.28,1.72l217.05-29.81c5.8-.8,11.52,1.38,14.16,5.53,2.93,4.6,4.07,12.44-2.12,25.62-1.74,3.71-5.84,6.42-10.64,6.99l-216.32,25.62c-1.11,.13-2.68,.32-3.39,.4-.24,.03-.49,0-.7-.1l-123.74-52.48c-.19-.08-.41-.12-.63-.1-11.37,.74-6.47,9.72-5.45,11.39,.11,.17,.27,.31,.48,.4,6.88,2.93,124.62,53,127.2,54.09,.03,.01,.06,.02,.09,.03,2.24,.77,5.31,1.42,9.45,1.87,25.26,2.77,189.85-22.83,223.97-28.21,4.17-.66,7.77-2.92,9.59-6.06,6.36-10.98,16.54-37.78-17.24-60.69-1.06-.72-2.24-1.3-3.53-1.73-15.54-5.17-123.38-41.02-144.41-48.01-2.32-.77-4.88-1.01-7.41-.68-26.48,3.44-180.79,23.47-204.36,26.53-2.99,.39-5.83,1.51-7.97,3.3-3.76,3.15-6.34,8.73,6.72,16.09Z"/><path class="cls-5" d="M5820.57,2403.08s19.63,7.79,4.15,32.6c-.51,.82-2.1,1.86-3.09,1.45l-119.22-50.51c-.85-.35-1.22-1.16-.89-1.9,1.31-2.91,2.98-11.01-8.78-24.76-1.13-1.32,.71-3.06,2.54-2.39l125.29,45.51Z"/></g><g><path class="cls-5" d="M6046.19,2296.53c5.09,3.64,23.84,18.34,18.67,35.58-5.16,17.25-28.33,18.95-33.87,20.16-5.53,1.21-210.3,24.25-210.3,24.25,0,0-3.79-40.69-7.86-52.44-4.07-11.75,233.36-27.54,233.36-27.54Z"/><path class="cls-9" d="M5687.19,2284.66c20.57,11.6,129.91,48.27,129.92,48.28h0c4.23,1.56,5.98,2.18,9.28,1.72l217.05-29.81c5.8-.8,11.52,1.38,14.16,5.53,2.93,4.6,4.07,12.44-2.12,25.62-1.74,3.71-5.84,6.42-10.64,6.99l-216.32,25.62c-1.11,.13-2.68,.32-3.39,.4-.24,.03-.49,0-.7-.1l-123.74-52.48c-.19-.08-.41-.12-.63-.1-11.37,.74-6.47,9.72-5.45,11.39,.11,.17,.27,.31,.48,.4,6.88,2.93,124.62,53,127.2,54.09,.03,.01,.06,.02,.09,.03,2.24,.77,5.31,1.42,9.45,1.87,25.26,2.77,189.85-22.83,223.97-28.21,4.17-.66,7.77-2.92,9.59-6.06,6.36-10.98,16.54-37.78-17.24-60.69-1.06-.72-2.24-1.3-3.53-1.73-15.54-5.17-123.38-41.02-144.41-48.01-2.32-.77-4.88-1.01-7.41-.68-26.48,3.44-180.79,23.47-204.36,26.53-2.99,.39-5.83,1.51-7.97,3.3-3.76,3.15-6.34,8.73,6.72,16.09Z"/><path class="cls-5" d="M5821.44,2334.3s19.63,7.79,4.15,32.6c-.51,.82-2.1,1.86-3.09,1.45l-119.22-50.51c-.85-.35-1.22-1.16-.89-1.9,1.31-2.91,2.98-11.01-8.78-24.76-1.13-1.32,.71-3.06,2.54-2.39l125.29,45.51Z"/></g><g><path class="cls-5" d="M6060.03,2245.68c4.64,3.33,21.76,16.74,17.05,32.48-4.71,15.74-25.87,17.29-30.92,18.4-5.05,1.1-191.97,22.13-191.97,22.13,0,0-3.46-37.15-7.17-47.87-3.72-10.73,213.02-25.14,213.02-25.14Z"/><path class="cls-20" d="M5732.33,2234.85c18.77,10.59,118.59,44.06,118.6,44.07h0c3.86,1.43,5.46,1.99,8.48,1.57l198.13-27.21c5.29-.73,10.51,1.26,12.93,5.05,2.68,4.2,3.71,11.36-1.93,23.38-1.59,3.39-5.33,5.86-9.72,6.38l-197.46,23.38c-1.01,.12-2.45,.29-3.1,.37-.22,.03-.45,0-.64-.09l-112.96-47.9c-.17-.07-.38-.11-.58-.1-10.38,.68-5.91,8.87-4.98,10.4,.1,.16,.25,.28,.44,.37,6.28,2.67,113.76,48.38,116.11,49.38,.03,.01,.05,.02,.08,.03,2.04,.7,4.85,1.29,8.62,1.71,23.06,2.52,173.3-20.84,204.45-25.75,3.81-.6,7.09-2.66,8.76-5.54,5.81-10.02,15.1-34.48-15.74-55.4-.97-.65-2.05-1.19-3.22-1.58-14.18-4.72-112.63-37.45-131.82-43.83-2.12-.71-4.46-.92-6.77-.62-24.17,3.14-165.03,21.43-186.55,24.22-2.73,.35-5.32,1.38-7.27,3.01-3.44,2.87-5.78,7.97,6.13,14.69Z"/><path class="cls-5" d="M5854.87,2280.16s17.92,7.12,3.79,29.76c-.47,.75-1.92,1.7-2.82,1.32l-108.83-46.11c-.78-.32-1.11-1.06-.81-1.74,1.2-2.66,2.72-10.05-8.02-22.6-1.03-1.21,.65-2.79,2.32-2.18l114.37,41.55Z"/></g><g><path class="cls-5" d="M6016.37,2212.03c3.47,2.48,16.24,12.49,12.72,24.25-3.52,11.75-19.31,12.91-23.08,13.73-3.77,.82-143.29,16.52-143.29,16.52,0,0-2.58-27.73-5.35-35.73-2.78-8.01,158.99-18.77,158.99-18.77Z"/><path class="cls-6" d="M5771.77,2203.94c14.01,7.9,88.51,32.89,88.52,32.89h0c2.88,1.06,4.08,1.48,6.33,1.17l147.88-20.31c3.95-.54,7.85,.94,9.65,3.77,2,3.14,2.77,8.48-1.44,17.45-1.19,2.53-3.98,4.38-7.25,4.76l-147.38,17.45c-.75,.09-1.83,.22-2.31,.27-.17,.02-.33,0-.48-.07l-84.31-35.75c-.13-.06-.28-.08-.43-.07-7.75,.5-4.41,6.62-3.72,7.76,.07,.12,.18,.21,.33,.27,4.69,1.99,84.91,36.11,86.66,36.86,.02,0,.04,.02,.06,.02,1.52,.52,3.62,.96,6.44,1.27,17.21,1.88,129.35-15.56,152.6-19.22,2.84-.45,5.29-1.99,6.54-4.13,4.33-7.48,11.27-25.74-11.75-41.35-.72-.49-1.53-.89-2.4-1.18-10.59-3.52-84.06-27.95-98.39-32.71-1.58-.53-3.33-.69-5.05-.46-18.04,2.34-123.18,15.99-139.24,18.08-2.04,.26-3.97,1.03-5.43,2.25-2.56,2.15-4.32,5.95,4.58,10.96Z"/><path class="cls-5" d="M5863.24,2237.76s13.37,5.31,2.83,22.21c-.35,.56-1.43,1.27-2.1,.99l-81.23-34.41c-.58-.24-.83-.79-.6-1.3,.89-1.98,2.03-7.5-5.98-16.87-.77-.9,.49-2.08,1.73-1.63l85.36,31.01Z"/></g><g><path class="cls-5" d="M6071.44,2142.42c5.09,3.64,23.84,18.34,18.67,35.58-5.16,17.25-28.33,18.95-33.87,20.16-5.53,1.21-210.3,24.25-210.3,24.25,0,0-3.79-40.69-7.86-52.44-4.07-11.75,233.36-27.54,233.36-27.54Z"/><path class="cls-10" d="M5712.44,2130.55c20.57,11.6,129.91,48.27,129.92,48.28h0c4.23,1.56,5.98,2.18,9.28,1.72l217.05-29.81c5.8-.8,11.52,1.38,14.16,5.53,2.93,4.6,4.07,12.44-2.12,25.62-1.74,3.71-5.84,6.42-10.64,6.99l-216.32,25.62c-1.11,.13-2.68,.32-3.39,.4-.24,.03-.49,0-.7-.1l-123.74-52.48c-.19-.08-.41-.12-.63-.1-11.37,.74-6.47,9.72-5.45,11.39,.11,.17,.27,.31,.48,.4,6.88,2.93,124.62,53,127.2,54.09,.03,.01,.06,.02,.09,.03,2.24,.77,5.31,1.42,9.45,1.87,25.26,2.77,189.85-22.83,223.97-28.21,4.17-.66,7.77-2.92,9.59-6.06,6.36-10.98,16.54-37.78-17.24-60.69-1.06-.72-2.24-1.3-3.53-1.73-15.54-5.17-123.38-41.02-144.41-48.01-2.32-.77-4.88-1.01-7.41-.68-26.48,3.44-180.79,23.47-204.36,26.53-2.99,.39-5.83,1.51-7.97,3.3-3.76,3.15-6.34,8.73,6.72,16.09Z"/><path class="cls-5" d="M5846.69,2180.19s19.63,7.79,4.15,32.6c-.51,.82-2.1,1.86-3.09,1.45l-119.22-50.51c-.85-.35-1.22-1.16-.89-1.9,1.31-2.91,2.98-11.01-8.78-24.76-1.13-1.32,.71-3.06,2.54-2.39l125.29,45.51Z"/></g><g><path class="cls-5" d="M6078.4,2076.25c5.09,3.64,23.84,18.34,18.67,35.58-5.16,17.25-28.33,18.95-33.87,20.16-5.53,1.21-210.3,24.25-210.3,24.25,0,0-3.79-40.69-7.86-52.44-4.07-11.75,233.36-27.54,233.36-27.54Z"/><path class="cls-20" d="M5719.41,2064.38c20.57,11.6,129.91,48.27,129.92,48.28h0c4.23,1.56,5.98,2.18,9.28,1.72l217.05-29.81c5.8-.8,11.52,1.38,14.16,5.53,2.93,4.6,4.07,12.44-2.12,25.62-1.74,3.71-5.84,6.42-10.64,6.99l-216.32,25.62c-1.11,.13-2.68,.32-3.39,.4-.24,.03-.49,0-.7-.1l-123.74-52.48c-.19-.08-.41-.12-.63-.1-11.37,.74-6.47,9.72-5.45,11.39,.11,.17,.27,.31,.48,.4,6.88,2.93,124.62,53,127.2,54.09,.03,.01,.06,.02,.09,.03,2.24,.77,5.31,1.42,9.45,1.87,25.26,2.77,189.85-22.83,223.97-28.21,4.17-.66,7.77-2.92,9.59-6.06,6.36-10.98,16.54-37.78-17.24-60.69-1.06-.72-2.24-1.3-3.53-1.73-15.54-5.17-123.38-41.02-144.41-48.01-2.32-.77-4.88-1.01-7.41-.68-26.48,3.44-180.79,23.47-204.36,26.53-2.99,.39-5.83,1.51-7.97,3.3-3.76,3.15-6.34,8.73,6.72,16.09Z"/><path class="cls-5" d="M5853.65,2114.02s19.63,7.79,4.15,32.6c-.51,.82-2.1,1.86-3.09,1.45l-119.22-50.51c-.85-.35-1.22-1.16-.89-1.9,1.31-2.91,2.98-11.01-8.78-24.76-1.13-1.32,.71-3.06,2.54-2.39l125.29,45.51Z"/></g><g><path class="cls-5" d="M6081.01,2022.27c5.09,3.64,23.84,18.34,18.67,35.58-5.16,17.25-28.33,18.95-33.87,20.16-5.53,1.21-210.3,24.25-210.3,24.25,0,0-3.79-40.69-7.86-52.44-4.07-11.75,233.36-27.54,233.36-27.54Z"/><path class="cls-22" d="M5722.02,2010.4c20.57,11.6,129.91,48.27,129.92,48.28h0c4.23,1.56,5.98,2.18,9.28,1.72l217.05-29.81c5.8-.8,11.52,1.38,14.16,5.53,2.93,4.6,4.07,12.44-2.12,25.62-1.74,3.71-5.84,6.42-10.64,6.99l-216.32,25.62c-1.11,.13-2.68,.32-3.39,.4-.24,.03-.49,0-.7-.1l-123.74-52.48c-.19-.08-.41-.12-.63-.1-11.37,.74-6.47,9.72-5.45,11.39,.11,.17,.27,.31,.48,.4,6.88,2.93,124.62,53,127.2,54.09,.03,.01,.06,.02,.09,.03,2.24,.77,5.31,1.42,9.45,1.87,25.26,2.77,189.85-22.83,223.97-28.21,4.17-.66,7.77-2.92,9.59-6.06,6.36-10.98,16.54-37.78-17.24-60.69-1.06-.72-2.24-1.3-3.53-1.73-15.54-5.17-123.38-41.02-144.41-48.01-2.32-.77-4.88-1.01-7.41-.68-26.48,3.44-180.79,23.47-204.36,26.53-2.99,.39-5.83,1.51-7.97,3.3-3.76,3.15-6.34,8.73,6.72,16.09Z"/><path class="cls-5" d="M5856.27,2060.04s19.63,7.79,4.15,32.6c-.51,.82-2.1,1.86-3.09,1.45l-119.22-50.51c-.85-.35-1.22-1.16-.89-1.9,1.31-2.91,2.98-11.01-8.78-24.76-1.13-1.32,.71-3.06,2.54-2.39l125.29,45.51Z"/></g></g><g><g><path class="cls-5" d="M6136.74,1954.3c5.09,3.64,23.84,18.34,18.67,35.58-5.16,17.25-28.33,18.95-33.87,20.16-5.53,1.21-210.3,24.25-210.3,24.25,0,0-3.79-40.69-7.86-52.44-4.07-11.75,233.36-27.54,233.36-27.54Z"/><path class="cls-9" d="M5777.74,1942.43c20.57,11.6,129.91,48.27,129.92,48.28h0c4.23,1.56,5.98,2.18,9.28,1.72l217.05-29.81c5.8-.8,11.52,1.38,14.16,5.53,2.93,4.6,4.07,12.44-2.12,25.62-1.74,3.71-5.84,6.42-10.64,6.99l-216.32,25.62c-1.11,.13-2.68,.32-3.39,.4-.24,.03-.49,0-.7-.1l-123.74-52.48c-.19-.08-.41-.12-.63-.1-11.37,.74-6.47,9.72-5.45,11.39,.11,.17,.27,.31,.48,.4,6.88,2.93,124.62,53,127.2,54.09,.03,.01,.06,.02,.09,.03,2.24,.77,5.31,1.42,9.45,1.87,25.26,2.77,189.85-22.83,223.97-28.21,4.17-.66,7.77-2.92,9.59-6.06,6.36-10.98,16.54-37.78-17.24-60.69-1.06-.72-2.24-1.3-3.53-1.73-15.54-5.17-123.38-41.02-144.41-48.01-2.32-.77-4.88-1.01-7.41-.68-26.48,3.44-180.79,23.47-204.36,26.53-2.99,.39-5.83,1.51-7.97,3.3-3.76,3.15-6.34,8.73,6.72,16.09Z"/><path class="cls-5" d="M5911.99,1992.07s19.63,7.79,4.15,32.6c-.51,.82-2.1,1.86-3.09,1.45l-119.22-50.51c-.85-.35-1.22-1.16-.89-1.9,1.31-2.91,2.98-11.01-8.78-24.76-1.13-1.32,.71-3.06,2.54-2.39l125.29,45.51Z"/></g><g><path class="cls-5" d="M6056.55,1871.24c4.64,3.33,21.76,16.74,17.05,32.48-4.71,15.74-25.87,17.29-30.92,18.4-5.05,1.1-191.97,22.13-191.97,22.13,0,0-3.46-37.15-7.17-47.87-3.72-10.73,213.02-25.14,213.02-25.14Z"/><path class="cls-20" d="M5728.85,1860.4c18.77,10.59,118.59,44.06,118.6,44.07h0c3.86,1.43,5.46,1.99,8.48,1.57l198.13-27.21c5.29-.73,10.51,1.26,12.93,5.05,2.68,4.2,3.71,11.36-1.93,23.38-1.59,3.39-5.33,5.86-9.72,6.38l-197.46,23.38c-1.01,.12-2.45,.29-3.1,.37-.22,.03-.45,0-.64-.09l-112.96-47.9c-.17-.07-.38-.11-.58-.1-10.38,.68-5.91,8.87-4.98,10.4,.1,.16,.25,.28,.44,.37,6.28,2.67,113.76,48.38,116.11,49.38,.03,.01,.05,.02,.08,.03,2.04,.7,4.85,1.29,8.62,1.71,23.06,2.52,173.3-20.84,204.45-25.75,3.81-.6,7.09-2.66,8.76-5.54,5.81-10.02,15.1-34.48-15.74-55.4-.97-.65-2.05-1.19-3.22-1.58-14.18-4.72-112.63-37.45-131.82-43.83-2.12-.71-4.46-.92-6.77-.62-24.17,3.14-165.03,21.43-186.55,24.22-2.73,.35-5.32,1.38-7.27,3.01-3.44,2.87-5.78,7.97,6.13,14.69Z"/><path class="cls-5" d="M5851.39,1905.72s17.92,7.12,3.79,29.76c-.47,.75-1.92,1.7-2.82,1.32l-108.83-46.11c-.78-.32-1.11-1.06-.81-1.74,1.2-2.66,2.72-10.05-8.02-22.6-1.03-1.21,.65-2.79,2.32-2.18l114.37,41.55Z"/></g><g><path class="cls-5" d="M6012.88,1837.59c3.47,2.48,16.24,12.49,12.72,24.25-3.52,11.75-19.31,12.91-23.08,13.73-3.77,.82-143.29,16.52-143.29,16.52,0,0-2.58-27.73-5.35-35.73-2.78-8.01,158.99-18.77,158.99-18.77Z"/><path class="cls-6" d="M5768.29,1829.5c14.01,7.9,88.51,32.89,88.52,32.89h0c2.88,1.06,4.08,1.48,6.33,1.17l147.88-20.31c3.95-.54,7.85,.94,9.65,3.77,2,3.14,2.77,8.48-1.44,17.45-1.19,2.53-3.98,4.38-7.25,4.76l-147.38,17.45c-.75,.09-1.83,.22-2.31,.27-.17,.02-.33,0-.48-.07l-84.31-35.75c-.13-.06-.28-.08-.43-.07-7.75,.5-4.41,6.62-3.72,7.76,.07,.12,.18,.21,.33,.27,4.69,1.99,84.91,36.11,86.66,36.86,.02,0,.04,.02,.06,.02,1.52,.52,3.62,.96,6.44,1.27,17.21,1.88,129.35-15.56,152.6-19.22,2.84-.45,5.29-1.99,6.54-4.13,4.33-7.48,11.27-25.74-11.75-41.35-.72-.49-1.53-.89-2.4-1.18-10.59-3.52-84.06-27.95-98.39-32.71-1.58-.53-3.33-.69-5.05-.46-18.04,2.34-123.18,15.99-139.24,18.08-2.04,.26-3.97,1.03-5.43,2.25-2.56,2.15-4.32,5.95,4.58,10.96Z"/><path class="cls-5" d="M5859.75,1863.32s13.37,5.31,2.83,22.21c-.35,.56-1.43,1.27-2.1,.99l-81.23-34.41c-.58-.24-.83-.79-.6-1.3,.89-1.98,2.03-7.5-5.98-16.87-.77-.9,.49-2.08,1.73-1.63l85.36,31.01Z"/></g><g><path class="cls-5" d="M6067.95,1767.98c5.09,3.64,23.84,18.34,18.67,35.58-5.16,17.25-28.33,18.95-33.87,20.16-5.53,1.21-210.3,24.25-210.3,24.25,0,0-3.79-40.69-7.86-52.44-4.07-11.75,233.36-27.54,233.36-27.54Z"/><path class="cls-10" d="M5708.96,1756.1c20.57,11.6,129.91,48.27,129.92,48.28h0c4.23,1.56,5.98,2.18,9.28,1.72l217.05-29.81c5.8-.8,11.52,1.38,14.16,5.53,2.93,4.6,4.07,12.44-2.12,25.62-1.74,3.71-5.84,6.42-10.64,6.99l-216.32,25.62c-1.11,.13-2.68,.32-3.39,.4-.24,.03-.49,0-.7-.1l-123.74-52.48c-.19-.08-.41-.12-.63-.1-11.37,.74-6.47,9.72-5.45,11.39,.11,.17,.27,.31,.48,.4,6.88,2.93,124.62,53,127.2,54.09,.03,.01,.06,.02,.09,.03,2.24,.77,5.31,1.42,9.45,1.87,25.26,2.77,189.85-22.83,223.97-28.21,4.17-.66,7.77-2.92,9.59-6.06,6.36-10.98,16.54-37.78-17.24-60.69-1.06-.72-2.24-1.3-3.53-1.73-15.54-5.17-123.38-41.02-144.41-48.01-2.32-.77-4.88-1.01-7.41-.68-26.48,3.44-180.79,23.47-204.36,26.53-2.99,.39-5.83,1.51-7.97,3.3-3.76,3.15-6.34,8.73,6.72,16.09Z"/><path class="cls-5" d="M5843.21,1805.75s19.63,7.79,4.15,32.6c-.51,.82-2.1,1.86-3.09,1.45l-119.22-50.51c-.85-.35-1.22-1.16-.89-1.9,1.31-2.91,2.98-11.01-8.78-24.76-1.13-1.32,.71-3.06,2.54-2.39l125.29,45.51Z"/></g><g><path class="cls-5" d="M6074.92,1701.81c5.09,3.64,23.84,18.34,18.67,35.58-5.16,17.25-28.33,18.95-33.87,20.16-5.53,1.21-210.3,24.25-210.3,24.25,0,0-3.79-40.69-7.86-52.44-4.07-11.75,233.36-27.54,233.36-27.54Z"/><path class="cls-20" d="M5715.93,1689.93c20.57,11.6,129.91,48.27,129.92,48.28h0c4.23,1.56,5.98,2.18,9.28,1.72l217.05-29.81c5.8-.8,11.52,1.38,14.16,5.53,2.93,4.6,4.07,12.44-2.12,25.62-1.74,3.71-5.84,6.42-10.64,6.99l-216.32,25.62c-1.11,.13-2.68,.32-3.39,.4-.24,.03-.49,0-.7-.1l-123.74-52.48c-.19-.08-.41-.12-.63-.1-11.37,.74-6.47,9.72-5.45,11.39,.11,.17,.27,.31,.48,.4,6.88,2.93,124.62,53,127.2,54.09,.03,.01,.06,.02,.09,.03,2.24,.77,5.31,1.42,9.45,1.87,25.26,2.77,189.85-22.83,223.97-28.21,4.17-.66,7.77-2.92,9.59-6.06,6.36-10.98,16.54-37.78-17.24-60.69-1.06-.72-2.24-1.3-3.53-1.73-15.54-5.17-123.38-41.02-144.41-48.01-2.32-.77-4.88-1.01-7.41-.68-26.48,3.44-180.79,23.47-204.36,26.53-2.99,.39-5.83,1.51-7.97,3.3-3.76,3.15-6.34,8.73,6.72,16.09Z"/><path class="cls-5" d="M5850.17,1739.58s19.63,7.79,4.15,32.6c-.51,.82-2.1,1.86-3.09,1.45l-119.22-50.51c-.85-.35-1.22-1.16-.89-1.9,1.31-2.91,2.98-11.01-8.78-24.76-1.13-1.32,.71-3.06,2.54-2.39l125.29,45.51Z"/></g><g><path class="cls-5" d="M6077.53,1647.82c5.09,3.64,23.84,18.34,18.67,35.58-5.16,17.25-28.33,18.95-33.87,20.16-5.53,1.21-210.3,24.25-210.3,24.25,0,0-3.79-40.69-7.86-52.44-4.07-11.75,233.36-27.54,233.36-27.54Z"/><path class="cls-9" d="M5718.54,1635.95c20.57,11.6,129.91,48.27,129.92,48.28h0c4.23,1.56,5.98,2.18,9.28,1.72l217.05-29.81c5.8-.8,11.52,1.38,14.16,5.53,2.93,4.6,4.07,12.44-2.12,25.62-1.74,3.71-5.84,6.42-10.64,6.99l-216.32,25.62c-1.11,.13-2.68,.32-3.39,.4-.24,.03-.49,0-.7-.1l-123.74-52.48c-.19-.08-.41-.12-.63-.1-11.37,.74-6.47,9.72-5.45,11.39,.11,.17,.27,.31,.48,.4,6.88,2.93,124.62,53,127.2,54.09,.03,.01,.06,.02,.09,.03,2.24,.77,5.31,1.42,9.45,1.87,25.26,2.77,189.85-22.83,223.97-28.21,4.17-.66,7.77-2.92,9.59-6.06,6.36-10.98,16.54-37.78-17.24-60.69-1.06-.72-2.24-1.3-3.53-1.73-15.54-5.17-123.38-41.02-144.41-48.01-2.32-.77-4.88-1.01-7.41-.68-26.48,3.44-180.79,23.47-204.36,26.53-2.99,.39-5.83,1.51-7.97,3.3-3.76,3.15-6.34,8.73,6.72,16.09Z"/><path class="cls-5" d="M5852.78,1685.6s19.63,7.79,4.15,32.6c-.51,.82-2.1,1.86-3.09,1.45l-119.22-50.51c-.85-.35-1.22-1.16-.89-1.9,1.31-2.91,2.98-11.01-8.78-24.76-1.13-1.32,.71-3.06,2.54-2.39l125.29,45.51Z"/></g><g><path class="cls-5" d="M6012.88,1602.51c3.47,2.48,16.24,12.49,12.72,24.25-3.52,11.75-19.31,12.91-23.08,13.73-3.77,.82-143.29,16.52-143.29,16.52,0,0-2.58-27.73-5.35-35.73-2.78-8.01,158.99-18.77,158.99-18.77Z"/><path class="cls-22" d="M5768.29,1594.42c14.01,7.9,88.51,32.89,88.52,32.89h0c2.88,1.06,4.08,1.48,6.33,1.17l147.88-20.31c3.95-.54,7.85,.94,9.65,3.77,2,3.14,2.77,8.48-1.44,17.45-1.19,2.53-3.98,4.38-7.25,4.76l-147.38,17.45c-.75,.09-1.83,.22-2.31,.27-.17,.02-.33,0-.48-.07l-84.31-35.75c-.13-.06-.28-.08-.43-.07-7.75,.5-4.41,6.62-3.72,7.76,.07,.12,.18,.21,.33,.27,4.69,1.99,84.91,36.11,86.66,36.86,.02,0,.04,.02,.06,.02,1.52,.52,3.62,.96,6.44,1.27,17.21,1.88,129.35-15.56,152.6-19.22,2.84-.45,5.29-1.99,6.54-4.13,4.33-7.48,11.27-25.74-11.75-41.35-.72-.49-1.53-.89-2.4-1.18-10.59-3.52-84.06-27.95-98.39-32.71-1.58-.53-3.33-.69-5.05-.46-18.04,2.34-123.18,15.99-139.24,18.08-2.04,.26-3.97,1.03-5.43,2.25-2.56,2.15-4.32,5.95,4.58,10.96Z"/><path class="cls-5" d="M5859.75,1628.24s13.37,5.31,2.83,22.21c-.35,.56-1.43,1.27-2.1,.99l-81.23-34.41c-.58-.24-.83-.79-.6-1.3,.89-1.98,2.03-7.5-5.98-16.87-.77-.9,.49-2.08,1.73-1.63l85.36,31.01Z"/></g></g><path class="cls-6" d="M6157.48,2571.22l9.1,196.41s45.27,1.49,45.27,0,54.48-233.69,54.48-233.69l-108.86,37.28Z"/><path class="cls-6" d="M6832.28,2571.22l-9.1,196.41s-45.27,1.49-45.27,0c0-1.49-54.48-233.69-54.48-233.69l108.86,37.28Z"/><path class="cls-20" d="M7006,2013.5l-234.12,278.86s-65.75-11.62-153.54-27.72c-132.09-24.22-314.09-58.58-397.04-78.72-27.14-6.58-43.68-11.66-44.42-14.35-1.24-4.54-6.37-26.95-13.15-56.97-17.67-78.33-46.5-208.47-46.5-208.47,9.52-3.17,18.28-28.09,95.92-39.66,31.87-4.75,75.34-7.24,135.22-5.08,24.2,.88,50.29,1.52,77.5,1.99,19.77,.34,40.14,.58,60.79,.74h0c1.98,0,3.97,.03,5.96,.03,.83,0,1.65,.02,2.48,.02,190.5,1.24,402.04-4.28,402.04-4.28l108.86,153.6Z"/><path class="cls-20" d="M5985.99,2047.8c-33.46,12.87-50.7,16.4-47.72,101.4,2.98,85,52.19,298.25,87.98,356.41,3.36,5.47,6.69,10.67,9.95,15.61,29.33,44.42,78.24,72,131.42,74.32,151.68,6.61,495.94,19.46,652.7,7.69,47.08-3.54,90.52-26.81,119.29-64.24,28.47-37.05,60.1-90.59,66.39-151.18,11.93-114.83,34.42-303.65,16.4-323.6-28.68-31.77-101.12-40.84-148.84,85.92-47.72,126.76-46.52,279.44-116.61,276.45-70.09-2.98-433.05-176.29-444.98-247.87-11.93-71.58-191.94-129.87-209.83-146.27-17.89-16.4-96.78,7.91-116.16,15.37Z"/><path class="cls-25" d="M5938.27,2322.19c-1.77,8.85-7.35,22.57-14.88,38.1-17.81,36.8-46.5,83.79-61.18,100.58-20.88,23.86-17.89,64.12-17.89,64.12,0,0-143.16-25.34-96.94-58.15,30.81-21.87,51.03-97.38,61.09-146.21,5.02-24.44,7.51-42.19,7.51-43.19,0,0,128.24,14.92,122.28,44.75Z"/><path class="cls-20" d="M6786.79,2425.08c-38.77,32.81-313.16,17.89-457.82,14.91-144.64-2.98-155.08-38.77-174.47-61.14-19.38-22.37-19.25-58.85-13.42-87.98,1.47-7.37,6.29-20.74,13.49-33.47,4.51-7.98,9.95-15.7,16.08-21.54,3.9-3.7,8.08-6.64,12.48-8.4,2.42-.97,10.33-1.65,22.65-2.08,26.83-.91,74.56-.62,131.71,.56,100.75,2.08,230.81,6.9,327.46,12.65,.91,.05,1.83,.11,2.74,.17,54.47,3.28,97.99,6.84,119.11,10.36,89.47,14.91,38.77,143.16,0,175.97Z"/><path class="cls-21" d="M6664.94,2238.59l-15.34,42.98s-39.21,37.46-173.93,37.46c-18.66,0-45.34-.3-76.9-3.56-82.47-11.48-156.83-36.71-216.87-72.64-6.04-3.61-5.43-12.67,1.09-15.32,.04-.02,.09-.04,.13-.05,2.42-.97,10.33-1.65,22.65-2.08,26.83-.91,74.56-.62,131.71,.56,100.75,2.08,230.81,6.9,327.46,12.65Z"/><path class="cls-26" d="M5938.27,2322.19c-1.77,8.85-7.35,22.57-14.88,38.1l-114.91-39.66c5.02-24.44,7.51-42.19,7.51-43.19,0,0,128.24,14.92,122.28,44.75Z"/><path class="cls-5" d="M6150.04,2025.46c-56.67-20.88-195.38-88.5-222.22-52.71-26.84,35.79-147.63,331.06-147.63,331.06l168.51,58.16,133.43-230.28,67.91-106.22Z"/><path class="cls-25" d="M6970.21,1807.71c20.3,38.56-100.13,110.81-100.13,110.81l-52.24-67.04s36.59-54.15,24.07-87.52c-2.09-5.57-5.55-10.56-10.78-14.63-36.53-28.42,142.08-56.84,142.08-56.84,0,4.12-.96,9.72-2.32,16.35-5.35,26.07-16.87,68.11-.69,98.86Z"/><path class="cls-25" d="M5851.13,2160s-9.3,5.33-22.11,12.8c-24.87,14.49-62.99,36.99-71.84,43.87-13.43,10.44-50.7,34.31-50.7,34.31h-29.83l-11.93-68.6s73.51-79.25,97.54-104.7c3.36-3.55,5.75-6.05,6.84-7.14l82.02,89.47Z"/><path class="cls-6" d="M5748.66,2472.12c0-.87,4.35-20.03,7.84-22.64,3.48-2.61-.87-14.8,1.74-18.28,2.61-3.48,10.11-12.72,14.8-17.41,9.58-9.58,86.2,44.4,100.13,39.18,13.93-5.22-7.84,23.51-11.32,24.38-3.48,.87-6.97,.87-6.09,7.84,.87,6.97-4.71,15.32-7.58,19.85-2.87,4.53-22.89,12.37-38.57,7.14-15.67-5.22-60.95-40.05-60.95-40.05Z"/><path class="cls-6" d="M5665.67,2180.33c.25-.76,9.53-16.33,13.33-17.62,3.8-1.3-11.11,11.34-7.83,9.03,3.28-2.31,27.07-32.85,32.52-35.63,11.13-5.67,62.96,63.53,76.67,62.92,13.71-.61-13.58,18.39-16.88,18.16-3.3-.23-6.36-1.22-7.58,5.14-1.22,6.36-8.5,12.1-12.31,15.25-3.81,3.16-23.61,4.32-35.87-4.73s-42.05-52.51-42.05-52.51Z"/><path class="cls-27" d="M5563.32,2160c25.46,7.07,34.3,11.93,58.16,10.44,23.86-1.49,49.21-10.44,56.67-10.44s4.48,35.87,10.44,44.82c5.96,8.95,33.92,37.02,54.85,32.21,20.93-4.81-32.49,89.98-74.24,57.18-41.75-32.81-40.26-41.75-59.65-47.72-19.39-5.96-59.65-37.28-67.11-55.18-7.46-17.89-5.96-38.77,20.88-31.32Z"/><path class="cls-27" d="M5738.21,2458.34c4.51-9.53,67.19,39.49,87.94,41.79,13.14,1.46,22.2,2.92,27.64,3.92,3.82,.7,6.7,3.84,7.07,7.7,1.98,20.73,4.34,84.58-41.89,83.33-55.18-1.49-83.51-11.93-129.74,2.98-46.23,14.91-111.84,10.44-128.25,1.49-16.4-8.95-30.15-27.98-11.71-34.13,18.28-6.09,175.51-78.76,188.94-107.09Z"/><path class="cls-26" d="M6973.22,1692.49c0,4.12-.96,9.72-2.32,16.35-9.6,8.47-19.55,18.84-22.45,27.56-6.09,18.27-34.84,31.34-53.11,31.34-9.34,0-32.4-1.48-53.42-3.79-2.09-5.57-5.55-10.56-10.78-14.63-36.53-28.42,142.08-56.84,142.08-56.84Z"/><path class="cls-25" d="M6987.19,1682.13s-25.15,17.37-37.4,33.7c-2.61,3.48-4.63,6.91-5.7,10.12-6.09,18.27-34.84,31.34-53.11,31.34s-88.91-5.67-94.35-12.02c-7.08-8.29-14.21-60.89-20.3-75.1-6.09-14.21,2.03-32.48,4.06-38.57,2.03-6.09-6.09-20.3-4.06-32.48,.96-5.76,5.55-19.7,10.13-32.8,5.09-14.58,10.16-28.09,10.16-28.09l190.56,143.9Z"/><path class="cls-26" d="M6987.19,1682.13s-25.15,17.37-37.4,33.7c-11.08-6.93-22.6-15.15-27.47-21.23-8.12-10.15-6.1-38.47-12.19-60.8-6.09-22.32-31.99-23.96-36.05-17.87-4.06,6.09-12.18,20.3-12.18,30.45s9.84,33.75,10.14,34.49c-.42-.49-10.4-12.46-22.32-26.37-12.18-14.2,2.41-37.94,0-46.69-14.48-52.36-58.31-27.41-62.37-37.56-.45-1.13-.75-2.46-.91-3.93,5.09-14.58,10.16-28.09,10.16-28.09l190.56,143.9Z"/><path class="cls-23" d="M7026,1623.48c-10.15,14.21,4.06,52.77-10.15,69.01-14.21,16.24-37.8,44.06-49.99,37.96-12.18-6.09-38.89-22.21-47.02-32.36-8.12-10.15-6.1-38.47-12.19-60.8-6.09-22.32-31.99-23.96-36.05-17.87-4.06,6.09-12.18,20.3-12.18,30.45s9.84,33.75,10.14,34.49c-.42-.49-10.4-12.46-22.32-26.37-12.18-14.2,2.41-37.94,0-46.69-14.48-52.36-58.31-27.41-62.37-37.56-4.06-10.14,4.62-35.5,8.68-43.62,4.06-8.12,26.39-30.45,32.48-40.6,5.47-9.11,25.68-10.04,45.92-13.08,2.29-.34,4.58-.71,6.85-1.12,0,0,103.52,32.48,109.61,34.5,.24,.08,.51,.18,.78,.31,6.61,3.01,21.96,18.52,31.69,32.16,10.15,14.21,8.12,40.59,8.12,46.69s8.11,20.3-2.03,34.5Z"/><path class="cls-24" d="M6988.21,1510.13c-.91,2.78-2.12,5.29-3.69,7.39-6.55,8.75-44.81,1.52-78.69-10.56-33.88-12.08-35.44-20.3-34.87-30.44,0-.03,0-.06,0-.09,2.29-.34,4.58-.71,6.85-1.12,0,0,103.52,32.48,109.61,34.5,.24,.08,.51,.18,.78,.31Z"/><path class="cls-10" d="M6824.07,1831.57c-16.25,24.38-40.26,11.93-44.74,23.86-4.47,11.93-29.82,2.98-38.77,19.39-8.95,16.4-212.91,216.64-212.91,216.64,0,0,71.58,53.68,73.07,52.19,1.49-1.49,239.76-246.46,239.76-246.46l47.03-98.96-55.72,3.48s-1.74,20.92-7.71,29.87Z"/><path class="cls-26" d="M5851.13,2160s-9.3,5.33-22.11,12.8l-66.76-95.13c3.36-3.55,5.75-6.05,6.84-7.14l82.02,89.47Z"/><path class="cls-23" d="M6966.07,1403.74c-17.76-4.28-54.83-1.07-66.11,18.62-11.28,19.69-5.43,24.09-9.6,25.89-4.17,1.8-12.73,9.44-13.31,19.58-.57,10.13,.99,18.35,34.87,30.44,33.88,12.08,72.14,19.31,78.69,10.56,8.71-11.65,6.53-36.45,1.89-45.17-3.44-6.46,5.03-5.26,3.58-15.51-1.45-10.25-7.95-39.08-30.01-44.39Z"/><path class="cls-7" d="M5853.28,2481.53s-17.36-6.2-17.36-8.68c0-4.47,17.36,8.68,17.36,8.68Z"/><path class="cls-25" d="M6704.45,2137.37c-3.96,3.61-8.83,7.4-14.77,11.4-21.92,14.75-59.49-16.54-86.87-46.88-10.24-11.36-19.05-22.59-25.07-31.22-1.08-1.53-2.07-3-2.95-4.34-6.65-10.15-20.53-25.02-36.26-40.45-32.59-31.99-73.02-66.41-73.02-66.41-15.93-11.6-35.64-51.41-36.76-55.74-1.12-4.33-5.84,23.47-8.06,26.27-2.23,2.78,.65-9.24-4.37-14.41-5.04-5.17-13.01-16.02-13.01-10.31s-3.07,16.9-6.4,15.38c-3.37-1.55-4.25-2.2-6.29-10.76-.95-3.89-1.55-25.3-4.34-27.53-2.8-2.23-7.95,14.26-8.8,18.17-.82,3.92,1.41,24.02-5.44,25.43-6.84,1.39-8.95-11.74-10.21-17.32-1.25-5.59,5.54-25.95,2.47-24.96-3.07,.97-9.46,13.64-10.99,22.73-1.53,9.07-5.31,15.22-10.05,12.58-4.76-2.67-1.08-17.92-.06-23.21,1.01-5.3,14.57-29.33,12.62-29.75-1.97-.43-30.47-4.88-31.17-11.17-.7-6.29,7.54-6.57,12.71-5.88,5.17,.7,28.92,2.51,35.21,1.8,6.29-.7,12.42,3.08,24.88,6.15,12.44,3.08,33.95-3.78,41.08,3.07,7.11,6.84,45.71,50.28,56.47,55.45,10.75,5.17,19.14,11.87,31.17,22.63,6.72,6.02,43.55,34.32,77.15,59.86,20.42,15.5,39.64,29.99,50.19,37.84h.01c3.15,2.34,5.52,4.09,6.93,5.1,13.84,9.91,37.55,30.41,45.25,42.28,6.79,10.48,28.61,27.03-1.24,54.22Z"/><path class="cls-7" d="M5741.52,2205.01s15.85,9.4,15.38,11.84c-.85,4.39-15.38-11.84-15.38-11.84Z"/><path class="cls-2" d="M6441.32,1923.52c-1.42,5.33-4.47,10.07-8.92,13.15-.23,.17-.47,.33-.71,.48l-39.14,24.85s-.02-.02-.03-.02c-5.65-1.72-13.45-3.61-21.18-5.33-11.2-2.51-22.25-4.62-26.46-5.28-7.13-1.12-12.02-10.76-7.26-13.83,4.74-3.08,43.17-1,55.59,2.08,10.43,2.57,7.4-19.28,6.14-26.43-.24-1.39-.42-2.22-.42-2.22l7.94-6.99,11.05-9.72,4.21-3.7,9.36,16.09h.02s9.81,16.86,9.81,16.86Z"/><path class="cls-25" d="M6441.32,1923.52c-1.42,5.33-4.47,10.07-8.92,13.15-2.82-4.53-5.43-9.09-7.68-13.24-4.54-8.33-7.62-15.05-8.05-16.68-1.13-4.33-5.84,23.46-8.08,26.26-2.22,2.78,.66-9.25-4.36-14.42-1.46-1.51-3.18-3.49-4.88-5.4-4.14-4.68-8.14-8.95-8.14-4.91,0,5.74-3.06,16.89-6.4,15.38-3.37-1.55-4.24-2.2-6.29-10.76-.95-3.89-1.54-25.3-4.35-27.53-2.79-2.23-7.94,14.25-8.8,18.17-.81,3.91,1.4,24.02-5.43,25.43-6.84,1.39-8.95-11.74-10.2-17.33-1.25-5.6,5.52-25.95,2.46-24.97-3.06,.97-9.45,13.65-10.99,22.73-1.52,9.07-5.31,15.23-10.05,12.59-4.75-2.67-1.07-17.92-.05-23.22,1-5.3,14.57-29.34,12.62-29.75-1.98-.42-30.48-4.88-31.17-11.17-.69-6.29,7.55-6.58,12.71-5.89,5.16,.71,28.92,2.52,35.22,1.81,6.28-.69,12.42,3.08,24.88,6.14,7.35,1.81,17.86,.17,26.69-.06,2.38-.08,4.63-.05,6.67,.18l21.07,45.18c2.72,5.84,3.12,12.41,1.52,18.28Z"/><path class="cls-5" d="M6817.02,1850.95s12.4,15.76,27.89,20.48c15.49,4.73-175.99,313.89-175.99,313.89,0,0-56.38,7.65-101.13-51.32-4.59-6.05,12.18-93.98,35.42-97.13,23.24-3.15,44.93-1.58,46.48-9.45,1.55-7.88,7.75-66.17,20.14-74.05,12.4-7.88,147.19-102.41,147.19-102.41Z"/><path class="cls-25" d="M6662.94,2128.07s-98.08-67.03-107.14-74.48c-9.05-7.45-82.99-41.71-95.07-44.69-12.07-2.98-45.27-10.43-58.85-10.43s-61.87,2.98-61.87,2.98l36.22,35.75s105.63,28.3,116.19,40.22c10.56,11.92,43.76,22.34,69.41,53.62,25.65,31.28,79.98,78.95,79.98,78.95l21.13-81.93Z"/><path class="cls-25" d="M6484.22,1973.53l-37.7-94.44-4.7,3.04-12.36,8-8.87,5.74s1.99,32.36-9.87,27.5c-11.85-4.87-49.55-12.58-54.7-10.23-5.15,2.34-1.73,12.6,5.15,14.75,6.89,2.15,32.51,11.31,45.57,17.49,1.33,.62,2.73,1.32,4.17,2.04,1.42,.71,2.88,1.47,4.37,2.25-10.37-5.43,7.98,6.17,34.32,18.18,10.58,4.82,34.61,5.69,34.61,5.69Z"/><g><path class="cls-1" d="M6311.29,1734.35s-8.66,66.13-15.29,80.97c0,0,27.97-57.81,28.51-71.38,.54-13.57-12.74-21.65-13.22-9.59Z"/><path class="cls-1" d="M6319.07,1771.88s-13.79,53.16-20.72,64.62c0,0,28.73-44.4,30.55-55.44,1.82-11.04-8.21-18.99-9.83-9.18Z"/><path class="cls-9" d="M6334.76,1696.1l-12.06-19.34c-4.63-7.43-14.75-9.07-21.5-3.49l-110.64,91.51,101.63,69.39,42.57-138.07Z"/><polygon class="cls-5" points="6369.36 1805.27 6190.88 1764.85 6190.56 1764.78 6332.5 1678.85 6345.25 1722.6 6369.36 1805.27"/><polygon class="cls-20" points="6369.36 1805.27 6190.88 1764.85 6345.25 1722.6 6369.36 1805.27"/><path class="cls-9" d="M6419.3,1973.48l-24.41,3.94-17.61,2.84-3.65,.59-61.21,9.85-47.34,7.63-74.51-233.54,131.3-26.83,26.31-5.38,14.19-2.9c12.25-2.51,24.27,5.11,27.25,17.25l48.6,198.04c3.24,13.2-5.49,26.35-18.9,28.51Z"/></g><path class="cls-5" d="M6686.88,2164.11l-37.28,104.4s-39.2,37.47-173.92,37.47c-36.57,0-103.93-1.15-178.5-23.52-74.55-22.36-226.75-265.59-244.66-280.51-17.89-14.9-185.83,212.87-185.83,212.87l-119.29-170s271.4-183.43,319.12-205.8c28.98-13.57,71.85,7.85,116.08,37.78,28.59,19.35,57.77,42.28,84.12,61.6,15.08,11.05,40.44,26.66,70.72,44.2,104.49,60.55,267.42,144.23,267.42,144.23l82.02,37.28Z"/><path class="cls-20" d="M5877.52,2143.88c-40.52,5.79,163.69-102.74,181.1-110.58,17.41-7.84-126.25,102.74-181.1,110.58Z"/><path class="cls-10" d="M6993.33,1805.47c-32.81,0-64.03-2.03-97.12,2.33-32.29,4.25-54.85,13.06-54.85,13.06,0,0,19.25,24.88-1.63,41.28-20.88,16.4-93.2,85.75-114.08,130.48-20.88,44.74-52.79,80.98-58.16,95.44-14.36,38.68-32.81,164.04-47.72,177.46-14.91,13.42-40.49,73.39-38.77,85,.97,6.6,55.18,1.49,73.07-10.44,17.89-11.93,64.54-13.12,85.42-22.07,20.88-8.95,40.64,21.28,61.82,9.58,37.94-20.96,43.64-33.73,43.64-33.73,0,0,65.61-152.11,70.09-168.51,4.47-16.4,55.18-53.68,77.54-82.02,22.37-28.33,31.32-37.28,32.81-50.7,1.49-13.42,16.4-83.51-11.93-119.3-28.33-35.79-32.81-35.79-32.81-35.79l12.68-32.06Z"/><path class="cls-11" d="M6926.68,2033.3c1.43-22.81-74.01,107.09-80.97,125.38-6.97,18.28,80.1-111.45,80.97-125.38Z"/><path class="cls-30" d="M6264.83,1108.24l-424.75,982.53c97.1,40.66,812.86,192.75,1167.57,6.97l-457.14-989.08-285.68-.41Z"/><g><rect class="cls-13" x="6402.15" y="768.72" width="14.8" height="368.49"/><rect class="cls-28" x="6395.29" y="942.09" width="28.52" height="36.83"/><path class="cls-14" d="M6416.95,768.72v20.4c-1.79,.2-3.63,.33-5.53,.4-3.25,.1-6.34-.02-9.27-.37v-20.42h14.8Z"/><path class="cls-28" d="M6345.38,701.17s3.75,84.29,66.04,82.3c62.29-1.99,62.29-82.3,62.29-82.3h-128.34Z"/><circle class="cls-6" cx="6409.55" cy="1137.22" r="162.11"/><path class="cls-29" d="M6423.81,965.83v13.08h-28.52v-13.76c9.92-.88,19.48-.53,28.52,.68Z"/><path class="cls-13" d="M6315.76,1004.97h187.57s-92.98-81.96-187.57,0Z"/></g></g><g><g><path class="cls-6" d="M2904.41,1580.68h26.51c43.62,0,75.66,10.08,96.1,30.24,20.43,20.17,30.65,49.85,30.65,89.06,0,22.65-6.63,44.32-19.88,65.03-13.25,20.71-29.28,34.66-48.05,41.84,47.49,7.74,84.22,27.62,110.18,59.65,25.95,32.04,38.94,74.01,38.94,125.92,0,41.42-9.11,78.02-27.34,109.77-18.23,31.77-43.22,56.33-74.97,73.73-31.76,17.4-66.97,26.1-105.62,26.1h-26.51v-621.32Zm33.14,218.71c26.51,0,48.88-9.66,67.1-29,18.23-19.33,27.34-43.08,27.34-71.24,0-31.48-7.6-55.22-22.78-71.25-15.2-16.01-39.08-24.02-71.66-24.02h-6.63v195.51h6.63Zm0,379.42c32.58,0,62.13-7.87,88.64-23.61,26.51-15.74,47.49-37.69,62.96-65.86,15.46-28.17,23.2-59.92,23.2-95.27,0-56.88-15.05-99.83-45.15-128.82-30.11-29-73.32-43.49-129.65-43.49h-6.63v357.05h6.63Z"/><path class="cls-22" d="M3381.58,2173c-49.71-30.37-89.06-70.83-118.05-121.37-29-50.53-43.49-104.8-43.49-162.79s14.63-111.14,43.91-161.13c29.27-49.98,68.76-89.74,118.47-119.29,49.71-29.54,103.55-44.32,161.54-44.32s112.38,14.64,161.54,43.91c49.15,29.28,88.23,68.9,117.22,118.88,29,49.99,43.49,103.97,43.49,161.96s-14.5,114.74-43.49,165.27c-29,50.53-68.22,90.58-117.64,120.12-49.43,29.54-103.42,44.32-161.96,44.32s-111.84-15.2-161.54-45.56Zm309-19.47c45.28-27.34,81.32-64.33,108.11-111.01,26.78-46.66,40.18-97.34,40.18-152.02s-13.25-104.38-39.77-150.77c-26.51-46.39-62.42-83.26-107.7-110.6-45.29-27.34-94.44-41.01-147.46-41.01s-103.01,13.67-148.29,41.01c-45.29,27.34-81.33,64.2-108.11,110.6-26.79,46.39-40.18,96.65-40.18,150.77s13.38,105.35,40.18,152.02c26.78,46.68,62.82,83.67,108.11,111.01,45.28,27.34,94.44,41.01,147.46,41.01s102.17-13.67,147.46-41.01Z"/><path class="cls-9" d="M4105.62,2173c-49.71-30.37-89.06-70.83-118.05-121.37-29-50.53-43.49-104.8-43.49-162.79s14.63-111.14,43.91-161.13c29.27-49.98,68.76-89.74,118.47-119.29,49.71-29.54,103.55-44.32,161.54-44.32s112.38,14.64,161.54,43.91c49.15,29.28,88.23,68.9,117.22,118.88,29,49.99,43.49,103.97,43.49,161.96s-14.5,114.74-43.49,165.27c-29,50.53-68.22,90.58-117.64,120.12-49.43,29.54-103.42,44.32-161.96,44.32s-111.84-15.2-161.54-45.56Zm309-19.47c45.28-27.34,81.32-64.33,108.11-111.01,26.78-46.66,40.18-97.34,40.18-152.02s-13.25-104.38-39.77-150.77c-26.51-46.39-62.42-83.26-107.7-110.6-45.29-27.34-94.44-41.01-147.46-41.01s-103.01,13.67-148.29,41.01c-45.29,27.34-81.33,64.2-108.11,110.6-26.79,46.39-40.18,96.65-40.18,150.77s13.38,105.35,40.18,152.02c26.78,46.68,62.82,83.67,108.11,111.01,45.28,27.34,94.44,41.01,147.46,41.01s102.17-13.67,147.46-41.01Z"/><path class="cls-10" d="M5059.14,2202l-328.89-345.45v345.45h-27.34v-621.32h27.34v225.33l259.3-225.33h38.94l-290.78,248.53,357.88,372.79h-36.45Z"/></g><g><path d="M3840.45,1070.26h-5.46l-22.15-44.61h-62.07l-21.68,44.61h-5.46l58.33-119.78,58.49,119.78Zm-29.48-49.13l-29.32-59.42-28.7,59.42h58.02Z"/><path d="M3855.27,1000.08h4.99v17.16c2.81-5.61,7.17-10.16,13.1-13.65,5.93-3.48,12.16-5.22,18.72-5.22s12.97,1.66,18.64,4.99c5.67,3.33,10.16,7.8,13.49,13.41,3.33,5.61,4.99,11.75,4.99,18.4s-1.66,12.79-4.99,18.4c-3.33,5.61-7.82,10.09-13.49,13.41-5.67,3.33-11.88,4.99-18.64,4.99-6.34,0-12.45-1.72-18.33-5.15-5.88-3.43-10.37-7.95-13.49-13.57v48.19h-4.99v-101.38Zm53.03,63.09c4.89-2.96,8.76-6.91,11.62-11.85,2.86-4.94,4.29-10.32,4.29-16.14s-1.46-11.07-4.37-16.06c-2.91-4.99-6.81-8.97-11.7-11.93-4.89-2.96-10.19-4.45-15.91-4.45s-11.05,1.51-15.99,4.52c-4.94,3.02-8.89,7.02-11.85,12.01-2.96,4.99-4.44,10.35-4.44,16.06s1.48,11.05,4.44,15.99c2.96,4.94,6.94,8.89,11.93,11.85,4.99,2.96,10.34,4.45,16.06,4.45s11.02-1.48,15.91-4.45Z"/><path d="M3943.23,1000.08h4.99v16.22c2.08-5.09,5.12-9.1,9.12-12.01,4-2.91,8.55-4.37,13.65-4.37,3.22,0,6.5,.68,9.83,2.03v5.77c-3.02-2.29-6.39-3.43-10.14-3.43s-7.36,1.15-10.84,3.43c-3.48,2.29-6.29,5.36-8.42,9.2-2.13,3.85-3.2,7.95-3.2,12.32v41.02h-4.99v-70.18Z"/><path d="M3995.4,982.45c-1.09-1.04-1.64-2.34-1.64-3.9,0-1.45,.55-2.7,1.64-3.74,1.09-1.04,2.36-1.56,3.82-1.56s2.73,.52,3.82,1.56c1.09,1.04,1.64,2.29,1.64,3.74,0,1.56-.55,2.86-1.64,3.9-1.09,1.04-2.37,1.56-3.82,1.56s-2.73-.52-3.82-1.56Zm1.33,17.62h4.99v70.18h-4.99v-70.18Z"/><path d="M4038.21,1068.31c-4.06-2.23-7.28-5.38-9.67-9.44-2.39-4.05-3.59-8.58-3.59-13.57v-92.02h4.99v92.02c0,4.16,.96,7.9,2.89,11.23,1.92,3.33,4.55,5.95,7.88,7.88,3.33,1.93,6.96,2.89,10.92,2.89v4.37c-4.89,0-9.36-1.12-13.41-3.35Z"/><path d="M4152.22,1035.79c9.15-5.72,15.88-11.78,20.2-18.17,4.31-6.39,6.47-13.8,6.47-22.22,0-7.07-1.56-13.57-4.68-19.5s-7.51-10.66-13.18-14.19c-5.67-3.53-12.14-5.3-19.42-5.3s-14.11,1.87-20.2,5.61-10.89,8.79-14.43,15.13c-3.54,6.34-5.3,13.36-5.3,21.05h-5.15c0-8.63,1.97-16.48,5.93-23.55,3.95-7.07,9.36-12.63,16.22-16.69,6.86-4.05,14.5-6.08,22.93-6.08s15.54,1.98,21.99,5.93c6.45,3.95,11.46,9.26,15.05,15.91,3.59,6.66,5.38,13.93,5.38,21.83,0,16.95-9.2,31.3-27.61,43.05l-42.42,27.14h69.56v4.52h-85.78l54.43-34.47Z"/><path d="M4215.61,1066.75c-6.08-3.38-10.84-7.93-14.27-13.65-3.43-5.72-5.15-12.01-5.15-18.87v-3.28h4.83v2.5c0,6.24,1.45,11.96,4.37,17.16,2.91,5.2,7.04,9.31,12.4,12.32,5.35,3.02,11.41,4.52,18.17,4.52s12.97-1.38,18.33-4.13c5.35-2.75,9.51-6.57,12.48-11.46,2.96-4.89,4.44-10.4,4.44-16.53,0-9.05-2.08-16.61-6.24-22.69-4.16-6.08-10.4-10.22-18.72-12.4,4.37-2.7,7.64-6,9.83-9.9,2.18-3.9,3.28-7.98,3.28-12.24,0-3.95-.91-7.62-2.73-11-1.82-3.38-4.44-6.08-7.88-8.11-3.43-2.03-7.43-3.04-12.01-3.04s-9.05,1.09-12.79,3.28c-3.74,2.18-6.68,5.15-8.81,8.89-2.13,3.74-3.3,7.9-3.51,12.48h-4.99c.21-5.41,1.56-10.32,4.06-14.74,2.5-4.42,6-7.9,10.53-10.45,4.52-2.55,9.69-3.82,15.52-3.82,5.51,0,10.34,1.25,14.5,3.74,4.16,2.5,7.38,5.8,9.67,9.9,2.29,4.11,3.43,8.4,3.43,12.87,0,4.05-.88,7.9-2.65,11.54-1.77,3.64-4.42,6.76-7.95,9.36,7.49,2.91,13.13,7.49,16.92,13.72,3.79,6.24,5.69,14.04,5.69,23.39,0,6.55-1.72,12.56-5.15,18.01-3.43,5.46-8.21,9.77-14.35,12.94-6.14,3.17-13.05,4.76-20.74,4.76s-14.43-1.69-20.51-5.07Z"/></g><g><g><path d="M3677.32,1531.79l-75.63-175.67-76.59,175.67-157.48-365.22h16.75l141.21,326.45,67.97-156.05-73.71-170.41h16.27l67.01,154.61,67.49-154.61h14.84l-74.67,172.32,67.49,155.57,141.69-327.89h16.75l-159.4,365.22Z"/><path d="M3865.44,1517.19c-17.55-10.69-31.28-24.89-41.17-42.6-9.9-17.71-14.84-36.93-14.84-57.68s5.03-39.41,15.08-56.96c10.05-17.55,23.77-31.51,41.17-41.88,17.39-10.37,36.78-15.56,58.16-15.56s40.28,5.19,57.68,15.56c17.39,10.37,31.03,24.34,40.93,41.88,9.89,17.55,14.84,36.54,14.84,56.96s-4.79,40.93-14.36,58.64c-9.57,17.71-22.9,31.76-39.97,42.12-17.07,10.37-36.62,15.56-58.64,15.56s-41.33-5.35-58.88-16.04Zm108.66-11.25c15-9.25,26.72-21.61,35.18-37.1,8.45-15.47,12.68-32.47,12.68-50.98s-4.31-35.1-12.92-50.74c-8.62-15.63-20.43-28.08-35.42-37.34-15-9.25-31.59-13.88-49.78-13.88s-34.87,4.71-50.02,14.12c-15.16,9.42-27.13,21.94-35.9,37.58-8.78,15.64-13.16,32.55-13.16,50.74s4.38,35.03,13.16,50.5c8.77,15.48,20.74,27.84,35.9,37.1,15.15,9.26,31.99,13.88,50.5,13.88s34.78-4.62,49.78-13.88Z"/><path d="M4080.36,1310.17h15.32v49.78c6.38-15.63,15.71-27.92,28-36.86,12.28-8.93,26.24-13.4,41.88-13.4,9.89,0,19.94,2.08,30.16,6.22v17.71c-9.26-7.02-19.63-10.53-31.11-10.53s-22.58,3.52-33.27,10.53c-10.7,7.02-19.31,16.44-25.85,28.24-6.54,11.81-9.81,24.41-9.81,37.81v125.89h-15.32v-215.4Z"/><path d="M4274.22,1519.58c-12.45-6.86-22.34-16.51-29.68-28.96-7.34-12.45-11.01-26.33-11.01-41.64v-282.41h15.32v282.41c0,12.77,2.95,24.25,8.86,34.46,5.9,10.22,13.96,18.27,24.17,24.17,10.21,5.91,21.38,8.86,33.51,8.86v13.4c-15,0-28.72-3.43-41.17-10.29Z"/><path d="M4394.6,1515.51c-17.4-10.21-31.2-23.93-41.4-41.17-10.22-17.23-15.32-36.06-15.32-56.48s5.1-39.25,15.32-56.48c10.21-17.23,24.01-30.95,41.4-41.17,17.39-10.21,36.45-15.32,57.2-15.32s39.25,5.35,57.44,16.04c18.19,10.7,31.59,24.65,40.21,41.88v-196.25h15.32v359h-15.32v-52.17c-9.57,17.23-23.38,31.11-41.4,41.64-18.03,10.53-36.78,15.8-56.24,15.8-20.75,0-39.81-5.11-57.2-15.32Zm105.79-11.73c15.15-9.09,27.28-21.22,36.38-36.38,9.09-15.15,13.64-31.51,13.64-49.06s-4.55-33.99-13.64-49.3c-9.09-15.32-21.23-27.6-36.38-36.86-15.16-9.25-31.52-13.88-49.06-13.88s-33.83,4.55-48.82,13.64c-15,9.09-26.97,21.3-35.9,36.62-8.94,15.32-13.4,31.76-13.4,49.3s4.38,34.39,13.16,49.54c8.77,15.16,20.74,27.28,35.9,36.38,15.15,9.09,31.51,13.64,49.06,13.64s33.9-4.55,49.06-13.64Z"/></g><rect x="4626.72" y="1347.71" width="469.46" height="4.38"/><rect x="2903.82" y="1347.71" width="469.46" height="4.38"/></g><g><g><path d="M3579.96,2073.57h18.27c68.15,0,120.78,18.56,157.9,55.68,37.12,37.12,55.68,89.95,55.68,158.47,0,39.22-9.52,75.2-28.55,107.93-19.04,32.75-44.83,58.63-77.38,77.67-32.55,19.04-68.44,28.55-107.65,28.55h-18.27v-428.31Zm22.84,410.61c35.02,0,67-8.66,95.94-25.98,28.93-17.32,51.87-41.02,68.82-71.1,16.94-30.07,25.41-63.19,25.41-99.37,0-63.19-16.47-111.83-49.4-145.91-32.94-34.07-79.86-51.11-140.77-51.11h-4.57v393.47h4.57Z"/><path d="M3927.75,2489.88c-20.94-12.18-37.5-28.64-49.68-49.4-12.19-20.75-18.27-43.12-18.27-67.1s6.09-46.35,18.27-67.1c12.18-20.75,28.74-37.21,49.68-49.4,20.93-12.18,43.59-18.27,67.96-18.27s48.16,6.57,70.24,19.7c22.08,13.14,37.49,30.18,46.26,51.11v-64.53h18.27v256.99h-18.27v-63.96c-10.28,21.33-26.18,38.36-47.69,51.11-21.51,12.76-44.46,19.13-68.82,19.13s-47.02-6.09-67.96-18.27Zm127.35-13.99c17.89-10.85,32.07-25.31,42.54-43.4,10.47-18.08,15.7-37.78,15.7-59.11s-5.33-40.55-15.99-58.82c-10.66-18.27-24.94-32.84-42.83-43.69-17.9-10.85-37.32-16.28-58.25-16.28s-40.46,5.52-58.54,16.56c-18.09,11.05-32.55,25.7-43.4,43.97-10.85,18.27-16.28,37.89-16.28,58.82s5.42,40.46,16.28,58.54c10.85,18.09,25.41,32.55,43.69,43.4,18.27,10.85,37.88,16.28,58.82,16.28s40.35-5.43,58.25-16.28Z"/><path d="M4207.57,2569.83v-29.12c12.56,19.79,26.84,34.55,42.83,44.26,15.99,9.71,34.64,14.56,55.97,14.56s40.26-4.57,55.68-13.71c15.42-9.14,27.13-21.61,35.12-37.41,7.99-15.8,11.99-33.41,11.99-52.82v-43.4c-9.14,17.9-22.94,31.69-41.4,41.4-18.47,9.71-38.55,14.56-60.25,14.56s-40.93-4.76-57.68-14.28c-16.76-9.51-29.79-22.84-39.12-39.98-9.33-17.13-13.99-36.92-13.99-59.39v-149.62h18.27v149.62c0,20.56,4.28,38.17,12.85,52.82,8.57,14.66,19.89,25.8,33.98,33.41,14.08,7.62,29.5,11.42,46.26,11.42,18.27,0,35.21-4.47,50.83-13.42,15.61-8.94,27.88-20.93,36.84-35.98,8.94-15.04,13.42-31.12,13.42-48.26v-149.62h18.27v248.99c0,22.84-4.67,43.49-13.99,61.96-9.33,18.46-22.94,33.02-40.83,43.69-17.9,10.65-39.22,15.99-63.96,15.99-42.64,0-76.34-15.23-101.08-45.69Z"/></g><rect x="4563.06" y="2371.81" width="532.94" height="4.63"/><rect x="2904" y="2372.58" width="532.94" height="4.63"/></g></g><g><ellipse class="cls-8" cx="1467.48" cy="2657.07" rx="798.84" ry="218.09"/><polygon class="cls-27" points="1401.23 2491.67 1401.23 2777.24 1424.54 2777.24 1424.54 2474.18 1401.23 2491.67"/><path class="cls-16" d="M1673.76,2061.85c-8.74,8.74-431.25,46.63-460.4,40.8-29.14-5.83-116.56-323.44-119.47-340.93-8.2-49.21-11.66-78.69,5.83-81.6,7.02-1.17,83.84-6.8,174.12-12.84,134.7-9.01,299.33-18.93,306.68-16.3,24.89,8.97,63.39,193.47,82.49,312.2,8.85,55.01,13.52,95.9,10.76,98.67Z"/><rect class="cls-27" x="1651.91" y="2442.13" width="23.31" height="84.51"/><polygon class="cls-27" points="1994.3 2411.53 1994.3 2670.88 2020.53 2670.88 2020.53 2396.96 1994.3 2411.53"/><path class="cls-16" d="M2006.71,2408.82c-2.91,14.57-649.1,77.02-649.1,77.02l-14.57-405.04,60.97-12.65,300.26-62.27s12.68,7.12,32.61,18.52c38.82,22.19,105.15,60.61,158.89,94.17,22.43,54.11,105.64,141.48,105.64,141.48,.59-1.97,1.35-3.94,2.28-5.9,9.51,65.99,4.9,145.26,3.02,154.67Z"/><path class="cls-15" d="M2059.87,2421.73l-52.45,2.91-110.73-591.54-286.82-119.73c-1.69-5.68-3.38-11.1-5.07-16.14,.61,.03,1.25,.15,1.95,.38,8.74,2.91,240.4,50.99,240.4,50.99,0,0,148.61,29.14,169.01,34.97,20.4,5.83,43.71,17.48,49.54,49.54,5.83,32.05-5.83,588.62-5.83,588.62Z"/><path class="cls-16" d="M1599.46,1710.73c5.83,2.91,372.99,81.59,384.64,87.42,11.66,5.83,37.88,5.83,34.97,101.99-2.91,96.16-11.66,524.51-11.66,524.51l-64.11-26.23s-332.19-262.26-335.11-273.91-8.74-413.78-8.74-413.78Z"/><path class="cls-17" d="M1704.27,2005.88s12.68,7.12,32.61,18.52c-11.01,20.31-25.81,46.72-63.63,78.72-28.36,23.99-144.92,29.49-175.97,23.78-39.75-7.3-70.78-32.31-93.27-58.75l300.26-62.27Z"/><rect class="cls-16" x="1056.01" y="1741.32" width="75.76" height="23.31"/><path class="cls-6" d="M2234.44,2276.83l-95.12,71.34s-59.16-77.17-94.23-123.68c-11.93-15.8-21.06-28.06-24.16-32.55-.2-.27-.36-.51-.5-.72l1.38-2.3,36.55-60.91,4.87-8.13,13.08,12,39.04,35.78,119.08,109.17Z"/><polygon class="cls-6" points="1953.85 2557.43 1868.25 2562.18 1861.49 2484.53 1858.73 2452.8 1921.9 2435.26 1944.34 2429.02 1944.71 2434.14 1948.21 2481.34 1953.85 2557.43"/><path class="cls-7" d="M1948.21,2481.34c-20.16-5.15-71.94,1.2-86.72,3.18l-2.76-31.73,63.17-17.55,22.82-1.11,3.5,47.2Z"/><path class="cls-5" d="M1949.09,2471.82c-42.8-14.27-161.7,14.27-161.7,14.27,0,0-23.78-271.09-19.02-294.87,3.78-18.91-25.52-125.06-40.07-172.52-3.74-12.21-6.51-20.53-7.48-22.48l12.54-12.54c33.66-33.66,82.18-47.79,128.65-37.47l11,2.46,57.08,137.91s-3.74,63.55-4.58,91.22c-.11,3.54-.17,6.5-.17,8.65,0,19.02,14.27,90.36,23.78,109.38,9.51,19.02,0,175.97,0,175.97Z"/><path class="cls-20" d="M1930.07,2086.59s-3.74,63.55-4.58,91.22c-18.71-25.1-35.29-51.24-40.61-70.76-14.27-52.31-57.06-104.63-66.57-118.89-9.51-14.27-33.3-19.02-61.83,0-9.01,6.01-18.51,17.24-28.17,30.54-3.74-12.21-6.51-20.53-7.48-22.48l12.54-12.54c33.66-33.66,82.18-47.79,128.65-37.47l11,2.46,57.08,137.91Z"/><path class="cls-5" d="M1488.35,1467.77s133.86,24.23,139.04,35.67c5.19,11.45-7.67,47.15-23.37,45.72-15.71-1.43-57.12,4.28-72.83-18.56-15.71-22.85-45.7-54.26-42.84-62.83Z"/><path class="cls-3" d="M1621.96,1498.77l-8.67,57.42s7.88,23.62-31.49,17.32c-39.37-6.3-108.64-69.29-89.75-94.48,18.89-25.19,6.3-94.48,6.3-94.48l5.17,3.57,122.36,84.61-3.93,26.03Z"/><path class="cls-4" d="M1625.88,1472.74l-3.93,26.03c-5.26,1.89-10.97,3.07-17.18,3.5-45.67,3.14-83.45-15.75-97.62-77.15-3.03-13.11-4.04-25.43-3.64-36.98l122.36,84.61Z"/><path class="cls-3" d="M1538.5,1279.85c-14.17,28.34-44.09,72.43-29.92,133.84,14.17,61.41,51.96,80.3,97.62,77.15,45.66-3.15,64.56-47.24,72.43-105.5,7.87-58.26,17.32-44.09,12.6-66.13-4.72-22.04-12.6-70.86-40.94-77.15-28.34-6.3-99.2,12.6-111.79,37.79Z"/><path class="cls-27" d="M1649.72,1219.3c-7.87-7.87-60.04-47.31-110.43-26.84-50.39,20.47-75.58,58.26-77.15,81.88-1.57,23.62,1.57,48.81,9.45,56.68,7.87,7.87,39.62,33.93,39.62,33.93l138.51-145.65Z"/><path class="cls-27" d="M1636.91,1222.38s11.02-7.87,20.47-1.57c9.45,6.3,15.75,14.17,17.32,26.77,1.57,12.6,18.89,34.64,18.89,45.66,0,11.02-3.15,31.49-3.15,26.77s-18.89-67.71-25.19-66.13c-6.3,1.57-7.87,15.75-22.04,15.75s-86.6-1.57-94.47-6.3c-7.87-4.72-20.47,72.43-23.62,75.58-3.15,3.15-18.89,17.32-22.04,17.32s23.62-154.31,133.84-133.84Z"/><path class="cls-5" d="M1488.9,1468.02s33.07,59.83,64.56,69.28c31.49,9.45,36.22,26.77,36.22,26.77l11.02-15.75s11.89-9.15,16.18-17.71c3.59-7.18,5.71-28.56,5.71-28.56,0,0,.15-2.54,15.9,8.48,15.75,11.02,44.09,34.64,34.64,58.26-9.45,23.62-83.45,67.71-83.45,67.71,0,0-121.31-67.15-121.31-84.47s9.52-76.14,20.54-84.01Z"/><path class="cls-17" d="M1663.01,1963.19c-14.36,6.11-28.95,10.15-41.24,11.22-36.22,3.15-106.82,28.66-141.51,26.11-44.13-3.26-53.66-34.37-74.12-37.53-15.13-2.33-40.54-27.19-52.74-44.44-4.31-6.07-6.99-11.22-6.99-14.09,0-2.67-1.58-3.5-4.27-3.21-8.35,.83-27.46,12.27-42.98,11.09-20.46-1.58-53.54-14.18-58.26-39.37-4.73-25.19-20.46-58.26-3.14-99.19,10.44-24.67,24.88-69.36,36.07-106.49,134.7-9.01,299.33-18.93,306.68-16.3,24.89,8.97,63.39,193.47,82.49,312.2Z"/><path class="cls-7" d="M2115.37,2167.67c-31.67,12.54-56.95,39.96-70.27,56.83-11.93-15.8-21.06-28.06-24.16-32.55l.89-3.02,18.94-64.37s7.15,1.29,17.61,3.46c5.3,1.08,11.45,2.4,17.95,3.88l39.04,35.78Z"/><path class="cls-6" d="M1766.03,1686.88c-6.3,33.06-32.06,140.74-29.92,162.18,.63,6.27,16.42,39.97,6.43,67.1-11.87,32.22-68.03,61.1-104.24,64.26-36.21,3.16-106.83,28.66-141.51,26.1-44.12-3.26-53.65-34.37-74.11-37.53-15.12-2.33-40.54-27.19-52.75-44.42-4.31-6.08-6.98-11.22-6.98-14.09,0-2.67-1.57-3.5-4.26-3.21-8.35,.81-27.47,12.27-42.98,11.08-20.46-1.57-53.53-14.18-58.26-39.37-4.73-25.19-20.46-58.26-3.14-99.19,17.32-40.94,45.65-137,51.95-162.19,6.31-25.19,7.88-62.97,31.5-74,23.62-11.02,121.24-33.07,129.12-48.82l7.87-15.74s59.83,108.64,103.91,130.69c44.1,22.05,85.04-61.42,85.04-61.42,0,0-19.54-28.55-21.11-34.84-1.57-6.3,49.45,.21,55.75,1.78,6.3,1.57,92.89,11.02,107.07,34.64,14.17,23.62-33.07,103.91-39.37,136.99Z"/><path class="cls-5" d="M1405.53,1871.89c4.76,4.76,365.22-96.81,412.78-77.79,47.56,19.02,294.87,342.42,304.38,347.18,9.51,4.76-107.01,54.69-121.28,102.25,0,0-95.12-99.87-109.39-152.19-14.27-52.31-57.07-104.63-66.58-118.9-9.51-14.27-33.29-19.02-61.83,0-28.54,19.02-23.93,57.95-90.36,114.14-28.36,23.99-144.91,29.49-175.97,23.78-86.31-15.87-131.59-115.26-137.45-131.38-11.42-31.42-4.24-157.04,45.7-107.1Z"/><path class="cls-7" d="M1541.75,1759.27c8.47,4.66,14.09,7,17.79,7.94-29.6,26.26-161.19,142.41-189.62,157.36-4.31-6.08-6.98-11.22-6.98-14.09,0-2.67-1.57-3.5-4.26-3.21-5.73-45.37-.27-156.75-.27-156.75,1.57,0,139.24-90.43,147.13-87.29,7.87,3.16,4.71,78.72,36.21,96.05Z"/><path class="cls-6" d="M1351.91,1737.27c1.57,0,154.31-92.9,162.18-89.75,7.87,3.15,4.72,78.73,36.22,96.05,31.49,17.32,22.04,12.6,22.04,12.6,0,0-192.1,146.44-207.84,146.44s-12.6-165.33-12.6-165.33Z"/><path class="cls-7" d="M1574.03,1747.66c-1.83,23.75-23.36,7.31-40.24-11.44-9.51-10.57-17.55-21.86-19.73-27.12-3.13-7.48-7.33-22.05-9.41-35.26-2.68-17.02-1.86-31.77,9.41-26.15,0,0,4.07,4.07,10.08,10.75,10.31,11.42,26.33,30.5,37.44,49.91,7.91,13.81,13.34,27.79,12.45,39.3Z"/><path class="cls-6" d="M1762.88,1748.29s91.33,91.33,124.39,94.47c33.07,3.15,55.11-9.45,64.56-26.77,9.45-17.32-15.75-91.33-25.19-111.79-9.45-20.47-57.01-35.08-57.01-35.08,0,0,15.71,19.99,11.42,27.13-8.76,14.6-10,12.85-24.28,14.28-19.38,1.94-19.44-1.88-32.84-12.85-15.71-12.85-29.56-47.01-29.56-47.01l-67.71,26.77,36.22,70.86Z"/><path class="cls-27" d="M2129.82,2357.68c0,4.76,14.27,80.85,33.29,76.09,19.02-4.76,42.8-19.02,57.07-28.54,14.27-9.51,57.07,14.27,90.36,0,33.29-14.27,128.41-42.8,123.65-76.09-4.76-33.29-33.29-33.29-76.09-33.29s-90.36-28.54-118.9-33.29c-28.54-4.76-38.05-14.27-52.31,0-14.27,14.27-23.78,33.29-19.02,38.05s-47.56,14.27-47.56,28.54,9.51,28.54,9.51,28.54Z"/><path class="cls-27" d="M1845.44,2559.83c-3.26,3.46-45.13,68.58-28.03,78.19,17.1,9.6,44.18,15.55,61.09,18.43,16.9,2.88,31.7,49.55,65.71,62.03,34,12.48,122.76,57.03,142.15,29.55,19.4-27.47-1.35-47.06-32.48-76.45-31.12-29.38-46.12-82.78-63.6-105.83-17.48-23.05-17.87-36.49-38.04-35.91-20.17,.58-40.15,7.88-39.95,14.61,.19,6.72-44.38-22.27-54.17-11.9s-12.67,27.28-12.67,27.28Z"/><path class="cls-3" d="M1507.83,1361.27c-3.11-14.36-10.42-27.54-21.18-37.54-6.07-5.63-12.44-9.68-16.64-6.88-9.45,6.3-9.45,33.07-1.57,48.81,7.87,15.75,28.34,37.79,39.36,34.64,6.67-1.9,3.54-22.81,.03-39.04Z"/><path class="cls-3" d="M1826.51,1512.37c4.83-7.91,16.02-6.05,14.17,3.03-.38,1.85-1.1,3.9-2.22,6.15-6.3,12.6-23.62,62.98-22.04,64.56,1.57,1.57,18.89-3.15,25.19,9.45,6.3,12.6-7.87,14.17-7.87,14.17,0,0,12.83,2.29,15.75,7.87,3.51,6.72,0,12.6-4.72,14.17,0,0,9.45,1.57,11.02,14.17,1.57,12.6,3.15,17.32,7.87,18.89,4.72,1.57,15.75,9.45,18.89,20.47,3.15,11.02-7.46,26.51-20.06,28.08-12.6,1.57-25.6,.26-31.9-6.04-6.3-6.3-15.75-18.89-22.04-22.04s-27.81-10.26-29.92-12.6c-3.24-3.59-14.17-9.45-15.75-14.17-1.57-4.72-9.45-11.02-25.19-11.02s-26.77-4.72-26.77-7.87,22.04-11.02,36.22-11.02,18.89-31.49,25.19-34.64c6.3-3.15,17.22-10.2,20.19-11.97,2.33-1.39,22.85-51.41,33.99-69.64Z"/><path class="cls-7" d="M1373.64,1762.88c-3.64,.09,17.01-72.38,30.97-95.68,13.96-23.3-22.97,95.49-30.97,95.68Z"/><path class="cls-7" d="M1754.65,1732.45c-1.95-3.07-35.47-63.39-41.51-82.17-7.56-23.53,45.46,88.38,41.51,82.17Z"/><polygon class="cls-27" points="1074.95 2363.45 1025.41 2605.31 1051.63 2605.31 1098.26 2375.11 1074.95 2363.45"/><path class="cls-16" d="M1392.58,2501.58c-18.79,12.47-337.46-132.6-365.04-148.72-.8-.47-1.34-.83-1.64-1.07-1.56-1.28-3.76-13.94-6.34-34.75-.11-.81-.21-1.64-.32-2.48v-.02c-4.57-37.51-10.35-99.51-16.18-168.49v-.02c-13.46-159.02-27.2-355.18-27.2-374.13,0-32.06,28.6-26.23,28.6-26.23l389.57,107.81s17.88,635.24-1.46,648.07Z"/><path class="cls-15" d="M1376.16,1993.39c0-116.57-25.02-136.96-39.31-148.62-8.07-6.58-115.72-34.64-208.97-59.35-10.3-2.73-20.42-5.41-30.2-8.03-58.25-15.54-104.84-28.45-107.5-31.7-4.84-5.94,56.95-15.22,98.29-20.58,.76,6.67,1.8,14.02,3.06,22.02l-15.58,1.47s6.03,1.43,16.44,3.94c7.28,1.77,16.71,4.07,27.75,6.75,81.2,19.88,248.83,62.1,281.06,79.64,42.9,23.32,42.9,75.77,46.47,107.83,1.1,10.01,2.58,67.09,4.08,140.91,.04,2.46,.1,4.91,.14,7.4,3.21,162.66,6.5,399.51,6.5,399.51l-82.21,8.74v-509.93Z"/><g><path class="cls-17" d="M1053.63,2090.63c0,36.44-5.6,100.92-11.21,131.74-3.14,17.31-10.7,58.42-23.18,92.18-4.57-37.51-10.35-99.51-16.18-168.49v-.02l11.33-44.2c.93-4.67,1.8-9.24,2.61-13.66,6.56-35.41,10.15-61.71,22.61-59.23,14.02,2.81,14.02,25.24,14.02,61.67Z"/><path class="cls-17" d="M1053.63,2312.07c-7.65,12.02-16.57,27.43-26.09,40.79-.8-.47-1.34-.83-1.64-1.07-1.56-1.28-3.76-13.94-6.34-34.75,9.87-13.04,19.39-26.9,22.86-35.8,8.38-21.5,14.02-42.05,19.62-36.44,5.6,5.6,11.22,36.44-8.41,67.27Z"/><ellipse class="cls-19" cx="926.67" cy="2357.1" rx="146.03" ry="26.46"/><path class="cls-10" d="M942.06,2313.58c-.65,33.66-1.65,64.84-3.17,88.31-.57,9.07-1.23,17-1.97,23.48v.02c-1.4,12.11-3.08,19.14-5.12,19.14-10.17,0-23.32-33.99-29.73-71.93-2.43-14.3-3.91-29.17-3.91-42.99,0-49-8.68-159.29-13.58-222.69-1.91-24.82-3.25-42.45-3.25-46.4,0-14.02,11.21-84.09,8.41-100.92-2.81-16.81,2.79-98.11,2.79-109.32s25.24-53.25,42.05-2.81c16.82,50.46,0,109.33,0,120.54s-2.79,39.24-2.79,53.25,11.21,36.44,11.21,64.47c0,5.06,.09,19.96,.15,41.01,.15,45.95,.2,121.14-1.1,186.83Z"/><path class="cls-10" d="M879.94,2106.76c-18.55-21.2-14.02-86.89-25.23-92.5-11.21-5.61-14.02-8.41-22.42-2.8-8.41,5.61-14.02,58.86-11.21,67.27,2.8,8.41-8.41,44.85,2.8,61.67,11.21,16.82,11.21,86.89,16.82,103.71,5.61,16.82,36.44,154.17,50.45,159.77,14.02,5.61,8.41-274.7-11.21-297.12Z"/><path class="cls-12" d="M902.08,2372.6c-2.43-14.3-3.91-29.17-3.91-42.99,0-49-8.68-159.29-13.58-222.69,15.26,18.43,21.98,193.12,17.49,265.68Z"/><path class="cls-12" d="M942.06,2313.58c-5.18,7.33-4.01,55.49-3.17,88.31,.5,18.88,.89,32.67-.09,30.72-.35-.71-1.01-3.25-1.88-7.23v-.02c-6.1-27.9-22.64-126.28-17.74-158.14,5.6-36.44,5.6-72.89,5.6-72.89,2.81-14.02-2.79-56.06,8.41-64.46,3.7-2.76,7.08-3.71,9.96-3.14,.15,45.95,.2,121.14-1.1,186.83Z"/><path class="cls-10" d="M924.79,2204.86c2.8-14.02-2.8-56.06,8.41-64.47,11.21-8.41,19.62,0,19.62,16.82s.46,163.75-9.58,165.97c-10.04,2.22-1.63,125.55-4.43,119.94-2.8-5.61-25.23-128.94-19.62-165.38,5.61-36.44,5.61-72.88,5.61-72.88Z"/><path class="cls-10" d="M1034.1,2101.15c0,36.44-5.6,100.92-11.21,131.74-4.75,26.12-19.56,106.58-46.13,133.95-4.79,4.94-9.96,8.14-15.53,9-36.44,5.62,5.6-154.16,5.6-154.16l28.03-109.32c.93-4.67,1.8-9.24,2.61-13.66,6.56-35.41,10.15-61.71,22.61-59.23,14.02,2.81,14.02,25.24,14.02,61.67Z"/><path class="cls-12" d="M994.18,2140.6c-5.62,19.62-8.41,137.35-14.02,159.78-2.99,11.94-2,40.6-3.39,66.47-4.79,4.94-9.96,8.14-15.53,9-36.44,5.62,5.6-154.16,5.6-154.16l28.03-109.32c.93-4.67,1.8-9.24,2.61-13.66,1.47,13.4,.15,29.77-3.31,41.88Z"/><path class="cls-10" d="M952.82,2204.86c5.61-16.82,0-95.3,5.61-112.12,5.61-16.82,14.02-28.03,22.42-16.82,8.41,11.21,8.41,42.05,2.8,61.67-5.61,19.62-8.41,137.35-14.02,159.77-5.61,22.42,2.8,103.71-16.82,114.92-19.62,11.21-25.23-30.83-22.42-61.67,2.8-30.83,22.42-145.76,22.42-145.76Z"/><path class="cls-10" d="M972.44,2361.83s42.24-49.02,50.45-70.08c8.38-21.49,14.02-42.05,19.62-36.44,5.61,5.61,11.21,36.44-8.41,67.27-19.62,30.83-47.65,84.09-72.88,67.27-25.23-16.82,11.21-28.03,11.21-28.03Z"/><path class="cls-10" d="M840.7,2101.15c-11.39,3.42-16.82,47.65-16.82,61.67s14.02,64.47,22.42,86.89c8.41,22.42,39.24,47.65,39.24,47.65l-14.02-123.33s-2.8-81.29-30.83-72.88Z"/><path class="cls-12" d="M861.22,2147.8c-9.2,4.18-11.21,78.48-5.61,92.5,5.61,14.02,11.21,53.26,28.03,67.27,16.82,14.02,33.64,95.3,33.64,95.3,0,0-11.21-95.3-16.82-112.12-5.61-16.82-8.41-156.97-39.24-142.95Z"/><path class="cls-10" d="M868.73,2162.82c-9.2,4.18-11.21,78.48-5.61,92.5,5.61,14.02,17.99,47.82,28.03,67.27,9.43,18.28,33.64,95.3,33.64,95.3,0,0-11.21-95.3-16.82-112.12-5.61-16.82-8.41-156.97-39.24-142.95Z"/><path class="cls-10" d="M882.75,2361.83s-30.19-37.93-36.44-47.65c-11.82-18.38-19.62-50.45-28.03-36.44-8.41,14.02-8.41,42.05,8.41,58.86,16.82,16.82,28.03,56.06,61.67,50.45,33.64-5.61,46.79-2.63,46.79-2.63l-52.39-22.6Z"/><path class="cls-5" d="M1072.2,2359.28l-32.12,325.87c-99.42,56.44-226.8,10.58-229.92,0-3.1-10.58-29.74-328.35-29.74-328.35h.25c-.02,.1-.02,.2-.02,.3,0,14.6,65.38,26.46,146.02,26.46s139.44-10.7,145.53-24.29Z"/></g><g><polygon class="cls-22" points="1937.75 1490.68 1833.84 1393.33 1739.62 1511.71 1826.2 1574.7 1937.75 1490.68"/><polygon class="cls-22" points="1941.64 1500.07 1888.9 1370.62 1818.23 1437.9 1928.37 1516.06 1941.64 1500.07"/><polygon class="cls-5" points="1941.64 1500.07 1852.85 1382.83 1723.16 1519.09 1856.18 1604.83 1941.64 1500.07"/><polygon class="cls-5" points="1941.64 1500.07 1797.51 1402.71 1651.93 1580.69 1787.33 1644.53 1941.64 1500.07"/><polygon class="cls-22" points="1941.64 1500.07 1803.05 1415.05 1651.22 1587.93 1805.36 1667.1 1941.64 1500.07"/></g><path class="cls-3" d="M1738.58,1508.73c-3.83,7.64-43.41,38.01-51.28,45.9-7.88,7.87-23.62,11.01-20.48,15.74,3.16,4.73,33.07,3.16,36.21,6.3,3.16,3.16,23.62,40.94,26.77,50.39,3.14,9.44-7.87,11.02-7.87,15.74s-20.48,3.16-33.07,0c-12.59-3.14-28.35-1.57-50.39,15.75-22.03,17.32-53.53,31.49-59.83,34.64-2.38,1.19-9.34,7.63-17.06,15.18-12.71,12.44-27.53,27.87-27.53,27.87-.09,0-.17,0-.26-.01-9.51-10.57-17.55-21.86-19.73-27.12-3.13-7.48-7.33-22.05-9.41-35.26,4.61-3.64,11.92-9.41,19.49-15.39,11.68-9.22,23.96-18.92,27.75-21.96,7.87-6.3,34.64-37.78,40.94-44.08,6.3-6.3,20.46-36.21,26.76-37.78,6.3-1.59,55.12-23.62,58.26-25.2,3.16-1.57,56.69-45.65,61.4-44.08,4.73,1.57,3.16,15.75-.67,23.39Z"/><path class="cls-31" d="M1076.35,966.35l-356.14,945.09c86.12,40.38,745.85,142.72,1050.84-23.21l-419.8-929.39-274.9,7.51Z"/><g><rect class="cls-16" x="1210.66" y="572.47" width="10.19" height="237.92"/><path class="cls-16" d="M1270.51,820.59h-109.51c.38-1.13,.78-3.62,1.25-7.11,2.72-20.17,7.63-73.25,21.68-79.5,17.71-7.87,67.4-10.49,76.4,12.74,5.17,13.34,8.43,50.04,9.64,66.13,.36,4.78,.54,7.74,.54,7.74Z"/><path class="cls-17" d="M1270.51,820.59h-109.51c.38-1.13,.78-3.62,1.25-7.11,15.49-6.28,33.23-10,53.51-10s38.59,3.47,54.22,9.37c.36,4.78,.54,7.74,.54,7.74Z"/><path class="cls-16" d="M1060.39,963.21s25.47-152.81,155.36-152.81,152.81,132.44,155.36,155.36l-310.71-2.55Z"/><ellipse class="cls-18" cx="1215.75" cy="965.75" rx="165.54" ry="12.73"/><path class="cls-16" d="M1172.39,526.32c7.52-3.89,23.33-10.81,44.42-10.58,19.9,.22,34.85,6.71,42.3,10.58-4.94,19.74-9.87,39.48-14.81,59.22-3.59,2.44-14.46,9.12-29.61,8.46-12.65-.55-21.64-5.92-25.38-8.46-5.64-19.74-11.28-39.48-16.92-59.22Z"/></g><g><g><path class="cls-5" d="M1327.55,2712.24c4.64,3.33,21.76,16.74,17.05,32.48-4.71,15.74-25.87,17.29-30.92,18.4-5.05,1.1-191.97,22.13-191.97,22.13,0,0-3.46-37.15-7.17-47.87-3.72-10.73,213.02-25.14,213.02-25.14Z"/><path class="cls-20" d="M999.85,2701.4c18.77,10.59,118.59,44.06,118.6,44.07h0c3.86,1.43,5.46,1.99,8.48,1.57l198.13-27.21c5.29-.73,10.51,1.26,12.93,5.05,2.68,4.2,3.71,11.36-1.93,23.38-1.59,3.39-5.33,5.86-9.72,6.38l-197.46,23.38c-1.01,.12-2.45,.29-3.1,.37-.22,.03-.45,0-.64-.09l-112.96-47.9c-.17-.07-.38-.11-.58-.1-10.38,.68-5.91,8.87-4.98,10.4,.1,.16,.25,.28,.44,.37,6.28,2.67,113.76,48.38,116.11,49.38,.03,.01,.05,.02,.08,.03,2.04,.7,4.85,1.29,8.62,1.71,23.06,2.52,173.3-20.84,204.45-25.75,3.81-.6,7.09-2.66,8.76-5.54,5.81-10.02,15.1-34.48-15.74-55.4-.97-.65-2.05-1.19-3.22-1.58-14.18-4.72-112.63-37.45-131.82-43.83-2.12-.71-4.46-.92-6.77-.62-24.17,3.14-165.03,21.43-186.55,24.22-2.73,.35-5.32,1.38-7.27,3.01-3.44,2.87-5.78,7.97,6.13,14.69Z"/><path class="cls-5" d="M1122.39,2746.72s17.92,7.12,3.79,29.76c-.47,.75-1.92,1.7-2.82,1.32l-108.83-46.11c-.78-.32-1.11-1.06-.81-1.74,1.2-2.66,2.72-10.05-8.02-22.6-1.03-1.21,.65-2.79,2.32-2.18l114.37,41.55Z"/></g><g><path class="cls-5" d="M1283.88,2678.59c3.47,2.48,16.24,12.49,12.72,24.25-3.52,11.75-19.31,12.91-23.08,13.73-3.77,.82-143.29,16.52-143.29,16.52,0,0-2.58-27.73-5.35-35.73-2.78-8.01,158.99-18.77,158.99-18.77Z"/><path class="cls-6" d="M1039.29,2670.5c14.01,7.9,88.51,32.89,88.52,32.89h0c2.88,1.06,4.08,1.48,6.33,1.17l147.88-20.31c3.95-.54,7.85,.94,9.65,3.77,2,3.14,2.77,8.48-1.44,17.45-1.19,2.53-3.98,4.38-7.25,4.76l-147.38,17.45c-.75,.09-1.83,.22-2.31,.27-.17,.02-.33,0-.48-.07l-84.31-35.75c-.13-.06-.28-.08-.43-.07-7.75,.5-4.41,6.62-3.72,7.76,.07,.12,.18,.21,.33,.27,4.69,1.99,84.91,36.11,86.66,36.86,.02,0,.04,.02,.06,.02,1.52,.52,3.62,.96,6.44,1.27,17.21,1.88,129.35-15.56,152.6-19.22,2.84-.45,5.29-1.99,6.54-4.13,4.33-7.48,11.27-25.74-11.75-41.35-.72-.49-1.53-.89-2.4-1.18-10.59-3.52-84.06-27.95-98.39-32.71-1.58-.53-3.33-.69-5.05-.46-18.04,2.34-123.18,15.99-139.24,18.08-2.04,.26-3.97,1.03-5.43,2.25-2.56,2.15-4.32,5.95,4.58,10.96Z"/><path class="cls-5" d="M1130.75,2704.32s13.37,5.31,2.83,22.21c-.35,.56-1.43,1.27-2.1,.99l-81.23-34.41c-.58-.24-.83-.79-.6-1.3,.89-1.98,2.03-7.5-5.98-16.87-.77-.9,.49-2.08,1.73-1.63l85.36,31.01Z"/></g><g><path class="cls-5" d="M1338.95,2608.98c5.09,3.64,23.84,18.34,18.67,35.58-5.16,17.25-28.33,18.95-33.87,20.16-5.53,1.21-210.3,24.25-210.3,24.25,0,0-3.79-40.69-7.86-52.44-4.07-11.75,233.36-27.54,233.36-27.54Z"/><path class="cls-10" d="M979.96,2597.1c20.57,11.6,129.91,48.27,129.92,48.28h0c4.23,1.56,5.98,2.18,9.28,1.72l217.05-29.81c5.8-.8,11.52,1.38,14.16,5.53,2.93,4.6,4.07,12.44-2.12,25.62-1.74,3.71-5.84,6.42-10.64,6.99l-216.32,25.62c-1.11,.13-2.68,.32-3.39,.4-.24,.03-.49,0-.7-.1l-123.74-52.48c-.19-.08-.41-.12-.63-.1-11.37,.74-6.47,9.72-5.45,11.39,.11,.17,.27,.31,.48,.4,6.88,2.93,124.62,53,127.2,54.09,.03,.01,.06,.02,.09,.03,2.24,.77,5.31,1.42,9.45,1.87,25.26,2.77,189.85-22.83,223.97-28.21,4.17-.66,7.77-2.92,9.59-6.06,6.36-10.98,16.54-37.78-17.24-60.69-1.06-.72-2.24-1.3-3.53-1.73-15.54-5.17-123.38-41.02-144.41-48.01-2.32-.77-4.88-1.01-7.41-.68-26.48,3.44-180.79,23.47-204.36,26.53-2.99,.39-5.83,1.51-7.97,3.3-3.76,3.15-6.34,8.73,6.72,16.09Z"/><path class="cls-5" d="M1114.21,2646.75s19.63,7.79,4.15,32.6c-.51,.82-2.1,1.86-3.09,1.45l-119.22-50.51c-.85-.35-1.22-1.16-.89-1.9,1.31-2.91,2.98-11.01-8.78-24.76-1.13-1.32,.71-3.06,2.54-2.39l125.29,45.51Z"/></g><g><path class="cls-5" d="M1345.92,2542.81c5.09,3.64,23.84,18.34,18.67,35.58-5.16,17.25-28.33,18.95-33.87,20.16-5.53,1.21-210.3,24.25-210.3,24.25,0,0-3.79-40.69-7.86-52.44-4.07-11.75,233.36-27.54,233.36-27.54Z"/><path class="cls-20" d="M986.93,2530.93c20.57,11.6,129.91,48.27,129.92,48.28h0c4.23,1.56,5.98,2.18,9.28,1.72l217.05-29.81c5.8-.8,11.52,1.38,14.16,5.53,2.93,4.6,4.07,12.44-2.12,25.62-1.74,3.71-5.84,6.42-10.64,6.99l-216.32,25.62c-1.11,.13-2.68,.32-3.39,.4-.24,.03-.49,0-.7-.1l-123.74-52.48c-.19-.08-.41-.12-.63-.1-11.37,.74-6.47,9.72-5.45,11.39,.11,.17,.27,.31,.48,.4,6.88,2.93,124.62,53,127.2,54.09,.03,.01,.06,.02,.09,.03,2.24,.77,5.31,1.42,9.45,1.87,25.26,2.77,189.85-22.83,223.97-28.21,4.17-.66,7.77-2.92,9.59-6.06,6.36-10.98,16.54-37.78-17.24-60.69-1.06-.72-2.24-1.3-3.53-1.73-15.54-5.17-123.38-41.02-144.41-48.01-2.32-.77-4.88-1.01-7.41-.68-26.48,3.44-180.79,23.47-204.36,26.53-2.99,.39-5.83,1.51-7.97,3.3-3.76,3.15-6.34,8.73,6.72,16.09Z"/><path class="cls-5" d="M1121.17,2580.58s19.63,7.79,4.15,32.6c-.51,.82-2.1,1.86-3.09,1.45l-119.22-50.51c-.85-.35-1.22-1.16-.89-1.9,1.31-2.91,2.98-11.01-8.78-24.76-1.13-1.32,.71-3.06,2.54-2.39l125.29,45.51Z"/></g><g><path class="cls-5" d="M1348.53,2488.82c5.09,3.64,23.84,18.34,18.67,35.58-5.16,17.25-28.33,18.95-33.87,20.16-5.53,1.21-210.3,24.25-210.3,24.25,0,0-3.79-40.69-7.86-52.44-4.07-11.75,233.36-27.54,233.36-27.54Z"/><path class="cls-9" d="M989.54,2476.95c20.57,11.6,129.91,48.27,129.92,48.28h0c4.23,1.56,5.98,2.18,9.28,1.72l217.05-29.81c5.8-.8,11.52,1.38,14.16,5.53,2.93,4.6,4.07,12.44-2.12,25.62-1.74,3.71-5.84,6.42-10.64,6.99l-216.32,25.62c-1.11,.13-2.68,.32-3.39,.4-.24,.03-.49,0-.7-.1l-123.74-52.48c-.19-.08-.41-.12-.63-.1-11.37,.74-6.47,9.72-5.45,11.39,.11,.17,.27,.31,.48,.4,6.88,2.93,124.62,53,127.2,54.09,.03,.01,.06,.02,.09,.03,2.24,.77,5.31,1.42,9.45,1.87,25.26,2.77,189.85-22.83,223.97-28.21,4.17-.66,7.77-2.92,9.59-6.06,6.36-10.98,16.54-37.78-17.24-60.69-1.06-.72-2.24-1.3-3.53-1.73-15.54-5.17-123.38-41.02-144.41-48.01-2.32-.77-4.88-1.01-7.41-.68-26.48,3.44-180.79,23.47-204.36,26.53-2.99,.39-5.83,1.51-7.97,3.3-3.76,3.15-6.34,8.73,6.72,16.09Z"/><path class="cls-5" d="M1123.78,2526.6s19.63,7.79,4.15,32.6c-.51,.82-2.1,1.86-3.09,1.45l-119.22-50.51c-.85-.35-1.22-1.16-.89-1.9,1.31-2.91,2.98-11.01-8.78-24.76-1.13-1.32,.71-3.06,2.54-2.39l125.29,45.51Z"/></g><g><path class="cls-5" d="M1283.88,2443.51c3.47,2.48,16.24,12.49,12.72,24.25-3.52,11.75-19.31,12.91-23.08,13.73-3.77,.82-143.29,16.52-143.29,16.52,0,0-2.58-27.73-5.35-35.73-2.78-8.01,158.99-18.77,158.99-18.77Z"/><path class="cls-22" d="M1039.29,2435.42c14.01,7.9,88.51,32.89,88.52,32.89h0c2.88,1.06,4.08,1.48,6.33,1.17l147.88-20.31c3.95-.54,7.85,.94,9.65,3.77,2,3.14,2.77,8.48-1.44,17.45-1.19,2.53-3.98,4.38-7.25,4.76l-147.38,17.45c-.75,.09-1.83,.22-2.31,.27-.17,.02-.33,0-.48-.07l-84.31-35.75c-.13-.06-.28-.08-.43-.07-7.75,.5-4.41,6.62-3.72,7.76,.07,.12,.18,.21,.33,.27,4.69,1.99,84.91,36.11,86.66,36.86,.02,0,.04,.02,.06,.02,1.52,.52,3.62,.96,6.44,1.27,17.21,1.88,129.35-15.56,152.6-19.22,2.84-.45,5.29-1.99,6.54-4.13,4.33-7.48,11.27-25.74-11.75-41.35-.72-.49-1.53-.89-2.4-1.18-10.59-3.52-84.06-27.95-98.39-32.71-1.58-.53-3.33-.69-5.05-.46-18.04,2.34-123.18,15.99-139.24,18.08-2.04,.26-3.97,1.03-5.43,2.25-2.56,2.15-4.32,5.95,4.58,10.96Z"/><path class="cls-5" d="M1130.75,2469.24s13.37,5.31,2.83,22.21c-.35,.56-1.43,1.27-2.1,.99l-81.23-34.41c-.58-.24-.83-.79-.6-1.3,.89-1.98,2.03-7.5-5.98-16.87-.77-.9,.49-2.08,1.73-1.63l85.36,31.01Z"/></g></g></g></g></g></g></svg>