<?xml version="1.0" encoding="UTF-8"?><svg xmlns="http://www.w3.org/2000/svg" xmlns:xlink="http://www.w3.org/1999/xlink" viewBox="0 0 12000 4200"><defs><style>.cls-1,.cls-2{fill:#f9bb3e;}.cls-3,.cls-4,.cls-5{fill:#fff;}.cls-6{fill:#c6c6c6;}.cls-7{fill:url(#_Безымянный_градиент_54);}.cls-8{fill:url(#_Безымянный_градиент_39);}.cls-4{stroke:#fff;stroke-miterlimit:10;stroke-width:5.57px;}.cls-2{opacity:.57;}.cls-2,.cls-9,.cls-10,.cls-11,.cls-12,.cls-13{mix-blend-mode:multiply;}.cls-9{fill:url(#_Безымянный_градиент_44);}.cls-9,.cls-10,.cls-11,.cls-12,.cls-13{opacity:.8;}.cls-14{fill:url(#_Безымянный_градиент_40);opacity:.59;}.cls-14,.cls-15,.cls-16,.cls-17,.cls-18,.cls-19,.cls-20{mix-blend-mode:screen;}.cls-21{fill:url(#_Безымянный_градиент_54-3);}.cls-22{fill:url(#_Безымянный_градиент_54-2);}.cls-23{fill:url(#_Безымянный_градиент_39-2);}.cls-24{fill:url(#_Безымянный_градиент_39-3);}.cls-25{isolation:isolate;}.cls-15{fill:url(#_Безымянный_градиент_40-4);}.cls-16{fill:url(#_Безымянный_градиент_40-2);}.cls-17{fill:url(#_Безымянный_градиент_40-6);}.cls-10{fill:url(#_Безымянный_градиент_44-2);}.cls-11{fill:url(#_Безымянный_градиент_44-4);}.cls-12{fill:url(#_Безымянный_градиент_44-5);}.cls-13{fill:url(#_Безымянный_градиент_44-3);}.cls-26{fill:url(#_Безымянный_градиент_3);}.cls-27{fill:url(#_Безымянный_градиент_5);}.cls-28{fill:#ef7d00;opacity:.47;}.cls-5{opacity:.63;}.cls-18{fill:url(#_Безымянный_градиент_40-3);}.cls-18,.cls-19,.cls-20{opacity:.53;}.cls-19{fill:url(#_Безымянный_градиент_40-7);}.cls-20{fill:url(#_Безымянный_градиент_40-5);}</style><radialGradient id="_Безымянный_градиент_40" cx="6090.9" cy="5812.16" fx="6090.9" fy="5812.16" r="364.37" gradientTransform="translate(-1745.89 887.88) scale(1.34 .31)" gradientUnits="userSpaceOnUse"><stop offset="0" stop-color="#fff"/><stop offset="1" stop-color="#000"/></radialGradient><radialGradient id="_Безымянный_градиент_44" cx="3801.55" cy="-10445.91" fx="3801.55" fy="-10445.91" r="99.83" gradientTransform="translate(-11333.62 10657.86) scale(4.67 .71)" gradientUnits="userSpaceOnUse"><stop offset="0" stop-color="#f9bb3e"/><stop offset="1" stop-color="#fff"/></radialGradient><linearGradient id="_Безымянный_градиент_3" x1="6436.64" y1="2571.33" x2="6433.62" y2="3363.75" gradientUnits="userSpaceOnUse"><stop offset="0" stop-color="#fff"/><stop offset=".54" stop-color="#fff"/><stop offset=".73" stop-color="#e5e5e5"/><stop offset=".81" stop-color="#ffe6bd"/><stop offset=".92" stop-color="#ffdda1"/></linearGradient><linearGradient id="_Безымянный_градиент_5" x1="6439.52" y1="2680.11" x2="6438.46" y2="2957.94" gradientUnits="userSpaceOnUse"><stop offset="0" stop-color="#fff"/><stop offset=".08" stop-color="#f4f4f4"/><stop offset=".23" stop-color="#e8e8e8"/><stop offset=".43" stop-color="#e1e1e1"/><stop offset="1" stop-color="#e0e0e0"/></linearGradient><radialGradient id="_Безымянный_градиент_44-2" cx="3051.22" cy="-12285.19" fx="3051.22" fy="-12285.19" r="204.25" gradientTransform="translate(-9574.37 12596.1) scale(4.37 .88)" xlink:href="#_Безымянный_градиент_44"/><radialGradient id="_Безымянный_градиент_40-2" cx="6003.88" cy="982.59" fx="6003.88" fy="982.59" r="554.85" gradientTransform="translate(-1265.93 1299.94) rotate(-10.34) scale(1.23 1)" xlink:href="#_Безымянный_градиент_40"/><radialGradient id="_Безымянный_градиент_44-3" cx="3795.32" cy="-12353.95" fx="3795.32" fy="-12353.95" r="152.02" gradientTransform="translate(-8020.61 12508.23) scale(3.77 .88)" xlink:href="#_Безымянный_градиент_44"/><radialGradient id="_Безымянный_градиент_39" cx="6059.72" cy="440.83" fx="6059.72" fy="440.83" r="1598.34" gradientUnits="userSpaceOnUse"><stop offset="0" stop-color="#fff"/><stop offset=".37" stop-color="#fff"/><stop offset=".59" stop-color="#e9e8e8"/><stop offset=".71" stop-color="#ddd"/><stop offset=".81" stop-color="#ffe6bd"/><stop offset=".92" stop-color="#ffdda1"/></radialGradient><linearGradient id="_Безымянный_градиент_54" x1="5939.54" y1="1533.89" x2="5990.04" y2="1679.67" gradientUnits="userSpaceOnUse"><stop offset="0" stop-color="#fff"/><stop offset=".49" stop-color="#fff"/><stop offset=".7" stop-color="#e9e8e8"/><stop offset=".88" stop-color="#ffe6bd"/><stop offset="1" stop-color="#ffdda1"/></linearGradient><radialGradient id="_Безымянный_градиент_40-3" cx="4618.01" cy="-7146.91" fx="4618.01" fy="-7146.91" r="152.02" gradientTransform="translate(5394.2 -1015.26) rotate(90) scale(.56 .09)" xlink:href="#_Безымянный_градиент_40"/><radialGradient id="_Безымянный_градиент_40-4" cx="5783.92" cy="2708.97" fx="5783.92" fy="2708.97" r="380.13" gradientTransform="translate(-1265.93 1299.94) rotate(-10.34) scale(1.23 1)" xlink:href="#_Безымянный_градиент_40"/><radialGradient id="_Безымянный_градиент_44-4" cx="3787.77" cy="-10620.16" fx="3787.77" fy="-10620.16" r="104.15" gradientTransform="translate(-7985.33 12508.48) scale(3.77 .88)" xlink:href="#_Безымянный_градиент_44"/><radialGradient id="_Безымянный_градиент_39-2" cx="6140.87" cy="2345.19" fx="6140.87" fy="2345.19" r="1095.01" xlink:href="#_Безымянный_градиент_39"/><linearGradient id="_Безымянный_градиент_54-2" x1="6058.53" y1="3094.04" x2="6093.13" y2="3193.91" xlink:href="#_Безымянный_градиент_54"/><radialGradient id="_Безымянный_градиент_40-5" cx="5645.73" cy="9221.15" fx="5645.73" fy="9221.15" r="104.15" gradientTransform="translate(6924.15 -47.07) rotate(90) scale(.56 .09)" xlink:href="#_Безымянный_градиент_40"/><radialGradient id="_Безымянный_градиент_40-6" cx="1665.02" cy="263.48" fx="1665.02" fy="263.48" r="379.9" gradientTransform="translate(3208.56 1299.94) rotate(-169.66) scale(1.23 -1)" xlink:href="#_Безымянный_градиент_40"/><radialGradient id="_Безымянный_градиент_44-5" cx="2358.98" cy="-12464.71" fx="2358.98" fy="-12464.71" r="104.09" gradientTransform="translate(-9893.02 10573.32) rotate(-90) scale(3.77 -.88)" xlink:href="#_Безымянный_градиент_44"/><radialGradient id="_Безымянный_градиент_39-3" cx="715.28" cy="849.16" fx="715.28" fy="849.16" r="1094.36" gradientTransform="translate(1942.64) rotate(-180) scale(1 -1)" xlink:href="#_Безымянный_градиент_39"/><linearGradient id="_Безымянный_градиент_54-3" x1="633" y1="1597.57" x2="667.57" y2="1697.37" gradientTransform="translate(1942.64) rotate(-180) scale(1 -1)" xlink:href="#_Безымянный_градиент_54"/><radialGradient id="_Безымянный_градиент_40-7" cx="-4355.98" cy="12608.33" fx="-4355.98" fy="12608.33" r="104.09" gradientTransform="translate(-1194.29 522.21) rotate(-180) scale(.56 -.09)" xlink:href="#_Безымянный_градиент_40"/></defs><g class="cls-25"><g id="_Слой_1"><g><rect class="cls-1" x="5789.9" y="2315" width="1282.32" height="1222.09" rx="431.44" ry="431.44"/><g><path class="cls-14" d="M6102.9,2752.02c-9.12-1.02-18.14-2.1-26.9-3.2-64.85-8.16-118.89-18.3-160.63-30.12-21.78-6.17-39.86-12.74-53.75-19.54-14.22-6.96-24.15-14.22-29.52-21.56-3.19-4.36-4.8-8.81-4.8-13.24,0-10.53,9.03-20.92,26.83-30.89,12.04-6.74,28.15-13.29,47.89-19.48,19.42-6.09,42.5-11.87,68.59-17.19,26.27-5.35,55.77-10.26,87.68-14.6,12.89-1.75,26.36-3.43,40.02-4.99,47.63-5.45,99.36-9.69,153.74-12.6,54.92-2.94,112.17-4.51,170.16-4.65,2.92,0,5.89-.01,8.81-.01,58.12,0,115.6,1.42,170.82,4.24,56.41,2.87,110.04,7.16,159.4,12.74,48.68,5.51,92.48,12.19,130.19,19.87,36.78,7.49,67.21,15.82,90.44,24.75,23.86,9.17,39.86,18.89,47.56,28.88,3.53,4.58,5.32,9.27,5.32,13.92,0,5.99-2.96,12-8.78,17.85-10.17,10.22-29.09,20.09-56.22,29.34-10.42,3.55-22.15,7.04-34.87,10.36-18.67,4.88-39.87,9.52-63.02,13.8-36.92,6.82-78.92,12.75-124.83,17.64-46.6,4.96-96.82,8.79-149.28,11.39-53.95,2.67-110.04,4.03-166.71,4.03h-.45c-54,0-107.54-1.25-159.14-3.69-8.53-.4-17.13-.85-25.59-1.32-26.51,2.7-153.65-8.71-142.94-11.74Z"/><ellipse class="cls-9" cx="6430.82" cy="3201.24" rx="466.5" ry="71.26"/><rect class="cls-26" x="5985.18" y="2645.29" width="900.22" height="561.18" rx="49.67" ry="49.67"/><g><path class="cls-6" d="M6807.84,2996.3h-263.95c-.86,0-1.56-.7-1.56-1.56s.7-1.56,1.56-1.56h263.95c.86,0,1.56,.7,1.56,1.56s-.7,1.56-1.56,1.56Z"/><path class="cls-6" d="M6807.84,3050.69h-263.95c-.86,0-1.56-.7-1.56-1.56s.7-1.56,1.56-1.56h263.95c.86,0,1.56,.7,1.56,1.56s-.7,1.56-1.56,1.56Z"/><path class="cls-6" d="M6807.84,3105.08h-263.95c-.86,0-1.56-.7-1.56-1.56s.7-1.56,1.56-1.56h263.95c.86,0,1.56,.7,1.56,1.56s-.7,1.56-1.56,1.56Z"/></g><g><path class="cls-3" d="M6807.84,2993.17h-263.95c-.86,0-1.56-.7-1.56-1.56s.7-1.56,1.56-1.56h263.95c.86,0,1.56,.7,1.56,1.56s-.7,1.56-1.56,1.56Z"/><path class="cls-3" d="M6807.84,3047.56h-263.95c-.86,0-1.56-.7-1.56-1.56s.7-1.56,1.56-1.56h263.95c.86,0,1.56,.7,1.56,1.56s-.7,1.56-1.56,1.56Z"/><path class="cls-3" d="M6807.84,3101.95h-263.95c-.86,0-1.56-.7-1.56-1.56s.7-1.56,1.56-1.56h263.95c.86,0,1.56,.7,1.56,1.56s-.7,1.56-1.56,1.56Z"/></g><polygon class="cls-27" points="6004.01 2681.76 6439.35 2957.95 6875.02 2681.76 6004.01 2681.76"/><polygon class="cls-3" points="6004.01 2670.61 6439.35 2925.71 6875.02 2670.61 6004.01 2670.61"/></g></g><path class="cls-1" d="M12000,0V4200H0c.01-.42,.02-.85,0-1.27V0H12000Z"/><ellipse class="cls-10" cx="3760.2" cy="1795.23" rx="892.62" ry="179.57"/><g><path class="cls-5" d="M3697.35,2777.62c11.35,60.18,29.52,77.2,31.79,128.3,2.27,51.09,61.31,60.16,49.96,101.04-11.35,40.87,28.39,120.35,61.31,122.61,32.93,2.27,61.31-51.09,84.02-42.01,22.71,9.09,10.22,52.23-11.35,84.02-21.57,31.79-10.22,93.11,31.79,111.28,42.01,18.15,31.79,70.38,31.79,122.61,0,52.23,54.5,68.12,95.37,69.25,40.88,1.14,69.25,2.27,113.54,2.27,44.28,0,107.86-20.43,114.68-57.9,6.8-37.46,92.52-45.98,92.52-45.98,0,0-43.14,120.35-89.69,185.08-16.9,23.51-43.87,44.92-73.51,65.44-86.74,60.02-160.5,136.9-216.64,226.19l-220.15,350.18h1472.42c-19.64-33.3-37.64-63.39-50.98-84.92-55.63-89.69-200.97-319.04-214.59-366.72-13.62-47.68,5.16-144.78,37.46-175.99,114.11-110.12,204.37-174.84,299.74-153.27,95.37,21.58,181.66-11.35,199.83-78.33,18.17-66.99-12.49-96.51-13.62-120.35-1.14-23.84,20.44-14.76,45.41-66.99,24.98-52.22-39.74-77.2-39.74-77.2,56.78-24.97,17.03-78.34,6.82-89.69-10.14-11.26-35.92-50.46-36.32-51.07,.37,.25,6.76,4.24,40.85-4.56,35.21-9.08,49.96-60.18,39.74-96.51-10.22-36.32-96.5-103.32-126.02-137.38-29.53-34.06-28.39-60.18-27.26-86.29,1.14-26.1,24.98-57.89,19.31-82.88-5.69-24.97-15.91-64.72-27.26-106.72-11.35-42.01-27.24-85.16-48.81-123.76-21.58-38.61-91.97-116.95-91.97-116.95,19.3-28.39-28.39-64.71-20.44-91.97,7.95-27.24-2.27-30.65-36.33-53.36-34.06-22.71,20.44-44.28,20.44-95.37,0-51.1,14.77-84.02-39.74-118.08-54.5-34.06-6.82-62.45-26.11-101.04-19.3-38.61-66.98-29.53-121.48-51.1-54.5-21.57-124.9,42.01-173.71,21.57-48.83-20.43-108.99,10.22-161.22,28.39-52.23,18.17-64.72,49.96-151.01,23.84-86.28-26.11-135.1,44.28-143.05,68.12-7.95,23.84-73.8,12.49-106.72-11.35-32.93-23.84-89.69,20.44-126.03,12.49-36.33-7.95-76.07-15.9-99.91,9.08-23.84,24.97-40.88,45.41-69.25,39.74-28.39-5.67-53.37,29.52-56.77,131.7-3.4,102.19-3.4,101.04-54.5,113.54-51.09,12.49-36.32,15.89-47.68,54.5-11.35,38.61-11.35,39.74-66.98,45.41-55.63,5.67-26.12,91.97-28.39,133.98-2.27,42.01-7.95,64.72-48.81,85.15-40.88,20.44,6.8,99.91,0,131.7-6.82,31.79,20.43,51.1-7.95,76.07-28.39,24.99-26.12,84.02-14.77,144.2Z"/><path class="cls-2" d="M4476.26,4200c-101.75-109.77-312.2-348.43-309.25-441.72,3.89-122.96,262.27-497.11,265.3-485.72,3.03,11.39,77.65,12.29,81.14,16.23,3.48,3.95,55.07-15.25,66.92-25.73,11.85-10.46,63.48,30.08,71.26,24.95,7.78-5.11,17.43-10.11,26.73-9.55,9.29,.58,36.73,9.75,44.62,2.77,7.91-6.98,34.86-20.24,52.63-35.94,17.78-15.7,8.14,19.17,22.31,1.38,14.17-17.79,42.88,.8,52.88-9.79,9.98-10.58,59.13-50.47,48.91-36.17-10.23,14.3,90.28-41.07,121.63-95.13,31.35-54.06,49.44-135.08,44.66-148.44-4.77-13.37,.45-37.32,5.09-51.96,4.64-14.65-8.27-47.17-9.91-51.01-1.62-3.84,22.54-2.33,26.85-11.4,4.29-9.07-25.13-46.36-26.42-55.78-1.28-9.4,27.44,9.17,33.13,7.65,5.69-1.51-18.4-64.6-15.96-73.79,2.43-9.18-35.94-52.64-51.06-79.7-15.12-27.08-61.64-59.82-61.64-59.82,18.12-21.28-23.62-70.54-23.62-70.54,0,0,67.14-59.31,77.02-68.03,9.87-8.72,5.8-33.24-2.24-54.27-8.03-21.04,10.23-14.3,18.59-28.71,6.93-11.95-66.69-50.74-91.99-63.62,13.09,2.02,44.26-5.99,111.78-75.17,99.67-102.09-90.04-173.58-104.11-187.52-14.08-13.94-118.28-139.87-143.63-182.51-25.36-42.64-10.49-41.72,17.84-107.16,28.31-65.45-.3-115.76-71.51-262.04-71.21-146.29-125.17-209.37-144.95-251.66,0,0,84.17-47.98,142.5-85.44,58.32-37.46,43.45-143.85,45.97-184.76,2.54-40.91-119.43-15.79-118.19-95.99,1.24-80.19-75.86-161.5-75.86-161.5,0,0-28.74,57.01-42.82,13.2-14.09-43.8-68.2-59.29-89.24-81.13-21.05-21.83-95.57-54.45-93.93-50.63,1.62,3.84,46.92,41.18,32.38,34.68-14.53-6.49-12.73,9.48-12.73,9.48,0,0,33.18,97.26-21.32,103.22-54.5,5.95-85.93-89.33-102.58-122.09-16.64-32.77-82.21-89.1-82.21-89.1,20.01,38.58,14.21,71.82,14.21,71.82-16.86-29.05-72.19-39.93-72.19-39.93,0,0,94.44,132.79-14.47,112.97-108.92-19.81-335.18,16.57-399.58,1.38-64.38-15.19-253.8,58.95-280.54,38.62-26.74-20.33-265.18,61.97-340.81,107.69-75.64,45.72-111.48,172.29-132.64,152.31-21.17-19.98-48.91,36.17-67.37,63.03-18.47,26.86-48.56,30.59-84.71,41.43-36.13,10.82-35.77,35.12-50.75,65.92-14.84,30.56,2.88,97.98,3.18,99.13-1.2-.52-80.15-34.79-104.37-32.59-24.41,2.23,78.04,96.32,78.04,96.32l-60.54,13.05,21.77,70.41s-18.78,92.18-63.84,156.59c-45.06,64.41,7.58,239.41,6.57,315.89-1.01,76.47,150.11,349.04,198.37,383.77,48.24,34.72,61.34,184.88,123.07,212.96,61.73,28.1,157.8,164.72,182.35,220.38,24.55,55.65,38.26,256.24,1.35,339.83-36.92,83.58-105.79,170.79-178.42,168.15-62.55-2.27-721.68,798.46-903.49,1020.84h2409.84Z"/><path class="cls-3" d="M5191.62,2785.35c-3.47-11.87-8.71-29.74-8.42-33.92,1.89-7.88-5.26-18.58-25.83-46.68-9.76-13.32-19.85-27.11-25.95-38.02-12.76-22.85-45.49-48.63-58.42-58.28,9.29-21.84-13.07-54.56-23.29-67.82,15.79-13.95,63.75-56.31,71.98-63.58,16.23-14.34,3.85-51.13-.32-62.06-2.14-5.59-1.42-7.03-1.41-7.04,.37-.7,2.74-1.9,4.48-2.78,4.52-2.29,10.73-5.43,15.03-12.85,1.05-1.81,2.05-4.79,.89-8.72-1.66-5.61-7.94-14.69-42.08-35.25-11.66-7.02-24.17-13.93-34.85-19.63,23.82-8.92,55.55-33.61,94.77-73.8,23.72-24.29,33.83-49.26,30.05-74.2-8.19-54.15-78.45-92.25-116.2-112.72-7.69-4.17-16.4-8.9-18.05-10.53-14.35-14.21-118.11-140.02-142.53-181.1-17.14-28.82-14.86-33.31,.01-62.5,4.99-9.79,11.19-21.97,18.24-38.26,13.66-31.56,14.87-60.94,4.08-98.24-10.43-36.05-31.28-78.72-62.84-143.3-4.12-8.44-8.41-17.22-12.87-26.38-45.57-93.6-83.48-152.32-111.16-195.19-13.07-20.24-23.74-36.77-30.88-50.57,20.03-11.51,88.02-50.84,137.06-82.34,50.76-32.6,49.72-110.48,49.03-162.01-.15-11.22-.28-20.9,.17-28.24,.66-10.61-4.78-19.09-16.17-25.21-8.81-4.73-20.58-7.9-33.05-11.25-16.19-4.34-34.54-9.27-47.95-18.34-14.62-9.87-21.29-23.06-21.01-41.52,.54-34.65-12.43-73.23-38.55-114.69-19.27-30.58-38.43-50.92-39.24-51.77l-6.89-7.27-4.51,8.95c-6.33,12.55-17.29,26.31-22.51,25.87-1.69-.13-4.62-3.26-7.31-11.65-10.17-31.61-39.32-49.5-62.74-63.87-11.17-6.85-21.72-13.33-28.14-20-12.46-12.91-40.16-27.74-55.57-35.44-9.76-4.87-19.64-9.41-27.82-12.8-12.75-5.28-16.03-5.88-19.47-3.6-2.9,1.92-4,5.65-2.64,8.85,1.05,2.48,3.18,4.65,16.32,16.64,2.7,2.47,6.16,5.63,9.4,8.66-.25,.16-.49,.33-.72,.49-6.78,4.96-6.06,14.55-5.85,16.42l.08,.76,.25,.72c5.44,15.99,16.64,62.06,3.3,83.02-4.09,6.42-10.21,9.99-18.72,10.92-40.65,4.45-69.15-59.71-86.19-98.04-3.53-7.95-6.59-14.82-9.34-20.23-17.08-33.63-81.18-88.92-83.9-91.26l-27.59-23.7,16.75,32.29c10.14,19.57,13.25,37.78,13.98,50.33-23.72-20.4-62.38-28.22-64.35-28.61l-17.35-3.41,10.25,14.41c19.28,27.11,45.51,76.99,33.8,95.4-6.62,10.42-26.1,9.32-41.27,6.56-59.71-10.87-153.94-5.09-237.08,0-68.69,4.21-133.56,8.19-162.14,1.45-34.92-8.24-100.35,7.48-163.62,22.68-28.17,6.76-54.77,13.15-75.9,16.63-29,4.78-36.5,1.98-38.37,.56-5.62-4.27-17.46-8.07-59.57,.52-26.37,5.39-60.6,14.88-98.96,27.47-77.21,25.32-153.64,57.18-190.19,79.28-42.87,25.9-72.94,76.11-94.9,112.76-7.26,12.12-13.53,22.59-19.02,30.14-6.27,8.61-9.24,10.18-10.08,10.46-.05-.04-.1-.08-.16-.14-4.98-4.7-10.88-6.76-17.07-5.97-18.19,2.33-34.51,28.39-50.3,53.58-3.8,6.08-7.4,11.82-10.65,16.55-13.85,20.13-35.43,26.04-62.75,33.53-5.85,1.6-11.9,3.26-18.17,5.14-30.95,9.27-38.21,27.95-46.61,49.57-2.49,6.41-5.07,13.04-8.46,20.02-11.78,24.25-5.1,67.87-.44,90.36-25.18-10.36-75.11-29.58-95.05-27.77-6.73,.62-8.95,5.11-9.59,7.01-2.16,6.39-.99,16.79,40.56,59.67,12.21,12.61,24.73,24.69,33.07,32.6l-54.91,11.84,23.5,76c-2.84,12.86-21.97,94.52-62.34,152.23-32.09,45.87-17.9,139.88-5.38,222.83,5.65,37.45,10.99,72.82,10.67,97-.68,52.35,62.24,174.69,81.54,210.94,39.73,74.61,92.16,158.79,119.76,178.65,20.14,14.49,34.96,54.43,49.28,93.06,18.97,51.15,38.59,104.03,74.99,120.59,59.09,26.89,153.9,160.3,178.83,216.81,23.39,53.02,37.73,251.74,1.35,334.15-36.83,83.37-104.2,166.42-171.73,163.95-7-.25-18.94,3.81-54.31,35.91-23.41,21.25-54.73,52.74-93.07,93.59-66.47,70.81-155.71,171.45-265.24,299.13-183.5,213.91-382.15,455.06-476.49,570.25h18.21c96.99-118.34,290.19-352.66,468.97-561.08,109.39-127.51,198.49-228,264.82-298.66,38.09-40.57,69.13-71.79,92.27-92.79,34.16-31.01,42.92-32.31,44.33-32.27,35.24,1.3,72.55-17.35,107.93-53.88,29.49-30.45,56.91-72.52,77.2-118.46,16.78-38.02,25.16-104.88,22.97-183.44-1.91-68.29-11.68-133.43-24.32-162.08-13.27-30.08-44.67-79.11-78.13-122.02-55.64-71.34-91.39-94.49-107.76-101.93-31.06-14.13-49.64-64.23-67.61-112.67-15.75-42.48-30.64-82.6-54.26-99.6-21.6-15.55-70.2-88.65-115.55-173.83-49.71-93.34-80.32-171.56-79.89-204.13,.33-25.33-5.09-61.26-10.83-99.29-11.52-76.36-25.87-171.4,2.99-212.65,45.38-64.87,64.19-155.4,64.97-159.23l.36-1.76-20.03-64.79,66.33-14.29-10.02-9.21c-.2-.19-20.17-18.56-40.06-38.91-26.63-27.28-35.29-39.87-38.11-45.22,20.86,1.29,71.44,21.04,96.86,32.02l13.31,5.69-3.63-13.93c-5.96-22.92-14.4-72.11-3.65-94.23,3.64-7.5,6.45-14.71,8.92-21.07,7.93-20.41,13.17-33.89,37.52-41.18,6.11-1.84,12.08-3.47,17.86-5.05,28.9-7.92,53.86-14.76,70.63-39.14,3.42-4.97,7.1-10.84,10.98-17.05,11.38-18.16,28.57-45.6,40.15-47.08,1.33-.17,3.16-.07,5.6,2.23,4.21,3.97,8.6,4.32,11.53,3.92,12.13-1.68,22.43-18.88,39.5-47.38,21.2-35.39,50.23-83.85,90.1-107.94,35.73-21.6,110.99-52.93,187.29-77.95,37.86-12.42,71.54-21.77,97.39-27.05,40.09-8.18,47.51-3.66,48.22-3.12,14.85,11.29,55.51,2.25,126.09-14.7,58.8-14.13,125.44-30.13,157.1-22.67,30.59,7.22,93.45,3.37,166.23-1.09,82.34-5.05,175.67-10.77,233.7-.21,28.26,5.14,46.99,.81,55.68-12.86,9.13-14.35,5.88-37.73-9.64-69.49-4.78-9.79-9.97-18.82-14.34-25.95,16.66,5.36,40.67,15.57,50.13,31.87l9.71,16.72,3.32-19.05c.19-1.09,3.47-20.93-3.79-47.8,20.29,19.06,48.74,47.71,58.57,67.07,2.59,5.09,5.57,11.8,9.03,19.58,18.59,41.84,49.73,111.88,100.6,106.32,12.85-1.41,22.63-7.25,29.07-17.37,18.65-29.32,1.11-86.08-1.56-94.23-.01-.79,.08-1.85,.26-2.55,.52,.09,1.37,.31,2.63,.88,6.92,3.1,10.23,.09,11.58-1.98,3.79-5.77-1.51-10.99-7.13-16.51-.81-.8-1.67-1.63-2.58-2.49,21.24,10.28,46.98,24.49,57.48,35.38,7.68,7.96,18.97,14.89,30.92,22.23,22.56,13.84,48.12,29.53,56.69,56.17,4.35,13.52,10.95,20.71,19.63,21.39,12.83,1.01,24.57-14.11,31.16-24.69,18.13,21.3,68.53,86.29,67.55,149.33-.8,52.15,45.55,64.6,79.4,73.69,24.5,6.58,39.48,11.16,38.81,21.98-.49,7.87-.35,17.8-.2,29.29,.65,48.43,1.62,121.6-42.55,149.98-57.5,36.93-141.34,84.77-142.18,85.25l-5.65,3.22,2.75,5.88c7.38,15.78,19.43,34.44,34.68,58.06,27.48,42.57,65.13,100.87,110.32,193.7,4.46,9.17,8.76,17.96,12.88,26.4,60.94,124.72,83.74,171.39,58.49,229.76-6.87,15.88-12.97,27.85-17.86,37.46-15.47,30.38-20.68,40.61,.43,76.1,25.64,43.12,129.88,169.22,144.73,183.91,2.94,2.92,8.97,6.25,21.25,12.9,33.05,17.93,101.83,55.23,108.98,102.45,3.08,20.34-5.74,41.29-26.2,62.25-68.47,70.15-96.7,74.51-105.66,73.12l-43.47-6.71,39.2,19.95c11.3,5.76,33.17,17.16,52.58,28.84,27.23,16.37,33.95,23.88,35.58,26.37-2.14,2.85-5.02,4.3-8.28,5.96-8.62,4.36-16.48,10.07-9.87,27.41,9.41,24.61,9.21,42.01,4.16,46.47-9.88,8.72-77.02,68.03-77.02,68.03l-5.17,4.57,4.46,5.27c12.36,14.58,34.4,48.78,23.64,61.42l-5.01,5.88,6.32,4.44c.45,.32,45.36,32.12,59.54,57.5,6.52,11.67,16.87,25.81,26.88,39.48,8.93,12.18,22.33,30.48,23.36,35.71-1.11,5.88,1.76,16.69,8.74,40.52,2.25,7.68,5.28,18.03,6.9,25.04-1.56-.66-3.15-1.36-4.49-1.95-11.2-4.92-19.29-8.47-24.94-4.22-2.64,1.99-3.87,5.19-3.39,8.78,.69,5,4.86,12.02,12.17,23.98,5,8.19,14.16,23.17,14.6,28.14-1.98,1.95-10.55,3.49-13.47,4.02-6.22,1.12-10.71,1.93-12.92,6-1.14,2.11-1.25,4.59-.3,6.84,4.36,10.24,12.85,36.07,9.67,46.12-2.78,8.76-11.33,38.72-5.01,56.47,1.06,3.04,.27,21.07-8.97,54.84-8.93,32.6-21.74,64.56-35.15,87.69-23.44,40.42-86.54,80.86-108.71,91.35-.37-.46-.76-.83-1.08-1.09-4.97-4.09-10.9-.01-16.12,3.59-4.03,2.78-9.38,6.81-15.48,11.66-10.16,8.11-23.11,19.12-28.18,24.49-1.94,2.05-8.94,1.21-15.12,.47-11.34-1.35-26.72-3.19-37.14,8.57-1.36-2.78-3.54-5.64-7.49-6.68-5.97-1.56-11.41,2.45-14.98,5.61-10.21,9.01-23.86,17.36-34.83,24.07-7.92,4.84-14.18,8.67-17.8,11.86-.02,.01-1.79,1.32-9.32,.66-5.6-.49-12.05-1.84-17.74-3.03-5-1.04-9.32-1.95-12.48-2.14-8.89-.53-18.37,2.59-29.76,9.87-3.9-.85-13.96-6.3-21.44-10.36-21.29-11.53-41.39-22.42-51.88-13.17-9.68,8.55-49.96,23.74-59.33,24.47-3.3-1.76-9.65-2.5-27.34-4.21-13.44-1.3-44.52-4.31-50.34-8.47-1.3-2.88-4.3-4.63-7.56-4.27-3.25,.38-5.74,1.44-19.23,19-8.26,10.76-19.1,25.79-31.35,43.46-16.82,24.29-50.88,74.65-89.88,139.02-58.48,96.53-128.63,225.41-130.71,291.27-.74,23.37,10.27,54.98,33.66,96.61,19.35,34.44,47.32,75.67,83.14,122.57,52.66,68.93,113.74,139.11,163.33,193.76h19.06c-50.8-55.64-115.73-129.71-171.19-202.31-95.69-125.27-114.76-183.44-113.92-210.18,1.52-48.13,45.86-146.87,124.83-278.04,59.97-99.6,117.47-180.64,133.05-198.62,8.94,5.09,26.96,7.43,55.75,10.22,8.43,.82,18.81,1.82,21.89,2.64,1.36,.96,3.04,1.51,5.01,1.63,12.1,.79,58.55-17.65,70.31-27.86,.51-.15,3.49-.66,12.64,3.14,7.2,2.98,15.41,7.43,23.34,11.73,19.28,10.45,28.07,14.88,34.63,10.56,9.15-6.01,16.49-8.76,22.42-8.4,2.14,.13,6.18,.98,10.46,1.87,17.55,3.67,31.58,5.94,39.27-.85,2.7-2.39,9.08-6.28,15.83-10.41,11.44-7,25.67-15.7,36.81-25.53,.49-.44,.94-.81,1.32-1.11,.01,.02,.01,.04,.02,.06,1.08,3.1,2.88,8.3,8.48,9.26,5.58,.95,9.86-3.37,13.33-7.72,5.14-6.46,13.42-6,25.45-4.56,9.95,1.19,20.24,2.42,27.05-4.79,6.68-7.08,28.07-24.65,39.57-32.94,1.21,.76,2.66,1.2,4.23,1.26h.24c9.99,0,40.79-19.42,58.02-31.77,18.76-13.45,52.73-40.32,69.45-69.15,19.18-33.09,31.15-71.32,36.58-91.16,2.26-8.26,13.29-50.13,8.62-63.18-3.85-10.82,.38-32.33,5.17-47.47,4.35-13.75-3.28-37.75-7.56-49.32l.18-.03c8.39-1.51,19.89-3.58,23.97-12.18,3.99-8.43-3.32-21.15-15.57-41.19-1.96-3.2-4.26-6.97-6.19-10.31,1.67,.7,3.31,1.42,4.65,2.01,9.59,4.21,14.8,6.35,19.26,5.16,2.06-.54,3.79-1.89,4.86-3.8,2.83-5,1.02-12.79-7.34-41.31Z"/><path class="cls-5" d="M1613.49,2529.23c3.59,39.48,26.89,37.67,64.58,50.23,37.67,12.55-1.8,39.46-12.57,69.97-10.77,30.5-26.91,129.17,28.71,172.23,55.6,43.05,170.43,55.62,269.1,64.58,18.49,1.68,35.87,3.55,52.07,5.96,70.25,10.46,117.46,31.13,129.14,90.92,14.35,73.55,26.91,138.14,46.64,226.05,7.75,34.5,24.6,85.31,41.14,138.3,25.62,82.06,50.48,169.41,39.58,209.73-13.51,49.98-253.78,448.76-371.7,642.79h1567.32c-39.79-129.92-109.04-345.58-158.67-443.64-39.46-77.97-77.88-152.83-112.51-220.18-29.93-58.16-56.99-110.71-79.44-154.78-48.45-95.09-145.32-252.97-132.77-339.07,0,0,61.93-4.53,136.77-15.11,81.69-11.56,178.74-30.36,227.42-58.45,93.29-53.83,116.61-89.7,150.71-209.9,34.07-120.2,107.63-154.29,122-238.61,14.34-84.31,10.75-113.01,53.8-181.19,43.06-68.17,136.36-150.7,145.32-224.25,8.97-73.56-37.67-202.74,0-294.23,37.69-91.49-16.14-220.67-41.25-281.66-4.29-10.42-11.88-22.13-21.56-34.66-47.01-60.9-143.55-141.07-152.48-184.21-10.75-52.03-104.04-235.01-186.57-258.34-82.53-23.32-217.08-141.73-312.16-111.24-95.08,30.5-163.25-48.44-233.22-57.41-69.97-8.97-233.22-84.33-294.23-48.44-31.07,18.27-57.48,25.85-87.56,28.87-28.93,2.93-61.26,1.63-104.39,1.63-87.93,0-218.88,41.26-224.26,118.4-5.39,77.15-55.62,163.28,8.97,244,64.58,80.74,60.09,113.92,60.09,113.92-30.48,7.18-181.19,66.37-261.92,208.1-80.74,141.73-35.89,290.63-50.24,330.09-14.34,39.48-7.18,75.36-104.04,132.77-96.88,57.42-184.8,102.26-181.21,157.87,3.59,55.62,44.85,95.08,80.73,98.67,0,0-24.21,51.14-33.17,60.11-8.98,8.98-17.96-3.59-34.1,14.35-16.14,17.94-21.52,86.11,30.51,109.43,0,0-68.17,26.92-64.58,66.38Z"/><path class="cls-3" d="M3676.6,1845.59c38.38-93.15-14.96-222.71-40.6-284.98l-.64-1.56c-4.22-10.27-11.56-22.09-22.41-36.14-17.77-23.01-42.65-48.89-66.72-73.89-39-40.56-79.34-82.48-84.57-107.7-5.35-25.92-30.73-84.52-67.23-142.06-30.36-47.88-76.49-107.75-123.88-121.15-27.54-7.78-61.79-26.86-98.05-47.06-71.55-39.85-152.65-85.02-217.82-64.11-57.81,18.54-105.15-5.06-150.92-27.89-27.19-13.54-52.85-26.35-79.52-29.77-21.99-2.82-54.55-12.7-89.03-23.15-77.57-23.54-165.48-50.21-209.27-24.45-28,16.47-53.4,24.85-84.95,28.01-21.41,2.17-44.4,1.99-73.49,1.75-9.6-.08-19.53-.15-30.25-.15-47.57,0-103.4,11.81-145.71,30.83-52.96,23.81-82.34,56.16-84.94,93.53-1.44,20.65-6.14,41.78-11.1,64.16-6.57,29.61-13.37,60.25-12.52,91.08,.96,35.34,12.08,65.83,33.98,93.21,48.9,61.13,57.17,94.15,58.5,105.06-17.67,5.2-59.82,21.21-109,53.07-82.03,53.13-127.88,114.55-151.89,156.72-57.35,100.68-52.43,203.38-49.17,271.34,1.32,27.41,2.35,49.06-1.53,59.73-2.57,7.07-4.47,14.05-6.32,20.79-8.78,32.14-17.08,62.5-94.97,108.66-9.9,5.87-19.8,11.65-29.37,17.25-41.89,24.5-81.45,47.64-109.63,70.7-32.55,26.62-46.95,50.73-45.33,75.85,1.74,27.05,12.34,52.85,29.85,72.68,13.79,15.62,30.82,26.39,47.81,30.45-9.44,19.4-23.01,45.47-28.25,50.71-1.77,1.77-3.14,1.86-7.17,1.88-6.68,.04-15.81,.1-27.16,12.72-11.24,12.49-15.87,40.11-10.77,64.23,4.43,20.93,15.57,37.89,31.86,48.91-20.46,10.23-59.8,34.37-56.78,67.55,3.34,36.76,23.05,42.36,50.32,50.1,5.89,1.68,11.99,3.41,18.62,5.62,4.49,1.49,10.08,4.01,11.28,7.52,1.82,5.32-5.04,15.47-11.66,25.28-5.87,8.7-12.52,18.54-16.2,28.95-4.85,13.75-12.61,46.88-10.89,83.83,1.99,42.94,16.41,76,41.72,95.59,55.56,43.02,165.06,56.14,272.44,65.89,20.99,1.91,37.42,3.79,51.7,5.92,66.17,9.85,112.55,28.22,123.79,85.81l.86,4.39c14.2,72.75,26.46,135.59,45.82,221.84,6.22,27.75,18.38,66.21,31.24,106.92,3.31,10.46,6.68,21.12,10.04,31.88,26.51,84.9,49.64,168.65,39.5,206.14-9.33,34.51-140.05,260.76-359.29,621.9h14.98c134.6-221.8,343.79-570.84,356.68-618.55,11.54-42.7-14.42-132.49-39.64-213.31-3.36-10.77-6.74-21.45-10.05-31.92-12.78-40.45-24.85-78.65-30.96-105.88-19.32-86.06-31.57-148.82-45.75-221.48l-.86-4.39c-13.44-68.8-72.57-86.81-134.48-96.04-14.53-2.16-31.19-4.06-52.44-6-105.51-9.59-212.92-22.37-265.76-63.27-28.1-21.76-35.51-58.8-36.76-86.05-1.42-30.45,4.28-62.28,10.18-78.98,3.13-8.87,9.02-17.6,14.73-26.04,8.76-12.99,17.04-25.24,13.18-36.59-2.34-6.91-8.69-12-19.36-15.55-6.9-2.3-13.42-4.16-19.17-5.78-26.44-7.51-38.52-10.94-41.06-38.95-2.58-28.4,42.85-52.83,60.56-59.85l14.15-5.58-13.88-6.22c-24.06-10.78-32.93-31.12-36.14-46.29-4.69-22.2,.38-44.8,7.77-53.02,7.56-8.41,12.25-8.43,17.7-8.46,4.71-.03,10.58-.06,16.16-5.64,9.48-9.48,31.9-56.56,34.43-61.9l3.89-8.22-9.04-.9c-33.54-3.35-71.66-41.41-74.97-92.7-2.97-45.98,67.29-87.07,148.64-134.66,9.59-5.6,19.5-11.41,29.43-17.29,82.34-48.8,91.73-83.11,100.8-116.31,1.86-6.79,3.61-13.21,6-19.79,4.77-13.09,3.73-34.74,2.29-64.72-3.18-66.47-8.01-166.94,47.5-264.38,42.23-74.15,103.64-123.75,147.72-152.3,53.34-34.56,97.56-49.79,110.11-52.74l4.29-1.01,.59-4.37c.49-3.67,2.99-38.22-61.44-118.78-44.98-56.22-31.74-115.85-18.95-173.51,4.85-21.84,9.87-44.44,11.37-66.04,5.05-72.4,132.02-112.44,217.87-112.44,10.66,0,20.57,.08,30.15,.15,28.31,.23,52.77,.42,74.88-1.82,33.5-3.35,60.47-12.24,90.17-29.71,38.95-22.91,127.71,4.02,199.05,25.67,35,10.61,68.05,20.64,91.11,23.6,24.53,3.15,49.25,15.48,75.44,28.53,34.25,17.08,71.91,35.87,114.97,35.86,14.55,0,29.73-2.15,45.6-7.23,59.86-19.21,138.38,24.53,207.66,63.11,36.92,20.57,71.82,40,100.8,48.19,33.93,9.59,75.31,50.67,116.53,115.67,34.38,54.22,60.3,112.64,65.51,137.81,5.98,28.83,45.76,70.19,87.88,113.98,23.83,24.77,48.46,50.37,65.81,72.85,10.15,13.14,16.92,23.98,20.7,33.18l.64,1.56c24.98,60.68,76.98,186.94,40.61,275.22-24.05,58.4-14.77,130.97-6.58,194.99,4.86,37.97,9.44,73.83,6.14,100.9-5.75,47.19-48.13,98.89-89.11,148.89-20.93,25.54-40.71,49.66-55.26,72.71-35.51,56.23-39.93,86.19-47.99,140.57-1.86,12.59-3.98,26.84-6.72,42.97-6.72,39.41-26.88,67.52-50.25,100.07-25.19,35.09-53.73,74.85-71.59,137.87-34.48,121.55-57.96,154.3-147.75,206.11-38.76,22.36-116.6,42.3-225.11,57.65-73.74,10.43-135.72,15.02-136.35,15.07l-5.13,.38-.74,5.08c-10.7,73.38,53.42,192.94,104.95,289.02,10.35,19.33,20.14,37.58,28.45,53.89,20.26,39.77,44.79,87.45,70.76,137.92l8.69,16.88c35.54,69.12,73.76,143.63,112.49,220.15,46.82,92.53,111.76,292.25,150.73,418.17h13.42c-84.02-272.11-131.59-382.24-152.72-423.97-38.74-76.55-76.98-151.07-112.53-220.21l-8.69-16.89c-25.97-50.46-50.49-98.11-70.74-137.86-8.37-16.44-18.19-34.74-28.58-54.12-46.81-87.3-110.5-206.09-104.14-276.07,16.58-1.34,70.15-6.01,131.92-14.74,111.7-15.81,188.99-35.74,229.73-59.25,50.59-29.18,78.51-52.16,99.57-81.91,23.22-32.78,37.91-74.73,54.1-131.79,17.25-60.87,45.1-99.68,69.68-133.91,23.27-32.43,45.27-63.06,52.47-105.39,2.77-16.26,4.89-30.59,6.76-43.23,7.79-52.66,12.09-81.66,46.15-135.6,14.14-22.38,33.67-46.21,54.34-71.43,42.14-51.41,85.73-104.58,91.93-155.47,3.49-28.67-1.19-65.29-6.16-104.08-7.98-62.45-17.04-133.23,5.72-188.49Z"/><path class="cls-28" d="M2667.6,1908.77c47.47-89.15,149.35-235.03,459.63-243.13,310.28-8.1,603.2,55.57,730.55,222.29,127.35,166.72,283.65,431.85,127.35,737.5-156.3,305.65-200.29,226.92-251.24,338.07-50.94,111.15-90.31,137.77-133.14,152.83-42.84,15.05-26.63,285.97,40.52,439.95,67.15,153.98,276.71,511.73,260.5,643.72h-1234.18s151.09-252.97,211.29-307.39c60.2-54.42,47.47-144.72,16.21-231.55-31.26-86.83-59.05-223.45-64.84-302.18-5.79-78.73-16.21-138.93-109.99-141.25-93.78-2.32-235.03-6.95-277.86-16.21-42.84-9.26-69.47-24.31-86.83-115.78-17.37-91.46-6.95-111.15-17.37-113.46-10.42-2.32-87.99-60.2-16.21-116.93,0,0-54.42-57.89,18.52-90.31,0,0,11.58-42.84,9.26-48.63-2.32-5.79-60.2-28.94-50.94-75.26,9.26-46.31,137.77-166.72,157.46-195.66,19.68-28.94,28.94-37.05,27.79-87.99-1.16-50.94-11.58-213.03,70.62-328.81,82.2-115.78,112.88-119.83,112.88-119.83Z"/><path class="cls-5" d="M4024,3183.12c-4.26,15.62,2.84,21.3,18.46,42.61,15.62,21.3,17.04,29.82,11.35,44.01-5.67,14.2-51.12,22.72-36.91,31.24,14.2,8.53,22.01,4.26,30.52,22.72,8.53,18.46-23.43,36.92-33.36,42.61-9.95,5.67,26.97,89.45,0,144.83-26.99,55.38-188.24,116.05-230.85,118.89-42.59,2.84-117.05,143.81-142.6,227.59-25.57,83.78-26.99,191.68,4.26,204.47,16.67,6.82,105.12,60.8,196.32,137.92h-1239.95c95.37-135.31,312.69-416.22,414.59-421.92,23.46-1.3,70.28-88.04,77.39-117.86,7.09-29.82,20.59-146.25,17.74-160.45-2.84-14.2-53.96,15.62-83.78-4.26-29.82-19.88-35.5-88.04-34.08-110.76,1.42-22.71-52.54-69.56-65.32-89.45-12.78-19.88,4.26-62.49-4.26-76.69-8.51-14.2-36.92-5.67-46.85-19.88-9.95-14.2,0-58.21-25.57-72.41-25.55-14.21-25.55-90.88-25.55-113.61s12.78-45.43,35.5-70.99c22.71-25.57-17.04-120.7-24.15-146.26-7.09-25.55,51.12-142,62.47-161.87,11.37-19.88,72.42-63.91,72.42-63.91,0,0-51.12-8.51-61.05-44.01-9.95-35.5,28.39-65.32,28.39-65.32-7.09,62.47,35.5,63.89,53.96,58.21,18.46-5.67,59.63-62.47,85.2-102.24,25.55-39.75,29.82-45.43,55.38-65.32,25.55-19.88,61.05,0,69.58,15.62,8.51,15.62,88.02,2.84,110.75-7.09,22.72-9.95,58.22-26.99,66.74-45.45,8.53-18.45,25.57-44.01,56.8-41.17,31.24,2.84,32.66,41.17,35.5,56.8,2.83,15.62,12.78,24.13,39.75,12.78,26.99-11.37,71,12.78,66.74,25.55-4.25,12.79,5.68,25.57,25.57,14.2,19.88-11.35,44.01-4.25,49.7,11.37,5.68,15.62,31.24,22.71,35.5-2.84,4.2-25.19-38.46-53.11-39.73-53.95,114.98,29.82,75.23,85.18,96.54,86.6,21.29,1.42,36.2,2.12,70.28,3.55,34.08,1.42,52.54-32.66,51.12-9.93-1.42,22.72-24.15,93.71,25.55,100.82,49.7,7.11,65.33-7.11,76.69-18.46,11.35-11.35,1.42-36.92,1.42-36.92,21.3,15.62,35.5,49.7,28.39,69.58-7.09,19.88-109.33,38.34-75.25,49.7,34.08,11.37,89.45-7.09,89.45-7.09-32.66,46.85-132.05,59.63-132.05,59.63,0,0,66.03,85.92,75.97,142.7,9.93,56.8,9.93,112.19,0,140.58-9.93,28.39-4.26,41.18,5.68,62.47,9.93,21.3,116.43,100.82,120.7,142,4.25,41.17-56.8,45.43-61.07,61.05Z"/><path class="cls-3" d="M4124.9,3186.81c18.86-8.81,47.36-22.12,44.13-53.47-2.99-28.89-47.69-71.1-83.61-105.01-17.05-16.1-34.69-32.75-37.71-39.24-9.38-20.06-14.54-31.11-5.42-57.17,10.32-29.51,10.44-86.08,.29-144.12-8.27-47.24-52.81-112.22-70.33-136.36,27.93-5.04,97.72-21.23,125.25-60.73l12.14-17.41-20.14,6.7c-.52,.17-51.77,16.99-83.37,7.6,6.42-3.41,18.2-7.89,26.7-11.13,29.25-11.13,47.29-18.7,51.33-30.02,8.15-22.81-6.56-59.81-30.86-77.63l-19.48-14.28,8.75,22.51c2.69,6.94,6.28,23.26,.16,29.39-9.81,9.81-23.26,23.25-70.71,16.47-8.49-1.22-14.65-4.58-18.82-10.27-11.45-15.63-6.37-46.21-3.01-66.45,1.1-6.6,2.04-12.31,2.32-16.69,.2-3.21,.67-10.73-4.93-14.05-5.58-3.3-11.23,.28-17.78,4.43-8.48,5.36-20.1,12.71-35.15,12.08-34.26-1.43-49.2-2.14-70.11-3.54-.13-.01-.24-.02-.32-.03-.7-1.22-1.3-5.13-1.75-8.03-3.02-19.72-8.66-56.42-93.16-78.33l-41.15-10.66,35.53,23.38c13.86,9.12,39.34,30.65,36.63,46.88-.79,4.74-2.87,10.48-8.29,10.98-5.36,.49-11.61-3.8-13.64-9.38-3.08-8.45-10.41-15.34-20.11-18.9-12.59-4.62-27.43-3.19-39.7,3.82-7.42,4.24-12.2,4.01-14.19,2.38-1.85-1.51-2.33-4.83-1.2-8.23,1.41-4.24,1.27-10.99-7.47-19.09-13.38-12.39-45.54-24.93-68.68-15.18-14.15,5.95-20.93,5.13-24.13,3.4-1.09-.59-4.41-2.39-5.96-10.95-.31-1.74-.62-3.81-.97-6.21-2.71-18.64-7.77-53.34-40.82-56.35-26.95-2.45-49.02,13.19-63.84,45.24-5.48,11.88-26.73,25.99-63.16,41.94-10.75,4.7-35.39,10.05-57.32,12.44-32.18,3.51-43.15-.6-44.42-2.27-6.49-11.88-23.19-23-39.72-26.43-15.12-3.14-29.08-.16-40.37,8.63-26.19,20.37-31.04,26.71-56.98,67.07-34.51,53.66-68.72,95.43-81.35,99.31-7.53,2.32-23.11,3.89-33.75-4.93-9.9-8.22-13.65-23.61-11.14-45.75l1.89-16.63-13.21,10.27c-1.72,1.34-41.95,33.18-30.85,72.78,7.47,26.72,34.48,39.6,51.77,45.23-18.92,14.27-53.52,41.64-62.48,57.29-5.64,9.88-23.28,44.41-38.5,79.5-29.87,68.9-25.94,83.09-24.64,87.75,1.38,4.96,3.8,12.04,6.86,21,6.47,18.9,15.33,44.78,20.28,68.42,6.8,32.53,2.95,45.3-1.47,50.28-25.44,28.6-37.28,52.64-37.28,75.67,0,44.44,3.02,105.22,29.17,119.76,12.82,7.12,14.66,25.51,16.28,41.73,1.17,11.68,2.17,21.76,6.94,28.56,6.68,9.55,18.31,11.31,28.57,12.86,7.94,1.19,15.45,2.33,18.02,6.61,2.62,4.36,1.25,16.62,.05,27.44-1.9,17.06-4.04,36.41,4.32,49.43,4.56,7.09,13.32,16.65,23.47,27.71,16.53,18.04,41.51,45.29,40.74,57.48-1.1,17.58,2.07,93.64,37.2,117.07,19.42,12.94,45.26,7.75,64.13,3.96,5.78-1.16,13.4-2.69,16.85-2.53,1.35,18.5-10.9,126.4-17.89,155.78-3.43,14.39-17.07,43.45-31.73,67.6-21.17,34.87-34.59,44.6-39.2,44.86-46.47,2.6-118.67,58-214.58,164.68-88.08,97.96-169.54,209.8-199.75,252.27h17.31c33.81-47.17,110.48-151.15,192.92-242.85,92.01-102.35,162.86-157.68,204.89-160.03,13.13-.73,30.11-18.1,50.46-51.62,15.56-25.64,29.61-55.77,33.39-71.64,6.66-28,21.17-146.59,17.8-163.46-.74-3.7-3.65-9.9-14.9-9.65-5.02,.1-11.19,1.34-18.35,2.78-17.36,3.49-38.98,7.83-53.53-1.87-25.63-17.1-32.44-80.79-30.95-104.47,1.05-16.87-17.75-38.78-44.43-67.88-9.3-10.15-18.09-19.73-21.99-25.81-5.67-8.82-3.81-25.52-2.18-40.25,1.66-14.93,3.09-27.81-1.97-36.25-5.98-9.97-17.68-11.74-28-13.3-8.18-1.23-15.91-2.4-19.13-7-2.65-3.79-3.57-12.98-4.46-21.88-1.87-18.69-4.2-41.95-23.45-52.64-8.19-4.56-21.93-24.58-21.93-107.45,0-19.37,10.71-40.44,33.72-66.31,19.57-22.04,2.83-77.6-16-132.63-2.88-8.39-5.36-15.64-6.63-20.2-.91-3.29-1.88-18.69,24-78.38,15-34.59,32.29-68.46,37.81-78.1,8.7-15.22,53.78-49.69,70.42-61.69l13.66-9.86-16.61-2.81c-.47-.08-46.84-8.25-55.44-38.96-5.05-18.05,4.87-34.93,13.87-45.75,.8,17.74,6.45,31.06,16.89,39.72,14.27,11.84,34.17,11.47,46.88,7.56,24.79-7.62,74.43-82.42,89.06-105.16,25.18-39.18,28.78-44.13,53.78-63.57,10.02-7.8,21.22-7.54,28.85-5.96,13.86,2.88,26.25,12.12,30.22,19.39,1.99,3.65,8.05,14.78,56.96,9.67,23.98-2.5,50.39-8.26,62.8-13.68,40.8-17.86,63.14-33.42,70.3-48.94,12.26-26.52,29-39,49.77-37.11,20.29,1.84,25.04,22.92,28.16,44.35,.36,2.42,.69,4.71,1.05,6.69,1.83,10.09,6.24,17.09,13.11,20.82,8.72,4.72,20.59,3.8,36.31-2.81,13.47-5.68,33.11-.45,45.65,6.81,7.99,4.63,11.19,8.88,11.56,10.33-2.86,8.96-.62,18.07,5.75,23.28,3.49,2.86,13.42,8.49,30.1-1.05,8.71-4.97,19.12-6.02,27.86-2.82,5.8,2.12,10.07,5.95,11.72,10.49,4.19,11.49,16.55,19.67,28.17,18.59,10.88-1,18.7-9.48,20.9-22.69,2.22-13.28-5.42-26.45-14.94-37.2,43.55,18.49,47.03,41.17,49.27,55.74,1.31,8.55,2.94,19.18,15.05,19.99,21.07,1.41,36.07,2.12,70.46,3.56,19.47,.82,34.37-8.62,43.27-14.26,.29-.18,.58-.36,.88-.55-.39,3.42-1.11,7.78-1.92,12.65-3.75,22.57-9.41,56.67,5.54,77.08,6.44,8.79,15.93,14.14,28.2,15.89,50.23,7.19,68.38-6.16,82.66-20.45,5.37-5.37,7.28-12.6,7.51-19.68,9.78,14.85,14.84,33.39,10.69,44.99-.12,.34-1.53,3.51-13.46,9.37-8.49,4.18-19.22,8.27-29.61,12.22-27.55,10.49-39.73,15.54-39.52,25.42,.04,1.95,.17,7.88,11.75,11.74,21.05,7.02,48.9,3.64,68.8-.52-39.4,29.93-109.26,39.28-110.08,39.39l-12.15,1.56,7.47,9.72c.65,.84,65.09,85.21,74.61,139.62,9.61,54.98,9.73,110.05,.29,137.04-11.01,31.48-3.9,46.71,5.95,67.78,3.97,8.51,17.4,21.42,40.81,43.52,30.59,28.89,76.81,72.54,79.26,96.22,2.05,19.8-14.38,29.13-36.07,39.25-12.51,5.85-22.39,10.46-24.78,19.23-4.54,16.63,1.77,24.99,13.24,40.16,1.9,2.5,4.04,5.34,6.33,8.46,15.02,20.48,14.81,26.48,10.5,37.24-1.61,4.03-13.22,9.6-20.15,12.92-11.4,5.47-19.64,9.41-19.99,17.05-.1,2.27,.56,6.57,6.15,9.92,5.07,3.05,9.47,4.66,13.01,5.96,6.76,2.48,10.15,3.73,14.74,13.68,2.19,4.75,1.16,15.43-30.46,33.53-7.89,4.49-5.71,15.59-1.37,37.69,5.98,30.41,15,76.35-1.47,110.17-10.85,22.26-49.55,49.9-106.17,75.83-49.91,22.85-99.6,37.83-118.82,39.11-27.62,1.85-60.54,48.28-83.29,86.9-26.65,45.25-52.39,102.43-65.57,145.66-12.57,41.19-19.86,90.16-19.49,130.98,.3,32.37,5.36,72.88,27.82,82.07,14.1,5.78,89.8,51.43,173.46,119.4h22.19c-89.06-74.18-172.81-125.27-190.31-132.44-5.29-2.16-10.03-9.62-13.36-21.02-3.56-12.19-5.53-28.83-5.71-48.14-.36-39.46,6.7-86.84,18.87-126.73,12.89-42.27,38.11-98.25,64.24-142.63,28.86-49,55.81-78.9,72.09-79.99,23.76-1.58,76.95-18.94,123.75-40.36,26.86-12.31,50.78-25.52,69.17-38.22,22.23-15.35,36.97-30.24,43.79-44.25,18.55-38.07,8.97-86.8,2.64-119.05-1.74-8.83-3.85-19.6-3.7-23.76,5.43-3.15,15.22-9.06,23.15-16.47,15.66-14.64,14.81-26.68,11.34-34.19-7.04-15.26-14.63-18.04-22.68-21-2.11-.77-4.26-1.56-6.58-2.66,2.64-1.45,6.03-3.08,8.65-4.33,11.55-5.54,23.49-11.27,27.14-20.4,6.94-17.33,4.31-28.25-12.21-50.8-2.36-3.21-4.54-6.09-6.46-8.63-11.23-14.85-13.51-18.33-10.89-27.95,.86-2.56,11.06-7.32,17.15-10.17Z"/></g><g><g><g><path class="cls-4" d="M8077.63,1779.48h-165.44v-173.48h5.35v168.39h160.09v5.09Z"/><path class="cls-4" d="M8153.4,1783.49c-36.94,0-67.19-30.25-67.19-67.46s29.98-67.19,67.19-67.19,67.46,29.98,67.46,67.19-30.25,67.46-67.46,67.46Zm0-129.57c-34.27,0-61.84,27.84-61.84,62.11s27.57,62.38,61.84,62.38,62.11-27.84,62.11-62.38-27.84-62.11-62.11-62.11Z"/><path class="cls-4" d="M8254.86,1779.48v-127.96h5.09v27.57c8.83-19.27,27.31-30.25,50.06-30.25,31.59,0,50.86,18.74,53.54,48.46h-5.09c-2.68-26.5-20.08-43.37-48.46-43.37-25.43,0-42.57,14.45-50.06,36.41v89.15h-5.09Z"/><path class="cls-4" d="M8397.01,1724.06c4.02,30.79,29.98,54.35,61.57,54.35,21.95,0,41.49-11.51,52.47-28.91l4.02,3.21c-12.05,18.47-32.66,30.79-56.49,30.79-36.94,0-67.19-30.25-67.19-67.46s28.91-67.19,64.52-67.19,64.79,29.98,64.79,67.19c0,2.68,0,5.35-.27,8.03h-123.41Zm-.27-4.82h118.6v-3.21c0-34.27-26.77-62.11-59.43-62.11s-59.16,27.84-59.16,62.11v3.21Z"/><path class="cls-4" d="M8554.43,1779.48v-127.96h5.09v28.11c10.44-19.54,31.32-30.79,58.09-30.79s45.51,14.99,51.4,39.89c9.1-28.11,33.2-39.89,58.63-39.89,35.61,0,54.88,23.02,54.88,59.16v71.48h-5.09v-71.48c0-32.93-17.4-54.08-49.79-54.08-30.25,0-56.49,20.08-56.49,53.81v71.75h-5.09v-71.48c0-32.93-17.13-54.08-48.46-54.08-29.45,0-49.79,14.45-58.09,36.94v88.61h-5.09Z"/><path class="cls-4" d="M8912.89,1606c4.82,0,8.83,4.02,8.83,8.84s-4.02,8.83-8.83,8.83-8.83-4.01-8.83-8.83,4.02-8.84,8.83-8.84Zm-2.68,45.51h5.09v87.81c0,24.9,10.17,37.21,29.18,37.21v5.09c-21.68,0-34.27-14.46-34.27-42.3v-87.81Z"/><path class="cls-4" d="M8977.67,1823.92v-172.4h5.09v25.97c10.71-17.4,30.79-28.64,54.34-28.64,35.61,0,65.59,29.98,65.59,67.19s-29.98,67.46-65.59,67.46c-23.56,0-43.64-10.98-54.34-28.38v68.8h-5.09Zm119.67-107.89c0-34.27-27.57-62.11-60.23-62.11-25.97,0-47.65,15.79-54.34,35.07v55.42c6.69,19.01,28.38,34,54.34,34,32.66,0,60.23-27.84,60.23-62.38Z"/><path class="cls-4" d="M9131.6,1763.68c14.19,9.64,34,14.46,51.67,14.46s48.46-5.62,48.46-29.72c0-20.61-24.36-25.16-48.46-29.72-25.97-4.82-51.4-9.64-51.4-34,0-27.57,29.18-35.87,51.4-35.87,16.87,0,32.66,3.48,44.44,13.39l-3.75,4.28c-10.98-9.1-25.43-12.32-40.69-12.32-20.08,0-46.05,7.23-46.05,30.52,0,19.81,23.29,24.09,47.12,28.64,26.24,4.82,52.74,9.91,52.74,35.07,0,28.38-34.8,35.07-53.81,35.07s-39.62-5.35-54.88-15.53l3.21-4.28Z"/><path class="cls-4" d="M9391.02,1651.51v127.96h-5.09v-26.77c-10.71,19.81-31.59,30.79-58.09,30.79-36.41,0-56.49-23.02-56.49-59.16v-72.82h5.09v72.82c0,32.93,18.2,54.08,51.4,54.08,29.18,0,49.53-14.19,58.09-36.94v-89.95h5.09Z"/><path class="cls-4" d="M9428.5,1779.48v-127.96h5.09v28.11c10.44-19.54,31.32-30.79,58.09-30.79s45.51,14.99,51.4,39.89c9.1-28.11,33.2-39.89,58.63-39.89,35.61,0,54.88,23.02,54.88,59.16v71.48h-5.09v-71.48c0-32.93-17.4-54.08-49.79-54.08-30.25,0-56.49,20.08-56.49,53.81v71.75h-5.09v-71.48c0-32.93-17.13-54.08-48.46-54.08-29.45,0-49.79,14.45-58.09,36.94v88.61h-5.09Z"/><path class="cls-4" d="M9895.38,1779.48v-24.36c-10.71,17.4-31.05,28.38-54.35,28.38-35.61,0-65.59-30.25-65.59-67.46s29.98-67.19,65.59-67.19c23.29,0,43.64,11.24,54.35,28.64v-71.48h5.09v173.48h-5.09Zm0-35.07v-55.42c-6.96-19.28-28.38-35.07-54.35-35.07-32.66,0-60.23,27.84-60.23,62.11s27.57,62.38,60.23,62.38c25.97,0,47.38-14.99,54.35-34Z"/><path class="cls-4" d="M10001.66,1783.49c-36.94,0-67.19-30.25-67.19-67.46s29.98-67.19,67.19-67.19,67.46,29.98,67.46,67.19-30.25,67.46-67.46,67.46Zm0-129.57c-34.27,0-61.84,27.84-61.84,62.11s27.57,62.38,61.84,62.38,62.11-27.84,62.11-62.38-27.84-62.11-62.11-62.11Z"/><path class="cls-4" d="M10108.48,1606h5.09v133.32c0,24.9,10.17,37.21,29.18,37.21v5.09c-21.68,0-34.27-14.46-34.27-42.3v-133.32Z"/><path class="cls-4" d="M10229.21,1783.49c-36.94,0-67.19-30.25-67.19-67.46s29.98-67.19,67.19-67.19,67.46,29.98,67.46,67.19-30.25,67.46-67.46,67.46Zm0-129.57c-34.27,0-61.84,27.84-61.84,62.11s27.57,62.38,61.84,62.38,62.11-27.84,62.11-62.38-27.84-62.11-62.11-62.11Z"/><path class="cls-4" d="M10330.68,1779.48v-127.96h5.09v27.57c8.83-19.27,27.31-30.25,50.06-30.25,31.59,0,50.86,18.74,53.54,48.46h-5.09c-2.68-26.5-20.08-43.37-48.46-43.37-25.43,0-42.57,14.45-50.06,36.41v89.15h-5.09Z"/><path class="cls-4" d="M10559.83,1763.68c14.19,9.64,34,14.46,51.67,14.46s48.46-5.62,48.46-29.72c0-20.61-24.36-25.16-48.46-29.72-25.97-4.82-51.4-9.64-51.4-34,0-27.57,29.18-35.87,51.4-35.87,16.87,0,32.66,3.48,44.44,13.39l-3.75,4.28c-10.98-9.1-25.43-12.32-40.69-12.32-20.08,0-46.05,7.23-46.05,30.52,0,19.81,23.29,24.09,47.12,28.64,26.24,4.82,52.74,9.91,52.74,35.07,0,28.38-34.8,35.07-53.81,35.07s-39.62-5.35-54.88-15.53l3.21-4.28Z"/><path class="cls-4" d="M10704.93,1606c4.82,0,8.83,4.02,8.83,8.84s-4.02,8.83-8.83,8.83-8.83-4.01-8.83-8.83,4.02-8.84,8.83-8.84Zm-2.68,45.51h5.09v87.81c0,24.9,10.17,37.21,29.18,37.21v5.09c-21.68,0-34.27-14.46-34.27-42.3v-87.81Z"/><path class="cls-4" d="M10756.33,1651.51h17.4v-37.48h5.09v37.48h71.75v4.82h-71.75v76.83c0,28.11,12.58,45.24,39.35,45.24,13.12,0,23.02-3.75,33.2-9.37l2.41,4.55c-10.71,5.89-21.15,9.91-35.61,9.91-30.25,0-44.44-19.01-44.44-50.33v-76.83h-17.4v-4.82Z"/></g><g><path class="cls-4" d="M7770.7,2005.69c-10.71-18.2-30.79-30.52-53.54-30.52-34.27,0-61.84,27.84-61.84,62.11s27.57,62.38,61.84,62.38c23.29,0,43.37-12.58,54.08-31.59l4.55,2.41c-11.51,20.35-33.46,34.27-58.63,34.27-36.94,0-67.19-30.25-67.19-67.46s29.98-67.19,67.19-67.19c24.36,0,46.05,13.12,57.82,32.66l-4.28,2.95Z"/><path class="cls-4" d="M7867.35,2104.75c-36.94,0-67.19-30.25-67.19-67.46s29.98-67.19,67.19-67.19,67.46,29.98,67.46,67.19-30.25,67.46-67.46,67.46Zm0-129.57c-34.27,0-61.84,27.84-61.84,62.11s27.57,62.38,61.84,62.38,62.11-27.84,62.11-62.38-27.84-62.11-62.11-62.11Z"/><path class="cls-4" d="M7968.81,2100.73v-127.96h5.09v27.84c7.5-14.19,24.09-30.52,58.09-30.52s56.49,22.49,56.49,59.16v71.48h-5.09v-71.48c0-34-18.74-54.08-51.4-54.08-38.01,0-52.74,22.22-58.09,36.68v88.88h-5.09Z"/><path class="cls-4" d="M8127.56,2084.94c14.19,9.64,34,14.46,51.67,14.46s48.46-5.62,48.46-29.72c0-20.61-24.36-25.16-48.46-29.72-25.97-4.82-51.4-9.64-51.4-34,0-27.57,29.18-35.87,51.4-35.87,16.87,0,32.66,3.48,44.44,13.39l-3.75,4.28c-10.98-9.1-25.43-12.32-40.69-12.32-20.08,0-46.05,7.23-46.05,30.52,0,19.81,23.29,24.09,47.12,28.64,26.24,4.82,52.74,9.91,52.74,35.07,0,28.38-34.8,35.07-53.81,35.07s-39.62-5.35-54.88-15.53l3.21-4.28Z"/><path class="cls-4" d="M8269.45,2045.32c4.02,30.79,29.98,54.35,61.57,54.35,21.95,0,41.49-11.51,52.47-28.91l4.02,3.21c-12.05,18.47-32.66,30.79-56.49,30.79-36.94,0-67.19-30.25-67.19-67.46s28.91-67.19,64.52-67.19,64.79,29.98,64.79,67.19c0,2.68,0,5.35-.27,8.03h-123.41Zm-.27-4.82h118.6v-3.21c0-34.27-26.77-62.11-59.43-62.11s-59.16,27.84-59.16,62.11v3.21Z"/><path class="cls-4" d="M8544.12,2005.69c-10.71-18.2-30.79-30.52-53.54-30.52-34.27,0-61.84,27.84-61.84,62.11s27.57,62.38,61.84,62.38c23.29,0,43.37-12.58,54.08-31.59l4.55,2.41c-11.51,20.35-33.46,34.27-58.63,34.27-36.94,0-67.19-30.25-67.19-67.46s29.98-67.19,67.19-67.19c24.36,0,46.05,13.12,57.82,32.66l-4.28,2.95Z"/><path class="cls-4" d="M8570.35,1972.77h17.4v-37.48h5.09v37.48h71.75v4.82h-71.75v76.83c0,28.11,12.58,45.24,39.35,45.24,13.12,0,23.02-3.75,33.2-9.37l2.41,4.55c-10.71,5.89-21.15,9.91-35.61,9.91-30.25,0-44.44-19.01-44.44-50.33v-76.83h-17.4v-4.82Z"/><path class="cls-4" d="M8693.23,2045.32c4.02,30.79,29.98,54.35,61.57,54.35,21.95,0,41.49-11.51,52.47-28.91l4.02,3.21c-12.05,18.47-32.66,30.79-56.49,30.79-36.94,0-67.19-30.25-67.19-67.46s28.91-67.19,64.52-67.19,64.79,29.98,64.79,67.19c0,2.68,0,5.35-.27,8.03h-123.41Zm-.27-4.82h118.6v-3.21c0-34.27-26.77-62.11-59.43-62.11s-59.16,27.84-59.16,62.11v3.21Z"/><path class="cls-4" d="M8835.93,1972.77h17.4v-37.48h5.09v37.48h71.75v4.82h-71.75v76.83c0,28.11,12.58,45.24,39.35,45.24,13.12,0,23.02-3.75,33.2-9.37l2.41,4.55c-10.71,5.89-21.15,9.91-35.61,9.91-30.25,0-44.44-19.01-44.44-50.33v-76.83h-17.4v-4.82Z"/><path class="cls-4" d="M9080.35,1972.77v127.96h-5.09v-26.77c-10.71,19.81-31.59,30.79-58.09,30.79-36.41,0-56.49-23.02-56.49-59.16v-72.82h5.09v72.82c0,32.93,18.2,54.08,51.4,54.08,29.18,0,49.53-14.19,58.09-36.94v-89.95h5.09Z"/><path class="cls-4" d="M9117.83,2100.73v-127.96h5.09v27.57c8.83-19.27,27.31-30.25,50.06-30.25,31.59,0,50.86,18.74,53.54,48.46h-5.09c-2.68-26.5-20.08-43.37-48.46-43.37-25.43,0-42.57,14.46-50.06,36.41v89.15h-5.09Z"/><path class="cls-4" d="M9461.83,2100.73v-24.36c-10.71,17.4-31.05,28.38-54.35,28.38-35.61,0-65.59-30.25-65.59-67.46s29.98-67.19,65.59-67.19c23.29,0,43.64,11.24,54.35,28.64v-25.97h5.09v127.96h-5.09Zm0-35.07v-55.42c-6.96-19.28-28.38-35.07-54.35-35.07-32.66,0-60.23,27.84-60.23,62.11s27.57,62.38,60.23,62.38c25.97,0,47.38-14.99,54.35-34Z"/><path class="cls-4" d="M9620.85,2100.73v-24.36c-10.71,17.4-31.05,28.38-54.35,28.38-35.61,0-65.59-30.25-65.59-67.46s29.98-67.19,65.59-67.19c23.29,0,43.64,11.24,54.35,28.64v-71.48h5.09v173.47h-5.09Zm0-35.07v-55.42c-6.96-19.28-28.38-35.07-54.35-35.07-32.66,0-60.23,27.84-60.23,62.11s27.57,62.38,60.23,62.38c25.97,0,47.38-14.99,54.35-34Z"/><path class="cls-4" d="M9671.45,1927.26c4.82,0,8.83,4.02,8.83,8.83s-4.02,8.83-8.83,8.83-8.83-4.02-8.83-8.83,4.02-8.83,8.83-8.83Zm-2.68,45.51h5.09v87.81c0,24.9,10.17,37.21,29.18,37.21v5.09c-21.68,0-34.27-14.46-34.27-42.3v-87.81Z"/><path class="cls-4" d="M9736.23,2145.17v-172.4h5.09v25.97c10.71-17.4,30.79-28.64,54.34-28.64,35.61,0,65.59,29.98,65.59,67.19s-29.98,67.46-65.59,67.46c-23.56,0-43.64-10.98-54.34-28.38v68.8h-5.09Zm119.67-107.89c0-34.27-27.57-62.11-60.23-62.11-25.97,0-47.65,15.79-54.34,35.07v55.42c6.69,19.01,28.38,34,54.34,34,32.66,0,60.23-27.84,60.23-62.38Z"/><path class="cls-4" d="M9903.28,1927.26c4.82,0,8.83,4.02,8.83,8.83s-4.02,8.83-8.83,8.83-8.83-4.02-8.83-8.83,4.02-8.83,8.83-8.83Zm-2.68,45.51h5.09v87.81c0,24.9,10.17,37.21,29.18,37.21v5.09c-21.68,0-34.27-14.46-34.27-42.3v-87.81Z"/><path class="cls-4" d="M9964.32,2084.94c14.19,9.64,34,14.46,51.67,14.46s48.46-5.62,48.46-29.72c0-20.61-24.36-25.16-48.46-29.72-25.97-4.82-51.4-9.64-51.4-34,0-27.57,29.18-35.87,51.4-35.87,16.87,0,32.66,3.48,44.44,13.39l-3.75,4.28c-10.98-9.1-25.43-12.32-40.69-12.32-20.08,0-46.05,7.23-46.05,30.52,0,19.81,23.29,24.09,47.12,28.64,26.24,4.82,52.74,9.91,52.74,35.07,0,28.38-34.8,35.07-53.81,35.07s-39.62-5.35-54.88-15.53l3.21-4.28Z"/><path class="cls-4" d="M10221.32,2005.69c-10.71-18.2-30.79-30.52-53.54-30.52-34.27,0-61.84,27.84-61.84,62.11s27.57,62.38,61.84,62.38c23.29,0,43.37-12.58,54.08-31.59l4.55,2.41c-11.51,20.35-33.46,34.27-58.63,34.27-36.94,0-67.19-30.25-67.19-67.46s29.98-67.19,67.19-67.19c24.36,0,46.05,13.12,57.82,32.66l-4.28,2.95Z"/><path class="cls-4" d="M10264.96,1927.26c4.82,0,8.83,4.02,8.83,8.83s-4.02,8.83-8.83,8.83-8.83-4.02-8.83-8.83,4.02-8.83,8.83-8.83Zm-2.68,45.51h5.09v87.81c0,24.9,10.17,37.21,29.18,37.21v5.09c-21.68,0-34.27-14.46-34.27-42.3v-87.81Z"/><path class="cls-4" d="M10329.75,2100.73v-127.96h5.09v27.84c7.5-14.19,24.09-30.52,58.09-30.52s56.49,22.49,56.49,59.16v71.48h-5.09v-71.48c0-34-18.74-54.08-51.4-54.08-38.02,0-52.74,22.22-58.09,36.68v88.88h-5.09Z"/><path class="cls-4" d="M10514.73,2131.79c4.82,3.21,18.2,11.51,34.27,11.51,34.53,0,54.35-24.09,54.35-54.08v-12.85c-10.71,17.4-31.05,28.38-54.35,28.38-35.61,0-65.59-30.25-65.59-67.46s29.98-67.19,65.59-67.19c23.29,0,43.64,11.24,54.35,28.64v-25.97h5.09v116.45c0,32.93-21.68,59.16-59.43,59.16-17.67,0-31.59-8.3-36.68-11.78l2.41-4.82Zm88.61-66.12v-55.42c-6.96-19.28-28.38-35.07-54.35-35.07-32.66,0-60.23,27.84-60.23,62.11s27.57,62.38,60.23,62.38c25.97,0,47.38-14.99,54.35-34Z"/><path class="cls-4" d="M10732.91,2045.32c4.02,30.79,29.98,54.35,61.57,54.35,21.95,0,41.49-11.51,52.47-28.91l4.02,3.21c-12.05,18.47-32.66,30.79-56.49,30.79-36.94,0-67.19-30.25-67.19-67.46s28.91-67.19,64.52-67.19,64.79,29.98,64.79,67.19c0,2.68,0,5.35-.27,8.03h-123.41Zm-.27-4.82h118.6v-3.21c0-34.27-26.77-62.11-59.43-62.11s-59.16,27.84-59.16,62.11v3.21Z"/><path class="cls-4" d="M10895.68,1927.26h5.09v133.32c0,24.9,10.17,37.21,29.18,37.21v5.09c-21.68,0-34.27-14.46-34.27-42.3v-133.32Z"/><path class="cls-4" d="M10967.16,1927.26c4.82,0,8.83,4.02,8.83,8.83s-4.02,8.83-8.83,8.83-8.83-4.02-8.83-8.83,4.02-8.83,8.83-8.83Zm-2.68,45.51h5.09v87.81c0,24.9,10.17,37.21,29.18,37.21v5.09c-21.68,0-34.27-14.46-34.27-42.3v-87.81Z"/><path class="cls-4" d="M11018.55,1972.77h17.4v-37.48h5.09v37.48h71.75v4.82h-71.75v76.83c0,28.11,12.58,45.24,39.35,45.24,13.12,0,23.02-3.75,33.2-9.37l2.41,4.55c-10.71,5.89-21.15,9.91-35.61,9.91-30.25,0-44.44-19.01-44.44-50.33v-76.83h-17.4v-4.82Z"/></g><g><path class="cls-4" d="M8303.44,2366.57c4.02,30.79,29.98,54.35,61.57,54.35,21.95,0,41.49-11.51,52.47-28.91l4.02,3.21c-12.05,18.47-32.66,30.79-56.49,30.79-36.94,0-67.19-30.25-67.19-67.46s28.91-67.19,64.52-67.19,64.79,29.98,64.79,67.19c0,2.68,0,5.35-.27,8.03h-123.41Zm-.27-4.82h118.6v-3.21c0-34.27-26.77-62.11-59.43-62.11s-59.16,27.84-59.16,62.11v3.21Z"/><path class="cls-4" d="M8468.89,2248.51c4.82,0,8.83,4.02,8.83,8.83s-4.02,8.83-8.83,8.83-8.83-4.02-8.83-8.83,4.02-8.83,8.83-8.83Zm-2.68,45.51h5.09v87.81c0,24.9,10.17,37.21,29.18,37.21v5.09c-21.68,0-34.27-14.46-34.27-42.3v-87.81Z"/><path class="cls-4" d="M8645.31,2294.02v127.96h-5.09v-26.77c-10.71,19.81-31.59,30.79-58.09,30.79-36.41,0-56.49-23.02-56.49-59.16v-72.82h5.09v72.82c0,32.93,18.2,54.08,51.4,54.08,29.18,0,49.53-14.19,58.09-36.94v-89.95h5.09Z"/><path class="cls-4" d="M8684.39,2406.19c14.19,9.64,34,14.46,51.67,14.46s48.46-5.62,48.46-29.72c0-20.61-24.36-25.16-48.46-29.72-25.97-4.82-51.4-9.64-51.4-34,0-27.57,29.18-35.87,51.4-35.87,16.87,0,32.66,3.48,44.44,13.39l-3.75,4.28c-10.98-9.1-25.43-12.32-40.69-12.32-20.08,0-46.05,7.23-46.05,30.52,0,19.81,23.29,24.09,47.12,28.64,26.24,4.82,52.74,9.91,52.74,35.07,0,28.38-34.8,35.07-53.81,35.07s-39.62-5.35-54.88-15.53l3.21-4.28Z"/><path class="cls-4" d="M8824.14,2421.99v-127.96h5.09v28.11c10.44-19.54,31.32-30.79,58.09-30.79s45.51,14.99,51.4,39.89c9.1-28.11,33.2-39.89,58.63-39.89,35.61,0,54.88,23.02,54.88,59.16v71.48h-5.09v-71.48c0-32.93-17.4-54.08-49.79-54.08-30.25,0-56.49,20.08-56.49,53.81v71.75h-5.09v-71.48c0-32.93-17.13-54.08-48.46-54.08-29.45,0-49.79,14.46-58.09,36.94v88.61h-5.09Z"/><path class="cls-4" d="M9153.42,2426c-36.94,0-67.19-30.25-67.19-67.46s29.98-67.19,67.19-67.19,67.46,29.98,67.46,67.19-30.25,67.46-67.46,67.46Zm0-129.57c-34.27,0-61.84,27.84-61.84,62.11s27.57,62.38,61.84,62.38,62.11-27.84,62.11-62.38-27.84-62.11-62.11-62.11Z"/><path class="cls-4" d="M9371.34,2421.99v-24.36c-10.71,17.4-31.05,28.38-54.35,28.38-35.61,0-65.59-30.25-65.59-67.46s29.98-67.19,65.59-67.19c23.29,0,43.64,11.24,54.35,28.64v-71.48h5.09v173.47h-5.09Zm0-35.07v-55.42c-6.96-19.28-28.38-35.07-54.35-35.07-32.66,0-60.23,27.84-60.23,62.11s27.57,62.38,60.23,62.38c25.97,0,47.38-14.99,54.35-34Z"/><path class="cls-4" d="M9489.39,2294.02h17.4v-37.48h5.09v37.48h71.75v4.82h-71.75v76.83c0,28.11,12.58,45.24,39.35,45.24,13.12,0,23.02-3.75,33.2-9.37l2.41,4.55c-10.71,5.89-21.15,9.91-35.61,9.91-30.25,0-44.44-19.01-44.44-50.33v-76.83h-17.4v-4.82Z"/><path class="cls-4" d="M9612.27,2366.57c4.02,30.79,29.98,54.35,61.57,54.35,21.95,0,41.49-11.51,52.47-28.91l4.02,3.21c-12.05,18.47-32.66,30.79-56.49,30.79-36.94,0-67.19-30.25-67.19-67.46s28.91-67.19,64.52-67.19,64.79,29.98,64.79,67.19c0,2.68,0,5.35-.27,8.03h-123.41Zm-.27-4.82h118.6v-3.21c0-34.27-26.77-62.11-59.43-62.11s-59.16,27.84-59.16,62.11v3.21Z"/><path class="cls-4" d="M9769.69,2421.99v-127.96h5.09v28.11c10.44-19.54,31.32-30.79,58.09-30.79s45.51,14.99,51.4,39.89c9.1-28.11,33.2-39.89,58.63-39.89,35.61,0,54.88,23.02,54.88,59.16v71.48h-5.09v-71.48c0-32.93-17.4-54.08-49.79-54.08-30.25,0-56.49,20.08-56.49,53.81v71.75h-5.09v-71.48c0-32.93-17.13-54.08-48.46-54.08-29.45,0-49.79,14.46-58.09,36.94v88.61h-5.09Z"/><path class="cls-4" d="M10035.26,2466.43v-172.4h5.09v25.97c10.71-17.4,30.79-28.64,54.34-28.64,35.61,0,65.59,29.98,65.59,67.19s-29.98,67.46-65.59,67.46c-23.56,0-43.64-10.98-54.34-28.38v68.8h-5.09Zm119.67-107.89c0-34.27-27.57-62.11-60.23-62.11-25.97,0-47.65,15.79-54.34,35.07v55.42c6.69,19.01,28.38,34,54.34,34,32.66,0,60.23-27.84,60.23-62.38Z"/><path class="cls-4" d="M10257.99,2426c-36.94,0-67.19-30.25-67.19-67.46s29.98-67.19,67.19-67.19,67.46,29.98,67.46,67.19-30.25,67.46-67.46,67.46Zm0-129.57c-34.27,0-61.84,27.84-61.84,62.11s27.57,62.38,61.84,62.38,62.11-27.84,62.11-62.38-27.84-62.11-62.11-62.11Z"/><path class="cls-4" d="M10359.45,2421.99v-127.96h5.09v27.57c8.83-19.27,27.31-30.25,50.06-30.25,31.59,0,50.86,18.74,53.54,48.46h-5.09c-2.68-26.5-20.08-43.37-48.46-43.37-25.43,0-42.57,14.46-50.06,36.41v89.15h-5.09Z"/></g></g><g><g><path class="cls-4" d="M8467.12,2820.28h-116.08v-121.71h3.76v118.15h112.32v3.57Z"/><path class="cls-4" d="M8520.28,2823.09c-25.92,0-47.15-21.22-47.15-47.33s21.04-47.15,47.15-47.15,47.33,21.04,47.33,47.15-21.22,47.33-47.33,47.33Zm0-90.91c-24.04,0-43.39,19.53-43.39,43.58s19.35,43.76,43.39,43.76,43.58-19.53,43.58-43.76-19.53-43.58-43.58-43.58Z"/><path class="cls-4" d="M8591.47,2820.28v-89.78h3.57v19.35c6.2-13.52,19.16-21.22,35.12-21.22,22.16,0,35.69,13.15,37.57,34h-3.57c-1.88-18.6-14.09-30.43-34-30.43-17.84,0-29.86,10.14-35.12,25.54v62.55h-3.57Z"/><path class="cls-4" d="M8691.21,2781.4c2.82,21.6,21.04,38.13,43.2,38.13,15.4,0,29.11-8.08,36.81-20.29l2.82,2.25c-8.45,12.96-22.91,21.6-39.63,21.6-25.92,0-47.15-21.22-47.15-47.33s20.29-47.15,45.27-47.15,45.45,21.04,45.45,47.15c0,1.88,0,3.76-.19,5.63h-86.59Zm-.19-3.38h83.21v-2.25c0-24.04-18.78-43.58-41.7-43.58s-41.51,19.53-41.51,43.58v2.25Z"/><path class="cls-4" d="M8801.65,2820.28v-89.78h3.57v19.72c7.33-13.71,21.98-21.6,40.76-21.6s31.93,10.52,36.06,27.99c6.39-19.72,23.29-27.99,41.13-27.99,24.98,0,38.5,16.15,38.5,41.51v50.15h-3.57v-50.15c0-23.1-12.21-37.94-34.94-37.94-21.22,0-39.63,14.09-39.63,37.75v50.34h-3.57v-50.15c0-23.1-12.02-37.94-34-37.94-20.66,0-34.94,10.14-40.76,25.92v62.17h-3.57Z"/><path class="cls-4" d="M9053.15,2698.56c3.38,0,6.2,2.82,6.2,6.2s-2.82,6.2-6.2,6.2-6.2-2.82-6.2-6.2,2.82-6.2,6.2-6.2Zm-1.88,31.93h3.57v61.61c0,17.47,7.14,26.11,20.47,26.11v3.57c-15.21,0-24.04-10.14-24.04-29.68v-61.61Z"/><path class="cls-4" d="M9098.61,2851.46v-120.96h3.57v18.22c7.51-12.21,21.6-20.1,38.13-20.1,24.98,0,46.02,21.04,46.02,47.15s-21.04,47.33-46.02,47.33c-16.53,0-30.62-7.7-38.13-19.91v48.27h-3.57Zm83.96-75.7c0-24.04-19.35-43.58-42.26-43.58-18.22,0-33.43,11.08-38.13,24.61v38.88c4.7,13.34,19.91,23.85,38.13,23.85,22.92,0,42.26-19.53,42.26-43.76Z"/><path class="cls-4" d="M9206.61,2809.19c9.96,6.76,23.85,10.14,36.25,10.14s34-3.94,34-20.85c0-14.46-17.09-17.66-34-20.85-18.22-3.38-36.06-6.76-36.06-23.85,0-19.35,20.47-25.17,36.06-25.17,11.83,0,22.91,2.44,31.18,9.39l-2.63,3.01c-7.7-6.39-17.84-8.64-28.55-8.64-14.09,0-32.31,5.07-32.31,21.41,0,13.9,16.34,16.9,33.06,20.1,18.41,3.38,37,6.95,37,24.61,0,19.91-24.42,24.61-37.75,24.61s-27.8-3.76-38.51-10.89l2.25-3.01Z"/><path class="cls-4" d="M9388.62,2730.49v89.78h-3.57v-18.78c-7.51,13.9-22.16,21.6-40.76,21.6-25.54,0-39.63-16.15-39.63-41.51v-51.09h3.57v51.09c0,23.1,12.77,37.94,36.06,37.94,20.47,0,34.75-9.95,40.76-25.92v-63.11h3.57Z"/><path class="cls-4" d="M9414.92,2820.28v-89.78h3.57v19.72c7.33-13.71,21.98-21.6,40.76-21.6s31.93,10.52,36.06,27.99c6.39-19.72,23.29-27.99,41.13-27.99,24.98,0,38.5,16.15,38.5,41.51v50.15h-3.57v-50.15c0-23.1-12.21-37.94-34.94-37.94-21.22,0-39.63,14.09-39.63,37.75v50.34h-3.57v-50.15c0-23.1-12.02-37.94-34-37.94-20.66,0-34.94,10.14-40.76,25.92v62.17h-3.57Z"/><path class="cls-4" d="M9742.49,2820.28v-17.09c-7.51,12.21-21.79,19.91-38.13,19.91-24.98,0-46.02-21.22-46.02-47.33s21.04-47.15,46.02-47.15c16.34,0,30.62,7.89,38.13,20.1v-50.15h3.57v121.71h-3.57Zm0-24.61v-38.88c-4.88-13.52-19.91-24.61-38.13-24.61-22.91,0-42.26,19.53-42.26,43.58s19.35,43.76,42.26,43.76c18.22,0,33.25-10.52,38.13-23.85Z"/><path class="cls-4" d="M9817.06,2823.09c-25.92,0-47.15-21.22-47.15-47.33s21.04-47.15,47.15-47.15,47.33,21.04,47.33,47.15-21.22,47.33-47.33,47.33Zm0-90.91c-24.04,0-43.39,19.53-43.39,43.58s19.35,43.76,43.39,43.76,43.58-19.53,43.58-43.76-19.53-43.58-43.58-43.58Z"/><path class="cls-4" d="M9892,2698.56h3.57v93.54c0,17.47,7.14,26.11,20.47,26.11v3.57c-15.21,0-24.04-10.14-24.04-29.68v-93.54Z"/><path class="cls-4" d="M9976.71,2823.09c-25.92,0-47.15-21.22-47.15-47.33s21.04-47.15,47.15-47.15,47.33,21.04,47.33,47.15-21.22,47.33-47.33,47.33Zm0-90.91c-24.04,0-43.39,19.53-43.39,43.58s19.35,43.76,43.39,43.76,43.58-19.53,43.58-43.76-19.53-43.58-43.58-43.58Z"/><path class="cls-4" d="M10047.9,2820.28v-89.78h3.57v19.35c6.2-13.52,19.16-21.22,35.12-21.22,22.16,0,35.69,13.15,37.57,34h-3.57c-1.88-18.6-14.09-30.43-34-30.43-17.84,0-29.87,10.14-35.12,25.54v62.55h-3.57Z"/><path class="cls-4" d="M10208.68,2809.19c9.96,6.76,23.85,10.14,36.25,10.14s34-3.94,34-20.85c0-14.46-17.09-17.66-34-20.85-18.22-3.38-36.06-6.76-36.06-23.85,0-19.35,20.47-25.17,36.06-25.17,11.83,0,22.91,2.44,31.18,9.39l-2.63,3.01c-7.7-6.39-17.84-8.64-28.55-8.64-14.09,0-32.31,5.07-32.31,21.41,0,13.9,16.34,16.9,33.06,20.1,18.41,3.38,37,6.95,37,24.61,0,19.91-24.42,24.61-37.75,24.61s-27.8-3.76-38.51-10.89l2.25-3.01Z"/><path class="cls-4" d="M10310.49,2698.56c3.38,0,6.2,2.82,6.2,6.2s-2.82,6.2-6.2,6.2-6.2-2.82-6.2-6.2,2.82-6.2,6.2-6.2Zm-1.88,31.93h3.57v61.61c0,17.47,7.14,26.11,20.47,26.11v3.57c-15.21,0-24.04-10.14-24.04-29.68v-61.61Z"/><path class="cls-4" d="M10346.55,2730.49h12.21v-26.3h3.57v26.3h50.34v3.38h-50.34v53.91c0,19.72,8.83,31.74,27.61,31.74,9.2,0,16.15-2.63,23.29-6.57l1.69,3.19c-7.51,4.13-14.84,6.95-24.98,6.95-21.22,0-31.18-13.34-31.18-35.31v-53.91h-12.21v-3.38Z"/></g><g><path class="cls-4" d="M8251.78,2979c-7.51-12.77-21.6-21.41-37.57-21.41-24.04,0-43.39,19.53-43.39,43.58s19.35,43.76,43.39,43.76c16.34,0,30.43-8.83,37.94-22.16l3.19,1.69c-8.08,14.28-23.48,24.04-41.13,24.04-25.92,0-47.15-21.22-47.15-47.33s21.04-47.15,47.15-47.15c17.09,0,32.31,9.2,40.57,22.91l-3.01,2.07Z"/><path class="cls-4" d="M8319.58,3048.49c-25.92,0-47.15-21.22-47.15-47.33s21.04-47.15,47.15-47.15,47.33,21.04,47.33,47.15-21.22,47.33-47.33,47.33Zm0-90.91c-24.04,0-43.39,19.53-43.39,43.58s19.35,43.76,43.39,43.76,43.58-19.53,43.58-43.76-19.53-43.58-43.58-43.58Z"/><path class="cls-4" d="M8390.77,3045.67v-89.78h3.57v19.53c5.26-9.95,16.9-21.41,40.76-21.41s39.63,15.78,39.63,41.51v50.15h-3.57v-50.15c0-23.85-13.15-37.94-36.06-37.94-26.67,0-37,15.59-40.76,25.73v62.36h-3.57Z"/><path class="cls-4" d="M8502.15,3034.59c9.95,6.76,23.85,10.14,36.25,10.14s34-3.94,34-20.85c0-14.46-17.09-17.66-34-20.85-18.22-3.38-36.06-6.76-36.06-23.85,0-19.35,20.47-25.17,36.06-25.17,11.83,0,22.92,2.44,31.18,9.39l-2.63,3.01c-7.7-6.39-17.84-8.64-28.55-8.64-14.09,0-32.31,5.07-32.31,21.41,0,13.9,16.34,16.9,33.06,20.1,18.41,3.38,37,6.95,37,24.61,0,19.91-24.42,24.61-37.75,24.61s-27.8-3.76-38.5-10.89l2.25-3.01Z"/><path class="cls-4" d="M8601.71,3006.79c2.82,21.6,21.04,38.13,43.2,38.13,15.4,0,29.11-8.08,36.81-20.29l2.82,2.25c-8.45,12.96-22.92,21.6-39.63,21.6-25.92,0-47.15-21.22-47.15-47.33s20.29-47.15,45.27-47.15,45.45,21.04,45.45,47.15c0,1.88,0,3.76-.19,5.63h-86.59Zm-.19-3.38h83.21v-2.25c0-24.04-18.78-43.58-41.7-43.58s-41.51,19.53-41.51,43.58v2.25Z"/><path class="cls-4" d="M8794.42,2979c-7.51-12.77-21.6-21.41-37.57-21.41-24.04,0-43.39,19.53-43.39,43.58s19.35,43.76,43.39,43.76c16.34,0,30.43-8.83,37.94-22.16l3.19,1.69c-8.08,14.28-23.48,24.04-41.13,24.04-25.92,0-47.15-21.22-47.15-47.33s21.04-47.15,47.15-47.15c17.09,0,32.31,9.2,40.57,22.91l-3.01,2.07Z"/><path class="cls-4" d="M8812.83,2955.89h12.21v-26.3h3.57v26.3h50.34v3.38h-50.34v53.91c0,19.72,8.83,31.74,27.61,31.74,9.2,0,16.15-2.63,23.29-6.57l1.69,3.19c-7.51,4.13-14.84,6.95-24.98,6.95-21.22,0-31.18-13.34-31.18-35.31v-53.91h-12.21v-3.38Z"/><path class="cls-4" d="M8899.04,3006.79c2.82,21.6,21.04,38.13,43.2,38.13,15.4,0,29.11-8.08,36.81-20.29l2.82,2.25c-8.45,12.96-22.91,21.6-39.63,21.6-25.92,0-47.15-21.22-47.15-47.33s20.29-47.15,45.27-47.15,45.45,21.04,45.45,47.15c0,1.88,0,3.76-.19,5.63h-86.59Zm-.19-3.38h83.21v-2.25c0-24.04-18.78-43.58-41.7-43.58s-41.51,19.53-41.51,43.58v2.25Z"/><path class="cls-4" d="M8999.16,2955.89h12.21v-26.3h3.57v26.3h50.34v3.38h-50.34v53.91c0,19.72,8.83,31.74,27.61,31.74,9.2,0,16.15-2.63,23.29-6.57l1.69,3.19c-7.51,4.13-14.84,6.95-24.98,6.95-21.22,0-31.18-13.34-31.18-35.31v-53.91h-12.21v-3.38Z"/><path class="cls-4" d="M9170.65,2955.89v89.78h-3.57v-18.78c-7.51,13.9-22.16,21.6-40.76,21.6-25.54,0-39.63-16.15-39.63-41.51v-51.09h3.57v51.09c0,23.1,12.77,37.94,36.06,37.94,20.47,0,34.75-9.95,40.76-25.92v-63.11h3.57Z"/><path class="cls-4" d="M9196.94,3045.67v-89.78h3.57v19.35c6.2-13.52,19.16-21.22,35.12-21.22,22.16,0,35.69,13.15,37.57,34h-3.57c-1.88-18.6-14.09-30.43-34-30.43-17.84,0-29.87,10.14-35.12,25.55v62.55h-3.57Z"/><path class="cls-4" d="M9438.3,3045.67v-17.09c-7.51,12.21-21.79,19.91-38.13,19.91-24.98,0-46.02-21.22-46.02-47.33s21.04-47.15,46.02-47.15c16.34,0,30.62,7.89,38.13,20.1v-18.22h3.57v89.78h-3.57Zm0-24.61v-38.88c-4.88-13.52-19.91-24.61-38.13-24.61-22.91,0-42.26,19.53-42.26,43.58s19.35,43.76,42.26,43.76c18.22,0,33.25-10.52,38.13-23.85Z"/><path class="cls-4" d="M9549.87,3045.67v-17.09c-7.51,12.21-21.79,19.91-38.13,19.91-24.98,0-46.02-21.22-46.02-47.33s21.04-47.15,46.02-47.15c16.34,0,30.62,7.89,38.13,20.1v-50.15h3.57v121.71h-3.57Zm0-24.61v-38.88c-4.88-13.52-19.91-24.61-38.13-24.61-22.91,0-42.26,19.53-42.26,43.58s19.35,43.76,42.26,43.76c18.22,0,33.25-10.52,38.13-23.85Z"/><path class="cls-4" d="M9585.37,2923.96c3.38,0,6.2,2.82,6.2,6.2s-2.82,6.2-6.2,6.2-6.2-2.82-6.2-6.2,2.82-6.2,6.2-6.2Zm-1.88,31.93h3.57v61.61c0,17.47,7.14,26.11,20.47,26.11v3.57c-15.21,0-24.04-10.14-24.04-29.68v-61.61Z"/><path class="cls-4" d="M9630.83,3076.85v-120.96h3.57v18.22c7.51-12.21,21.6-20.1,38.13-20.1,24.98,0,46.02,21.04,46.02,47.15s-21.04,47.33-46.02,47.33c-16.53,0-30.62-7.7-38.13-19.91v48.27h-3.57Zm83.96-75.7c0-24.04-19.35-43.58-42.26-43.58-18.22,0-33.43,11.08-38.13,24.61v38.88c4.7,13.34,19.91,23.85,38.13,23.85,22.92,0,42.26-19.53,42.26-43.76Z"/><path class="cls-4" d="M9748.03,2923.96c3.38,0,6.2,2.82,6.2,6.2s-2.82,6.2-6.2,6.2-6.2-2.82-6.2-6.2,2.82-6.2,6.2-6.2Zm-1.88,31.93h3.57v61.61c0,17.47,7.14,26.11,20.47,26.11v3.57c-15.21,0-24.04-10.14-24.04-29.68v-61.61Z"/><path class="cls-4" d="M9790.86,3034.59c9.96,6.76,23.85,10.14,36.25,10.14s34-3.94,34-20.85c0-14.46-17.09-17.66-34-20.85-18.22-3.38-36.06-6.76-36.06-23.85,0-19.35,20.47-25.17,36.06-25.17,11.83,0,22.91,2.44,31.18,9.39l-2.63,3.01c-7.7-6.39-17.84-8.64-28.55-8.64-14.09,0-32.31,5.07-32.31,21.41,0,13.9,16.34,16.9,33.06,20.1,18.41,3.38,37,6.95,37,24.61,0,19.91-24.42,24.61-37.75,24.61s-27.8-3.76-38.51-10.89l2.25-3.01Z"/><path class="cls-4" d="M9971.18,2979c-7.51-12.77-21.6-21.41-37.57-21.41-24.04,0-43.39,19.53-43.39,43.58s19.35,43.76,43.39,43.76c16.34,0,30.43-8.83,37.94-22.16l3.19,1.69c-8.08,14.28-23.48,24.04-41.13,24.04-25.92,0-47.15-21.22-47.15-47.33s21.04-47.15,47.15-47.15c17.09,0,32.31,9.2,40.57,22.91l-3.01,2.07Z"/><path class="cls-4" d="M10001.8,2923.96c3.38,0,6.2,2.82,6.2,6.2s-2.82,6.2-6.2,6.2-6.2-2.82-6.2-6.2,2.82-6.2,6.2-6.2Zm-1.88,31.93h3.57v61.61c0,17.47,7.14,26.11,20.47,26.11v3.57c-15.21,0-24.04-10.14-24.04-29.68v-61.61Z"/><path class="cls-4" d="M10047.25,3045.67v-89.78h3.57v19.53c5.26-9.95,16.9-21.41,40.76-21.41s39.63,15.78,39.63,41.51v50.15h-3.57v-50.15c0-23.85-13.15-37.94-36.06-37.94-26.67,0-37,15.59-40.76,25.73v62.36h-3.57Z"/><path class="cls-4" d="M10177.04,3067.46c3.38,2.25,12.77,8.08,24.04,8.08,24.23,0,38.13-16.9,38.13-37.94v-9.02c-7.51,12.21-21.79,19.91-38.13,19.91-24.98,0-46.02-21.22-46.02-47.33s21.04-47.15,46.02-47.15c16.34,0,30.62,7.89,38.13,20.1v-18.22h3.57v81.71c0,23.1-15.21,41.51-41.7,41.51-12.4,0-22.16-5.82-25.73-8.26l1.69-3.38Zm62.17-46.39v-38.88c-4.88-13.52-19.91-24.61-38.13-24.61-22.91,0-42.26,19.53-42.26,43.58s19.35,43.76,42.26,43.76c18.22,0,33.25-10.52,38.13-23.85Z"/><path class="cls-4" d="M10330.12,3006.79c2.82,21.6,21.04,38.13,43.2,38.13,15.4,0,29.11-8.08,36.81-20.29l2.82,2.25c-8.45,12.96-22.91,21.6-39.63,21.6-25.92,0-47.15-21.22-47.15-47.33s20.29-47.15,45.27-47.15,45.45,21.04,45.45,47.15c0,1.88,0,3.76-.19,5.63h-86.59Zm-.19-3.38h83.21v-2.25c0-24.04-18.78-43.58-41.7-43.58s-41.51,19.53-41.51,43.58v2.25Z"/><path class="cls-4" d="M10444.32,2923.96h3.57v93.54c0,17.47,7.14,26.11,20.47,26.11v3.57c-15.21,0-24.04-10.14-24.04-29.68v-93.54Z"/><path class="cls-4" d="M10494.47,2923.96c3.38,0,6.2,2.82,6.2,6.2s-2.82,6.2-6.2,6.2-6.2-2.82-6.2-6.2,2.82-6.2,6.2-6.2Zm-1.88,31.93h3.57v61.61c0,17.47,7.14,26.11,20.47,26.11v3.57c-15.21,0-24.04-10.14-24.04-29.68v-61.61Z"/><path class="cls-4" d="M10530.53,2955.89h12.21v-26.3h3.57v26.3h50.34v3.38h-50.34v53.91c0,19.72,8.83,31.74,27.61,31.74,9.2,0,16.15-2.63,23.29-6.57l1.69,3.19c-7.51,4.13-14.84,6.95-24.98,6.95-21.22,0-31.18-13.34-31.18-35.31v-53.91h-12.21v-3.38Z"/></g><g><path class="cls-4" d="M8625.56,3232.19c2.82,21.6,21.04,38.13,43.2,38.13,15.4,0,29.11-8.08,36.81-20.29l2.82,2.25c-8.45,12.96-22.92,21.6-39.63,21.6-25.92,0-47.15-21.22-47.15-47.33s20.29-47.15,45.27-47.15,45.45,21.04,45.45,47.15c0,1.88,0,3.76-.19,5.63h-86.59Zm-.19-3.38h83.21v-2.25c0-24.04-18.78-43.58-41.7-43.58s-41.51,19.53-41.51,43.58v2.25Z"/><path class="cls-4" d="M8741.64,3149.36c3.38,0,6.2,2.82,6.2,6.2s-2.82,6.2-6.2,6.2-6.2-2.82-6.2-6.2,2.82-6.2,6.2-6.2Zm-1.88,31.93h3.57v61.61c0,17.47,7.14,26.11,20.47,26.11v3.57c-15.21,0-24.04-10.14-24.04-29.68v-61.61Z"/><path class="cls-4" d="M8865.42,3181.29v89.78h-3.57v-18.78c-7.51,13.9-22.16,21.6-40.76,21.6-25.54,0-39.63-16.15-39.63-41.51v-51.09h3.57v51.09c0,23.1,12.77,37.94,36.06,37.94,20.47,0,34.75-9.95,40.76-25.92v-63.11h3.57Z"/><path class="cls-4" d="M8892.84,3259.99c9.95,6.76,23.85,10.14,36.25,10.14s34-3.94,34-20.85c0-14.46-17.09-17.66-34-20.85-18.22-3.38-36.06-6.76-36.06-23.85,0-19.35,20.47-25.17,36.06-25.17,11.83,0,22.92,2.44,31.18,9.39l-2.63,3.01c-7.7-6.39-17.84-8.64-28.55-8.64-14.09,0-32.31,5.07-32.31,21.41,0,13.9,16.34,16.9,33.06,20.1,18.41,3.38,37,6.95,37,24.61,0,19.91-24.42,24.61-37.75,24.61s-27.8-3.76-38.5-10.89l2.25-3.01Z"/><path class="cls-4" d="M8990.89,3271.07v-89.78h3.57v19.72c7.33-13.71,21.98-21.6,40.76-21.6s31.93,10.52,36.06,27.99c6.39-19.72,23.29-27.99,41.13-27.99,24.98,0,38.5,16.15,38.5,41.51v50.15h-3.57v-50.15c0-23.1-12.21-37.94-34.94-37.94-21.22,0-39.63,14.09-39.63,37.75v50.34h-3.57v-50.15c0-23.1-12.02-37.94-34-37.94-20.66,0-34.94,10.14-40.76,25.92v62.17h-3.57Z"/><path class="cls-4" d="M9221.92,3273.89c-25.92,0-47.15-21.22-47.15-47.33s21.04-47.15,47.15-47.15,47.33,21.04,47.33,47.15-21.22,47.33-47.33,47.33Zm0-90.91c-24.04,0-43.39,19.53-43.39,43.58s19.35,43.76,43.39,43.76,43.58-19.53,43.58-43.76-19.53-43.58-43.58-43.58Z"/><path class="cls-4" d="M9374.81,3271.07v-17.09c-7.51,12.21-21.79,19.91-38.13,19.91-24.98,0-46.02-21.22-46.02-47.33s21.04-47.15,46.02-47.15c16.34,0,30.62,7.89,38.13,20.1v-50.15h3.57v121.71h-3.57Zm0-24.61v-38.88c-4.88-13.52-19.91-24.61-38.13-24.61-22.91,0-42.26,19.53-42.26,43.58s19.35,43.76,42.26,43.76c18.22,0,33.25-10.52,38.13-23.85Z"/><path class="cls-4" d="M9457.64,3181.29h12.21v-26.3h3.57v26.3h50.34v3.38h-50.34v53.91c0,19.72,8.83,31.74,27.61,31.74,9.2,0,16.15-2.63,23.29-6.57l1.69,3.19c-7.51,4.13-14.84,6.95-24.98,6.95-21.22,0-31.18-13.34-31.18-35.31v-53.91h-12.21v-3.38Z"/><path class="cls-4" d="M9543.86,3232.19c2.82,21.6,21.04,38.13,43.2,38.13,15.4,0,29.11-8.08,36.81-20.29l2.82,2.25c-8.45,12.96-22.91,21.6-39.63,21.6-25.92,0-47.15-21.22-47.15-47.33s20.29-47.15,45.27-47.15,45.45,21.04,45.45,47.15c0,1.88,0,3.76-.19,5.63h-86.59Zm-.19-3.38h83.21v-2.25c0-24.04-18.78-43.58-41.7-43.58s-41.51,19.53-41.51,43.58v2.25Z"/><path class="cls-4" d="M9654.3,3271.07v-89.78h3.57v19.72c7.33-13.71,21.98-21.6,40.76-21.6s31.93,10.52,36.06,27.99c6.39-19.72,23.29-27.99,41.13-27.99,24.98,0,38.5,16.15,38.5,41.51v50.15h-3.57v-50.15c0-23.1-12.21-37.94-34.94-37.94-21.22,0-39.63,14.09-39.63,37.75v50.34h-3.57v-50.15c0-23.1-12.02-37.94-34-37.94-20.66,0-34.94,10.14-40.76,25.92v62.17h-3.57Z"/><path class="cls-4" d="M9840.63,3302.25v-120.96h3.57v18.22c7.51-12.21,21.6-20.1,38.13-20.1,24.98,0,46.02,21.04,46.02,47.15s-21.04,47.33-46.02,47.33c-16.53,0-30.62-7.7-38.13-19.91v48.27h-3.57Zm83.96-75.7c0-24.04-19.35-43.58-42.26-43.58-18.22,0-33.43,11.08-38.13,24.61v38.88c4.7,13.34,19.91,23.85,38.13,23.85,22.92,0,42.26-19.53,42.26-43.76Z"/><path class="cls-4" d="M9996.9,3273.89c-25.92,0-47.15-21.22-47.15-47.33s21.04-47.15,47.15-47.15,47.33,21.04,47.33,47.15-21.23,47.33-47.33,47.33Zm0-90.91c-24.04,0-43.39,19.53-43.39,43.58s19.35,43.76,43.39,43.76,43.58-19.53,43.58-43.76-19.53-43.58-43.58-43.58Z"/><path class="cls-4" d="M10068.09,3271.07v-89.78h3.57v19.35c6.2-13.52,19.16-21.22,35.12-21.22,22.16,0,35.69,13.15,37.57,34h-3.57c-1.88-18.6-14.09-30.43-34-30.43-17.84,0-29.87,10.14-35.12,25.55v62.55h-3.57Z"/></g></g></g><g><path class="cls-16" d="M5820.7,1399.77c-13.46-2.7-26.83-5.66-39.86-8.84-96.5-23.52-179.89-59.36-247.84-106.52-35.46-24.61-66.19-52.13-91.34-81.79-25.76-30.37-45.87-63.25-59.8-97.71-8.26-20.45-14.45-41.76-18.38-63.33-9.36-51.34-6.18-104.26,9.46-157.31,10.58-35.88,26.92-71.88,48.57-107,21.31-34.57,47.93-68.55,79.11-101,31.4-32.67,67.63-64.02,107.69-93.16,16.19-11.77,33.22-23.35,50.64-34.39,60.71-38.51,128.12-72.16,200.37-100.02,72.97-28.13,150.36-50.12,230.03-65.38,4.02-.77,8.09-1.53,12.12-2.26,79.99-14.59,160.35-22.07,238.85-22.23,80.18-.17,157.8,7.27,230.7,22.11,71.89,14.63,138.12,36.23,196.83,64.2,57.28,27.28,106.55,60.24,146.46,97.94,41,38.74,71.66,82.1,91.13,128.88,8.93,21.46,15.56,43.85,19.7,66.55,5.33,29.2,6.6,59.23,3.79,89.24-4.91,52.39-22.16,105.27-51.28,157.17-11.18,19.93-24.22,39.87-38.78,59.28-21.35,28.47-46.4,56.42-74.47,83.08-44.74,42.5-97.26,81.97-156.11,117.31-59.72,35.86-125.43,67.15-195.31,92.98-71.87,26.57-147.86,47.26-225.84,61.48l-.62,.11c-74.31,13.52-149.1,20.91-222.29,21.98-12.1,.18-24.33,.18-36.39,0-34.08,19.82-219.19-3.89-207.15-21.37Z"/><ellipse class="cls-13" cx="6295.85" cy="1646.91" rx="573.44" ry="133.65" transform="translate(-36.43 146.15) rotate(-1.33)"/><path class="cls-8" d="M5825.28,1693.14c-1.16-3.22-.08-6.82,2.67-8.86,9.32-6.95,31.33-27.47,82.12-87.62,11.68-13.83,24.11-28.88,36.28-43.91-10.36-5.07-20.62-10.38-30.58-15.85-73.71-40.45-135.14-90.67-182.58-149.26-24.75-30.57-45.31-63.16-61.09-96.85-16.16-34.5-27.45-70.45-33.55-106.86-3.62-21.6-5.46-43.67-5.46-65.6,0-52.18,10.26-103.68,30.5-153.06,13.69-33.4,32-65.88,54.43-96.55,22.07-30.18,48.31-58.83,77.97-85.17,29.86-26.51,63.39-50.85,99.66-72.33,14.66-8.68,29.96-17.01,45.49-24.75,54.14-27,112.94-48,174.75-62.44,62.43-14.58,127.5-22.33,193.41-23.04,3.32-.04,6.69-.05,10.02-.05,66.07,0,131.4,7.06,194.17,20.99,64.12,14.23,125.08,35.47,181.19,63.15,55.34,27.3,105.12,60.43,147.98,98.48,41.81,37.12,76.39,78.38,102.79,122.64,27.12,45.47,45.31,93.62,54.05,143.14,4.01,22.71,6.04,45.93,6.04,69,0,29.69-3.36,59.45-9.98,88.47-11.56,50.66-33.07,99.58-63.9,145.41-11.84,17.6-25.18,34.87-39.64,51.36-21.22,24.18-45.32,47.18-71.64,68.37-41.96,33.79-89.7,63.19-141.89,87.39-52.97,24.56-110.06,43.55-169.68,56.43-61.33,13.25-125.08,19.96-189.49,19.96h-.51c-61.38-.03-122.24-6.18-180.89-18.26-9.7-2-19.47-4.19-29.09-6.52-30.13,13.38-76.51,29.68-137.91,48.45-19.16,5.86-39.75,11.94-61.21,18.09-34.33,9.83-62.56,17.43-75.04,20.74-3.9,1.04-7.95-1.09-9.32-4.89-.02-.06-.05-.13-.07-.19Z"/><path class="cls-7" d="M6137.92,1617.46c-9.7-2-19.47-4.19-29.09-6.52-30.13,13.38-76.51,29.68-137.91,48.45-19.16,5.86-39.75,11.94-61.21,18.09-34.23,9.8-62.4,17.38-74.93,20.71-3.97,1.05-8.08-1.11-9.46-4.97h0c-1.17-3.27-.08-6.92,2.71-9,9.36-7,31.39-27.57,82.05-87.57,11.68-13.83,24.11-28.88,36.28-43.91"/><ellipse class="cls-18" cx="6021.56" cy="1579.76" rx="13.34" ry="85.43" transform="translate(2617.47 6791.96) rotate(-71.55)"/></g><g><path class="cls-15" d="M5977.11,3002.15c-9.22-1.85-18.38-3.88-27.31-6.05-66.11-16.11-123.24-40.66-169.79-72.98-24.29-16.86-45.35-35.71-62.58-56.03-17.64-20.81-31.43-43.33-40.97-66.94-5.66-14.01-9.9-28.61-12.59-43.39-6.41-35.17-4.23-71.43,6.48-107.77,7.25-24.58,18.44-49.24,33.28-73.31,14.6-23.68,32.84-46.96,54.2-69.2,21.51-22.38,46.33-43.86,73.78-63.83,11.09-8.07,22.76-15.99,34.69-23.56,41.59-26.39,87.78-49.44,137.27-68.52,49.99-19.27,103.01-34.34,157.6-44.79,2.75-.53,5.54-1.05,8.3-1.55,54.8-10,109.86-15.12,163.63-15.23,54.93-.11,108.11,4.98,158.05,15.15,49.25,10.03,94.62,24.82,134.85,43.98,39.24,18.69,73,41.27,100.34,67.1,28.09,26.54,49.09,56.25,62.43,88.29,6.12,14.7,10.66,30.04,13.5,45.59,3.65,20.01,4.52,40.58,2.59,61.14-3.37,35.89-15.18,72.12-35.13,107.67-7.66,13.65-16.6,27.31-26.57,40.61-14.63,19.5-31.79,38.65-51.02,56.92-30.65,29.12-66.64,56.16-106.95,80.37-40.91,24.57-85.93,46-133.81,63.7-49.24,18.21-101.29,32.38-154.72,42.12l-.42,.08c-50.91,9.26-102.15,14.33-152.29,15.06-8.29,.12-16.67,.12-24.93,0-23.35,13.58-150.17-2.67-141.92-14.64Z"/><ellipse class="cls-11" cx="6302.64" cy="3171.47" rx="392.86" ry="91.56" transform="translate(-71.71 146.71) rotate(-1.33)"/><path class="cls-23" d="M5980.26,3203.14c-.79-2.21-.05-4.67,1.83-6.07,6.38-4.76,21.47-18.82,56.26-60.03,8-9.47,16.52-19.79,24.86-30.08-7.1-3.47-14.13-7.11-20.95-10.86-50.5-27.71-92.58-62.12-125.09-102.26-16.96-20.94-31.04-43.27-41.85-66.35-11.07-23.64-18.8-48.27-22.99-73.21-2.48-14.8-3.74-29.92-3.74-44.94,0-35.75,7.03-71.03,20.89-104.86,9.38-22.88,21.92-45.14,37.29-66.14,15.12-20.68,33.09-40.31,53.41-58.35,20.46-18.16,43.43-34.83,68.28-49.55,10.04-5.95,20.53-11.65,31.17-16.96,37.09-18.49,77.37-32.89,119.72-42.78,42.77-9.99,87.35-15.3,132.51-15.79,2.28-.02,4.59-.04,6.86-.04,45.26,0,90.02,4.84,133.02,14.38,43.93,9.75,85.69,24.3,124.13,43.26,37.91,18.7,72.02,41.4,101.38,67.47,28.64,25.43,52.34,53.7,70.42,84.02,18.58,31.15,31.04,64.14,37.03,98.06,2.75,15.56,4.14,31.47,4.14,47.27,0,20.34-2.3,40.73-6.84,60.61-7.92,34.7-22.65,68.22-43.78,99.62-8.11,12.06-17.25,23.89-27.16,35.18-14.54,16.56-31.05,32.32-49.08,46.84-28.75,23.15-61.45,43.29-97.21,59.87-36.29,16.83-75.4,29.84-116.25,38.66-42.01,9.08-85.69,13.68-129.82,13.68h-.35c-42.05-.02-83.74-4.23-123.93-12.51-6.65-1.37-13.34-2.87-19.93-4.47-20.64,9.17-52.42,20.33-94.48,33.19-13.12,4.01-27.23,8.18-41.93,12.39-23.52,6.74-42.86,11.94-51.41,14.21-2.68,.71-5.45-.75-6.38-3.35-.02-.04-.03-.09-.05-.13Z"/><path class="cls-22" d="M6194.44,3151.29c-6.65-1.37-13.34-2.87-19.93-4.47-20.64,9.17-52.42,20.33-94.48,33.19-13.12,4.01-27.23,8.18-41.93,12.39-23.45,6.72-42.75,11.91-51.34,14.19-2.72,.72-5.53-.76-6.48-3.4h0c-.8-2.24-.05-4.74,1.85-6.17,6.41-4.8,21.51-18.89,56.21-59.99,8-9.47,16.52-19.79,24.86-30.08"/><ellipse class="cls-20" cx="6114.72" cy="3125.46" rx="9.14" ry="58.52" transform="translate(1214.88 7936.9) rotate(-71.55)"/></g><g><path class="cls-17" d="M1391.01,1505.73c9.21-1.85,18.37-3.88,27.29-6.05,66.07-16.1,123.17-40.64,169.69-72.93,24.28-16.85,45.32-35.69,62.54-56,17.63-20.79,31.41-43.3,40.94-66.9,5.66-14,9.89-28.59,12.59-43.36,6.41-35.15,4.23-71.39-6.48-107.71-7.24-24.57-18.43-49.22-33.26-73.26-14.59-23.67-32.82-46.93-54.17-69.16-21.5-22.37-46.3-43.83-73.73-63.79-11.08-8.06-22.75-15.99-34.67-23.55-41.57-26.37-87.72-49.41-137.19-68.48-49.96-19.26-102.95-34.32-157.5-44.76-2.75-.53-5.54-1.05-8.3-1.55-54.77-9.99-109.79-15.11-163.54-15.22-54.9-.11-108.04,4.98-157.95,15.14-49.22,10.02-94.57,24.81-134.77,43.96-39.22,18.68-72.96,41.24-100.28,67.06-28.07,26.52-49.06,56.21-62.39,88.24-6.12,14.69-10.65,30.02-13.49,45.57-3.65,20-4.52,40.55-2.59,61.1,3.36,35.87,15.18,72.08,35.11,107.61,7.65,13.64,16.59,27.3,26.55,40.59,14.62,19.49,31.77,38.63,50.99,56.88,30.63,29.1,66.6,56.12,106.89,80.32,40.89,24.55,85.88,45.97,133.73,63.66,49.21,18.2,101.23,32.36,154.63,42.1l.42,.08c50.88,9.26,102.09,14.32,152.2,15.05,8.29,.12,16.66,.12,24.92,0,23.34,13.57,150.08-2.67,141.83-14.63Z"/><ellipse class="cls-12" cx="1065.68" cy="1674.95" rx="91.51" ry="392.63" transform="translate(-633.48 2701.58) rotate(-88.67)"/><path class="cls-24" d="M1387.87,1706.6c.79-2.21,.05-4.67-1.83-6.07-6.38-4.76-21.45-18.81-56.23-59.99-7.99-9.47-16.51-19.78-24.84-30.07,7.1-3.47,14.12-7.11,20.94-10.85,50.47-27.7,92.53-62.08,125.01-102.2,16.95-20.93,31.02-43.24,41.83-66.31,11.06-23.62,18.79-48.24,22.97-73.16,2.48-14.79,3.74-29.9,3.74-44.92,0-35.73-7.03-70.99-20.88-104.8-9.37-22.87-21.91-45.11-37.27-66.11-15.11-20.66-33.08-40.28-53.38-58.31-20.44-18.15-43.4-34.81-68.24-49.52-10.03-5.94-20.51-11.64-31.15-16.95-37.07-18.48-77.33-32.87-119.65-42.75-42.74-9.98-87.3-15.29-132.43-15.78-2.28-.02-4.58-.04-6.86-.04-45.24,0-89.97,4.83-132.95,14.37-43.9,9.74-85.64,24.29-124.06,43.24-37.89,18.69-71.98,41.38-101.32,67.43-28.63,25.42-52.31,53.67-70.38,83.97-18.57,31.13-31.02,64.1-37.01,98-2.75,15.55-4.14,31.45-4.14,47.25,0,20.33,2.3,40.71,6.84,60.57,7.92,34.68,22.64,68.18,43.75,99.56,8.11,12.05,17.24,23.88,27.14,35.16,14.53,16.55,31.03,32.3,49.05,46.81,28.73,23.13,61.42,43.26,97.15,59.84,36.27,16.82,75.35,29.82,116.18,38.64,41.99,9.07,85.64,13.67,129.74,13.67h.35c42.02-.02,83.69-4.23,123.85-12.5,6.64-1.37,13.33-2.87,19.92-4.46,20.63,9.16,52.39,20.32,94.42,33.17,13.12,4.01,27.22,8.18,41.91,12.39,23.51,6.73,42.84,11.93,51.38,14.2,2.67,.71,5.44-.75,6.38-3.35,.02-.04,.03-.09,.05-.13Z"/><path class="cls-21" d="M1173.82,1654.78c6.64-1.37,13.33-2.87,19.92-4.46,20.63,9.16,52.39,20.32,94.42,33.17,13.12,4.01,27.22,8.18,41.91,12.39,23.44,6.71,42.72,11.9,51.31,14.18,2.72,.72,5.53-.76,6.48-3.4h0c.8-2.24,.05-4.74-1.85-6.16-6.41-4.79-21.49-18.88-56.18-59.96-7.99-9.47-16.51-19.78-24.84-30.07"/><ellipse class="cls-19" cx="1253.49" cy="1628.97" rx="58.49" ry="9.14" transform="translate(-451.07 480.38) rotate(-18.45)"/></g></g></g></svg>