<?xml version="1.0" encoding="UTF-8"?><svg id="_Слой_1" xmlns="http://www.w3.org/2000/svg" xmlns:xlink="http://www.w3.org/1999/xlink" viewBox="0 0 12000 4000"><defs><style>.cls-1{fill:url(#_Безымянный_градиент_17-10);}.cls-2{fill:#e86546;}.cls-3{fill:#f0bb7e;}.cls-4{fill:#212121;}.cls-5{fill:#2f9b43;}.cls-6{fill:url(#_Безымянный_градиент_17);}.cls-7{fill:url(#_Безымянный_градиент_17-2);}.cls-8{fill:url(#_Безымянный_градиент_17-6);}.cls-9{fill:url(#_Безымянный_градиент_17-8);}.cls-10{fill:url(#_Безымянный_градиент_17-5);}.cls-11{fill:url(#_Безымянный_градиент_17-3);}.cls-12{fill:url(#_Безымянный_градиент_17-9);}.cls-13{fill:url(#_Безымянный_градиент_17-4);}.cls-14{fill:url(#_Безымянный_градиент_17-7);}</style><linearGradient id="_Безымянный_градиент_17" x1="4097.87" y1="2647.53" x2="4422.23" y2="3841.34" gradientUnits="userSpaceOnUse"><stop offset="0" stop-color="#e86546"/><stop offset=".51" stop-color="#f0bb7e"/><stop offset="1" stop-color="#023d15" stop-opacity=".8"/></linearGradient><linearGradient id="_Безымянный_градиент_17-2" x1="4494.13" y1="2539.87" x2="4818.49" y2="3733.68" xlink:href="#_Безымянный_градиент_17"/><linearGradient id="_Безымянный_градиент_17-3" x1="4899.11" y1="2429.83" x2="5223.46" y2="3623.65" xlink:href="#_Безымянный_градиент_17"/><linearGradient id="_Безымянный_градиент_17-4" x1="5296.45" y1="2321.88" x2="5620.8" y2="3515.69" xlink:href="#_Безымянный_градиент_17"/><linearGradient id="_Безымянный_градиент_17-5" x1="5693.9" y1="2213.89" x2="6018.26" y2="3407.7" xlink:href="#_Безымянный_градиент_17"/><linearGradient id="_Безымянный_градиент_17-6" x1="6027.37" y1="2123.29" x2="6351.73" y2="3317.1" xlink:href="#_Безымянный_градиент_17"/><linearGradient id="_Безымянный_градиент_17-7" x1="6392.83" y1="2023.99" x2="6717.19" y2="3217.81" xlink:href="#_Безымянный_градиент_17"/><linearGradient id="_Безымянный_градиент_17-8" x1="6782.51" y1="1918.12" x2="7106.87" y2="3111.93" xlink:href="#_Безымянный_градиент_17"/><linearGradient id="_Безымянный_градиент_17-9" x1="7211.84" y1="1801.47" x2="7536.2" y2="2995.28" xlink:href="#_Безымянный_градиент_17"/><linearGradient id="_Безымянный_градиент_17-10" x1="7569.4" y1="1704.32" x2="7893.76" y2="2898.13" xlink:href="#_Безымянный_градиент_17"/></defs><rect class="cls-4" width="12000" height="4000"/><g><path d="M7055.99,1516.37c-1,1.94-2.22,3.89-3.65,5.8-1.72,2.29-3.74,4.54-6.12,6.76-7.01,6.54-14.01,12.31-20.84,17.39-1.34,1-2.68,1.97-4,2.92-17.55,12.53-33.57,20.46-44.67,25.12-1.47,.62-2.85,1.18-4.12,1.68-7.26,2.85-11.58,4-11.58,4,0,0,2.23,6.3,6.12,15.27,.62,1.41,1.28,2.89,1.97,4.42,7.14,15.7,18.44,36.91,31.67,48.5,0,0,65.34,34.08,39.78,76.7-25.58,42.6-62.5,45.45-62.5,45.45,0,0,56.8,36.92,59.65,65.32,2.85,28.42-11.37,48.3-42.61,51.14-30.48,2.77-42.03-2.56-42.61-2.81,.24,.94,22.64,85.43,5.69,127.8-17.04,42.63-59.65,102.27-153.4,99.42-45.86-1.38-89.68-12.97-126.13-23.78-5.94-1.76-11.69-3.5-17.21-5.16-17.24-5.21-32.35-9.77-44.63-12.22-.46-.09-.91-.19-1.37-.27-.54-.11-1.08-.2-1.6-.28-1.42-.25-2.78-.49-4.12-.66-5.92-.82-11.02-.97-15.15-.21-8.78,1.59-19.98,7.18-31.32,17.21-3.36,2.96-6.73,6.32-10.04,10.07-12.62,14.29-24.56,34.35-32.49,60.77-17.05,56.81-36.94,198.85,0,235.78,4.76,4.76,261.34,360.23,418.17,564.97h-1998.73c91.44-137.23,246.54-362.78,428.68-461.3,33.99-18.38,119.3-105.12,142.03-164.77,22.72-59.65,71.02-164.74,170.44-150.55,0,0,15.23-37.5,26.88-87.67,6.49-27.93,11.87-59.8,12.89-91.29,2.83-88.06-105.12-62.5-110.8-122.14-3.2-33.62-39.75-36.56-72.08-44.93-3.93-1.02-7.78-2.11-11.52-3.35-10.06-3.33-19.19-7.73-26.05-14.42-6.84-6.69-11.44-15.67-12.49-28.22-5.67-68.15-76.69-19.88-93.74-136.34-17.05-116.47-56.81-68.17-65.34-125-8.52-56.8,0-76.69,0-76.69,0,0-45.46,28.42-107.95,34.1-62.5,5.67-56.82,42.59-93.74,2.83-2.73-2.95-5.86-5.79-9.27-8.57-19.59-15.89-48.94-29.37-72.84-47.24-28.01-20.94-48.55-47.93-37.2-91.9,22.73-88.05-5.67-153.4,62.51-173.27,68.17-19.89,28.4-133.51,99.42-110.79,65.32,20.91,92.18-73.61,135.89-42.39,2.37,1.68,4.79,3.75,7.25,6.22,1.5,1.49,3.03,3.13,4.56,4.92,51.14,59.65,22.73,56.81,34.08,65.32,.03,.03,.06,.04,.08,.07,2.36,1.7,3.34-.98,3.42-6.41,.12-7.65-1.56-20.76-3.71-34.72-1.22-8.01-2.59-16.3-3.87-24.01-2.4-14.5-4.44-26.94-4.44-31.49,0-1.94,.55-6.43,1.55-12.88,.48-3.1,1.07-6.64,1.74-10.6,8.23-47.95,29.98-153.03,43.58-193.84,17.04-51.13,156.23-159.08,213.06-193.16,56.8-34.1,272.69-107.94,363.59-119.31,1.27-.15,2.55-.32,3.84-.5,29.86-4.01,64.2-11.7,103.22-18.11h0c2.2-.36,4.43-.72,6.68-1.07,11.1-1.76,22.58-3.39,34.43-4.78,6.89-.82,13.91-1.55,21.05-2.2,3.77-.34,7.6-.65,11.46-.92,27.04-1.95,55.84-2.37,86.44-.15,7.01,.5,14.12,1.14,21.32,1.95,5.86,.64,11.78,1.38,17.76,2.24,25.52,3.65,52.2,9.25,80.05,17.36,6.58,1.92,13.23,3.98,19.95,6.17,1.68,.56,3.36,1.11,5.02,1.68,1.98,.68,3.97,1.37,5.94,2.05,114.13,40.22,201.34,114.36,249.14,165.91,1.7,1.84,3.34,3.64,4.94,5.42,22.61,25.06,35.15,43.89,36.06,49.35,2.04,12.29,1.14,18.67,.49,21.27-.26,1.02-.49,1.45-.49,1.45,0,0,2.95,2.94,8,8.1,22.58,23.05,87.33,90.35,119.81,136.78,17.12,24.44,48.43,55.19,78.77,86.82,2.91,3.05,5.82,6.11,8.74,9.17,36.86,38.98,70.09,78.51,71.58,108.52,2.84,56.83-90.91,136.36-82.38,164.77,6.55,21.81,53.35,102.36,87.57,151.38,1.92,2.76,3.81,5.41,5.64,7.95,4,5.56,7.78,10.56,11.21,14.84,2.33,2.87,4.48,5.42,6.47,7.6,.95,1.05,1.86,2,2.72,2.87,16.24,16.25,45.49,39.91,59.59,64.64,2.06,3.62,3.79,7.26,5.12,10.89,3.86,10.55,4.25,21.12-.95,31.23Z"/><g><path class="cls-4" d="M5399.87,1252.64c9.26,15.22,18.08,31.37,23.21,48.29,28.08,92.59,93.96,140.48,185.11,158.85,25.42,5.13,51.3,7.88,76.86,12.34,8.19,1.42,16.77,3.56,23.88,7.62,36.48,20.86,71.87,43.68,108.94,63.33,25.22,13.37,51.94,24.84,79.2,33.19,11.84,3.63,23.51,4.71,34.88,3.6,18.48-1.78,36.16-9.32,52.42-20.98,45.52-32.67,72.03-79.94,98.63-128.78-12.55-.48-25.1-.82-37.63-1.13-93.25-2.31-185.52-3.18-268.67-52.1,.25-1.39,.5-2.79,.75-4.2,17.92-3.85,36.77-5.37,53.53-12.1,24.25-9.73,47.06-23.09,70.28-35.3,3.6-1.89,6.35-5.63,9.09-8.86,8.47-9.99,16.2-20.89,10.95-34.6-5.05-13.16-17.76-15.73-30.16-17.65-1.78-.28-3.56-.54-8.38-1.26,6.22-3.37,10.17-5.33,13.95-7.59,23.75-14.19,41.68-33.05,45.11-61.68,3.24-27.07-10.71-41.04-37.9-39.8-3.2,.15-6.4,.35-10.32,.56,7.07-12.56,15.25-23.73,19.84-36.21,4.62-12.55,7.86-26.43,7.76-39.69-.18-21.56-17.16-32.89-38.08-27.5-6.32,1.64-12.5,4.29-18.3,7.33-5.73,3-10.89,7.07-18.24,11.96,8.26-72.59,4.85-140.2-58.54-190.12-2.82,31.14-4.32,60.7-8.36,89.9-8.13,58.97-24.63,115.42-56.64,166.32-21.84,34.73-49.64,62.91-88.91,78.03-29.95,11.53-57.78,8.04-82.33-12.58-13.69-11.51-25.62-25.09-38.6-37.46-10.92-10.4-21.32-21.68-33.54-30.34-35.45-25.12-77.03-16.58-100.63,19.7-6.19,9.49-11.44,19.61-17.92,28.87-14.51,27.24,27.24,51.06,38.77,70.02Zm8.87-81.71c1.32-6.3,10.57-14.73,14.9-20.4,2.15,.04,14.42,14.82,15.41,21.17,1.52,9.79-5.6,16.12-15.56,15.85-9.91-.27-16.77-6.92-14.75-16.62Z"/><path class="cls-4" d="M5744.42,987.97c-34.8-8.43-43.28,19.25-56.33,42.61-28.66-65.59-62.69-123.79-143.17-134.78,1.78,3.4,2.52,5.48,3.8,7.14,40.29,52.39,52.58,112.49,44.79,176.46-4.25,34.91-13.79,69.24-22.06,103.55-2.05,8.5-1.07,13.01,6.23,17.36,16.3,9.72,33.99,12.26,49.83,2.65,16.63-10.1,33.42-22.03,45.69-36.84,41.44-50.02,61.31-109.78,72.09-172.97,.22-1.28-.42-2.7-.86-5.19Z"/></g></g><g><g><path class="cls-2" d="M4940,2995.76h108.23v10.85h-94.85v151.96h79.05v10.85h-79.05v107.04h-13.38v-280.71Z"/><path class="cls-2" d="M5084.31,3108.04h12.97v38.92c5.4-12.22,13.31-21.83,23.71-28.82,10.4-6.98,22.23-10.48,35.47-10.48,8.37,0,16.89,1.63,25.54,4.87v13.85c-7.84-5.49-16.62-8.23-26.35-8.23s-19.12,2.75-28.17,8.23c-9.06,5.49-16.35,12.85-21.89,22.08-5.54,9.23-8.31,19.09-8.31,29.57v98.44h-12.97v-168.43Z"/><path class="cls-2" d="M5330.76,3260.37c12.7-6.74,23.24-15.97,31.62-27.7v19.09c-10,10.23-20.95,17.66-32.83,22.27-11.89,4.62-25.4,6.93-40.54,6.93-16.76,0-32.5-4.12-47.22-12.35-14.73-8.23-26.49-19.21-35.27-32.94-8.78-13.72-13.17-28.32-13.17-43.79,0-16.71,4.32-31.75,12.97-45.1,8.65-13.34,20.47-23.77,35.47-31.25,15-7.49,31.68-11.23,50.06-11.23,28.1,0,52.02,10.23,71.75,30.69l-127.28,116.03c8.92,6.74,17.56,11.67,25.94,14.78,8.37,3.12,17.84,4.68,28.38,4.68,14.05,0,27.43-3.37,40.13-10.11Zm-102.15-16.47l118.77-108.92c-8.92-7.23-17.57-12.41-25.94-15.53-8.38-3.12-18.38-4.68-30-4.68-16.49,0-31.15,3.31-43.98,9.92-12.84,6.61-22.9,15.66-30.2,27.14-7.3,11.48-10.94,24.46-10.94,38.92,0,20.71,7.43,38.43,22.29,53.15Z"/><path class="cls-2" d="M5533.03,3260.37c12.7-6.74,23.24-15.97,31.62-27.7v19.09c-10,10.23-20.95,17.66-32.83,22.27-11.89,4.62-25.4,6.93-40.54,6.93-16.76,0-32.5-4.12-47.22-12.35-14.73-8.23-26.49-19.21-35.27-32.94-8.78-13.72-13.17-28.32-13.17-43.79,0-16.71,4.32-31.75,12.97-45.1,8.65-13.34,20.47-23.77,35.47-31.25,15-7.49,31.68-11.23,50.06-11.23,28.1,0,52.02,10.23,71.75,30.69l-127.28,116.03c8.92,6.74,17.56,11.67,25.94,14.78,8.37,3.12,17.84,4.68,28.38,4.68,14.05,0,27.43-3.37,40.13-10.11Zm-102.15-16.47l118.77-108.92c-8.92-7.23-17.57-12.41-25.94-15.53-8.38-3.12-18.38-4.68-30-4.68-16.49,0-31.15,3.31-43.98,9.92-12.84,6.61-22.9,15.66-30.2,27.14-7.3,11.48-10.94,24.46-10.94,38.92,0,20.71,7.43,38.43,22.29,53.15Z"/><path class="cls-3" d="M5643.9,3268.61c-14.73-7.98-26.42-18.71-35.06-32.19-8.65-13.47-12.97-28.19-12.97-44.16s4.32-30.69,12.97-44.17c8.65-13.48,20.33-24.2,35.06-32.19,14.73-7.98,30.87-11.98,48.44-11.98s33.24,4.18,48.64,12.54c15.4,8.36,26.75,19.27,34.05,32.75v-153.46h12.97v280.71h-12.97v-40.8c-8.11,13.48-19.8,24.33-35.06,32.56-15.27,8.23-31.15,12.35-47.63,12.35-17.57,0-33.71-3.99-48.44-11.98Zm89.58-9.17c12.83-7.11,23.1-16.59,30.81-28.45,7.7-11.85,11.55-24.64,11.55-38.36s-3.85-26.57-11.55-38.55c-7.7-11.98-17.98-21.58-30.81-28.82-12.84-7.23-26.69-10.85-41.55-10.85s-28.65,3.56-41.35,10.67c-12.71,7.11-22.84,16.66-30.4,28.63-7.57,11.98-11.35,24.83-11.35,38.55s3.71,26.89,11.15,38.74c7.43,11.85,17.56,21.33,30.4,28.45,12.83,7.11,26.68,10.67,41.55,10.67s28.71-3.56,41.55-10.67Z"/><path class="cls-3" d="M5875.96,3269.92c-14.87-8.36-26.49-19.46-34.86-33.31-8.38-13.85-12.57-28.88-12.57-45.1s4.26-30.81,12.77-44.54c8.51-13.72,20.13-24.64,34.86-32.75,14.73-8.1,31.14-12.16,49.25-12.16s34.11,4.06,48.85,12.16c14.73,8.11,26.28,19.03,34.66,32.75,8.37,13.73,12.57,28.57,12.57,44.54s-4.05,32-12.16,45.85c-8.11,13.85-19.39,24.83-33.85,32.94-14.46,8.11-31.01,12.16-49.66,12.16s-35-4.18-49.86-12.54Zm92.02-8.8c12.7-7.23,22.63-16.9,29.79-29.01,7.16-12.1,10.74-25.39,10.74-39.86s-3.65-27.45-10.94-39.67c-7.3-12.22-17.3-21.95-30-29.19-12.71-7.23-26.75-10.85-42.16-10.85s-29.53,3.68-42.36,11.04c-12.84,7.36-22.97,17.16-30.4,29.38-7.44,12.23-11.15,25.45-11.15,39.67s3.71,27.39,11.15,39.49c7.43,12.11,17.56,21.77,30.4,29.01,12.83,7.24,27.09,10.85,42.77,10.85s29.45-3.61,42.16-10.85Z"/><path class="cls-3" d="M6057.96,3108.04h12.97v25.45c12.43-19.71,32.43-29.57,59.99-29.57,13.24,0,24.73,3.43,34.46,10.29,9.73,6.87,16.48,17.16,20.27,30.88,3.51-12.22,11.28-22.14,23.31-29.75,12.02-7.61,25.6-11.42,40.74-11.42,19.72,0,34.99,5.3,45.81,15.91,10.8,10.61,16.21,25.64,16.21,45.1v111.54h-12.97v-111.54c0-15.72-4.4-28.07-13.17-37.05-8.78-8.98-20.34-13.47-34.66-13.47-10.81,0-20.81,2.43-30,7.3-9.19,4.87-16.49,11.42-21.89,19.65-5.41,8.23-8.11,17.35-8.11,27.32v107.79h-12.97v-104.8c0-17.97-4.6-32-13.78-42.11-9.19-10.11-21.08-15.16-35.67-15.16-9.73,0-18.99,2.25-27.77,6.74-8.78,4.49-15.95,10.54-21.48,18.15-5.54,7.61-8.31,15.91-8.31,24.89v112.28h-12.97v-168.43Z"/><g><path class="cls-5" d="M6458.45,2995.76h12.97c48.37,0,85.73,12.16,112.08,36.49,26.35,24.33,39.52,58.95,39.52,103.86,0,25.7-6.76,49.28-20.27,70.74-13.52,21.46-31.82,38.43-54.93,50.9-23.11,12.48-48.58,18.71-76.41,18.71h-12.97v-280.71Zm16.21,269.11c24.86,0,47.56-5.67,68.1-17.03,20.53-11.35,36.82-26.88,48.85-46.6,12.02-19.71,18.04-41.42,18.04-65.12,0-41.42-11.69-73.3-35.06-95.63-23.38-22.33-56.69-33.5-99.92-33.5h-3.24v257.88h3.24Z"/><path class="cls-5" d="M6705.31,3268.61c-14.87-7.98-26.62-18.77-35.27-32.37-8.65-13.6-12.97-28.26-12.97-43.98s4.32-30.38,12.97-43.98c8.65-13.6,20.4-24.39,35.27-32.38,14.86-7.98,30.94-11.98,48.24-11.98s34.18,4.3,49.86,12.91c15.67,8.61,26.61,19.78,32.83,33.5v-42.29h12.97v168.43h-12.97v-41.92c-7.3,13.98-18.58,25.14-33.85,33.5-15.27,8.36-31.55,12.54-48.85,12.54s-33.38-3.99-48.24-11.98Zm90.4-9.17c12.7-7.11,22.76-16.59,30.2-28.45,7.43-11.85,11.15-24.76,11.15-38.74s-3.79-26.57-11.35-38.55c-7.57-11.98-17.7-21.52-30.4-28.63-12.71-7.11-26.49-10.67-41.35-10.67s-28.72,3.62-41.55,10.85c-12.84,7.24-23.1,16.84-30.81,28.82-7.7,11.98-11.55,24.83-11.55,38.55s3.85,26.52,11.55,38.36c7.7,11.85,18.04,21.33,31.01,28.45,12.97,7.11,26.89,10.67,41.75,10.67s28.64-3.56,41.35-10.67Z"/><path class="cls-5" d="M6903.94,3321.01v-19.09c8.92,12.97,19.05,22.64,30.4,29.01,11.35,6.36,24.59,9.54,39.73,9.54s28.58-2.99,39.52-8.98c10.94-5.99,19.25-14.16,24.93-24.52,5.67-10.36,8.51-21.9,8.51-34.62v-28.44c-6.49,11.73-16.28,20.77-29.39,27.14-13.11,6.36-27.36,9.54-42.77,9.54s-29.05-3.12-40.94-9.36c-11.89-6.23-21.15-14.97-27.77-26.2-6.63-11.23-9.93-24.2-9.93-38.92v-98.06h12.97v98.06c0,13.47,3.04,25.02,9.12,34.62,6.08,9.61,14.12,16.91,24.12,21.9,9.99,4.99,20.94,7.49,32.83,7.49,12.97,0,24.99-2.93,36.08-8.8,11.08-5.86,19.79-13.72,26.15-23.58,6.35-9.85,9.53-20.4,9.53-31.63v-98.06h12.97v163.18c0,14.97-3.31,28.5-9.93,40.61-6.63,12.1-16.28,21.64-28.98,28.63-12.71,6.98-27.84,10.48-45.4,10.48-30.27,0-54.19-9.98-71.75-29.94Z"/></g></g><g><path class="cls-6" d="M4149.37,2567.83h120.47v211.34c0,44.37-3.94,78.14-11.81,101.29-7.87,23.16-23.71,42.78-47.5,58.86-23.79,16.09-54.26,24.13-91.41,24.13-39.27,0-69.7-5.31-91.28-15.92-21.58-10.61-38.26-26.14-50.02-46.57-11.77-20.43-18.71-45.68-20.83-75.76l114.89-15.66c.17,17.16,1.68,29.9,4.51,38.21,2.83,8.32,7.6,15.04,14.33,20.17,4.6,3.36,11.14,5.04,19.64,5.04,13.44,0,23.3-4.99,29.59-14.98,6.28-9.98,9.42-26.82,9.42-50.5v-239.66Z"/><path class="cls-7" d="M4603.11,2567.83h119.93v231.75c0,22.98-3.58,44.68-10.75,65.1-7.16,20.42-18.4,38.28-33.7,53.57-15.3,15.29-31.36,26.03-48.16,32.21-23.35,8.66-51.39,12.99-84.11,12.99-18.93,0-39.58-1.33-61.96-3.98-22.38-2.66-41.09-7.91-56.12-15.78-15.04-7.86-28.79-19.05-41.26-33.54-12.47-14.49-21.01-29.43-25.61-44.81-7.43-24.75-11.14-46.67-11.14-65.76v-231.75h119.93v237.27c0,21.21,5.88,37.78,17.65,49.71,11.76,11.93,28.08,17.89,48.96,17.89s36.92-5.87,48.69-17.63c11.76-11.75,17.65-28.41,17.65-49.97v-237.27Z"/><path class="cls-11" d="M4803.44,2567.83h112.24l146.47,215.21v-215.21h113.3v388.99h-113.3l-145.67-213.58v213.58h-113.04v-388.99Z"/><path class="cls-13" d="M5255.05,2567.83h322.13v83.05h-201.66v61.82h187.07v79.34h-187.07v76.68h207.5v88.09h-327.96v-388.99Z"/><path class="cls-10" d="M5620.43,2567.83h365.38v96.05h-122.59v292.94h-120.2v-292.94h-122.59v-96.05Z"/><path class="cls-8" d="M6039.93,2567.83h322.13v83.05h-201.66v61.82h187.07v79.34h-187.07v76.68h207.5v88.09h-327.96v-388.99Z"/><path class="cls-14" d="M6432.37,2567.83h322.13v83.05h-201.66v61.82h187.07v79.34h-187.07v76.68h207.5v88.09h-327.96v-388.99Z"/><path class="cls-9" d="M6825.88,2567.83h112.24l146.47,215.21v-215.21h113.3v388.99h-113.3l-145.67-213.58v213.58h-113.04v-388.99Z"/><path class="cls-12" d="M7250.42,2567.83h365.38v96.05h-122.59v292.94h-120.2v-292.94h-122.59v-96.05Z"/><path class="cls-1" d="M7670.73,2567.83h120.2v136.12h131.34v-136.12h120.73v388.99h-120.73v-157.35h-131.34v157.35h-120.2v-388.99Z"/></g></g></svg>