<?xml version="1.0" encoding="UTF-8"?><svg id="_Слой_1" xmlns="http://www.w3.org/2000/svg" viewBox="0 0 12000 3000"><defs><style>.cls-1{stroke:#fff;stroke-miterlimit:10;stroke-width:5px;}.cls-1,.cls-2,.cls-3{fill:#fff;}.cls-4,.cls-5{fill:#1d7c4c;}.cls-6,.cls-5{opacity:.49;}.cls-7{opacity:.91;}.cls-8,.cls-3{opacity:.7;}.cls-9{fill:#5b95c9;opacity:.52;}.cls-10{fill:#f7d76f;opacity:.79;}.cls-11{fill:#362154;opacity:.46;}.cls-12{fill:#d63d43;}.cls-12,.cls-13{opacity:.47;}.cls-13{fill:#ef7d00;}</style></defs><path class="cls-2" d="M12000,0V3000H0c.01-.3,.02-.61,0-.91V0H12000Z"/><g><g class="cls-6"><path class="cls-4" d="M2834.47,1712.54c-.58,1.64-1.87,3-3.64,3.62-3.08,1.06-6.44-.58-7.5-3.66-74.76-216.98-178.8-371.68-252.91-463.25-80.32-99.24-143.79-147.78-144.42-148.26-2.6-1.97-3.11-5.66-1.14-8.26,1.97-2.6,5.66-3.11,8.26-1.14,.64,.48,65,49.66,146.17,149.88,74.81,92.36,179.8,248.38,255.2,467.19,.45,1.31,.41,2.67-.02,3.88Z"/><g><path class="cls-4" d="M2260.14,896.59c24.94,30.39,50.11,60.62,75.57,90.56,25.52,29.87,51.11,59.81,78.15,88.11,3.46,3.4,6.8,7.05,10.36,10.25l5.31,4.86c.96,.83,1.97,1.69,2.98,2.73,.53,.58,1.03,1.04,1.7,2.19,.09,.17,.16,.27,.26,.52,.1,.26,.19,.53,.27,.8,.09,.34,.14,.95,.09,1.4-.05,.59-.37,1.47-.78,1.98-1.01,1.22-1.94,1.39-2.49,1.54-.24,.05-.49,.08-.73,.1h-.51c-2.26-.12-3.28-.57-4.65-.95-1.27-.4-2.48-.84-3.67-1.29-2.38-.9-4.68-1.86-6.98-2.85-4.58-1.97-9.07-4.03-13.55-6.12-17.88-8.41-35.45-17.29-52.99-26.24-35.05-17.95-69.84-36.32-104.54-54.93-2.38-1.27-3.27-4.23-2-6.61,1.27-2.38,4.23-3.27,6.61-2,.01,0,.02,.01,.03,.02l.04,.02c34.38,19.01,68.92,37.82,103.66,56.18,17.38,9.15,34.8,18.24,52.41,26.8,4.4,2.13,8.82,4.22,13.25,6.2,2.21,.98,4.44,1.94,6.64,2.81,1.1,.43,2.2,.85,3.27,1.2,.97,.34,2.32,.67,2.52,.66h-.05c-.09,0-.18,.02-.27,.05-.26,.09-.89,.14-1.69,1.12-.33,.39-.6,1.11-.62,1.56-.06,.31,0,.75,.05,.95,.02,.13,.06,.25,.12,.36l.05,.11c.06,.08-.28-.38-.58-.69-.69-.73-1.55-1.49-2.43-2.27l-5.5-5.17c-3.71-3.42-6.97-7.09-10.47-10.62-26.95-28.93-52.1-59.16-77.29-89.41-25.11-30.31-49.89-60.86-74.46-91.59-.64-.8-.51-1.97,.29-2.61,.79-.64,1.96-.51,2.6,.28Z"/><path class="cls-4" d="M2377.08,922.65c9.07,27.92,18.28,55.8,27.69,83.6,4.71,13.89,9.48,27.77,14.38,41.57,2.45,6.9,4.94,13.78,7.51,20.6,1.29,3.4,2.6,6.79,3.96,10.12,.68,1.65,1.37,3.3,2.08,4.87l1.07,2.25,.51,.93,.21,.35s.03,.01,.03,.03l-10.49,2.7,42.46-244.95c.17-1,1.12-1.66,2.11-1.49,.97,.17,1.63,1.08,1.5,2.06l-34.42,246.21-1.99,14.21-8.5-11.51h0s-.74-1.12-.74-1.12l-.47-.85c-.29-.55-.51-1.02-.74-1.52-.43-.95-.81-1.87-1.18-2.78-.72-1.81-1.37-3.57-2.01-5.35-1.26-3.53-2.45-7.05-3.61-10.56-2.31-7.03-4.51-14.06-6.67-21.1-4.31-14.08-8.47-28.18-12.58-42.29-8.2-28.23-16.18-56.5-24.03-84.81-.3-1.09,.34-2.21,1.42-2.51,1.06-.29,2.15,.31,2.49,1.34Z"/><path class="cls-4" d="M2425.83,1093.2l93.1-119.79c.27-.35,.78-.42,1.13-.14,.34,.26,.41,.74,.17,1.09l-84.86,125.76c-1.82,2.7-5.49,3.41-8.19,1.59-2.7-1.82-3.41-5.49-1.59-8.19,.07-.11,.16-.22,.23-.32Z"/><ellipse class="cls-4" cx="2240.18" cy="1005.1" rx="26.13" ry="23.61" transform="translate(-213.94 928.11) rotate(-22.37)"/><ellipse class="cls-4" cx="2375.69" cy="924.6" rx="17.96" ry="16.23" transform="translate(-173.11 973.63) rotate(-22.37)"/><ellipse class="cls-4" cx="2523.55" cy="970.66" rx="17.96" ry="16.23" transform="translate(-179.51 1033.36) rotate(-22.37)"/><ellipse class="cls-4" cx="2250.23" cy="890.07" rx="26.13" ry="23.61" transform="translate(-169.41 923.29) rotate(-22.37)"/><ellipse class="cls-4" cx="2467.79" cy="830.86" rx="26.13" ry="23.61" transform="translate(-130.51 1001.62) rotate(-22.37)"/></g><g><path class="cls-4" d="M2621.9,1022.71c9.9,30.66,20.02,61.25,30.47,91.72,10.52,30.42,21.05,60.94,33.31,90.52,1.62,3.63,3.09,7.4,4.89,10.83,.9,1.8,1.65,3.41,2.68,5.35,.5,1.06,1.01,1.86,1.46,3.64,.03,.53,.41,.95-.17,2.83-.13,.38-.52,1.03-1.11,1.52-.56,.49-1.12,.69-1.77,.84-.51,.09-.8,.08-1.21,.05-.36-.04-.47-.08-.72-.13-1.48-.45-1.81-.82-2.43-1.18-2.06-1.41-3.53-2.78-5.1-4.19-1.54-1.4-3.01-2.83-4.47-4.26-2.91-2.87-5.75-5.77-8.55-8.69-11.2-11.71-22.04-23.66-32.83-35.67-21.54-24.04-42.76-48.31-63.85-72.74-1.76-2.04-1.53-5.12,.51-6.89,2.04-1.76,5.12-1.53,6.89,.51,.01,.01,.02,.03,.03,.04l.03,.03c20.65,24.7,41.47,49.29,62.58,73.59,10.57,12.13,21.19,24.23,32.09,35.98,2.73,2.93,5.48,5.84,8.26,8.67,1.39,1.41,2.8,2.81,4.22,4.14,1.39,1.31,2.9,2.68,4.16,3.56,.22,.19,.74,.4,.24,.22-.12-.03-.12-.02-.35-.06-.29-.03-.45-.02-.84,.04-.53,.1-.94,.31-1.43,.68-.5,.41-.79,.96-.9,1.22-.42,1.4-.12,1.29-.2,1.34-.02-.18-.44-1.2-.82-1.94-.84-1.63-1.77-3.68-2.64-5.5-1.88-3.74-3.28-7.51-4.88-11.27-11.96-30.17-21.98-60.8-32.05-91.45-9.99-30.67-19.64-61.43-29.06-92.27-.3-.98,.25-2.02,1.23-2.32,.97-.3,2,.25,2.31,1.21Z"/><path class="cls-4" d="M2705.02,1078.29c-1.72,23.76-3.32,47.54-4.73,71.31-.7,11.88-1.35,23.77-1.88,35.64-.26,5.93-.48,11.86-.62,17.76-.07,2.95-.11,5.89-.1,8.78,.01,1.44,.03,2.88,.09,4.25l.13,1.96,.1,.78,.05,.26s0-.08-.02-.11l-10.66-1.49,111.83-170.53c.55-.84,1.69-1.08,2.53-.53,.82,.54,1.07,1.63,.57,2.47l-104.94,174.86-7.09,11.81-3.57-13.3h0c-.1-.4-.19-.82-.26-1.21l-.1-.85c-.05-.54-.07-.97-.1-1.44-.03-.88-.03-1.7-.03-2.51,.02-1.6,.08-3.14,.15-4.68,.15-3.06,.36-6.07,.59-9.07,.46-6,1.02-11.96,1.6-17.91,1.17-11.9,2.47-23.77,3.81-35.62,2.7-23.71,5.58-47.38,8.58-71.04,.14-1.12,1.16-1.91,2.28-1.77,1.08,.14,1.85,1.1,1.78,2.18Z"/><path class="cls-4" d="M2802.74,1165.46l-110.03,62.73,1.24-1.32c-9.63,17.91-19.01,36.02-27.95,54.3-4.46,9.15-8.81,18.36-12.85,27.68-2.02,4.66-3.95,9.36-5.68,14.12-.86,2.38-1.67,4.78-2.34,7.2-.62,2.39-1.28,4.93-1.07,7.18v.09c.05,.44-.27,.84-.72,.88-.43,.04-.82-.27-.87-.7-.37-2.86,.27-5.38,.79-7.92,.59-2.52,1.32-4.99,2.09-7.44,1.56-4.89,3.32-9.71,5.15-14.48,3.68-9.55,7.67-18.96,11.76-28.33,8.22-18.72,16.86-37.21,25.81-55.61l.38-.78,.86-.54,107.37-67.19c2.76-1.73,6.4-.89,8.13,1.87,1.73,2.76,.89,6.4-1.87,8.13-.06,.04-.14,.09-.21,.12Z"/><ellipse class="cls-4" cx="2571.41" cy="1098.22" rx="22.05" ry="19.15" transform="translate(-3.22 7.56) rotate(-.17)"/><ellipse class="cls-4" cx="2702.99" cy="1079.28" rx="15.16" ry="13.17" transform="translate(-3.16 7.95) rotate(-.17)"/><ellipse class="cls-4" cx="2803.85" cy="1159.19" rx="15.16" ry="13.17" transform="translate(-3.39 8.24) rotate(-.17)"/><ellipse class="cls-4" cx="2615.96" cy="1014.89" rx="22.05" ry="19.15" transform="translate(-2.97 7.69) rotate(-.17)"/><ellipse class="cls-4" cx="2804.87" cy="1037.08" rx="22.05" ry="19.15" transform="translate(-3.03 8.24) rotate(-.17)"/></g><g><path class="cls-4" d="M2257.79,1315.37c32-3.67,64-7.57,95.92-11.82,31.89-4.33,63.9-8.64,95.3-14.84,3.87-.87,7.86-1.57,11.59-2.66,1.94-.53,3.67-.94,5.78-1.57,1.14-.29,2.02-.62,3.86-.72,.53,.08,1.02-.22,2.74,.72,.35,.2,.91,.71,1.28,1.38,.36,.65,.45,1.24,.48,1.9-.01,.52-.08,.8-.19,1.2-.11,.34-.17,.45-.27,.68-.74,1.36-1.16,1.62-1.63,2.15-1.79,1.74-3.42,2.91-5.11,4.17-1.68,1.23-3.36,2.4-5.06,3.55-3.38,2.29-6.79,4.5-10.21,6.67-13.68,8.68-27.54,16.95-41.43,25.16-27.81,16.39-55.78,32.41-83.89,48.27-2.35,1.33-5.33,.5-6.65-1.85-1.33-2.35-.5-5.33,1.85-6.65,.01,0,.03-.02,.04-.02l.04-.02c28.28-15.38,56.49-30.96,84.47-46.86,13.98-7.97,27.93-16.01,41.6-24.38,3.41-2.1,6.8-4.22,10.13-6.4,1.66-1.09,3.3-2.19,4.89-3.32,1.56-1.11,3.2-2.32,4.31-3.38,.23-.18,.54-.65,.26-.19-.05,.12-.05,.11-.12,.33-.08,.27-.11,.44-.12,.83-.01,.54,.11,.98,.39,1.54,.3,.57,.79,.97,1.02,1.12,1.29,.68,1.24,.37,1.28,.46-.18-.02-1.26,.19-2.07,.42-1.76,.5-3.95,1.01-5.91,1.51-4.03,1.1-8.01,1.73-12.01,2.56-31.94,5.79-63.93,9.57-95.97,13.41-32.04,3.75-64.09,7.16-96.19,10.33-1.02,.1-1.93-.65-2.03-1.67-.1-1.01,.64-1.91,1.64-2.03Z"/><path class="cls-4" d="M2328.65,1244.82c22.96,6.37,45.96,12.61,68.98,18.68,11.51,3.03,23.04,6.01,34.57,8.86,5.76,1.42,11.53,2.81,17.29,4.11,2.88,.65,5.75,1.27,8.59,1.83,1.41,.27,2.83,.53,4.19,.75l1.94,.26,.79,.06h.27s-.08-.01-.11,0h0s-3.56,10.16-3.56,10.16l-145.18-143.22c-.72-.71-.73-1.87-.02-2.59,.69-.7,1.81-.72,2.53-.07l150.77,137.32,10.18,9.27-13.74,.88h0c-.41,.02-.83,.02-1.23,.01l-.85-.07c-.54-.05-.97-.12-1.43-.19-.87-.14-1.67-.3-2.47-.46-1.57-.33-3.07-.7-4.56-1.07-2.97-.75-5.88-1.55-8.78-2.37-5.79-1.64-11.53-3.35-17.25-5.09-11.44-3.49-22.81-7.1-34.17-10.75-22.71-7.31-45.35-14.8-67.96-22.4-1.07-.36-1.64-1.52-1.28-2.59,.35-1.03,1.45-1.6,2.49-1.32Z"/><path class="cls-4" d="M2433.36,1166.17l39.98,120.18-3.41-2.29c22.85-.58,45.69-.99,68.54-1.16,11.43-.08,22.85-.1,34.28,.06,5.72,.08,11.43,.2,17.15,.45,2.86,.13,5.72,.28,8.59,.52,1.43,.12,2.87,.26,4.31,.47,.72,.1,1.44,.22,2.18,.39,.37,.08,.74,.18,1.12,.31,.39,.16,.77,.22,1.31,.78,.31,.32,.29,.84-.03,1.14s-.84,.29-1.14-.03c-.02-.02-.03-.03-.05-.05l-.04-.05c-.04-.05-.91-.36-1.51-.44-.66-.12-1.36-.21-2.05-.28-1.39-.14-2.8-.23-4.22-.29-2.83-.13-5.67-.17-8.52-.18-5.69-.02-11.39,.08-17.09,.21-11.4,.28-22.79,.74-34.19,1.26-22.79,1.05-45.58,2.34-68.34,3.8l-2.49,.16-.92-2.45-44.59-118.55c-1.15-3.05,.4-6.45,3.44-7.6,3.05-1.15,6.45,.4,7.6,3.44,.02,.06,.05,.15,.08,.21Z"/><ellipse class="cls-4" cx="2321.88" cy="1379.74" rx="22.05" ry="19.15" transform="translate(517.87 3389.79) rotate(-78.81)"/><ellipse class="cls-4" cx="2329.22" cy="1247" rx="15.16" ry="13.17" transform="translate(653.99 3290.01) rotate(-78.81)"/><ellipse class="cls-4" cx="2427.42" cy="1163.85" rx="15.16" ry="13.17" transform="translate(814.71 3319.33) rotate(-78.81)"/><ellipse class="cls-4" cx="2248.96" cy="1319.65" rx="22.05" ry="19.15" transform="translate(518.04 3269.83) rotate(-78.81)"/><ellipse class="cls-4" cx="2307.91" cy="1138.81" rx="22.05" ry="19.15" transform="translate(742.95 3181.91) rotate(-78.81)"/></g></g><path class="cls-10" d="M4684.27,2835.55c10.12-48.59,87.04-330.01,60.72-356.33-26.3-26.32-36.44-80.98-24.28-101.24,12.15-20.23,105.28-107.3,99.2-139.69-6.07-32.38-131.59-176.14-145.77-182.21-14.17-6.07-182.21,36.44-251.04,42.52-68.84,6.07-127.55-20.25-153.87-50.62-26.32-30.36-6.07-115.4-10.12-133.62-4.05-18.22-52.65-8.09-78.97-36.44-26.3-28.34,4.05-85.04,4.05-85.04-26.32,2.04-48.59-26.31-50.61-44.54-2.04-18.22,34.42-121.47,34.42-121.47-89.08-12.15-89.08-80.99-83.01-109.33,6.06-28.34,123.48-190.31,131.6-210.55,8.09-20.25-46.57-46.57-56.7-64.8-10.13-18.21-8.1-20.25,30.38-247,38.45-226.76,205.05-330.16,293.56-400.87,160.95-128.56,644.81-84.02,831.08,39.48,186.26,123.5,253.08,498.05,222.7,633.69-30.37,135.64-107.3,196.38-107.3,196.38-60.74,119.45,20.24,498.05,28.34,493.99,8.1-4.04,151.84-12.15,170.06,12.15,18.22,24.28,0,214.6,0,214.6,189.89,119.92,413.5,563.95,528.83,815.34h-1503.61c18.33-51.85,20.56-117.58,30.33-164.45Z"/><path class="cls-9" d="M4320.31,2602.75c-37.26-401.7-637.75-521.79-633.59-749.55,4.14-227.78,86.96-194.64,86.96-194.64,211.21,91.09,231.77,12.3,248.46-8.29,16.87-20.77-12.42-103.54,24.85-111.81,37.27-8.29,8.28-78.69,8.28-78.69,57.98-12.42,29-107.67,29-115.94s66.27-29,82.82-45.56c16.56-16.56-66.25-128.38-74.54-161.5-8.28-33.14-16.55-95.24,4.14-136.66,20.71-41.41-45.56-289.88-45.56-289.88,0,0,4.14-8.28,0-74.54-4.13-66.25-86.96-136.66-120.09-178.07-33.13-41.41-70.4,28.98-132.52-20.71-62.11-49.69-120.1-41.41-144.94-37.27-24.84,4.14-107.66-45.56-418.26,37.27-310.59,82.82-308.52,482.44-308.52,482.44-20.72-8.28-49.7,45.56-49.7,45.56-126.29-31.06-271.24,291.95-283.66,420.33-12.42,128.38-20.71,186.37-20.71,343.73s-70.41,244.32-70.41,438.96,8.3,215.35,120.1,447.25c73.33,152.1,74.64,300.62,66.85,384.84h1616.71c18.75-64.26,34.19-183.07,14.32-397.25Zm-1130.54-902.79c-12.33,172.57-159.2,263.61-161.49,265.03,66.25-53.93,99.36-488.67-.02-629.45-99.38-140.8-82.82-173.92-74.54-219.48,0,0,49.7-86.96,45.56,37.27-4.14,124.23,62.12,256.75,144.94,294.02,82.83,37.27,57.98,78.69,45.56,252.61Z"/><path class="cls-11" d="M3070.71,1463.29c-31.84-59.79-100.17-157.63-308.27-163.07-208.1-5.44-404.56,37.27-489.98,149.09-85.42,111.82-190.24,289.64-85.42,494.64,104.83,205,134.34,152.2,168.5,226.74,34.17,74.54,60.57,92.4,89.3,102.5,28.73,10.09,17.86,191.8-27.18,295.07-45.04,103.28-185.59,343.22-174.71,431.74h827.76s-101.33-169.67-141.71-206.16c-40.38-36.5-31.84-97.06-10.87-155.3,20.97-58.24,39.6-149.87,43.48-202.67,3.88-52.8,10.87-93.18,73.77-94.73,62.9-1.55,157.63-4.66,186.36-10.87,28.73-6.21,46.59-16.31,58.24-77.65,11.65-61.34,4.66-74.54,11.65-76.1,6.99-1.55,59.01-40.38,10.87-78.43,0,0,36.5-38.83-12.42-60.57,0,0-7.77-28.73-6.21-32.61,1.55-3.88,40.38-19.41,34.17-50.47-6.21-31.06-92.4-111.82-105.61-131.23-13.2-19.41-19.41-24.85-18.64-59.01,.78-34.17,7.77-142.88-47.37-220.53-55.13-77.65-75.71-80.37-75.71-80.37Z"/><path class="cls-5" d="M8933.53,2503.88c4.52-11.32-47.57-129.12-67.97-151.78-20.37-22.66-140.44-13.6-224.25-36.23-83.83-22.66-83.83-79.29-92.89-120.06-9.06-40.77,52.12-92.89,47.57-117.81-4.54-24.92,6.8-27.17,9.06-33.97,2.26-6.8-20.37-18.12-20.37-18.12-43.06-15.86-45.32-47.57-43.06-61.17,2.28-13.6,22.66-6.8,27.2-11.32,4.52-4.54,9.06-13.6,9.06-13.6-29.46-6.8-45.32-20.4-45.32-58.89,0-38.52,138.18-178.98,138.18-178.98,0,0-27.17-18.12-36.23-22.63-9.06-4.54-11.34-9.08-11.34-24.92,0-15.86,13.6-6.8,18.14-18.14,4.52-11.32,13.57-27.17,27.17-56.63,13.6-29.43,19.25-78.14,44.19-118.94,24.92-40.77,67.95-52.09,47.55-63.41-20.37-11.34,72.49-95.15,131.41-133.66,58.89-38.52,357.91-11.32,357.91-11.32-15.86-20.4,2.26-77.03,43.03-74.77,40.8,2.28,65.72-27.17,67.97-63.43,2.26-36.23,61.15-24.92,111.01-22.63,49.83,2.26,81.55,43.03,147.24,108.72,65.69,65.69-9.06,154.04-13.6,208.41-4.52,54.37-61.15,99.66-83.81,101.95,0,0,53.22,100.79,84.94,186.88,31.72,86.09-22.63,217.47-81.55,280.9-58.89,63.43-147.24,156.3-154.04,174.41-6.8,18.14-6.8,70.23,11.34,97.41,18.12,27.2,70.21,108.75,99.66,126.86,29.46,18.12,40.77,61.17,43.03,77.03,2.28,15.86,101.95,156.3,167.64,278.62,26.72,49.78,45.57,157.3,58.54,267.33h-1181.25c57.94-160.01,176.52-270.89,191.68-299.04,15.86-29.43,9.06-56.63,27.17-86.07,18.12-29.46,140.44-99.69,144.98-111.01Z"/><path class="cls-13" d="M6785.09,1591.12c-3.58,8.42-9.26,17.25-18.21,22.84-21.45,13.4-61.66,10.72-72.38,18.77-10.73,8.05,2.67,64.34,5.37,83.11,2.59,18.14,10.19,8.73,10.7,34.72,0,.89,.02,1.83,.02,2.82,0,29.49-29.49,42.89-29.49,42.89,0,0,26.81,32.17,26.81,53.61s-34.86,85.8-40.21,99.2c-5.37,13.4,24.12,85.78-29.49,126-53.63,40.21-112.6,29.49-112.6,29.49-2.69,10.72-134.06,45.58-203.75,115.29-57.21,57.19-80.11,136.06-101.3,177.33-4.63,9.02-9.19,16.24-13.99,21.05-18.01,18-17.87,37.22-10.15,58.46,3.77,10.38,9.35,21.24,15.52,32.69,3.53,6.55,8.66,19.52,14.9,36.74,23.98,66.18,64.35,195.04,92.92,262.65,3.58,8.49,6.97,16.01,10.13,22.31,34.86,69.71,109.92,168.91,109.92,168.91h-1477.19c2.45-57.3,55.4-171.85,127.79-303.34,164.66-299.13,429.85-685.92,429.85-685.92-24.07-8.03-146.87-277.53-187.37-361.32-.1-.2-.19-.41-.29-.6-40.22-83.12-29.49-144.78-58.99-308.32-29.49-163.53,21.45-222.51,40.22-286.85,18.77-64.34,75.06-45.57,67.01-80.43-8.03-34.85,69.71-126,109.92-134.05,40.22-8.04,83.11-56.29,104.56-96.5,21.46-40.21,83.12-45.58,152.81-72.38,69.71-26.82,144.78-8.05,193.03-18.77,30.2-6.71,85.6,2.33,145.83,10.03,7.35,.94,14.77,1.86,22.23,2.73,29.08,3.39,58.68,6.01,86.62,6.01,56.36,0,118.5,18.36,164.95,40.01,30.93,14.38,54.91,30.24,65.62,43.09,26.82,32.17,40.22,53.62,85.78,93.83,45.59,40.22,34.86,61.66,34.86,61.66-15.94-15.94-92.37-37.14-93.8-37.53,34.83,24.16,69.67,99.2,91.11,144.76,21.46,45.58,48.26,91.15,64.35,142.09,8.84,27.99,9.59,43.83,8.9,61.34-.56,14.33-2.06,29.8-.85,53.95,2.68,53.62,21.45,58.97,45.57,83.11,22.93,22.93,57.96,82.17,77.5,106.41,1.02,1.28,1.99,2.43,2.93,3.51,16.26,18.58,40.57,45.23,46.78,83.39,2.25,13.9,1.05,28.25-4.45,41.21Z"/><path class="cls-12" d="M5775.31,1597.35c3.01,33.14,22.58,31.63,54.22,42.17,31.63,10.54-1.51,33.13-10.55,58.74-9.04,25.6-22.59,108.44,24.1,144.59,46.68,36.14,143.08,46.69,225.91,54.22,15.52,1.41,30.12,2.98,43.71,5,58.98,8.78,98.61,26.14,108.42,76.33,12.05,61.75,22.59,115.98,39.15,189.77,6.5,28.96,20.66,71.62,34.54,116.11,21.51,68.89,42.38,142.22,33.23,176.07-11.34,41.96-213.05,376.74-312.05,539.64h1315.8c-33.41-109.07-91.54-290.13-133.21-372.45-33.13-65.46-65.38-128.3-94.45-184.85-25.13-48.83-47.85-92.94-66.69-129.94-40.68-79.83-122-212.37-111.46-284.66,0,0,52-3.8,114.82-12.68,68.58-9.71,150.06-25.49,190.93-49.07,78.32-45.19,97.9-75.31,126.53-176.22,28.6-100.91,90.36-129.53,102.42-200.32,12.04-70.78,9.03-94.87,45.17-152.12,36.15-57.23,114.47-126.51,122-188.26,7.53-61.76-31.63-170.2,0-247.01,31.64-76.81-13.55-185.26-34.63-236.46-3.6-8.75-9.97-18.58-18.1-29.09-39.47-51.13-120.51-118.43-128.01-154.65-9.03-43.68-87.35-197.3-156.63-216.89-69.28-19.58-182.24-118.99-262.07-93.38-79.82,25.6-137.05-40.67-195.8-48.19-58.74-7.53-195.8-70.79-247.01-40.67-26.08,15.34-48.26,21.7-73.51,24.24-24.29,2.46-51.43,1.37-87.64,1.37-73.82,0-183.76,34.64-188.27,99.4-4.52,64.77-46.69,137.08,7.53,204.85,54.22,67.78,50.45,95.64,50.45,95.64-25.59,6.03-152.12,55.72-219.89,174.71-67.78,118.99-30.13,243.99-42.18,277.12-12.04,33.14-6.03,63.27-87.35,111.46-81.33,48.2-155.14,85.85-152.13,132.54,3.01,46.69,37.65,79.82,67.77,82.83,0,0-20.32,42.93-27.85,50.46-7.54,7.54-15.08-3.01-28.63,12.05-13.55,15.06-18.07,72.3,25.61,91.87,0,0-57.23,22.6-54.22,55.73Z"/><path class="cls-9" d="M9215.52,2582.12c8.65,25.94,25.94,21.62,8.65,54.04-17.3,32.43,6.48,23.78,0,47.56-6.49,23.78-30.27,32.43-17.3,67.02,12.97,34.58-6.48,32.42-10.81,56.2-4.32,23.78,6.49,41.08-8.65,54.05-15.13,12.97-10.81,2.16-15.13,32.43-4.32,30.27-12.97,21.62-25.93,30.27-12.97,8.64-17.3,8.64-21.62,30.25-4.33,21.62-19.46,2.17-28.11,17.3-8.65,15.13,0,30.27-21.62,25.94-6.3-1.25-10.39,.06-13.03,2.82h-1289.56c62.85-131.82,176.73-353.08,236.81-435.18,64.86-88.64-60.53-544.78-92.96-555.59-32.43-10.81-64.86,6.48-110.25,32.43-45.4,25.94-127.55,10.81-153.49-32.43-25.94-43.24-2.16-125.39-43.24-136.2-41.07-10.8-17.29-86.46-17.29-86.46,0,0-49.73-49.73-23.78-84.32,25.94-34.59,49.72-58.37,36.75-71.34-12.97-12.97-58.37-38.91-36.75-75.66,21.62-36.76,108.09-116.74,118.9-142.68,10.81-25.95,8.64-64.86-2.17-127.55-10.81-62.69-17.29-261.58,94.05-349.13,0,0-15.14-25.95-25.94-21.62-10.81,4.32-60.54-34.59-23.79-69.19,0,0-38.91-54.03-12.97-69.17,25.95-15.13,19.46,2.16,34.59-12.97,15.14-15.13,38.92-6.49,45.4-23.78,6.49-17.3,12.98-71.35,36.75-60.54,23.78,10.81,45.4,4.33,60.53-10.81,15.14-15.13,12.97-71.33,54.05-62.68,41.08,8.64,19.46,0,60.53-6.49,41.07-6.49,55.13-59.45,96.2-46.48,41.08,12.97,54.05-2.16,84.31,12.97,30.27,15.13,56.21-8.65,67.02,8.65,10.81,17.29,28.11-8.65,41.08,6.48,12.97,15.14,0,25.95,30.27,21.62,30.25-4.32,32.41-15.13,41.06-4.32,8.65,10.81,17.3-8.65,32.43-4.32,15.14,4.32,28.11,8.64,34.59,19.45,6.49,10.81,19.46,0,32.43,12.98,12.97,12.96,10.81-10.81,32.42,17.28,17.32,22.52,30.48,31.15,56.14,41.48,2.14,.86,4.37,1.74,6.69,2.63,4.6,1.77,9.57,3.62,15,5.62,13.46,4.95,25.3,6.43,35.66,7.01,11.43,.64,21.07,.19,29.12,2.13,6.92,1.66,12.67,5.08,17.37,12.48,15.13,23.78,8.64,36.75,30.26,43.23,2.79,.84,5.25,1.57,7.45,2.24,14.84,4.54,17.45,6.48,24.98,21.55,3.67,7.33,7.73,9.61,11.68,10.95,5.36,1.83,10.53,1.95,14.27,10.66,2.5,5.84,6.29,8.14,10.75,10,7.09,2.96,15.88,4.83,23.84,18.1,12.97,21.62,8.65,19.46,25.94,36.75,17.29,17.3,4.33,28.11,17.29,38.92,8.05,6.71,6.11,16.75,8.65,25.99,1.55,5.65,4.77,10.99,12.97,15.09,21.62,10.81,34.59,10.81,36.75,25.93,2.16,15.13,4.32,25.94,23.78,49.73,19.46,23.78-4.32,47.56,10.81,58.37,15.14,10.81,34.59,19.46,32.43,34.59-2.16,15.12-6.48,19.45,19.46,47.55,25.93,28.11,6.48,45.4,12.97,58.38,6.48,12.97,23.77,17.29,19.45,45.4-4.33,28.09,32.43,32.42,28.1,54.04-4.32,21.62,15.14,49.72,12.98,82.15-2.17,32.43-4.33,12.97,10.8,38.92,15.14,25.93,12.98,25.93,15.14,45.39,2.16,19.45,10.81,10.81,15.13,34.59,4.33,23.78,23.78,56.21,23.78,88.64s19.46,19.45,15.14,47.55c-4.33,28.11-6.49,28.11,10.81,49.73,17.29,21.62-19.46,23.78,4.32,60.53,23.77,36.74,32.42,25.93,25.93,58.36-6.48,32.43-2.16,25.95,8.65,54.05,10.81,28.11,12.97,25.95,10.81,51.89-2.16,25.93,19.46,23.77,10.81,54.04-8.65,30.27,8.65,45.4,2.16,67.02-6.48,21.62,6.49,30.27,17.3,56.21,10.81,25.93-10.81,12.96,0,58.36,10.81,45.4,12.97,51.89,2.16,73.51-10.81,21.62,0,10.81,6.49,51.88,6.48,41.07,4.32,30.26-12.97,54.05-17.3,23.78-19.46,36.75-2.17,58.37,17.3,21.62,34.6,6.48,19.46,43.24-15.13,36.74,8.65,62.68,6.49,88.63-2.16,25.94-28.11,17.29-19.46,43.24Z"/><path class="cls-11" d="M8397.49,1944.9c-4.27,1.14-25.83-12.81-24.87-5.75,.97,7.07,23.06,35.07,19.84,41.88-3.23,6.81-21.38,5.67-20.16,8.56,1.23,2.88,10.92,27.3,7.44,38.3-3.48,10.99-7.4,28.97-3.82,39.01,3.59,10.03-9.99,70.85-33.53,111.44-23.54,40.59-99,82.16-91.32,71.43,7.67-10.74-29.23,19.21-36.72,27.15-7.51,7.95-29.06-6-39.7,7.35-10.64,13.36-3.41-12.82-16.75-1.03-13.35,11.79-33.58,21.74-39.52,26.98-5.93,5.24-26.53-1.64-33.5-2.08-6.98-.42-14.23,3.33-20.07,7.17-5.84,3.85-44.6-26.59-53.5-18.74-8.9,7.87-47.63,22.29-50.24,19.32-2.63-2.96-58.65-3.64-60.92-12.19-2.28-8.55-196.26,272.36-199.19,364.67-2.21,70.04,155.79,249.22,232.18,331.63h-1809.25c136.5-166.96,631.35-768.13,678.32-766.42,54.53,1.98,106.24-63.5,133.95-126.24,27.71-62.76,17.42-213.36-1.01-255.14-18.43-41.79-90.56-144.37-136.91-165.46-46.34-21.09-56.18-133.82-92.4-159.89-36.23-26.07-149.68-230.72-148.93-288.13,.76-57.42-38.76-188.8-4.93-237.16,33.83-48.35,47.93-117.56,47.93-117.56l-16.34-52.87,45.45-9.79s-76.91-70.64-58.59-72.32c18.19-1.65,77.46,24.09,78.36,24.47-.22-.86-13.53-51.48-2.39-74.42,11.25-23.12,10.98-41.36,38.11-49.49,27.13-8.13,49.73-10.93,63.6-31.1,13.85-20.16,34.69-62.32,50.58-47.32s42.79-80.03,99.58-114.35c56.78-34.33,235.8-96.12,255.88-80.86,20.07,15.26,162.28-40.39,210.62-28.99,27.69,6.53,95.22,.36,163.23-3.31,5.26-.28,10.52-.55,15.76-.8,45.41-2.13,89.67-2.63,121,3.07,81.77,14.88,10.87-84.81,10.87-84.81,0,0,41.53,8.17,54.19,29.98,0,0,4.36-24.96-10.66-53.92,0,0,49.22,42.29,61.72,66.9,12.49,24.59,36.09,96.13,77.01,91.66,40.92-4.48,16.01-77.5,16.01-77.5,0,0-1.36-11.99,9.55-7.11,10.91,4.88-23.09-23.16-24.31-26.04-1.23-2.87,54.72,21.62,70.52,38.01,15.81,16.39,56.43,28.03,67.01,60.91,10.57,32.89,32.14-9.91,32.14-9.91,0,0,57.89,61.04,56.96,121.25-.93,60.21,90.64,41.35,88.73,72.07-1.89,30.71,9.27,110.59-34.51,138.71-43.8,28.13-106.99,64.15-106.99,64.15,14.85,31.75,55.36,79.11,108.82,188.94,53.47,109.83,74.95,147.6,53.69,196.74-21.27,49.13-32.44,48.44-13.4,80.45,19.04,32.01,97.27,126.56,107.84,137.03,10.56,10.46,152.99,64.14,78.16,140.78-50.68,51.94-74.09,57.95-83.92,56.43,19,9.68,74.27,38.8,69.07,47.77-6.28,10.82-19.98,5.76-13.96,21.56,6.04,15.79,9.09,34.2,1.68,40.74-7.41,6.55-57.82,51.08-57.82,51.08,0,0,31.34,36.98,17.74,52.96,0,0,34.92,24.58,46.27,44.91,11.36,20.32,40.17,52.94,38.34,59.84-1.83,6.89,16.26,54.26,11.98,55.4Z"/><path class="cls-5" d="M5196.49,3000h-1261.64c2.02-2.36,4.05-4.72,6.06-7.11,105.77-124.5,214.29-272.89,242.95-335.44,43.5-94.91,16.69-164.83-18.91-253.8-35.58-89-234.21-151.58-295.52-149.61-61.3,1.99-73.16-85.02-69.21-112.7,3.95-27.68,3.95-35.6-21.76-71.19-25.69-35.6-5.92-63.29-5.92-63.29-65.26-19.76-29.66-81.07-27.68-96.89,1.97-15.82,3.96-47.47-31.65-51.41-35.6-3.96-59.32-19.78-69.21-43.5-9.9-23.73,3.96-43.51,17.8-71.19,13.83-27.69,98.87-168.09,104.81-203.68,5.92-35.58-15.83-65.25-21.76-102.83-5.94-37.58,27.68-87.01,45.47-126.55,17.79-39.57,77.12-164.13,77.12-164.13-11.85-17.8,3.96-41.53,3.96-41.53,11.86-98.88,235.34-211.6,332.22-233.35,68.04-15.29,127.3-22.76,203.83-18.31,32.44,1.88,67.99,5.9,108.62,12.38,136.43,21.75,249.14,132.49,310.45,253.11,61.3,120.63,58.34,226.42,58.34,226.42,28.32-18.88,54.52-8.19,71.05,3.5,11.17,7.89,17.93,16.26,17.93,16.26,0,0,37.58,7.92,63.29,53.41,25.71,45.46-5.94,122.58-5.94,122.58,83.05,33.64,23.73,128.55,23.73,128.55,0,0,31.65,47.46,0,92.95-3.89,5.59-7.82,10.49-11.71,14.73-27.71,30.29-53.56,28.77-53.56,28.77,0,0-17.79,87.01-87.01,100.86-69.21,13.83-136.44-33.62-136.44-33.62,19.78,73.16-61.3,120.61-61.3,120.61,3.95,90.98,92.94,255.11,128.54,320.37,35.6,65.26,152.28,203.67,211.59,298.58,0,0,6.52,10.56,17.08,30.11,30.57,56.5,95.07,188.1,134.36,356.94Z"/><g><path class="cls-2" d="M3676.5,2333.12c-.05-.21-.1-.41-.15-.62-1.39-1.06-1.21-.86,.15,.62Z"/><path class="cls-2" d="M4036.57,2636.92c.01-.21,.02-.41,.04-.62-1.04-1.32-.92-1.09-.04,.62Z"/><path class="cls-2" d="M3901.57,2609.51c-.03-.16-.06-.32-.09-.48-1.06-1-.92-.82,.09,.48Z"/><path class="cls-2" d="M4078.98,3000h-16.22l-32.17-41.71-16.67-21.6c-5.61-7.16-10.99-14.5-16.81-21.49-2.19-2.7-4.37-5.4-6.55-8.09-21.36,8.21-120.36,40.97-297.02-14.15,0,0,151.69,6.91,295.91,12.78-29.75-36.75-59.79-73.29-90.77-109.01-27.33,5.04-127.48,17.57-265.41-50.01,2.07,.37,134.89,24.58,263.07,47.32-13.27-15.26-26.7-30.37-40.37-45.27l-18.27-20.26c-6.06-6.78-12.48-13.22-18.7-19.86-9.34-9.75-18.58-19.6-27.93-29.35-21.32,8.21-120.33,40.99-297.03-14.14,0,0,151.55,6.91,295.71,12.77-2.81-2.91-5.62-5.82-8.45-8.71l-38.64-38.5c-9.11-8.82-18.35-17.5-27.58-26.19-186.67,5.82-261.05-85.84-261.05-85.84,113.76,37.27,234.25,76.14,259.33,84.22-3.43-3.23-6.86-6.47-10.28-9.71l-4.96-4.68-5.09-4.54-10.16-9.08-20.33-18.17c-6.87-5.95-13.86-11.75-20.79-17.63-6.95-5.85-13.82-11.81-20.98-17.39l-21.3-17-21.75-16.39c-3.14-2.25-6.29-4.51-9.44-6.77-31.37-10.58-173.7-77.91-302.75-182.17,5.68-.04,161.34-2.14,299.83,171.57,5.54,3.83,11.03,7.72,16.55,11.61l22.03,16.33,21.56,16.91c7.26,5.56,14.21,11.48,21.24,17.31,1.99,1.65,3.98,3.3,5.97,4.95-8.59-32.37-34.81-130.89-60.23-224.39,0,0,94.06,74.01,64.64,228.05,3.57,2.96,7.13,5.93,10.66,8.94l20.57,18.08,10.29,9.04,5.14,4.52,5.02,4.65c12.88,12.03,25.91,23.92,38.69,36.06-9.26-38.25-40.57-167.35-71-289.89,10.58,11.51,93.07,101.3,74.53,293.3l36.94,36.21c12.89,12.93,25.43,26.18,38.16,39.26,2.88,3.03,5.81,6.01,8.72,9.01,1.66-37.31,6.67-151.45,10.82-259.9,0,0,79.18,104.52-6.75,264.12,2.07,2.16,4.12,4.34,6.14,6.55l18.5,20.17c26.41,28.33,51.99,57.4,77.1,86.86-6.45-36.76-22.91-130.15-39.08-219.19,7.75,10.03,67.55,87.58,43.88,224.82,20.59,24.24,40.88,48.75,61.06,73.32,4.38,5.17,8.52,10.54,12.68,15.88,2.8-44.17,10.6-168.35,17.37-286.61,6.84,13.21,59.75,115.55-13.41,291.63,.13,.17,.27,.35,.4,.52l16.9,21.53,33.8,43.06,4.73,6.34Z"/></g><g class="cls-8"><path class="cls-2" d="M7066.99,1010.78c-.17,.13-.33,.26-.5,.39-.4,1.7-.3,1.46,.5-.39Z"/><path class="cls-2" d="M7197.91,558.23c-.19,.07-.39,.15-.58,.22-.78,1.49-.62,1.29,.58-.22Z"/><path class="cls-2" d="M7227.82,692.69c-.13,.09-.27,.18-.4,.28-.48,1.37-.38,1.18,.4-.28Z"/><path class="cls-2" d="M7400.01,619.12c15.72,22.92,67.94,109.29,62.35,262.81,0,0-32.21-132.24-63.86-259.57-8.54,18.32-16.87,36.75-24.92,55.29l-11.06,24.94c-3.74,8.3-7.01,16.78-10.53,25.16-5.11,12.5-10.35,24.95-15.44,37.46,16.18,16.14,86.42,93.23,107.99,277.07,0,0-55.38-141.24-108.7-275.31-1.53,3.75-3.04,7.5-4.52,11.27l-19.45,50.96c-4.34,11.92-8.51,23.89-12.69,35.86,81.3,168.13,27.86,273.38,27.86,273.38-12.27-119.07-25.81-244.96-28.63-271.16-1.56,4.45-3.12,8.91-4.7,13.35l-2.25,6.44-2.07,6.49-4.16,12.98-8.32,25.97c-2.64,8.69-5.09,17.44-7.65,26.16-2.51,8.73-5.16,17.43-7.34,26.25l-6.85,26.37-6.12,26.54c-.78,3.78-1.56,7.58-2.34,11.38,3.1,32.96-.46,190.37-43.16,350.68-2.35-5.17-67.63-146.5,34.66-343.71,1.25-6.61,2.57-13.21,3.88-19.83l5.94-26.77,6.67-26.59c2.12-8.89,4.71-17.64,7.16-26.44,.71-2.49,1.4-4.98,2.1-7.47-26.07,21.03-105.39,85.07-180.44,146.35,0,0,29.31-116.04,181.99-151.87,1.25-4.46,2.51-8.92,3.82-13.37l8.14-26.15,4.07-13.07,2.03-6.54,2.21-6.48c5.74-16.67,11.31-33.4,17.19-50.01-31.17,24.02-136.35,105.17-235.89,182.84,6.21-14.34,54.65-126.24,237.57-187.46l18.04-48.48c6.56-17.03,13.56-33.89,20.32-50.84,1.59-3.86,3.13-7.75,4.68-11.63-34.75,13.67-141.04,55.55-241.79,95.91,0,0,63.23-114.86,243.99-101.34,1.13-2.78,2.28-5.54,3.49-8.28l10.89-25.11c15.13-35.65,31.26-70.85,47.95-105.78-30.95,20.86-109.55,73.9-184.3,124.92,6.01-11.16,52.5-97.35,187.49-131.6,13.76-28.67,27.89-57.18,42.12-85.62,2.94-6.1,6.15-12.06,9.34-18.04-41.49,15.42-158.08,58.85-268.86,100.8,9.28-11.63,81.22-101.61,271.84-106.46,.1-.19,.2-.38,.3-.58l12.79-24.2,25.58-48.39,19.58-34.95c5.26-.28,10.52-.55,15.76-.8l-23.98,41.99-25.9,48.03-12.94,24.02c-4.26,8.04-8.78,15.94-12.79,24.1-1.58,3.09-3.15,6.19-4.73,9.28,16.2,16.16,86.42,93.26,107.98,277.06,0,0-55.43-141.38-108.78-275.49-21.45,42.13-42.6,84.45-62.61,127.28Z"/></g><path class="cls-2" d="M9201.06,2556.89c-62.89,56.86-61.1,17.5-59.18,4.54-8.22,13.47-17.56,26.23-27.44,38.5-10.56,13.08-21.73,25.67-33.41,37.74-23.27,24.25-48.1,46.92-73.67,68.68-25.59,21.74-51.97,42.52-78.89,62.59-26.96,20.05-54.28,39.43-82.52,57.93-.55,.36-1.13,.62-1.72,.81-3.82,9.57-7.82,19.07-12,28.48-22.56,50.72-50.46,99-82.94,143.84h-14.58l4.22-6.2c15.66-22.55,29.95-46,43.17-70,13.35-23.93,25.52-48.51,36.34-73.66,21.7-50.28,37.78-102.91,48.48-156.48l.09-.44c1.9-10.85,4-21.68,5.74-32.57,.44-2.85,.86-5.7,1.27-8.56-5.74-28.16-14.82-55.98-26.19-82.5-13.35-30.95-30.4-60.43-51.86-86.43-5.23-6.61-11.04-12.72-16.77-18.89l-9.03-8.83c-2.98-2.98-6.3-5.58-9.43-8.39-12.82-10.89-26.49-20.9-41.27-29.01l-5.47-3.17-5.67-2.79c-3.79-1.82-7.53-3.78-11.38-5.5-7.84-3.1-15.52-6.63-23.63-9.01-14.81-5.24-30.25-8.38-45.72-11.07,8.69,14.76,39.09,75.8-85.25,27.23-140.6-54.92-105.28-223.27-105.28-223.27,0,0,88.11,101.96,191.94,118.82,16.42,2.67,31.93,10.35,42.32,23.35,13.37,16.73,16.74,39-42.91,50.29,15.6,2.55,31.19,5.55,46.2,10.68,8.26,2.32,16.11,5.82,24.12,8.89,3.93,1.71,7.76,3.65,11.64,5.47l5.8,2.78,5.61,3.16c15.14,8.1,29.19,18.14,42.38,29.1,3.22,2.83,6.64,5.45,9.71,8.45l9.31,8.9c5.91,6.22,11.89,12.39,17.3,19.06,22.15,26.26,39.83,56.06,53.75,87.37,9.05,20.55,16.71,41.63,22.61,63.31,.1-.86,.2-1.72,.3-2.58,2.43-22.16,3.88-44.41,4.34-66.68,.47-22.27,.07-44.56-1.59-66.75-.69-9.42-1.63-18.97-2.76-28.35-10.45,11.36-31.84,24.96-34.37-49.86-3.37-99.53,107.86-122,107.86-122,0,0-38.83,79.97-21.98,147.29,2.67,10.64,2.06,22.05-3.11,31.73-5.46,10.22-14.93,17.33-30.52,1.23,.68,6.21,1.28,12.4,1.77,18.67,1.84,22.76,2.43,45.6,2.03,68.4-.55,22.8-2.09,45.57-4.66,68.22-1.27,11.32-2.82,22.62-4.59,33.87-1.49,9.17-3.23,18.31-4.91,27.45,.21-.24,.42-.48,.63-.71,6.54-7.24,13.19-14.31,19.8-21.4,13.22-14.17,26.31-28.42,38.97-43.04,25.33-29.22,49.04-59.86,69.91-92.39,20.83-32.52,38.84-66.92,52.47-103.07,12.46-32.97,21.18-67.41,25.24-102.44-8.61,31.51-22.03,28.72-32.12,20.22-8.4-7.07-13.21-17.42-14.69-28.3-9.39-68.75-75.16-128.56-75.16-128.56,0,0,111.61-20.49,145.49,73.15,29.99,82.92-9.89,61.7-19.41,55.75-3.33,38.14-12.18,75.74-25.43,111.64-13.46,36.57-31.34,71.42-52.08,104.35-20.76,32.95-44.4,64.01-69.63,93.59-12.62,14.8-25.65,29.23-38.78,43.52-6.56,7.15-13.14,14.26-19.54,21.47-2.88,3.25-5.71,6.53-8.38,9.86-7.47,34.69-17.41,68.8-29.6,102.08,23.52-14.88,46.74-30.52,69.57-46.55,27.29-19.21,54.07-39.14,80.08-60.04,25.98-20.92,51.26-42.75,75-66.17,11.91-11.66,23.31-23.83,34.13-36.5,10.57-12.42,20.57-25.36,29.35-39.11-39.15,6.86-42.28-7.61-37.96-21.02,3.37-10.45,11.13-18.82,20.64-24.31,60.09-34.69,90.57-118.21,90.57-118.21,0,0,61.19,95.57-12.67,162.35Z"/><g><path class="cls-2" d="M4643.88,1760.55c-1.73,.19-3.52-.38-4.84-1.71-2.29-2.32-2.27-6.05,.04-8.34,163.08-161.47,257.35-322.31,307.71-428.81,54.58-115.42,70.8-193.65,70.95-194.43,.65-3.19,3.76-5.26,6.95-4.61,3.19,.65,5.26,3.76,4.61,6.95-.16,.79-16.55,80.1-71.65,196.71-50.77,107.46-145.82,269.74-310.27,432.58-.99,.97-2.23,1.53-3.51,1.67Z"/><g><path class="cls-2" d="M5129.98,889.15c-16.57,35.65-32.88,71.44-48.82,107.37-15.85,35.95-31.73,71.99-45.49,108.63-1.56,4.6-3.41,9.18-4.74,13.78l-2.08,6.9c-.34,1.22-.67,2.5-1.17,3.87-.3,.73-.49,1.38-1.23,2.48-.12,.16-.18,.26-.35,.46-.19,.21-.39,.4-.6,.59-.27,.23-.79,.53-1.22,.69-.55,.21-1.49,.31-2.13,.16-1.54-.38-2.09-1.14-2.47-1.58-.15-.2-.28-.4-.41-.61l-.23-.45c-.86-2.09-.9-3.21-1.15-4.6-.19-1.32-.32-2.6-.43-3.87-.22-2.53-.35-5.03-.46-7.52-.21-4.98-.3-9.92-.36-14.86-.17-19.76,.21-39.44,.66-59.13,.97-39.37,2.44-78.68,4.16-118.02,.12-2.69,2.4-4.78,5.09-4.66,2.69,.12,4.78,2.4,4.66,5.09,0,.01,0,.02,0,.04v.04c-2.22,39.23-4.19,78.51-5.66,117.76-.71,19.63-1.34,39.27-1.42,58.84-.01,4.89,.02,9.78,.16,14.63,.07,2.42,.18,4.84,.35,7.21,.09,1.18,.19,2.35,.34,3.47,.11,1.02,.4,2.38,.5,2.56l-.03-.04c-.04-.08-.09-.16-.15-.23-.19-.19-.51-.74-1.75-1.04-.5-.13-1.26-.06-1.68,.12-.3,.08-.68,.33-.83,.46-.1,.07-.2,.16-.28,.26l-.08,.09c-.04,.09,.22-.41,.37-.83,.36-.94,.67-2.04,.99-3.18l2.27-7.2c1.47-4.83,3.37-9.35,5.03-14.04,14.38-36.83,30.71-72.61,47.04-108.42,16.42-35.77,33.2-71.35,50.23-106.82,.44-.92,1.55-1.31,2.48-.87,.92,.44,1.3,1.54,.88,2.46Z"/><path class="cls-2" d="M5157.22,1005.83c-21.22,20.28-42.35,40.68-63.32,61.21-10.48,10.27-20.91,20.58-31.22,30.98-5.15,5.2-10.27,10.43-15.3,15.7-2.51,2.64-5,5.29-7.4,7.95-1.19,1.33-2.38,2.67-3.49,3.99l-1.56,1.94-.62,.86-.22,.34s0,.03-.01,.04l-6.98-8.27,239.13-67.98c.97-.28,1.98,.29,2.26,1.26,.27,.95-.27,1.94-1.2,2.24l-236.77,75.77-13.67,4.37,6.68-12.65h0s.68-1.15,.68-1.15l.56-.79c.37-.5,.7-.9,1.05-1.33,.67-.8,1.33-1.54,1.99-2.27,1.31-1.43,2.63-2.79,3.94-4.13,2.63-2.67,5.29-5.26,7.95-7.83,5.33-5.13,10.72-10.16,16.12-15.16,10.81-9.99,21.71-19.86,32.65-29.68,21.88-19.63,43.89-39.09,66-58.44,.85-.74,2.14-.66,2.88,.19,.72,.82,.65,2.07-.13,2.82Z"/><path class="cls-2" d="M5024.69,1123.72l148.31,31.93c.44,.09,.71,.52,.62,.96-.09,.42-.49,.69-.91,.63l-150.12-21.91c-3.23-.47-5.46-3.47-4.99-6.69,.47-3.22,3.47-5.46,6.69-4.99,.13,.02,.27,.04,.39,.07Z"/><ellipse class="cls-2" cx="5023.55" cy="918.23" rx="23.61" ry="26.13" transform="translate(983.68 4042.11) rotate(-48.07)"/><ellipse class="cls-2" cx="5154.86" cy="1005.42" rx="16.23" ry="17.96" transform="translate(962.38 4168.73) rotate(-48.07)"/><ellipse class="cls-2" cx="5177.49" cy="1158.62" rx="16.23" ry="17.96" transform="translate(855.91 4236.4) rotate(-48.07)"/><ellipse class="cls-2" cx="5131.56" cy="877.4" rx="23.61" ry="26.13" transform="translate(1049.89 4108.92) rotate(-48.07)"/><ellipse class="cls-2" cx="5279.27" cy="1047.74" rx="23.61" ry="26.13" transform="translate(972.17 4275.33) rotate(-48.07)"/></g><g><path class="cls-2" d="M5173.25,1269.81c-23.33,22.21-46.51,44.61-69.43,67.24-22.84,22.67-45.78,45.4-67.11,69.28-2.57,3.03-5.33,5.99-7.64,9.11-1.23,1.59-2.36,2.96-3.66,4.74-.74,.91-1.24,1.71-2.64,2.9-.47,.26-.68,.78-2.62,1.07-.4,.05-1.15-.02-1.85-.34-.68-.3-1.11-.71-1.52-1.23-.3-.42-.42-.69-.57-1.07-.12-.34-.14-.46-.19-.71-.23-1.53-.05-1.99,0-2.7,.38-2.47,.97-4.38,1.56-6.41,.6-1.99,1.24-3.94,1.9-5.88,1.32-3.87,2.71-7.68,4.12-11.48,5.69-15.17,11.77-30.12,17.9-45.05,12.31-29.84,24.98-59.48,37.85-89.08,1.07-2.47,3.95-3.61,6.42-2.53,2.47,1.08,3.61,3.95,2.53,6.43,0,.02-.01,.03-.02,.05l-.02,.04c-13.3,29.31-26.42,58.75-39.17,88.3-6.35,14.78-12.64,29.6-18.5,44.52-1.46,3.73-2.89,7.47-4.23,11.21-.67,1.87-1.31,3.74-1.9,5.6-.58,1.82-1.16,3.78-1.41,5.29-.08,.28-.04,.84-.09,.31-.03-.12-.03-.12-.1-.34-.1-.27-.17-.42-.4-.73-.32-.44-.68-.72-1.24-1-.58-.27-1.21-.3-1.49-.28-1.44,.23-1.22,.45-1.29,.41,.16-.1,.89-.91,1.4-1.58,1.11-1.46,2.55-3.19,3.81-4.77,2.55-3.31,5.35-6.21,8.04-9.28,22-23.86,45.25-46.17,68.5-68.54,23.3-22.3,46.83-44.34,70.53-66.21,.75-.7,1.93-.65,2.62,.11,.69,.75,.64,1.91-.09,2.61Z"/><path class="cls-2" d="M5159.22,1368.82c-22.16,8.76-44.28,17.63-66.31,26.67-11.01,4.52-22.01,9.09-32.92,13.77-5.46,2.34-10.9,4.71-16.27,7.14-2.68,1.22-5.35,2.45-7.96,3.72-1.29,.64-2.58,1.28-3.79,1.93l-1.71,.96-.66,.43-.22,.16s.07-.03,.09-.06l-3.28-10.25,202.16,26.8c1,.13,1.71,1.05,1.57,2.05-.13,.98-1.01,1.67-1.98,1.58l-203.07-18.71-13.72-1.26,10.43-8.99h0c.32-.26,.65-.52,.97-.75l.72-.46c.46-.28,.85-.49,1.26-.71,.78-.41,1.52-.77,2.25-1.11,1.45-.68,2.87-1.29,4.28-1.9,2.82-1.19,5.63-2.31,8.43-3.4,5.61-2.18,11.22-4.27,16.83-6.33,11.23-4.11,22.48-8.09,33.75-12.02,22.53-7.85,45.11-15.52,67.73-23.08,1.07-.36,2.23,.22,2.58,1.29,.34,1.03-.19,2.15-1.19,2.55Z"/><path class="cls-2" d="M5123.06,1494.68l-104.25-71.93,1.73,.55c-20.31-.91-40.7-1.51-61.05-1.63-10.18-.05-20.36,.03-30.51,.43-5.08,.21-10.15,.5-15.19,1-2.52,.26-5.03,.57-7.5,1.01-2.42,.47-5,.98-6.93,2.15l-.07,.05c-.38,.23-.88,.11-1.11-.27-.23-.37-.11-.85,.25-1.09,2.41-1.57,4.96-2.09,7.48-2.72,2.53-.56,5.07-.98,7.61-1.34,5.09-.72,10.18-1.22,15.28-1.64,10.2-.82,20.41-1.31,30.63-1.69,20.43-.71,40.84-.95,61.3-.86h.87s.86,.55,.86,.55l107.11,67.6c2.76,1.74,3.58,5.38,1.84,8.14-1.74,2.76-5.38,3.58-8.14,1.84-.06-.04-.14-.09-.2-.13Z"/><ellipse class="cls-2" cx="5083.31" cy="1257.07" rx="19.15" ry="22.05" transform="translate(-39.03 2344.21) rotate(-25.87)"/><ellipse class="cls-2" cx="5157.45" cy="1367.42" rx="13.17" ry="15.16" transform="translate(-79.75 2387.63) rotate(-25.87)"/><ellipse class="cls-2" cx="5129.19" cy="1492.95" rx="13.17" ry="15.16" transform="translate(-137.37 2387.88) rotate(-25.87)"/><ellipse class="cls-2" cx="5177.71" cy="1261.08" rx="19.15" ry="22.05" transform="translate(-31.32 2385.81) rotate(-25.87)"/><ellipse class="cls-2" cx="5239.65" cy="1440.91" rx="19.15" ry="22.05" transform="translate(-103.58 2430.87) rotate(-25.87)"/></g><g><path class="cls-2" d="M4751.62,1068.67c17.18,27.25,34.58,54.38,52.25,81.31,17.73,26.86,35.49,53.83,54.71,79.44,2.46,3.11,4.82,6.4,7.42,9.28,1.32,1.52,2.44,2.9,3.92,4.52,.75,.9,1.44,1.55,2.32,3.16,.16,.51,.64,.82,.54,2.78-.03,.4-.25,1.12-.69,1.75-.43,.61-.92,.94-1.5,1.25-.47,.21-.76,.27-1.16,.35-.36,.05-.48,.04-.73,.05-1.54-.07-1.96-.34-2.64-.54-2.34-.86-4.1-1.81-5.98-2.79-1.84-.98-3.62-1.99-5.39-3.02-3.53-2.05-7-4.17-10.44-6.3-13.75-8.57-27.21-17.47-40.64-26.42-26.83-17.95-53.4-36.2-79.88-54.65-2.21-1.54-2.76-4.58-1.22-6.8,1.54-2.21,4.58-2.76,6.8-1.22,.01,0,.03,.02,.04,.03l.03,.02c26.12,18.81,52.39,37.47,78.86,55.79,13.25,9.13,26.54,18.22,40.01,26.91,3.37,2.16,6.75,4.3,10.16,6.35,1.7,1.02,3.41,2.03,5.11,2.97,1.67,.92,3.48,1.88,4.91,2.42,.26,.13,.82,.2,.28,.15-.13,0-.12,0-.35,.03-.28,.04-.44,.09-.8,.25-.49,.23-.84,.53-1.22,1.01-.38,.52-.53,1.13-.57,1.4-.06,1.46,.2,1.28,.14,1.35-.06-.17-.72-1.05-1.27-1.68-1.21-1.37-2.62-3.13-3.92-4.67-2.75-3.16-5.03-6.47-7.52-9.71-19.07-26.27-36.36-53.46-53.71-80.66-17.28-27.24-34.25-54.65-51.02-82.19-.53-.88-.26-2.02,.62-2.55,.87-.53,2-.25,2.54,.6Z"/><path class="cls-2" d="M4845.93,1101.92c4.22,23.45,8.57,46.88,13.09,70.26,2.27,11.69,4.58,23.36,7.01,34.99,1.22,5.81,2.47,11.61,3.8,17.36,.67,2.87,1.35,5.73,2.08,8.53,.37,1.39,.74,2.78,1.14,4.1l.61,1.86,.29,.73,.11,.24s-.02-.08-.04-.11h0s-10.69,1.2-10.69,1.2l66.08-192.93c.33-.96,1.37-1.47,2.32-1.14,.93,.32,1.44,1.32,1.16,2.25l-58.33,195.41-3.94,13.2-6.76-12h0c-.19-.36-.38-.74-.55-1.11l-.31-.79c-.19-.51-.31-.93-.45-1.37-.25-.84-.46-1.64-.65-2.42-.38-1.56-.7-3.07-1.01-4.57-.61-3-1.15-5.97-1.68-8.94-1.04-5.93-1.98-11.84-2.89-17.75-1.82-11.82-3.5-23.64-5.14-35.45-3.26-23.64-6.34-47.28-9.29-70.95-.14-1.12,.65-2.14,1.77-2.28,1.08-.13,2.07,.61,2.26,1.67Z"/><path class="cls-2" d="M4962.2,1162.15l-90.95,88.15,.59-4.07c10.43,20.34,20.71,40.74,30.77,61.26,5.03,10.26,10,20.55,14.82,30.92,2.41,5.19,4.78,10.39,7.04,15.65,1.13,2.63,2.23,5.28,3.26,7.96,.51,1.34,1.01,2.7,1.45,4.08,.22,.69,.43,1.4,.6,2.13,.09,.37,.16,.74,.21,1.14,.02,.42,.14,.79-.14,1.52-.16,.42-.63,.63-1.04,.47-.42-.16-.63-.63-.47-1.04,0-.02,.02-.04,.03-.06l.03-.06c.03-.06-.07-.98-.26-1.55-.18-.65-.4-1.31-.64-1.97-.47-1.32-1.01-2.62-1.57-3.93-1.11-2.6-2.31-5.18-3.53-7.75-2.45-5.14-5.01-10.23-7.6-15.3-5.2-10.14-10.55-20.22-15.96-30.26-10.83-20.08-21.88-40.05-33.06-59.93l-1.22-2.17,1.81-1.9,87.47-91.6c2.25-2.36,5.98-2.44,8.34-.19,2.36,2.25,2.44,5.98,.19,8.34-.05,.05-.11,.11-.16,.16Z"/><ellipse class="cls-2" cx="4721.42" cy="1154.34" rx="22.05" ry="19.15" transform="translate(-138.62 1220.33) rotate(-14.52)"/><ellipse class="cls-2" cx="4844.21" cy="1103.38" rx="15.16" ry="13.17" transform="translate(-121.92 1249.48) rotate(-14.52)"/><ellipse class="cls-2" cx="4961.72" cy="1155.8" rx="15.16" ry="13.17" transform="translate(-131.31 1280.61) rotate(-14.52)"/><ellipse class="cls-2" cx="4743.94" cy="1062.57" rx="22.05" ry="19.15" transform="translate(-114.89 1223.04) rotate(-14.52)"/><ellipse class="cls-2" cx="4932.45" cy="1037.25" rx="22.05" ry="19.15" transform="translate(-102.53 1269.48) rotate(-14.52)"/></g></g><path class="cls-3" d="M3183.27,454.84c6.03,7.69,12.01,15.42,17.95,23.18l25.33,33.93c4.27,5.61,8.31,11.4,12.43,17.12l12.3,17.21,12.31,17.2,9.66,14c95.68-147.57,205.75,4.26,205.75,4.26,0,0-93.71,123.8-180.7,32.21,.4,.6,.81,1.19,1.21,1.79,24.12,35.68,47.57,71.79,70.57,108.16,95.25-142.86,203.92,7.05,203.92,7.05,0,0-91.15,120.42-177.11,35.86,17.58,28.48,34.91,57.11,51.89,85.95,155.4-1.99,123.01,191.92,123.01,191.92,0,0-167.79-10.9-128.07-187.1-19.93-31.75-40.31-63.23-60.97-94.5-.59-.9-1.2-1.8-1.79-2.7,49.99,106.75-59.41,181.78-59.41,181.78,0,0-96.81-144.48,34.44-219.05-22.48-33.26-45.35-66.24-68.77-98.8-6.72-9.44-13.62-18.74-20.48-28.08,55.52,117.42-65.82,187.18-65.82,187.18,0,0-86.57-150.71,45.73-214.42l-9.42-12.39-12.73-16.74c-4.26-5.57-8.43-11.2-12.83-16.65l-26.11-32.93c-7.2-8.84-14.44-17.65-21.75-26.39l19.46-9.05Z"/><g class="cls-8"><g><path class="cls-2" d="M6194.27,1028.14s112.14-76.91,29.3-181.23l-29.3,181.23Z"/><path class="cls-2" d="M6223.57,846.91l-29.3,181.23s-80.32-119.86,29.3-181.23h0Z"/></g><g><path class="cls-2" d="M6094.74,897.18s116.64-67.05,40.53-178.22l-40.53,178.22Z"/><path class="cls-2" d="M6135.27,718.96l-40.53,178.22s-72.63-126.45,40.53-178.22h0Z"/></g><g><path class="cls-2" d="M6402.54,853.89s-91.49-126.22-170.63-2.15l170.63,2.15Z"/><path class="cls-2" d="M6231.91,851.75l170.63,2.15s-93.77,123.88-170.63-2.15h0Z"/></g><g><path class="cls-2" d="M6324.16,730.8s-91.49-126.22-170.63-2.15l170.63,2.15Z"/><path class="cls-2" d="M6153.53,728.65l170.63,2.15s-93.77,123.88-170.63-2.15h0Z"/></g><g><path class="cls-2" d="M6400.71,1112.72s27.18-162.68-104.74-158.26l104.74,158.26Z"/><path class="cls-2" d="M6295.97,954.46l104.74,158.26s-140.89-9.15-104.74-158.26h0Z"/></g><path class="cls-2" d="M6322.27,998.52c-1,.57-2.27,.23-2.87-.75v-.02c-8.01-13.19-16.12-26.31-24.34-39.38-16.44-26.19-33.26-52.16-50.3-77.96-.5-.75-.99-1.49-1.49-2.24-6.6-9.95-13.25-19.88-19.94-29.77-.21-.33-.43-.65-.66-.98-18.54-27.44-37.41-54.64-56.73-81.5-5.55-7.8-11.25-15.48-16.91-23.19-1.19-1.62-2.38-3.24-3.56-4.86l-10.27-14-.81-1.06-1.92-2.53-7.77-10.22-10.5-13.81c-3.52-4.6-6.96-9.24-10.59-13.74l-16.62-20.96c7.35,.94,14.77,1.86,22.23,2.73l6.67,8.94c3.52,4.63,6.85,9.4,10.25,14.13l10.15,14.19,10.15,14.19,7.97,11.54,.96,1.4,.98,1.42c6.25,9.13,12.61,18.16,18.77,27.33,.32,.48,.64,.95,.96,1.43,19.9,29.44,39.25,59.22,58.22,89.23,.79,1.24,1.57,2.49,2.35,3.73,5.06,8.02,10.09,16.06,15.1,24.11,1.57,2.53,3.13,5.06,4.68,7.59,14.51,23.49,28.81,47.09,42.8,70.88,7.77,13.2,15.45,26.45,23.02,39.77,.27,.48,.55,.97,.82,1.45,.58,1.03,.23,2.33-.8,2.91Z"/></g><path class="cls-3" d="M8812.59,920.37s10.13,6.75,22.45,12.32c-2.54-9.24-.6-19.28-8.65-25.99-12.96-10.81,0-21.62-17.29-38.92-17.29-17.29-12.97-15.13-25.94-36.75-7.96-13.27-16.75-15.14-23.84-18.1-4.43,9.03-10.29,13.53-19.37,7.37-9.3-6.31-9.34-17-5.65-28.03-3.95-1.34-8.01-3.62-11.68-10.95-7.53-15.07-10.14-17.01-24.98-21.55-28.08,11.91-37.01,33.8-40.81,39.96-5.03,8.13,29.05,47.75,37.88,57.8-13.77,2.52-27.68,4.58-41.59,6.23-14.47,1.7-28.98,2.95-43.45,3.32-7.23,.17-14.46,.11-21.6-.35-7.12-.47-14.21-1.35-20.85-3.08-3.3-.88-6.48-2.01-9.23-3.51-2.6-1.4-4.79-3.14-6.05-5.12,5.82-11.53,11.8-22.97,18-34.3,2.41-4.46,4.71-8.98,7.22-13.38l7.57-13.19,7.57-13.18c2.52-4.39,5-8.81,7.73-13.09l15.98-25.83,3.99-6.46c1.37-2.12,2.81-4.21,4.21-6.32l8.43-12.62,8.43-12.61,1.49-2.22c-8.05-1.94-17.69-1.49-29.12-2.13l-2.07,3.39-8.07,13.2c-.68,1.14-1.38,2.26-2.07,3.39-7.75-4.24-15.25-9.55-22.08-15.37-6.04-5.17-11.58-10.93-16.37-17.24-2.32-.89-4.55-1.77-6.69-2.63,.24,.4,.49,.79,.74,1.18,5.4,8.22,11.95,15.64,19.24,22.19,6.93,6.19,14.29,11.72,22.45,16.46l-1.12,1.98c-2.26,2.3-4.56,4.58-6.93,6.8-7.04,6.48-14.5,12.58-22.23,18.38-7.77,5.74-15.86,11.12-24.13,16.24-16.62,10.12-34.06,19.08-52.03,26.92-16.32,7.09-33.12,13.48-50.12,18.62l3.42-3.72c29.3-37.5-.34-62.41-.34-62.41-30.34-24.7-59.5-7.98-59.5-7.98,0,0,13.1,11.9,19.92,19.27,6.81,7.37-3.68,15.81-4.93,11.5-1.26-4.31-26.36-22.4-34.26-23.85-7.9-1.44-26.91,15.81-26.91,15.81,13.31,9.07,22.5,21.63,22.8,22.05-.59-.36-20.46-12.62-32.47-11.26-12.18,1.38-20.54,19.64-20.54,19.64,0,0,21.9,14.99,14,13.55-7.9-1.45-66.29,15.67-66.29,15.67l49.49,39.34s47.52-31.5,44.15-20.81c-3.37,10.68-29.5,25.69-29.5,25.69,5.36,14.48,19.99,18.57,19.99,18.57,0,0,35.6-38.4,36.49-32.11,.89,6.29-21.18,29.1-21.18,29.1,11.73,18.31,29.63,5.41,29.63,5.41,8.56-9.89,7.41-51.71,23.73-41.34,16.31,10.36-10.32,42.7-10.32,42.7,49.28,3.51,59.43-25.41,62.88-31.37,2.98-5.16-18.82-29.07-24.74-35.41,.3,.02,.61,.01,.91-.07,19.62-4.47,38.61-10.45,57.4-17.41,18.75-6.98,37.12-15.16,54.88-24.69,8.73-4.75,17.32-9.81,25.69-15.29-1.13,2.14-2.23,4.28-3.35,6.42l-7.14,13.7-7.13,13.7c-2.36,4.58-4.51,9.26-6.77,13.88-18.26,36.91-34.48,74.76-49.15,113.16-14.04,37.01-26.66,74.38-36.51,112.92-9.23-5.63-42.03-25.07-47.32-20.37-6.17,5.48-37.67,24.38-21.66,81.39,0,0,31.54-39.07,47.65-22.41,16.1,16.66-33.28,25.39-42.83,37.83,0,0-10.83,24.13,13.5,33.48,0,0,21.46-31.41,29.06-31.88,7.6-.47-28.9,50.58-28.9,50.58,0,0,8.33,16.2,26.62,19,0,0,11.32-34.3,23.06-40.83,11.73-6.53-13.8,56.86-13.8,56.86l58.13,48.61s6.02-72.69,2.41-81.61c-3.6-8.93,19.29,13.17,19.29,13.17,0,0,19.42-14.21,18.1-28.85-1.29-14.43-20.51-34.83-21.06-35.41,.53,.23,17.53,7.99,31.41,21.46,0,0,15.66-26.48,12.06-35.41-3.6-8.93-30.9-34.05-36.26-34.48-5.36-.43,2.02-14.78,12.32-8.56,10.29,6.23,27.42,18.74,27.42,18.74,0,0,12.6-38.27-23.71-67.94,0,0-34.01-26.9-69.67,10.55,3.81-11.58,7.91-23.13,12.08-34.58,7.16-19.02,14.62-37.93,22.68-56.58,9.57-22.27,19.68-44.29,30.41-66.01,2.02,1.75,4.24,3.1,6.42,4.17,3.77,1.83,7.6,2.97,11.39,3.82,7.61,1.65,15.14,2.22,22.61,2.4,7.47,.17,14.89-.08,22.27-.57,14.75-.99,29.35-2.87,43.85-5.19,14.09-2.28,28.07-4.96,41.98-8.12l-14.45,14.8c-48.45,58.29-2.46,99.37-2.46,99.37,47.1,40.77,94.33,15.56,94.33,15.56,0,0-20.28-19.57-30.78-31.63s6.61-24.99,8.4-18.07c1.79,6.92,40.89,36.93,53.39,39.6,12.51,2.68,43.59-23.86,43.59-23.86-21.11-15.34-35.25-36.22-35.25-36.22Z"/><g class="cls-6"><path class="cls-4" d="M4732.38,296.22c-5.04,1.53-146.56,43.54-218.35,242.55,2.61,3.51,124.12-101.51,218.35-242.55Z"/><path class="cls-4" d="M4452.82,396.98s-63.49,92.43,8.88,221.14c0,0-4.94-113.97-8.88-221.14Z"/><path class="cls-4" d="M4270.47,584.46s-41.82,115.94,83.52,233.15c0,0-43.46-120.06-83.52-233.15Z"/><path class="cls-4" d="M4385.22,435.97c8.15-11.5-63.73,95.29,17.53,281.6,0,0-9.5-145.14-17.53-281.6Z"/><path class="cls-4" d="M4155.03,796.7c4.84-12.66-36.36,104.04,98.19,258.57,0,0-51.07-133.16-98.19-258.57Z"/><path class="cls-4" d="M4264.79,736.53c5.73-10.22-44.54,84.07,27.33,215.85,0,0-14.44-111.18-27.33-215.85Z"/><path class="cls-4" d="M4311.94,899.31c-11.83-.65,96.84,3.08,222.59-115.92,0,0-114.58,60.03-222.59,115.92Z"/><path class="cls-4" d="M4376.03,767.58c-11.12-2.96,91.9,21.67,257.13-92.51,0,0-132.5,48.03-257.13,92.51Z"/><path class="cls-4" d="M4264.66,1018.98c-11.12-2.96,91.9,21.67,257.13-92.51,0,0-132.5,48.03-257.13,92.51Z"/><path class="cls-4" d="M4628.26,537.29s-40.12,100.65-205.74,145.71c0,0,106.28-74.88,205.74-145.71Z"/><path class="cls-4" d="M4543.53,505.88c-10.87,12.07-20.82,25.39-30.7,38.51l-14.42,20.09-13.87,20.49c-4.7,6.77-9.05,13.8-13.49,20.75-4.41,6.97-8.9,13.89-13.25,20.9l-12.72,21.24-6.36,10.62-3.18,5.31-3.04,5.39c-8.05,14.42-16.27,28.73-24.17,43.22l-23.09,43.82c-7.53,14.69-14.67,29.59-22.02,44.37-3.6,7.43-7.42,14.75-10.84,22.27l-10.37,22.5c-28.14,59.77-53.04,121.01-77.36,182.42-3.16,7.63-5.84,15.45-8.77,23.17l-8.61,23.23-17.22,46.46-32.15,93.75-.05,.14c-1.13,3.29-4.71,5.04-7.99,3.91-3.29-1.13-5.04-4.71-3.91-7.99l.02-.05,33.02-93.76,17.65-46.47,8.83-23.23c3-7.72,5.75-15.54,8.98-23.17,24.91-61.41,50.39-122.62,79.12-182.38l10.59-22.49c3.49-7.52,7.39-14.84,11.06-22.26,7.5-14.78,14.79-29.66,22.47-44.35l23.54-43.8c8.06-14.49,16.43-28.8,24.63-43.2l3.09-5.39,3.24-5.31,6.47-10.62,12.95-21.23c4.43-7.01,9-13.93,13.49-20.9,4.53-6.95,8.94-13.96,13.73-20.74l14.12-20.49,14.69-20.1c10.12-13.21,20.1-26.36,31.48-38.81,1.13-1.23,3.05-1.32,4.28-.19,1.23,1.12,1.32,3.03,.21,4.26l-.07,.08Z"/></g><path class="cls-5" d="M9833.08,912.03s-30.48,83.51-90.57,118.21c-9.51,5.49-17.27,13.86-20.64,24.31-4.32,13.41-1.19,27.88,37.95,21.02-8.78,13.75-18.77,26.69-29.35,39.11-10.81,12.67-22.22,24.84-34.13,36.5-23.74,23.41-49.01,45.25-75,66.17-26.01,20.9-52.79,40.83-80.07,60.04-22.83,16.03-46.06,31.67-69.57,46.56,12.19-33.28,22.13-67.39,29.6-102.09,2.68-3.33,5.51-6.61,8.38-9.86,6.4-7.21,12.99-14.32,19.54-21.47,13.13-14.29,26.17-28.72,38.78-43.52,25.24-29.58,48.87-60.64,69.64-93.59,20.73-32.94,38.62-67.78,52.08-104.35,13.24-35.91,22.1-73.5,25.42-111.64,9.53,5.95,49.41,27.17,19.41-55.75-33.87-93.64-145.49-73.15-145.49-73.15,0,0,65.77,59.81,75.16,128.56,1.49,10.88,6.29,21.23,14.69,28.3,10.09,8.49,23.51,11.29,32.12-20.23-4.06,35.04-12.78,69.47-25.24,102.45-13.63,36.14-31.64,70.55-52.48,103.07-20.87,32.53-44.58,63.17-69.91,92.39-12.66,14.62-25.75,28.87-38.97,43.04-6.61,7.09-13.25,14.16-19.79,21.4-.21,.24-.42,.48-.64,.71,1.68-9.14,3.42-18.28,4.91-27.45,1.77-11.25,3.32-22.54,4.59-33.87,2.56-22.65,4.11-45.42,4.65-68.22,.4-22.8-.19-45.63-2.03-68.4-.49-6.27-1.09-12.46-1.77-18.67,15.59,16.1,25.06,8.99,30.52-1.23,5.17-9.68,5.78-21.09,3.12-31.73-16.85-67.31,21.97-147.29,21.97-147.29,0,0-111.23,22.48-107.86,122,2.53,74.83,23.92,61.22,34.38,49.86,1.12,9.39,2.07,18.93,2.75,28.35,1.67,22.18,2.07,44.48,1.6,66.74-.46,22.27-1.91,44.53-4.35,66.68-.09,.86-.2,1.72-.3,2.59-5.89-21.68-13.55-42.76-22.61-63.31-13.92-31.31-31.6-61.12-53.75-87.37-5.41-6.67-11.39-12.84-17.3-19.06l-9.31-8.9c-3.07-3-6.48-5.62-9.71-8.45-13.19-10.96-27.24-20.99-42.38-29.1l-5.61-3.16-5.8-2.78c-3.88-1.82-7.71-3.76-11.64-5.47-8.01-3.07-15.85-6.57-24.12-8.89-15.01-5.13-30.6-8.14-46.21-10.68,59.66-11.29,56.29-33.57,42.92-50.3-10.39-13-25.9-20.68-42.32-23.35-103.82-16.86-191.93-118.82-191.93-118.82,0,0-35.33,168.35,105.27,223.27,124.34,48.57,93.94-12.47,85.25-27.23,15.48,2.7,30.91,5.83,45.73,11.08,8.11,2.37,15.79,5.91,23.63,9,3.85,1.72,7.59,3.68,11.38,5.5l5.67,2.79,5.47,3.17c14.78,8.12,28.44,18.12,41.26,29.01,3.13,2.81,6.46,5.41,9.43,8.4l9.04,8.83c5.73,6.17,11.53,12.28,16.77,18.89,21.46,26,38.5,55.49,51.86,86.43,11.37,26.52,20.44,54.34,26.19,82.5-.41,2.86-.83,5.71-1.27,8.56-1.74,10.89-3.84,21.71-5.74,32.57l-.09,.43c-10.7,53.58-26.79,106.21-48.48,156.48-10.82,25.15-22.99,49.73-36.34,73.66-13.22,24-27.51,47.46-43.17,70l-5.79,8.51-6.06,8.32c-4.07,5.53-8.02,11.15-12.19,16.6-8.45,10.82-16.76,21.78-25.7,32.22-8.68,10.66-17.8,20.95-26.89,31.29-4.49,5.21-9.34,10.1-14,15.17-4.75,4.98-9.3,10.16-14.24,14.96-38.63,39.27-80.13,75.83-123.82,109.73,45.5-31.42,88.79-66.25,128.96-104.53,19.95-19.26,39.51-39.03,57.67-60.07,9.28-10.35,17.94-21.23,26.75-31.99,4.35-5.42,8.48-11.02,12.74-16.52l6.34-8.29,6.07-8.49c32.7-45.05,60.78-93.57,83.46-144.56,4.18-9.41,8.19-18.91,12.01-28.48,.59-.19,1.17-.45,1.72-.81,28.24-18.51,55.56-37.88,82.52-57.93,26.92-20.07,53.3-40.85,78.89-62.59,25.57-21.76,50.4-44.43,73.67-68.68,11.68-12.08,22.84-24.66,33.4-37.74,9.88-12.28,19.22-25.03,27.45-38.5-1.92,12.96-3.71,52.32,59.17-4.54,73.86-66.78,12.67-162.35,12.67-162.35Z"/></g><g><g class="cls-7"><g><path class="cls-2" d="M3944.83,1562.75h128.93l49.72,244.11,49.37-244.11h128.85v401.19h-80.29v-305.95l-61.86,305.95h-72.67l-61.75-305.95v305.95h-80.29v-401.19Z"/><path class="cls-2" d="M4364.03,1562.75h262.73v85.66h-164.48v63.76h152.57v81.83h-152.57v79.09h169.24v90.86h-267.49v-401.19Z"/><path class="cls-2" d="M4684.97,1562.75h91.54l119.46,221.96v-221.96h92.41v401.19h-92.41l-118.81-220.28v220.28h-92.19v-401.19Z"/><path class="cls-2" d="M5031.24,1562.75h298v99.07h-99.98v302.12h-98.04v-302.12h-99.98v-99.07Z"/><path class="cls-2" d="M5538.57,1897.71h-111.3l-15.46,66.23h-100.1l119.24-401.19h106.94l119.22,401.19h-102.66l-15.87-66.23Zm-20.34-86.75l-35.02-144.22-34.65,144.22h69.67Z"/><path class="cls-2" d="M5688.27,1562.75h98.04v302.4h153.01v98.79h-251.04v-401.19Z"/></g><g><path class="cls-2" d="M6123.7,1562.68h98.07v140.43h107.16v-140.43h98.5v401.32h-98.5v-162.33h-107.16v162.33h-98.07v-401.32Z"/><path class="cls-2" d="M6492.37,1562.68h262.81v85.68h-164.53v63.78h152.62v81.85h-152.62v79.11h169.29v90.88h-267.57v-401.32Z"/><path class="cls-2" d="M7007.88,1897.75h-111.34l-15.47,66.25h-100.13l119.28-401.32h106.97l119.26,401.32h-102.69l-15.88-66.25Zm-20.34-86.78l-35.03-144.27-34.66,144.27h69.69Z"/><path class="cls-2" d="M7157.63,1562.68h98.07v302.49h153.05v98.82h-251.12v-401.32Z"/><path class="cls-2" d="M7408.53,1562.68h298.1v99.1h-100.02v302.22h-98.07v-302.22h-100.02v-99.1Z"/><path class="cls-2" d="M7751.44,1562.68h98.07v140.43h107.16v-140.43h98.5v401.32h-98.5v-162.33h-107.16v162.33h-98.07v-401.32Z"/></g></g><g><path class="cls-1" d="M4608.04,2010.67l110.83,229.11-13.1,6.37-23.02-47.45h-158.64l-23.02,47.45-13.1-6.37,110.83-229.11h9.21Zm67.63,173.87l-71.53-149.79h-1.42l-71.53,149.79h144.48Z"/><path class="cls-1" d="M4957.54,2075.48l-57.01,172.45h-12.39l-46.39-152.27-46.39,152.27h-12.39l-57.37-172.8,13.81-4.25,48.87,148.37,46.39-146.95h14.16l46.03,146.95,49.22-148.37,13.46,4.6Z"/><path class="cls-1" d="M5135.3,2243.68v-22.31c-14.16,17.71-36.47,27.62-63.38,27.62-48.16,0-87.11-40.01-87.11-89.23s40.01-88.88,87.11-88.88c26.91,0,49.22,9.91,63.38,27.62v-24.08h14.87v169.26h-14.87Zm0-44.97v-77.19c-10.62-21.95-35.41-36.47-63.38-36.47-39.31,0-71.88,33.99-71.88,74.72s32.58,75.07,71.88,75.07c27.97,0,52.76-14.52,63.38-36.12Z"/><path class="cls-1" d="M5199.74,2243.68v-169.26h14.87v23.02c13.1-17,33.64-26.56,58.07-26.56,42.14,0,66.93,24.79,70.82,64.09h-15.23c-3.9-33.29-23.02-49.22-57.37-49.22-24.79,0-46.74,13.81-56.3,35.06v122.87h-14.87Z"/><path class="cls-1" d="M5532.95,2199.41l10.98,8.85c-15.23,24.08-41.78,40.72-74.72,40.72-54.89,0-88.88-40.01-88.88-89.23s38.24-88.88,85.34-88.88,85.34,40.01,85.34,88.88c0,4.96-.71,10.62-.71,10.62h-154.04c4.6,36.12,32.58,64.45,72.95,64.45,29.74,0,50.99-15.23,63.74-35.41Zm-137.39-43.2h140.58c-1.77-38.95-32.58-71.18-70.47-71.18s-68.34,32.22-70.11,71.18Z"/><path class="cls-1" d="M5595.98,2243.68v-169.26h14.87v25.14c15.23-18.41,39.31-28.68,68.7-28.68,48.16,0,74.72,30.45,74.72,78.26v94.55h-14.87v-93.13c0-44.26-20.54-65.51-61.61-65.51-30.1,0-55.95,14.52-66.93,36.83v121.81h-14.87Z"/><path class="cls-1" d="M5951.85,2199.41l10.98,8.85c-15.23,24.08-41.78,40.72-74.72,40.72-54.89,0-88.88-40.01-88.88-89.23s38.24-88.88,85.34-88.88,85.34,40.01,85.34,88.88c0,4.96-.71,10.62-.71,10.62h-154.04c4.6,36.12,32.58,64.45,72.95,64.45,29.74,0,50.99-15.23,63.74-35.41Zm-137.39-43.2h140.58c-1.77-38.95-32.58-71.18-70.47-71.18s-68.34,32.22-70.11,71.18Z"/><path class="cls-1" d="M6009.56,2215.35c18.41,13.46,43.91,19.48,67.28,19.48,20.18,0,57.72-6.37,57.72-33.64,0-23.37-29.39-28.68-58.43-34.35-34.7-6.37-69.4-13.46-69.4-48.16s39.31-47.8,70.11-47.8c23.72,0,46.39,5.31,62.32,20.54l-9.91,10.62c-13.1-12.39-32.22-17-52.41-17-24.08,0-54.89,8.14-54.89,33.64,0,23.37,28.33,27.97,57.01,33.29,35.06,6.37,70.82,14.16,70.82,49.22,0,38.6-47.45,47.8-72.95,47.8s-54.53-7.44-75.07-21.6l7.79-12.04Z"/><path class="cls-1" d="M6196.53,2215.35c18.41,13.46,43.91,19.48,67.28,19.48,20.18,0,57.72-6.37,57.72-33.64,0-23.37-29.39-28.68-58.43-34.35-34.7-6.37-69.4-13.46-69.4-48.16s39.31-47.8,70.11-47.8c23.72,0,46.39,5.31,62.32,20.54l-9.91,10.62c-13.1-12.39-32.22-17-52.41-17-24.08,0-54.89,8.14-54.89,33.64,0,23.37,28.33,27.97,57.01,33.29,35.06,6.37,70.82,14.16,70.82,49.22,0,38.6-47.45,47.8-72.95,47.8s-54.53-7.44-75.07-21.6l7.79-12.04Z"/><path class="cls-1" d="M6705.01,2039l-99.86,111.54-99.86-111.54v204.67h-14.87v-229.46h12.75l101.98,115.08,101.98-115.08h12.75v229.46h-14.87v-204.67Z"/><path class="cls-1" d="M6859.04,2248.99c-48.87,0-88.88-40.01-88.88-89.23s40.01-88.88,88.88-88.88,89.23,40.01,89.23,88.88-40.01,89.23-89.23,89.23Zm0-163.95c-40.01,0-73.65,33.99-73.65,74.72s33.64,75.07,73.65,75.07,74.01-33.99,74.01-75.07-33.64-74.72-74.01-74.72Z"/><path class="cls-1" d="M6993.24,2243.68v-169.26h14.87v25.14c15.23-18.41,39.31-28.68,68.7-28.68,48.16,0,74.72,30.45,74.72,78.26v94.55h-14.87v-93.13c0-44.26-20.54-65.51-61.61-65.51-30.1,0-55.95,14.52-66.93,36.83v121.81h-14.87Z"/><path class="cls-1" d="M7188.7,2074.41h23.02v-49.57h14.87v49.57h86.76v14.16h-86.76v93.84c0,32.93,13.81,52.41,43.91,52.41,16.64,0,28.68-4.6,40.37-10.98l6.73,12.04c-14.17,7.79-27.97,13.1-47.1,13.1-40.01,0-58.78-25.14-58.78-66.57v-93.84h-23.02v-14.16Z"/><path class="cls-1" d="M7353.71,2243.68v-229.46h14.87v85.34c15.23-18.41,39.31-28.68,68.7-28.68,48.16,0,74.72,30.45,74.72,78.26v94.55h-14.87v-93.13c0-44.26-20.54-65.51-61.61-65.51-30.1,0-55.95,14.52-66.93,36.83v121.81h-14.87Z"/></g><g><path class="cls-1" d="M5742.04,1325.97l-84.49,94.37-84.49-94.37v173.17h-12.58v-194.14h10.79l86.29,97.37,86.29-97.37h10.79v194.14h-12.58v-173.17Z"/><path class="cls-1" d="M5924.5,1499.14v-18.87c-11.98,14.98-30.86,23.37-53.63,23.37-40.75,0-73.7-33.85-73.7-75.5s33.86-75.2,73.7-75.2c22.77,0,41.64,8.39,53.63,23.37v-20.37h12.58v143.21h-12.58Zm0-38.05v-65.31c-8.99-18.58-29.96-30.86-53.63-30.86-33.26,0-60.82,28.76-60.82,63.22s27.56,63.52,60.82,63.52c23.67,0,44.64-12.28,53.63-30.56Z"/><path class="cls-1" d="M5982.62,1352.93l59.32,131.82,60.22-131.82,10.79,5.09-71.01,155.19c-9.89,21.87-24.57,38.95-47.04,38.95v-11.98c16.48,0,27.86-14.38,35.95-31.76l4.49-9.89-63.82-140.51,11.09-5.09Z"/><path class="cls-1" d="M6254.66,1302c7.19,0,13.18,5.99,13.18,13.18s-5.99,13.18-13.18,13.18-13.18-5.99-13.18-13.18,5.99-13.18,13.18-13.18Zm32.06,199.23c-24.27,0-38.35-19.47-38.35-47.34v-97.97h12.58v97.97c0,21.27,8.99,35.35,25.77,35.35v11.98Z"/><path class="cls-1" d="M6320.87,1475.17c15.58,11.38,37.15,16.48,56.92,16.48,17.08,0,48.83-5.39,48.83-28.46,0-19.77-24.87-24.27-49.43-29.06-29.36-5.39-58.72-11.38-58.72-40.75s33.26-40.45,59.32-40.45c20.07,0,39.25,4.49,52.73,17.38l-8.39,8.99c-11.09-10.49-27.26-14.38-44.34-14.38-20.37,0-46.44,6.89-46.44,28.46,0,19.77,23.97,23.67,48.24,28.16,29.66,5.39,59.92,11.98,59.92,41.64,0,32.66-40.15,40.45-61.72,40.45s-46.14-6.29-63.52-18.28l6.59-10.19Z"/></g></g></svg>