<?xml version="1.0" encoding="UTF-8"?><svg id="_Слой_1" xmlns="http://www.w3.org/2000/svg" viewBox="0 0 10000 5000"><defs><style>.cls-1{fill:#f4d3da;}.cls-2{fill:#f7d8bf;}.cls-3{fill:#ef7d00;}.cls-4{fill:#fff;}.cls-5{fill:#ffe7d7;}.cls-6{fill:#d15973;}.cls-7,.cls-8{fill:#281b2b;}.cls-8{stroke:#281b2b;stroke-miterlimit:10;stroke-width:3px;}</style></defs><g><rect class="cls-5" width="5000" height="5000"/><rect class="cls-6" x="1621" y="3018.15" width="2963.45" height="504.88"/><g><path class="cls-6" d="M4472.09,2586.48c-2.77,.54-80.35,15.27-129.28,117.31,1.2,2.01,71.53-47.33,129.28-117.31Z"/><path class="cls-6" d="M4317.88,2625.03s-38.77,45.77-7.19,118.17c0,0,3.51-60.92,7.19-118.17Z"/><path class="cls-6" d="M4210.73,2714.97s-28.5,59.45,31.88,128.58c0,0-16.66-66.24-31.88-128.58Z"/><path class="cls-6" d="M4279.8,2642.14c4.96-5.68-39.05,47.28-5.85,150.81,0,0,2.77-77.75,5.85-150.81Z"/><path class="cls-6" d="M4137.85,2821.7c3.26-6.48-24.96,53.41,38.32,142.9,0,0-20-73.62-38.32-142.9Z"/><path class="cls-6" d="M4199.51,2795.6c3.6-5.13-28.24,42.34,2.91,116.34,0,0-1.69-59.95-2.91-116.34Z"/><path class="cls-6" d="M4215.83,2884.77c-6.26-.98,51.37,6.86,124.71-49.7,0,0-64.21,25.77-124.71,49.7Z"/><path class="cls-6" d="M4257.04,2818.12c-5.76-2.18,47.74,16.48,141.83-35.38,0,0-73.1,18.42-141.83,35.38Z"/><path class="cls-6" d="M4184.22,2945.9c-5.76-2.18,47.74,16.48,141.83-35.38,0,0-73.1,18.42-141.83,35.38Z"/><path class="cls-6" d="M4403.68,2709.15s-26.78,51.4-117.35,66.45c0,0,60.6-34.12,117.35-66.45Z"/><path class="cls-6" d="M4360.28,2687.87c-6.43,5.84-12.45,12.39-18.42,18.84l-8.76,9.91-8.49,10.16c-2.87,3.35-5.56,6.85-8.3,10.31-2.72,3.47-5.49,6.91-8.18,10.41l-7.91,10.62-3.96,5.31-1.98,2.65-1.91,2.71c-5.06,7.24-10.21,14.41-15.19,21.7l-14.65,22.08c-4.8,7.41-9.4,14.96-14.11,22.43-2.32,3.76-4.74,7.45-6.97,11.27l-6.73,11.41c-18.2,30.29-34.75,61.54-51,92.91-2.09,3.89-3.94,7.91-5.91,11.86l-5.84,11.9-11.67,23.8-22.16,48.16-.03,.07c-.78,1.69-2.78,2.43-4.46,1.65-1.69-.78-2.43-2.78-1.65-4.46v-.02s22.64-48.12,22.64-48.12l11.9-23.78,5.95-11.89c2.01-3.95,3.9-7.96,6.03-11.85,16.57-31.34,33.43-62.54,51.94-92.79l6.85-11.4c2.26-3.81,4.73-7.5,7.09-11.25,4.79-7.46,9.47-14.99,14.35-22.39l14.89-22.04c5.07-7.27,10.3-14.44,15.44-21.66l1.94-2.7,2.01-2.65,4.02-5.3,8.04-10.6c2.73-3.49,5.54-6.93,8.31-10.4,2.78-3.45,5.51-6.95,8.43-10.3l8.62-10.14,8.9-9.91c6.1-6.48,12.12-12.95,18.84-18.96,.67-.6,1.69-.54,2.29,.13,.59,.66,.54,1.68-.12,2.28l-.04,.04Z"/></g><g><path class="cls-7" d="M415.55,2235.98c5.19,.69,150.64,19.29,252.79,202.93-2,3.85-137.89-79.7-252.79-202.93Z"/><path class="cls-7" d="M705.71,2290.13s77,80.48,26.6,218.21c0,0-13.35-112.52-26.6-218.21Z"/><path class="cls-7" d="M914.41,2444.81s59.51,106.99-44.66,241.91c0,0,23.43-124.65,44.66-241.91Z"/><path class="cls-7" d="M778.21,2317.56c-9.82-9.97,77.69,83.24,27.77,278.87,0,0-13.86-143.81-27.77-278.87Z"/><path class="cls-7" d="M1061.47,2634.45c-6.77-11.64,52.25,96.19-54.98,269.17,0,0,28.81-138.7,54.98-269.17Z"/><path class="cls-7" d="M944.26,2592.99c-7.25-9.1,57.09,75.31,7.66,215.97,0,0-3.59-111.3-7.66-215.97Z"/><path class="cls-7" d="M924.03,2760.1c11.49-2.52-94.45,18.48-236.72-78.11,0,0,121.92,40.56,236.72,78.11Z"/><path class="cls-7" d="M840.16,2641.19c10.43-4.68-86.63,35.91-266.86-49.65,0,0,137.57,25.94,266.86,49.65Z"/><path class="cls-7" d="M989.48,2869.87c10.43-4.68-86.63,35.91-266.86-49.65,0,0,137.57,25.94,266.86,49.65Z"/><path class="cls-7" d="M556.12,2455.69s55.4,92.27,224.97,110c0,0-116.15-56.44-224.97-110Z"/><path class="cls-7" d="M634.17,2411.37c12.58,10.1,24.47,21.56,36.25,32.86l17.35,17.39,16.87,17.87c5.69,5.89,11.07,12.08,16.54,18.18,5.44,6.13,10.95,12.2,16.33,18.38l15.86,18.8,7.93,9.4,3.96,4.7,3.84,4.8c10.19,12.85,20.53,25.57,30.6,38.52l29.63,39.27c9.73,13.2,19.11,26.67,28.68,39.99,4.71,6.71,9.63,13.28,14.18,20.1l13.76,20.4c37.13,54.11,71.31,110.17,104.97,166.49,4.32,6.98,8.19,14.22,12.29,21.32l12.15,21.4,24.3,42.8,46.49,86.77,.07,.13c1.63,3.04,5.42,4.19,8.46,2.56,3.04-1.63,4.19-5.42,2.56-8.46l-.02-.04-47.34-86.65-24.72-42.74-12.37-21.36c-4.18-7.09-8.12-14.31-12.51-21.28-34.23-56.23-68.98-112.17-106.68-166.17l-13.97-20.36c-4.62-6.81-9.61-13.36-14.4-20.06-9.71-13.29-19.24-26.72-29.11-39.89l-30.07-39.18c-10.21-12.91-20.7-25.61-31.04-38.42l-3.89-4.79-4.02-4.69-8.04-9.38-16.08-18.75c-5.46-6.17-11.05-12.22-16.56-18.34-5.55-6.09-11-12.26-16.78-18.14l-17.11-17.83-17.61-17.36c-12.03-11.33-23.91-22.64-37.05-33.02-1.3-1.03-3.2-.81-4.23,.5-1.02,1.3-.81,3.18,.48,4.21l.08,.07Z"/></g><g><path class="cls-6" d="M1130.35,3427.25c1.12-.02,2.23-.54,2.97-1.5,1.28-1.68,.96-4.08-.72-5.36-118.17-90.21-192.07-185.72-233.26-249.96-44.64-69.62-61.55-118.54-61.71-119.03-.68-2-2.85-3.07-4.85-2.39-2,.68-3.07,2.85-2.39,4.85,.17,.49,17.28,50.09,62.35,120.43,41.53,64.83,116.06,161.2,235.22,252.17,.71,.54,1.56,.8,2.39,.78Z"/><g><path class="cls-6" d="M745.76,2907.74c13.6,21.53,27.05,43.17,40.27,64.93,13.16,21.78,26.36,43.62,38.24,66.02,1.39,2.82,2.95,5.62,4.19,8.46l1.91,4.26c.32,.76,.64,1.55,1.07,2.39,.25,.44,.43,.84,1,1.49,.09,.09,.14,.15,.26,.26,.14,.12,.29,.23,.44,.33,.19,.12,.55,.28,.84,.34,.37,.09,.98,.07,1.38-.08,.96-.37,1.25-.91,1.46-1.22,.08-.14,.15-.28,.21-.43l.11-.31c.38-1.42,.31-2.13,.36-3.05,.01-.87-.01-1.69-.05-2.52-.07-1.65-.19-3.26-.33-4.87-.28-3.21-.63-6.4-1-9.58-1.53-12.71-3.41-25.32-5.33-37.93-3.89-25.21-8.09-50.35-12.46-75.48-.3-1.72-1.94-2.87-3.66-2.57-1.72,.3-2.87,1.94-2.57,3.66,0,0,0,.02,0,.02v.03c4.68,25.02,9.21,50.09,13.41,75.19,2.08,12.55,4.12,25.12,5.79,37.69,.41,3.14,.8,6.28,1.11,9.41,.15,1.56,.29,3.12,.37,4.66,.04,.77,.07,1.53,.07,2.26,.01,.67-.06,1.56-.11,1.69v-.03c.03-.06,.06-.11,.09-.16,.11-.14,.27-.52,1.04-.81,.31-.12,.81-.14,1.09-.06,.2,.03,.46,.15,.57,.23,.07,.04,.14,.09,.2,.14l.06,.05c.04,.06-.18-.25-.31-.5-.31-.57-.6-1.25-.9-1.96l-2.05-4.44c-1.35-2.98-2.94-5.73-4.4-8.6-12.29-22.47-25.75-44.1-39.22-65.75-13.51-21.62-27.24-43.08-41.13-64.46-.36-.56-1.11-.72-1.66-.35-.55,.36-.71,1.1-.36,1.66Z"/><path class="cls-6" d="M737.94,2984.96c15.32,11.27,30.58,22.62,45.76,34.07,7.58,5.73,15.14,11.49,22.63,17.32,3.74,2.91,7.47,5.85,11.13,8.82,1.83,1.49,3.65,2.98,5.41,4.5,.88,.76,1.75,1.52,2.57,2.28l1.16,1.12,.47,.5,.17,.2s0,.02,.01,.02l3.8-5.9-159.27-23.83c-.65-.1-1.25,.35-1.35,1-.1,.63,.33,1.23,.96,1.34l158.4,29.04,9.15,1.68-5.34-7.57h0s-.53-.69-.53-.69l-.43-.46c-.28-.29-.53-.52-.78-.77-.5-.46-.98-.88-1.47-1.29-.96-.81-1.92-1.57-2.88-2.33-1.91-1.5-3.83-2.94-5.76-4.37-3.85-2.85-7.73-5.64-11.62-8.4-7.78-5.52-15.6-10.96-23.44-16.36-15.68-10.8-31.44-21.47-47.25-32.07-.61-.41-1.43-.24-1.83,.36-.39,.59-.25,1.39,.32,1.8Z"/><path class="cls-6" d="M832.86,3049.7l-92.63,32.82c-.27,.1-.41,.4-.32,.67,.09,.26,.37,.4,.63,.33l94.63-26.53c2.03-.57,3.22-2.68,2.65-4.71-.57-2.03-2.68-3.22-4.71-2.65-.08,.02-.17,.05-.24,.08Z"/><ellipse class="cls-6" cx="816.55" cy="2917.59" rx="16.93" ry="15.29" transform="translate(-1927.53 1633.41) rotate(-49.29)"/><ellipse class="cls-6" cx="739.42" cy="2984.5" rx="11.64" ry="10.51" transform="translate(-2005.06 1598.22) rotate(-49.29)"/><ellipse class="cls-6" cx="737.59" cy="3084.8" rx="11.64" ry="10.51" transform="translate(-2081.73 1631.71) rotate(-49.29)"/><ellipse class="cls-6" cx="743.77" cy="2900.32" rx="16.93" ry="15.29" transform="translate(-1939.75 1572.24) rotate(-49.29)"/><ellipse class="cls-6" cx="663.01" cy="3022.01" rx="16.93" ry="15.29" transform="translate(-2060.07 1553.34) rotate(-49.29)"/></g><g><path class="cls-6" d="M749.54,3155.88c16.83,12.34,33.58,24.8,50.18,37.44,16.56,12.67,33.18,25.37,48.86,38.94,1.9,1.73,3.92,3.41,5.66,5.22,.92,.92,1.76,1.71,2.75,2.74,.55,.53,.94,1,1.94,1.64,.32,.13,.5,.45,1.77,.47,.26,0,.74-.11,1.16-.37,.41-.25,.65-.55,.88-.91,.16-.29,.21-.48,.28-.73,.05-.23,.05-.31,.07-.47,.02-1-.13-1.28-.23-1.73-.45-1.55-.99-2.73-1.54-3.99-.55-1.23-1.12-2.43-1.71-3.62-1.17-2.37-2.38-4.71-3.6-7.03-4.91-9.27-10.06-18.37-15.24-27.46-10.39-18.15-20.98-36.14-31.71-54.09-.9-1.5-2.84-1.99-4.34-1.09-1.5,.9-1.99,2.84-1.09,4.34,0,0,.01,.02,.02,.03v.02c10.99,17.73,21.86,35.55,32.5,53.48,5.3,8.97,10.58,17.97,15.58,27.07,1.25,2.28,2.47,4.56,3.65,6.85,.58,1.15,1.15,2.29,1.69,3.44,.52,1.12,1.06,2.33,1.34,3.28,.07,.18,.09,.54,.09,.19,0-.08,0-.08,.04-.23,.04-.18,.08-.28,.2-.5,.17-.31,.38-.52,.71-.74,.35-.22,.75-.29,.93-.3,.94,.03,.82,.19,.86,.15-.11-.05-.65-.51-1.03-.9-.83-.85-1.9-1.84-2.84-2.75-1.92-1.92-3.95-3.55-5.93-5.3-16.11-13.51-32.9-25.91-49.7-38.35-16.82-12.39-33.77-24.6-50.81-36.68-.54-.38-1.29-.26-1.68,.29-.38,.54-.25,1.28,.27,1.67Z"/><path class="cls-6" d="M766.77,3218.33c14.96,3.79,29.91,7.65,44.81,11.63,7.45,1.99,14.89,4.01,22.29,6.11,3.7,1.05,7.39,2.12,11.05,3.24,1.83,.56,3.64,1.13,5.42,1.73,.88,.3,1.76,.61,2.6,.92l1.18,.48,.46,.22,.15,.08s-.05-.01-.07-.03l1.26-6.86-127.66,33.99c-.63,.17-1.01,.82-.84,1.45,.16,.62,.79,.99,1.4,.85l128.91-28.87,8.71-1.95-7.45-4.91h0c-.22-.14-.46-.28-.69-.4l-.5-.23c-.32-.14-.58-.24-.87-.35-.53-.2-1.04-.37-1.54-.53-.99-.32-1.95-.59-2.91-.86-1.91-.53-3.81-1.02-5.7-1.49-3.79-.94-7.56-1.81-11.34-2.67-7.56-1.71-15.11-3.33-22.68-4.92-15.13-3.18-30.27-6.23-45.43-9.21-.72-.14-1.41,.33-1.55,1.04-.14,.69,.3,1.37,.98,1.54Z"/><path class="cls-6" d="M800.44,3296.19l61.01-54.86-1.06,.49c12.97-2.27,26.02-4.35,39.09-6.11,6.54-.87,13.08-1.67,19.64-2.25,3.28-.29,6.56-.52,9.84-.62,1.64-.04,3.28-.05,4.9,.03,1.6,.1,3.3,.22,4.63,.81l.05,.02c.26,.12,.57,0,.69-.27,.11-.26,0-.56-.25-.68-1.68-.81-3.36-.93-5.03-1.13-1.67-.15-3.34-.21-5-.23-3.33-.04-6.64,.06-9.96,.21-6.62,.32-13.22,.85-19.81,1.46-13.18,1.24-26.32,2.78-39.45,4.53l-.56,.07-.51,.42-63.2,52.32c-1.63,1.35-1.85,3.75-.51,5.38,1.35,1.63,3.75,1.85,5.38,.51,.04-.03,.08-.07,.12-.1Z"/><ellipse class="cls-6" cx="806.27" cy="3140.24" rx="14.29" ry="12.41" transform="translate(-2427.47 2907.59) rotate(-71.49)"/><ellipse class="cls-6" cx="767.79" cy="3217.28" rx="9.82" ry="8.53" transform="translate(-2526.78 2923.68) rotate(-71.49)"/><ellipse class="cls-6" cx="796.36" cy="3295.59" rx="9.82" ry="8.53" transform="translate(-2581.54 3004.21) rotate(-71.49)"/><ellipse class="cls-6" cx="745.95" cy="3150.64" rx="14.29" ry="12.41" transform="translate(-2478.5 2857.49) rotate(-71.49)"/><ellipse class="cls-6" cx="721.08" cy="3271.32" rx="14.29" ry="12.41" transform="translate(-2609.9 2916.26) rotate(-71.49)"/></g><g><path class="cls-6" d="M1003.73,2991.68c-8.78,18.93-17.7,37.81-26.82,56.57-9.16,18.73-18.34,37.53-28.56,55.57-1.33,2.2-2.57,4.51-4,6.58-.72,1.08-1.33,2.07-2.14,3.23-.41,.64-.79,1.12-1.23,2.22-.06,.34-.34,.58-.11,1.83,.05,.26,.25,.7,.59,1.07,.32,.36,.67,.53,1.07,.68,.32,.1,.51,.11,.77,.13,.23,0,.31-.01,.47-.03,.99-.18,1.23-.38,1.65-.57,1.43-.75,2.49-1.51,3.61-2.29,1.1-.78,2.16-1.58,3.21-2.39,2.1-1.61,4.15-3.26,6.18-4.92,8.12-6.64,16.03-13.48,23.92-20.35,15.75-13.76,31.3-27.69,46.79-41.74,1.29-1.17,1.39-3.17,.22-4.47-1.17-1.29-3.17-1.39-4.47-.22,0,0-.02,.01-.02,.02l-.02,.02c-15.22,14.25-30.55,28.42-46.04,42.38-7.75,6.97-15.54,13.91-23.47,20.61-1.99,1.67-3.98,3.32-6,4.92-1.01,.8-2.02,1.58-3.04,2.33-1,.73-2.08,1.49-2.96,1.96-.16,.11-.51,.2-.17,.12,.08,0,.08,0,.23,0,.19,0,.29,.02,.53,.09,.34,.1,.58,.27,.87,.55,.29,.3,.43,.68,.48,.85,.16,.93-.02,.84,.02,.88,.03-.12,.38-.74,.68-1.18,.67-.98,1.43-2.23,2.13-3.33,1.5-2.26,2.7-4.57,4.03-6.86,10.07-18.46,18.92-37.36,27.82-56.27,8.84-18.93,17.47-37.95,25.96-57.04,.27-.61,0-1.32-.61-1.59-.6-.27-1.31,0-1.58,.6Z"/><path class="cls-6" d="M945.9,3020.87c-.77,15.41-1.62,30.83-2.58,46.22-.49,7.7-1,15.39-1.6,23.06-.3,3.83-.62,7.67-1,11.47-.19,1.9-.39,3.79-.63,5.65-.12,.93-.25,1.85-.39,2.73l-.24,1.25-.12,.49-.05,.16s0-.05,.02-.07h0s6.97-.12,6.97-.12l-58.46-118.46c-.29-.59-1-.83-1.59-.54-.57,.28-.81,.97-.56,1.54l53.69,120.7,3.63,8.15,3.34-8.27h0c.09-.25,.18-.51,.26-.76l.13-.54c.08-.34,.12-.62,.18-.92,.09-.56,.16-1.09,.22-1.61,.12-1.03,.2-2.03,.27-3.02,.14-1.98,.25-3.93,.34-5.88,.17-3.9,.29-7.77,.39-11.64,.19-7.74,.29-15.47,.36-23.2,.13-15.46,.15-30.9,.09-46.35,0-.73-.6-1.32-1.33-1.32-.7,0-1.28,.56-1.32,1.26Z"/><path class="cls-6" d="M876.2,3069.21l65.74,49.09-.71-2.56c-5.01,13.93-9.92,27.89-14.69,41.91-2.38,7.01-4.72,14.03-6.95,21.09-1.12,3.53-2.21,7.07-3.22,10.64-.51,1.78-1,3.58-1.43,5.39-.22,.91-.42,1.82-.59,2.74-.08,.46-.16,.93-.21,1.42-.02,.24-.04,.49-.04,.75,.02,.27-.02,.52,.21,.96,.14,.25,.45,.35,.71,.21,.25-.14,.35-.45,.21-.71,0-.01-.01-.03-.02-.04l-.02-.04s-.03-.64,.04-1.02c.06-.43,.15-.88,.25-1.32,.2-.88,.43-1.77,.68-2.65,.5-1.77,1.05-3.52,1.62-5.27,1.15-3.5,2.37-6.99,3.61-10.46,2.5-6.95,5.1-13.86,7.74-20.76,5.29-13.8,10.74-27.55,16.27-41.24l.6-1.5-1.32-1.07-63.8-51.59c-1.64-1.33-4.05-1.07-5.37,.57-1.33,1.64-1.07,4.05,.57,5.37,.03,.03,.08,.06,.12,.09Z"/><ellipse class="cls-6" cx="1030.24" cy="3044.22" rx="12.41" ry="14.29" transform="translate(-2118.64 3687.05) rotate(-82.84)"/><ellipse class="cls-6" cx="947.13" cy="3021.66" rx="8.53" ry="9.82" transform="translate(-2169.01 3584.85) rotate(-82.84)"/><ellipse class="cls-6" cx="875.98" cy="3065.09" rx="8.53" ry="9.82" transform="translate(-2274.38 3552.27) rotate(-82.84)"/><ellipse class="cls-6" cx="1008.16" cy="2987.13" rx="12.41" ry="14.29" transform="translate(-2081.32 3615.17) rotate(-82.84)"/><ellipse class="cls-6" cx="884.95" cy="2986.5" rx="12.41" ry="14.29" transform="translate(-2188.55 3492.37) rotate(-82.84)"/></g></g><path class="cls-7" d="M2202.81,2345.54c-65.1,33.96-33.97,79.25-28.31,87.74,5.67,8.49,16.98,39.62-19.81,56.61,0,0,22.65,28.3-2.83,59.43-25.47,31.13-22.64,39.63-22.64,62.27s19.81,107.55-33.97,135.85c-53.77,28.3-189.62,28.3-268.87,25.47-79.24-2.83-135.85,84.9-150,130.19-8.11,25.97-23.67,73.34-33.87,116.5-7.59,32.1-12.21,61.88-8.59,78.78,5.18,24.2,20.13,249.43,106.95,426.1H905c50.84-138.3,115.63-347.18,129.39-386.03,14.28-40.29,28.17-80.92,40.98-118.85,17.05-50.44,32.19-96.14,43.77-129.98,7.82-22.88,14.02-40.34,18.08-50.2,19.8-48.12,73.58-283.02,0-356.61-73.59-73.59-249.06-266.04-280.2-486.81-31.13-220.75,0-246.23,0-246.23,0,0-80.66,7.08-137.26-38.2-27.85-22.28-42.68-53.46-47.86-89.83-5.37-37.57-.44-80.69,11.06-125.27,22.64-87.74,175.47-288.69,314.16-215.1,138.68,73.59,113.21,144.34,124.53,144.34s31.14,0,90.57-33.96c59.43-33.96,189.62-53.78,427.37-25.48,237.74,28.31,350.94,186.8,345.28,195.3,0,0,101.89,135.84,118.88,186.79,16.97,50.94,45.28,121.7,45.28,186.79s-14.15,110.39-5.66,141.52c8.49,31.13,99.06,147.17,107.55,169.81,8.49,22.64,16.98,65.1-48.11,99.06Z"/><path class="cls-5" d="M1199.12,3014.66c3.48,3.19,8.36,5.89,15.01,7.75,0,0-5.79,3.2-10.4,8.47-3.59,4.09-6.46,9.43-5.36,15.49,.19,1.03,.42,1.97,.69,2.86,2.79,9.05,10.01,11.39,19.51,15.08,2.19,.85,4.51,1.77,6.91,2.87,1.86,.84,3.54,1.64,5.07,2.42,9.53,4.85,12.81,8.82,12.05,17.43-.02,.32-.05,.63-.09,.96-1.26,10.72-10.1,58.64,32.15,65.57,32.63,5.35,83.67-5.45,115.11-6.59,1.4-.05,2.76-.09,4.07-.09,6.18-.06,11.43,.37,15.41,1.51,.8,.22,1.54,.48,2.24,.76,21.43,8.83,27.11,17.02,40.98,62.43,1.09,3.58,2.2,7.21,3.29,10.87,.79,2.63,1.58,5.27,2.36,7.93,.42,1.42,.84,2.85,1.25,4.28,11.48,39.34,10.27,64.9,10.33,81.94,.04,12.63,.63,20.81-9.46,42.25-7.1,15.09-78.95,120.16-116,171.15h504.2s-5.46-55.17-15.13-88.9c-6-20.93-20.5-50.36-36.74-86.14-.63-1.4-1.27-2.81-1.92-4.23-1.18-2.62-2.37-5.27-3.56-7.95-7.37-16.56-14.94-34.33-22.11-53.13-1.01-2.65-2.02-5.33-3.01-8.02-.5-1.35-1-2.71-1.49-4.08-7.25-20-13.93-41.05-19.37-62.97-.46-1.83-.9-3.68-1.34-5.52-.75-3.16-1.44-9.46-2.07-17.56-.25-3.19-.49-6.66-.72-10.33h0c-.48-7.73-.92-16.32-1.31-25.06-1.4-31.32-2.2-64.33-2.2-64.33,0,0,10.09,24.59,35.94,30.9,25.85,6.3,22.7,0,37.83-1.26,15.14-1.26,18.29-17.02,30.9-16.4,12.6,.64,15.13-1.89,26.48-.62,11.35,1.26,12.61-7.57,20.18-18.92,7.56-11.35,14.5,2.52,23.33-5.68,8.83-8.2,22.7-18.29,23.33-32.16,.63-13.87,18.28-5.67,16.39-22.69-1.89-17.03-2.52-29.64,11.98-32.79,14.51-3.16,9.46-.63,14.51-13.87,5.04-13.25,23.33-5.05,23.33-17.66,0-12.61-13.24-26.48,0-28.38,13.25-1.89,23.96,2.53,27.12-17.66,3.15-20.18-1.27-19.54,5.04-29.63,6.3-10.09-5.67-16.39,1.89-25.85,7.56-9.46,28.37-26.49,17.02-39.1-11.35-12.61,0-15.13,6.94-32.15,6.93-17.02-2.53-25.85-3.16-35.31-.62-9.45,32.8-52.96,11.36-86.38-21.44-33.41-17.03-28.37-10.09-57.38,6.93-29-6.31-25.22-15.77-32.79-9.46-7.56-2.53-43.5-28.38-53.59-25.85-10.09-18.92-17.03-20.81-29-1.89-11.98-10.71-21.44-34.68-29.64-23.96-8.2-12.61-13.24-28.37-34.68-13.42-18.25-24.56-15.02-40.8-28.45-1.17-.96-2.37-2.01-3.6-3.18-1.74-1.63-3.55-3.48-5.42-5.58-3.77-4.21-6.87-7.58-9.5-10.29,0,0,0,0,0-.02-12.3-12.75-14.04-11.16-23.91-14.28-.18-.05-.36-.12-.53-.2-3.04-1.27-4.36-4.75-5.43-8.88-.35-1.36-.67-2.78-1.03-4.22-2.44-10.11-6.06-20.84-28.95-12.56-36.57,13.25-22.07-18.28-40.98-19.55-18.92-1.26-18.29,18.92-39.72,0-21.44-18.92-32.16,2.53-46.66-3.78-14.51-6.31-2.53-30.27-32.16-21.44-20.41,6.08-19.58,15.14-23.47,17.11h0c-1.18,.61-2.79,.55-5.55-.44,0,0-.01,0-.01,0-1.36-.48-3-1.2-5-2.17-19.55-9.46-22.7-18.29-46.66-5.68-23.96,12.61-37.2-27.74-49.18-18.92-11.98,8.83-3.15,30.9-19.54,28.37-16.4-2.52-34.05-34.05-51.08-17.65-17.02,16.39-17.66,30.26-39.09,23.33-21.44-6.93-17.66,9.46-34.68,19.55-17.02,10.08-16.4-15.13-41.62-3.15-25.22,11.98-7.57,18.28-22.7,35.94-15.13,17.66-26.49-25.85-47.3-5.67-20.8,20.18,1.26,31.53-11.98,42.25-13.24,10.72-40.98,9.45-40.35,22.06,.62,12.61,22.7,24.59,8.83,36.57-13.87,11.98-12.61,26.47-11.35,39.72,1.26,13.24-30.26,33.41-6.3,51.07,23.96,17.66,30.26,21.44,34.05,42.88,3.79,21.44,39.41,27.43,39.41,27.43,0,0-28.37,52.97-30.26,75.03-1.89,22.07-9.46,28.38-8.83,35.31,.63,6.93,9.46,39.09,10.72,51.71,.74,7.43,.61,17.05-2.85,27.44-2.41,7.24-6.44,14.86-12.91,22.37-9.87,11.46-25.69,28.35-36.28,42.63-6.33,8.52-10.78,16.11-11.02,21.06-.62,13.24,6.31,30.9,33.42,40.36,0,0-11.04,24.28-19.86,32.47-6.96,6.46-13.54,25.11-.51,37.01Z"/><g><polygon class="cls-8" points="2900.25 3719.08 2823.49 3561.01 2812.82 3561.01 2812.82 3731.34 2820.31 3731.34 2820.31 3569.87 2900.25 3734.52 2980.65 3571.91 2980.65 3731.34 2988.15 3731.34 2988.15 3561.01 2977.7 3561.01 2900.25 3719.08"/><path class="cls-8" d="M3114.87,3654.81c-3.49-8.33-9.62-15.1-18.4-20.33-8.78-5.22-18.09-7.83-27.93-7.83s-18.7,2.42-27.03,7.27c-8.33,4.85-14.91,11.39-19.76,19.65-4.85,8.25-7.27,17.15-7.27,26.69s2.42,18.44,7.27,26.69c4.84,8.25,11.43,14.8,19.76,19.65,8.33,4.84,17.33,7.27,27.03,7.27s18.81-2.53,27.37-7.61c8.55-5.07,14.88-11.84,18.96-20.33v25.44h7.27v-102.2h-7.27v25.66Zm-5.79,48.94c-4.17,7.19-9.8,12.95-16.92,17.26-7.12,4.32-14.84,6.47-23.17,6.47s-16.13-2.16-23.39-6.47c-7.27-4.31-13.06-10.07-17.37-17.26-4.32-7.19-6.47-14.95-6.47-23.28s2.16-16.12,6.47-23.39c4.32-7.27,10.07-13.09,17.26-17.49,7.19-4.39,14.95-6.59,23.28-6.59s16.05,2.16,23.17,6.47c7.11,4.31,12.79,10.11,17.03,17.37,4.24,7.27,6.36,15.07,6.36,23.39s-2.08,16.32-6.25,23.51Z"/><path class="cls-8" d="M3171.31,3635.28c-5.83,4.24-10.26,10.07-13.29,17.49v-23.62h-7.27v102.2h7.27v-59.73c0-6.36,1.55-12.34,4.66-17.94,3.1-5.6,7.19-10.07,12.26-13.4,5.07-3.33,10.33-5,15.78-5s10.37,1.67,14.76,5v-8.4c-4.85-1.97-9.62-2.95-14.31-2.95-7.42,0-14.05,2.12-19.87,6.36Z"/><path class="cls-8" d="M3265.67,3627.1c-10.15,0-19.42,2.42-27.82,7.27-8.4,4.85-15.03,11.32-19.87,19.42-4.85,8.1-7.27,16.92-7.27,26.46,0,10.3,2.42,19.53,7.27,27.71,4.84,8.18,11.39,14.61,19.64,19.3,8.25,4.69,17.3,7.04,27.14,7.04,8.33,0,15.78-1.4,22.37-4.2,6.59-2.8,12.6-7.08,18.06-12.83v-12.26c-9.99,15.29-23.47,22.94-40.43,22.94-8.33,0-16.09-2-23.28-6.02-7.19-4.01-12.91-9.61-17.15-16.81-4.24-7.19-6.36-15.33-6.36-24.41,0-8.32,2.19-16.12,6.59-23.39,4.39-7.27,10.26-13.06,17.6-17.37,7.34-4.32,15.18-6.47,23.51-6.47,9.08,0,16.69,1.93,22.82,5.79,6.13,3.86,11.7,9.5,16.69,16.92v-12.26c-5.76-5.75-11.66-9.99-17.72-12.72-6.06-2.73-13.32-4.09-21.8-4.09Z"/><path class="cls-8" d="M3372.18,3626.65c-7.87,0-15.64,2.24-23.28,6.7-7.65,4.47-13.06,10.11-16.24,16.92v-89.25h-7.27v170.33h7.27v-59.5c0-7.11,1.74-13.66,5.22-19.65,3.48-5.98,8.25-10.67,14.31-14.08,6.05-3.41,12.72-5.11,19.99-5.11,11.96,0,21.23,3.37,27.82,10.11,6.59,6.74,9.88,16.32,9.88,28.73v59.5h7.27v-59.5c0-14.38-3.9-25.51-11.7-33.39-7.8-7.87-18.89-11.81-33.27-11.81Z"/><path class="cls-8" d="M3598.38,3652.99c-3.63-7.57-8.63-14-14.99-19.3-6.36-5.3-13.63-8.93-21.8-10.9,5.91-3.18,10.52-7.34,13.85-12.49,3.33-5.15,5-10.9,5-17.26s-1.59-11.96-4.77-17.26c-3.18-5.3-7.49-9.46-12.95-12.49-5.45-3.03-11.36-4.54-17.71-4.54s-12.26,1.52-17.71,4.54c-5.45,3.03-9.77,7.19-12.95,12.49-3.18,5.3-4.77,11.05-4.77,17.26,0,6.66,1.82,12.64,5.45,17.94,3.63,5.3,8.33,9.39,14.08,12.26-11.96,3.63-21.77,10.45-29.41,20.44-7.65,9.99-11.47,21.2-11.47,33.61,0,10.15,2.61,19.61,7.84,28.39,5.22,8.78,12.26,15.78,21.12,21.01,8.86,5.22,18.51,7.84,28.96,7.84s20.1-2.58,28.96-7.72,15.86-12.11,21.01-20.89c5.15-8.78,7.72-18.32,7.72-28.62,0-8.63-1.82-16.73-5.45-24.3Zm-77.44-46.56c-2.58-4.24-3.86-8.78-3.86-13.63s1.28-9.39,3.86-13.63c2.57-4.24,6.02-7.61,10.33-10.11,4.31-2.5,8.89-3.75,13.74-3.75s9.43,1.25,13.74,3.75c4.32,2.5,7.76,5.87,10.33,10.11,2.57,4.24,3.86,8.78,3.86,13.63s-1.29,9.39-3.86,13.63c-2.58,4.24-6.02,7.65-10.33,10.22-4.31,2.58-8.9,3.86-13.74,3.86s-9.43-1.28-13.74-3.86c-4.32-2.57-7.76-5.98-10.33-10.22Zm68.59,96.3c-4.54,7.72-10.67,13.85-18.4,18.4-7.72,4.54-16.05,6.81-24.98,6.81s-17.3-2.27-25.1-6.81c-7.8-4.54-13.97-10.71-18.51-18.51-4.54-7.8-6.81-16.16-6.81-25.1s2.31-17.3,6.93-25.1c4.62-7.8,10.82-13.97,18.62-18.51,7.8-4.54,16.16-6.81,25.1-6.81s17.22,2.27,24.87,6.81c7.64,4.54,13.74,10.71,18.28,18.51,4.54,7.8,6.81,16.16,6.81,25.1s-2.27,17.49-6.81,25.21Z"/></g><g><path class="cls-3" d="M2323.29,2713.1h-21.25c-8.2,0-13.05,4.47-13.05,12.67v244.14c0,8.2,4.85,13.05,13.05,13.05h21.25c8.2,0,13.05-4.85,13.05-13.05v-244.14c0-8.2-4.84-12.67-13.05-12.67Z"/><path class="cls-3" d="M2492.88,2713.1h-18.64c-8.2,0-13.05,4.47-13.05,12.67v95.05l4.85,63.37-3.36,.37-16.4-61.5-30.94-100.27c-1.86-5.59-5.22-9.69-13.05-9.69h-23.11c-8.2,0-13.05,4.47-13.05,12.67v244.14c0,8.2,4.85,13.05,13.05,13.05h18.64c8.2,0,12.67-4.85,12.67-13.05v-94.67l-4.85-63.37,3.35-.37,16.4,61.5,30.94,100.27c2.23,5.59,5.22,9.69,13.05,9.69h23.48c8.2,0,12.67-4.85,12.67-13.05v-244.14c0-8.2-4.47-12.67-12.67-12.67Z"/><path class="cls-3" d="M2656.13,2713.1h-122.63c-8.2,0-13.05,4.47-13.05,12.67v10.81c0,8.2,4.85,13.04,13.05,13.04h37.65v220.29c0,8.2,4.84,13.05,13.05,13.05h21.24c8.2,0,13.05-4.85,13.05-13.05v-220.29h37.65c8.2,0,13.05-4.84,13.05-13.04v-10.81c0-8.2-4.84-12.67-13.05-12.67Z"/><path class="cls-3" d="M2787.7,2749.62c8.2,0,13.05-4.84,13.05-13.04v-10.81c0-8.2-4.85-12.67-13.05-12.67h-90.57c-8.2,0-13.05,4.47-13.05,12.67v244.14c0,8.2,4.84,13.05,13.05,13.05h90.57c8.2,0,13.05-4.85,13.05-13.05v-10.81c0-8.2-4.85-12.67-13.05-12.67h-56.28v-80.14h42.12c8.2,0,13.05-4.84,13.05-13.04v-10.81c0-8.2-4.85-12.67-13.05-12.67h-42.12v-80.14h56.28Z"/><path class="cls-3" d="M2962.51,2964.69l-36.9-97.66c20.87-8.2,29.44-25.72,29.44-52.18v-42.49c0-39.88-21.62-59.26-69.7-59.26h-52.93c-8.2,0-13.05,4.47-13.05,12.67v244.14c0,8.2,4.85,13.05,13.05,13.05h21.25c8.2,0,13.05-4.85,13.05-13.05v-95.42h12.3l36.53,99.89c1.86,5.59,5.96,8.58,12.67,8.58h22.74c12.3,0,14.16-11.56,11.56-18.27Zm-54.42-149.84c0,13.79-6.33,23.11-22.74,23.11h-18.64v-88.34h18.64c16.4,0,22.74,9.32,22.74,22.74v42.49Z"/><path class="cls-3" d="M3111.6,2713.1h-18.64c-8.2,0-13.05,4.47-13.05,12.67v95.05l4.84,63.37-3.35,.37-16.4-61.5-30.94-100.27c-1.86-5.59-5.22-9.69-13.05-9.69h-23.11c-8.2,0-13.05,4.47-13.05,12.67v244.14c0,8.2,4.85,13.05,13.05,13.05h18.63c8.2,0,12.67-4.85,12.67-13.05v-94.67l-4.84-63.37,3.35-.37,16.4,61.5,30.94,100.27c2.24,5.59,5.22,9.69,13.05,9.69h23.48c8.2,0,12.67-4.85,12.67-13.05v-244.14c0-8.2-4.47-12.67-12.67-12.67Z"/><path class="cls-3" d="M3292,2967.3l-36.9-241.9c-1.12-8.95-5.59-12.3-13.05-12.3h-48.46c-7.46,0-12.3,3.35-13.42,12.3l-36.9,241.9c-1.49,8.95,2.98,15.66,12.3,15.66h20.13c6.34,0,11.93-2.98,13.05-11.56l5.22-41.75h47.34l5.59,41.75c.74,8.57,6.71,11.56,12.67,11.56h20.13c9.32,0,13.79-6.34,12.3-15.66Zm-93.56-74.18l7.83-57.4,9.69-90.2h3.36l9.69,90.2,7.45,57.4h-38.02Z"/><path class="cls-3" d="M3413.14,2713.1h-122.63c-8.2,0-13.05,4.47-13.05,12.67v10.81c0,8.2,4.84,13.04,13.05,13.04h37.65v220.29c0,8.2,4.84,13.05,13.05,13.05h21.25c8.2,0,13.05-4.85,13.05-13.05v-220.29h37.65c8.2,0,13.05-4.84,13.05-13.04v-10.81c0-8.2-4.84-12.67-13.05-12.67Z"/><path class="cls-3" d="M3475.38,2713.1h-21.25c-8.2,0-13.05,4.47-13.05,12.67v244.14c0,8.2,4.85,13.05,13.05,13.05h21.25c8.2,0,13.05-4.85,13.05-13.05v-244.14c0-8.2-4.85-12.67-13.05-12.67Z"/><path class="cls-3" d="M3586.45,2711.23c-46.97,0-68.21,19.01-68.21,57.77v158.04c0,38.76,21.25,57.78,68.21,57.78s68.58-19.01,68.58-57.78v-158.04c0-38.76-21.62-57.77-68.58-57.77Zm21.25,215.81c0,12.67-5.96,21.25-21.25,21.25s-20.87-8.57-20.87-21.25v-158.04c0-12.67,5.59-21.25,20.87-21.25s21.25,8.58,21.25,21.25v158.04Z"/><path class="cls-3" d="M3811.58,2713.1h-18.64c-8.2,0-13.04,4.47-13.04,12.67v95.05l4.85,63.37-3.36,.37-16.4-61.5-30.94-100.27c-1.86-5.59-5.22-9.69-13.04-9.69h-23.11c-8.2,0-13.05,4.47-13.05,12.67v244.14c0,8.2,4.84,13.05,13.05,13.05h18.64c8.2,0,12.67-4.85,12.67-13.05v-94.67l-4.84-63.37,3.35-.37,16.4,61.5,30.94,100.27c2.24,5.59,5.22,9.69,13.05,9.69h23.48c8.2,0,12.67-4.85,12.67-13.05v-244.14c0-8.2-4.47-12.67-12.67-12.67Z"/><path class="cls-3" d="M3991.98,2967.3l-36.9-241.9c-1.12-8.95-5.59-12.3-13.04-12.3h-48.46c-7.45,0-12.3,3.35-13.42,12.3l-36.9,241.9c-1.49,8.95,2.98,15.66,12.3,15.66h20.13c6.34,0,11.93-2.98,13.05-11.56l5.22-41.75h47.34l5.59,41.75c.74,8.57,6.71,11.56,12.67,11.56h20.13c9.32,0,13.79-6.34,12.3-15.66Zm-93.56-74.18l7.83-57.4,9.69-90.2h3.35l9.69,90.2,7.45,57.4h-38.02Z"/><path class="cls-3" d="M4114.61,2946.43h-56.28v-220.66c0-8.2-4.84-12.67-13.05-12.67h-21.25c-8.2,0-13.05,4.47-13.05,12.67v244.14c0,8.2,4.85,13.05,13.05,13.05h90.57c8.2,0,13.04-4.85,13.04-13.05v-10.81c0-8.2-4.84-12.67-13.04-12.67Z"/></g><g><g><path class="cls-4" d="M2317.67,3069.41h-26.12c-9.45,0-18.34,4.45-18.9,17.22l-18.9,210.08-7.22,114.48h-4.45l-5-114.48-17.78-210.08c-1.12-13.33-10-17.22-19.45-17.22h-50.02c-9.45,0-18.34,4.45-19.45,17.22l-17.78,210.08-5,114.48h-5.01l-6.67-114.48-18.89-210.08c-1.11-13.33-10-17.22-18.9-17.22h-26.12c-13.34,0-19.45,9.45-18.34,23.34l39.46,360.68c1.67,13.34,8.89,18.34,20.01,18.34h60.02c11.12,0,18.9-5,19.45-18.34l15.56-205.07,4.45-101.7h4.45l4.45,101.7,15.01,205.07c1.11,13.34,8.89,18.34,20.01,18.34h60.02c11.12,0,18.34-5,19.45-18.34l40.01-360.68c1.11-13.89-5-23.34-18.34-23.34Z"/><path class="cls-4" d="M2499.67,3066.64c-82.4,0-119.68,28.34-119.68,86.14v235.64c0,57.8,37.28,86.14,119.68,86.14,27.73,0,50.42-3.21,68.32-9.67,35.31-12.74,52-38.12,52-76.47v-235.64c0-57.8-37.93-86.14-120.33-86.14Zm37.27,321.78c0,18.9-10.46,31.67-37.27,31.67s-36.62-12.78-36.62-31.67v-235.64c0-18.9,9.81-31.68,36.62-31.68s37.27,12.78,37.27,31.68v235.64Z"/><path class="cls-4" d="M2921.73,3069.41h-54.47c-12.23,0-18.34,6.11-20.01,18.34l-23.34,119.49-12.78,95.03h-5l-13.34-95.03-22.79-119.49c-2.22-12.23-7.78-18.34-20.01-18.34h-54.46c-12.23,0-19.45,6.67-19.45,18.9v364.01c0,12.23,7.22,19.45,19.45,19.45h23.34c12.22,0,19.45-7.22,19.45-19.45v-191.73l-5-78.36h4.45l32.79,198.4c1.67,8.89,7.78,15.01,19.45,15.01h37.24c11.67,0,17.78-6.11,18.89-15.01l33.35-198.4h4.45l-5,78.36v191.73c0,12.23,7.22,19.45,19.45,19.45h23.34c12.22,0,19.45-7.22,19.45-19.45v-364.01c0-12.23-7.78-18.9-19.45-18.9Z"/><path class="cls-4" d="M3140.13,3123.88c12.23,0,19.45-7.22,19.45-19.45v-16.11c0-12.23-7.22-18.9-19.45-18.9h-135.04c-12.23,0-19.45,6.67-19.45,18.9v364.01c0,12.23,7.23,19.45,19.45,19.45h135.04c12.23,0,19.45-7.22,19.45-19.45v-16.12c0-12.23-7.22-18.9-19.45-18.9h-83.92v-119.48h62.8c12.23,0,19.45-7.22,19.45-19.45v-16.12c0-12.23-7.23-18.9-19.45-18.9h-62.8v-119.49h83.92Z"/><path class="cls-4" d="M3376.31,3069.41h-27.78c-12.23,0-19.45,6.67-19.45,18.9v141.71l7.23,94.48-5,.56-24.45-91.7-46.12-149.49c-2.78-8.34-7.78-14.45-19.45-14.45h-34.46c-12.23,0-19.45,6.67-19.45,18.9v364.01c0,12.23,7.22,19.45,19.45,19.45h27.79c12.23,0,18.9-7.22,18.9-19.45v-141.16l-7.23-94.48,5.01-.56,24.45,91.7,46.13,149.5c3.33,8.34,7.78,14.45,19.45,14.45h35.01c12.23,0,18.9-7.22,18.9-19.45v-364.01c0-12.23-6.67-18.9-18.9-18.9Z"/><path class="cls-4" d="M3490.24,3069.41h-31.12c-12.23,0-20.01,6.67-18.89,18.9l10.56,118.93c.56,12.22,6.67,18.89,18.9,18.89h10.56c12.23,0,18.34-6.67,18.9-18.89l10.56-118.93c.56-12.23-7.23-18.9-19.45-18.9Z"/><path class="cls-4" d="M3703.08,3215.57h32.23c12.23,0,18.9-6.67,18.9-18.89v-43.91c0-57.8-31.67-86.14-101.7-86.14s-101.7,28.34-101.7,86.14c0,53.91,7.23,80.03,42.23,111.15l62.8,56.68c23.9,21.67,28.34,36.68,28.34,67.8,0,18.9-8.89,31.67-31.67,31.67s-31.67-12.78-31.67-31.67v-43.91c0-12.23-6.67-19.45-18.9-19.45h-32.23c-12.22,0-18.89,7.22-18.89,19.45v43.91c0,57.8,31.68,86.14,101.7,86.14s101.7-28.34,101.7-86.14c0-53.91-7.78-80.03-42.79-111.15l-62.25-56.69c-23.9-21.67-28.34-36.68-28.34-67.8,0-18.9,8.89-31.68,31.67-31.68s31.67,12.78,31.67,31.68v43.91c0,12.22,6.67,18.89,18.9,18.89Z"/></g><g><path class="cls-1" d="M3965.49,3088.6h-75.7c-11.73,0-18.66,6.4-18.66,18.12v349.17c0,11.73,6.93,18.66,18.66,18.66h75.7c68.76,0,99.68-27.72,99.68-85.29v-215.9c0-57.04-30.92-84.76-99.68-84.76Zm32.52,300.66c0,19.72-9.06,33.05-32.52,33.05h-26.65v-281.46h26.65c23.45,0,32.52,13.33,32.52,32.52v215.9Z"/><path class="cls-1" d="M4305.05,3452.16l-52.78-345.97c-1.6-12.79-8-17.59-18.66-17.59h-69.3c-10.66,0-17.59,4.8-19.19,17.59l-52.77,345.97c-2.13,12.79,4.26,22.39,17.59,22.39h28.78c9.06,0,17.06-4.26,18.66-16.53l7.46-59.7h67.7l8,59.7c1.07,12.26,9.59,16.53,18.12,16.53h28.79c13.33,0,19.73-9.06,17.6-22.39Zm-133.8-106.08l11.19-82.1,13.86-129h4.79l13.86,129,10.66,82.1h-54.37Z"/><path class="cls-1" d="M4483.1,3088.6h-28.78c-7.46,0-15.46,3.2-18.12,12.79l-23.45,86.36-14.93,77.29h-4.26l-15.46-77.29-22.92-86.36c-2.67-9.59-10.66-12.79-18.13-12.79h-28.78c-15.99,0-20.79,12.79-17.06,25.59l70.9,221.76v119.95c0,11.73,6.4,18.66,18.12,18.66h30.92c11.73,0,18.12-6.93,18.12-18.66v-119.95l70.37-221.76c4.26-12.79-.53-25.59-16.53-25.59Z"/></g></g></g><g><rect class="cls-7" x="5000" width="5000" height="5000"/><rect class="cls-4" x="6621" y="3018.15" width="2963.45" height="504.88"/><g><path class="cls-4" d="M9472.09,2586.48c-2.77,.54-80.35,15.27-129.28,117.31,1.2,2.01,71.53-47.33,129.28-117.31Z"/><path class="cls-4" d="M9317.88,2625.03s-38.77,45.77-7.19,118.17c0,0,3.51-60.92,7.19-118.17Z"/><path class="cls-4" d="M9210.73,2714.97s-28.5,59.45,31.88,128.58c0,0-16.66-66.24-31.88-128.58Z"/><path class="cls-4" d="M9279.8,2642.14c4.96-5.68-39.05,47.28-5.85,150.81,0,0,2.77-77.75,5.85-150.81Z"/><path class="cls-4" d="M9137.85,2821.7c3.26-6.48-24.96,53.41,38.32,142.9,0,0-20-73.62-38.32-142.9Z"/><path class="cls-4" d="M9199.51,2795.6c3.6-5.13-28.24,42.34,2.91,116.34,0,0-1.69-59.95-2.91-116.34Z"/><path class="cls-4" d="M9215.83,2884.77c-6.26-.98,51.37,6.86,124.71-49.7,0,0-64.21,25.77-124.71,49.7Z"/><path class="cls-4" d="M9257.04,2818.12c-5.76-2.18,47.74,16.48,141.83-35.38,0,0-73.1,18.42-141.83,35.38Z"/><path class="cls-4" d="M9184.22,2945.9c-5.76-2.18,47.74,16.48,141.83-35.38,0,0-73.1,18.42-141.83,35.38Z"/><path class="cls-4" d="M9403.68,2709.15s-26.78,51.4-117.35,66.45c0,0,60.6-34.12,117.35-66.45Z"/><path class="cls-4" d="M9360.28,2687.87c-6.43,5.84-12.45,12.39-18.42,18.84l-8.76,9.91-8.49,10.16c-2.87,3.35-5.56,6.85-8.3,10.31-2.72,3.47-5.49,6.91-8.18,10.41l-7.91,10.62-3.96,5.31-1.98,2.65-1.91,2.71c-5.06,7.24-10.21,14.41-15.19,21.7l-14.65,22.08c-4.8,7.41-9.4,14.96-14.11,22.43-2.32,3.76-4.74,7.45-6.97,11.27l-6.73,11.41c-18.2,30.29-34.75,61.54-51,92.91-2.09,3.89-3.94,7.91-5.91,11.86l-5.84,11.9-11.67,23.8-22.16,48.16-.03,.07c-.78,1.69-2.78,2.43-4.46,1.65-1.69-.78-2.43-2.78-1.65-4.46v-.02s22.64-48.12,22.64-48.12l11.9-23.78,5.95-11.89c2.01-3.95,3.9-7.96,6.03-11.85,16.57-31.34,33.43-62.54,51.94-92.79l6.85-11.4c2.26-3.81,4.73-7.5,7.09-11.25,4.79-7.46,9.47-14.99,14.35-22.39l14.89-22.04c5.07-7.27,10.3-14.44,15.44-21.66l1.94-2.7,2.01-2.65,4.02-5.3,8.04-10.6c2.73-3.49,5.54-6.93,8.31-10.4,2.78-3.45,5.51-6.95,8.43-10.3l8.62-10.14,8.9-9.91c6.1-6.48,12.12-12.95,18.84-18.96,.67-.6,1.69-.54,2.29,.13,.59,.66,.54,1.68-.12,2.28l-.04,.04Z"/></g><g><path class="cls-4" d="M5415.55,2235.98c5.19,.69,150.64,19.29,252.79,202.93-2,3.85-137.89-79.7-252.79-202.93Z"/><path class="cls-4" d="M5705.71,2290.13s77,80.48,26.6,218.21c0,0-13.35-112.52-26.6-218.21Z"/><path class="cls-4" d="M5914.41,2444.81s59.51,106.99-44.66,241.91c0,0,23.43-124.65,44.66-241.91Z"/><path class="cls-4" d="M5778.21,2317.56c-9.82-9.97,77.69,83.24,27.77,278.87,0,0-13.86-143.81-27.77-278.87Z"/><path class="cls-4" d="M6061.47,2634.45c-6.77-11.64,52.25,96.19-54.98,269.17,0,0,28.81-138.7,54.98-269.17Z"/><path class="cls-4" d="M5944.26,2592.99c-7.25-9.1,57.09,75.31,7.66,215.97,0,0-3.59-111.3-7.66-215.97Z"/><path class="cls-4" d="M5924.03,2760.1c11.49-2.52-94.45,18.48-236.72-78.11,0,0,121.92,40.56,236.72,78.11Z"/><path class="cls-4" d="M5840.16,2641.19c10.43-4.68-86.63,35.91-266.86-49.65,0,0,137.57,25.94,266.86,49.65Z"/><path class="cls-4" d="M5989.48,2869.87c10.43-4.68-86.63,35.91-266.86-49.65,0,0,137.57,25.94,266.86,49.65Z"/><path class="cls-4" d="M5556.12,2455.69s55.4,92.27,224.97,110c0,0-116.15-56.44-224.97-110Z"/><path class="cls-4" d="M5634.17,2411.37c12.58,10.1,24.47,21.56,36.25,32.86l17.35,17.39,16.87,17.87c5.69,5.89,11.07,12.08,16.54,18.18,5.44,6.13,10.95,12.2,16.33,18.38l15.86,18.8,7.93,9.4,3.96,4.7,3.84,4.8c10.19,12.85,20.53,25.57,30.6,38.52l29.63,39.27c9.73,13.2,19.11,26.67,28.68,39.99,4.71,6.71,9.63,13.28,14.18,20.1l13.76,20.4c37.13,54.11,71.31,110.17,104.97,166.49,4.32,6.98,8.19,14.22,12.29,21.32l12.15,21.4,24.3,42.8,46.49,86.77,.07,.13c1.63,3.04,5.42,4.19,8.46,2.56,3.04-1.63,4.19-5.42,2.56-8.46l-.02-.04-47.34-86.65-24.72-42.74-12.37-21.36c-4.18-7.09-8.12-14.31-12.51-21.28-34.23-56.23-68.98-112.17-106.68-166.17l-13.97-20.36c-4.62-6.81-9.61-13.36-14.4-20.06-9.71-13.29-19.24-26.72-29.11-39.89l-30.07-39.18c-10.21-12.91-20.7-25.61-31.04-38.42l-3.89-4.79-4.02-4.69-8.04-9.38-16.08-18.75c-5.46-6.17-11.05-12.22-16.56-18.34-5.55-6.09-11-12.26-16.78-18.14l-17.11-17.83-17.61-17.36c-12.03-11.33-23.91-22.64-37.05-33.02-1.3-1.03-3.2-.81-4.23,.5-1.02,1.3-.81,3.18,.48,4.21l.08,.07Z"/></g><g><path class="cls-1" d="M6130.35,3427.25c1.12-.02,2.23-.54,2.97-1.5,1.28-1.68,.96-4.08-.72-5.36-118.17-90.21-192.07-185.72-233.26-249.96-44.64-69.62-61.55-118.54-61.71-119.03-.68-2-2.85-3.07-4.85-2.39-2,.68-3.07,2.85-2.39,4.85,.17,.49,17.28,50.09,62.35,120.43,41.53,64.83,116.06,161.2,235.22,252.17,.71,.54,1.56,.8,2.39,.78Z"/><g><path class="cls-1" d="M5745.76,2907.74c13.6,21.53,27.05,43.17,40.27,64.93,13.16,21.78,26.36,43.62,38.24,66.02,1.39,2.82,2.95,5.62,4.19,8.46l1.91,4.26c.32,.76,.64,1.55,1.07,2.39,.25,.44,.43,.84,1,1.49,.09,.09,.14,.15,.26,.26,.14,.12,.29,.23,.44,.33,.19,.12,.55,.28,.84,.34,.37,.09,.98,.07,1.38-.08,.96-.37,1.25-.91,1.46-1.22,.08-.14,.15-.28,.21-.43l.11-.31c.38-1.42,.31-2.13,.36-3.05,.01-.87-.01-1.69-.05-2.52-.07-1.65-.19-3.26-.33-4.87-.28-3.21-.63-6.4-1-9.58-1.53-12.71-3.41-25.32-5.33-37.93-3.89-25.21-8.09-50.35-12.46-75.48-.3-1.72-1.94-2.87-3.66-2.57-1.72,.3-2.87,1.94-2.57,3.66,0,0,0,.02,0,.02v.03c4.68,25.02,9.21,50.09,13.41,75.19,2.08,12.55,4.12,25.12,5.79,37.69,.41,3.14,.8,6.28,1.11,9.41,.15,1.56,.29,3.12,.37,4.66,.04,.77,.07,1.53,.07,2.26,.01,.67-.06,1.56-.11,1.69v-.03c.03-.06,.06-.11,.09-.16,.11-.14,.27-.52,1.04-.81,.31-.12,.81-.14,1.09-.06,.2,.03,.46,.15,.57,.23,.07,.04,.14,.09,.2,.14l.06,.05c.04,.06-.18-.25-.31-.5-.31-.57-.6-1.25-.9-1.96l-2.05-4.44c-1.35-2.98-2.94-5.73-4.4-8.6-12.29-22.47-25.75-44.1-39.22-65.75-13.51-21.62-27.24-43.08-41.13-64.46-.36-.56-1.11-.72-1.66-.35-.55,.36-.71,1.1-.36,1.66Z"/><path class="cls-1" d="M5737.94,2984.96c15.32,11.27,30.58,22.62,45.76,34.07,7.58,5.73,15.14,11.49,22.63,17.32,3.74,2.91,7.47,5.85,11.13,8.82,1.83,1.49,3.65,2.98,5.41,4.5,.88,.76,1.75,1.52,2.57,2.28l1.16,1.12,.47,.5,.17,.2s0,.02,.01,.02l3.8-5.9-159.27-23.83c-.65-.1-1.25,.35-1.35,1-.1,.63,.33,1.23,.96,1.34l158.4,29.04,9.15,1.68-5.34-7.57h0s-.53-.69-.53-.69l-.43-.46c-.28-.29-.53-.52-.78-.77-.5-.46-.98-.88-1.47-1.29-.96-.81-1.92-1.57-2.88-2.33-1.91-1.5-3.83-2.94-5.76-4.37-3.85-2.85-7.73-5.64-11.62-8.4-7.78-5.52-15.6-10.96-23.44-16.36-15.68-10.8-31.44-21.47-47.25-32.07-.61-.41-1.43-.24-1.83,.36-.39,.59-.25,1.39,.32,1.8Z"/><path class="cls-1" d="M5832.86,3049.7l-92.63,32.82c-.27,.1-.41,.4-.32,.67,.09,.26,.37,.4,.63,.33l94.63-26.53c2.03-.57,3.22-2.68,2.65-4.71-.57-2.03-2.68-3.22-4.71-2.65-.08,.02-.17,.05-.24,.08Z"/><ellipse class="cls-1" cx="5816.55" cy="2917.59" rx="16.93" ry="15.29" transform="translate(-188.96 5423.28) rotate(-49.29)"/><ellipse class="cls-1" cx="5739.42" cy="2984.5" rx="11.64" ry="10.51" transform="translate(-266.49 5388.09) rotate(-49.29)"/><ellipse class="cls-1" cx="5737.59" cy="3084.8" rx="11.64" ry="10.51" transform="translate(-343.15 5421.58) rotate(-49.29)"/><ellipse class="cls-1" cx="5743.77" cy="2900.32" rx="16.93" ry="15.29" transform="translate(-201.17 5362.11) rotate(-49.29)"/><ellipse class="cls-1" cx="5663.01" cy="3022.01" rx="16.93" ry="15.29" transform="translate(-321.49 5343.21) rotate(-49.29)"/></g><g><path class="cls-1" d="M5749.54,3155.88c16.83,12.34,33.58,24.8,50.18,37.44,16.56,12.67,33.18,25.37,48.86,38.94,1.9,1.73,3.92,3.41,5.66,5.22,.92,.92,1.76,1.71,2.75,2.74,.55,.53,.94,1,1.94,1.64,.32,.13,.5,.45,1.77,.47,.26,0,.74-.11,1.16-.37,.41-.25,.65-.55,.88-.91,.16-.29,.21-.48,.28-.73,.05-.23,.05-.31,.07-.47,.02-1-.13-1.28-.23-1.73-.45-1.55-.99-2.73-1.54-3.99-.55-1.23-1.12-2.43-1.71-3.62-1.17-2.37-2.38-4.71-3.6-7.03-4.91-9.27-10.06-18.37-15.24-27.46-10.39-18.15-20.98-36.14-31.71-54.09-.9-1.5-2.84-1.99-4.34-1.09-1.5,.9-1.99,2.84-1.09,4.34,0,0,.01,.02,.02,.03v.02c10.99,17.73,21.86,35.55,32.5,53.48,5.3,8.97,10.58,17.97,15.58,27.07,1.25,2.28,2.47,4.56,3.65,6.85,.58,1.15,1.15,2.29,1.69,3.44,.52,1.12,1.06,2.33,1.34,3.28,.07,.18,.09,.54,.09,.19,0-.08,0-.08,.04-.23,.04-.18,.08-.28,.2-.5,.17-.31,.38-.52,.71-.74,.35-.22,.75-.29,.93-.3,.94,.03,.82,.19,.86,.15-.11-.05-.65-.51-1.03-.9-.83-.85-1.9-1.84-2.84-2.75-1.92-1.92-3.95-3.55-5.93-5.3-16.11-13.51-32.9-25.91-49.7-38.35-16.82-12.39-33.77-24.6-50.81-36.68-.54-.38-1.29-.26-1.68,.29-.38,.54-.25,1.28,.27,1.67Z"/><path class="cls-1" d="M5766.77,3218.33c14.96,3.79,29.91,7.65,44.81,11.63,7.45,1.99,14.89,4.01,22.29,6.11,3.7,1.05,7.39,2.12,11.05,3.24,1.83,.56,3.64,1.13,5.42,1.73,.88,.3,1.76,.61,2.6,.92l1.18,.48,.46,.22,.15,.08s-.05-.01-.07-.03l1.26-6.86-127.66,33.99c-.63,.17-1.01,.82-.84,1.45,.16,.62,.79,.99,1.4,.85l128.91-28.87,8.71-1.95-7.45-4.91h0c-.22-.14-.46-.28-.69-.4l-.5-.23c-.32-.14-.58-.24-.87-.35-.53-.2-1.04-.37-1.54-.53-.99-.32-1.95-.59-2.91-.86-1.91-.53-3.81-1.02-5.7-1.49-3.79-.94-7.56-1.81-11.34-2.67-7.56-1.71-15.11-3.33-22.68-4.92-15.13-3.18-30.27-6.23-45.43-9.21-.72-.14-1.41,.33-1.55,1.04-.14,.69,.3,1.37,.98,1.54Z"/><path class="cls-1" d="M5800.44,3296.19l61.01-54.86-1.06,.49c12.97-2.27,26.02-4.35,39.09-6.11,6.54-.87,13.08-1.67,19.64-2.25,3.28-.29,6.56-.52,9.84-.62,1.64-.04,3.28-.05,4.9,.03,1.6,.1,3.3,.22,4.63,.81l.05,.02c.26,.12,.57,0,.69-.27,.11-.26,0-.56-.25-.68-1.68-.81-3.36-.93-5.03-1.13-1.67-.15-3.34-.21-5-.23-3.33-.04-6.64,.06-9.96,.21-6.62,.32-13.22,.85-19.81,1.46-13.18,1.24-26.32,2.78-39.45,4.53l-.56,.07-.51,.42-63.2,52.32c-1.63,1.35-1.85,3.75-.51,5.38,1.35,1.63,3.75,1.85,5.38,.51,.04-.03,.08-.07,.12-.1Z"/><ellipse class="cls-1" cx="5806.27" cy="3140.24" rx="14.29" ry="12.41" transform="translate(984.78 7648.8) rotate(-71.49)"/><ellipse class="cls-1" cx="5767.79" cy="3217.28" rx="9.82" ry="8.53" transform="translate(885.47 7664.89) rotate(-71.49)"/><ellipse class="cls-1" cx="5796.36" cy="3295.59" rx="9.82" ry="8.53" transform="translate(830.71 7745.42) rotate(-71.49)"/><ellipse class="cls-1" cx="5745.95" cy="3150.64" rx="14.29" ry="12.41" transform="translate(933.75 7598.7) rotate(-71.49)"/><ellipse class="cls-1" cx="5721.08" cy="3271.32" rx="14.29" ry="12.41" transform="translate(802.34 7657.47) rotate(-71.49)"/></g><g><path class="cls-1" d="M6003.73,2991.68c-8.78,18.93-17.7,37.81-26.82,56.57-9.16,18.73-18.34,37.53-28.56,55.57-1.33,2.2-2.57,4.51-4,6.58-.72,1.08-1.33,2.07-2.14,3.23-.41,.64-.79,1.12-1.23,2.22-.06,.34-.34,.58-.11,1.83,.05,.26,.25,.7,.59,1.07,.32,.36,.67,.53,1.07,.68,.32,.1,.51,.11,.77,.13,.23,0,.31-.01,.47-.03,.99-.18,1.23-.38,1.65-.57,1.43-.75,2.49-1.51,3.61-2.29,1.1-.78,2.16-1.58,3.21-2.39,2.1-1.61,4.15-3.26,6.18-4.92,8.12-6.64,16.03-13.48,23.92-20.35,15.75-13.76,31.3-27.69,46.79-41.74,1.29-1.17,1.39-3.17,.22-4.47-1.17-1.29-3.17-1.39-4.47-.22,0,0-.02,.01-.02,.02l-.02,.02c-15.22,14.25-30.55,28.42-46.04,42.38-7.75,6.97-15.54,13.91-23.47,20.61-1.99,1.67-3.98,3.32-6,4.92-1.01,.8-2.02,1.58-3.04,2.33-1,.73-2.08,1.49-2.96,1.96-.16,.11-.51,.2-.17,.12,.08,0,.08,0,.23,0,.19,0,.29,.02,.53,.09,.34,.1,.58,.27,.87,.55,.29,.3,.43,.68,.48,.85,.16,.93-.02,.84,.02,.88,.03-.12,.38-.74,.68-1.18,.67-.98,1.43-2.23,2.13-3.33,1.5-2.26,2.7-4.57,4.03-6.86,10.07-18.46,18.92-37.36,27.82-56.27,8.84-18.93,17.47-37.95,25.96-57.04,.27-.61,0-1.32-.61-1.59-.6-.27-1.31,0-1.58,.6Z"/><path class="cls-1" d="M5945.9,3020.87c-.77,15.41-1.62,30.83-2.58,46.22-.49,7.7-1,15.39-1.6,23.06-.3,3.83-.62,7.67-1,11.47-.19,1.9-.39,3.79-.63,5.65-.12,.93-.25,1.85-.39,2.73l-.24,1.25-.12,.49-.05,.16s0-.05,.02-.07h0s6.97-.12,6.97-.12l-58.46-118.46c-.29-.59-1-.83-1.59-.54-.57,.28-.81,.97-.56,1.54l53.69,120.7,3.63,8.15,3.34-8.27h0c.09-.25,.18-.51,.26-.76l.13-.54c.08-.34,.12-.62,.18-.92,.09-.56,.16-1.09,.22-1.61,.12-1.03,.2-2.03,.27-3.02,.14-1.98,.25-3.93,.34-5.88,.17-3.9,.29-7.77,.39-11.64,.19-7.74,.29-15.47,.36-23.2,.13-15.46,.15-30.9,.09-46.35,0-.73-.6-1.32-1.33-1.32-.7,0-1.28,.56-1.32,1.26Z"/><path class="cls-1" d="M5876.2,3069.21l65.74,49.09-.71-2.56c-5.01,13.93-9.92,27.89-14.69,41.91-2.38,7.01-4.72,14.03-6.95,21.09-1.12,3.53-2.21,7.07-3.22,10.64-.51,1.78-1,3.58-1.43,5.39-.22,.91-.42,1.82-.59,2.74-.08,.46-.16,.93-.21,1.42-.02,.24-.04,.49-.04,.75,.02,.27-.02,.52,.21,.96,.14,.25,.45,.35,.71,.21,.25-.14,.35-.45,.21-.71,0-.01-.01-.03-.02-.04l-.02-.04s-.03-.64,.04-1.02c.06-.43,.15-.88,.25-1.32,.2-.88,.43-1.77,.68-2.65,.5-1.77,1.05-3.52,1.62-5.27,1.15-3.5,2.37-6.99,3.61-10.46,2.5-6.95,5.1-13.86,7.74-20.76,5.29-13.8,10.74-27.55,16.27-41.24l.6-1.5-1.32-1.07-63.8-51.59c-1.64-1.33-4.05-1.07-5.37,.57-1.33,1.64-1.07,4.05,.57,5.37,.03,.03,.08,.06,.12,.09Z"/><ellipse class="cls-1" cx="6030.24" cy="3044.22" rx="12.41" ry="14.29" transform="translate(2258.26 8648.07) rotate(-82.84)"/><ellipse class="cls-1" cx="5947.13" cy="3021.66" rx="8.53" ry="9.82" transform="translate(2207.88 8545.87) rotate(-82.84)"/><ellipse class="cls-1" cx="5875.98" cy="3065.09" rx="8.53" ry="9.82" transform="translate(2102.51 8513.29) rotate(-82.84)"/><ellipse class="cls-1" cx="6008.16" cy="2987.13" rx="12.41" ry="14.29" transform="translate(2295.58 8576.19) rotate(-82.84)"/><ellipse class="cls-1" cx="5884.95" cy="2986.5" rx="12.41" ry="14.29" transform="translate(2188.34 8453.4) rotate(-82.84)"/></g></g><path class="cls-1" d="M7202.81,2345.54c-65.1,33.96-33.97,79.25-28.31,87.74,5.67,8.49,16.98,39.62-19.81,56.61,0,0,22.65,28.3-2.83,59.43-25.47,31.13-22.64,39.63-22.64,62.27s19.81,107.55-33.97,135.85c-53.77,28.3-189.62,28.3-268.87,25.47-79.24-2.83-135.85,84.9-150,130.19-8.11,25.97-23.67,73.34-33.87,116.5-7.59,32.1-12.21,61.88-8.59,78.78,5.18,24.2,20.13,249.43,106.95,426.1h-835.87c50.84-138.3,115.63-347.18,129.39-386.03,14.28-40.29,28.17-80.92,40.98-118.85,17.05-50.44,32.19-96.14,43.77-129.98,7.82-22.88,14.02-40.34,18.08-50.2,19.8-48.12,73.58-283.02,0-356.61-73.59-73.59-249.06-266.04-280.2-486.81-31.13-220.75,0-246.23,0-246.23,0,0-80.66,7.08-137.26-38.2-27.85-22.28-42.68-53.46-47.86-89.83-5.37-37.57-.44-80.69,11.06-125.27,22.64-87.74,175.47-288.69,314.16-215.1,138.68,73.59,113.21,144.34,124.53,144.34s31.14,0,90.57-33.96c59.43-33.96,189.62-53.78,427.37-25.48,237.74,28.31,350.94,186.8,345.28,195.3,0,0,101.89,135.84,118.88,186.79,16.97,50.94,45.28,121.7,45.28,186.79s-14.15,110.39-5.66,141.52c8.49,31.13,99.06,147.17,107.55,169.81,8.49,22.64,16.98,65.1-48.11,99.06Z"/><path class="cls-7" d="M6199.12,3014.66c3.48,3.19,8.36,5.89,15.01,7.75,0,0-5.79,3.2-10.4,8.47-3.59,4.09-6.46,9.43-5.36,15.49,.19,1.03,.42,1.97,.69,2.86,2.79,9.05,10.01,11.39,19.51,15.08,2.19,.85,4.51,1.77,6.91,2.87,1.86,.84,3.54,1.64,5.07,2.42,9.53,4.85,12.81,8.82,12.05,17.43-.02,.32-.05,.63-.09,.96-1.26,10.72-10.1,58.64,32.15,65.57,32.63,5.35,83.67-5.45,115.11-6.59,1.4-.05,2.76-.09,4.07-.09,6.18-.06,11.43,.37,15.41,1.51,.8,.22,1.54,.48,2.24,.76,21.43,8.83,27.11,17.02,40.98,62.43,1.09,3.58,2.2,7.21,3.29,10.87,.79,2.63,1.58,5.27,2.36,7.93,.42,1.42,.84,2.85,1.25,4.28,11.48,39.34,10.27,64.9,10.33,81.94,.04,12.63,.63,20.81-9.46,42.25-7.1,15.09-78.95,120.16-116,171.15h504.2s-5.46-55.17-15.13-88.9c-6-20.93-20.5-50.36-36.74-86.14-.63-1.4-1.27-2.81-1.92-4.23-1.18-2.62-2.37-5.27-3.56-7.95-7.37-16.56-14.94-34.33-22.11-53.13-1.01-2.65-2.02-5.33-3.01-8.02-.5-1.35-1-2.71-1.49-4.08-7.25-20-13.93-41.05-19.37-62.97-.46-1.83-.9-3.68-1.34-5.52-.75-3.16-1.44-9.46-2.07-17.56-.25-3.19-.49-6.66-.72-10.33h0c-.48-7.73-.92-16.32-1.31-25.06-1.4-31.32-2.2-64.33-2.2-64.33,0,0,10.09,24.59,35.94,30.9,25.85,6.3,22.7,0,37.83-1.26,15.14-1.26,18.29-17.02,30.9-16.4,12.6,.64,15.13-1.89,26.48-.62,11.35,1.26,12.61-7.57,20.18-18.92,7.56-11.35,14.5,2.52,23.33-5.68,8.83-8.2,22.7-18.29,23.33-32.16,.63-13.87,18.28-5.67,16.39-22.69-1.89-17.03-2.52-29.64,11.98-32.79,14.51-3.16,9.46-.63,14.51-13.87,5.04-13.25,23.33-5.05,23.33-17.66,0-12.61-13.24-26.48,0-28.38,13.25-1.89,23.96,2.53,27.12-17.66,3.15-20.18-1.27-19.54,5.04-29.63,6.3-10.09-5.67-16.39,1.89-25.85,7.56-9.46,28.37-26.49,17.02-39.1-11.35-12.61,0-15.13,6.94-32.15,6.93-17.02-2.53-25.85-3.16-35.31-.62-9.45,32.8-52.96,11.36-86.38-21.44-33.41-17.03-28.37-10.09-57.38,6.93-29-6.31-25.22-15.77-32.79-9.46-7.56-2.53-43.5-28.38-53.59-25.85-10.09-18.92-17.03-20.81-29-1.89-11.98-10.71-21.44-34.68-29.64-23.96-8.2-12.61-13.24-28.37-34.68-13.42-18.25-24.56-15.02-40.8-28.45-1.17-.96-2.37-2.01-3.6-3.18-1.74-1.63-3.55-3.48-5.42-5.58-3.77-4.21-6.87-7.58-9.5-10.29,0,0,0,0,0-.02-12.3-12.75-14.04-11.16-23.91-14.28-.18-.05-.36-.12-.53-.2-3.04-1.27-4.36-4.75-5.43-8.88-.35-1.36-.67-2.78-1.03-4.22-2.44-10.11-6.06-20.84-28.95-12.56-36.57,13.25-22.07-18.28-40.98-19.55-18.92-1.26-18.29,18.92-39.72,0-21.44-18.92-32.16,2.53-46.66-3.78-14.51-6.31-2.53-30.27-32.16-21.44-20.41,6.08-19.58,15.14-23.47,17.11h0c-1.18,.61-2.79,.55-5.55-.44,0,0-.01,0-.01,0-1.36-.48-3-1.2-5-2.17-19.55-9.46-22.7-18.29-46.66-5.68-23.96,12.61-37.2-27.74-49.18-18.92-11.98,8.83-3.15,30.9-19.54,28.37-16.4-2.52-34.05-34.05-51.08-17.65-17.02,16.39-17.66,30.26-39.09,23.33-21.44-6.93-17.66,9.46-34.68,19.55-17.02,10.08-16.4-15.13-41.62-3.15-25.22,11.98-7.57,18.28-22.7,35.94-15.13,17.66-26.49-25.85-47.3-5.67-20.8,20.18,1.26,31.53-11.98,42.25-13.24,10.72-40.98,9.45-40.35,22.06,.62,12.61,22.7,24.59,8.83,36.57-13.87,11.98-12.61,26.47-11.35,39.72,1.26,13.24-30.26,33.41-6.3,51.07,23.96,17.66,30.26,21.44,34.05,42.88,3.79,21.44,39.41,27.43,39.41,27.43,0,0-28.37,52.97-30.26,75.03-1.89,22.07-9.46,28.38-8.83,35.31,.63,6.93,9.46,39.09,10.72,51.71,.74,7.43,.61,17.05-2.85,27.44-2.41,7.24-6.44,14.86-12.91,22.37-9.87,11.46-25.69,28.35-36.28,42.63-6.33,8.52-10.78,16.11-11.02,21.06-.62,13.24,6.31,30.9,33.42,40.36,0,0-11.04,24.28-19.86,32.47-6.96,6.46-13.54,25.11-.51,37.01Z"/><g><polygon class="cls-4" points="7900.26 3715.66 7824.43 3559.51 7811.32 3559.51 7811.32 3732.84 7821.81 3732.84 7821.81 3576.39 7900.24 3737.93 7979.15 3578.33 7979.15 3732.84 7989.65 3732.84 7989.65 3559.51 7976.76 3559.51 7900.26 3715.66"/><path class="cls-4" d="M8113.37,3648.61c-3.76-6.1-9.16-11.27-16.13-15.42-8.98-5.34-18.63-8.05-28.7-8.05s-19.26,2.51-27.78,7.47c-8.52,4.96-15.34,11.75-20.3,20.18-4.96,8.44-7.47,17.68-7.47,27.45s2.51,19,7.47,27.44c4.95,8.44,11.78,15.23,20.3,20.18,8.52,4.96,17.87,7.47,27.78,7.47s19.39-2.63,28.13-7.82c6.99-4.15,12.59-9.47,16.7-15.86v21.18h10.27v-105.2h-10.27v20.96Zm-5.7,9c4.08,7.01,6.16,14.62,6.16,22.64s-2.03,15.83-6.04,22.75c-4.02,6.94-9.54,12.57-16.4,16.73-6.85,4.15-14.38,6.26-22.39,6.26s-15.63-2.11-22.63-6.26c-7.02-4.17-12.69-9.8-16.85-16.74-4.15-6.92-6.26-14.49-6.26-22.51s2.11-15.63,6.26-22.63c4.17-7.02,9.8-12.73,16.75-16.97,6.92-4.22,14.49-6.37,22.5-6.37s15.54,2.1,22.39,6.26c6.86,4.16,12.42,9.83,16.51,16.85Z"/><path class="cls-4" d="M8191.18,3627.42c-7.71,0-14.69,2.24-20.75,6.65-4.39,3.19-8.04,7.29-10.9,12.23v-18.65h-10.27v105.2h10.27v-61.23c0-6.07,1.5-11.86,4.47-17.21,2.97-5.36,6.93-9.69,11.78-12.87,4.8-3.15,9.83-4.75,14.96-4.75s9.75,1.58,13.86,4.69l2.41,1.82v-12.43l-.94-.38c-5.01-2.03-10.01-3.06-14.87-3.06Z"/><path class="cls-4" d="M8288.09,3629.82c-6.22-2.8-13.76-4.22-22.42-4.22-10.36,0-19.97,2.51-28.57,7.47-8.59,4.96-15.46,11.67-20.41,19.95-4.96,8.3-7.48,17.46-7.48,27.23,0,10.52,2.52,20.1,7.48,28.47,4.96,8.37,11.75,15.04,20.19,19.84,8.45,4.8,17.83,7.24,27.88,7.24,8.49,0,16.21-1.45,22.96-4.32,6.75-2.87,12.99-7.3,18.56-13.18l.41-.43v-17.9l-2.76,4.22c-9.65,14.77-22.83,22.26-39.17,22.26-8.03,0-15.62-1.96-22.55-5.83-6.93-3.86-12.5-9.33-16.58-16.26-4.08-6.92-6.15-14.88-6.15-23.65,0-8.01,2.14-15.62,6.37-22.62,4.24-7.02,9.98-12.69,17.08-16.86,7.07-4.16,14.73-6.27,22.75-6.27,8.75,0,16.16,1.87,22.03,5.56,5.92,3.73,11.39,9.28,16.25,16.49l2.74,4.07v-17.8l-.44-.44c-5.86-5.86-11.97-10.24-18.16-13.03Z"/><path class="cls-4" d="M8372.18,3625.15c-8.1,0-16.19,2.32-24.04,6.9-5.94,3.47-10.62,7.69-13.98,12.58v-85.12h-10.27v173.33h10.27v-61c0-6.82,1.69-13.17,5.02-18.89,3.33-5.72,7.95-10.27,13.75-13.53,5.8-3.26,12.28-4.92,19.25-4.92,11.48,0,20.48,3.25,26.75,9.66,6.27,6.42,9.45,15.73,9.45,27.68v61h10.27v-61c0-14.72-4.08-26.31-12.13-34.44-8.06-8.13-19.61-12.25-34.34-12.25Z"/><path class="cls-4" d="M8599.73,3652.34c-3.71-7.73-8.88-14.39-15.38-19.81-5.6-4.66-11.96-8.11-18.95-10.26,4.66-3.02,8.45-6.76,11.3-11.17,3.47-5.37,5.24-11.45,5.24-18.07s-1.68-12.52-4.98-18.03c-3.3-5.5-7.84-9.89-13.5-13.03-5.65-3.14-11.86-4.73-18.44-4.73s-12.79,1.59-18.44,4.73c-5.66,3.15-10.2,7.53-13.5,13.03-3.31,5.51-4.98,11.58-4.98,18.03,0,6.94,1.92,13.26,5.71,18.79,3.1,4.53,7,8.24,11.61,11.07-10.76,3.92-19.8,10.6-26.9,19.87-7.81,10.21-11.78,21.83-11.78,34.52,0,10.37,2.71,20.18,8.05,29.16,5.33,8.96,12.61,16.21,21.65,21.53,9.05,5.34,19.05,8.04,29.72,8.04s20.66-2.67,29.71-7.92c9.04-5.25,16.29-12.46,21.55-21.43,5.26-8.98,7.93-18.86,7.93-29.38,0-8.81-1.88-17.21-5.6-24.95Zm-77.52-46.69c-2.42-3.97-3.64-8.3-3.64-12.85s1.23-8.87,3.64-12.85c2.43-4,5.73-7.23,9.8-9.59,4.06-2.35,8.43-3.54,12.99-3.54s8.93,1.19,12.99,3.54c4.07,2.36,7.37,5.58,9.8,9.59,2.42,3.98,3.64,8.31,3.64,12.85s-1.23,8.87-3.64,12.85c-2.44,4.01-5.74,7.28-9.82,9.71h0c-4.05,2.42-8.42,3.65-12.97,3.65s-8.92-1.23-12.97-3.65c-4.08-2.43-7.39-5.7-9.82-9.71Zm72.62,71.87c0,8.77-2.22,17-6.61,24.45-4.39,7.46-10.4,13.47-17.86,17.86-7.45,4.38-15.6,6.61-24.22,6.61s-16.81-2.22-24.34-6.61c-7.54-4.39-13.58-10.43-17.97-17.97-4.39-7.53-6.61-15.72-6.61-24.34s2.26-16.81,6.72-24.33c4.46-7.54,10.55-13.59,18.09-17.98,7.53-4.39,15.72-6.61,24.34-6.61s16.72,2.22,24.1,6.6c7.39,4.39,13.36,10.44,17.75,17.98,4.39,7.53,6.61,15.72,6.61,24.34Z"/></g><g><path class="cls-2" d="M7323.29,2713.1h-21.25c-8.2,0-13.05,4.47-13.05,12.67v244.14c0,8.2,4.85,13.05,13.05,13.05h21.25c8.2,0,13.05-4.85,13.05-13.05v-244.14c0-8.2-4.84-12.67-13.05-12.67Z"/><path class="cls-2" d="M7492.88,2713.1h-18.64c-8.2,0-13.05,4.47-13.05,12.67v95.05l4.85,63.37-3.36,.37-16.4-61.5-30.94-100.27c-1.86-5.59-5.22-9.69-13.05-9.69h-23.11c-8.2,0-13.05,4.47-13.05,12.67v244.14c0,8.2,4.85,13.05,13.05,13.05h18.64c8.2,0,12.67-4.85,12.67-13.05v-94.67l-4.85-63.37,3.35-.37,16.4,61.5,30.94,100.27c2.23,5.59,5.22,9.69,13.05,9.69h23.48c8.2,0,12.67-4.85,12.67-13.05v-244.14c0-8.2-4.47-12.67-12.67-12.67Z"/><path class="cls-2" d="M7656.13,2713.1h-122.63c-8.2,0-13.05,4.47-13.05,12.67v10.81c0,8.2,4.85,13.04,13.05,13.04h37.65v220.29c0,8.2,4.84,13.05,13.05,13.05h21.24c8.2,0,13.05-4.85,13.05-13.05v-220.29h37.65c8.2,0,13.05-4.84,13.05-13.04v-10.81c0-8.2-4.84-12.67-13.05-12.67Z"/><path class="cls-2" d="M7787.7,2749.62c8.2,0,13.05-4.84,13.05-13.04v-10.81c0-8.2-4.85-12.67-13.05-12.67h-90.57c-8.2,0-13.05,4.47-13.05,12.67v244.14c0,8.2,4.84,13.05,13.05,13.05h90.57c8.2,0,13.05-4.85,13.05-13.05v-10.81c0-8.2-4.85-12.67-13.05-12.67h-56.28v-80.14h42.12c8.2,0,13.05-4.84,13.05-13.04v-10.81c0-8.2-4.85-12.67-13.05-12.67h-42.12v-80.14h56.28Z"/><path class="cls-2" d="M7962.51,2964.69l-36.9-97.66c20.87-8.2,29.44-25.72,29.44-52.18v-42.49c0-39.88-21.62-59.26-69.7-59.26h-52.93c-8.2,0-13.05,4.47-13.05,12.67v244.14c0,8.2,4.85,13.05,13.05,13.05h21.25c8.2,0,13.05-4.85,13.05-13.05v-95.42h12.3l36.53,99.89c1.86,5.59,5.96,8.58,12.67,8.58h22.74c12.3,0,14.16-11.56,11.56-18.27Zm-54.42-149.84c0,13.79-6.33,23.11-22.74,23.11h-18.64v-88.34h18.64c16.4,0,22.74,9.32,22.74,22.74v42.49Z"/><path class="cls-2" d="M8111.6,2713.1h-18.64c-8.2,0-13.05,4.47-13.05,12.67v95.05l4.84,63.37-3.35,.37-16.4-61.5-30.94-100.27c-1.86-5.59-5.22-9.69-13.05-9.69h-23.11c-8.2,0-13.05,4.47-13.05,12.67v244.14c0,8.2,4.85,13.05,13.05,13.05h18.63c8.2,0,12.67-4.85,12.67-13.05v-94.67l-4.84-63.37,3.35-.37,16.4,61.5,30.94,100.27c2.24,5.59,5.22,9.69,13.05,9.69h23.48c8.2,0,12.67-4.85,12.67-13.05v-244.14c0-8.2-4.47-12.67-12.67-12.67Z"/><path class="cls-2" d="M8292,2967.3l-36.9-241.9c-1.12-8.95-5.59-12.3-13.05-12.3h-48.46c-7.46,0-12.3,3.35-13.42,12.3l-36.9,241.9c-1.49,8.95,2.98,15.66,12.3,15.66h20.13c6.34,0,11.93-2.98,13.05-11.56l5.22-41.75h47.34l5.59,41.75c.74,8.57,6.71,11.56,12.67,11.56h20.13c9.32,0,13.79-6.34,12.3-15.66Zm-93.56-74.18l7.83-57.4,9.69-90.2h3.36l9.69,90.2,7.45,57.4h-38.02Z"/><path class="cls-2" d="M8413.14,2713.1h-122.63c-8.2,0-13.05,4.47-13.05,12.67v10.81c0,8.2,4.84,13.04,13.05,13.04h37.65v220.29c0,8.2,4.84,13.05,13.05,13.05h21.25c8.2,0,13.05-4.85,13.05-13.05v-220.29h37.65c8.2,0,13.05-4.84,13.05-13.04v-10.81c0-8.2-4.84-12.67-13.05-12.67Z"/><path class="cls-2" d="M8475.38,2713.1h-21.25c-8.2,0-13.05,4.47-13.05,12.67v244.14c0,8.2,4.85,13.05,13.05,13.05h21.25c8.2,0,13.05-4.85,13.05-13.05v-244.14c0-8.2-4.85-12.67-13.05-12.67Z"/><path class="cls-2" d="M8586.45,2711.23c-46.97,0-68.21,19.01-68.21,57.77v158.04c0,38.76,21.25,57.78,68.21,57.78s68.58-19.01,68.58-57.78v-158.04c0-38.76-21.62-57.77-68.58-57.77Zm21.25,215.81c0,12.67-5.96,21.25-21.25,21.25s-20.87-8.57-20.87-21.25v-158.04c0-12.67,5.59-21.25,20.87-21.25s21.25,8.58,21.25,21.25v158.04Z"/><path class="cls-2" d="M8811.58,2713.1h-18.64c-8.2,0-13.04,4.47-13.04,12.67v95.05l4.85,63.37-3.36,.37-16.4-61.5-30.94-100.27c-1.86-5.59-5.22-9.69-13.04-9.69h-23.11c-8.2,0-13.05,4.47-13.05,12.67v244.14c0,8.2,4.84,13.05,13.05,13.05h18.64c8.2,0,12.67-4.85,12.67-13.05v-94.67l-4.84-63.37,3.35-.37,16.4,61.5,30.94,100.27c2.24,5.59,5.22,9.69,13.05,9.69h23.48c8.2,0,12.67-4.85,12.67-13.05v-244.14c0-8.2-4.47-12.67-12.67-12.67Z"/><path class="cls-2" d="M8991.98,2967.3l-36.9-241.9c-1.12-8.95-5.59-12.3-13.04-12.3h-48.46c-7.45,0-12.3,3.35-13.42,12.3l-36.9,241.9c-1.49,8.95,2.98,15.66,12.3,15.66h20.13c6.34,0,11.93-2.98,13.05-11.56l5.22-41.75h47.34l5.59,41.75c.74,8.57,6.71,11.56,12.67,11.56h20.13c9.32,0,13.79-6.34,12.3-15.66Zm-93.56-74.18l7.83-57.4,9.69-90.2h3.35l9.69,90.2,7.45,57.4h-38.02Z"/><path class="cls-2" d="M9114.61,2946.43h-56.28v-220.66c0-8.2-4.84-12.67-13.05-12.67h-21.25c-8.2,0-13.05,4.47-13.05,12.67v244.14c0,8.2,4.85,13.05,13.05,13.05h90.57c8.2,0,13.04-4.85,13.04-13.05v-10.81c0-8.2-4.84-12.67-13.04-12.67Z"/></g><g><g><path class="cls-6" d="M7317.67,3069.41h-26.12c-9.45,0-18.34,4.45-18.9,17.22l-18.9,210.08-7.22,114.48h-4.45l-5-114.48-17.78-210.08c-1.12-13.33-10-17.22-19.45-17.22h-50.02c-9.45,0-18.34,4.45-19.45,17.22l-17.78,210.08-5,114.48h-5.01l-6.67-114.48-18.89-210.08c-1.11-13.33-10-17.22-18.9-17.22h-26.12c-13.34,0-19.45,9.45-18.34,23.34l39.46,360.68c1.67,13.34,8.89,18.34,20.01,18.34h60.02c11.12,0,18.9-5,19.45-18.34l15.56-205.07,4.45-101.7h4.45l4.45,101.7,15.01,205.07c1.11,13.34,8.89,18.34,20.01,18.34h60.02c11.12,0,18.34-5,19.45-18.34l40.01-360.68c1.11-13.89-5-23.34-18.34-23.34Z"/><path class="cls-6" d="M7499.67,3066.64c-82.4,0-119.68,28.34-119.68,86.14v235.64c0,57.8,37.28,86.14,119.68,86.14,27.73,0,50.42-3.21,68.32-9.67,35.31-12.74,52-38.12,52-76.47v-235.64c0-57.8-37.93-86.14-120.33-86.14Zm37.27,321.78c0,18.9-10.46,31.67-37.27,31.67s-36.62-12.78-36.62-31.67v-235.64c0-18.9,9.81-31.68,36.62-31.68s37.27,12.78,37.27,31.68v235.64Z"/><path class="cls-6" d="M7921.73,3069.41h-54.47c-12.23,0-18.34,6.11-20.01,18.34l-23.34,119.49-12.78,95.03h-5l-13.34-95.03-22.79-119.49c-2.22-12.23-7.78-18.34-20.01-18.34h-54.46c-12.23,0-19.45,6.67-19.45,18.9v364.01c0,12.23,7.22,19.45,19.45,19.45h23.34c12.22,0,19.45-7.22,19.45-19.45v-191.73l-5-78.36h4.45l32.79,198.4c1.67,8.89,7.78,15.01,19.45,15.01h37.24c11.67,0,17.78-6.11,18.89-15.01l33.35-198.4h4.45l-5,78.36v191.73c0,12.23,7.22,19.45,19.45,19.45h23.34c12.22,0,19.45-7.22,19.45-19.45v-364.01c0-12.23-7.78-18.9-19.45-18.9Z"/><path class="cls-6" d="M8140.13,3123.88c12.23,0,19.45-7.22,19.45-19.45v-16.11c0-12.23-7.22-18.9-19.45-18.9h-135.04c-12.23,0-19.45,6.67-19.45,18.9v364.01c0,12.23,7.23,19.45,19.45,19.45h135.04c12.23,0,19.45-7.22,19.45-19.45v-16.12c0-12.23-7.22-18.9-19.45-18.9h-83.92v-119.48h62.8c12.23,0,19.45-7.22,19.45-19.45v-16.12c0-12.23-7.23-18.9-19.45-18.9h-62.8v-119.49h83.92Z"/><path class="cls-6" d="M8376.31,3069.41h-27.78c-12.23,0-19.45,6.67-19.45,18.9v141.71l7.23,94.48-5,.56-24.45-91.7-46.12-149.49c-2.78-8.34-7.78-14.45-19.45-14.45h-34.46c-12.23,0-19.45,6.67-19.45,18.9v364.01c0,12.23,7.22,19.45,19.45,19.45h27.79c12.23,0,18.9-7.22,18.9-19.45v-141.16l-7.23-94.48,5.01-.56,24.45,91.7,46.13,149.5c3.33,8.34,7.78,14.45,19.45,14.45h35.01c12.23,0,18.9-7.22,18.9-19.45v-364.01c0-12.23-6.67-18.9-18.9-18.9Z"/><path class="cls-6" d="M8490.24,3069.41h-31.12c-12.23,0-20.01,6.67-18.89,18.9l10.56,118.93c.56,12.22,6.67,18.89,18.9,18.89h10.56c12.23,0,18.34-6.67,18.9-18.89l10.56-118.93c.56-12.23-7.23-18.9-19.45-18.9Z"/><path class="cls-6" d="M8703.08,3215.57h32.23c12.23,0,18.9-6.67,18.9-18.89v-43.91c0-57.8-31.67-86.14-101.7-86.14s-101.7,28.34-101.7,86.14c0,53.91,7.23,80.03,42.23,111.15l62.8,56.68c23.9,21.67,28.34,36.68,28.34,67.8,0,18.9-8.89,31.67-31.67,31.67s-31.67-12.78-31.67-31.67v-43.91c0-12.23-6.67-19.45-18.9-19.45h-32.23c-12.22,0-18.89,7.22-18.89,19.45v43.91c0,57.8,31.68,86.14,101.7,86.14s101.7-28.34,101.7-86.14c0-53.91-7.78-80.03-42.79-111.15l-62.25-56.69c-23.9-21.67-28.34-36.68-28.34-67.8,0-18.9,8.89-31.68,31.67-31.68s31.67,12.78,31.67,31.68v43.91c0,12.22,6.67,18.89,18.9,18.89Z"/></g><g><path class="cls-3" d="M8965.49,3088.6h-75.7c-11.73,0-18.66,6.4-18.66,18.12v349.17c0,11.73,6.93,18.66,18.66,18.66h75.7c68.76,0,99.68-27.72,99.68-85.29v-215.9c0-57.04-30.92-84.76-99.68-84.76Zm32.52,300.66c0,19.72-9.06,33.05-32.52,33.05h-26.65v-281.46h26.65c23.45,0,32.52,13.33,32.52,32.52v215.9Z"/><path class="cls-3" d="M9305.05,3452.16l-52.78-345.97c-1.6-12.79-8-17.59-18.66-17.59h-69.3c-10.66,0-17.59,4.8-19.19,17.59l-52.77,345.97c-2.13,12.79,4.26,22.39,17.59,22.39h28.78c9.06,0,17.06-4.26,18.66-16.53l7.46-59.7h67.7l8,59.7c1.07,12.26,9.59,16.53,18.12,16.53h28.79c13.33,0,19.73-9.06,17.6-22.39Zm-133.8-106.08l11.19-82.1,13.86-129h4.79l13.86,129,10.66,82.1h-54.37Z"/><path class="cls-3" d="M9483.1,3088.6h-28.78c-7.46,0-15.46,3.2-18.12,12.79l-23.45,86.36-14.93,77.29h-4.26l-15.46-77.29-22.92-86.36c-2.67-9.59-10.66-12.79-18.13-12.79h-28.78c-15.99,0-20.79,12.79-17.06,25.59l70.9,221.76v119.95c0,11.73,6.4,18.66,18.12,18.66h30.92c11.73,0,18.12-6.93,18.12-18.66v-119.95l70.37-221.76c4.26-12.79-.53-25.59-16.53-25.59Z"/></g></g></g></svg>