<?xml version="1.0" encoding="UTF-8"?><svg id="_Слой_1" xmlns="http://www.w3.org/2000/svg" viewBox="0 0 13000 3500"><defs><style>.cls-1{fill:#fff;}.cls-2{fill:#fcc35e;}.cls-3{fill:#c62828;}.cls-4{fill:#0a2d3e;}</style></defs><rect class="cls-1" width="13000" height="3500"/><path class="cls-4" d="M4881.14,1766.21v291.84c0,71.58-43.15,106.69-147.69,106.69s-146.86-35.1-146.86-106.69v-291.84c0-71.58,42.32-106.69,146.86-106.69s147.69,35.1,147.69,106.69Z"/><g><rect class="cls-3" x="239.85" y="170" width="2974.42" height="3160"/><g><path class="cls-2" d="M848.81,2396.36h37.38v-86.86c0-6.85,4.3-10.58,11.58-10.58h18.86c7.28,0,11.58,3.74,11.58,10.58v203.91c0,6.85-4.3,10.9-11.58,10.9h-18.86c-7.28,0-11.58-4.05-11.58-10.9v-86.55h-37.38v86.55c0,6.85-4.3,10.9-11.58,10.9h-18.86c-7.28,0-11.58-4.05-11.58-10.9v-203.91c0-6.85,4.3-10.58,11.58-10.58h18.86c7.28,0,11.58,3.74,11.58,10.58v86.86Z"/><path class="cls-2" d="M1037.04,2514.66l-4.96-34.87h-42.01l-4.63,34.87c-.99,7.16-5.95,9.65-11.58,9.65h-17.86c-8.27,0-12.24-5.6-10.92-13.08l32.75-202.04c.99-7.47,5.29-10.27,11.91-10.27h43.01c6.62,0,10.59,2.8,11.58,10.27l32.75,202.04c1.32,7.78-2.65,13.08-10.92,13.08h-17.86c-5.29,0-10.59-2.49-11.25-9.65Zm-43.01-65.38h33.74l-6.62-47.94-8.6-75.34h-2.98l-8.6,75.34-6.95,47.94Z"/><path class="cls-2" d="M1135.95,2442.12v71.29c0,6.85-4.3,10.9-11.58,10.9h-18.86c-7.28,0-11.58-4.05-11.58-10.9v-203.91c0-6.85,4.3-10.58,11.58-10.58h44.33c43.01,0,62.19,16.19,62.19,49.5v43.9c0,33.62-19.19,49.81-62.19,49.81h-13.89Zm13.89-30.51c14.89,0,20.18-7.78,20.18-19.3v-43.9c0-11.21-5.29-18.99-20.18-18.99h-13.89v82.19h13.89Z"/><path class="cls-2" d="M1273.89,2442.12v71.29c0,6.85-4.3,10.9-11.58,10.9h-18.86c-7.28,0-11.58-4.05-11.58-10.9v-203.91c0-6.85,4.3-10.58,11.58-10.58h44.33c43.01,0,62.19,16.19,62.19,49.5v43.9c0,33.62-19.19,49.81-62.19,49.81h-13.89Zm13.89-30.51c14.89,0,20.18-7.78,20.18-19.3v-43.9c0-11.21-5.29-18.99-20.18-18.99h-13.89v82.19h13.89Z"/><path class="cls-2" d="M1389.35,2298.91c4.63,0,9.59,1.87,11.25,7.47l14.23,50.43,9.59,45.14h2.65l9.26-45.14,14.56-50.43c1.65-5.6,6.62-7.47,11.25-7.47h17.86c9.92,0,12.9,7.47,10.26,14.94l-43.67,129.51v70.05c0,6.85-3.97,10.9-11.25,10.9h-19.19c-7.28,0-11.25-4.05-11.25-10.9v-70.05l-44-129.51c-2.32-7.47,.66-14.94,10.59-14.94h17.86Z"/><path class="cls-2" d="M1664.58,2309.5c0-6.85,4.3-10.58,11.58-10.58h16.54c7.28,0,11.25,3.74,11.25,10.58v203.91c0,6.85-3.97,10.9-11.25,10.9h-20.84c-6.95,0-9.59-3.42-11.58-8.09l-27.46-83.74-14.56-51.37-2.98,.31,4.3,52.92v79.07c0,6.85-3.97,10.9-11.25,10.9h-16.54c-7.28,0-11.58-4.05-11.58-10.9v-203.91c0-6.85,4.3-10.58,11.58-10.58h20.51c6.95,0,9.92,3.42,11.58,8.09l27.46,83.74,14.56,51.37,2.98-.31-4.3-52.92v-79.39Z"/><path class="cls-2" d="M1822.37,2298.91c7.28,0,11.58,3.74,11.58,10.58v9.03c0,6.85-4.3,10.9-11.58,10.9h-49.95v66.93h37.38c7.28,0,11.58,3.74,11.58,10.58v9.03c0,6.85-4.3,10.9-11.58,10.9h-37.38v66.93h49.95c7.28,0,11.58,3.74,11.58,10.58v9.03c0,6.85-4.3,10.9-11.58,10.9h-80.39c-7.28,0-11.58-4.05-11.58-10.9v-203.91c0-6.85,4.3-10.58,11.58-10.58h80.39Z"/><path class="cls-2" d="M1878.61,2308.57l11.25,117.68,3.97,64.13h2.98l2.98-64.13,10.59-117.68c.66-7.16,5.95-9.65,11.58-9.65h29.77c5.62,0,10.92,2.18,11.58,9.65l10.59,117.68,2.98,64.13h2.65l4.3-64.13,11.25-117.68c.33-7.16,5.62-9.65,11.25-9.65h15.55c7.94,0,11.58,5.29,10.92,13.07l-23.82,202.04c-.66,7.47-4.96,10.27-11.58,10.27h-35.73c-6.62,0-11.25-2.8-11.91-10.27l-8.93-114.87-2.65-56.97h-2.65l-2.65,56.97-9.26,114.87c-.33,7.47-4.96,10.27-11.58,10.27h-35.73c-6.62,0-10.92-2.8-11.91-10.27l-23.49-202.04c-.66-7.78,2.98-13.07,10.92-13.07h15.55c5.29,0,10.59,2.18,11.25,9.65Z"/><path class="cls-2" d="M2141.27,2298.91c4.63,0,9.59,1.87,11.25,7.47l14.23,50.43,9.59,45.14h2.65l9.26-45.14,14.56-50.43c1.65-5.6,6.62-7.47,11.25-7.47h17.86c9.92,0,12.9,7.47,10.26,14.94l-43.67,129.51v70.05c0,6.85-3.97,10.9-11.25,10.9h-19.19c-7.28,0-11.25-4.05-11.25-10.9v-70.05l-44-129.51c-2.32-7.47,.66-14.94,10.59-14.94h17.86Z"/><path class="cls-2" d="M2351.99,2298.91c7.28,0,11.58,3.74,11.58,10.58v9.03c0,6.85-4.3,10.9-11.58,10.9h-49.95v66.93h37.38c7.28,0,11.58,3.74,11.58,10.58v9.03c0,6.85-4.3,10.9-11.58,10.9h-37.38v66.93h49.95c7.28,0,11.58,3.74,11.58,10.58v9.03c0,6.85-4.3,10.9-11.58,10.9h-80.39c-7.28,0-11.58-4.05-11.58-10.9v-203.91c0-6.85,4.3-10.58,11.58-10.58h80.39Z"/><path class="cls-2" d="M2462.48,2514.66l-4.96-34.87h-42.01l-4.63,34.87c-.99,7.16-5.95,9.65-11.58,9.65h-17.86c-8.27,0-12.24-5.6-10.92-13.08l32.75-202.04c.99-7.47,5.29-10.27,11.91-10.27h43.01c6.62,0,10.59,2.8,11.58,10.27l32.75,202.04c1.32,7.78-2.65,13.08-10.92,13.08h-17.86c-5.29,0-10.59-2.49-11.25-9.65Zm-43.01-65.38h33.74l-6.62-47.94-8.6-75.34h-2.98l-8.6,75.34-6.95,47.94Z"/><path class="cls-2" d="M2613.66,2427.49l32.75,81.56c2.32,5.6,.66,15.25-10.25,15.25h-20.18c-5.95,0-9.59-2.49-11.25-7.16l-32.42-83.43h-10.92v79.7c0,6.85-4.3,10.9-11.58,10.9h-18.86c-7.28,0-11.58-4.05-11.58-10.9v-203.91c0-6.85,4.3-10.58,11.58-10.58h46.98c42.68,0,61.86,16.19,61.86,49.5v35.49c0,22.1-7.61,36.74-26.13,43.58Zm-35.73-24.28c14.56,0,20.18-7.78,20.18-19.3v-35.49c0-11.21-5.62-18.99-20.18-18.99h-16.54v73.78h16.54Z"/></g><g><path class="cls-1" d="M1548.56,2619.76c0-10.45-3.9-17.5-17.4-17.5s-17.1,7.06-17.1,17.5v24.28c0,6.21-3.6,9.88-10.2,9.88h-15.3c-6.6,0-10.5-3.67-10.5-9.88v-24.28c0-29.36,15.3-43.76,53.1-43.76s53.4,14.4,53.4,43.76v12.99c0,14.12-2.4,25.97-11.7,39.24l-54,79.33h55.2c6.6,0,10.5,3.39,10.5,9.6v11.01c0,6.21-3.9,9.88-10.5,9.88h-85.5c-6.6,0-10.5-3.67-10.5-9.88v-12.99c0-3.95,.3-5.65,3-9.32l60.3-90.91c4.8-7.34,7.2-13.55,7.2-22.87v-16.09Z"/><path class="cls-1" d="M1715.06,2619.76v119.7c0,29.36-15.6,43.76-53.4,43.76s-53.1-14.4-53.1-43.76v-119.7c0-29.36,15.3-43.76,53.1-43.76s53.4,14.4,53.4,43.76Zm-70.5,0v119.7c0,10.45,3.9,17.5,17.1,17.5s17.4-7.06,17.4-17.5v-119.7c0-10.45-3.9-17.5-17.4-17.5s-17.1,7.06-17.1,17.5Z"/><path class="cls-1" d="M1809.56,2619.76c0-10.45-3.9-17.5-17.4-17.5s-17.1,7.06-17.1,17.5v24.28c0,6.21-3.6,9.88-10.2,9.88h-15.3c-6.6,0-10.5-3.67-10.5-9.88v-24.28c0-29.36,15.3-43.76,53.1-43.76s53.4,14.4,53.4,43.76v12.99c0,14.12-2.4,25.97-11.7,39.24l-54,79.33h55.2c6.6,0,10.5,3.39,10.5,9.6v11.01c0,6.21-3.9,9.88-10.5,9.88h-85.5c-6.6,0-10.5-3.67-10.5-9.88v-12.99c0-3.95,.3-5.65,3-9.32l60.3-90.91c4.8-7.34,7.2-13.55,7.2-22.87v-16.09Z"/><path class="cls-1" d="M1914.56,2691.75c-6.6,0-10.2-3.67-10.2-9.88v-5.36c0-6.21,3.6-9.88,10.2-9.88h6.9c13.5,0,18.6-6.78,18.6-17.5v-29.36c0-10.45-3.9-17.5-17.4-17.5s-17.1,7.06-17.1,17.5v18.63c0,6.21-3.6,9.88-10.2,9.88h-15.3c-6.6,0-10.5-3.67-10.5-9.88v-18.63c0-29.36,15.3-43.76,53.1-43.76s53.4,14.4,53.4,43.76v17.22c0,21.17-8.4,35.01-27.3,40.94v2.54c18.9,6.21,27.3,20.05,27.3,40.94v18.07c0,29.36-15.6,43.76-53.4,43.76s-53.1-14.4-53.1-43.76v-18.92c0-6.21,3.9-9.6,10.5-9.6h15.3c6.6,0,10.2,3.39,10.2,9.6v18.92c0,10.16,3.9,17.5,17.1,17.5s17.4-7.34,17.4-17.5v-30.49c0-10.45-5.1-17.22-18.6-17.22h-6.9Z"/></g><g><path class="cls-1" d="M2244.8,1674.01c-.15,4.01-.35,8.01-.59,11.99,0,.06,0,.12-.01,.18-.11,1.97-.24,3.96-.37,5.93-1.54,22.17-4.29,43.9-8.23,65.11l-1.19,6.21c-4.46,22.69-10.29,44.79-17.4,66.17l-1.59,4.72-.54,1.59h0c-2.82,8.18-5.84,16.25-9.04,24.2-1.37,3.41-2.77,6.79-4.21,10.15-4.79,11.23-9.95,22.23-15.47,32.98h-.01c-.14,.27-.28,.56-.43,.83l-2.07,3.96c-.29,.55-.57,1.09-.86,1.62h0c-12.85,24.2-27.55,47.12-43.94,68.61-1.53,2.01-3.09,3.99-4.63,5.96-.15,.19-.3,.4-.46,.58-20.19,25.56-42.83,48.99-67.67,70.01h-.01c-2.53,2.14-5.09,4.27-7.67,6.34-.13,.11-.25,.2-.37,.31h-.01c-35.95,29.11-76.27,53.27-120.29,71.63-.01,0-.01,0-.02,0-5.51,2.29-11.07,4.5-16.68,6.61-.11,.04-.21,.08-.3,.12l-.25,.09h-.01c-33.28,12.47-68.52,21.69-105.45,27.34-.65,.1-1.29,.2-1.94,.28-26.39,3.94-53.64,6.05-81.64,6.19-1,.02-2.01,.02-3.01,.02h-.35c-21.12,0-41.82-1.11-62.06-3.29-14.94-1.59-29.62-3.77-44.03-6.51-29.6-5.6-58.06-13.55-85.24-23.65-4.95-1.84-9.85-3.74-14.73-5.73-.83-.34-1.67-.68-2.51-1.03h-.02c-14.57-6.03-28.74-12.69-42.49-19.97-7.9-4.15-15.67-8.53-23.28-13.1-19.24-11.53-37.57-24.29-54.89-38.2-2.72-2.18-5.41-4.38-8.08-6.63h-.02c-4.99-4.19-9.89-8.47-14.72-12.86h0c-10.57-9.61-20.72-19.67-30.41-30.17-7.99-8.64-15.66-17.58-23.01-26.79h0c-1.72-2.16-3.44-4.33-5.11-6.52-13.79-17.87-26.43-36.76-37.8-56.56-1.05-1.84-2.1-3.69-3.14-5.55-1.18-2.13-2.36-4.27-3.52-6.42-.21-.38-.4-.74-.6-1.12-.95-1.75-1.88-3.53-2.8-5.3-2.86-5.46-5.6-11-8.26-16.6-.15-.31-.29-.61-.44-.91-1.33-2.83-2.65-5.66-3.93-8.52-6.07-13.44-11.62-27.22-16.58-41.31l-1.09-3.17-1.08-3.16c-3.35-9.84-6.42-19.85-9.2-29.99-3.15-11.44-5.94-23.08-8.37-34.87-.09-.45-.19-.9-.28-1.36-.43-2.07-.82-4.14-1.23-6.23-4.07-21.21-6.97-42.95-8.63-65.15l-.43-6.13c-.29-4.46-.53-8.95-.71-13.44-.7-16.69-.71-33.59,0-50.72,.03-1.01,.07-2.01,.12-3.03,.05-1.01,.1-2.01,.14-3.01,.85-16.45,2.33-33.08,4.49-49.87,.54-4.21,1.12-8.44,1.75-12.67,.03-.23,.06-.49,.11-.73,.3-1.99,.59-3.98,.91-5.96l.23-1.51c2.58-16.49,5.59-32.86,8.99-49.03,.84-4.04,1.73-8.06,2.62-12.08l1.33-5.91c4.84-21.06,10.34-41.79,16.46-62.16l1.78-5.86c6.45-21,13.57-41.59,21.3-61.73h0c.74-1.95,1.5-3.89,2.25-5.82h0c3.76-9.6,7.66-19.09,11.71-28.47,4.77-11.13,9.75-22.09,14.9-32.89l2.78-5.76c1.17-2.41,2.35-4.81,3.55-7.2,9.21-18.51,18.94-36.48,29.16-53.84,.56-.97,1.13-1.92,1.69-2.88,.58-.95,1.15-1.9,1.71-2.86,12.73-21.21,26.15-41.49,40.22-60.75h0c.18-.26,.36-.5,.55-.75,1.22-1.67,2.44-3.32,3.65-4.96,16.09-21.56,32.95-41.78,50.49-60.52h0s5.38-5.69,5.38-5.69c21.55-22.47,44.08-42.67,67.35-60.33h0c.26-.2,.49-.38,.74-.57,2.05-1.55,4.09-3.08,6.17-4.58,.22-.17,.46-.34,.69-.51h0c66.91-48.88,139.59-76.71,212.54-76.74,62.99-.03,125.9,20.66,185.15,57.73,7.61,4.76,15.16,9.79,22.65,15.09,1.74,1.23,3.47,2.47,5.19,3.72,.46,.34,.93,.68,1.4,1.03,.17,.12,.33,.24,.5,.36,1.64,1.21,3.29,2.42,4.92,3.66,.27,.19,.53,.39,.8,.6,23.32,17.62,45.93,37.78,67.58,60.2,1.22,1.25,2.42,2.52,3.63,3.78,.6,.63,1.19,1.26,1.79,1.89,8.81,9.34,17.45,19.05,25.91,29.13,8.47,10.07,16.75,20.5,24.83,31.26,1.42,1.88,2.84,3.78,4.24,5.69,14.15,19.23,27.69,39.46,40.51,60.65l3.44,5.74h.01c11.62,19.56,22.66,39.91,33.01,60.94,.39,.78,.78,1.56,1.15,2.34,.56,1.15,1.11,2.28,1.67,3.44,4.37,9.02,8.61,18.16,12.71,27.42,4.94,11.13,9.69,22.41,14.23,33.87l2.29,5.8c7.84,20.11,15.08,40.69,21.65,61.7l1.82,5.85h0c4.56,14.9,8.8,30.01,12.67,45.3,1.43,5.59,2.8,11.21,4.12,16.85l1.38,5.89h0c4.72,20.58,8.79,41.48,12.2,62.63l.93,5.95c.07,.37,.12,.72,.16,1.08,3.23,20.98,5.4,41.73,6.54,62.19l.32,6.03h0c.02,.33,.03,.67,.05,1,.77,17.27,.84,34.32,.19,51.13Z"/><g><path class="cls-4" d="M1666.03,2170.45c-14.94-1.59-29.62-3.77-44.03-6.51-18.96-23.61-42.23-52.98-68.18-86.56-3.44-4.45-6.92-8.98-10.46-13.57-8.96-11.66-18.19-23.77-27.66-36.29-17.31-22.89-35.37-47.11-53.78-72.31-88.27-120.74-184.72-263.47-247.77-388.38-80.7-159.82-106.75-290.47,8.9-308.52,28.77-4.48,56.01-.41,81.77,10.73,144.03,62.27,241.61,345.38,300.02,587.83,14.38,59.68,26.39,116.86,36.13,167.71,.33,1.75,.66,3.5,1.01,5.23,2.63,13.82,5.09,27.17,7.37,39.92,3.25,18.02,6.14,34.91,8.73,50.42,2.56,15.53,4.82,29.7,6.72,42.29,.42,2.75,.83,5.41,1.23,7.99Z"/><path class="cls-4" d="M2286.63,1819.19c-23.82,28.67-51.95,40.62-80.79,40.91-45.39,.46-92.54-27.96-127.39-65.57-86.11,137.54-190.46,277.11-265.36,372.99-26.39,3.94-53.64,6.05-81.64,6.19,30.53-180.66,102.79-526.52,225.84-712.46h274.61s128.03,269.7,54.73,357.93Z"/></g></g></g><g><rect class="cls-4" x="3421.81" y="169.86" width="2974.42" height="3160.28"/><g><path class="cls-1" d="M4281.13,2308.46h-4.55v-13.76h-58.96v13.76h-4.55v-70.23h4.55v52.13h58.96v-52.13h4.55v70.23Z"/><path class="cls-1" d="M4383.64,2308.46v-6.83c-4.34,5.42-11.16,8.45-19.4,8.45-14.74,0-26.66-12.25-26.66-27.31s12.25-27.2,26.66-27.2c8.24,0,15.06,3.03,19.4,8.45v-7.37h4.55v51.8h-4.55Zm0-13.76v-23.63c-3.25-6.72-10.84-11.16-19.4-11.16-12.03,0-22,10.4-22,22.87s9.97,22.98,22,22.98c8.56,0,16.15-4.44,19.4-11.05Z"/><path class="cls-1" d="M4444.44,2326.45v-69.79h4.55v7.37c4.33-5.42,11.16-8.45,19.4-8.45,14.41,0,26.66,12.25,26.66,27.2s-11.92,27.31-26.66,27.31c-8.24,0-15.06-3.03-19.4-8.45v24.82h-4.55Zm45.95-43.67c0-12.46-9.97-22.87-22-22.87-8.67,0-16.26,4.44-19.4,11.16v23.63c3.14,6.61,10.73,11.05,19.4,11.05,12.03,0,22-10.4,22-22.98Z"/><path class="cls-1" d="M4549.88,2326.45v-69.79h4.55v7.37c4.34-5.42,11.16-8.45,19.4-8.45,14.41,0,26.66,12.25,26.66,27.2s-11.92,27.31-26.66,27.31c-8.24,0-15.06-3.03-19.4-8.45v24.82h-4.55Zm45.95-43.67c0-12.46-9.97-22.87-22-22.87-8.67,0-16.26,4.44-19.4,11.16v23.63c3.14,6.61,10.73,11.05,19.4,11.05,12.03,0,22-10.4,22-22.98Z"/><path class="cls-1" d="M4652.29,2255.57l21.46,47.68,21.78-47.68,3.9,1.84-25.68,56.14c-3.58,7.91-8.89,14.09-17.01,14.09v-4.34c5.96,0,10.08-5.2,13.01-11.49l1.62-3.58-23.08-50.83,4.01-1.84Z"/><path class="cls-1" d="M4893.09,2308.46l-60.69-62.97v62.97h-4.55v-70.23h3.9l60.69,62.97v-62.97h4.55v70.23h-3.9Z"/><path class="cls-1" d="M5000.16,2294.91l3.36,2.71c-4.66,7.37-12.79,12.46-22.87,12.46-16.8,0-27.2-12.25-27.2-27.31s11.7-27.2,26.12-27.2,26.12,12.25,26.12,27.2c0,1.52-.22,3.25-.22,3.25h-47.14c1.41,11.05,9.97,19.72,22.32,19.72,9.1,0,15.61-4.66,19.51-10.84Zm-42.05-13.22h43.02c-.54-11.92-9.97-21.78-21.57-21.78s-20.92,9.86-21.46,21.78Z"/><path class="cls-1" d="M5126.09,2256.98l-17.45,52.78h-3.79l-14.2-46.6-14.2,46.6h-3.79l-17.56-52.89,4.23-1.3,14.96,45.41,14.2-44.98h4.34l14.09,44.98,15.06-45.41,4.12,1.41Z"/><path class="cls-1" d="M5308.47,2237.26l3.14,2.93-32.73,33.49v34.79h-4.55v-34.68l-32.84-33.6,3.14-2.93,31.97,32.3,31.86-32.3Z"/><path class="cls-1" d="M5395.17,2294.91l3.36,2.71c-4.66,7.37-12.79,12.46-22.87,12.46-16.8,0-27.2-12.25-27.2-27.31s11.7-27.2,26.12-27.2,26.12,12.25,26.12,27.2c0,1.52-.22,3.25-.22,3.25h-47.14c1.41,11.05,9.97,19.72,22.32,19.72,9.1,0,15.61-4.66,19.51-10.84Zm-42.05-13.22h43.02c-.54-11.92-9.97-21.78-21.57-21.78s-20.92,9.86-21.46,21.78Z"/><path class="cls-1" d="M5500.18,2308.46v-6.83c-4.34,5.42-11.16,8.45-19.4,8.45-14.74,0-26.66-12.25-26.66-27.31s12.25-27.2,26.66-27.2c8.24,0,15.06,3.03,19.4,8.45v-7.37h4.55v51.8h-4.55Zm0-13.76v-23.63c-3.25-6.72-10.84-11.16-19.4-11.16-12.03,0-22,10.4-22,22.87s9.97,22.98,22,22.98c8.56,0,16.15-4.44,19.4-11.05Z"/><path class="cls-1" d="M5560.97,2308.46v-51.8h4.55v7.04c4.01-5.2,10.3-8.13,17.77-8.13,12.9,0,20.48,7.59,21.67,19.62h-4.66c-1.19-10.19-7.04-15.06-17.56-15.06-7.59,0-14.31,4.23-17.23,10.73v37.61h-4.55Z"/></g><g><ellipse class="cls-2" cx="4693.85" cy="1902.78" rx="242.21" ry="242.24"/><path class="cls-2" d="M5169.72,1738.03c0-29.1-12.32-48.76-54.98-48.76s-54.04,19.66-54.04,48.76v67.63c0,17.3-11.38,27.52-32.23,27.52h-48.35c-20.85,0-33.18-10.22-33.18-27.52v-67.63c0-81.79,48.35-121.89,167.79-121.89s168.74,40.11,168.74,121.89v36.18c0,39.32-7.58,72.35-36.97,109.31l-170.64,220.98h174.43c20.86,0,33.18,9.44,33.18,26.74v30.67c0,17.3-12.32,27.52-33.18,27.52h-270.18c-20.85,0-33.18-10.22-33.18-27.52v-36.17c0-11.01,.95-15.73,9.48-25.95l190.55-253.22c15.17-20.45,22.75-37.75,22.75-63.7v-44.83Z"/><path class="cls-2" d="M5501.5,1936.6c-20.86,0-32.23-10.22-32.23-27.52v-14.94c0-17.3,11.38-27.52,32.23-27.52h21.8c42.66,0,58.78-18.87,58.78-48.75v-81.78c0-29.09-12.32-48.75-54.98-48.75s-54.04,19.66-54.04,48.75v51.9c0,17.3-11.38,27.52-32.23,27.52h-48.35c-20.85,0-33.18-10.22-33.18-27.52v-51.9c0-81.78,48.35-121.88,167.79-121.88s168.74,40.1,168.74,121.88v47.97c0,58.97-26.54,97.51-86.27,114.02v7.08c59.72,17.3,86.27,55.83,86.27,114.02v50.33c0,81.78-49.3,121.88-168.74,121.88s-167.79-40.1-167.79-121.88v-52.69c0-17.3,12.32-26.74,33.18-26.74h48.35c20.86,0,32.23,9.43,32.23,26.74v52.69c0,28.31,12.32,48.75,54.04,48.75s54.98-20.44,54.98-48.75v-84.92c0-29.1-16.12-47.97-58.78-47.97h-21.8Z"/><g><path class="cls-4" d="M4664.44,2153.34c-7.28-.77-14.43-1.84-21.45-3.17-9.24-11.5-20.57-25.81-33.21-42.17-1.68-2.17-3.37-4.37-5.1-6.61-4.36-5.68-8.86-11.58-13.47-17.68-8.43-11.15-17.23-22.95-26.2-35.22-43-58.82-89.98-128.35-120.7-189.2-39.31-77.86-52-141.5,4.34-150.29,14.01-2.18,27.28-.2,39.83,5.23,70.16,30.33,117.7,168.25,146.15,286.36,7,29.07,12.86,56.93,17.6,81.7,.16,.85,.32,1.71,.49,2.55,1.28,6.73,2.48,13.24,3.59,19.45,1.58,8.78,2.99,17.01,4.25,24.56,1.25,7.57,2.35,14.47,3.27,20.6,.2,1.34,.4,2.64,.6,3.89Z"/><path class="cls-4" d="M4966.76,1982.23c-11.6,13.97-25.31,19.79-39.36,19.93-22.11,.22-45.08-13.62-62.06-31.94-41.95,67-92.78,134.99-129.27,181.7-12.86,1.92-26.13,2.95-39.77,3.02,14.87-88,50.07-256.49,110.02-347.07h133.77s62.37,131.38,26.66,174.36Z"/></g><path class="cls-2" d="M4344.98,1738.03c0-29.1-12.32-48.76-54.98-48.76s-54.04,19.66-54.04,48.76v67.63c0,17.3-11.38,27.52-32.23,27.52h-48.35c-20.85,0-33.18-10.22-33.18-27.52v-67.63c0-81.79,48.35-121.89,167.79-121.89s168.74,40.11,168.74,121.89v36.18c0,39.32-7.58,72.35-36.97,109.31l-170.64,220.98h174.43c20.86,0,33.18,9.44,33.18,26.74v30.67c0,17.3-12.32,27.52-33.18,27.52h-270.18c-20.85,0-33.18-10.22-33.18-27.52v-36.17c0-11.01,.95-15.73,9.48-25.95l190.55-253.22c15.17-20.45,22.75-37.75,22.75-63.7v-44.83Z"/></g></g><g><rect class="cls-3" x="6603.77" y="170" width="2974.42" height="3160"/><g><g><g><path class="cls-2" d="M8193.39,1728.36h37.38v-86.86c0-6.85,4.3-10.58,11.58-10.58h18.86c7.28,0,11.58,3.74,11.58,10.58v203.91c0,6.85-4.3,10.9-11.58,10.9h-18.86c-7.28,0-11.58-4.05-11.58-10.9v-86.55h-37.38v86.55c0,6.85-4.3,10.9-11.58,10.9h-18.86c-7.28,0-11.58-4.05-11.58-10.9v-203.91c0-6.85,4.3-10.58,11.58-10.58h18.86c7.28,0,11.58,3.74,11.58,10.58v86.86Z"/><path class="cls-2" d="M8381.62,1846.66l-4.96-34.87h-42.01l-4.63,34.87c-.99,7.16-5.95,9.65-11.58,9.65h-17.86c-8.27,0-12.24-5.6-10.92-13.08l32.75-202.04c.99-7.47,5.29-10.27,11.91-10.27h43.01c6.62,0,10.59,2.8,11.58,10.27l32.75,202.04c1.32,7.78-2.65,13.08-10.92,13.08h-17.86c-5.29,0-10.59-2.49-11.25-9.65Zm-43.01-65.38h33.74l-6.62-47.94-8.6-75.34h-2.98l-8.6,75.34-6.95,47.94Z"/><path class="cls-2" d="M8480.53,1774.12v71.29c0,6.85-4.3,10.9-11.58,10.9h-18.86c-7.28,0-11.58-4.05-11.58-10.9v-203.91c0-6.85,4.3-10.58,11.58-10.58h44.33c43.01,0,62.19,16.19,62.19,49.5v43.9c0,33.62-19.19,49.81-62.19,49.81h-13.89Zm13.89-30.51c14.89,0,20.18-7.78,20.18-19.3v-43.9c0-11.21-5.29-18.99-20.18-18.99h-13.89v82.19h13.89Z"/><path class="cls-2" d="M8618.48,1774.12v71.29c0,6.85-4.3,10.9-11.58,10.9h-18.86c-7.28,0-11.58-4.05-11.58-10.9v-203.91c0-6.85,4.3-10.58,11.58-10.58h44.33c43.01,0,62.19,16.19,62.19,49.5v43.9c0,33.62-19.19,49.81-62.19,49.81h-13.89Zm13.89-30.51c14.89,0,20.18-7.78,20.18-19.3v-43.9c0-11.21-5.29-18.99-20.18-18.99h-13.89v82.19h13.89Z"/><path class="cls-2" d="M8733.93,1630.91c4.63,0,9.59,1.87,11.25,7.47l14.23,50.43,9.59,45.14h2.65l9.26-45.14,14.56-50.43c1.65-5.6,6.62-7.47,11.25-7.47h17.86c9.92,0,12.9,7.47,10.26,14.94l-43.67,129.51v70.05c0,6.85-3.97,10.9-11.25,10.9h-19.19c-7.28,0-11.25-4.05-11.25-10.9v-70.05l-44-129.51c-2.32-7.47,.66-14.94,10.59-14.94h17.86Z"/></g><g><g><path class="cls-1" d="M8235.74,1907.5c0-6.85,4.3-10.58,11.58-10.58h16.54c7.28,0,11.25,3.74,11.25,10.58v203.91c0,6.85-3.97,10.9-11.25,10.9h-20.84c-6.95,0-9.59-3.42-11.58-8.09l-27.46-83.74-14.56-51.37-2.98,.31,4.3,52.92v79.07c0,6.85-3.97,10.9-11.25,10.9h-16.54c-7.28,0-11.58-4.05-11.58-10.9v-203.91c0-6.85,4.3-10.58,11.58-10.58h20.51c6.95,0,9.92,3.42,11.58,8.09l27.46,83.74,14.56,51.37,2.98-.31-4.3-52.92v-79.39Z"/><path class="cls-1" d="M8393.53,1896.91c7.28,0,11.58,3.74,11.58,10.58v9.03c0,6.85-4.3,10.9-11.58,10.9h-49.95v66.93h37.38c7.28,0,11.58,3.74,11.58,10.58v9.03c0,6.85-4.3,10.9-11.58,10.9h-37.38v66.93h49.95c7.28,0,11.58,3.74,11.58,10.58v9.03c0,6.85-4.3,10.9-11.58,10.9h-80.39c-7.28,0-11.58-4.05-11.58-10.9v-203.91c0-6.85,4.3-10.58,11.58-10.58h80.39Z"/><path class="cls-1" d="M8449.77,1906.57l11.25,117.68,3.97,64.13h2.98l2.98-64.13,10.59-117.68c.66-7.16,5.95-9.65,11.58-9.65h29.77c5.62,0,10.92,2.18,11.58,9.65l10.59,117.68,2.98,64.13h2.65l4.3-64.13,11.25-117.68c.33-7.16,5.62-9.65,11.25-9.65h15.55c7.94,0,11.58,5.29,10.92,13.07l-23.82,202.04c-.66,7.47-4.96,10.27-11.58,10.27h-35.73c-6.62,0-11.25-2.8-11.91-10.27l-8.93-114.87-2.65-56.97h-2.65l-2.65,56.97-9.26,114.87c-.33,7.47-4.96,10.27-11.58,10.27h-35.73c-6.62,0-10.92-2.8-11.91-10.27l-23.49-202.04c-.66-7.78,2.98-13.07,10.92-13.07h15.55c5.29,0,10.59,2.18,11.25,9.65Z"/></g><g><path class="cls-1" d="M8712.43,1896.91c4.63,0,9.59,1.87,11.25,7.47l14.23,50.43,9.59,45.14h2.65l9.26-45.14,14.56-50.43c1.65-5.6,6.62-7.47,11.25-7.47h17.86c9.92,0,12.9,7.47,10.26,14.94l-43.67,129.51v70.05c0,6.85-3.97,10.9-11.25,10.9h-19.19c-7.28,0-11.25-4.05-11.25-10.9v-70.05l-44-129.51c-2.32-7.47,.66-14.94,10.59-14.94h17.86Z"/><path class="cls-1" d="M8923.15,1896.91c7.28,0,11.58,3.74,11.58,10.58v9.03c0,6.85-4.3,10.9-11.58,10.9h-49.95v66.93h37.38c7.28,0,11.58,3.74,11.58,10.58v9.03c0,6.85-4.3,10.9-11.58,10.9h-37.38v66.93h49.95c7.28,0,11.58,3.74,11.58,10.58v9.03c0,6.85-4.3,10.9-11.58,10.9h-80.39c-7.28,0-11.58-4.05-11.58-10.9v-203.91c0-6.85,4.3-10.58,11.58-10.58h80.39Z"/><path class="cls-1" d="M9033.64,2112.66l-4.96-34.87h-42.01l-4.63,34.87c-.99,7.16-5.95,9.65-11.58,9.65h-17.86c-8.27,0-12.24-5.6-10.92-13.08l32.75-202.04c.99-7.47,5.29-10.27,11.91-10.27h43.01c6.62,0,10.59,2.8,11.58,10.27l32.75,202.04c1.32,7.78-2.65,13.08-10.92,13.08h-17.86c-5.29,0-10.59-2.49-11.25-9.65Zm-43.01-65.38h33.74l-6.62-47.94-8.6-75.34h-2.98l-8.6,75.34-6.95,47.94Z"/><path class="cls-1" d="M9184.82,2025.49l32.75,81.56c2.32,5.6,.66,15.25-10.25,15.25h-20.18c-5.95,0-9.59-2.49-11.25-7.16l-32.42-83.43h-10.92v79.7c0,6.85-4.3,10.9-11.58,10.9h-18.86c-7.28,0-11.58-4.05-11.58-10.9v-203.91c0-6.85,4.3-10.58,11.58-10.58h46.98c42.68,0,61.86,16.19,61.86,49.5v35.49c0,22.1-7.61,36.74-26.13,43.58Zm-35.73-24.28c14.56,0,20.18-7.78,20.18-19.3v-35.49c0-11.21-5.62-18.99-20.18-18.99h-16.54v73.78h16.54Z"/></g></g></g><path class="cls-2" d="M8036.48,1780.5c0,118.12-38.18,227.33-102.86,315.96-78.24,107.19-195.26,184.28-330.43,210.62-33.4,6.51-67.9,9.92-103.21,9.92-296.3,0-536.5-240.2-536.5-536.5s240.2-536.5,536.5-536.5,536.5,240.2,536.5,536.5Z"/><path class="cls-4" d="M7933.62,2096.46c-78.24,107.19-195.26,184.28-330.43,210.62-7.85-5.29-15.6-10.69-23.27-16.15-.17-.12-.33-.24-.5-.36-2.26-1.62-4.5-3.22-6.74-4.85h0c-1.16-.85-2.33-1.71-3.49-2.55-9.57-7.02-18.99-14.18-28.27-21.49-1.42-1.13-2.85-2.26-4.28-3.4-20.81-16.57-40.83-33.9-60.02-52.07t-.02-.02c-.31-.29-.62-.59-.93-.88-5.81-5.5-11.53-11.09-17.19-16.76t0-.02c-27.48-27.52-53.15-56.91-76.9-88.43h0c-10.91-14.5-21.44-29.46-31.52-44.89-2.4-3.65-4.77-7.34-7.12-11.05h0c-.36-.57-.69-1.11-1.05-1.67h0c-.42-.64-.82-1.29-1.22-1.93-3.9-6.23-8.27-12.26-13.02-18.09h-.01c-3.74-4.58-7.69-9.03-11.82-13.31-2.11-2.2-4.28-4.37-6.47-6.48-.02-.01,0-.01-.02-.02-7.89-7.62-16.26-14.69-24.77-21.19-2.43-1.85-4.88-3.7-7.33-5.54-5.65-4.24-11.34-8.46-17.07-12.61-.63-.46-1.27-.94-1.91-1.4-3.5-2.54-7.02-5.09-10.54-7.62h0c-4.43-3.19-8.87-6.35-13.32-9.5-15.27-10.83-30.65-21.54-45.98-32.29h-.01c-.27-.21-.55-.4-.83-.6-.2-.13-.39-.27-.58-.41-1.75-1.23-3.5-2.44-5.26-3.68h-.01c-2.55-1.81-5.12-3.63-7.67-5.43-7.18-5.08-14.34-10.19-21.47-15.33v-.02c-6.12-4.42-12.2-8.87-18.27-13.36-.01-.02-.03-.02-.06-.04-1.73-1.3-3.47-2.61-5.22-3.9-4.28-3.22-8.54-6.46-12.78-9.73-1.42-1.08-2.82-2.18-4.23-3.28-13.7-10.66-27.15-21.65-40.22-33.09-2.76-2.43-5.41-4.89-7.94-7.39h0c-19.32-19.1-32.41-40.62-43.08-63.79-3.72-8.07-2.32-18.51-.1-29.33,2.51-12.23,15.4-19.28,27.09-14.89,9.02,3.38,17.77,7.16,25.12,12.75,9.92,7.53,19.65,15.33,29.28,23.24,7.33,6.02,14.62,12.11,21.89,18.21,22.01,18.46,43.98,36.98,67.16,53.83,.63,.45,1.25,.9,1.88,1.33,5.25,3.63,10.29,6.23,15.13,7.96,7.83,2.79,15.15,3.29,22.17,2.06,.92-.16,1.82-.35,2.73-.55,7.35-1.77,14.4-5.38,21.33-10.12,1.52-1.04,3.02-2.12,4.53-3.27h.01c.92-.7,1.84-1.41,2.77-2.14,5.81-4.59,11.61-9.81,17.54-15.23,1.01-.94,2.04-1.87,3.07-2.82,19.53-17.92,17.88-31.97,11.03-44.91-.48-.93-.99-1.84-1.53-2.74-4.68-7.99-10.95-15.63-14.94-23.58-4.88-9.74-10.48-19.09-16.36-28.31-.61-.97-1.23-1.94-1.87-2.9-9.49-14.72-19.55-29.15-28.29-44.31-19.62-34.01-10.01-66.9,23.7-78.5,42.71-14.69,88.31-24.53,133.53-28.51h0c.44-.06,.88-.1,1.33-.13,2.39-.21,4.78-.4,7.16-.57,1.23-.09,2.45-.18,3.68-.25,1.13-.08,2.26-.15,3.39-.21,9.28-.55,16.96-1.8,23.22-3.87,.78-.26,1.55-.54,2.3-.82,1.09-.42,2.15-.88,3.15-1.36,.6-.29,1.19-.59,1.76-.89,1.15-.63,2.23-1.3,3.24-2.01,.87-.59,1.67-1.22,2.42-1.89,1.27-1.09,2.41-2.27,3.41-3.55,.72-.88,1.37-1.81,1.97-2.79,1.41-2.31,2.52-4.87,3.32-7.69,.34-1.13,.62-2.33,.86-3.56,1.18-6.12,1.25-13.35,.39-21.78-2.2-21.72-6.27-43.4-8.73-65.05-.75-6.49-1.33-12.97-1.69-19.45-.29-5.06-.43-10.12-.39-15.19,.09-8.8,5.08-37.95,11.51-46.7,6.81-9.26,19.7-11.4,29.2-4.92,7.77,5.32,13.27,22.33,21.07,38.52,3.28,6.82,6.5,13.83,9.76,21.2t.02,.02s0,.01,0,.02c0,.01,.02,.01,.02,.01h.01s.01,.02,.01,.03c0,0,0,.01,0,.03,4.71,10.57,9.56,21.97,15.03,34.82,.01-.01,0-.02,.01-.02,3-6,6.33-13.33,9.81-21.4h0c1.66-3.83,3.35-7.81,5.05-11.9,11.42-27.25,23.7-58.81,31.75-74.83,2.78-5.56,10.6-5.92,13.89-.64,21.13,33.79,24.67,72.33,18.52,110.41-1.6,10.04-3.91,20.05-6.73,29.94-1.61,5.64-3.39,11.23-5.32,16.76-.36,1.09-.75,2.17-1.15,3.25-3.69,10.29-7.89,20.36-12.38,30.11-1.13,2.44-2.27,4.84-3.43,7.24-10.06,20.73-21.4,39.8-32.24,56.03-41.91,62.75-39.92,127.21-31.88,195.31,.14,1.25,.28,2.48,.44,3.72,.15,1.23,.3,2.46,.45,3.69,1.79,14.51,11.12,28.38,23.57,41.77h0c1.01,1.09,2.03,2.17,3.08,3.24h.01c10.82,11.16,23.57,21.98,35.67,32.52,1.7,1.48,3.37,2.96,5.04,4.43,.62,.55,1.24,1.09,1.84,1.65,3.13,2.76,6.16,5.52,9.06,8.26,.55,.5,1.07,1.02,1.61,1.52,6.81,6.55,13.71,12.98,20.7,19.29v.02c1.12,1.02,2.23,2.02,3.35,3.03,2.05,1.86,4.12,3.7,6.18,5.53,.35,.31,.71,.63,1.05,.93,.85,.76,1.71,1.52,2.56,2.26,.76,.67,1.53,1.33,2.29,2,.26,.24,.55,.49,.83,.72,.27,.25,.55,.48,.82,.71,.56,.5,1.13,1,1.7,1.49,.15,.12,.29,.25,.42,.36,1.14,.98,2.27,1.96,3.42,2.93,4.84,4.15,9.69,8.25,14.6,12.29h.01c14.28,11.86,28.83,23.28,43.66,34.32,3.31,2.47,6.62,4.9,9.96,7.32h.01c7.07,5.16,14.19,10.21,21.38,15.18,.12,.09,.24,.18,.37,.26,5.68,3.93,11.38,7.8,17.13,11.62h.01c.36,.25,.72,.49,1.08,.73,5.05,3.34,10.12,6.65,15.22,9.9,.37,.24,.73,.47,1.11,.7h0c55.15,35.23,113.31,65.74,174.03,92.11Z"/></g><g><path class="cls-1" d="M7694.53,2924.41h-5.41v-16.34h-70.01v16.34h-5.41v-83.4h5.41v61.9h70.01v-61.9h5.41v83.4Z"/><path class="cls-1" d="M7767.5,2924.41v-8.11c-5.15,6.43-13.26,10.04-23.04,10.04-17.5,0-31.66-14.54-31.66-32.43s14.54-32.3,31.66-32.3c9.78,0,17.89,3.6,23.04,10.04v-8.75h5.41v61.52h-5.41Zm0-16.34v-28.06c-3.86-7.98-12.87-13.26-23.04-13.26-14.29,0-26.13,12.36-26.13,27.16s11.84,27.28,26.13,27.28c10.17,0,19.18-5.28,23.04-13.13Z"/><path class="cls-1" d="M7790.92,2945.77v-82.88h5.41v8.75c5.15-6.43,13.26-10.04,23.04-10.04,17.12,0,31.66,14.54,31.66,32.3s-14.16,32.43-31.66,32.43c-9.78,0-17.89-3.6-23.04-10.04v29.47h-5.41Zm54.57-51.87c0-14.8-11.84-27.16-26.13-27.16-10.3,0-19.3,5.28-23.04,13.26v28.06c3.73,7.85,12.74,13.13,23.04,13.13,14.29,0,26.13-12.36,26.13-27.28Z"/><path class="cls-1" d="M7867.37,2945.77v-82.88h5.41v8.75c5.15-6.43,13.26-10.04,23.04-10.04,17.12,0,31.66,14.54,31.66,32.3s-14.16,32.43-31.66,32.43c-9.78,0-17.89-3.6-23.04-10.04v29.47h-5.41Zm54.57-51.87c0-14.8-11.84-27.16-26.13-27.16-10.3,0-19.3,5.28-23.04,13.26v28.06c3.73,7.85,12.74,13.13,23.04,13.13,14.29,0,26.13-12.36,26.13-27.28Z"/><path class="cls-1" d="M7940.21,2861.6l25.48,56.63,25.87-56.63,4.63,2.19-30.5,66.67c-4.25,9.39-10.55,16.73-20.21,16.73v-5.15c7.08,0,11.97-6.18,15.44-13.64l1.93-4.25-27.41-60.36,4.76-2.19Z"/><path class="cls-1" d="M8131.97,2924.41h-5.41v-16.34h-70.01v16.34h-5.41v-83.4h5.41v61.9h70.01v-61.9h5.41v83.4Z"/><path class="cls-1" d="M8182.55,2926.34c-17.76,0-32.3-14.54-32.3-32.43s14.54-32.3,32.3-32.3,32.43,14.54,32.43,32.3-14.54,32.43-32.43,32.43Zm0-59.59c-14.54,0-26.77,12.36-26.77,27.16s12.23,27.28,26.77,27.28,26.9-12.36,26.9-27.28-12.23-27.16-26.9-27.16Z"/><path class="cls-1" d="M8233.89,2841.01h5.41v63.96c0,9.14,3.86,15.19,11.07,15.19v5.15c-10.42,0-16.47-8.37-16.47-20.33v-63.96Z"/><path class="cls-1" d="M8269.03,2839.73c3.09,0,5.66,2.57,5.66,5.66s-2.57,5.66-5.66,5.66-5.66-2.57-5.66-5.66,2.57-5.66,5.66-5.66Zm13.77,85.58c-10.42,0-16.47-8.37-16.47-20.33v-42.08h5.41v42.08c0,9.14,3.86,15.19,11.07,15.19v5.15Z"/><path class="cls-1" d="M8346.76,2924.41v-8.11c-5.15,6.43-13.26,10.04-23.04,10.04-17.5,0-31.66-14.54-31.66-32.43s14.54-32.3,31.66-32.3c9.78,0,17.89,3.6,23.04,10.04v-30.63h5.41v83.4h-5.41Zm0-16.34v-28.06c-3.86-7.98-12.87-13.26-23.04-13.26-14.29,0-26.13,12.36-26.13,27.16s11.84,27.28,26.13,27.28c10.17,0,19.18-5.28,23.04-13.13Z"/><path class="cls-1" d="M8423.21,2924.41v-8.11c-5.15,6.43-13.26,10.04-23.04,10.04-17.5,0-31.66-14.54-31.66-32.43s14.54-32.3,31.66-32.3c9.78,0,17.89,3.6,23.04,10.04v-8.75h5.41v61.52h-5.41Zm0-16.34v-28.06c-3.86-7.98-12.87-13.26-23.04-13.26-14.29,0-26.13,12.36-26.13,27.16s11.84,27.28,26.13,27.28c10.17,0,19.18-5.28,23.04-13.13Z"/><path class="cls-1" d="M8448.18,2861.6l25.48,56.63,25.87-56.63,4.63,2.19-30.5,66.67c-4.25,9.39-10.55,16.73-20.21,16.73v-5.15c7.08,0,11.97-6.18,15.44-13.64l1.93-4.25-27.41-60.36,4.76-2.19Z"/><path class="cls-1" d="M8517.29,2914.11c6.69,4.89,15.96,7.08,24.45,7.08,7.34,0,20.98-2.32,20.98-12.23,0-8.49-10.68-10.42-21.24-12.48-12.61-2.32-25.22-4.89-25.22-17.5s14.29-17.37,25.48-17.37c8.62,0,16.86,1.93,22.65,7.46l-3.6,3.86c-4.76-4.5-11.71-6.18-19.05-6.18-8.75,0-19.95,2.96-19.95,12.23,0,8.49,10.3,10.17,20.72,12.1,12.74,2.32,25.74,5.15,25.74,17.89,0,14.03-17.25,17.37-26.51,17.37s-19.82-2.7-27.28-7.85l2.83-4.38Z"/></g></g><g><rect class="cls-4" x="9785.73" y="170" width="2974.42" height="3160"/><g><path class="cls-2" d="M10876.49,2924.41h-5.41v-16.34h-70.01v16.34h-5.41v-83.4h5.41v61.9h70.01v-61.9h5.41v83.4Z"/><path class="cls-2" d="M10949.46,2924.41v-8.11c-5.15,6.43-13.26,10.04-23.04,10.04-17.5,0-31.66-14.54-31.66-32.43s14.54-32.3,31.66-32.3c9.78,0,17.89,3.6,23.04,10.04v-8.75h5.41v61.52h-5.41Zm0-16.34v-28.06c-3.86-7.98-12.87-13.26-23.04-13.26-14.29,0-26.13,12.36-26.13,27.16s11.84,27.28,26.13,27.28c10.17,0,19.18-5.28,23.04-13.13Z"/><path class="cls-2" d="M10972.89,2945.77v-82.88h5.41v8.75c5.15-6.43,13.26-10.04,23.04-10.04,17.12,0,31.66,14.54,31.66,32.3s-14.16,32.43-31.66,32.43c-9.78,0-17.89-3.6-23.04-10.04v29.47h-5.41Zm54.57-51.87c0-14.8-11.84-27.16-26.13-27.16-10.3,0-19.3,5.28-23.04,13.26v28.06c3.73,7.85,12.74,13.13,23.04,13.13,14.29,0,26.13-12.36,26.13-27.28Z"/><path class="cls-2" d="M11049.33,2945.77v-82.88h5.41v8.75c5.15-6.43,13.26-10.04,23.04-10.04,17.12,0,31.66,14.54,31.66,32.3s-14.16,32.43-31.66,32.43c-9.78,0-17.89-3.6-23.04-10.04v29.47h-5.41Zm54.57-51.87c0-14.8-11.84-27.16-26.13-27.16-10.3,0-19.3,5.28-23.04,13.26v28.06c3.73,7.85,12.74,13.13,23.04,13.13,14.29,0,26.13-12.36,26.13-27.28Z"/><path class="cls-2" d="M11122.17,2861.6l25.48,56.63,25.87-56.63,4.63,2.19-30.5,66.67c-4.25,9.39-10.55,16.73-20.21,16.73v-5.15c7.08,0,11.97-6.18,15.44-13.64l1.93-4.25-27.41-60.36,4.76-2.19Z"/><path class="cls-2" d="M11313.93,2924.41h-5.41v-16.34h-70.01v16.34h-5.41v-83.4h5.41v61.9h70.01v-61.9h5.41v83.4Z"/><path class="cls-2" d="M11364.51,2926.34c-17.76,0-32.3-14.54-32.3-32.43s14.54-32.3,32.3-32.3,32.43,14.54,32.43,32.3-14.54,32.43-32.43,32.43Zm0-59.59c-14.54,0-26.77,12.36-26.77,27.16s12.23,27.28,26.77,27.28,26.9-12.36,26.9-27.28-12.23-27.16-26.9-27.16Z"/><path class="cls-2" d="M11415.86,2841.01h5.41v63.96c0,9.14,3.86,15.19,11.07,15.19v5.15c-10.42,0-16.47-8.37-16.47-20.33v-63.96Z"/><path class="cls-2" d="M11450.99,2839.73c3.09,0,5.66,2.57,5.66,5.66s-2.57,5.66-5.66,5.66-5.66-2.57-5.66-5.66,2.57-5.66,5.66-5.66Zm13.77,85.58c-10.42,0-16.47-8.37-16.47-20.33v-42.08h5.41v42.08c0,9.14,3.86,15.19,11.07,15.19v5.15Z"/><path class="cls-2" d="M11528.73,2924.41v-8.11c-5.15,6.43-13.26,10.04-23.04,10.04-17.5,0-31.66-14.54-31.66-32.43s14.54-32.3,31.66-32.3c9.78,0,17.89,3.6,23.04,10.04v-30.63h5.41v83.4h-5.41Zm0-16.34v-28.06c-3.86-7.98-12.87-13.26-23.04-13.26-14.29,0-26.13,12.36-26.13,27.16s11.84,27.28,26.13,27.28c10.17,0,19.18-5.28,23.04-13.13Z"/><path class="cls-2" d="M11605.17,2924.41v-8.11c-5.15,6.43-13.26,10.04-23.04,10.04-17.5,0-31.66-14.54-31.66-32.43s14.54-32.3,31.66-32.3c9.78,0,17.89,3.6,23.04,10.04v-8.75h5.41v61.52h-5.41Zm0-16.34v-28.06c-3.86-7.98-12.87-13.26-23.04-13.26-14.29,0-26.13,12.36-26.13,27.16s11.84,27.28,26.13,27.28c10.17,0,19.18-5.28,23.04-13.13Z"/><path class="cls-2" d="M11630.14,2861.6l25.48,56.63,25.87-56.63,4.63,2.19-30.5,66.67c-4.25,9.39-10.55,16.73-20.21,16.73v-5.15c7.08,0,11.97-6.18,15.44-13.64l1.93-4.25-27.41-60.36,4.76-2.19Z"/><path class="cls-2" d="M11699.25,2914.11c6.69,4.89,15.96,7.08,24.45,7.08,7.34,0,20.98-2.32,20.98-12.23,0-8.49-10.68-10.42-21.24-12.48-12.61-2.32-25.22-4.89-25.22-17.5s14.29-17.37,25.48-17.37c8.62,0,16.86,1.93,22.65,7.46l-3.6,3.86c-4.76-4.5-11.71-6.18-19.05-6.18-8.75,0-19.95,2.96-19.95,12.23,0,8.49,10.3,10.17,20.72,12.1,12.74,2.32,25.74,5.15,25.74,17.89,0,14.03-17.25,17.37-26.51,17.37s-19.82-2.7-27.28-7.85l2.83-4.38Z"/></g><g><g><g><path class="cls-1" d="M10410.37,1681.52h55.32v-128.54c0-10.14,6.36-15.66,17.14-15.66h27.91c10.77,0,17.14,5.53,17.14,15.66v301.77c0,10.14-6.36,16.13-17.14,16.13h-27.91c-10.77,0-17.14-5.99-17.14-16.13v-128.08h-55.32v128.08c0,10.14-6.36,16.13-17.14,16.13h-27.91c-10.77,0-17.14-5.99-17.14-16.13v-301.77c0-10.14,6.36-15.66,17.14-15.66h27.91c10.77,0,17.14,5.53,17.14,15.66v128.54Z"/><path class="cls-1" d="M10688.94,1856.6l-7.34-51.6h-62.18l-6.85,51.6c-1.47,10.6-8.81,14.28-17.14,14.28h-26.44c-12.24,0-18.11-8.29-16.16-19.35l48.47-299.01c1.47-11.06,7.83-15.2,17.63-15.2h63.65c9.79,0,15.67,4.15,17.14,15.2l48.47,299.01c1.96,11.52-3.92,19.35-16.16,19.35h-26.44c-7.83,0-15.67-3.69-16.65-14.28Zm-63.65-96.75h49.94l-9.79-70.95-12.73-111.5h-4.41l-12.73,111.5-10.28,70.95Z"/><path class="cls-1" d="M10835.32,1749.25v105.51c0,10.14-6.36,16.13-17.14,16.13h-27.91c-10.77,0-17.14-5.99-17.14-16.13v-301.77c0-10.14,6.36-15.66,17.14-15.66h65.6c63.65,0,92.04,23.96,92.04,73.25v64.96c0,49.76-28.4,73.72-92.04,73.72h-20.56Zm20.56-45.15c22.03,0,29.86-11.52,29.86-28.56v-64.96c0-16.59-7.83-28.1-29.86-28.1h-20.56v121.63h20.56Z"/><path class="cls-1" d="M11039.47,1749.25v105.51c0,10.14-6.36,16.13-17.14,16.13h-27.91c-10.77,0-17.14-5.99-17.14-16.13v-301.77c0-10.14,6.36-15.66,17.14-15.66h65.6c63.65,0,92.04,23.96,92.04,73.25v64.96c0,49.76-28.4,73.72-92.04,73.72h-20.56Zm20.56-45.15c22.03,0,29.86-11.52,29.86-28.56v-64.96c0-16.59-7.83-28.1-29.86-28.1h-20.56v121.63h20.56Z"/><path class="cls-1" d="M11210.33,1537.31c6.85,0,14.2,2.76,16.65,11.06l21.05,74.64,14.2,66.8h3.92l13.71-66.8,21.54-74.64c2.45-8.29,9.79-11.06,16.65-11.06h26.44c14.69,0,19.09,11.06,15.18,22.12l-64.63,191.66v103.66c0,10.14-5.88,16.13-16.65,16.13h-28.4c-10.77,0-16.65-5.99-16.65-16.13v-103.66l-65.12-191.66c-3.43-11.06,.98-22.12,15.67-22.12h26.44Z"/></g><g><g><path class="cls-2" d="M10428.38,1894.71c0-6.5,4.08-10.04,10.99-10.04h15.7c6.91,0,10.67,3.54,10.67,10.04v193.49c0,6.5-3.77,10.34-10.67,10.34h-19.78c-6.59,0-9.1-3.25-10.99-7.68l-26.05-79.46-13.81-48.74-2.83,.3,4.08,50.22v75.03c0,6.5-3.77,10.34-10.67,10.34h-15.7c-6.91,0-10.99-3.84-10.99-10.34v-193.49c0-6.5,4.08-10.04,10.99-10.04h19.46c6.59,0,9.42,3.25,10.99,7.68l26.05,79.46,13.81,48.74,2.83-.3-4.08-50.22v-75.33Z"/><path class="cls-2" d="M10578.11,1884.66c6.91,0,10.99,3.54,10.99,10.04v8.57c0,6.5-4.08,10.34-10.99,10.34h-47.4v63.51h35.47c6.91,0,10.99,3.54,10.99,10.04v8.57c0,6.5-4.08,10.34-10.99,10.34h-35.47v63.51h47.4c6.91,0,10.99,3.55,10.99,10.04v8.57c0,6.5-4.08,10.34-10.99,10.34h-76.28c-6.91,0-10.99-3.84-10.99-10.34v-193.49c0-6.5,4.08-10.04,10.99-10.04h76.28Z"/><path class="cls-2" d="M10631.47,1893.82l10.67,111.66,3.77,60.85h2.83l2.83-60.85,10.04-111.66c.63-6.79,5.65-9.16,10.99-9.16h28.25c5.34,0,10.36,2.07,10.99,9.16l10.04,111.66,2.83,60.85h2.51l4.08-60.85,10.67-111.66c.31-6.79,5.34-9.16,10.67-9.16h14.75c7.53,0,10.99,5.02,10.36,12.41l-22.6,191.71c-.63,7.09-4.71,9.75-10.99,9.75h-33.9c-6.28,0-10.67-2.66-11.3-9.75l-8.48-109-2.51-54.06h-2.51l-2.51,54.06-8.79,109c-.31,7.09-4.71,9.75-10.99,9.75h-33.9c-6.28,0-10.36-2.66-11.3-9.75l-22.29-191.71c-.63-7.38,2.83-12.41,10.36-12.41h14.75c5.02,0,10.04,2.07,10.67,9.16Z"/></g><g><path class="cls-2" d="M10880.69,1884.66c4.39,0,9.1,1.77,10.67,7.09l13.5,47.85,9.1,42.83h2.51l8.79-42.83,13.81-47.85c1.57-5.32,6.28-7.09,10.67-7.09h16.95c9.42,0,12.24,7.09,9.73,14.18l-41.44,122.89v66.46c0,6.5-3.77,10.34-10.67,10.34h-18.21c-6.91,0-10.67-3.84-10.67-10.34v-66.46l-41.75-122.89c-2.2-7.09,.63-14.18,10.04-14.18h16.95Z"/><path class="cls-2" d="M11080.65,1884.66c6.91,0,10.99,3.54,10.99,10.04v8.57c0,6.5-4.08,10.34-10.99,10.34h-47.4v63.51h35.47c6.91,0,10.99,3.54,10.99,10.04v8.57c0,6.5-4.08,10.34-10.99,10.34h-35.47v63.51h47.4c6.91,0,10.99,3.55,10.99,10.04v8.57c0,6.5-4.08,10.34-10.99,10.34h-76.28c-6.91,0-10.99-3.84-10.99-10.34v-193.49c0-6.5,4.08-10.04,10.99-10.04h76.28Z"/><path class="cls-2" d="M11185.49,2089.37l-4.71-33.08h-39.87l-4.39,33.08c-.94,6.79-5.65,9.16-10.99,9.16h-16.95c-7.85,0-11.61-5.32-10.36-12.41l31.08-191.71c.94-7.09,5.02-9.75,11.3-9.75h40.81c6.28,0,10.04,2.66,10.99,9.75l31.08,191.71c1.26,7.39-2.51,12.41-10.36,12.41h-16.95c-5.02,0-10.04-2.36-10.67-9.16Zm-40.81-62.03h32.02l-6.28-45.49-8.16-71.49h-2.83l-8.16,71.49-6.59,45.49Z"/><path class="cls-2" d="M11328.94,2006.66l31.08,77.39c2.2,5.32,.63,14.47-9.73,14.47h-19.15c-5.65,0-9.1-2.36-10.67-6.79l-30.76-79.17h-10.36v75.62c0,6.5-4.08,10.34-10.99,10.34h-17.89c-6.91,0-10.99-3.84-10.99-10.34v-193.49c0-6.5,4.08-10.04,10.99-10.04h44.57c40.49,0,58.7,15.36,58.7,46.97v33.68c0,20.97-7.22,34.86-24.8,41.36Zm-33.9-23.04c13.81,0,19.15-7.38,19.15-18.32v-33.68c0-10.63-5.34-18.02-19.15-18.02h-15.7v70.01h15.7Z"/></g></g></g><g><path class="cls-2" d="M12197.38,1874.41c-.1,2.78-.24,5.56-.4,8.32,0,.04,0,.08-.01,.12-.08,1.37-.17,2.75-.26,4.12-1.06,15.37-2.98,30.44-5.71,45.15l-.82,4.31c-3.1,15.74-7.14,31.07-12.07,45.89l-1.11,3.27-.37,1.11c-5.6,16.18-12.27,31.77-19.93,46.69h0c-.1,.19-.19,.39-.3,.58l-1.43,2.75c-.2,.38-.4,.75-.6,1.12h0c-8.91,16.78-19.11,32.68-30.48,47.58-1.06,1.39-2.14,2.77-3.21,4.13-.11,.13-.21,.27-.32,.4-14,17.73-29.71,33.98-46.94,48.55h0c-1.76,1.49-3.53,2.96-5.32,4.4-.09,.07-.17,.14-.26,.21h0s0,.01,0,.01c-24.94,20.18-52.9,36.93-83.43,49.67,0,0,0,0-.01,0-3.82,1.6-7.68,3.12-11.57,4.59-.07,.02-.14,.05-.21,.08l-.17,.06h-.01c-23.08,8.65-47.52,15.05-73.14,18.96-19.38,2.96-39.43,4.5-60.06,4.51-19.9,.01-39.26-1.4-58.02-4.14-26.25-3.84-51.29-10.28-74.93-19.06h0c-3.43-1.28-6.83-2.59-10.21-3.98-.58-.23-1.17-.47-1.74-.71h-.01c-10.1-4.18-19.94-8.81-29.48-13.85-5.47-2.88-10.86-5.92-16.14-9.09-13.35-8-26.05-16.85-38.07-26.49-1.89-1.52-3.76-3.04-5.6-4.6h-.01c-3.47-2.91-6.86-5.88-10.21-8.93-7.34-6.66-14.37-13.64-21.09-20.92-5.54-5.99-10.87-12.19-15.96-18.58h0c-1.19-1.5-2.38-3.01-3.54-4.52-9.57-12.4-18.33-25.5-26.22-39.23-.72-1.28-1.46-2.56-2.17-3.85-.82-1.48-1.64-2.96-2.44-4.46-.14-.26-.27-.51-.41-.78-.66-1.21-1.31-2.45-1.95-3.67-1.98-3.79-3.88-7.63-5.73-11.51h0c-.1-.22-.2-.42-.3-.63-.93-1.96-1.84-3.93-2.73-5.91-4.21-9.32-8.05-18.89-11.5-28.65l-.75-2.19-.75-2.19c-2.32-6.83-4.45-13.77-6.38-20.8-2.18-7.94-4.12-16.01-5.8-24.19-.07-.31-.13-.62-.19-.94h0c-.3-1.44-.57-2.87-.86-4.32-2.82-14.72-4.83-29.79-5.98-45.19v-.08s-.3-4.17-.3-4.17c-.2-3.09-.36-6.2-.49-9.32-.48-11.57-.49-23.3,0-35.18,.02-.7,.05-1.4,.08-2.1,.04-.7,.07-1.4,.1-2.09,.73-14.27,2.15-28.74,4.33-43.38,.02-.17,.04-.34,.08-.51h0c.2-1.39,.41-2.76,.63-4.14l.16-1.04c1.79-11.45,3.87-22.79,6.23-34.01,.59-2.8,1.2-5.59,1.82-8.38l.92-4.1c3.35-14.61,7.18-28.99,11.42-43.11l1.23-4.06c4.47-14.57,9.42-28.85,14.78-42.81h0c.51-1.35,1.04-2.69,1.56-4.03h0c2.61-6.66,5.31-13.25,8.12-19.75,3.31-7.72,6.76-15.32,10.34-22.8l1.92-4c3.55-7.3,7.23-14.49,11.01-21.54,3.78-7.06,7.68-13.99,11.68-20.79h0c.38-.67,.78-1.33,1.17-2,.39-.66,.79-1.32,1.18-1.98,8.82-14.72,18.14-28.79,27.9-42.13h0c.12-.18,.25-.35,.37-.52,.85-1.16,1.7-2.31,2.54-3.44,11.16-14.95,22.85-28.98,35.02-41.97h0s3.73-3.94,3.73-3.94c14.95-15.58,30.58-29.59,46.72-41.84h0c.17-.14,.33-.26,.51-.39,1.42-1.08,2.84-2.13,4.27-3.18,.16-.12,.32-.24,.48-.35,0,0,0,0,0,0,46.4-33.89,96.82-53.19,147.42-53.22,43.69-.02,87.33,14.33,128.42,40.04,5.28,3.3,10.52,6.79,15.71,10.46,1.21,.85,2.41,1.71,3.6,2.58,.32,.23,.65,.47,.97,.71,.12,.08,.23,.17,.35,.26,1.14,.83,2.28,1.68,3.41,2.53,.18,.14,.37,.27,.56,.41,16.17,12.23,31.86,26.2,46.87,41.76,.85,.87,1.68,1.74,2.52,2.62,.41,.44,.82,.87,1.24,1.31,12.22,12.95,23.98,26.95,35.2,41.88h0c.98,1.31,1.97,2.62,2.94,3.96,9.82,13.33,19.21,27.36,28.1,42.05l2.38,3.98h0c8.07,13.57,15.72,27.68,22.9,42.26,.27,.54,.54,1.08,.79,1.63,.39,.79,.77,1.58,1.15,2.38,3.04,6.26,5.97,12.6,8.82,19.02,3.42,7.72,6.72,15.55,9.87,23.49l1.58,4.03c5.44,13.94,10.46,28.22,15.02,42.79l1.26,4.06h0c4.32,14.11,8.22,28.49,11.64,43.1l.96,4.09c3.27,14.27,6.1,28.77,8.47,43.43l.65,4.13c.05,.26,.08,.5,.11,.75,2.23,14.55,3.74,28.95,4.53,43.13l.22,4.18h0c.02,.23,.03,.47,.04,.69,.54,11.98,.59,23.81,.13,35.46Z"/><path class="cls-4" d="M11949.92,1875.41c-3.65,15.61-13.37,27.02-25.84,36.38-11.32,8.49-24.01,14.33-37.46,18.49-11.94,3.7-18.78,11.31-19.32,24.07-.11,2.56-.37,5.11-.39,7.67-.23,38.46-2.38,76.78-7.24,114.97-3.66,28.91-12.58,55.47-31.29,78.28-8.56,10.41-16.99,20.95-25.31,31.56-6.42,8.19-12.93,16.34-18.75,24.95-1.14,1.67-2.17,3.37-3.11,5.1-26.25-3.84-51.29-10.28-74.93-19.06h0c-3.43-1.28-6.83-2.59-10.21-3.98-.58-.23-1.17-.47-1.74-.71h-.01c-10.1-4.18-19.94-8.81-29.48-13.85-5.47-2.88-10.86-5.92-16.14-9.09-13.35-8-26.05-16.85-38.07-26.49-1.89-1.52-3.76-3.04-5.6-4.6h-.01c-3.47-2.91-6.86-5.88-10.21-8.93-7.34-6.66-14.37-13.64-21.09-20.92-5.54-5.99-10.87-12.19-15.96-18.58h0c-1.19-1.5-2.38-3.01-3.54-4.52-9.57-12.4-18.33-25.5-26.22-39.23-.72-1.28-1.46-2.56-2.17-3.85-.82-1.48-1.64-2.96-2.44-4.46-.14-.26-.27-.51-.41-.78-.66-1.21-1.31-2.45-1.95-3.67-1.98-3.79-3.88-7.63-5.73-11.51h0c-.1-.22-.2-.42-.3-.63-.93-1.96-1.84-3.93-2.73-5.91-4.21-9.32-8.05-18.89-11.5-28.65l-.75-2.19-.75-2.19c-2.32-6.83-4.45-13.77-6.38-20.8-2.18-7.94-4.12-16.01-5.8-24.19-.07-.31-.13-.62-.19-.94h0c-.3-1.44-.57-2.87-.86-4.32-2.82-14.72-4.83-29.79-5.98-45.19v-.08c17.65-3.1,35.66-5.08,53.96-6.03,42.06-2.19,84.32-.72,126.49-.68,12.34,.01,15.86-3.38,14.47-15.51-.08-.68-.21-1.35-.3-2.03-2.66-19.21-3.85-38.61-.59-57.7,3.43-20.05-.48-37.99-9.51-55.81-10.25-20.24-22.8-38.82-36.86-56.5-13.04-16.39-23.99-33.96-30.87-53.96-7.15-20.74-12.45-41.92-14.62-63.72-1.06-10.6-1.6-21.57-.08-32.05,2-13.71,13.42-20.06,26.74-15.95,5.93,1.83,11.82,4.73,16.81,8.39,6.92,5.09,12.98,11.36,19.58,17.28-.28-1.96-.69-3.96-.83-5.98-.68-9.54,4.43-17.34,13.71-19.52,4.69-1.09,9.86-1.28,14.64-.59,9.85,1.42,18.27,6.43,26.09,12.39,13.59,10.35,24.9,22.81,34.19,37.12,15.58,24.01,24.33,50.7,30.14,78.4,4.21,20.03,7.51,40.26,11.29,60.38,2.37,12.64,9.76,19.22,22.25,20.58,8.99,.98,18,2.03,26.86,3.76,21.25,4.16,40.31,12.52,54.73,29.6,5.17,6.12,11.3,11.42,16.59,17.45,16.33,18.59,32.65,37.2,48.6,56.11,7.96,9.43,9.16,20.72,6.42,32.45Z"/></g></g></g></svg>