<?xml version="1.0" encoding="UTF-8"?><svg xmlns="http://www.w3.org/2000/svg" viewBox="0 0 12000 4200"><defs><style>.cls-1,.cls-2{fill:#fff;}.cls-3{fill:#fcc35e;}.cls-4,.cls-5{fill:#d5aa65;}.cls-2{stroke:#fff;stroke-miterlimit:10;stroke-width:2px;}.cls-5,.cls-6{mix-blend-mode:multiply;}.cls-7{isolation:isolate;}</style></defs><g class="cls-7"><g id="_Слой_1"><g><rect class="cls-1" width="12000" height="4200"/><g><rect class="cls-3" x="267.57" y="137" width="3590" height="3926"/><g><g><path class="cls-5" d="M1960.35,2594.06c11.87-34.89,102.77-254.74,167.05-146.37,.23,.43,.47,.86,.7,1.29l157.3,317.88c50.9,102.86,195.18,80.95,236.89-35.98h0c26.9-75.41,108.98-110.42,168.08-71.69h0c58.29,38.2,139.23,4.71,167.16-69.18l5.65-14.96c14.6-38.6,43.07-70.1,78.27-86.59l54.44-25.49c33.92-15.88,89.44-34.9,100.75-66.49,12.42-31.18-18.8-76.43-33.99-110.09l-24.38-54.01c-15.76-34.92-16.43-76.96-1.83-115.56l5.65-14.96c27.94-73.89-11.24-150.84-80.91-158.94h0c-70.64-8.21-109.68-87.05-79.94-161.43l11.09-27.75c41.78-104.49-44.27-202.76-141.27-161.36l-357.35,152.54c-78.44,33.48-154.69-30.26-142.94-119.5l4.16-31.57c.11-.82,.36-1.63,.73-2.37,105.94-210.74-11.6-278.03-189.46-84.41l-45.42,52.48c-70.04,80.93-187.5,47.87-199.32-56.11-.06-.54-.05-1.09,.01-1.64,15.74-124.94-85.04-166.13-189.29-52.47l-27.75,32.03c-59.35,68.52-157.83,57.23-190.52-21.84l-2.2-5.32c-.16-.39-.28-.8-.36-1.22-15.32-82.95-98.43-88.95-160.22-39.31-.49,.4-.8,.76-.91,.87-120.98,117.14-184.17,202-196.32,218.83-1.44,1.99-2.38,4.31-2.73,6.74-3.69,25.24-24.29,176.48-11.44,331.13,.02,.18,0,.65,.11,1.26,13.9,77.02,81,125.36,147.81,72.13,.34-.27,.7-.51,1.08-.7l5.21-2.64c77.42-39.23,159.71,14.88,159.19,104.69l-.24,41.99c3.55,152.66,107.48,185.54,178.64,80.65,.31-.46,.68-.89,1.08-1.25,78.15-71.43,189.32-21.76,188.67,84.28l-.42,68.76c6.25,260.43,179.31,402.77,239.07,175.02,.14-.47,.28-.93,.42-1.4Z"/><path class="cls-5" d="M1949.21,2659.55c13.24-38.91,114.61-284.07,186.28-163.22,.26,.48,.52,.96,.78,1.43l175.41,354.49c56.76,114.71,217.65,90.27,264.16-40.12h0c29.99-84.09,121.53-123.13,187.44-79.94h0c65,42.6,155.26,5.25,186.41-77.14l6.31-16.68c16.28-43.05,48.03-78.18,87.28-96.56l60.7-28.43c37.83-17.71,99.74-38.92,112.35-74.14,13.85-34.77-20.96-85.23-37.9-122.76l-27.18-60.23c-17.58-38.94-18.32-85.82-2.04-128.87l6.31-16.68c31.15-82.39-12.53-168.2-90.23-177.24h0c-78.77-9.16-122.31-97.07-89.15-180.02l12.37-30.94c46.59-116.52-49.37-226.11-157.54-179.94l-398.49,170.1c-87.48,37.34-172.5-33.74-159.4-133.25l4.64-35.21c.12-.91,.4-1.81,.82-2.64,118.14-235-12.94-310.05-211.28-94.13l-50.65,58.53c-78.11,90.25-209.09,53.39-222.27-62.57-.07-.6-.06-1.22,.02-1.83,17.55-139.33-94.83-185.26-211.09-58.52l-30.94,35.72c-66.18,76.41-176.01,63.82-212.45-24.36l-2.45-5.93c-.18-.43-.31-.89-.4-1.36-17.09-92.5-109.76-99.19-178.67-43.84-.55,.44-.89,.85-1.02,.97-134.92,130.63-205.38,225.26-218.92,244.03-1.6,2.22-2.65,4.81-3.05,7.51-4.12,28.14-27.08,196.8-12.76,369.25,.02,.2,0,.73,.13,1.4,15.51,85.89,90.32,139.8,164.83,80.44,.38-.3,.79-.57,1.21-.78l5.81-2.94c86.33-43.75,178.1,16.59,177.52,116.74l-.27,46.82c3.96,170.24,119.86,206.9,199.21,89.94,.35-.51,.75-.99,1.2-1.4,87.15-79.65,211.12-24.27,210.4,93.98l-.47,76.68c6.97,290.42,199.96,449.15,266.6,195.17,.16-.52,.31-1.04,.46-1.56Z"/><path class="cls-5" d="M1920.79,2735.05c15.7-46.15,135.94-336.95,220.96-193.61,.31,.56,.62,1.14,.92,1.7l208.06,420.47c67.33,136.06,258.17,107.07,313.33-47.59h0c35.58-99.74,144.16-146.05,222.33-94.82h0c77.1,50.53,184.16,6.22,221.11-91.5l7.48-19.78c19.31-51.06,56.97-92.73,103.52-114.53l72-33.72c44.87-21.01,118.31-46.16,133.27-87.94,16.43-41.25-24.87-101.1-44.96-145.62l-32.24-71.44c-20.85-46.19-21.73-101.8-2.42-152.86l7.48-19.78c36.95-97.73-14.86-199.52-107.02-210.23h0c-93.44-10.86-145.08-115.14-105.74-213.53l14.67-36.7c55.26-138.21-58.56-268.2-186.87-213.43l-472.67,201.76c-103.76,44.29-204.62-40.02-189.07-158.06l5.5-41.76c.14-1.08,.48-2.15,.97-3.14,140.13-278.75-15.35-367.76-250.6-111.65l-60.08,69.42c-92.65,107.05-248.01,63.32-263.65-74.21-.08-.71-.07-1.44,.02-2.17,20.82-165.26-112.49-219.75-250.38-69.41l-36.7,42.37c-78.5,90.63-208.77,75.7-252-28.89l-2.91-7.03c-.21-.51-.37-1.06-.47-1.61-20.27-109.72-130.19-117.65-211.93-52-.65,.52-1.05,1-1.21,1.15-160.03,154.94-243.61,267.19-259.68,289.46-1.9,2.63-3.15,5.71-3.61,8.91-4.89,33.38-32.12,233.43-15.13,437.99,.02,.24,0,.86,.15,1.66,18.39,101.88,107.14,165.82,195.51,95.41,.45-.36,.93-.67,1.43-.93l6.89-3.49c102.4-51.9,211.25,19.68,210.57,138.47l-.32,55.54c4.7,201.93,142.17,245.42,236.29,106.68,.41-.61,.89-1.17,1.43-1.66,103.37-94.48,250.42-28.79,249.56,111.47l-.56,90.95c8.27,344.48,237.18,532.75,316.22,231.5,.18-.62,.37-1.23,.55-1.85Z"/></g><path class="cls-5" d="M2611.09,1771.79l-270.13,78.22c-59.3,17.17-118.38-31.92-110.76-92.04l2.7-21.27c.07-.55,.25-1.09,.52-1.57,77.61-136.28-13.01-190.81-145.69-71.45l-33.84,32.55c-52.18,50.2-142.22,19.07-152.79-52.83-.05-.37-.06-.75-.01-1.12,10.13-84.22-67.32-119.7-145.09-49.62l-20.67,19.87c-44.22,42.5-119.46,27.62-145.56-28.78l-1.76-3.79c-.13-.27-.22-.57-.29-.86-12.92-57.79-76.37-67.93-122.73-38.51-.37,.24-.6,.46-.68,.53-89.37,70.36-136.19,123.27-146.01,134.79-69.3-25.82-121.77-42.78-149.54-47.06l145.85,61.9c-4.03,32.14-13.04,121.94-2.43,215.41,.01,.13,.01,.45,.1,.87,11.75,53.63,63.63,91.54,113.76,60.03,.25-.16,.53-.29,.81-.4l3.93-1.42c58.43-21.18,121.97,21.79,122.92,83.11l.45,28.67c4.99,104.57,84.71,134.59,137.39,68.1,.23-.29,.5-.56,.8-.78,58.5-43.12,144-1.1,145.09,71.3l.71,46.95c8.67,178.39,142.72,288.23,184.87,136.97,.1-.31,.2-.61,.3-.93,8.53-22.97,74.53-166.57,125.16-87.85,.18,.31,.37,.62,.55,.93l124.67,228.63c40.34,73.98,150,69.51,180.05-7.35h0c19.37-49.56,81.43-67.51,127.06-36.75h0c45.01,30.34,106.21,13.34,126.4-35.11l4.09-9.81c10.55-25.31,31.78-44.76,58.37-53.47l41.12-13.46c25.62-8.38,67.66-17.34,75.81-38.1,9-20.4-15.48-53.59-27.56-77.69l-19.39-38.67c-12.54-25-13.68-53.78-3.13-79.09l4.09-9.81c20.19-48.45-10.83-103.87-64.06-114.48h0c-53.97-10.75-84.92-67.46-63.36-116.11l8.04-18.15c30.28-68.35-36.78-141.76-110.11-120.52Z"/></g><g><g><path d="M1316.66,3231.64h6.33v88.13h44.48v3.54h-50.8v-91.68Z"/><path d="M1387.59,3231.64h6.33v91.68h-6.33v-91.68Z"/><path d="M1572.58,3231.64v91.68h-6.33v-85.81l-67.86,87.52-67.48-88.62v86.91h-6.33v-91.68h9.01l64.8,85.07,65.37-85.07h8.82Z"/><path d="M1603.83,3231.64h6.33v91.68h-6.33v-91.68Z"/><path d="M1663.45,3235.18h-33.17v-3.54h72.27v3.54h-32.78v88.13h-6.33v-88.13Z"/><path d="M1721.73,3231.64h51.57v3.54h-45.24v49.87h37.77v3.54h-37.77v31.17h45.24v3.54h-51.57v-91.68Z"/><path d="M1793.43,3231.64h6.14c22.88,0,40.55,3.97,53.01,11.92,12.46,7.95,18.69,19.25,18.69,33.92,0,8.39-3.2,16.09-9.59,23.1-6.39,7.01-15.05,12.55-25.98,16.62-10.93,4.08-22.98,6.11-36.14,6.11h-6.14v-91.68Zm7.67,87.89c11.76,0,22.49-1.85,32.21-5.56,9.71-3.71,17.41-8.78,23.1-15.22,5.69-6.44,8.53-13.53,8.53-21.27,0-13.53-5.53-23.94-16.58-31.23-11.06-7.29-26.81-10.94-47.26-10.94h-1.53v84.22h1.53Z"/><path d="M1959.63,3235.18h-33.17v-3.54h72.27v3.54h-32.78v88.13h-6.33v-88.13Z"/><path d="M2018.87,3231.64h6.33v91.68h-6.33v-91.68Z"/><path d="M2203.87,3231.64v91.68h-6.33v-85.81l-67.86,87.52-67.48-88.62v86.91h-6.33v-91.68h9.01l64.8,85.07,65.37-85.07h8.82Z"/><path d="M2234.16,3231.64h51.57v3.54h-45.24v49.87h37.77v3.54h-37.77v31.17h45.24v3.54h-51.57v-91.68Z"/></g><g><path d="M2394.01,3321.48c-11.5-4.48-20.61-10.45-27.32-17.91-6.71-7.46-10.06-15.46-10.06-24.02s3.38-16.4,10.16-23.77c6.77-7.37,15.91-13.24,27.41-17.6,11.5-4.36,23.96-6.54,37.38-6.54s26.01,2.16,37.38,6.48c11.37,4.32,20.42,10.17,27.13,17.54,6.71,7.38,10.06,15.34,10.06,23.9s-3.35,16.93-10.06,24.39c-6.71,7.46-15.79,13.37-27.22,17.72-11.44,4.36-23.93,6.54-37.48,6.54s-25.88-2.24-37.38-6.72Zm71.51-2.87c10.48-4.03,18.82-9.49,25.02-16.38,6.2-6.89,9.3-14.36,9.3-22.43s-3.07-15.4-9.2-22.25c-6.14-6.85-14.44-12.28-24.92-16.32-10.48-4.03-21.86-6.05-34.12-6.05s-23.84,2.02-34.32,6.05c-10.48,4.03-18.82,9.47-25.02,16.32-6.2,6.84-9.3,14.26-9.3,22.25s3.1,15.54,9.3,22.43c6.2,6.89,14.54,12.35,25.02,16.38,10.48,4.03,21.86,6.05,34.12,6.05s23.64-2.02,34.12-6.05Z"/><path d="M2537.79,3243.25v82.51h-5.56v-93.02l105.82,83.73v-82.39h5.56v93.02l-105.82-83.85Z"/><path d="M2673.9,3234.08h6.33v88.13h44.48v3.54h-50.8v-91.68Z"/><path d="M2808.48,3234.08l-42.75,55.01v36.67h-6.33v-36.67l-43.71-55.01h6.9l40.07,50.24,39.3-50.24h6.52Z"/></g></g><g><g><g><path class="cls-2" d="M1892.53,2371.75c-4.6-2.48-8.22-6.03-10.83-10.63-2.62-4.6-3.93-9.97-3.93-16.11v-73.8h4.47v73.67c0,5.42,1.13,10.14,3.39,14.15,2.26,4.02,5.35,7.11,9.28,9.28,3.93,2.17,8.33,3.25,13.2,3.25s9.28-1.06,13.2-3.18c3.93-2.12,7-5.19,9.21-9.21,2.21-4.02,3.32-8.78,3.32-14.29v-73.67h4.47v73.53c0,6.23-1.27,11.67-3.79,16.32-2.53,4.65-6.07,8.22-10.63,10.7-4.56,2.48-9.77,3.72-15.64,3.72s-11.1-1.24-15.71-3.72Z"/><path class="cls-2" d="M1959.56,2271.2h4.47c10.65,0,18.96,2.82,24.92,8.46,5.96,5.64,8.94,13.2,8.94,22.68,0,6.59-1.45,12.44-4.33,17.54-2.89,5.1-6.82,9.03-11.78,11.78-4.97,2.75-10.52,4.13-16.66,4.13h-1.08v36.97h-4.47v-101.56Zm5.82,60.67c8.21,0,14.94-2.55,20.18-7.65,5.23-5.1,7.85-12.3,7.85-21.6s-2.46-15.64-7.38-20.38c-4.92-4.74-11.9-7.11-20.92-7.11h-1.08v56.74h1.35Z"/><path class="cls-2" d="M2058.69,2275.13h-23.43v-3.93h51.05v3.93h-23.16v97.64h-4.47v-97.64Z"/><path class="cls-2" d="M2113.8,2368.02c-8.13-4.96-14.56-11.58-19.3-19.84-4.74-8.26-7.11-17.13-7.11-26.61s2.39-18.17,7.18-26.34c4.78-8.17,11.24-14.67,19.36-19.5,8.13-4.83,16.93-7.24,26.41-7.24s18.37,2.39,26.41,7.18c8.03,4.79,14.42,11.26,19.16,19.43,4.74,8.17,7.11,16.99,7.11,26.47s-2.37,18.76-7.11,27.02c-4.74,8.26-11.15,14.81-19.23,19.64-8.08,4.83-16.91,7.24-26.47,7.24s-18.28-2.48-26.41-7.45Zm50.51-3.18c7.4-4.47,13.29-10.52,17.67-18.15,4.38-7.63,6.57-15.91,6.57-24.85s-2.17-17.06-6.5-24.65c-4.33-7.58-10.2-13.61-17.6-18.08-7.4-4.47-15.44-6.7-24.1-6.7s-16.84,2.23-24.24,6.7c-7.4,4.47-13.29,10.49-17.67,18.08-4.38,7.58-6.57,15.8-6.57,24.65s2.19,17.22,6.57,24.85c4.38,7.63,10.27,13.68,17.67,18.15,7.4,4.47,15.44,6.7,24.1,6.7s16.7-2.23,24.1-6.7Z"/></g><g><path class="cls-2" d="M2259.93,2368.97c-8.18-3.91-15.18-9.31-21-16.2-5.83-6.89-9.74-14.61-11.73-23.13h6.61c3.41,11.51,9.95,20.93,19.62,28.25,9.66,7.32,20.4,10.98,32.2,10.98,9.81,0,18.83-2.45,27.08-7.36,8.24-4.9,14.78-11.51,19.62-19.83,4.83-8.32,7.25-17.38,7.25-27.19s-2.24-18.9-6.72-27.29c-4.48-8.39-10.52-15.03-18.12-19.94-7.61-4.9-15.89-7.36-24.84-7.36s-16.77,2.13-24.31,6.4c-7.54,4.26-14.22,10.16-20.04,17.7h-7.46l7.46-71.22h83.16v6.18h-77.4l-5.76,54.8c5.54-6.4,12.15-11.3,19.83-14.71,7.68-3.41,15.85-5.12,24.52-5.12,10.37,0,19.86,2.74,28.46,8.21,8.6,5.47,15.42,12.83,20.47,22.07,5.04,9.24,7.57,19.33,7.57,30.28s-2.74,21.04-8.21,30.28c-5.47,9.24-12.87,16.56-22.17,21.96-9.31,5.4-19.44,8.1-30.38,8.1-8.96,0-17.52-1.96-25.69-5.86Z"/><path class="cls-2" d="M2405.45,2364.28c-12.65-7.46-22.64-17.55-29.96-30.28-7.32-12.72-10.98-26.55-10.98-41.47s3.73-28.07,11.19-40.73c7.46-12.65,17.55-22.71,30.28-30.17,12.72-7.46,26.47-11.19,41.26-11.19s28.71,3.73,41.36,11.19c12.65,7.46,22.71,17.52,30.17,30.17,7.46,12.65,11.19,26.44,11.19,41.36s-3.7,28.47-11.09,41.04c-7.39,12.58-17.41,22.6-30.06,30.06-12.65,7.46-26.51,11.19-41.58,11.19s-29.14-3.73-41.79-11.19Zm79.64-5.33c11.58-6.89,20.79-16.17,27.61-27.83,6.82-11.65,10.23-24.38,10.23-38.17s-3.41-26.33-10.23-38.06c-6.82-11.73-16.03-21.04-27.61-27.93-11.59-6.89-24.2-10.34-37.85-10.34s-26.26,3.45-37.85,10.34c-11.59,6.9-20.79,16.2-27.61,27.93-6.82,11.73-10.23,24.41-10.23,38.06s3.41,26.51,10.23,38.17c6.82,11.66,16.02,20.93,27.61,27.83,11.58,6.9,24.2,10.34,37.85,10.34s26.26-3.45,37.85-10.34Z"/><path class="cls-2" d="M2559.61,2275.15c-5.12-3.2-9.21-7.5-12.26-12.9-3.06-5.4-4.58-11.16-4.58-17.27s1.56-11.83,4.69-17.16c3.13-5.33,7.36-9.56,12.69-12.69,5.33-3.12,11.19-4.69,17.59-4.69s12.22,1.57,17.48,4.69c5.26,3.13,9.45,7.36,12.58,12.69,3.12,5.33,4.69,11.05,4.69,17.16s-1.53,11.87-4.58,17.27c-3.06,5.4-7.18,9.7-12.37,12.9-5.19,3.2-10.84,4.8-16.95,4.8h-2.13c-6.11,0-11.73-1.6-16.84-4.8Zm105.12-62.37h8.32l-119.19,159.92h-7.89l118.76-159.92Zm-73.03,57.14c4.33-2.56,7.75-6.04,10.23-10.45,2.49-4.4,3.73-9.1,3.73-14.07,0-7.68-2.7-14.43-8.1-20.26-5.54-5.68-12.15-8.53-19.83-8.53-4.98,0-9.67,1.32-14.07,3.94-4.41,2.63-7.93,6.15-10.55,10.55-2.63,4.41-3.94,9.1-3.94,14.07s1.31,9.67,3.94,14.07c2.63,4.41,6.15,7.93,10.55,10.55,4.4,2.63,9.1,3.94,14.07,3.94s9.63-1.28,13.97-3.84Zm36.89,100.32c-5.19-3.2-9.31-7.5-12.37-12.9-3.06-5.4-4.58-11.16-4.58-17.27s1.56-11.83,4.69-17.16c3.12-5.33,7.39-9.56,12.79-12.69,5.4-3.12,11.3-4.69,17.7-4.69s12.26,1.57,17.59,4.69c5.33,3.13,9.56,7.36,12.69,12.69,3.12,5.33,4.69,11.05,4.69,17.16s-1.57,11.87-4.69,17.27c-3.13,5.4-7.32,9.7-12.58,12.9-5.26,3.2-10.95,4.8-17.06,4.8h-2.13c-5.97,0-11.55-1.6-16.74-4.8Zm32.2-5.33c4.33-2.63,7.78-6.15,10.34-10.55,2.56-4.4,3.84-9.1,3.84-14.07s-1.28-9.66-3.84-14.07c-2.56-4.4-6.01-7.92-10.34-10.55-4.34-2.63-8.99-3.94-13.97-3.94s-9.63,1.32-13.97,3.94c-4.34,2.63-7.82,6.15-10.45,10.55-2.63,4.41-3.94,9.1-3.94,14.07s1.31,9.67,3.94,14.07c2.63,4.41,6.11,7.93,10.45,10.55,4.33,2.63,8.99,3.94,13.97,3.94s9.63-1.31,13.97-3.94Z"/></g><g><path class="cls-2" d="M2745.79,2368.02c-8.13-4.96-14.56-11.58-19.3-19.84-4.74-8.26-7.11-17.13-7.11-26.61s2.39-18.17,7.18-26.34c4.78-8.17,11.24-14.67,19.36-19.5,8.13-4.83,16.93-7.24,26.41-7.24s18.37,2.39,26.41,7.18c8.03,4.79,14.42,11.26,19.16,19.43,4.74,8.17,7.11,16.99,7.11,26.47s-2.37,18.76-7.11,27.02c-4.74,8.26-11.15,14.81-19.23,19.64-8.08,4.83-16.91,7.24-26.47,7.24s-18.28-2.48-26.41-7.45Zm50.51-3.18c7.4-4.47,13.29-10.52,17.67-18.15,4.38-7.63,6.57-15.91,6.57-24.85s-2.17-17.06-6.5-24.65c-4.33-7.58-10.2-13.61-17.6-18.08-7.4-4.47-15.44-6.7-24.1-6.7s-16.84,2.23-24.24,6.7c-7.4,4.47-13.29,10.49-17.67,18.08-4.38,7.58-6.57,15.8-6.57,24.65s2.19,17.22,6.57,24.85c4.38,7.63,10.27,13.68,17.67,18.15,7.4,4.47,15.44,6.7,24.1,6.7s16.7-2.23,24.1-6.7Z"/><path class="cls-2" d="M2843.42,2271.2h36.16v3.93h-31.69v54.98h26.41v3.93h-26.41v38.73h-4.47v-101.56Z"/><path class="cls-2" d="M2893.8,2271.2h36.16v3.93h-31.69v54.98h26.41v3.93h-26.41v38.73h-4.47v-101.56Z"/></g></g><g><path class="cls-1" d="M1560.7,2154.35c33.42,0,74.8-46.68,108.22-98.67,2.65-4.24,5.84-5.84,9.02-5.84,5.84,0,10.61,4.77,10.61,10.61,0,2.12-.53,4.77-2.12,7.43-36.08,56.24-80.11,108.76-129.98,108.76-36.08,0-63.66-24.4-63.66-68.44,0-14.33,3.18-28.12,7.43-37.14-45.62,61.54-108.22,109.29-176.66,109.29-74.27,0-128.38-46.68-128.38-129.98,0-108.23,82.76-212.74,183.56-266.32v-9.02c0-38.2,20.69-64.19,31.3-64.19,7.43,0,12.73,4.77,12.73,11.67,0,3.71-1.59,6.37-5.3,11.14-5.31,7.43-11.67,20.16-11.67,36.61v.53c36.61-15.92,75.33-24.93,112.47-24.93,50.93,0,83.29,21.75,93.9,53.05l9.55-21.22c5.31-11.67,12.2-18.57,19.1-18.57,9.55,0,15.38,6.37,15.38,15.38,0,18.57-16.45,52.52-47.75,102.92-9.02,18.04-38.73,80.64-58.89,133.16-18.04,45.63-26,77.46-26,98.15,0,29.18,15.92,45.62,37.14,45.62Zm10.61-261.54c-16.45,9.02-35.55,14.33-55.7,14.33-62.07,0-116.18-40.85-132.1-97.08-87.54,51.99-156.5,147.48-156.5,240.32,0,68.97,46.16,105.04,97.61,105.04,61.01,0,117.24-47.22,159.68-104.51,27.06-37.14,43.5-64.19,64.19-108.23l22.81-49.87Zm-163.4-96.02c10.61,53.58,53.58,88.6,107.69,88.6,42.97,0,75.86-28.65,75.86-62.07s-27.06-54.11-73.21-54.11c-37.14,0-74.8,10.08-110.35,27.59Z"/><path class="cls-1" d="M1935.78,2055.67c2.65-4.24,5.83-5.84,9.02-5.84,5.83,0,10.61,4.77,10.61,10.61,0,2.12-.53,4.77-2.12,7.43-32.89,50.93-71.62,99.21-115.12,99.21-27.59,0-50.93-19.1-50.93-55.17,0-2.65,0-4.77,.53-6.9-24.93,35.01-52.52,62.07-81.17,62.07s-48.81-18.57-48.81-55.7c0-35.01,21.22-87,39.79-123.61,16.45-31.83,24.93-45.09,32.89-45.09,9.02,0,14.32,5.31,14.32,12.73,0,9.02-7.96,24.94-22.81,48.81-16.98,35.01-35.01,77.99-35.01,108.22,0,23.34,10.08,31.83,22.28,31.83,23.87,0,48.81-28.12,73.21-63.13,18.57-26.53,36.08-66.84,50.4-100.27,12.2-28.12,19.63-38.2,28.12-38.2,9.02,0,14.32,5.31,14.32,12.73,0,9.02-9.02,24.94-23.87,48.81-16.45,35.54-35.54,77.99-35.54,107.69,0,23.34,10.61,33.95,26.52,33.95,28.12,0,63.13-43.5,93.37-90.19Z"/><path class="cls-1" d="M2076.89,2055.67c2.65-4.24,5.31-6.37,9.02-6.37,5.31,0,11.14,4.25,11.14,9.55,0,3.71-1.06,5.83-2.65,8.49-35.01,54.64-72.15,99.74-115.12,99.74-32.36,0-53.05-20.16-53.05-59.42,0-33.42,21.22-90.19,46.16-144.3h-24.93c-8.49,0-13.79-3.18-13.79-10.61,0-6.9,5.31-10.08,13.79-10.08h35.01c9.55-19.63,19.63-39.26,28.65-56.23,16.44-31.83,24.93-45.09,32.89-45.09,9.02,0,14.32,5.31,14.32,12.73,0,9.02-7.96,24.93-22.81,48.81l-20.16,39.79h30.24c8.49,0,13.26,4.24,13.26,9.55,0,7.43-5.31,11.14-13.26,11.14h-40.32c-26.53,56.24-49.87,114.06-49.87,148.01,0,24.4,11.67,34.48,27.59,34.48,28.12,0,64.72-41.91,93.9-90.19Z"/><path class="cls-1" d="M2343.74,2055.67c2.65-4.24,5.84-5.84,9.02-5.84,5.84,0,10.61,4.77,10.61,10.61,0,2.12-.53,4.77-2.12,7.43-32.89,50.93-71.62,99.21-115.12,99.21-27.59,0-50.93-19.1-50.93-55.17,0-2.65,0-4.77,.53-6.9-24.93,35.01-52.52,62.07-81.17,62.07s-48.81-18.57-48.81-55.7c0-35.01,21.22-87,39.79-123.61,16.45-31.83,24.93-45.09,32.89-45.09,9.02,0,14.32,5.31,14.32,12.73,0,9.02-7.96,24.94-22.81,48.81-16.98,35.01-35.01,77.99-35.01,108.22,0,23.34,10.08,31.83,22.28,31.83,23.87,0,48.81-28.12,73.21-63.13,18.57-26.53,36.07-66.84,50.4-100.27,12.2-28.12,19.63-38.2,28.12-38.2,9.02,0,14.32,5.31,14.32,12.73,0,9.02-9.02,24.94-23.87,48.81-16.45,35.54-35.54,77.99-35.54,107.69,0,23.34,10.61,33.95,26.53,33.95,28.12,0,63.13-43.5,93.37-90.19Z"/><path class="cls-1" d="M2647.19,1984.05c0,45.63-48.81,90.72-48.81,137.93,0,15.38,8.49,23.87,21.75,23.87,28.12,0,63.13-43.5,93.37-90.19,2.65-4.24,5.83-5.84,9.02-5.84,5.84,0,10.61,4.77,10.61,10.61,0,2.12-.53,4.77-2.12,7.43-32.89,50.93-71.62,99.21-115.12,99.21-27.59,0-45.63-18.04-45.63-48.81,0-47.75,49.87-98.67,49.87-136.34,0-11.14-5.83-17.51-15.92-17.51-22.28,0-59.95,36.07-83.29,65.78-21.22,27.06-41.38,78.52-54.64,120.96-2.12,6.9-5.31,15.92-15.92,15.92-5.31,0-11.67-3.18-11.67-11.14,0-4.24,1.59-8.49,3.18-13.79,12.2-35.54,33.42-91.25,46.68-129.45,4.24-13.26,6.9-24.4,6.9-30.77,0-11.14-5.84-17.51-16.45-17.51-24.93,0-63.66,36.07-87,65.78-21.22,27.06-41.91,78.52-55.17,120.96-2.12,6.9-5.31,15.92-15.92,15.92-5.31,0-10.61-3.18-10.61-10.61,0-4.77,.53-7.43,2.12-12.73,20.69-63.66,48.81-133.69,71.09-187.27,3.71-9.02,9.55-13.79,16.98-13.79,7.96,0,12.73,4.77,12.73,11.67,0,6.36-4.24,16.98-12.73,31.3l-6.9,15.91c26.53-31.3,58.89-58.89,87-58.89,26,0,41.91,15.92,41.91,41.38,0,7.43-1.59,14.33-4.24,22.81,26.53-32.89,60.48-64.19,86.47-64.19,24.4,0,42.44,16.45,42.44,41.38Z"/><path class="cls-1" d="M2912.98,2117.21c2.65-4.77,5.83-6.36,8.49-6.36,4.24,0,8.49,3.71,8.49,9.02,0,14.85-24.93,47.22-54.11,47.22-27.59,0-45.62-18.04-45.62-48.81,0-47.22,49.87-98.15,49.87-135.28,0-11.67-6.9-18.57-18.57-18.57-28.12,0-74.27,34.48-100.27,65.78-21.75,26.53-41.38,78.52-54.64,120.96-2.12,6.9-5.31,15.92-15.92,15.92-5.31,0-10.61-3.18-10.61-10.61,0-4.77,.53-7.43,2.12-12.73,20.69-63.66,48.81-133.69,71.09-187.27,3.71-9.02,9.55-13.79,16.98-13.79,7.96,0,12.73,4.77,12.73,11.67,0,6.36-4.77,16.98-12.73,30.77l-7.43,18.04c29.71-32.36,68.44-60.48,99.21-60.48,26,0,45.09,16.98,45.09,42.44,0,45.09-48.81,90.19-48.81,136.87,0,15.38,7.96,23.87,20.69,23.87s24.93-13.79,33.95-28.65Z"/></g><g><g><path class="cls-2" d="M2116.8,1852.13v-7.95c2.65,5.89,6.5,10.51,11.56,13.84,5.06,3.34,11.12,5.01,18.19,5.01,4.91,0,9.45-1.08,13.62-3.24,4.17-2.16,7.49-5.2,9.94-9.13,2.45-3.93,3.68-8.44,3.68-13.55,0-4.61-.79-8.59-2.36-11.93-1.57-3.34-4.17-6.55-7.81-9.65-3.63-3.09-8.89-6.75-15.76-10.97l-4.71-2.95c-4.32-2.65-7.81-5.01-10.46-7.07s-4.96-4.47-6.92-7.22c-2.55-3.83-3.83-8.25-3.83-13.26,0-6.68,2.16-11.88,6.48-15.61,4.32-3.73,9.82-5.6,16.5-5.6,9.03,0,16.2,3.34,21.5,10.02v7.51c-2.26-4.12-5.35-7.36-9.28-9.72-3.93-2.36-8.25-3.53-12.96-3.53s-9.03,1.52-12.37,4.57c-3.34,3.04-5.01,7.12-5.01,12.22s1.55,9.3,4.64,12.89c3.09,3.59,8.32,7.49,15.69,11.71,9.03,5.3,16.05,10.11,21.06,14.43,3.53,3.24,6.11,6.83,7.73,10.75,1.62,3.93,2.43,8.3,2.43,13.11,0,6.09-1.42,11.44-4.27,16.05-2.85,4.62-6.77,8.17-11.78,10.68-5.01,2.5-10.65,3.76-16.94,3.76-12.27,0-21.8-5.06-28.57-15.17Z"/><path class="cls-2" d="M2196.03,1754.77h4.86c11.58,0,20.62,3.07,27.1,9.21,6.48,6.14,9.72,14.36,9.72,24.67,0,7.17-1.57,13.53-4.71,19.07-3.14,5.55-7.41,9.82-12.81,12.81-5.4,3-11.44,4.49-18.12,4.49h-1.18v40.21h-4.86v-110.46Zm6.33,65.98c8.93,0,16.25-2.77,21.94-8.32,5.69-5.55,8.54-13.38,8.54-23.49s-2.68-17.01-8.03-22.17c-5.35-5.15-12.94-7.73-22.75-7.73h-1.18v61.71h1.47Z"/><path class="cls-2" d="M2254.5,1754.77h39.62v4.27h-34.76v60.09h29.01v4.27h-29.01v37.56h34.76v4.27h-39.62v-110.46Z"/><path class="cls-2" d="M2333,1860.6c-8.64-5.06-15.49-12.03-20.55-20.91-5.06-8.89-7.58-18.88-7.58-29.97s2.63-20.47,7.88-29.31c5.25-8.84,12.27-15.81,21.06-20.91,8.79-5.1,18.14-7.66,28.06-7.66,6.87,0,12.32,.61,16.35,1.84,4.02,1.23,8.69,3.36,13.99,6.41v5.45c-5.01-3.44-9.65-5.87-13.92-7.29-4.27-1.42-9.6-2.14-15.98-2.14-9.72,0-18.58,2.48-26.58,7.44-8,4.96-14.34,11.59-19,19.88-4.66,8.3-7,17.21-7,26.73s2.36,18.56,7.07,26.81c4.71,8.25,10.97,14.8,18.78,19.66,7.81,4.86,16.22,7.29,25.26,7.29,6.48,0,12.13-.76,16.94-2.28,4.81-1.52,9.62-3.9,14.43-7.14v5.45c-4.71,2.85-9.55,4.93-14.51,6.26-4.96,1.33-10.38,1.99-16.27,1.99-10.31,0-19.79-2.53-28.43-7.58Z"/><path class="cls-2" d="M2413.86,1754.77h4.86v110.46h-4.86v-110.46Z"/><path class="cls-2" d="M2546.11,1865.24h-5.15l-20.91-42.12h-58.62l-20.47,42.12h-5.15l55.08-113.11,55.23,113.11Zm-27.84-46.39l-27.69-56.11-27.1,56.11h54.79Z"/><path class="cls-2" d="M2562.46,1754.77h4.86v106.19h34.17v4.27h-39.03v-110.46Z"/></g><g><path class="cls-2" d="M2637.46,1853.01v-7.95c2.65,5.89,6.5,10.51,11.56,13.84,5.06,3.34,11.12,5.01,18.19,5.01,4.91,0,9.45-1.08,13.62-3.24,4.17-2.16,7.49-5.2,9.94-9.13,2.45-3.93,3.68-8.44,3.68-13.55,0-4.61-.79-8.59-2.36-11.93-1.57-3.34-4.17-6.55-7.81-9.65-3.63-3.09-8.89-6.75-15.76-10.97l-4.71-2.95c-4.32-2.65-7.81-5.01-10.46-7.07-2.65-2.06-4.96-4.47-6.92-7.22-2.55-3.83-3.83-8.25-3.83-13.26,0-6.68,2.16-11.88,6.48-15.61,4.32-3.73,9.82-5.6,16.5-5.6,9.03,0,16.2,3.34,21.5,10.02v7.51c-2.26-4.12-5.35-7.36-9.28-9.72-3.93-2.36-8.25-3.53-12.96-3.53s-9.03,1.52-12.37,4.57c-3.34,3.04-5.01,7.12-5.01,12.22s1.55,9.3,4.64,12.89c3.09,3.59,8.32,7.49,15.69,11.71,9.03,5.3,16.05,10.11,21.06,14.43,3.53,3.24,6.11,6.83,7.73,10.75,1.62,3.93,2.43,8.3,2.43,13.11,0,6.09-1.42,11.44-4.27,16.05-2.85,4.62-6.78,8.17-11.78,10.68-5.01,2.5-10.65,3.76-16.94,3.76-12.28,0-21.8-5.06-28.57-15.17Z"/><path class="cls-2" d="M2820.23,1866.12h-5.15l-20.91-42.12h-58.62l-20.47,42.12h-5.15l55.08-113.11,55.23,113.11Zm-27.84-46.39l-27.69-56.11-27.1,56.11h54.79Z"/><path class="cls-2" d="M2836.58,1755.66h4.86v106.19h34.17v4.27h-39.03v-110.46Z"/><path class="cls-2" d="M2890.34,1755.66h39.62v4.27h-34.76v60.09h29.01v4.27h-29.01v37.56h34.76v4.27h-39.62v-110.46Z"/></g></g></g></g><g><rect class="cls-3" x="4205" y="137" width="3590" height="3926"/><g><path class="cls-5" d="M6269.8,1034.93c40.94,16.86,50.57,0,57.79,50.57,7.22,50.57,57.79,127.63,130.04,62.61,72.24-65.02,89.1-33.71,96.32-7.22,7.22,26.49,36.12,14.45,67.43,19.26s21.67,28.9,31.31,38.53c9.63,9.63,43.35-28.9,48.16,0,4.82,28.9,2.41,69.84,43.35,101.14,40.94,31.31,19.26,69.84,50.57,77.06,31.31,7.22,57.79-16.86,62.61,21.67,4.82,38.53,28.9,62.61,50.57,98.73,21.67,36.12-2.41,40.94,12.04,77.06,14.45,36.12,62.61,62.61,50.57,113.18-12.04,50.57-4.82,43.35,14.45,91.51,19.26,48.16,26.49,43.35,16.86,79.47-9.63,36.12,28.9,45.75,26.49,89.1-2.41,43.35-33.71,24.08-9.63,74.65,24.08,50.57,4.82,81.88-4.82,120.41-9.63,38.53,9.63,33.71-9.63,89.1-19.26,55.39-12.04,36.12-19.26,81.88-7.22,45.75,14.45,122.81-36.12,168.57-50.57,45.75-31.31,21.67-81.88,50.57-50.57,28.9-40.94-7.22-69.84,77.06-28.9,84.28-45.75,38.53-103.55,74.65s-65.02-4.82-77.06,50.57c-12.04,55.39,0,45.75-45.75,50.57s-67.43,4.82-60.2,33.71c7.22,28.9,31.31,36.12-33.71,77.06-65.02,40.94-45.75,33.71-120.41,45.75-74.65,12.04-65.02-14.45-101.14,26.49-36.12,40.94-45.75,45.75-110.77,33.71-65.02-12.04-36.12-16.86-86.69,4.82-50.57,21.67-67.43-16.86-105.96-14.45-38.53,2.41,2.41,14.45-60.2,21.67-62.61,7.22-72.24-2.41-108.37-28.9-36.12-26.49-26.49-24.08-144.49-55.39-118-31.31-118-36.12-187.83-89.1-69.84-52.98-110.77-43.35-178.2-130.04-67.43-86.69-50.57-127.63-91.51-166.16-40.94-38.53-108.37-48.16-89.1-84.28,19.26-36.12-40.94-28.9-55.39-89.1-14.45-60.2-31.31-77.06-28.9-103.55,2.41-26.49,2.41-4.82,0-48.16-2.41-43.35,38.53-43.35,0-101.14-38.53-57.79,26.49-108.37-9.63-142.08-36.12-33.71-33.71-62.61-16.86-86.69,16.86-24.08,55.39,2.41,40.94-33.71-14.45-36.12-19.26-40.94-12.04-62.61,7.22-21.67,12.04-40.94,26.49-86.69,14.45-45.75,16.86-26.49,26.49-81.88,9.63-55.39-7.22-69.84,36.12-91.51,43.35-21.67,96.32-9.63,96.32-52.98s38.53-57.79,48.16-91.51c9.63-33.71-7.22-33.71,21.67-55.39,28.9-21.67,7.22-40.94,28.9-67.43,21.67-26.49,57.79-21.67,81.88-60.2,24.08-38.53,72.24-91.51,113.18-77.06,40.94,14.45,96.32-67.43,149.3-60.2,52.98,7.22,57.79,9.63,91.51-33.71,33.71-43.35,45.75-38.53,45.75-38.53,0,0-16.86-4.82,12.04,9.63,28.9,14.45,14.45-60.2,57.79-31.31,43.35,28.9,67.43,16.86,105.96,4.82,38.53-12.04,62.61-2.41,96.32,9.63,33.71,12.04,31.31-55.39,81.88-21.67,50.57,33.71,120.41,2.41,132.45,21.67,12.04,19.26,7.22,45.75,7.22,45.75Z"/><path class="cls-5" d="M5954.27,1140.21c245.87,0,301.75-4.47,301.75,44.7s-8.94,185.52,44.7,196.7c53.64,11.18,129.64-44.7,147.52-120.7,17.88-76,31.29,11.18,67.06,33.53,35.76,22.35,80.47,8.94,107.29,38,26.82,29.06,38,89.41,93.88,143.05,55.88,53.64,96.11,156.46,113.99,283.87,17.88,127.4,82.7,169.87,82.7,279.4s-33.53,312.92-147.52,411.27c-113.99,98.35-93.88,145.29-219.05,212.34-125.17,67.06-362.1,241.4-607.97,214.58-245.87-26.82-160.93-17.88-272.69-80.47-111.76-62.58-84.94-49.17-225.75-120.7-140.82-71.53-158.7-357.63-252.57-433.62-93.88-76-100.58-308.45-49.17-382.21,51.41-73.76,49.17-219.05,105.05-254.81,55.88-35.76,134.11-283.87,189.99-283.87s181.05-127.4,241.4-147.52c60.35-20.12,212.34-33.53,279.4-33.53Z"/><path class="cls-5" d="M5964.71,1303.75c199.64,0,245.01-3.63,245.01,36.3s-1.01,74.1,93.73,60.43c62.74-9.05,87.76,10.35,116.79,28.5,29.04,18.15,65.34,7.26,87.11,30.85,21.78,23.59,30.85,72.59,76.22,116.15,45.37,43.56,78.04,127.04,92.56,230.49,14.52,103.45,67.15,137.93,67.15,226.86s-27.22,254.08-119.78,333.94-76.22,117.97-177.86,172.41c-101.63,54.45-294.01,196.01-493.64,174.23-199.64-21.78-130.67-14.52-221.41-65.34-90.74-50.82-68.96-39.93-183.3-98-114.34-58.08-128.86-290.38-205.08-352.08-76.22-61.71-81.67-250.45-39.93-310.34,41.74-59.89,39.93-177.86,85.3-206.89,45.37-29.04,108.89-230.49,154.26-230.49s147-103.45,196.01-119.78c49-16.33,172.41-27.22,226.86-27.22Z"/><path class="cls-5" d="M5984.18,1608.45c113.49,0,139.29-2.06,139.29,20.64s-.58,42.13,53.29,34.35c35.67-5.15,49.89,5.89,66.4,16.2,16.51,10.32,37.14,4.13,49.52,17.54,12.38,13.41,17.54,41.27,43.33,66.03,25.79,24.76,44.37,72.22,52.62,131.03,8.25,58.81,38.18,78.41,38.18,128.97s-15.48,144.45-68.1,189.84c-52.62,45.4-43.33,67.06-101.11,98.02-57.78,30.95-167.15,111.43-280.64,99.05-113.49-12.38-74.29-8.25-125.88-37.14-51.59-28.89-39.21-22.7-104.21-55.72-65-33.02-73.26-165.08-116.59-200.16-43.33-35.08-46.43-142.38-22.7-176.43,23.73-34.05,22.7-101.11,48.49-117.62,25.79-16.51,61.91-131.03,87.7-131.03s83.57-58.81,111.43-68.1c27.86-9.29,98.02-15.48,128.97-15.48Z"/></g><g><g><path class="cls-2" d="M5488.67,2385.75c-4.6-2.48-8.22-6.03-10.83-10.63-2.62-4.6-3.93-9.97-3.93-16.11v-73.8h4.47v73.67c0,5.42,1.13,10.14,3.39,14.15,2.26,4.02,5.35,7.11,9.28,9.28,3.93,2.17,8.33,3.25,13.2,3.25s9.28-1.06,13.2-3.18c3.93-2.12,7-5.19,9.21-9.21,2.21-4.02,3.32-8.78,3.32-14.29v-73.67h4.47v73.53c0,6.23-1.27,11.67-3.79,16.32-2.53,4.65-6.07,8.22-10.63,10.7-4.56,2.48-9.77,3.72-15.64,3.72s-11.1-1.24-15.71-3.72Z"/><path class="cls-2" d="M5555.7,2285.2h4.47c10.65,0,18.96,2.82,24.92,8.46,5.96,5.64,8.94,13.2,8.94,22.68,0,6.59-1.45,12.44-4.33,17.54-2.89,5.1-6.82,9.03-11.78,11.78-4.97,2.75-10.52,4.13-16.66,4.13h-1.08v36.97h-4.47v-101.56Zm5.82,60.67c8.21,0,14.94-2.55,20.18-7.65,5.23-5.1,7.85-12.3,7.85-21.6s-2.46-15.64-7.38-20.38c-4.92-4.74-11.9-7.11-20.92-7.11h-1.08v56.74h1.35Z"/><path class="cls-2" d="M5654.82,2289.13h-23.43v-3.93h51.05v3.93h-23.16v97.64h-4.47v-97.64Z"/><path class="cls-2" d="M5709.94,2382.02c-8.13-4.96-14.56-11.58-19.3-19.84-4.74-8.26-7.11-17.13-7.11-26.61s2.39-18.17,7.18-26.34c4.78-8.17,11.24-14.67,19.36-19.5,8.13-4.83,16.93-7.24,26.41-7.24s18.37,2.39,26.41,7.18c8.03,4.79,14.42,11.26,19.16,19.43,4.74,8.17,7.11,16.99,7.11,26.47s-2.37,18.76-7.11,27.02c-4.74,8.26-11.15,14.81-19.23,19.64-8.08,4.83-16.91,7.24-26.47,7.24s-18.28-2.48-26.41-7.45Zm50.51-3.18c7.4-4.47,13.29-10.52,17.67-18.15,4.38-7.63,6.57-15.91,6.57-24.85s-2.17-17.06-6.5-24.65c-4.33-7.58-10.2-13.61-17.6-18.08-7.4-4.47-15.44-6.7-24.1-6.7s-16.84,2.23-24.24,6.7c-7.4,4.47-13.29,10.49-17.67,18.08-4.38,7.58-6.57,15.8-6.57,24.65s2.19,17.22,6.57,24.85c4.38,7.63,10.27,13.68,17.67,18.15,7.4,4.47,15.44,6.7,24.1,6.7s16.7-2.23,24.1-6.7Z"/></g><g><path class="cls-2" d="M5856.07,2382.97c-8.18-3.91-15.18-9.31-21-16.2-5.83-6.89-9.74-14.61-11.73-23.13h6.61c3.41,11.51,9.95,20.93,19.62,28.25,9.66,7.32,20.4,10.98,32.2,10.98,9.81,0,18.83-2.45,27.08-7.36,8.24-4.9,14.78-11.51,19.62-19.83,4.83-8.32,7.25-17.38,7.25-27.19s-2.24-18.9-6.72-27.29c-4.48-8.39-10.52-15.03-18.12-19.94-7.61-4.9-15.89-7.36-24.84-7.36s-16.77,2.13-24.31,6.4c-7.54,4.26-14.22,10.16-20.04,17.7h-7.46l7.46-71.22h83.16v6.18h-77.4l-5.76,54.8c5.54-6.4,12.15-11.3,19.83-14.71,7.68-3.41,15.85-5.12,24.52-5.12,10.37,0,19.86,2.74,28.46,8.21,8.6,5.47,15.42,12.83,20.47,22.07,5.04,9.24,7.57,19.33,7.57,30.28s-2.74,21.04-8.21,30.28c-5.47,9.24-12.87,16.56-22.17,21.96-9.31,5.4-19.44,8.1-30.38,8.1-8.96,0-17.52-1.96-25.69-5.86Z"/><path class="cls-2" d="M6001.59,2378.28c-12.65-7.46-22.64-17.55-29.96-30.28-7.32-12.72-10.98-26.55-10.98-41.47s3.73-28.07,11.19-40.73c7.46-12.65,17.55-22.71,30.28-30.17,12.72-7.46,26.47-11.19,41.26-11.19s28.71,3.73,41.36,11.19c12.65,7.46,22.71,17.52,30.17,30.17,7.46,12.65,11.19,26.44,11.19,41.36s-3.7,28.47-11.09,41.04c-7.39,12.58-17.41,22.6-30.06,30.06-12.65,7.46-26.51,11.19-41.58,11.19s-29.14-3.73-41.79-11.19Zm79.64-5.33c11.58-6.89,20.79-16.17,27.61-27.83,6.82-11.65,10.23-24.38,10.23-38.17s-3.41-26.33-10.23-38.06c-6.82-11.73-16.03-21.04-27.61-27.93-11.59-6.89-24.2-10.34-37.85-10.34s-26.26,3.45-37.85,10.34c-11.59,6.9-20.79,16.2-27.61,27.93-6.82,11.73-10.23,24.41-10.23,38.06s3.41,26.51,10.23,38.17c6.82,11.66,16.02,20.93,27.61,27.83,11.58,6.9,24.2,10.34,37.85,10.34s26.26-3.45,37.85-10.34Z"/><path class="cls-2" d="M6155.74,2289.15c-5.12-3.2-9.21-7.5-12.26-12.9-3.06-5.4-4.58-11.16-4.58-17.27s1.56-11.83,4.69-17.16c3.13-5.33,7.36-9.56,12.69-12.69,5.33-3.12,11.19-4.69,17.59-4.69s12.22,1.57,17.48,4.69c5.26,3.13,9.45,7.36,12.58,12.69,3.12,5.33,4.69,11.05,4.69,17.16s-1.53,11.87-4.58,17.27c-3.06,5.4-7.18,9.7-12.37,12.9-5.19,3.2-10.84,4.8-16.95,4.8h-2.13c-6.11,0-11.73-1.6-16.84-4.8Zm105.12-62.37h8.32l-119.19,159.92h-7.89l118.76-159.92Zm-73.03,57.14c4.33-2.56,7.75-6.04,10.23-10.45,2.49-4.4,3.73-9.1,3.73-14.07,0-7.68-2.7-14.43-8.1-20.26-5.54-5.68-12.15-8.53-19.83-8.53-4.98,0-9.67,1.32-14.07,3.94-4.41,2.63-7.93,6.15-10.55,10.55-2.63,4.41-3.94,9.1-3.94,14.07s1.31,9.67,3.94,14.07c2.63,4.41,6.15,7.93,10.55,10.55,4.4,2.63,9.1,3.94,14.07,3.94s9.63-1.28,13.97-3.84Zm36.89,100.32c-5.19-3.2-9.31-7.5-12.37-12.9-3.06-5.4-4.58-11.16-4.58-17.27s1.56-11.83,4.69-17.16c3.12-5.33,7.39-9.56,12.79-12.69,5.4-3.12,11.3-4.69,17.7-4.69s12.26,1.57,17.59,4.69c5.33,3.13,9.56,7.36,12.69,12.69,3.12,5.33,4.69,11.05,4.69,17.16s-1.57,11.87-4.69,17.27c-3.13,5.4-7.32,9.7-12.58,12.9-5.26,3.2-10.95,4.8-17.06,4.8h-2.13c-5.97,0-11.55-1.6-16.74-4.8Zm32.2-5.33c4.33-2.63,7.78-6.15,10.34-10.55,2.56-4.4,3.84-9.1,3.84-14.07s-1.28-9.66-3.84-14.07c-2.56-4.4-6.01-7.92-10.34-10.55-4.34-2.63-8.99-3.94-13.97-3.94s-9.63,1.32-13.97,3.94c-4.34,2.63-7.82,6.15-10.45,10.55-2.63,4.41-3.94,9.1-3.94,14.07s1.31,9.67,3.94,14.07c2.63,4.41,6.11,7.93,10.45,10.55,4.33,2.63,8.99,3.94,13.97,3.94s9.63-1.31,13.97-3.94Z"/></g><g><path class="cls-2" d="M6341.93,2382.02c-8.13-4.96-14.56-11.58-19.3-19.84-4.74-8.26-7.11-17.13-7.11-26.61s2.39-18.17,7.18-26.34c4.78-8.17,11.24-14.67,19.36-19.5,8.13-4.83,16.93-7.24,26.41-7.24s18.37,2.39,26.41,7.18c8.03,4.79,14.42,11.26,19.16,19.43,4.74,8.17,7.11,16.99,7.11,26.47s-2.37,18.76-7.11,27.02c-4.74,8.26-11.15,14.81-19.23,19.64-8.08,4.83-16.91,7.24-26.47,7.24s-18.28-2.48-26.41-7.45Zm50.51-3.18c7.4-4.47,13.29-10.52,17.67-18.15,4.38-7.63,6.57-15.91,6.57-24.85s-2.17-17.06-6.5-24.65c-4.33-7.58-10.2-13.61-17.6-18.08-7.4-4.47-15.44-6.7-24.1-6.7s-16.84,2.23-24.24,6.7c-7.4,4.47-13.29,10.49-17.67,18.08-4.38,7.58-6.57,15.8-6.57,24.65s2.19,17.22,6.57,24.85c4.38,7.63,10.27,13.68,17.67,18.15,7.4,4.47,15.44,6.7,24.1,6.7s16.7-2.23,24.1-6.7Z"/><path class="cls-2" d="M6439.56,2285.2h36.16v3.93h-31.69v54.98h26.41v3.93h-26.41v38.73h-4.47v-101.56Z"/><path class="cls-2" d="M6489.93,2285.2h36.16v3.93h-31.69v54.98h26.41v3.93h-26.41v38.73h-4.47v-101.56Z"/></g></g><g><path class="cls-1" d="M5498.14,2154.35c33.42,0,74.8-46.68,108.22-98.67,2.65-4.24,5.84-5.84,9.02-5.84,5.84,0,10.61,4.77,10.61,10.61,0,2.12-.53,4.77-2.12,7.43-36.08,56.24-80.11,108.76-129.98,108.76-36.08,0-63.66-24.4-63.66-68.44,0-14.33,3.18-28.12,7.43-37.14-45.62,61.54-108.22,109.29-176.66,109.29-74.27,0-128.38-46.68-128.38-129.98,0-108.23,82.76-212.74,183.56-266.32v-9.02c0-38.2,20.69-64.19,31.3-64.19,7.43,0,12.73,4.77,12.73,11.67,0,3.71-1.59,6.37-5.3,11.14-5.31,7.43-11.67,20.16-11.67,36.61v.53c36.61-15.92,75.33-24.93,112.47-24.93,50.93,0,83.29,21.75,93.9,53.05l9.55-21.22c5.31-11.67,12.2-18.57,19.1-18.57,9.55,0,15.38,6.37,15.38,15.38,0,18.57-16.45,52.52-47.75,102.92-9.02,18.04-38.73,80.64-58.89,133.16-18.04,45.63-26,77.46-26,98.15,0,29.18,15.92,45.62,37.14,45.62Zm10.61-261.54c-16.45,9.02-35.55,14.33-55.7,14.33-62.07,0-116.18-40.85-132.1-97.08-87.54,51.99-156.5,147.48-156.5,240.32,0,68.97,46.16,105.04,97.61,105.04,61.01,0,117.24-47.22,159.68-104.51,27.06-37.14,43.5-64.19,64.19-108.23l22.81-49.87Zm-163.4-96.02c10.61,53.58,53.58,88.6,107.69,88.6,42.97,0,75.86-28.65,75.86-62.07s-27.06-54.11-73.21-54.11c-37.14,0-74.8,10.08-110.35,27.59Z"/><path class="cls-1" d="M5873.21,2055.67c2.65-4.24,5.83-5.84,9.02-5.84,5.83,0,10.61,4.77,10.61,10.61,0,2.12-.53,4.77-2.12,7.43-32.89,50.93-71.62,99.21-115.12,99.21-27.59,0-50.93-19.1-50.93-55.17,0-2.65,0-4.77,.53-6.9-24.93,35.01-52.52,62.07-81.17,62.07s-48.81-18.57-48.81-55.7c0-35.01,21.22-87,39.79-123.61,16.45-31.83,24.93-45.09,32.89-45.09,9.02,0,14.32,5.31,14.32,12.73,0,9.02-7.96,24.94-22.81,48.81-16.98,35.01-35.01,77.99-35.01,108.22,0,23.34,10.08,31.83,22.28,31.83,23.87,0,48.81-28.12,73.21-63.13,18.57-26.53,36.08-66.84,50.4-100.27,12.2-28.12,19.63-38.2,28.12-38.2,9.02,0,14.32,5.31,14.32,12.73,0,9.02-9.02,24.94-23.87,48.81-16.45,35.54-35.54,77.99-35.54,107.69,0,23.34,10.61,33.95,26.52,33.95,28.12,0,63.13-43.5,93.37-90.19Z"/><path class="cls-1" d="M6014.33,2055.67c2.65-4.24,5.31-6.37,9.02-6.37,5.31,0,11.14,4.25,11.14,9.55,0,3.71-1.06,5.83-2.65,8.49-35.01,54.64-72.15,99.74-115.12,99.74-32.36,0-53.05-20.16-53.05-59.42,0-33.42,21.22-90.19,46.16-144.3h-24.93c-8.49,0-13.79-3.18-13.79-10.61,0-6.9,5.31-10.08,13.79-10.08h35.01c9.55-19.63,19.63-39.26,28.65-56.23,16.44-31.83,24.93-45.09,32.89-45.09,9.02,0,14.32,5.31,14.32,12.73,0,9.02-7.96,24.93-22.81,48.81l-20.16,39.79h30.24c8.49,0,13.26,4.24,13.26,9.55,0,7.43-5.31,11.14-13.26,11.14h-40.32c-26.53,56.24-49.87,114.06-49.87,148.01,0,24.4,11.67,34.48,27.59,34.48,28.12,0,64.72-41.91,93.9-90.19Z"/><path class="cls-1" d="M6281.17,2055.67c2.65-4.24,5.84-5.84,9.02-5.84,5.84,0,10.61,4.77,10.61,10.61,0,2.12-.53,4.77-2.12,7.43-32.89,50.93-71.62,99.21-115.12,99.21-27.59,0-50.93-19.1-50.93-55.17,0-2.65,0-4.77,.53-6.9-24.93,35.01-52.52,62.07-81.17,62.07s-48.81-18.57-48.81-55.7c0-35.01,21.22-87,39.79-123.61,16.45-31.83,24.93-45.09,32.89-45.09,9.02,0,14.32,5.31,14.32,12.73,0,9.02-7.96,24.94-22.81,48.81-16.98,35.01-35.01,77.99-35.01,108.22,0,23.34,10.08,31.83,22.28,31.83,23.87,0,48.81-28.12,73.21-63.13,18.57-26.53,36.07-66.84,50.4-100.27,12.2-28.12,19.63-38.2,28.12-38.2,9.02,0,14.32,5.31,14.32,12.73,0,9.02-9.02,24.94-23.87,48.81-16.45,35.54-35.54,77.99-35.54,107.69,0,23.34,10.61,33.95,26.53,33.95,28.12,0,63.13-43.5,93.37-90.19Z"/><path class="cls-1" d="M6584.62,1984.05c0,45.63-48.81,90.72-48.81,137.93,0,15.38,8.49,23.87,21.75,23.87,28.12,0,63.13-43.5,93.37-90.19,2.65-4.24,5.83-5.84,9.02-5.84,5.84,0,10.61,4.77,10.61,10.61,0,2.12-.53,4.77-2.12,7.43-32.89,50.93-71.62,99.21-115.12,99.21-27.59,0-45.63-18.04-45.63-48.81,0-47.75,49.87-98.67,49.87-136.34,0-11.14-5.83-17.51-15.92-17.51-22.28,0-59.95,36.07-83.29,65.78-21.22,27.06-41.38,78.52-54.64,120.96-2.12,6.9-5.31,15.92-15.92,15.92-5.31,0-11.67-3.18-11.67-11.14,0-4.24,1.59-8.49,3.18-13.79,12.2-35.54,33.42-91.25,46.68-129.45,4.24-13.26,6.9-24.4,6.9-30.77,0-11.14-5.84-17.51-16.45-17.51-24.93,0-63.66,36.07-87,65.78-21.22,27.06-41.91,78.52-55.17,120.96-2.12,6.9-5.31,15.92-15.92,15.92-5.31,0-10.61-3.18-10.61-10.61,0-4.77,.53-7.43,2.12-12.73,20.69-63.66,48.81-133.69,71.09-187.27,3.71-9.02,9.55-13.79,16.98-13.79,7.96,0,12.73,4.77,12.73,11.67,0,6.36-4.24,16.98-12.73,31.3l-6.9,15.91c26.53-31.3,58.89-58.89,87-58.89,26,0,41.91,15.92,41.91,41.38,0,7.43-1.59,14.33-4.24,22.81,26.53-32.89,60.48-64.19,86.47-64.19,24.4,0,42.44,16.45,42.44,41.38Z"/><path class="cls-1" d="M6850.41,2117.21c2.65-4.77,5.83-6.36,8.49-6.36,4.24,0,8.49,3.71,8.49,9.02,0,14.85-24.93,47.22-54.11,47.22-27.59,0-45.62-18.04-45.62-48.81,0-47.22,49.87-98.15,49.87-135.28,0-11.67-6.9-18.57-18.57-18.57-28.12,0-74.27,34.48-100.27,65.78-21.75,26.53-41.38,78.52-54.64,120.96-2.12,6.9-5.31,15.92-15.92,15.92-5.31,0-10.61-3.18-10.61-10.61,0-4.77,.53-7.43,2.12-12.73,20.69-63.66,48.81-133.69,71.09-187.27,3.71-9.02,9.55-13.79,16.98-13.79,7.96,0,12.73,4.77,12.73,11.67,0,6.36-4.77,16.98-12.73,30.77l-7.43,18.04c29.71-32.36,68.44-60.48,99.21-60.48,26,0,45.09,16.98,45.09,42.44,0,45.09-48.81,90.19-48.81,136.87,0,15.38,7.96,23.87,20.69,23.87s24.93-13.79,33.95-28.65Z"/></g><g><g><path d="M5254.09,3231.64h6.33v88.13h44.48v3.54h-50.8v-91.68Z"/><path d="M5325.02,3231.64h6.33v91.68h-6.33v-91.68Z"/><path d="M5510.02,3231.64v91.68h-6.33v-85.81l-67.86,87.52-67.48-88.62v86.91h-6.33v-91.68h9.01l64.8,85.07,65.37-85.07h8.82Z"/><path d="M5541.26,3231.64h6.33v91.68h-6.33v-91.68Z"/><path d="M5600.88,3235.18h-33.17v-3.54h72.27v3.54h-32.78v88.13h-6.33v-88.13Z"/><path d="M5659.16,3231.64h51.57v3.54h-45.24v49.87h37.77v3.54h-37.77v31.17h45.24v3.54h-51.57v-91.68Z"/><path d="M5730.86,3231.64h6.14c22.88,0,40.55,3.97,53.01,11.92,12.46,7.95,18.69,19.25,18.69,33.92,0,8.39-3.2,16.09-9.59,23.1-6.39,7.01-15.05,12.55-25.98,16.62-10.93,4.08-22.98,6.11-36.14,6.11h-6.14v-91.68Zm7.67,87.89c11.76,0,22.49-1.85,32.21-5.56,9.71-3.71,17.41-8.78,23.1-15.22,5.69-6.44,8.53-13.53,8.53-21.27,0-13.53-5.53-23.94-16.58-31.23-11.06-7.29-26.81-10.94-47.26-10.94h-1.53v84.22h1.53Z"/><path d="M5897.07,3235.18h-33.17v-3.54h72.27v3.54h-32.78v88.13h-6.33v-88.13Z"/><path d="M5956.3,3231.64h6.33v91.68h-6.33v-91.68Z"/><path d="M6141.3,3231.64v91.68h-6.33v-85.81l-67.86,87.52-67.48-88.62v86.91h-6.33v-91.68h9.01l64.8,85.07,65.37-85.07h8.82Z"/><path d="M6171.59,3231.64h51.57v3.54h-45.24v49.87h37.77v3.54h-37.77v31.17h45.24v3.54h-51.57v-91.68Z"/></g><g><path d="M6331.44,3321.48c-11.5-4.48-20.61-10.45-27.32-17.91-6.71-7.46-10.06-15.46-10.06-24.02s3.38-16.4,10.16-23.77c6.77-7.37,15.91-13.24,27.41-17.6,11.5-4.36,23.96-6.54,37.38-6.54s26.01,2.16,37.38,6.48c11.37,4.32,20.42,10.17,27.13,17.54,6.71,7.38,10.06,15.34,10.06,23.9s-3.35,16.93-10.06,24.39c-6.71,7.46-15.79,13.37-27.22,17.72-11.44,4.36-23.93,6.54-37.48,6.54s-25.88-2.24-37.38-6.72Zm71.51-2.87c10.48-4.03,18.82-9.49,25.02-16.38,6.2-6.89,9.3-14.36,9.3-22.43s-3.07-15.4-9.2-22.25c-6.14-6.85-14.44-12.28-24.92-16.32-10.48-4.03-21.86-6.05-34.12-6.05s-23.84,2.02-34.32,6.05c-10.48,4.03-18.82,9.47-25.02,16.32-6.2,6.84-9.3,14.26-9.3,22.25s3.1,15.54,9.3,22.43c6.2,6.89,14.54,12.35,25.02,16.38,10.48,4.03,21.86,6.05,34.12,6.05s23.64-2.02,34.12-6.05Z"/><path d="M6475.22,3243.25v82.51h-5.56v-93.02l105.82,83.73v-82.39h5.56v93.02l-105.82-83.85Z"/><path d="M6611.33,3234.08h6.33v88.13h44.48v3.54h-50.8v-91.68Z"/><path d="M6745.91,3234.08l-42.75,55.01v36.67h-6.33v-36.67l-43.71-55.01h6.9l40.07,50.24,39.3-50.24h6.52Z"/></g></g><g><g><path class="cls-2" d="M5652.42,1804.73v-7.95c2.65,5.89,6.5,10.51,11.56,13.84,5.06,3.34,11.12,5.01,18.19,5.01,4.91,0,9.45-1.08,13.62-3.24,4.17-2.16,7.49-5.2,9.94-9.13,2.45-3.93,3.68-8.44,3.68-13.55,0-4.61-.79-8.59-2.36-11.93-1.57-3.34-4.17-6.55-7.81-9.65-3.63-3.09-8.89-6.75-15.76-10.97l-4.71-2.95c-4.32-2.65-7.81-5.01-10.46-7.07-2.65-2.06-4.96-4.47-6.92-7.22-2.55-3.83-3.83-8.25-3.83-13.26,0-6.68,2.16-11.88,6.48-15.61,4.32-3.73,9.82-5.6,16.5-5.6,9.03,0,16.2,3.34,21.5,10.02v7.51c-2.26-4.12-5.35-7.36-9.28-9.72-3.93-2.36-8.25-3.53-12.96-3.53s-9.03,1.52-12.37,4.57c-3.34,3.04-5.01,7.12-5.01,12.22s1.55,9.3,4.64,12.89c3.09,3.59,8.32,7.49,15.69,11.71,9.03,5.3,16.05,10.11,21.06,14.43,3.53,3.24,6.11,6.83,7.73,10.75,1.62,3.93,2.43,8.3,2.43,13.11,0,6.09-1.42,11.44-4.27,16.05-2.85,4.62-6.77,8.17-11.78,10.68-5.01,2.5-10.65,3.76-16.94,3.76-12.27,0-21.8-5.06-28.57-15.17Z"/><path class="cls-2" d="M5731.66,1707.38h4.86c11.58,0,20.62,3.07,27.1,9.21,6.48,6.14,9.72,14.36,9.72,24.67,0,7.17-1.57,13.53-4.71,19.07-3.14,5.55-7.41,9.82-12.81,12.81-5.4,3-11.44,4.49-18.12,4.49h-1.18v40.21h-4.86v-110.46Zm6.33,65.98c8.93,0,16.25-2.77,21.94-8.32,5.69-5.55,8.54-13.38,8.54-23.49s-2.68-17.01-8.03-22.17c-5.35-5.15-12.94-7.73-22.75-7.73h-1.18v61.71h1.47Z"/><path class="cls-2" d="M5790.13,1707.38h39.62v4.27h-34.76v60.09h29.01v4.27h-29.01v37.56h34.76v4.27h-39.62v-110.46Z"/><path class="cls-2" d="M5868.63,1813.2c-8.64-5.06-15.49-12.03-20.55-20.91-5.06-8.89-7.58-18.88-7.58-29.97s2.63-20.47,7.88-29.31c5.25-8.84,12.27-15.81,21.06-20.91,8.79-5.1,18.14-7.66,28.06-7.66,6.87,0,12.32,.61,16.35,1.84,4.02,1.23,8.69,3.36,13.99,6.41v5.45c-5.01-3.44-9.65-5.87-13.92-7.29-4.27-1.42-9.6-2.14-15.98-2.14-9.72,0-18.58,2.48-26.58,7.44-8,4.96-14.34,11.59-19,19.88-4.66,8.3-7,17.21-7,26.73s2.36,18.56,7.07,26.81c4.71,8.25,10.97,14.8,18.78,19.66,7.81,4.86,16.22,7.29,25.26,7.29,6.48,0,12.13-.76,16.94-2.28,4.81-1.52,9.62-3.9,14.43-7.14v5.45c-4.71,2.85-9.55,4.93-14.51,6.26-4.96,1.33-10.38,1.99-16.27,1.99-10.31,0-19.79-2.53-28.43-7.58Z"/><path class="cls-2" d="M5949.48,1707.38h4.86v110.46h-4.86v-110.46Z"/><path class="cls-2" d="M6081.74,1817.84h-5.15l-20.91-42.12h-58.62l-20.47,42.12h-5.15l55.08-113.11,55.23,113.11Zm-27.84-46.39l-27.69-56.11-27.1,56.11h54.79Z"/><path class="cls-2" d="M6098.08,1707.38h4.86v106.19h34.17v4.27h-39.03v-110.46Z"/></g><g><path class="cls-2" d="M6173.08,1805.62v-7.95c2.65,5.89,6.5,10.51,11.56,13.84,5.06,3.34,11.12,5.01,18.19,5.01,4.91,0,9.45-1.08,13.62-3.24,4.17-2.16,7.49-5.2,9.94-9.13,2.45-3.93,3.68-8.44,3.68-13.55,0-4.61-.79-8.59-2.36-11.93-1.57-3.34-4.17-6.55-7.81-9.65-3.63-3.09-8.89-6.75-15.76-10.97l-4.71-2.95c-4.32-2.65-7.81-5.01-10.46-7.07s-4.96-4.47-6.92-7.22c-2.55-3.83-3.83-8.25-3.83-13.26,0-6.68,2.16-11.88,6.48-15.61,4.32-3.73,9.82-5.6,16.5-5.6,9.03,0,16.2,3.34,21.5,10.02v7.51c-2.26-4.12-5.35-7.36-9.28-9.72-3.93-2.36-8.25-3.53-12.96-3.53s-9.03,1.52-12.37,4.57c-3.34,3.04-5.01,7.12-5.01,12.22s1.55,9.3,4.64,12.89c3.09,3.59,8.32,7.49,15.69,11.71,9.03,5.3,16.05,10.11,21.06,14.43,3.53,3.24,6.11,6.83,7.73,10.75,1.62,3.93,2.43,8.3,2.43,13.11,0,6.09-1.42,11.44-4.27,16.05-2.85,4.62-6.78,8.17-11.78,10.68-5.01,2.5-10.65,3.76-16.94,3.76-12.28,0-21.8-5.06-28.57-15.17Z"/><path class="cls-2" d="M6355.86,1818.72h-5.15l-20.91-42.12h-58.62l-20.47,42.12h-5.15l55.08-113.11,55.23,113.11Zm-27.84-46.39l-27.69-56.11-27.1,56.11h54.79Z"/><path class="cls-2" d="M6372.2,1708.26h4.86v106.19h34.17v4.27h-39.03v-110.46Z"/><path class="cls-2" d="M6425.96,1708.26h39.62v4.27h-34.76v60.09h29.01v4.27h-29.01v37.56h34.76v4.27h-39.62v-110.46Z"/></g></g></g><g><rect class="cls-3" x="8142.43" y="137" width="3590" height="3926"/><g><g><path d="M9191.52,3231.64h6.33v88.13h44.48v3.54h-50.8v-91.68Z"/><path d="M9262.45,3231.64h6.33v91.68h-6.33v-91.68Z"/><path d="M9447.45,3231.64v91.68h-6.33v-85.81l-67.86,87.52-67.48-88.62v86.91h-6.33v-91.68h9.01l64.8,85.07,65.37-85.07h8.82Z"/><path d="M9478.7,3231.64h6.33v91.68h-6.33v-91.68Z"/><path d="M9538.31,3235.18h-33.17v-3.54h72.27v3.54h-32.78v88.13h-6.33v-88.13Z"/><path d="M9596.59,3231.64h51.57v3.54h-45.24v49.87h37.77v3.54h-37.77v31.17h45.24v3.54h-51.57v-91.68Z"/><path d="M9668.29,3231.64h6.14c22.88,0,40.55,3.97,53.01,11.92,12.46,7.95,18.69,19.25,18.69,33.92,0,8.39-3.2,16.09-9.59,23.1-6.39,7.01-15.05,12.55-25.98,16.62-10.93,4.08-22.98,6.11-36.14,6.11h-6.14v-91.68Zm7.67,87.89c11.76,0,22.49-1.85,32.21-5.56,9.71-3.71,17.41-8.78,23.1-15.22,5.69-6.44,8.53-13.53,8.53-21.27,0-13.53-5.53-23.94-16.58-31.23-11.06-7.29-26.81-10.94-47.26-10.94h-1.53v84.22h1.53Z"/><path d="M9834.5,3235.18h-33.17v-3.54h72.27v3.54h-32.78v88.13h-6.33v-88.13Z"/><path d="M9893.74,3231.64h6.33v91.68h-6.33v-91.68Z"/><path d="M10078.73,3231.64v91.68h-6.33v-85.81l-67.86,87.52-67.48-88.62v86.91h-6.33v-91.68h9.01l64.8,85.07,65.37-85.07h8.82Z"/><path d="M10109.02,3231.64h51.57v3.54h-45.24v49.87h37.77v3.54h-37.77v31.17h45.24v3.54h-51.57v-91.68Z"/></g><g><path d="M10268.87,3321.48c-11.5-4.48-20.61-10.45-27.32-17.91-6.71-7.46-10.06-15.46-10.06-24.02s3.38-16.4,10.16-23.77c6.77-7.37,15.91-13.24,27.41-17.6,11.5-4.36,23.96-6.54,37.38-6.54s26.01,2.16,37.38,6.48c11.37,4.32,20.42,10.17,27.13,17.54,6.71,7.38,10.06,15.34,10.06,23.9s-3.35,16.93-10.06,24.39c-6.71,7.46-15.79,13.37-27.22,17.72-11.44,4.36-23.93,6.54-37.48,6.54s-25.88-2.24-37.38-6.72Zm71.51-2.87c10.48-4.03,18.82-9.49,25.02-16.38,6.2-6.89,9.3-14.36,9.3-22.43s-3.07-15.4-9.2-22.25c-6.14-6.85-14.44-12.28-24.92-16.32-10.48-4.03-21.86-6.05-34.12-6.05s-23.84,2.02-34.32,6.05c-10.48,4.03-18.82,9.47-25.02,16.32-6.2,6.84-9.3,14.26-9.3,22.25s3.1,15.54,9.3,22.43c6.2,6.89,14.54,12.35,25.02,16.38,10.48,4.03,21.86,6.05,34.12,6.05s23.64-2.02,34.12-6.05Z"/><path d="M10412.65,3243.25v82.51h-5.56v-93.02l105.82,83.73v-82.39h5.56v93.02l-105.82-83.85Z"/><path d="M10548.77,3234.08h6.33v88.13h44.48v3.54h-50.8v-91.68Z"/><path d="M10683.34,3234.08l-42.75,55.01v36.67h-6.33v-36.67l-43.71-55.01h6.9l40.07,50.24,39.3-50.24h6.52Z"/></g></g><g><g class="cls-6"><path class="cls-4" d="M10294.21,2984.53c15.27-37.34,178.94,30.78,201.41,84.92,22.49,54.15-2.2-97.78,9.02-182.42,68.23,50.51,330.37,160.45,330.37,160.45,0,0-200.65-196.85-198.91-253.97,1.75-57.14,175.38-90.63,175.38-90.63,0,0-268.17-126.05-379.07-200.03-114.47-76.35,518.74-75.89,738.55,.53-82.71-41.37-262.69-132.32-312.71-165.65-65.61-43.71,316.82-106.19,316.82-106.19l-372.37-61.61s240.33-164.57,342.86-204.99c-114.54,15.69-639.07,28.34-689.87,10.42-62.44-22.04,229.6-301.75,229.6-301.75,0,0-132.88-23.64-189.53-17.17-56,6.4,99.73-317,115.86-344.55,16.15-27.57-83.47,25.14-100.78,16.33-12.91-6.58,26.49-167.63,53.1-258.98,8.79-30.13,16.16-52.68,19.84-59.6,.16-.28,.28-.52,.37-.68-3.71,6.34-21.75,25.9-46.47,50.94-67.33,68.23-184.3,177.05-196.13,169.16-16.15-10.79-18.91-123.45-35.05-95.88-16.14,27.55-222.03,321.57-243.82,269.6-22.09-52.59-107.7-156.92-107.7-156.92,0,0-101.11,391.54-150.86,347.87-40.5-35.55-293.64-538.16-335.98-645.74,14.9,109.2-3.47,377.25-3.47,377.25l-202.48-179.6s69.18,345.56-1.04,309.71c-69.12-35.28-210.52-66.6-214.94-67.57,152.3,62.94,348.95,512.65,216.33,445.06-118.77-60.55-238.31-176.76-238.31-176.76,0,0,27.01,151.01-21.97,180.48-48.97,29.45-318.79-49.25-318.79-49.25,0,0,224.09,174.85,301.52,209.65-68.33,51.19-212.93,103.97-154.69,97.1,58.22-6.88,197.69,102.55,172.59,134.13-25.09,31.56-80.96,299.98-36.76,242.59,44.2-57.4,438.2-74.89,438.2-74.89l301.68,36.55,10.56,5.9-28.74,47.95-35.8,59.19-17.89,29.59-18.08,29.51-36.16,58.97-36.54,58.81c-12.15,19.62-24.56,39.08-36.81,58.64l-74.99,118.08c-.73,1.16-1.45,2.44-2.07,3.72-9.46,19.29-1.5,42.59,17.79,52.04,19.28,9.46,42.59,1.5,52.04-17.79l.79-1.58,14.8-30.22,3.76-7.55,3.93-7.67,7.91-15.36c10.66-20.38,21.19-40.84,32.07-61.18,10.9-20.3,21.68-40.69,32.69-60.93l33.11-60.73c42.53-77.14,85.77-153.91,129.53-230.37l11.29,6.31,182.8,248.9s171.17,364.43,142.73,431.05c-28.44,66.62,184.22-125.88,199.48-163.2Z"/><path class="cls-4" d="M11170.96,2503.38c25.81,12.89,42.14,20.97,42.14,20.97-9.78-7.74-24.1-14.73-42.14-20.97Z"/></g><g class="cls-6"><path class="cls-4" d="M10239.81,2841.03c12.95-31.68,151.8,26.11,170.87,72.04,19.08,45.94-1.86-82.95,7.66-154.76,57.88,42.85,280.27,136.12,280.27,136.12,0,0-170.22-167-168.75-215.46,1.48-48.48,148.79-76.89,148.79-76.89,0,0-227.5-106.94-321.59-169.69-97.11-64.77,440.08-64.38,626.56,.45-70.17-35.09-222.85-112.25-265.29-140.53-55.66-37.08,268.78-90.09,268.78-90.09l-315.9-52.27s203.89-139.62,290.87-173.91c-97.17,13.31-542.16,24.05-585.26,8.84-52.97-18.7,194.78-256,194.78-256,0,0-112.73-20.06-160.79-14.56-47.51,5.43,84.61-268.93,98.29-292.3,13.7-23.39-70.81,21.33-85.49,13.85-10.95-5.58,22.47-142.21,45.05-219.71,7.46-25.56,13.71-44.69,16.83-50.56,.14-.23,.24-.44,.32-.58-3.15,5.38-18.45,21.97-39.42,43.22-57.12,57.88-156.35,150.2-166.39,143.51-13.7-9.15-16.04-104.73-29.74-81.34-13.69,23.37-188.36,272.8-206.84,228.72-18.74-44.61-91.37-133.13-91.37-133.13,0,0-85.78,332.16-127.98,295.12-34.36-30.16-249.11-456.55-285.03-547.82,12.64,92.64-2.94,320.04-2.94,320.04l-171.77-152.36s58.69,293.16-.88,262.75c-58.63-29.93-178.6-56.5-182.35-57.32,129.2,53.4,296.03,434.91,183.52,377.57-100.76-51.37-202.17-149.95-202.17-149.95,0,0,22.91,128.11-18.64,153.12-41.55,24.99-270.45-41.78-270.45-41.78,0,0,190.11,148.34,255.8,177.86-57.97,43.42-180.64,88.2-131.23,82.37,49.39-5.84,167.71,87,146.42,113.79-21.29,26.77-68.68,254.49-31.19,205.8,37.5-48.69,371.75-63.53,371.75-63.53l255.93,31.01,8.96,5.01-24.38,40.68-30.37,50.21-15.18,25.11-15.34,25.04-30.68,50.03-31,49.89c-10.31,16.64-20.84,33.16-31.23,49.75l-63.62,100.17c-.62,.99-1.23,2.07-1.76,3.16-8.03,16.36-1.27,36.13,15.1,44.15,16.36,8.03,36.13,1.27,44.15-15.1l.67-1.34,12.56-25.63,3.19-6.41,3.34-6.51,6.71-13.03c9.05-17.29,17.98-34.65,27.21-51.91,9.25-17.22,18.4-34.52,27.73-51.69l28.09-51.52c36.08-65.44,72.76-130.57,109.89-195.44l9.58,5.35,155.08,211.15s145.21,309.16,121.09,365.69c-24.13,56.52,156.29-106.79,169.23-138.45Z"/><path class="cls-4" d="M10983.61,2432.83c21.9,10.94,35.75,17.79,35.75,17.79-8.3-6.57-20.45-12.49-35.75-17.79Z"/></g><g class="cls-6"><path class="cls-4" d="M10192.59,2716.43c10.94-26.76,128.24,22.06,144.35,60.86,16.12,38.81-1.57-70.08,6.47-130.74,48.9,36.2,236.78,114.99,236.78,114.99,0,0-143.81-141.08-142.56-182.02,1.25-40.95,125.7-64.96,125.7-64.96,0,0-192.2-90.34-271.68-143.36-82.04-54.72,371.78-54.39,529.32,.38-59.28-29.65-188.27-94.83-224.12-118.72-47.03-31.33,227.07-76.11,227.07-76.11l-266.88-44.16s172.25-117.95,245.73-146.92c-82.09,11.25-458.02,20.31-494.43,7.47-44.75-15.8,164.55-216.27,164.55-216.27,0,0-95.24-16.94-135.84-12.3-40.14,4.59,71.48-227.19,83.04-246.94,11.57-19.76-59.82,18.02-72.23,11.7-9.25-4.72,18.98-120.14,38.06-185.61,6.3-21.59,11.58-37.76,14.22-42.71,.12-.2,.2-.37,.27-.49-2.66,4.54-15.59,18.56-33.31,36.51-48.26,48.9-132.09,126.89-140.57,121.24-11.57-7.73-13.55-88.48-25.12-68.72-11.56,19.74-159.13,230.47-174.74,193.23-15.83-37.69-77.19-112.47-77.19-112.47,0,0-72.47,280.62-108.12,249.32-29.03-25.48-210.45-385.7-240.8-462.8,10.68,78.26-2.48,270.38-2.48,270.38l-145.12-128.72s49.58,247.66-.75,221.97c-49.54-25.29-150.88-47.73-154.05-48.43,109.15,45.11,250.09,367.42,155.04,318.97-85.12-43.4-170.8-126.68-170.8-126.68,0,0,19.36,108.23-15.75,129.35-35.1,21.11-228.48-35.3-228.48-35.3,0,0,160.61,125.32,216.1,150.26-48.98,36.69-152.61,74.51-110.87,69.59,41.72-4.93,141.68,73.5,123.69,96.13-17.98,22.62-58.02,215-26.35,173.86,31.68-41.14,314.06-53.67,314.06-53.67l216.22,26.2,7.57,4.23-20.6,34.36-25.66,42.42-12.82,21.21-12.96,21.15-25.92,42.27-26.19,42.15c-8.71,14.06-17.6,28.01-26.38,42.03l-53.75,84.63c-.53,.83-1.04,1.75-1.49,2.67-6.78,13.82-1.08,30.53,12.75,37.3,13.82,6.78,30.53,1.07,37.29-12.75l.57-1.13,10.61-21.66,2.7-5.41,2.82-5.5,5.67-11.01c7.64-14.61,15.19-29.27,22.98-43.85,7.82-14.55,15.54-29.16,23.43-43.67l23.73-43.53c30.48-55.28,61.47-110.31,92.84-165.11l8.09,4.52,131.01,178.38s122.68,261.19,102.3,308.94c-20.38,47.75,132.03-90.22,142.96-116.97Z"/><path class="cls-4" d="M10820.96,2371.59c18.5,9.24,30.2,15.03,30.2,15.03-7.01-5.55-17.27-10.55-30.2-15.03Z"/></g></g><g><g><path class="cls-1" d="M9435.57,2280.97c33.42,0,74.8-46.68,108.22-98.67,2.65-4.24,5.84-5.84,9.02-5.84,5.84,0,10.61,4.77,10.61,10.61,0,2.12-.53,4.77-2.12,7.43-36.08,56.24-80.11,108.76-129.98,108.76-36.08,0-63.66-24.4-63.66-68.44,0-14.33,3.18-28.12,7.43-37.14-45.62,61.54-108.22,109.29-176.66,109.29-74.27,0-128.38-46.68-128.38-129.98,0-108.23,82.76-212.74,183.56-266.32v-9.02c0-38.2,20.69-64.19,31.3-64.19,7.43,0,12.73,4.77,12.73,11.67,0,3.71-1.59,6.37-5.3,11.14-5.31,7.43-11.67,20.16-11.67,36.61v.53c36.61-15.92,75.33-24.93,112.47-24.93,50.93,0,83.29,21.75,93.9,53.05l9.55-21.22c5.31-11.67,12.2-18.57,19.1-18.57,9.55,0,15.38,6.37,15.38,15.38,0,18.57-16.45,52.52-47.75,102.92-9.02,18.04-38.73,80.64-58.89,133.16-18.04,45.63-26,77.46-26,98.15,0,29.18,15.92,45.62,37.14,45.62Zm10.61-261.54c-16.45,9.02-35.55,14.33-55.7,14.33-62.07,0-116.18-40.85-132.1-97.08-87.54,51.99-156.5,147.48-156.5,240.32,0,68.97,46.16,105.04,97.61,105.04,61.01,0,117.24-47.22,159.68-104.51,27.06-37.14,43.5-64.19,64.19-108.23l22.81-49.87Zm-163.4-96.02c10.61,53.58,53.58,88.6,107.69,88.6,42.97,0,75.86-28.65,75.86-62.07s-27.06-54.11-73.21-54.11c-37.14,0-74.8,10.08-110.35,27.59Z"/><path class="cls-1" d="M9810.64,2182.29c2.65-4.24,5.83-5.84,9.02-5.84,5.83,0,10.61,4.77,10.61,10.61,0,2.12-.53,4.77-2.12,7.43-32.89,50.93-71.62,99.21-115.12,99.21-27.59,0-50.93-19.1-50.93-55.17,0-2.65,0-4.77,.53-6.9-24.93,35.01-52.52,62.07-81.17,62.07s-48.81-18.57-48.81-55.7c0-35.01,21.22-87,39.79-123.61,16.45-31.83,24.93-45.09,32.89-45.09,9.02,0,14.32,5.31,14.32,12.73,0,9.02-7.96,24.94-22.81,48.81-16.98,35.01-35.01,77.99-35.01,108.22,0,23.34,10.08,31.83,22.28,31.83,23.87,0,48.81-28.12,73.21-63.13,18.57-26.53,36.08-66.84,50.4-100.27,12.2-28.12,19.63-38.2,28.12-38.2,9.02,0,14.32,5.31,14.32,12.73,0,9.02-9.02,24.94-23.87,48.81-16.45,35.54-35.54,77.99-35.54,107.69,0,23.34,10.61,33.95,26.52,33.95,28.12,0,63.13-43.5,93.37-90.19Z"/><path class="cls-1" d="M9951.76,2182.29c2.65-4.24,5.31-6.37,9.02-6.37,5.31,0,11.14,4.25,11.14,9.55,0,3.71-1.06,5.83-2.65,8.49-35.01,54.64-72.15,99.74-115.12,99.74-32.36,0-53.05-20.16-53.05-59.42,0-33.42,21.22-90.19,46.16-144.3h-24.93c-8.49,0-13.79-3.18-13.79-10.61,0-6.9,5.31-10.08,13.79-10.08h35.01c9.55-19.63,19.63-39.26,28.65-56.23,16.44-31.83,24.93-45.09,32.89-45.09,9.02,0,14.32,5.31,14.32,12.73,0,9.02-7.96,24.93-22.81,48.81l-20.16,39.79h30.24c8.49,0,13.26,4.24,13.26,9.55,0,7.43-5.31,11.14-13.26,11.14h-40.32c-26.53,56.24-49.87,114.06-49.87,148.01,0,24.4,11.67,34.48,27.59,34.48,28.12,0,64.72-41.91,93.9-90.19Z"/><path class="cls-1" d="M10218.6,2182.29c2.65-4.24,5.84-5.84,9.02-5.84,5.84,0,10.61,4.77,10.61,10.61,0,2.12-.53,4.77-2.12,7.43-32.89,50.93-71.62,99.21-115.12,99.21-27.59,0-50.93-19.1-50.93-55.17,0-2.65,0-4.77,.53-6.9-24.93,35.01-52.52,62.07-81.17,62.07s-48.81-18.57-48.81-55.7c0-35.01,21.22-87,39.79-123.61,16.45-31.83,24.93-45.09,32.89-45.09,9.02,0,14.32,5.31,14.32,12.73,0,9.02-7.96,24.94-22.81,48.81-16.98,35.01-35.01,77.99-35.01,108.22,0,23.34,10.08,31.83,22.28,31.83,23.87,0,48.81-28.12,73.21-63.13,18.57-26.53,36.07-66.84,50.4-100.27,12.2-28.12,19.63-38.2,28.12-38.2,9.02,0,14.32,5.31,14.32,12.73,0,9.02-9.02,24.94-23.87,48.81-16.45,35.54-35.54,77.99-35.54,107.69,0,23.34,10.61,33.95,26.53,33.95,28.12,0,63.13-43.5,93.37-90.19Z"/><path class="cls-1" d="M10522.06,2110.67c0,45.63-48.81,90.72-48.81,137.93,0,15.38,8.49,23.87,21.75,23.87,28.12,0,63.13-43.5,93.37-90.19,2.65-4.24,5.83-5.84,9.02-5.84,5.84,0,10.61,4.77,10.61,10.61,0,2.12-.53,4.77-2.12,7.43-32.89,50.93-71.62,99.21-115.12,99.21-27.59,0-45.63-18.04-45.63-48.81,0-47.75,49.87-98.67,49.87-136.34,0-11.14-5.83-17.51-15.92-17.51-22.28,0-59.95,36.07-83.29,65.78-21.22,27.06-41.38,78.52-54.64,120.96-2.12,6.9-5.31,15.92-15.92,15.92-5.31,0-11.67-3.18-11.67-11.14,0-4.24,1.59-8.49,3.18-13.79,12.2-35.54,33.42-91.25,46.68-129.45,4.24-13.26,6.9-24.4,6.9-30.77,0-11.14-5.84-17.51-16.45-17.51-24.93,0-63.66,36.07-87,65.78-21.22,27.06-41.91,78.52-55.17,120.96-2.12,6.9-5.31,15.92-15.92,15.92-5.31,0-10.61-3.18-10.61-10.61,0-4.77,.53-7.43,2.12-12.73,20.69-63.66,48.81-133.69,71.09-187.27,3.71-9.02,9.55-13.79,16.98-13.79,7.96,0,12.73,4.77,12.73,11.67,0,6.36-4.24,16.98-12.73,31.3l-6.9,15.91c26.53-31.3,58.89-58.89,87-58.89,26,0,41.91,15.92,41.91,41.38,0,7.43-1.59,14.33-4.24,22.81,26.53-32.89,60.48-64.19,86.47-64.19,24.4,0,42.44,16.45,42.44,41.38Z"/><path class="cls-1" d="M10787.84,2243.83c2.65-4.77,5.83-6.36,8.49-6.36,4.24,0,8.49,3.71,8.49,9.02,0,14.85-24.93,47.22-54.11,47.22-27.59,0-45.62-18.04-45.62-48.81,0-47.22,49.87-98.15,49.87-135.28,0-11.67-6.9-18.57-18.57-18.57-28.12,0-74.27,34.48-100.27,65.78-21.75,26.53-41.38,78.52-54.64,120.96-2.12,6.9-5.31,15.92-15.92,15.92-5.31,0-10.61-3.18-10.61-10.61,0-4.77,.53-7.43,2.12-12.73,20.69-63.66,48.81-133.69,71.09-187.27,3.71-9.02,9.55-13.79,16.98-13.79,7.96,0,12.73,4.77,12.73,11.67,0,6.36-4.77,16.98-12.73,30.77l-7.43,18.04c29.71-32.36,68.44-60.48,99.21-60.48,26,0,45.09,16.98,45.09,42.44,0,45.09-48.81,90.19-48.81,136.87,0,15.38,7.96,23.87,20.69,23.87s24.93-13.79,33.95-28.65Z"/></g><g><path class="cls-2" d="M9901.91,2478.82v-10.39c3.46,7.7,8.5,13.73,15.11,18.09,6.61,4.36,14.53,6.54,23.77,6.54,6.42,0,12.35-1.41,17.8-4.23,5.45-2.82,9.78-6.8,12.99-11.93,3.21-5.13,4.81-11.03,4.81-17.71,0-6.03-1.03-11.23-3.08-15.59-2.05-4.36-5.46-8.57-10.2-12.61-4.75-4.04-11.61-8.82-20.59-14.34l-6.16-3.85c-5.65-3.46-10.2-6.54-13.67-9.24-3.46-2.69-6.48-5.84-9.05-9.43-3.34-5-5-10.78-5-17.32,0-8.72,2.82-15.52,8.47-20.4,5.64-4.87,12.83-7.31,21.56-7.31,11.8,0,21.17,4.36,28.1,13.09v9.82c-2.95-5.39-6.99-9.62-12.13-12.7-5.13-3.08-10.78-4.62-16.94-4.62s-11.81,1.99-16.17,5.97c-4.36,3.98-6.54,9.3-6.54,15.98s2.02,12.16,6.06,16.84c4.04,4.69,10.87,9.79,20.5,15.3,11.8,6.93,20.98,13.22,27.52,18.86,4.62,4.23,7.99,8.92,10.1,14.05,2.12,5.13,3.18,10.84,3.18,17.13,0,7.96-1.86,14.95-5.58,20.98-3.72,6.03-8.85,10.68-15.4,13.95-6.54,3.27-13.92,4.91-22.13,4.91-16.04,0-28.49-6.61-37.34-19.82Z"/><path class="cls-2" d="M10140.77,2495.95h-6.74l-27.33-55.05h-76.6l-26.75,55.05h-6.74l71.98-147.82,72.18,147.82Zm-36.38-60.63l-36.18-73.33-35.41,73.33h71.6Z"/><path class="cls-2" d="M10162.13,2351.6h6.35v138.77h44.65v5.58h-51v-144.35Z"/><path class="cls-2" d="M10232.38,2351.6h51.77v5.58h-45.42v78.53h37.92v5.58h-37.92v49.08h45.42v5.58h-51.77v-144.35Z"/></g><g><path class="cls-2" d="M9799.46,1941.05v-7.95c2.65,5.89,6.5,10.51,11.56,13.84,5.06,3.34,11.12,5.01,18.19,5.01,4.91,0,9.45-1.08,13.62-3.24,4.17-2.16,7.49-5.2,9.94-9.13,2.45-3.93,3.68-8.44,3.68-13.55,0-4.61-.79-8.59-2.36-11.93-1.57-3.34-4.17-6.55-7.81-9.65-3.63-3.09-8.89-6.75-15.76-10.97l-4.71-2.95c-4.32-2.65-7.81-5.01-10.46-7.07-2.65-2.06-4.96-4.47-6.92-7.22-2.55-3.83-3.83-8.25-3.83-13.26,0-6.68,2.16-11.88,6.48-15.61,4.32-3.73,9.82-5.6,16.5-5.6,9.03,0,16.2,3.34,21.5,10.02v7.51c-2.26-4.12-5.35-7.36-9.28-9.72-3.93-2.36-8.25-3.53-12.96-3.53s-9.03,1.52-12.37,4.57c-3.34,3.04-5.01,7.12-5.01,12.22s1.55,9.3,4.64,12.89c3.09,3.59,8.32,7.49,15.69,11.71,9.03,5.3,16.05,10.11,21.06,14.43,3.53,3.24,6.11,6.83,7.73,10.75,1.62,3.93,2.43,8.3,2.43,13.11,0,6.09-1.42,11.44-4.27,16.05-2.85,4.62-6.77,8.17-11.78,10.68-5.01,2.5-10.65,3.76-16.94,3.76-12.27,0-21.8-5.06-28.57-15.17Z"/><path class="cls-2" d="M9878.7,1843.7h4.86c11.58,0,20.62,3.07,27.1,9.21,6.48,6.14,9.72,14.36,9.72,24.67,0,7.17-1.57,13.53-4.71,19.07-3.14,5.55-7.41,9.82-12.81,12.81-5.4,3-11.44,4.49-18.12,4.49h-1.18v40.21h-4.86v-110.46Zm6.33,65.98c8.93,0,16.25-2.77,21.94-8.32,5.69-5.55,8.54-13.38,8.54-23.49s-2.68-17.01-8.03-22.17c-5.35-5.15-12.94-7.73-22.75-7.73h-1.18v61.71h1.47Z"/><path class="cls-2" d="M9937.17,1843.7h39.62v4.27h-34.76v60.09h29.01v4.27h-29.01v37.56h34.76v4.27h-39.62v-110.46Z"/><path class="cls-2" d="M10015.66,1949.52c-8.64-5.06-15.49-12.03-20.55-20.91-5.06-8.89-7.58-18.88-7.58-29.97s2.63-20.47,7.88-29.31c5.25-8.84,12.27-15.81,21.06-20.91,8.79-5.1,18.14-7.66,28.06-7.66,6.87,0,12.32,.61,16.35,1.84,4.02,1.23,8.69,3.36,13.99,6.41v5.45c-5.01-3.44-9.65-5.87-13.92-7.29-4.27-1.42-9.6-2.14-15.98-2.14-9.72,0-18.58,2.48-26.58,7.44-8,4.96-14.34,11.59-19,19.88-4.66,8.3-7,17.21-7,26.73s2.36,18.56,7.07,26.81c4.71,8.25,10.97,14.8,18.78,19.66,7.81,4.86,16.22,7.29,25.26,7.29,6.48,0,12.13-.76,16.94-2.28,4.81-1.52,9.62-3.9,14.43-7.14v5.45c-4.71,2.85-9.55,4.93-14.51,6.26-4.96,1.33-10.38,1.99-16.27,1.99-10.31,0-19.79-2.53-28.43-7.58Z"/><path class="cls-2" d="M10096.52,1843.7h4.86v110.46h-4.86v-110.46Z"/><path class="cls-2" d="M10228.78,1954.16h-5.15l-20.91-42.12h-58.62l-20.47,42.12h-5.15l55.08-113.11,55.23,113.11Zm-27.84-46.39l-27.69-56.11-27.1,56.11h54.79Z"/><path class="cls-2" d="M10245.12,1843.7h4.86v106.19h34.17v4.27h-39.03v-110.46Z"/></g></g></g></g></g></g></svg>