<?xml version="1.0" encoding="UTF-8"?><svg id="_Слой_1" xmlns="http://www.w3.org/2000/svg" viewBox="0 0 12000 3400"><defs><style>.cls-1{fill:#f9b858;}.cls-2{fill:#fff;}.cls-3{fill:#ffac27;}.cls-4{fill:#fcc35e;}.cls-5{fill:#376a6b;}.cls-6{fill:#a1c4ad;}.cls-7{fill:#606060;}.cls-8{fill:#7ba387;}.cls-9{fill:#282828;}.cls-10{opacity:.56;}.cls-11{opacity:.78;}</style></defs><rect class="cls-2" x="0" width="12000" height="3400"/><g><g><path class="cls-7" d="M3135,2357.95l-79.44,88.74-79.44-88.74v162.83h-11.83v-182.55h10.14l81.13,91.56,81.13-91.56h10.14v182.55h-11.83v-162.83Z"/><path class="cls-7" d="M3271.63,2335.41l88.18,182.27-10.42,5.07-18.31-37.75h-126.21l-18.31,37.75-10.42-5.07,88.18-182.27h7.32Zm53.81,138.32l-56.91-119.17h-1.13l-56.91,119.17h114.94Z"/><path class="cls-7" d="M3520.1,2481.34l34.93,32.68-7.61,8.73-40.57-38.31c-3.1,.28-6.2,.56-9.3,.56h-96.63v35.78h-11.83v-182.55h108.18c40.28,0,72.96,33.81,72.96,73.81,0,32.4-21.13,60-50.14,69.3Zm-22.54-131.84h-96.63v124.24h96.35c33.52,0,60.85-27.61,60.85-61.7s-27.33-62.54-60.57-62.54Z"/><path class="cls-7" d="M3779.56,2474.57c-16.06,29.86-47.89,50.43-84.23,50.43-52.68,0-95.5-42.82-95.5-95.5s42.82-95.5,95.5-95.5c35.78,0,67.05,20,83.39,49.3l-10.14,6.2c-14.09-26.2-41.69-44.23-73.24-44.23-45.92,0-83.39,37.75-83.39,84.23s37.47,84.23,83.39,84.23c32.12,0,60.85-18.87,74.65-45.07l9.58,5.92Z"/><path class="cls-7" d="M3986.05,2520.77h-11.83v-35.78h-153.25v35.78h-11.83v-182.55h11.83v135.5h153.25v-135.5h11.83v182.55Z"/><path class="cls-7" d="M4166.35,2520.77h-11.83v-164.52l-42.82,38.88-7.32-8.45,51.55-48.45h10.42v182.55Z"/><path class="cls-7" d="M4335.37,2346.96l-106.77,178.04-9.86-6.2,100.85-169.31h-113.81v-11.27h129.59v8.73Z"/></g><g><g><rect class="cls-5" x="1640" y="2199.13" width="1752.95" height="6.78"/><rect class="cls-5" x="3906.7" y="2199.13" width="1752.96" height="6.78"/></g><g class="cls-10"><path class="cls-3" d="M3730.1,2184.31c-4.43-8.49-16.24-2.16-18.46-22.09-2.22-19.93-1.16-27.55-22.35-32.17-21.18-4.63-33.28,42.02-38.26,41.79-4.99-.23-.59-16.43,2.77-26.74,0,0,5.05-19.66-3.51-31.52-8.56-11.86-22-16.07-32.82-7.22-10.81,8.85-17.74,13.7-28.19,10.86-10.45-2.84-26.03-5.38-29.76,10.44-3.73,15.82,7.5,32.32,15.06,41.67,7.56,9.34,33.84,22.08,33.93,23.79,.1,1.71-6.69-.13-32.73-11.68-26.03-11.55-40.98-2.98-46.05,7.42-5.07,10.4,6.53,21.41,14.42,27.47,7.89,6.07,5,12.58,2.16,16.85-2.84,4.28-9.13,23.32,10.63,33.18,19.76,9.85,30.2,.34,36.36-5.84,6.14-6.15,19.02-31.03,24.83-35.12-6.76,19.71-24.93,68.21-44.27,82.31l3.07,17.62s26.26-28.54,39.81-64.03c6.91-18.1,7.86-29.26,7.13-35.86,2.1,2.39,2.72,8.27,.64,17.19-3.45,14.77-7.72,43.68,3.25,54.17,5.1,4.88,22.8,8.99,28.91-1.13,6.11-10.12,19.3-19.44,34.35-17.04,15.05,2.4,28.75-19.12,16.95-33.54-11.79-14.42-19.75-10.82-34.69-18.95-9.04-4.91-36.74-27.92-16.97-18.07,19.76,9.85,45.55,14.04,59.13,11.56,13.58-2.49,19.05-26.8,14.63-35.3Z"/></g></g><g><path class="cls-7" d="M3187.26,1637.81v-215.95h14v80.32c14.33-17.33,36.99-26.99,64.65-26.99,45.32,0,70.32,28.66,70.32,73.65v88.98h-14v-87.65c0-41.66-19.33-61.65-57.99-61.65-28.33,0-52.66,13.66-62.99,34.66v114.64h-14Z"/><path class="cls-7" d="M3520.19,1637.81v-21c-13.33,16.66-34.33,25.99-59.65,25.99-45.32,0-81.98-37.66-81.98-83.98s37.66-83.65,81.98-83.65c25.33,0,46.32,9.33,59.65,25.99v-22.66h14v159.3h-14Zm0-42.32v-72.65c-10-20.66-33.33-34.33-59.65-34.33-36.99,0-67.65,31.99-67.65,70.32s30.66,70.65,67.65,70.65c26.33,0,49.66-13.66,59.65-33.99Z"/><path class="cls-7" d="M3580.84,1693.13v-214.62h14v22.66c13.33-16.66,34.33-25.99,59.65-25.99,44.32,0,81.98,37.66,81.98,83.65s-36.66,83.98-81.98,83.98c-25.33,0-46.32-9.33-59.65-25.99v76.32h-14Zm141.3-134.3c0-38.32-30.66-70.32-67.65-70.32-26.66,0-49.99,13.66-59.65,34.33v72.65c9.66,20.33,32.99,33.99,59.65,33.99,36.99,0,67.65-31.99,67.65-70.65Z"/><path class="cls-7" d="M3778.8,1693.13v-214.62h14v22.66c13.33-16.66,34.33-25.99,59.65-25.99,44.32,0,81.98,37.66,81.98,83.65s-36.66,83.98-81.98,83.98c-25.33,0-46.32-9.33-59.65-25.99v76.32h-14Zm141.3-134.3c0-38.32-30.66-70.32-67.65-70.32-26.66,0-49.99,13.66-59.65,34.33v72.65c9.66,20.33,32.99,33.99,59.65,33.99,36.99,0,67.65-31.99,67.65-70.65Z"/><path class="cls-7" d="M3967.42,1475.18l65.99,146.63,66.98-146.63,12,5.67-78.98,172.63c-11,24.33-27.33,43.32-52.32,43.32v-13.33c18.33,0,30.99-16,39.99-35.33l5-11-70.98-156.3,12.33-5.67Z"/></g><g><path class="cls-9" d="M1867.05,1730.44c0,66.62,69.26,117.9,69.26,200.38,0,67.14-58.68,124.78-138.52,124.78-88.29,0-157.55-58.69-157.55-163.37,0-25.91,9.52-35.42,23.26-35.42,11.1,0,20.09,5.29,28.55,13.74,25.91,25.38,71.38,48.64,114.2,52.87,6.87,1.06,11.1,6.87,10.57,13.22-1.06,7.4-7.4,12.69-14.8,11.63-48.11-6.35-101.51-30.66-130.06-60.8-1.06,1.06-1.59,3.17-1.59,5.29,0,88.29,57.1,138.52,127.42,138.52,66.09,0,106.27-47.05,106.27-99.39,0-73.49-67.14-123.72-67.14-200.91,0-60.27,52.87-104.68,114.73-104.68,17.45,0,32.78,3.17,46,8.99,24.32-14.8,50.23-23.79,67.67-23.79,8.99,0,12.16,3.7,12.16,8.99,0,6.34-3.17,9.52-14.8,10.57-11.1,1.59-28.02,7.4-44.94,16.92,15.33,13.75,23.79,32.78,23.79,55.51,0,47.06-30.66,79.31-65.56,79.31-29.08,0-48.64-20.09-48.64-51.81s20.62-58.16,47.05-79.83c-6.87-1.59-15.33-2.64-23.79-2.64-44.41,0-83.53,34.37-83.53,81.95Zm129.53-68.73c-23.79,17.97-42.82,42.3-42.82,69.26,0,20.09,9.52,29.08,22.73,29.08,21.67,0,39.12-27.49,39.12-55.51,0-18.5-6.87-33.31-19.03-42.82Z"/><path class="cls-9" d="M2107.6,1996.38c2.64-4.76,5.82-6.35,8.46-6.35,4.23,0,8.46,3.7,8.46,8.99,0,14.8-25.91,47.05-56.57,47.05-32.25,0-52.87-20.09-52.87-59.21,0-33.31,21.15-89.88,46-143.81h-24.85c-8.46,0-13.75-3.17-13.75-10.57,0-6.87,5.29-10.04,13.75-10.04h34.89c9.52-19.56,19.56-39.12,28.55-56.04,16.39-31.72,24.85-44.94,32.78-44.94,8.99,0,14.27,5.29,14.27,12.69,0,8.99-7.93,24.85-22.73,48.64l-20.09,39.65h30.13c8.46,0,13.22,4.23,13.22,9.52,0,7.4-5.29,11.1-13.22,11.1h-40.18c-26.44,56.04-49.7,113.67-49.7,147.51,0,24.32,11.63,34.36,26.96,34.36,14.28,0,27.49-13.22,36.48-28.55Z"/><path class="cls-9" d="M2207.53,1983.69c12.69,0,20.09,6.34,20.09,18.5,0,20.62-16.39,43.88-34.37,43.88-12.16,0-20.62-7.4-20.62-19.56,0-23.27,19.56-42.83,34.9-42.83Z"/><path class="cls-9" d="M2937.67,1713.52c0-42.3-20.62-63.44-52.87-63.44-87.24,0-171.83,95.69-204.08,159.14-28.02,57.63-79.3,172.88-103.62,229.46-5.29,11.63-12.16,18.5-19.03,18.5-9.52,0-15.33-6.35-15.33-15.33,0-18.5,16.39-52.34,47.58-102.57,9.52-17.98,38.07-81.42,58.69-133.76,17.98-45.47,22.73-71.9,22.73-96.75,0-28.55-11.63-47.05-31.72-54.98-12.69,79.3-89.35,179.76-157.02,179.76-35.42,0-57.1-21.15-57.1-57.63,0-71.9,102.04-148.04,188.75-149.09-.53-16.92-4.23-24.32-6.87-29.08-2.11-3.17-3.17-6.34-3.17-8.46,0-6.34,5.81-11.63,12.69-11.63,12.16,0,24.32,17.98,24.85,52.87,35.95,9.52,58.69,39.65,58.69,78.78,0,7.4-1.06,19.03-2.64,30.66,44.41-56.57,113.67-113.67,186.1-113.67,51.81,0,85.12,31.72,85.12,87.76,0,114.2-116.84,236.33-223.64,236.33-42.29,0-84.59-24.32-84.59-40.18,0-5.81,6.34-13.22,12.16-13.22s9.52,3.17,15.33,8.99c12.69,12.16,33.84,20.62,56.57,20.62,97.28,0,192.45-115.79,192.45-213.07Zm-324.62-63.97c-73.49,1.06-159.14,66.61-159.14,128.47,0,20.62,11.1,32.78,29.61,32.78,55.51,0,118.96-92.52,129.53-161.25Z"/><path class="cls-9" d="M3229.51,1935.05c2.64-4.23,5.82-5.82,8.99-5.82,5.82,0,10.57,4.76,10.57,10.57,0,2.11-.53,4.76-2.11,7.4-32.78,50.75-71.37,98.87-114.73,98.87-27.49,0-50.75-19.03-50.75-54.98,0-2.64,0-4.76,.53-6.87-25.38,34.89-55.51,61.86-87.23,61.86-35.42,0-60.8-23.26-60.8-65.56,0-78.25,80.89-158.08,145.92-158.08,23.79,0,42.3,8.46,52.34,25.91,4.76-15.86,14.28-25.91,22.73-25.91,8.99,0,14.28,5.29,14.28,12.69,0,8.99-8.99,24.85-23.79,48.64-16.39,35.42-35.42,77.72-35.42,107.33,0,23.26,10.57,33.84,26.43,33.84,28.02,0,62.92-43.35,93.05-89.88Zm-152.8,25.38c19.03-28.55,31.2-53.93,44.41-87.24-2.64-17.97-16.92-29.08-41.77-29.08-49.17,0-115.25,73.49-115.25,138.52,0,26.96,15.33,41.24,33.31,41.24,26.96,0,54.46-27.49,79.3-63.44Z"/><path class="cls-9" d="M3370.15,1935.05c2.64-4.23,5.29-6.35,8.99-6.35,5.29,0,11.1,4.23,11.1,9.52,0,3.7-1.06,5.82-2.64,8.46-34.9,54.46-71.9,99.4-114.73,99.4-32.25,0-52.87-20.09-52.87-59.21,0-33.31,21.15-89.88,46-143.81h-24.85c-8.46,0-13.75-3.17-13.75-10.57,0-6.87,5.29-10.04,13.75-10.04h34.9c9.52-19.56,19.56-39.12,28.55-56.04,16.39-31.72,24.85-44.94,32.78-44.94,8.99,0,14.28,5.29,14.28,12.69,0,8.99-7.93,24.85-22.74,48.64l-20.09,39.65h30.13c8.46,0,13.22,4.23,13.22,9.52,0,7.4-5.29,11.1-13.22,11.1h-40.18c-26.44,56.04-49.7,113.67-49.7,147.51,0,24.32,11.63,34.36,27.49,34.36,28.02,0,64.5-41.77,93.58-89.88Z"/><path class="cls-9" d="M3483.81,2024.93c28.02,0,62.92-43.35,93.05-89.88,2.64-4.23,5.82-5.82,8.99-5.82,5.81,0,10.57,4.76,10.57,10.57,0,2.11-.53,4.76-2.12,7.4-32.78,50.75-71.37,98.87-114.73,98.87-28.55,0-47.06-19.56-47.06-52.87,0-42.3,46-89.35,46-118.43,0-14.27-20.62-20.09-33.31-28.02-16.39,32.25-35.42,65.03-57.63,99.93-2.64,4.23-5.29,7.4-10.04,7.4-5.82,0-10.57-4.23-10.57-9.52,0-3.7,1.06-5.82,3.17-9.52,20.09-30.66,35.95-59.74,54.99-100.45v-6.87c0-35.42,17.97-59.22,31.19-59.22,11.1,0,17.45,6.35,17.45,15.33s-5.29,24.32-16.39,43.88c17.45,13.74,50.23,21.15,50.23,46,0,35.42-47.05,79.3-47.05,123.19,0,17.98,8.99,28.02,23.26,28.02Z"/><path class="cls-9" d="M3711.68,1935.05c2.64-4.23,5.82-5.82,8.99-5.82,5.82,0,10.57,4.76,10.57,10.57,0,2.11-.53,4.76-2.11,7.4-32.78,50.75-71.37,98.87-114.73,98.87-29.61,0-49.17-18.5-49.17-55.51s20.62-86.71,39.65-123.19c16.39-31.72,24.85-44.94,32.78-44.94,8.99,0,14.28,5.29,14.28,12.69,0,8.99-7.93,24.85-22.74,48.64-17.45,34.9-34.89,76.13-34.89,107.86,0,23.79,10.04,33.31,24.32,33.31,28.02,0,62.92-43.35,93.05-89.88Zm-32.78-194.03c10.57,0,19.03,6.87,19.03,18.5,0,9.52-8.99,24.85-23.79,24.85-10.57,0-19.56-6.34-19.56-17.97s11.1-25.38,24.32-25.38Z"/><path class="cls-9" d="M3866.59,1855.74c-2.64-7.4-11.1-11.63-22.73-11.63-41.77,0-108.91,61.33-108.91,129.53,0,33.31,21.68,49.7,54.99,49.7,46,0,109.44-33.83,144.33-88.29,0,0,3.7-5.82,8.46-5.82,6.87,0,11.1,4.76,11.1,11.1,0,2.11-1.06,4.76-2.11,6.87-37.54,58.16-101.51,98.87-164.95,98.87-52.34,0-81.95-25.38-81.95-72.96,0-82.48,80.36-150.68,139.58-150.68,29.61,0,47.58,18.5,47.58,41.77,0,30.66-17.98,53.93-30.66,53.93-10.04,0-15.86-5.81-15.86-14.28,0-9.52,6.35-25.38,21.15-48.11Z"/><path class="cls-9" d="M4169.53,1935.05c2.64-4.23,5.82-5.82,8.99-5.82,5.82,0,10.57,4.76,10.57,10.57,0,2.11-.53,4.76-2.11,7.4-33.31,51.81-74.02,98.87-122.66,98.87-40.18,0-65.56-25.91-83.01-72.43-1.59-4.76-2.11-7.93-2.11-11.63,0-7.4,5.29-12.16,16.39-14.27,54.98-10.57,103.1-51.28,103.1-85.12,0-11.63-6.87-18.5-18.5-18.5-26.44,0-74.02,34.37-99.93,65.56-21.67,26.43-41.24,78.25-54.46,120.54-2.11,6.87-5.29,15.86-15.86,15.86-5.28,0-10.57-3.17-10.57-10.57,0-4.76,.53-7.4,2.11-12.69,34.9-101.51,83.53-218.88,121.07-307.17,4.76-11.63,12.69-18.5,19.56-18.5,8.99,0,14.28,5.29,14.28,12.69,0,12.16-10.57,34.37-31.19,67.15l-44.94,107.85c30.14-33.31,71.9-62.39,102.04-62.39,26.96,0,44.94,16.39,44.94,42.3,0,40.71-56.57,87.23-121.07,103.1,11.63,35.95,34.37,57.1,62.39,57.1,30.66,0,70.32-42.29,100.98-89.88Z"/><path class="cls-9" d="M4215.53,1807.63c-3.7,8.99-10.57,12.16-19.03,8.46-8.46-3.7-10.04-12.16-6.34-20.09l59.74-134.29c4.23-8.99,10.04-12.69,19.03-8.99,8.46,4.23,9.52,11.63,5.81,20.62l-59.21,134.29Z"/><path class="cls-9" d="M4219.76,1988.45c0-9.52,10.04-26.96,27.49-53.4,19.56-29.61,34.36-60.27,52.87-99.93v-7.4c0-34.89,16.92-59.22,31.2-59.22,11.63,0,17.97,6.35,17.97,15.86,0,10.57-6.87,28.55-21.67,53.93,11.1,39.12,49.17,80.89,49.17,129.53,0,43.35-29.61,78.25-81.42,78.25s-75.6-26.96-75.6-57.63Zm92.52-122.13c-13.75,26.44-29.61,52.87-47.58,80.89-13.22,19.56-19.56,31.19-19.56,38.07,0,12.69,13.74,39.65,48.64,39.65s54.46-26.96,54.46-56.57c0-39.65-21.68-66.61-35.95-102.04Z"/><path class="cls-9" d="M4849.97,1754.76c-6.35-11.1-10.04-24.32-10.04-39.65,0-48.11,49.7-89.88,116.84-89.88s120.54,29.61,150.15,86.71c8.99-14.28,13.75-29.61,13.75-44.41,0-11.63-3.7-16.39-3.7-23.26s5.29-10.57,13.22-10.57c10.57,0,16.92,13.22,16.92,29.61,0,27.49-10.57,53.4-29.08,75.6,7.4,22.21,11.63,47.58,11.63,75.6,0,134.29-103.62,247.96-223.64,247.96-74.02,0-120.54-30.66-162.31-55.51-30.66,33.31-64.5,54.98-101.51,54.98s-61.86-20.62-61.86-52.34,34.37-56.57,76.13-56.57c30.67,0,56.04,8.99,80.36,21.15,47.05-62.39,87.76-155.96,113.14-219.41Zm-129.53,238.97c-20.62-11.1-40.71-18.5-63.97-18.5-28.55,0-49.17,15.86-49.17,34.9,0,17.98,13.22,29.08,35.95,29.08,26.44,0,52.34-17.97,77.19-45.47Zm149.09-215.18c-24.85,64.5-62.39,148.56-109.44,208.83,41.76,23.79,83,51.29,145.92,51.29,104.15,0,194.03-102.57,194.03-224.17,0-19.03-2.12-36.48-5.82-52.34-34.9,27.49-83.01,44.94-135.35,44.94-33.84,0-66.62-9.52-89.35-28.55Zm216.77-42.3c-22.73-56.57-71.37-87.24-129.53-87.24-51.81,0-89.35,30.14-89.35,66.09,0,41.77,37.54,68.2,91.99,68.2s97.81-19.56,126.89-47.05Z"/><path class="cls-9" d="M5453.75,1935.05c2.64-4.23,5.82-5.82,8.99-5.82,5.81,0,10.57,4.76,10.57,10.57,0,2.11-.53,4.76-2.12,7.4-32.78,50.75-71.37,98.87-114.73,98.87-27.49,0-50.76-19.03-50.76-54.98,0-2.64,0-4.76,.53-6.87-25.38,34.89-55.51,61.86-87.24,61.86-35.42,0-60.8-23.26-60.8-65.56,0-78.25,80.89-158.08,145.92-158.08,23.79,0,42.29,8.46,52.34,25.91,4.76-15.86,14.27-25.91,22.73-25.91,8.99,0,14.28,5.29,14.28,12.69,0,8.99-8.99,24.85-23.79,48.64-16.39,35.42-35.42,77.72-35.42,107.33,0,23.26,10.57,33.84,26.44,33.84,28.02,0,62.92-43.35,93.05-89.88Zm-152.79,25.38c19.03-28.55,31.19-53.93,44.41-87.24-2.64-17.97-16.92-29.08-41.77-29.08-49.17,0-115.26,73.49-115.26,138.52,0,26.96,15.33,41.24,33.31,41.24,26.96,0,54.46-27.49,79.31-63.44Z"/><path class="cls-9" d="M5540.46,2073.57c15.33-39.12,23.26-66.61,30.67-87.76-24.32,33.84-51.81,60.27-79.84,60.27s-48.64-18.5-48.64-55.51c0-34.9,21.15-86.71,39.65-123.19,16.39-31.72,24.85-44.94,32.78-44.94,8.99,0,14.27,5.29,14.27,12.69,0,8.99-7.93,24.85-22.73,48.64-16.92,34.9-34.89,77.72-34.89,107.86,0,23.26,10.04,31.72,22.2,31.72,23.79,0,48.64-28.02,72.96-62.91,18.5-26.44,35.95-66.61,50.22-99.92,12.16-28.02,19.56-38.07,28.02-38.07,8.99,0,14.27,5.29,14.27,12.69,0,8.99-8.99,24.85-23.79,48.64-13.22,29.08-28.02,78.78-37.01,105.74l-21.68,62.91c-26.44,76.66-68.73,135.35-122.13,135.35-31.19,0-53.4-16.39-58.68-32.78-1.59-4.76-1.59-6.87-1.59-9.52,0-6.87,3.7-12.69,12.16-12.69,6.34,0,9.52,4.23,12.16,8.99,8.46,14.81,15.86,24.85,35.95,24.85,27.49,0,63.44-36.48,85.65-93.05Z"/></g></g><g><g><g class="cls-11"><path class="cls-5" d="M9148.28,1247.03c-40.53-77.75-148.68-19.8-169.03-202.25-20.35-182.45-10.65-252.18-204.56-294.52-193.92-42.34-304.63,384.65-350.28,382.53-45.64-2.11-5.41-150.39,25.32-244.75,0,0,46.27-180.01-32.11-288.58-78.38-108.56-201.44-147.09-300.44-66.11-99,80.98-162.4,125.4-258.06,99.44-95.66-25.95-238.26-49.24-272.41,95.55-34.15,144.79,68.63,295.92,137.86,381.46,69.22,85.54,309.75,202.15,310.64,217.8,.89,15.65-61.29-1.22-299.63-106.97-238.34-105.75-375.16-27.33-421.54,67.93-46.38,95.25,59.81,195.96,132.03,251.5,72.23,55.54,45.79,115.13,19.76,154.28-26.03,39.15-83.61,213.53,97.33,303.71,180.94,90.17,276.45,3.11,332.89-53.47,56.17-56.32,174.13-284.11,227.35-321.51-61.93,180.47-228.21,624.44-405.28,753.51l28.13,161.3s240.36-261.32,364.45-586.2c63.27-165.66,71.95-267.88,65.27-328.29,19.19,21.89,24.94,75.68,5.88,157.39-31.55,135.22-70.71,399.91,29.77,495.92,46.72,44.64,208.75,82.31,264.7-10.34,55.95-92.66,176.68-178.01,314.5-156.02,137.82,21.99,263.18-175.08,155.21-307.08-107.97-132-180.77-99.09-317.54-173.45-82.73-44.98-336.34-255.58-155.39-165.41,180.94,90.17,417.02,128.55,541.3,105.78,124.29-22.77,174.42-245.38,133.89-323.14Z"/></g><path class="cls-1" d="M7945.2,2704.78l-37.43-214.64,10.28-7.49c39.19-28.57,81.02-76.2,124.32-141.58,37.35-56.4,76.08-126.44,115.09-208.19,45.49-95.31,85.27-193.85,115.53-274.27-15.02,23.05-30.29,47.4-44.39,69.87-40.58,64.71-78.92,125.82-106.13,153.11-23.22,23.28-66.43,66.6-127.85,86.75-31.83,10.44-65.88,13.89-101.18,10.25-39.99-4.12-82.86-17.47-127.43-39.68-36.7-18.29-66.67-41.2-89.05-68.1-19.8-23.79-33.85-50.85-41.74-80.42-20.3-76.05,4.91-153.7,25.57-184.78,15.52-23.34,23-42.51,23.56-60.32,.75-24.08-11.93-45.82-38.76-66.45-129.78-99.8-177.48-195.46-137.95-276.64,51.08-104.9,199.11-188.17,448.19-77.66,72.06,31.97,129.55,56.52,174.3,74.42-76.81-45.86-168.68-103.29-209.48-153.72-49.19-60.78-85.31-117.35-110.43-172.95-36.95-81.77-47.52-157.83-31.43-226.05,11.6-49.19,35.89-85.09,72.18-106.7,67.26-40.06,160.89-21.4,225.47-3.87,40.89,11.09,76.08,8.46,114.08-8.55,39.46-17.66,81.97-51.22,125.69-86.99,45.74-37.41,98.76-53.41,153.33-46.28,33.04,4.32,65.35,16.84,96.03,37.24,30.02,19.95,57.13,46.53,80.58,79.01,19.57,27.11,33.54,60.31,41.52,98.69,6.24,30.01,8.86,63.28,7.78,98.89-1.82,60.15-13.48,106.12-13.97,108.05l-.36,1.24c-11.93,36.63-28.12,90.15-37.46,137.05-9.03,45.31-8.1,66.33-6.27,75.57,2.92-3.98,7.04-10.26,12.6-20.15,9.26-16.44,19.76-37.71,31.92-62.34,31.11-63,69.83-141.41,118.73-202.25,27.86-34.66,55.37-59.21,84.11-75.06,34.56-19.06,70.3-24.74,106.25-16.89,46.25,10.1,82.01,22.01,109.34,36.4,28.15,14.83,49.18,33.22,64.31,56.21,28.54,43.4,34.34,99.51,42.36,177.16,1.4,13.56,2.85,27.58,4.51,42.44,5.24,46.94,16.82,80.05,35.4,101.22,15.78,17.96,35.28,26.08,55.93,34.66,26.73,11.12,57.02,23.72,75.51,59.19h0c27.87,53.47,18.58,159.04-21.15,240.34-14.28,29.22-31.53,53.5-51.27,72.19-22.82,21.59-48.36,35.1-75.91,40.15-64.86,11.88-156.07,8.13-256.81-10.55-102.51-19.01-205.27-52.17-290.33-93.62,11.96,10.8,26.69,23.45,44.48,37.91,46.76,38.01,96.12,73.31,122.83,87.83,47.73,25.95,86.69,38.14,124.37,49.93,67.85,21.23,126.45,39.56,199.23,128.54,28.49,34.83,44.17,76.56,45.34,120.68,1.05,39.74-9.44,79.97-30.34,116.33-19.82,34.48-47.27,62.57-79.39,81.25-34.84,20.26-72.83,27.85-109.84,21.94-58.86-9.39-119.31,1.92-174.82,32.71-48.78,27.05-91.03,67.43-118.97,113.7-21.79,36.08-59.09,58.58-107.88,65.08-73.47,9.79-155.01-18.61-188.42-50.53-48.38-46.23-72.18-129.76-70.71-248.28,.38-30.61,2.39-61.17,5.37-90.46-.78,2.08-1.57,4.15-2.37,6.24-64.87,169.84-161.54,321.88-231.22,419.51-75.47,105.75-134.8,170.53-137.29,173.23l-28.05,30.49Zm7.14-196.9l18.62,106.78c24.56-29.12,63.17-76.86,106.7-137.89,68.15-95.56,162.67-244.23,225.91-409.8,35.13-91.98,74.76-221.94,64.04-318.75l-2.82-25.43-10.12,29.5c-28.39,82.73-86.97,244.47-160.35,398.2-84.3,176.62-165.66,296.75-242,357.4Zm420.9-809.66l30.05,34.27c26.16,29.83,29.86,92.16,10.41,175.5-12.19,52.23-32.82,155.23-34.09,258.28-.62,50,3.53,93.45,12.33,129.14,9.71,39.38,25.1,69.36,45.76,89.09,12.53,11.97,36.34,23.77,63.68,31.56,31.07,8.85,63.43,11.7,91.12,8.01,36.58-4.88,62.93-20.25,78.3-45.7,31.57-52.28,79.2-97.85,134.13-128.31,63.58-35.26,133.11-48.17,201.08-37.33,27.61,4.41,56.26-1.44,82.87-16.91,25.57-14.87,48.48-38.41,64.51-66.29,17.16-29.84,25.77-62.66,24.92-94.88-.94-35.47-13.09-67.74-36.12-95.89-65.03-79.5-115.68-95.35-179.8-115.41-37.71-11.8-80.44-25.17-131.68-53.03-36.63-19.91-96.75-65.1-140.08-101.04-25.89-21.48-47.44-40.94-62.33-56.29-17.63-18.18-34.06-37.44-24.64-55.54,2.05-3.94,8.43-13.1,23.32-13.12h.05c5,0,10.63,1,17.74,3.16,11.88,3.61,28.04,10.54,49.42,21.19,83.07,41.4,184.82,74.58,286.51,93.44,94.58,17.54,182.78,21.38,242,10.53,51.42-9.42,83.36-60.48,97.83-90.09,36.96-75.63,41.02-166.29,21.62-203.51h0c-11.64-22.33-30.76-30.28-54.97-40.35-45.5-18.92-102.13-42.47-116.25-169.08-1.68-15.03-3.13-29.13-4.54-42.77-7.43-71.89-12.79-123.84-35.85-158.91-11.39-17.32-27.03-30.83-49.22-42.52-24.02-12.66-56.4-23.33-99-32.63-50.03-10.92-99.03,14.47-149.8,77.63-46.09,57.35-83.72,133.53-113.95,194.74-14.39,29.15-26.83,54.32-37.87,72.77-11.79,19.71-25.27,37.86-43.91,37.87-.44,0-.89-.01-1.34-.03-12.03-.56-22.47-6.39-29.41-16.42-13.57-19.63-14.2-55.18-2.05-115.28,9.73-48.13,26.03-102.07,38.07-139.09,2.61-10.75,40.7-174.42-29.02-270.99-20.57-28.49-44.14-51.67-70.06-68.9-25.44-16.9-51.92-27.25-78.71-30.75-43.13-5.63-85.37,7.3-122.17,37.39-47.7,39.02-90.77,72.92-134.87,92.66-46.58,20.85-91.53,24.24-141.47,10.69-57.4-15.57-139.94-32.56-193.86-.45-26.79,15.95-44.23,42.44-53.31,80.98-13.97,59.25-4.25,126.48,28.9,199.85,23.33,51.65,58.65,106.85,104.96,164.07,41.43,51.19,153.24,117.46,227.24,161.31,22.6,13.4,42.12,24.96,56.28,34.07,19.18,12.33,30.89,20.78,31.64,34.11,.49,8.65-3.42,16.72-10.45,21.58-11.84,8.19-29.2,8.25-91.21-14.18-49.42-17.87-123.55-48.79-226.65-94.54-54.77-24.3-106.65-39.71-154.2-45.8-41.97-5.38-80.7-3.53-115.08,5.48-77.42,20.29-111.92,70.44-125.6,98.52-9.03,18.55-11.45,37.8-7.4,58.87,3.7,19.23,12.95,39.88,27.49,61.38,22.98,33.98,58.66,69.68,106.03,106.11,37.47,28.81,55.87,62.5,54.69,100.12-1.06,33.84-17.84,62.82-30.37,81.67-6.88,10.35-16.22,32.38-21.58,58.28-4.67,22.57-8.21,57.09,1.47,93.34,13.87,51.97,50.73,93.18,109.54,122.49,40.16,20.01,78.31,31.99,113.39,35.61,29.56,3.04,57.91,.21,84.26-8.44,48.1-15.78,82.86-47.91,111.65-76.78,23.97-24.03,62.85-86.02,100.45-145.97,58.76-93.69,99.53-156.69,129.63-177.84l38.85-27.3-1.99-17.96,10.5,11.97,4.14-2.91-1.88,5.48Zm-142.85-237.15h0s0,0,0,0Z"/></g><g><path class="cls-5" d="M6981.75,1041.41c-19.67-.21-19.65,27.32-57.89,12.04-38.25-15.28-51.01-24.58-79.91,9.3-28.9,33.88,43.86,100.96,38.61,109.77-5.25,8.81-30.32-14.84-45.74-30.91,0,0-30.71-28.2-60.48-24.18-29.77,4.02-50.41,24.29-44.87,52.44,5.54,28.15,7.62,45.4-7.63,61.57-15.26,16.18-34.95,41.92-9.92,64,25.03,22.08,65.8,17.74,90.05,13.09,24.25-4.64,72.76-39.88,75.95-38.41,3.19,1.48-6.73,11.99-52.87,47.95-46.14,35.96-45.1,71.32-31.17,90.58,13.94,19.25,45.09,8.9,63.72,.49,18.63-8.41,27.62,3.12,32.61,12.42,4.99,9.29,33.39,39.13,70.38,12.88,36.98-26.25,29.87-54.36,24.65-71.51-5.2-17.07-37.78-64.51-39.55-78.99,29.15,31.35,99.38,111.22,106.18,159.9l34.88,11.5s-26.26-75.2-77.4-134.12c-26.07-30.05-45.38-42.58-58.04-47.65,6.36-1.48,17.61,3.07,31.76,15.49,23.41,20.55,71.63,56.3,101.25,46.58,13.77-4.52,38.37-32.59,25.96-53.46-12.41-20.87-16.52-53.79,2.41-78.72,18.93-24.94-6.79-70.59-44.32-63.2-37.54,7.39-38.73,25.27-67.91,44.46-17.65,11.61-86.15,39.49-49.16,13.24,36.98-26.25,69.56-68.89,78.2-95.89,8.65-27-30.09-60.47-49.76-60.68Z"/><path class="cls-1" d="M7142.82,1433.65l-46.42-15.31-.39-2.83c-2.83-20.28-17.59-48.66-43.86-84.37-14.05-19.09-29.34-37.4-42.05-51.9,2.92,5.31,6.1,10.87,9.15,16.2,8.51,14.87,16.54,28.92,19.06,37.19,2.15,7.06,6.15,20.19,3.63,34.47-2.78,15.78-12.87,29.95-30.01,42.11-14.26,10.12-28.8,13.54-43.22,10.16-17.19-4.03-29.89-17.23-33.85-24.61-6.8-12.67-14.79-15.78-26.69-10.41-33.48,15.11-57.45,14.43-69.32-1.98-15.35-21.2-16.16-59.3,32.06-96.88,14.84-11.57,25.5-20.18,33.13-26.59-17.19,10.34-38.26,22.42-52.54,25.15-42.46,8.13-74.07,3.37-93.94-14.16-8.5-7.5-13.04-16.1-13.47-25.57-.81-17.54,12.79-34.09,23.09-45.01,13.33-14.14,12.21-28.39,6.47-57.54-2.56-13.01-.12-25.19,7.07-35.23,8.69-12.14,23.49-20.18,41.68-22.64,31.54-4.25,62.88,24.14,64.2,25.35l.21,.2c21.65,22.57,33.16,30,37.5,31.23-1.81-3.82-7.2-11.36-11.68-17.62-18.92-26.46-47.53-66.44-25.49-92.28,28.68-33.63,44.57-27.13,76.22-14.18,2.8,1.15,5.75,2.35,8.87,3.6,21.52,8.6,28.82,2.63,36.54-3.69,4.98-4.07,10.61-8.68,19.43-8.68,.09,0,.18,0,.27,0,13.53,.14,33.43,13.15,45.31,29.61,9.21,12.77,12.33,25.93,8.77,37.05-9.52,29.72-43.83,72.13-78.53,97.23,13.49-4.88,33.3-13.69,42.6-19.81,10.18-6.7,16.72-13.11,23.04-19.32,11.38-11.18,21.21-20.83,46.51-25.81,22.77-4.48,39.96,8.48,48.47,22.11,10.17,16.29,10.32,35.27,.39,48.35-17.68,23.29-13.5,54.48-2.12,73.61,4.83,8.13,5.34,17.89,1.46,28.23-5.84,15.57-20.08,28.7-29.93,31.93-21.65,7.1-51.02-7.53-73.99-23,.35,.4,.7,.8,1.05,1.21,51.12,58.91,78,134.86,78.26,135.62l3.06,8.77Zm-38.2-22.25l23.08,7.61c-8.6-21.51-33.39-77.95-73.14-123.75-26.23-30.22-45.08-41.91-56.28-46.4l-5.33-2.13,4.76,5.12c29.4,31.62,97.76,109.54,106.9,159.54Zm-186.26-38.76c9.97,0,18.2,5.95,24.56,17.79,2.71,5.04,13.08,16.56,27.86,20.02,11.75,2.75,23.8-.18,35.82-8.71,35.48-25.18,27.3-52.02,22.92-66.44-2.22-7.28-10.37-21.53-18.25-35.31-10.49-18.34-20.39-35.66-21.46-44.46l-1.29-10.57-3.76-1.51,3.48-.81-.14-1.12,.88,.95,9.96-2.32c8.67-2.02,21.39,3.84,35.82,16.51,31.04,27.25,72.78,53.56,96.8,45.67,6.66-2.19,19.12-12.86,24.21-26.43,2.91-7.75,2.65-14.59-.76-20.33-13.32-22.41-17.66-57.02,2.7-83.84,7.61-10.02,7.27-24.92-.87-37.96-6.89-11.04-20.73-21.55-38.92-17.97-22.61,4.45-31.1,12.79-41.86,23.36-6.32,6.21-13.49,13.25-24.42,20.44-7.82,5.14-23.12,12.25-34.81,17.02-25.36,10.34-29.09,8.65-31.33,5.37-3.56-5.2,2.94-10.43,11.8-16.72,37.69-26.76,68.49-68.57,76.49-93.55,3.58-11.17-3.14-22.89-7.47-28.88-11.05-15.31-28.56-25.71-37.97-25.81h0c-.06,0-.11,0-.17,0-5.55,0-9.12,2.92-13.63,6.61-8.56,7-19.21,15.71-45.75,5.11-3.14-1.26-6.12-2.47-8.94-3.63-30.97-12.67-41.4-16.93-65.78,11.65-17.38,20.38,8.71,56.86,25.97,80.99,11.18,15.64,16.29,22.77,13.09,28.15-1.38,2.32-3.64,3.77-6.36,4.08-3.08,.35-12.46,1.42-46.51-34.04-1.85-1.65-30.2-26.5-56.68-22.93-15.66,2.11-28.25,8.82-35.46,18.89-5.68,7.94-7.59,17.66-5.53,28.12,5.71,28.97,7.96,47.84-8.8,65.6-9.15,9.71-21.25,24.24-20.6,38.3,.32,6.99,3.72,13.24,10.38,19.12,17.63,15.55,46.62,19.6,86.15,12.03,14.51-2.78,39.45-17.89,55.96-27.88,17.2-10.42,19.53-11.69,22.79-10.18,1.76,.82,2.95,2.44,3.16,4.35,.37,3.21-1.46,6.65-12.46,16.54-8.76,7.88-22.73,19.28-42.68,34.83-26.92,20.98-51,55.64-30.27,84.27,6.28,8.68,21.46,15.55,58.12-1,4.98-2.25,9.64-3.37,13.97-3.37Z"/></g><g><path class="cls-5" d="M10308.23,1497.27c-7.83-18.05-32.95-6.81-34.59-47.96-1.64-41.15,1.65-56.6-41.07-69.17-42.72-12.57-74.31,81.21-84.49,80-10.18-1.2,1.19-33.74,9.58-54.36,0,0,13.23-39.54-2.58-65.09-15.81-25.55-42.73-36.13-66.17-19.59-23.45,16.54-38.34,25.47-59.34,18.13-20.99-7.34-52.53-14.82-62.48,17.03-9.95,31.85,10.63,67.31,24.75,87.56,14.12,20.25,66.08,50.18,66.03,53.7-.05,3.52-13.7-1.25-65.34-28.72-51.64-27.47-83.51-12.11-95.41,8.47-11.9,20.57,10.25,44.81,25.53,58.39,15.28,13.58,8.41,26.49,1.96,34.84-6.45,8.35-22.12,46.45,16.93,69.52,39.05,23.07,61.81,5.11,75.34-6.65,13.47-11.71,43.5-60.79,56.01-68.31-16.74,39.39-61.04,136.09-102.73,162.14l3.72,36.54s57.96-54.64,90.92-125.35c16.81-36.06,20.38-58.79,19.85-72.42,3.95,5.2,4.37,17.33-1.2,35.31-9.22,29.76-22.21,88.36-1.26,111.45,9.74,10.74,45.4,21.75,59.4,1.91,14-19.84,42.38-37.01,72.87-29.89,30.49,7.12,61.69-34.97,39.64-66.24-22.05-31.26-38.87-25.06-68.28-43.89-17.79-11.39-71.18-62.56-32.13-39.5,39.05,23.07,91.26,35.43,119.44,32.32,28.18-3.11,42.95-52.12,35.12-70.17Z"/><path class="cls-1" d="M10015.72,1804.26l-4.95-48.63,2.42-1.51c17.36-10.85,37.27-35.9,59.16-74.44,11.71-20.61,22.19-42.04,30.25-59.56-3.66,4.83-7.44,10-11.06,14.96-10.11,13.83-19.67,26.89-26.19,32.56-5.57,4.84-15.93,13.84-30,17.37-15.54,3.9-32.59,.45-50.69-10.24-15.06-8.89-24.11-20.78-26.9-35.33-3.33-17.34,3.55-34.32,8.67-40.94,8.79-11.38,8.38-19.93-1.38-28.61-27.45-24.41-36.59-46.57-26.45-64.11,13.11-22.66,47.56-38.93,101.53-10.22,16.61,8.84,28.82,15.06,37.78,19.42-16.45-11.49-36.07-25.79-44.39-37.72-24.74-35.46-33.27-66.26-25.37-91.55,3.38-10.82,9.39-18.47,17.86-22.72,15.69-7.89,36.35-2.22,50.52,2.74,18.35,6.41,30.9-.42,55.18-17.55,10.83-7.64,22.95-10.38,35.05-7.91,14.63,2.98,28.01,13.22,37.66,28.84,16.74,27.06,3.59,67.26,3.02,68.95l-.1,.27c-11.78,28.97-13.87,42.51-13.23,46.98,2.75-3.21,7.43-11.21,11.32-17.85,16.45-28.07,41.3-70.48,73.87-60.9,42.4,12.48,42.94,29.64,44.03,63.82,.1,3.03,.2,6.21,.33,9.57,.92,23.16,9.35,27.39,18.27,31.87,5.74,2.88,12.25,6.15,15.84,14.2,.04,.08,.07,.17,.11,.25,5.38,12.41,1.62,35.89-8.57,53.44-7.9,13.62-18.65,21.83-30.25,23.11-31.02,3.42-83.74-10.62-120.8-32.07,9.95,10.33,26.08,24.83,35.46,30.83,10.27,6.57,18.79,9.92,27.03,13.16,14.84,5.83,27.66,10.87,42.53,31.95,13.37,18.96,8.55,39.95-.43,53.27-10.73,15.93-28,23.8-43.99,20.07-28.47-6.65-55.25,9.89-68.08,28.07-5.45,7.73-14.16,12.17-25.18,12.84-16.6,1.02-34.39-6.64-41.36-14.32-15.31-16.87-13.92-49.65-9.17-76.94-.22,.48-.45,.97-.67,1.46-32.95,70.7-91.34,126.2-91.93,126.75l-6.76,6.38Zm4.74-43.95l2.46,24.18c16.13-16.62,57.56-62.27,83.18-117.23,16.91-36.27,19.89-58.25,19.42-70.3l-.22-5.73-2.74,6.44c-16.89,39.73-60.17,133.93-102.1,162.65Zm-40.54-185.88c4.07,9.11,1.99,19.04-6.23,29.68-3.5,4.52-9.79,18.69-6.92,33.61,2.27,11.85,9.86,21.66,22.56,29.16,37.46,22.13,58.63,3.73,70.01-6.16,5.75-4.99,15.44-18.24,24.81-31.06,12.47-17.05,24.25-33.15,31.85-37.72l9.13-5.49-.16-4.05,2.16,2.85,.97-.58-.51,1.2,6.18,8.15c5.37,7.09,5.21,21.1-.47,39.44-12.23,39.45-19.24,88.29-2.24,107.01,4.71,5.19,19.53,12.21,34.01,11.33,8.27-.51,14.41-3.53,18.25-8.98,15.03-21.3,44.87-39.37,77.66-31.71,12.25,2.86,25.72-3.52,34.31-16.26,7.27-10.79,11.23-27.72,.54-42.87-13.28-18.83-24.36-23.18-38.39-28.7-8.25-3.24-17.6-6.92-28.62-13.97-7.88-5.04-20.61-16.11-29.73-24.85-19.78-18.94-19.76-23.03-17.68-26.42,3.3-5.37,10.72-1.57,20.08,3.96,39.8,23.51,90.54,34.58,116.6,31.71,11.66-1.29,19.62-12.2,23.33-18.6,9.48-16.33,11.84-36.56,8.09-45.19h0c-.02-.05-.05-.1-.07-.16-2.26-5.07-6.38-7.14-11.59-9.75-9.88-4.96-22.17-11.13-23.31-39.69-.13-3.38-.24-6.59-.33-9.64-1.06-33.44-1.42-44.71-37.45-55.32-25.7-7.56-48.37,31.13-63.37,56.74-9.72,16.59-14.15,24.16-20.37,23.42-2.68-.32-4.93-1.79-6.32-4.15-1.57-2.67-6.38-10.79,12.13-56.34,.75-2.36,11.89-38.39-2.16-61.1-8.32-13.44-19.57-22.2-31.7-24.68-9.56-1.95-19.22,.27-27.93,6.42-24.12,17.02-40.44,26.77-63.49,18.71-12.6-4.4-30.8-9.52-43.37-3.2-6.25,3.14-10.57,8.79-13.22,17.27-7.01,22.44,1.11,50.56,24.14,83.57,8.45,12.12,32.42,28.73,48.27,39.73,16.53,11.46,18.64,13.06,18.58,16.66-.03,1.94-1.03,3.69-2.68,4.66-2.78,1.64-6.67,1.38-20.18-4.63-10.77-4.79-26.87-12.89-49.21-24.78-30.13-16.03-71.59-23.88-89.29,6.71-5.37,9.28-5.45,25.94,24.61,52.67,4.08,3.63,7.01,7.43,8.77,11.38Z"/></g><g><g><path class="cls-5" d="M7345.16,2305.29c-.3,58.61-61.29,200.45-348.39,368.38-287.1,167.93-402.67,114.38-407.49,89.25-4.5-23.42,131.94-114.84,150.5-127.16l-.02-.03-48.61-53.89c-12.57-13.68-27.37-30.16-44.23-49.56-61.02-70.2-170.43-190.33-197.53-285.98-27.09-95.65,76.24-172.97,198.25-244.61,122.01-71.64,209.75-139.25,306.16-43.48,69.49,69.04,146.8,253.54,184.53,351.16v.02c14.61,37.8,23.29,62.56,23.29,62.56,0,0,183.83-125.27,183.53-66.66Z"/><path class="cls-2" d="M7138.34,2309.38v.02s34.24,95.78,34.24,95.78c-167.35,169.11-406.03,254.96-409.14,256.9l-23.65-26.3-.02-.03-48.61-53.89c19.49-8.93,59.62-26.47,140.86-59.85,143.02-58.75,306.32-212.62,306.32-212.62Z"/><path class="cls-4" d="M6908.8,2650.54l-100.97-162.17,185.56-115.53,100.97,162.17-185.56,115.53Zm-42.78-148.64l56.31,90.44,113.83-70.87-56.31-90.44-113.83,70.87Z"/></g><path class="cls-6" d="M6772.91,2829.84c-32.95,0-53.62-6.38-64.87-11.49-15.24-6.92-24.73-16.42-26.72-26.77-1.98-10.33,4.53-21.63,22.48-39.02,11.48-11.12,27.86-24.8,48.68-40.66,27.35-20.83,56.07-40.67,72.86-52.04l-39.22-43.48c-14.41-15.69-29.35-32.43-44.41-49.77-4.41-5.08-9.08-10.41-13.95-15.98-63.8-72.99-160.22-183.3-186.1-274.65-29.61-104.54,80.44-185.96,203.78-258.38,10.84-6.36,21.48-12.74,31.77-18.9,54.37-32.58,101.33-60.72,147.72-70.24,52.89-10.85,97.81,4.25,141.37,47.52,70.33,69.88,147.21,251.77,186.98,354.58l.33,.83c7.9,20.45,14.11,37.21,18.15,48.28,14.08-9.17,37.97-24.27,63.84-38.65,23.79-13.22,44.27-23.03,60.89-29.16,24.09-8.88,40.46-10.28,51.52-4.4,4.98,2.65,13.31,9.32,13.24,24.25-.09,18.28-5.33,40.19-15.15,63.34-11.86,27.97-30.08,57.37-54.16,87.38-61.51,76.67-157.43,153.4-285.09,228.07-100.38,58.72-189.57,96.29-265.08,111.68-27.3,5.56-50.08,7.64-68.86,7.64Zm-67.27-42.15c1.58,2.11,6.6,6.75,18.08,10.85,26.9,9.6,133.13,30.1,370.88-108.96,125.09-73.17,218.76-147.96,278.41-222.31,57.48-71.64,63.89-118.74,63.97-135.66,0-1.67-.25-2.46-.35-2.7-1.18-.66-16.02-7.06-87.12,32.16-39.93,22.02-76.73,47.04-77.1,47.29l-13.05,8.89-5.23-14.9c-.08-.24-8.69-24.73-22.87-61.49l-.28-.73c-18.38-47.54-47.16-118.29-79.94-185.34-38.1-77.94-72.36-132.31-101.83-161.58-37.77-37.52-74.59-50.16-119.39-40.96-42.34,8.69-87.66,35.84-140.13,67.28-10.34,6.19-21.02,12.6-31.95,19.01-49.89,29.29-112.3,68.4-152.33,111.13-38.39,40.98-51.6,80.13-40.39,119.71,24.39,86.1,118.65,193.94,181.02,265.29,4.88,5.59,9.57,10.94,13.99,16.04,14.93,17.18,29.74,33.77,44.01,49.31l.07,.08,49.33,54.68,6.82,10.92-9.82,6.56c-9.88,6.56-44.75,29.93-78.62,55.44-53.78,40.52-64.19,55.86-66.19,59.99Zm-.55-.9h0Z"/></g><g><g><path class="cls-5" d="M9958.34,2323.92c-23.69,37.63-119.86,104.53-372.12,97.56-252.26-6.97-305.22-87.8-298.25-105.92,6.49-16.89,131.04-21.06,147.93-21.55v-.03l-9.7-54.2c-2.61-13.85-5.53-30.4-8.61-49.66-11.15-69.69-33.45-190.94-12.54-263.41,20.91-72.47,118.46-80.83,225.78-78.05,107.31,2.79,190.94-5.57,214.63,94.77,17.07,72.33-7.12,222.17-21.96,300.18h0c-5.76,30.22-10.09,49.64-10.09,49.64,0,0,168.64-6.97,144.94,30.66Z"/><path class="cls-6" d="M9823.49,2243.61h0s-16.36,75.43-16.36,75.43c-175.61,41.81-363.76,1.39-366.54,1.39l-4.68-26.42v-.03l-9.7-54.2c16.14,2.06,49.02,6.86,114.73,17.94,115.68,19.51,282.56-14.1,282.56-14.1Z"/><path class="cls-4" d="M9704.69,2371.3h-165.85v-144.94h165.85v144.94Zm-133.79-32.05h101.74v-80.83h-101.74v80.83Z"/></g><path class="cls-3" d="M9678.75,2489.87c-11.9,0-24.03-.17-36.41-.51-88.2-2.44-160.71-14-215.52-34.37-54.58-20.28-76.43-43.86-84.59-56.11-7.04-10.57-9.34-20.5-6.47-27.96,2.98-7.75,11.7-16.55,77.79-22.78,25.96-2.45,52.42-3.71,67.8-4.3l-7.83-43.77c-2.97-15.8-5.89-32.59-8.64-49.82-.81-5.04-1.67-10.35-2.57-15.89-11.82-72.6-29.69-182.31-9.72-251.52,22.85-79.21,126.39-87.51,234.86-84.7,9.53,.25,18.94,.41,28.04,.56,48.09,.82,89.62,1.53,123.31,14,38.42,14.22,61.29,41.96,72,87.3,17.27,73.15-6.11,220.95-21.72,303.16h0s-.16,.87-.16,.87c-3.11,16.34-5.83,29.62-7.67,38.37,12.75-.26,34.19-.41,56.62,.71,20.62,1.03,37.75,2.92,50.91,5.64,19.08,3.94,30.18,9.6,34.95,17.83,2.14,3.7,4.84,11.34-1.2,20.93-7.39,11.74-19.55,23.75-35.16,34.72-18.86,13.26-42.38,24.89-69.93,34.56-62.6,21.98-142.76,33.08-238.67,33.08Zm-325.77-111.7c.17,1.99,1.54,6.99,7.3,14.24,13.47,16.97,73.67,72.78,282.57,78.55,109.91,3.04,200.23-7.58,268.47-31.54,65.75-23.09,88.77-50.86,95.61-61.72,.68-1.07,.83-1.68,.86-1.88-.5-.89-7.48-10.96-68.9-14.22-34.55-1.83-68.4-.48-68.74-.46l-11.97,.49,2.61-11.69c.04-.19,4.3-19.34,9.89-48.62l.14-.74c7.23-37.99,17.06-95.1,22.84-151.43,6.72-65.48,6.45-114.24-.79-144.91-9.28-39.31-27.93-62.22-60.47-74.26-30.75-11.38-70.83-12.07-117.23-12.86-9.14-.16-18.59-.32-28.21-.57-101.09-2.62-197.31,4.21-216.7,71.4-18.82,65.23-1.35,172.49,10.21,243.46,.91,5.56,1.77,10.89,2.58,15.94,2.73,17.07,5.61,33.69,8.57,49.41l9.86,55.09v9.76l-8.94,.29c-9,.26-40.84,1.33-72.87,4.18-50.89,4.53-63.75,10.24-66.69,12.1Z"/></g><g><polygon class="cls-8" points="9390.62 1722.87 9471.69 1655.31 9535.86 1689.09 9461.55 1766.78 9390.62 1722.87"/><polygon class="cls-8" points="7369.09 1066.21 7434.17 1011.98 7485.7 1039.1 7426.04 1101.47 7369.09 1066.21"/><polygon class="cls-8" points="9136.6 2844.91 9201.68 2790.67 9253.21 2817.79 9193.55 2880.16 9136.6 2844.91"/><polygon class="cls-8" points="6943.16 1683.08 7008.24 1628.84 7059.77 1655.96 7000.11 1718.33 6943.16 1683.08"/><polygon class="cls-8" points="7502.62 2627.55 7553.36 2585.28 7593.52 2606.41 7547.02 2655.03 7502.62 2627.55"/><polygon class="cls-8" points="9149.62 532.55 9200.36 490.28 9240.52 511.41 9194.02 560.03 9149.62 532.55"/><path class="cls-8" d="M9669.94,1642.24s-20.82-147.84,86.93-210.91l-21.45-45.88s-96.63,109.07-82.49,217.94c1.85,14.28,7.93,27.68,17.01,38.86h0Z"/><path class="cls-8" d="M8970.4,2363.86s114.7,95.57,77.21,214.66l46.71,19.6s-1.63-145.71-85.21-216.89c-10.96-9.34-24.47-15.19-38.7-17.37h0Z"/><path class="cls-8" d="M8647.78,373.19s114.7,95.57,77.21,214.66l46.71,19.6s-1.63-145.71-85.21-216.89c-10.96-9.34-24.47-15.19-38.7-17.37h0Z"/><path class="cls-8" d="M7438.4,871.88c-10.26,0-22.86-2.54-36.01-11.17-4.56,4.19-9.27,7.12-13.87,8.53-27.71,8.49-73.49-7.95-89.66-22.75-1.45-1.33-3.02-2.72-4.69-4.2-9.06-8.03-20.8-18.44-29.96-33.01-4.99-1.5-8.31-2.92-9.36-3.39-1.76-.79-3.82-1.65-6.2-2.64-24.74-10.34-76.22-31.87-104.1-97.67-20.91-49.36-20.69-105.99-16.82-144.81,4.38-43.97,14.95-80.36,20.72-91.11,1.21-2.25,2.66-4.4,5.11-4.86l1.54,8.19c1.03-.19,1.54-.74,1.54-.75-2.76,3.05-14.37,34.83-19.91,82.79-4.58,39.7-5.61,97.48,15.49,147.29,26.56,62.68,75.92,83.32,99.64,93.23,2.43,1.02,4.53,1.9,6.38,2.72h0c-.06-.14-.13-.28-.19-.41-11.14-24.53-10.97-53.48,.51-86.03,7.77-22.05,23.5-40.65,44.27-52.38,19.23-10.85,40.63-14.2,57.25-8.96,12.81,4.04,22.12,12.76,26.95,25.23,5.29,13.67,5.01,31.19-.81,52.07-11.01,39.44-29.96,65.73-56.33,78.12-19.58,9.2-39.19,8.78-53.51,6.25,7.57,9.93,16.22,17.6,23.31,23.89,1.7,1.51,3.31,2.94,4.79,4.29,14.84,13.59,57.3,28.38,81.59,20.93,3.11-.95,6.31-2.91,9.44-5.61-.57-.46-1.14-.94-1.71-1.43-21.66-18.59-31.84-50-22.23-68.58,3.6-6.97,13.14-17.79,36.53-11.94,12.77,3.19,20.02,13.14,20.4,28.01,.32,12.13-4.16,27.4-11.99,40.86-2.58,4.44-5.37,8.45-8.29,11.95,26.58,16.56,49.85,5.29,50.93,4.75l3.76,7.43c-.74,.38-10.44,5.16-24.53,5.16Zm-42.64-91.48c-6.69,0-13.2,2.15-16.79,9.08-6.95,13.44-.34,40.75,20.26,58.43,.71,.61,1.43,1.2,2.14,1.77,10.64-12.61,19.2-32.51,18.81-47.74-.29-11.1-5.03-17.88-14.1-20.15-3.22-.81-6.79-1.4-10.32-1.4Zm-126.06,21.8c12.96,3.46,34.86,6.42,56.65-3.82,24.08-11.32,41.52-35.82,51.85-72.82,9.88-35.41,2.37-59.87-20.61-67.12-29.7-9.37-75.99,13.13-91.16,56.17-14.1,40.01-8.32,67.65,3.28,87.6Z"/><path class="cls-8" d="M8710.09,2635.62c-.49,11.66-3.97,25.85-14.4,40.39,4.54,5.38,7.65,10.87,9.04,16.17,8.34,31.89-12.51,83.14-30.1,100.81-1.57,1.58-3.24,3.3-5,5.13-9.55,9.91-21.94,22.77-38.94,32.48-1.94,5.59-3.71,9.3-4.3,10.48-.98,1.96-2.05,4.26-3.3,6.92-12.93,27.62-39.83,85.11-115.93,113.67-57.08,21.43-121.43,18.49-165.36,12.25-49.76-7.06-90.61-20.8-102.55-27.86-2.51-1.48-4.88-3.24-5.28-6.03l9.38-1.36c-.17-1.18-.77-1.78-.78-1.79,3.34,3.28,38.9,17.98,93.14,26.55,44.9,7.09,110.51,11,168.12-10.63,72.48-27.21,98.28-82.33,110.67-108.82,1.27-2.72,2.37-5.06,3.4-7.13h0c-.16,.06-.32,.13-.48,.19-28.41,11.5-61.29,9.93-97.74-4.65-24.69-9.88-45.08-28.63-57.43-52.79-11.42-22.37-14.22-46.85-7.47-65.48,5.2-14.36,15.55-24.54,29.95-29.43,15.78-5.36,35.68-4.22,59.14,3.39,44.3,14.38,73.27,37.16,86.11,67.71,9.53,22.68,8.12,44.95,4.57,61.1,11.64-8.13,20.77-17.6,28.25-25.36,1.8-1.87,3.5-3.63,5.1-5.24,16.15-16.22,34.97-63.77,27.65-91.72-.94-3.58-3.01-7.31-5.93-10.99-.55,.62-1.12,1.25-1.71,1.87-22.16,23.73-58.33,33.82-78.99,22.02-7.75-4.43-19.59-15.78-11.83-42.07,4.24-14.36,15.88-22.12,32.8-21.86,13.8,.21,30.94,6.03,45.87,15.56,4.92,3.14,9.35,6.51,13.19,9.99,20.08-29.42,8.37-56.4,7.81-57.65l8.62-3.93c.39,.86,5.36,12.11,4.7,28.11Zm-105.98,44.12c-.32,7.6,1.82,15.1,9.53,19.51,14.95,8.54,46.29,2.32,67.36-20.25,.73-.78,1.43-1.56,2.11-2.34-13.83-12.69-36.04-23.36-53.36-23.63-12.63-.2-20.56,4.87-23.56,15.07-1.07,3.62-1.91,7.65-2.08,11.66Zm18.8,144.29c4.55-14.57,8.95-39.31-1.66-64.56-11.72-27.9-38.74-48.88-80.3-62.37-39.77-12.91-67.92-5.53-77.25,20.24-12.05,33.31,11.32,86.97,59.51,106.26,44.79,17.92,76.49,12.66,99.7,.43Z"/><path class="cls-8" d="M9584.86,1164.55c-1.37-2.16-2.9-5.04-4.66-8.37-12.79-24.17-39.16-73.98-118.85-70.81-9.06,14.1-20.92,22.53-32.47,22.85-.21,0-.41,0-.62,0-8.21,0-14.31-4.51-14.6-10.88-.4-8.72,10.53-18.77,42.4-20.82,10-18.05,17.98-48.73,17.55-98.28-.33-36.89-12.66-66.45-36.66-87.87-17.85-15.93-35.6-21.07-35.78-21.12l2.48-8.77c.81,.23,19.97,5.77,39.37,23.09,17.87,15.95,39.27,45.31,39.71,94.59,.37,42.08-5.08,75-16.21,97.96,.64,0,1.28-.01,1.91-.01,79.75,0,107.62,52.68,119.85,75.8,1.67,3.16,3.11,5.88,4.29,7.74l-7.69,4.89Zm-135.28-78.3c-20.54,2.4-26.92,8.48-26.82,10.68,.04,.82,2.09,2.29,5.87,2.18,5.84-.16,13.56-3.73,20.95-12.86Z"/><path class="cls-8" d="M8035.97,254.58c-2.98,1.23-6.86,2.49-11.37,3.94-32.7,10.57-100.08,32.39-113.48,131.71,15.48,14.28,23.34,30.8,21.22,45.16-.04,.26-.08,.51-.12,.77-1.78,10.16-8.69,16.74-16.64,15.71-10.88-1.4-20.94-17.12-16.55-57-20.17-16.29-56.41-32.85-117.82-43.08-45.73-7.62-85,1.23-116.73,26.28-23.59,18.63-33.81,39.49-33.91,39.7l-10.32-4.97c.46-.95,11.49-23.46,37.13-43.71,23.63-18.65,64.62-38.76,125.71-28.58,52.16,8.69,91.72,22.59,117.73,41.36,.13-.79,.27-1.59,.4-2.37,17.34-98.71,88.59-121.75,119.87-131.86,4.27-1.38,7.95-2.57,10.51-3.63l4.38,10.58Zm-126.32,150.42c-1.5,25.94,4.65,35.16,7.39,35.52,1.02,.13,3.29-2.09,3.98-6.8,1.07-7.26-1.67-17.59-11.37-28.72Z"/><path class="cls-8" d="M6790.47,1788.89c-1.37-2.16-2.9-5.04-4.65-8.36-12.79-24.17-39.13-73.97-118.85-70.81-9.06,14.1-20.92,22.53-32.47,22.85-8.56,.22-14.92-4.34-15.22-10.87-.4-8.72,10.53-18.77,42.4-20.82,10-18.05,17.98-48.73,17.55-98.28-.33-36.89-12.66-66.45-36.66-87.87-17.85-15.93-35.6-21.07-35.78-21.12l2.48-8.77c.81,.23,19.97,5.77,39.37,23.09,17.87,15.95,39.27,45.31,39.71,94.59,.37,42.08-5.08,75-16.21,97.96,.64,0,1.28-.01,1.91-.01,79.75,0,107.62,52.68,119.85,75.8,1.67,3.15,3.11,5.88,4.29,7.73l-7.69,4.89Zm-135.28-78.3c-20.54,2.4-26.92,8.48-26.82,10.68,.04,.82,2.09,2.26,5.87,2.18,5.84-.16,13.56-3.73,20.95-12.86Z"/><path class="cls-8" d="M7735.2,3011c-12.52,0-25.12-1.65-37.55-4.97-37.2-9.97-68.29-33.82-87.54-67.17-15.68-27.16-19.85-58.8-11.73-89.1,8.12-30.29,27.54-55.61,54.7-71.3,45.85-26.47,104.68-10.71,131.15,35.14,10.54,18.25,13.34,39.5,7.88,59.86-5.45,20.35-18.51,37.36-36.75,47.9-31.12,17.97-71.07,7.27-89.05-23.86-7.24-12.54-9.17-27.16-5.42-41.15,3.75-13.99,12.72-25.68,25.27-32.93,10.51-6.07,22.76-7.69,34.49-4.54,11.73,3.14,21.53,10.66,27.6,21.18,10.6,18.36,4.29,41.91-14.07,52.51-7.6,4.39-16.44,5.55-24.91,3.28-8.47-2.27-15.55-7.7-19.94-15.3l17.99-10.39c1.61,2.79,4.21,4.78,7.32,5.62,3.11,.83,6.36,.4,9.15-1.2,8.44-4.87,11.34-15.7,6.47-24.14-3.3-5.71-8.62-9.79-14.99-11.5-6.37-1.7-13.02-.83-18.73,2.47-15.97,9.22-21.47,29.72-12.24,45.7,12.24,21.21,39.46,28.5,60.67,16.25,13.44-7.76,23.06-20.29,27.07-35.29,4.02-14.99,1.95-30.65-5.81-44.09-20.74-35.93-66.84-48.28-102.77-27.53-22.35,12.91-38.34,33.75-45.02,58.68-6.68,24.93-3.25,50.98,9.66,73.33,16.48,28.54,43.09,48.96,74.93,57.49,31.84,8.53,65.09,4.15,93.64-12.33,74.89-43.24,100.64-139.36,57.4-214.25l17.99-10.39c48.97,84.81,19.81,193.66-65,242.63-22.21,12.83-46.87,19.38-71.85,19.38Z"/><path class="cls-8" d="M9703.13,755.69c4.01-11.86,9.6-23.28,16.73-33.98,21.35-32.05,53.91-53.86,91.66-61.43,30.75-6.16,62.06,.02,88.16,17.41,26.1,17.39,43.87,43.9,50.03,74.65,10.4,51.91-23.37,102.6-75.28,112.99-20.66,4.14-41.7-.02-59.23-11.7-17.53-11.68-29.47-29.49-33.61-50.16-7.06-35.24,15.87-69.66,51.11-76.72,14.2-2.84,28.66,.01,40.72,8.04,12.05,8.03,20.26,20.28,23.1,34.48,2.39,11.9,0,24.02-6.74,34.13-6.73,10.1-17,16.98-28.9,19.37-20.78,4.16-41.08-9.36-45.25-30.14-1.72-8.6,0-17.35,4.87-24.65,4.86-7.3,12.28-12.27,20.88-13.99l4.08,20.37c-3.16,.63-5.88,2.46-7.67,5.14-1.79,2.68-2.42,5.9-1.79,9.05,1.91,9.55,11.24,15.77,20.8,13.85,6.46-1.29,12.04-5.03,15.69-10.52,3.66-5.49,4.96-12.07,3.66-18.53-3.62-18.09-21.28-29.85-39.37-26.23-24.01,4.81-39.63,28.26-34.82,52.27,3.05,15.22,11.84,28.34,24.76,36.95,12.92,8.61,28.41,11.67,43.63,8.62,40.68-8.15,67.14-47.87,58.99-88.55-5.07-25.31-19.69-47.13-41.18-61.44-21.48-14.31-47.25-19.4-72.56-14.33-32.32,6.47-60.18,25.14-78.45,52.57-18.28,27.43-24.78,60.34-18.3,92.65,16.99,84.8,99.79,139.97,184.59,122.98l4.08,20.37c-96.03,19.24-189.81-43.24-209.04-139.27-5.04-25.15-3.35-50.61,4.65-74.28Z"/><path class="cls-8" d="M9534.44,2923.55c-12.52,0-25.12-1.65-37.55-4.97-37.2-9.97-68.29-33.82-87.54-67.17-15.68-27.16-19.85-58.8-11.73-89.1,8.12-30.29,27.54-55.61,54.7-71.3,45.85-26.47,104.68-10.71,131.15,35.14,10.54,18.25,13.34,39.5,7.88,59.86-5.45,20.35-18.51,37.36-36.75,47.9-31.12,17.97-71.07,7.27-89.05-23.86-7.24-12.54-9.17-27.16-5.42-41.15,3.75-13.99,12.72-25.68,25.27-32.93,10.51-6.07,22.76-7.69,34.49-4.54,11.73,3.14,21.53,10.66,27.6,21.18,10.6,18.36,4.29,41.91-14.07,52.51-7.6,4.39-16.44,5.55-24.91,3.28-8.47-2.27-15.55-7.7-19.94-15.3l17.99-10.39c1.61,2.79,4.21,4.78,7.32,5.62,3.11,.83,6.36,.4,9.15-1.2,8.44-4.87,11.34-15.7,6.47-24.14-3.3-5.71-8.62-9.79-14.99-11.5-6.37-1.7-13.02-.83-18.73,2.47-15.97,9.22-21.47,29.72-12.24,45.7,12.24,21.21,39.46,28.5,60.67,16.25,13.44-7.76,23.06-20.29,27.07-35.29,4.02-14.99,1.95-30.65-5.81-44.09-20.74-35.93-66.84-48.28-102.77-27.53-22.35,12.91-38.34,33.75-45.02,58.68-6.68,24.93-3.25,50.98,9.66,73.33,16.48,28.54,43.09,48.96,74.93,57.49,31.84,8.53,65.09,4.15,93.64-12.33,74.89-43.24,100.64-139.36,57.4-214.25l17.99-10.39c48.97,84.81,19.81,193.66-65,242.63-22.21,12.83-46.87,19.38-71.85,19.38Z"/></g></g></svg>