<?xml version="1.0" encoding="UTF-8"?><svg id="_Слой_1" xmlns="http://www.w3.org/2000/svg" viewBox="0 0 6000 2300"><defs><style>.cls-1{fill:#f9bb3e;}.cls-2{fill:#fff;}</style></defs><rect class="cls-2" width="6000" height="2300"/><g><g><circle class="cls-1" cx="3000" cy="1146.92" r="848.87"/><g><path d="M2416.75,1050.93l-131.64,10.87,12.39-41.68,58.13-1.59c21.22-.63,32.27-.17,41.16,.34l.1-.33c-7.09-4.12-11.71-6.66-36.15-23.89l-46.35-31.31,12.24-41.16,104.07,81.86-13.94,46.88Z"/><path d="M2462.09,881.21l15,19.03-21.87,33.64-77.84-106.11,28.42-43.72,130.24,25.48-23.42,36.04-23.8-5.5-26.73,41.13Zm-2.21-48.86c-22.96-5.34-37.22-9.08-47.54-12.1l-.33,.51c7.08,7.8,18.76,21.88,30.96,37.62l16.92-26.03Z"/><path d="M2643.01,659.63c12.21,23.57,8.03,51.19-22.46,76.39-35.15,29.06-71.37,21.2-93.85-5.99-21.46-25.96-23.59-63.91,13.14-94.28,32.15-26.58,61.2-22.33,77.88-7.18l-31.09,25.7c-5.69-4.15-16.04-8.68-29.6,2.53-14.4,11.9-12.15,29.05,1.62,45.7,12.5,15.12,29.65,24.43,45.6,11.24,11.5-9.51,12.04-18.46,8.09-28.76l30.67-25.36Z"/><path d="M2825.27,576.34c4.35,26.18-8.13,51.17-44.9,65.76-42.39,16.82-74.43-1.82-87.45-34.61-12.42-31.31-2.75-68.07,41.54-85.65,38.78-15.39,65.1-2.4,76.31,17.16l-37.49,14.88c-4.13-5.7-12.59-13.2-28.94-6.71-17.36,6.89-20.5,23.9-12.53,43.98,7.24,18.24,20.69,32.37,39.92,24.74,13.87-5.5,17.14-13.85,16.55-24.87l36.99-14.68Z"/><path d="M2921.54,478.52l16.69,121.95-39.68,5.43-16.69-121.95,39.68-5.43Z"/><path d="M3007.08,594.32l14.22-122.26,46.3,5.38c21.98,46.94,29.29,63.89,35.34,80.54l.65,.08c.24-11.62,2.87-33.73,5.22-53.96l2.51-21.58,35.78,4.16-14.22,122.26-43.74-5.09c-7.56-18.09-31.56-73.64-37.09-89.37l-.59-.07c-.46,14.11-2.29,30.34-5.08,54.32l-3.46,29.74-35.84-4.17Z"/><path d="M3237.33,620.8l-16.68,17.58-36.43-16.82,93.85-92.25,47.34,21.85-6.54,132.55-39.02-18.01,2.03-24.34-44.54-20.56Zm48.04-9.2c1.99-23.48,3.65-38.14,5.16-48.79l-.55-.25c-6.7,8.13-18.96,21.7-32.79,36.03l28.19,13.01Z"/><path d="M3432.19,653.07l-31.11-26.11,18.24-21.73,92.67,77.78-18.24,21.73-30.93-25.96-60.89,72.55-30.63-25.71,60.89-72.55Z"/><path d="M3569.49,880.44l-36.7-54.57-17.05,11.47,41.04,61.02-26.15,12.05-60.48-89.92,102.14-68.69,60.66,90.19-23.63,15.9-38.65-57.47-14.24,9.58,36.7,54.57-23.63,15.9Z"/><path d="M3675.86,931.44l17.93,59.72c12.77,42.53-6.8,71.91-37.81,81.22-36.42,10.93-68.83-8.38-80.19-46.21l-17.81-59.34,117.89-35.39Zm-79.87,65.79l4.97,16.54c5.7,18.99,20,25.04,41.98,18.44,18.08-5.43,29.08-16.93,23.03-37.9l-4.98-16.59-65,19.51Z"/></g><g><g><circle cx="2999.62" cy="1149.67" r="311.96"/><g><circle class="cls-2" cx="3113.24" cy="954.53" r="50.85"/><circle class="cls-2" cx="2801.53" cy="1273.63" r="50.85"/><circle class="cls-2" cx="2894.55" cy="973.24" r="31.61"/><circle class="cls-2" cx="3230.35" cy="1184.12" r="31.61"/><circle class="cls-2" cx="2965.27" cy="1262.58" r="39.91"/><circle class="cls-2" cx="3002.91" cy="1093.01" r="42.43"/><circle class="cls-2" cx="3103.22" cy="1266.5" r="23.36"/><circle class="cls-2" cx="2778.37" cy="1060.34" r="23.36"/><circle class="cls-2" cx="3123.49" cy="1362.05" r="20.61"/><circle class="cls-2" cx="2964.88" cy="1380.12" r="20.61"/></g><path d="M3016.12,737.39l5.5-5.5c8.25-8.25,13.74-15.26,13.74-27.49,0-19.73-16-35.73-35.73-35.73s-35.73,16-35.73,35.73c0,8.13,2.75,15.61,7.32,21.61l11.91,11.37c3.72,5.88,8.25,32.98,5.5,52.22-2.75,19.24-15.59,49.22-15.59,49.22l34.83,16.74,17.48-16.82s-41.23-49.93-9.23-101.37Z"/><path d="M2809.49,786.53l2.1-7.49c3.15-11.23,4.51-20.04-1.48-30.69-9.67-17.2-31.45-23.32-48.65-13.65-17.2,9.67-23.32,31.45-13.65,48.65,3.98,7.09,10.04,12.26,16.97,15.26l15.96,4.08c6.13,3.3,23.34,24.72,30.37,42.84,7.03,18.12,10.52,50.55,10.52,50.55l38.57-2.46,7-23.22s-60.4-23.34-57.7-83.85Z"/><path d="M3215.11,805.14l7.38-2.45c11.07-3.67,19.13-7.47,24.62-18.39,8.86-17.63,1.74-39.11-15.89-47.97-17.63-8.86-39.11-1.74-47.97,15.89-3.65,7.27-4.55,15.18-3.15,22.6l5.55,15.51c.69,6.93-7.43,33.17-18.52,49.13-11.09,15.96-36.02,36.99-36.02,36.99l23.61,30.6,23.17-7.18s-14.43-63.12,37.24-94.73Z"/><path d="M3361.72,963.53l7.39,2.41c11.08,3.62,19.83,5.35,30.73-.19,17.6-8.93,24.62-30.44,15.69-48.03-8.93-17.6-30.44-24.62-48.03-15.69-7.25,3.68-12.67,9.52-15.96,16.31l-4.75,15.77c-3.56,5.98-25.68,22.28-44.08,28.54-18.4,6.26-50.95,8.37-50.95,8.37l.83,38.64,22.91,7.97s25.86-59.36,86.21-54.11Z"/><path d="M3409.51,1165.62l5.61,5.38c8.42,8.07,15.55,13.41,27.78,13.14,19.73-.43,35.38-16.77,34.95-36.5-.43-19.73-16.77-35.38-36.5-34.95-8.13,.18-15.54,3.09-21.45,7.79l-11.11,12.16c-5.8,3.85-32.8,8.96-52.09,6.63-19.29-2.33-49.55-14.52-49.55-14.52l-15.99,35.19,17.19,17.11s49.03-42.3,101.15-11.42Z"/><path d="M3341.47,1365.12l2.46,7.37c3.7,11.06,7.52,19.11,18.46,24.57,17.66,8.81,39.11,1.64,47.93-16.02,8.81-17.66,1.64-39.11-16.02-47.93-7.28-3.63-15.19-4.51-22.61-3.1l-15.49,5.58c-6.92,.71-33.19-7.35-49.18-18.4-15.99-11.05-37.08-35.93-37.08-35.93l-30.54,23.69,7.24,23.15s63.09-14.6,94.83,37Z"/><path d="M3188.88,1509.22l-1.62,7.6c-2.44,11.4-3.24,20.28,3.41,30.54,10.73,16.56,32.85,21.29,49.42,10.56,16.56-10.73,21.29-32.85,10.56-49.42-4.42-6.83-10.79-11.6-17.9-14.16l-16.18-3.06c-6.32-2.91-24.85-23.2-33.01-40.84-8.15-17.64-13.68-49.79-13.68-49.79l-38.34,4.88-5.52,23.62s61.75,19.49,62.86,80.06Z"/><path d="M2980.39,1556.45l-5.5,5.5c-8.25,8.25-13.74,15.26-13.74,27.49,0,19.73,16,35.73,35.73,35.73,19.73,0,35.73-16,35.73-35.73,0-8.13-2.75-15.61-7.32-21.61l-11.91-11.37c-3.72-5.88-8.25-32.98-5.5-52.22,2.75-19.24,15.59-49.22,15.59-49.22l-34.83-16.74-17.48,16.82s41.23,49.93,9.23,101.37Z"/><path d="M2778.34,1493.66l-7.43,2.29c-11.14,3.44-19.28,7.07-24.99,17.88-9.22,17.45-2.55,39.07,14.9,48.28,17.45,9.22,39.07,2.55,48.28-14.9,3.8-7.19,4.86-15.08,3.62-22.53l-5.22-15.62c-.54-6.94,8.12-33.01,19.54-48.74,11.42-15.73,36.78-36.23,36.78-36.23l-22.97-31.08-23.31,6.7s13.12,63.41-39.2,93.94Z"/><path d="M2634.71,1336.44l-7.44-2.25c-11.16-3.38-19.94-4.92-30.72,.85-17.4,9.31-23.96,30.96-14.65,48.36,9.31,17.4,30.96,23.96,48.36,14.65,7.17-3.84,12.47-9.79,15.6-16.65l4.4-15.87c3.43-6.06,25.19-22.83,43.45-29.48,18.26-6.65,50.75-9.47,50.75-9.47l-1.67-38.61-23.07-7.48s-24.58,59.91-85.03,55.96Z"/><path d="M2590.09,1124.93l-5.5-5.5c-8.25-8.25-15.26-13.74-27.49-13.74-19.73,0-35.73,16-35.73,35.73s16,35.73,35.73,35.73c8.13,0,15.61-2.75,21.61-7.32l11.37-11.91c5.88-3.72,32.98-8.25,52.22-5.5,19.24,2.75,49.22,15.59,49.22,15.59l16.74-34.83-16.82-17.48s-49.93,41.23-101.37,9.23Z"/><path d="M2658.21,931.23l-2.34-7.41c-3.51-11.12-7.2-19.23-18.05-24.87-17.51-9.1-39.08-2.29-48.18,15.22-9.1,17.51-2.29,39.08,15.22,48.18,7.22,3.75,15.12,4.76,22.56,3.47l15.58-5.33c6.94-.59,33.07,7.9,48.87,19.21,15.8,11.31,36.48,36.54,36.48,36.54l30.92-23.18-6.86-23.26s-63.32,13.55-94.2-38.57Z"/><path d="M2725.63,1402.53l-5.24-.07c-7.86-.1-13.83,.55-19.73,6.3-9.52,9.28-9.72,24.53-.43,34.05,9.28,9.52,24.53,9.72,34.05,.43,3.92-3.83,6.24-8.67,6.98-13.7l-.12-11.1c1.09-4.56,12.04-19.5,22.61-27.22,10.58-7.73,31.09-15.63,31.09-15.63l-8.31-24.69-16.34-.52s-4.7,43.39-44.57,52.15Z"/><path d="M2655.66,1045.28l-3.31-4.06c-4.96-6.09-9.29-10.26-17.48-11.1-13.23-1.36-25.05,8.27-26.41,21.5-1.36,13.23,8.27,25.05,21.5,26.41,5.45,.56,10.65-.77,14.99-3.43l8.44-7.21c4.2-2.09,22.68-3.26,35.39-.1,12.71,3.16,31.93,13.83,31.93,13.83l13.62-22.2-10.07-12.87s-36.31,24.21-68.6-.77Z"/><path d="M3104.9,786.43l4.46-2.89c6.7-4.33,11.38-8.23,13.13-16.4,2.83-13.19-5.56-26.18-18.76-29.02-13.19-2.83-26.18,5.56-29.02,18.76-1.17,5.44-.4,10.83,1.79,15.5l6.33,9.31c1.64,4.47,.78,23.23-3.82,35.7-4.6,12.47-17.49,30.67-17.49,30.67l20.88,16.2,14.1-8.73s-20.39-39.3,8.39-69.09Z"/><path d="M3345.87,1071.22l4.57,2.72c6.85,4.07,12.43,6.53,20.53,4.47,13.08-3.33,20.98-16.63,17.65-29.7-3.33-13.08-16.63-20.98-29.7-17.65-5.39,1.37-9.88,4.45-13.09,8.5l-5.52,9.81c-3.27,3.46-20.46,11.03-33.68,12.45-13.21,1.42-35.25-2.03-35.25-2.03l-5.22,25.91,14.09,8.74s26.13-35.74,65.61-23.21Z"/><path d="M3340.28,1255.49l2.71,4.58c4.06,6.86,7.77,11.7,15.87,13.77,13.07,3.35,26.38-4.52,29.74-17.59,3.35-13.07-4.52-26.38-17.59-29.74-5.39-1.38-10.8-.83-15.56,1.18l-9.56,5.96c-4.53,1.47-23.25-.15-35.52-5.24-12.28-5.09-29.95-18.69-29.95-18.69l-17.01,20.22,8.17,14.43s40.08-18.82,68.71,11.12Z"/></g><rect class="cls-1" x="2411.67" y="1125.1" width="1107.46" height="106" transform="translate(-40.47 2248.74) rotate(-41.27)"/></g><g><path class="cls-2" d="M2739.76,1697.11c-9.9-13.04-24.04-19.48-40.22-19.48-26.71,0-49.17,19.8-49.17,48.55s21.37,48.39,49.8,48.39c15.71,0,29.06-6.44,39.59-18.7l8.96,6.76c-11.63,14.61-28.75,22.31-49.33,22.31-37.71,0-60.8-26.55-60.8-59.7s25.77-58.6,60.8-58.6c20.74,0,38.18,8.17,49.33,23.72l-8.96,6.76Z"/><path class="cls-2" d="M2890.58,1725.86c0,33.15-25.92,59.23-59.39,59.23s-59.54-27.18-59.54-58.76c0-33.62,26.08-59.7,58.6-59.7,34.25,0,60.33,25.61,60.33,59.23Zm-107.15,.47c0,27.81,21.99,47.76,47.45,47.76s47.92-20.11,47.92-48.39-22.94-48.07-47.92-48.07-47.45,19.8-47.45,48.7Z"/><path class="cls-2" d="M2909.74,1669.46h12.25l37.39,87.19,38.02-87.19h12.25l-49.02,112.8h-2.51l-48.39-112.8Z"/><path class="cls-2" d="M3032.12,1669.46h11.31v112.8h-11.31v-112.8Z"/><path class="cls-2" d="M3074.38,1669.46h27.81c12.41,0,23.88,.63,35.03,5.18,20.27,8.17,32.36,27.65,32.36,52.47,0,32.21-19.48,55.14-55.77,55.14h-39.43v-112.8Zm27.96,101.8c21.37,0,35.51-1.89,45.56-14.14,6.44-7.86,9.9-18.07,9.9-29.85s-3.14-21.68-9.43-29.85c-10.68-13.98-26.71-16.97-51.22-16.97h-11.47v90.81h16.65Z"/><path class="cls-2" d="M3187.8,1735.13h42.26v9.43h-42.26v-9.43Z"/><path class="cls-2" d="M3262.43,1680.46l6.76-11h22.31v112.8h-11.31v-101.8h-17.75Z"/><path class="cls-2" d="M3362.5,1785.09l-9.27-5.97,30.48-46.19c-3.14,.94-6.91,2.04-11.62,2.04-18.7,0-31.89-15.24-31.89-33.62,0-20.89,16.34-34.72,35.03-34.72,20.42,0,34.25,16.18,34.25,34.09,0,10.84-4.71,21.37-12.73,33.31l-34.25,51.06Zm35.98-83.74c0-13.04-10.53-23.72-23.72-23.72s-23.57,10.53-23.57,23.72,10.53,23.72,23.57,23.72,23.72-10.68,23.72-23.72Z"/><path class="cls-2" d="M2629.95,1744.48v-7.85h794.6v7.85h-794.6Z"/></g></g><g><circle class="cls-1" cx="1090.92" cy="1146.92" r="848.87"/><g><path d="M507.66,1050.93l-131.64,10.87,12.39-41.68,58.13-1.59c21.22-.63,32.27-.17,41.16,.34l.1-.33c-7.09-4.12-11.71-6.66-36.15-23.89l-46.35-31.31,12.24-41.16,104.07,81.86-13.94,46.88Z"/><path d="M553.01,881.21l15,19.03-21.87,33.64-77.84-106.11,28.42-43.72,130.24,25.48-23.42,36.04-23.8-5.5-26.73,41.13Zm-2.21-48.86c-22.96-5.34-37.22-9.08-47.54-12.1l-.33,.51c7.08,7.8,18.76,21.88,30.96,37.62l16.92-26.03Z"/><path d="M733.93,659.63c12.21,23.57,8.03,51.19-22.46,76.39-35.15,29.06-71.37,21.2-93.85-5.99-21.46-25.96-23.59-63.91,13.14-94.28,32.15-26.58,61.2-22.33,77.88-7.18l-31.09,25.7c-5.69-4.15-16.04-8.68-29.6,2.53-14.4,11.9-12.15,29.05,1.62,45.7,12.5,15.12,29.65,24.43,45.6,11.24,11.5-9.51,12.04-18.46,8.09-28.76l30.67-25.36Z"/><path d="M916.18,576.34c4.35,26.18-8.13,51.17-44.9,65.76-42.39,16.82-74.43-1.82-87.45-34.61-12.42-31.31-2.75-68.07,41.54-85.65,38.78-15.39,65.1-2.4,76.31,17.16l-37.49,14.88c-4.13-5.7-12.59-13.2-28.94-6.71-17.36,6.89-20.5,23.9-12.53,43.98,7.24,18.24,20.69,32.37,39.92,24.74,13.87-5.5,17.14-13.85,16.55-24.87l36.99-14.68Z"/><path d="M1012.46,478.52l16.69,121.95-39.68,5.43-16.69-121.95,39.68-5.43Z"/><path d="M1097.99,594.32l14.22-122.26,46.3,5.38c21.98,46.94,29.29,63.89,35.34,80.54l.65,.08c.24-11.62,2.86-33.73,5.22-53.96l2.51-21.58,35.78,4.16-14.22,122.26-43.74-5.09c-7.56-18.09-31.56-73.64-37.09-89.37l-.59-.07c-.46,14.11-2.29,30.34-5.08,54.32l-3.46,29.74-35.84-4.17Z"/><path d="M1328.24,620.8l-16.68,17.58-36.43-16.82,93.85-92.25,47.34,21.85-6.54,132.55-39.02-18.01,2.03-24.34-44.54-20.56Zm48.04-9.2c1.99-23.48,3.65-38.14,5.16-48.79l-.55-.25c-6.7,8.13-18.97,21.7-32.79,36.03l28.19,13.01Z"/><path d="M1523.1,653.07l-31.11-26.11,18.24-21.73,92.67,77.78-18.24,21.73-30.93-25.96-60.89,72.55-30.63-25.71,60.89-72.55Z"/><path d="M1660.41,880.44l-36.7-54.57-17.05,11.47,41.04,61.02-26.15,12.05-60.48-89.92,102.14-68.69,60.66,90.19-23.63,15.9-38.65-57.47-14.24,9.58,36.7,54.57-23.63,15.9Z"/><path d="M1766.78,931.44l17.93,59.72c12.77,42.53-6.8,71.91-37.81,81.22-36.42,10.93-68.83-8.38-80.19-46.21l-17.81-59.34,117.89-35.39Zm-79.87,65.79l4.97,16.54c5.7,18.99,19.99,25.04,41.98,18.44,18.08-5.43,29.08-16.93,23.03-37.9l-4.98-16.59-65,19.51Z"/></g><g><path class="cls-2" d="M830.68,1697.11c-9.9-13.04-24.04-19.48-40.22-19.48-26.71,0-49.17,19.8-49.17,48.55s21.37,48.39,49.8,48.39c15.71,0,29.06-6.44,39.59-18.7l8.96,6.76c-11.63,14.61-28.75,22.31-49.33,22.31-37.71,0-60.8-26.55-60.8-59.7s25.77-58.6,60.8-58.6c20.74,0,38.18,8.17,49.33,23.72l-8.96,6.76Z"/><path class="cls-2" d="M981.49,1725.86c0,33.15-25.92,59.23-59.39,59.23s-59.54-27.18-59.54-58.76c0-33.62,26.08-59.7,58.6-59.7,34.25,0,60.33,25.61,60.33,59.23Zm-107.15,.47c0,27.81,21.99,47.76,47.45,47.76s47.92-20.11,47.92-48.39-22.94-48.07-47.92-48.07-47.45,19.8-47.45,48.7Z"/><path class="cls-2" d="M1000.66,1669.46h12.25l37.39,87.19,38.02-87.19h12.25l-49.02,112.8h-2.51l-48.39-112.8Z"/><path class="cls-2" d="M1123.04,1669.46h11.31v112.8h-11.31v-112.8Z"/><path class="cls-2" d="M1165.3,1669.46h27.81c12.41,0,23.88,.63,35.03,5.18,20.27,8.17,32.36,27.65,32.36,52.47,0,32.21-19.48,55.14-55.77,55.14h-39.43v-112.8Zm27.96,101.8c21.37,0,35.51-1.89,45.56-14.14,6.44-7.86,9.9-18.07,9.9-29.85s-3.14-21.68-9.43-29.85c-10.68-13.98-26.71-16.97-51.22-16.97h-11.47v90.81h16.65Z"/><path class="cls-2" d="M1278.72,1735.13h42.26v9.43h-42.26v-9.43Z"/><path class="cls-2" d="M1353.34,1680.46l6.76-11h22.31v112.8h-11.31v-101.8h-17.75Z"/><path class="cls-2" d="M1453.41,1785.09l-9.27-5.97,30.48-46.19c-3.14,.94-6.91,2.04-11.63,2.04-18.7,0-31.89-15.24-31.89-33.62,0-20.89,16.34-34.72,35.03-34.72,20.42,0,34.25,16.18,34.25,34.09,0,10.84-4.71,21.37-12.73,33.31l-34.25,51.06Zm35.98-83.74c0-13.04-10.53-23.72-23.72-23.72s-23.57,10.53-23.57,23.72,10.53,23.72,23.57,23.72,23.72-10.68,23.72-23.72Z"/><path class="cls-2" d="M720.86,1744.48v-7.85h794.6v7.85H720.86Z"/></g><g><g><path class="cls-2" d="M1090.97,1507.83c-46.6,0-91.84-9.14-134.45-27.16-41.13-17.4-78.07-42.29-109.77-74-31.7-31.7-56.6-68.64-74-109.77-18.02-42.61-27.16-87.85-27.16-134.45s9.14-91.84,27.16-134.45c17.4-41.13,42.29-78.07,74-109.77,31.7-31.7,68.64-56.6,109.77-74,42.61-18.02,87.85-27.16,134.45-27.16,37.84,0,75.06,6.09,110.62,18.11,34.39,11.62,66.63,28.56,95.82,50.35l-59.83,80.15c-20.73-15.48-43.61-27.51-68.01-35.75-25.23-8.52-51.67-12.85-78.6-12.85-33.15,0-65.28,6.48-95.49,19.26-29.21,12.36-55.46,30.05-78.01,52.61-22.55,22.55-40.25,48.8-52.61,78.01-12.78,30.22-19.26,62.35-19.26,95.49s6.48,65.28,19.26,95.49c12.36,29.21,30.05,55.46,52.61,78.01,22.55,22.55,48.8,40.25,78.01,52.61,30.22,12.78,62.35,19.26,95.49,19.26s65.28-6.48,95.49-19.26c29.21-12.36,55.46-30.05,78.01-52.61,22.55-22.55,40.25-48.8,52.61-78.01,12.78-30.22,19.26-62.35,19.26-95.49h100.02c0,46.6-9.14,91.84-27.16,134.46-17.4,41.13-42.29,78.07-74,109.77-31.7,31.7-68.64,56.6-109.77,74-42.61,18.02-87.85,27.16-134.45,27.16Z"/><polygon class="cls-2" points="1221.53 1250.06 1029.57 1076.9 1096.56 1002.64 1214.96 1109.44 1452.15 851.44 1525.78 919.13 1221.53 1250.06"/></g><g><rect x="853.64" y="1457.72" width="69.95" height="154.56" transform="translate(-647.72 2421.3) rotate(-89.91)"/><path d="M914.34,934.25c.01-8.79-10.9-20.11-12.47-22.13-1.58-2.02,.07-43.15,.07-43.15h-6.88s-12.47-.03-12.47-.03h-6.88s1.52,41.12-.06,43.13c-1.58,2.01-12.53,13.3-12.54,22.09-.01,8.79-7.75,67.19-7.75,67.19l26.23,.04,14.08,.02,26.23,.04s-7.56-58.42-7.55-67.21Z"/><g><line x1="746.33" y1="1503.54" x2="1030.9" y2="1503.96"/><rect x="877.84" y="1361.46" width="21.56" height="284.58" transform="translate(-616.47 2390.1) rotate(-89.91)"/></g><g><line x1="888.59" y1="871.71" x2="888.91" y2="658.29"/><path d="M885.79,871.71c-1.32-4.45-1.74-8.9-1.89-13.34-.06-4.45,.02-8.89,.03-13.34l.14-26.68,.31-53.36,.65-53.36,.49-26.68c.15-8.89,.35-17.79,.59-26.68,.03-.99,1.3-1.78,2.85-1.76,1.51,.02,2.73,.81,2.75,1.77,.22,8.89,.38,17.79,.51,26.68l.41,26.68,.49,53.36,.15,53.36,.06,26.68c0,4.45,.06,8.89-.01,13.34-.16,4.45-.6,8.89-1.93,13.34-.3,.99-1.79,1.64-3.34,1.45-1.18-.15-2.05-.74-2.26-1.46Z"/></g><rect x="876.06" y="984.38" width="25.12" height="42.84" transform="translate(-118.52 1892.9) rotate(-89.91)"/><path d="M979.99,1510.72l-183.44-.28,.71-469.74,65.5-24.53,53.09,.08,64.86,24.75-.71,469.72Zm-162.12-21.53l140.86,.21,.65-433.74-47.49-18.12-45.31-.07-48.07,18-.65,433.71Z"/><rect x="831.67" y="1140.42" width="21.29" height="69.5" transform="translate(-334.44 2015.25) rotate(-89.89)"/><rect x="833.68" y="1247.15" width="21.29" height="69.5" transform="translate(-439.16 2123.79) rotate(-89.89)"/><rect x="847.99" y="1177.39" width="21.29" height="102.33" transform="translate(-371.55 2084.86) rotate(-89.89)"/></g></g></g><g><circle class="cls-1" cx="4909.08" cy="1153.08" r="848.87"/><g><path d="M4325.83,1057.1l-131.64,10.87,12.39-41.68,58.13-1.59c21.22-.63,32.27-.17,41.16,.34l.1-.33c-7.09-4.12-11.71-6.66-36.15-23.89l-46.36-31.31,12.24-41.16,104.07,81.86-13.94,46.88Z"/><path d="M4371.18,887.38l15,19.03-21.87,33.64-77.84-106.11,28.42-43.72,130.24,25.48-23.42,36.04-23.8-5.5-26.73,41.13Zm-2.21-48.86c-22.96-5.34-37.22-9.08-47.54-12.1l-.33,.51c7.08,7.8,18.76,21.88,30.96,37.62l16.92-26.03Z"/><path d="M4552.1,665.8c12.21,23.57,8.03,51.19-22.46,76.39-35.15,29.06-71.37,21.2-93.85-5.99-21.46-25.96-23.59-63.91,13.14-94.28,32.15-26.58,61.2-22.33,77.88-7.18l-31.09,25.7c-5.69-4.15-16.04-8.68-29.6,2.53-14.4,11.9-12.15,29.05,1.62,45.7,12.5,15.12,29.65,24.43,45.6,11.24,11.5-9.51,12.04-18.46,8.09-28.76l30.67-25.36Z"/><path d="M4734.35,582.5c4.35,26.18-8.13,51.17-44.9,65.76-42.39,16.82-74.43-1.82-87.45-34.61-12.42-31.31-2.75-68.07,41.54-85.65,38.78-15.39,65.1-2.4,76.31,17.16l-37.5,14.88c-4.13-5.7-12.59-13.2-28.94-6.71-17.36,6.89-20.5,23.9-12.53,43.98,7.24,18.24,20.69,32.37,39.92,24.74,13.87-5.5,17.14-13.85,16.55-24.87l36.99-14.68Z"/><path d="M4830.63,484.69l16.69,121.95-39.68,5.43-16.69-121.95,39.68-5.43Z"/><path d="M4916.16,600.49l14.22-122.26,46.3,5.38c21.99,46.94,29.29,63.89,35.34,80.54l.65,.08c.24-11.62,2.86-33.73,5.22-53.96l2.51-21.58,35.78,4.16-14.22,122.26-43.75-5.09c-7.56-18.09-31.56-73.64-37.09-89.37l-.59-.07c-.46,14.11-2.29,30.34-5.08,54.32l-3.46,29.74-35.84-4.17Z"/><path d="M5146.41,626.96l-16.68,17.58-36.43-16.82,93.85-92.25,47.34,21.85-6.54,132.55-39.02-18.01,2.03-24.34-44.54-20.56Zm48.04-9.2c1.99-23.48,3.65-38.14,5.16-48.79l-.55-.25c-6.7,8.13-18.97,21.7-32.79,36.03l28.19,13.01Z"/><path d="M5341.27,659.24l-31.11-26.11,18.24-21.73,92.67,77.78-18.24,21.73-30.93-25.96-60.89,72.55-30.63-25.71,60.89-72.55Z"/><path d="M5478.57,886.61l-36.7-54.57-17.05,11.47,41.04,61.02-26.15,12.05-60.48-89.92,102.14-68.69,60.66,90.19-23.63,15.9-38.65-57.47-14.24,9.58,36.7,54.57-23.63,15.9Z"/><path d="M5584.94,937.61l17.93,59.72c12.77,42.53-6.8,71.91-37.82,81.22-36.42,10.93-68.83-8.38-80.18-46.21l-17.81-59.34,117.89-35.39Zm-79.87,65.79l4.97,16.54c5.7,18.99,19.99,25.04,41.98,18.44,18.08-5.43,29.08-16.93,23.03-37.9l-4.98-16.59-65,19.51Z"/></g><g><path class="cls-2" d="M4648.85,1703.28c-9.9-13.04-24.04-19.48-40.22-19.48-26.71,0-49.17,19.8-49.17,48.55s21.37,48.39,49.8,48.39c15.71,0,29.06-6.44,39.59-18.7l8.96,6.76c-11.62,14.61-28.75,22.31-49.33,22.31-37.71,0-60.8-26.55-60.8-59.7s25.76-58.6,60.8-58.6c20.74,0,38.18,8.17,49.33,23.72l-8.96,6.76Z"/><path class="cls-2" d="M4799.66,1732.03c0,33.15-25.92,59.23-59.39,59.23s-59.54-27.18-59.54-58.76c0-33.62,26.08-59.7,58.6-59.7,34.25,0,60.33,25.61,60.33,59.23Zm-107.15,.47c0,27.81,21.99,47.76,47.45,47.76s47.92-20.11,47.92-48.39-22.94-48.07-47.92-48.07-47.45,19.8-47.45,48.7Z"/><path class="cls-2" d="M4818.82,1675.63h12.25l37.39,87.19,38.02-87.19h12.25l-49.02,112.8h-2.51l-48.39-112.8Z"/><path class="cls-2" d="M4941.21,1675.63h11.31v112.8h-11.31v-112.8Z"/><path class="cls-2" d="M4983.46,1675.63h27.81c12.41,0,23.88,.63,35.03,5.18,20.27,8.17,32.36,27.65,32.36,52.47,0,32.21-19.48,55.14-55.77,55.14h-39.43v-112.8Zm27.96,101.8c21.37,0,35.51-1.89,45.56-14.14,6.44-7.86,9.9-18.07,9.9-29.85s-3.14-21.68-9.43-29.85c-10.68-13.98-26.71-16.97-51.22-16.97h-11.47v90.81h16.65Z"/><path class="cls-2" d="M5096.89,1741.3h42.26v9.43h-42.26v-9.43Z"/><path class="cls-2" d="M5171.51,1686.62l6.75-11h22.31v112.8h-11.31v-101.8h-17.75Z"/><path class="cls-2" d="M5271.58,1791.26l-9.27-5.97,30.48-46.19c-3.14,.94-6.91,2.04-11.63,2.04-18.7,0-31.89-15.24-31.89-33.62,0-20.89,16.34-34.72,35.03-34.72,20.42,0,34.25,16.18,34.25,34.09,0,10.84-4.71,21.37-12.72,33.31l-34.25,51.06Zm35.98-83.74c0-13.04-10.53-23.72-23.72-23.72s-23.57,10.53-23.57,23.72,10.53,23.72,23.57,23.72,23.72-10.68,23.72-23.72Z"/><path class="cls-2" d="M4539.03,1750.64v-7.85h794.6v7.85h-794.6Z"/></g><g><path class="cls-2" d="M4955.24,1049.44c0-1.19,0-2.37-.01-3.54,0-.94,0-1.87-.02-2.79-.24-44.26-.71-72.86-1.51-74.35-3.85-7.16-15.41-9.91-45.14-27.53-17.43-10.32-20.53-37.83-20.1-58.82,.1-5.16,.42-9.92,.79-13.94,2.8,.53,5.56,1.07,8.26,1.63,11.25,2.33,21.8-6.26,21.8-17.75v-34.85c0-8.53-5.94-15.89-14.27-17.71-28.2-6.19-63.12-11.28-103.22-11.6-24.52-.19-47.17,1.44-67.62,4.07-4.5,.58-8.9,1.21-13.19,1.87-10.79,1.68-20.87,3.62-30.2,5.66-8.31,1.82-14.21,9.2-14.21,17.7v34.85c0,11.5,10.55,20.08,21.81,17.75,2.69-.56,5.45-1.09,8.25-1.62,.37,4.02,.68,8.78,.78,13.94,.42,20.99-2.68,48.49-20.1,58.81-29.72,17.62-41.28,20.37-45.14,27.53-3.17,5.89-1.11,430.07-.29,579.67,.08,14.54,6.14,27.64,15.84,37.01h0c4.34,4.19,9.41,7.62,15,10.1,6.41,2.85,13.51,4.43,20.98,4.43h208.45c28.51,0,51.66-23.03,51.82-51.53,.18-32.22,.41-77.17,.64-127.94,0-1.88,.01-3.77,.02-5.67,.08-18.13,.16-36.95,.24-56.17,.42-109.33,.72-231.27,.35-309.21Z"/><polygon class="cls-2" points="5045.66 1139.43 5081.63 1118.34 5112.82 1118.34 5148.44 1139.43 5148.44 1585.55 5045.66 1585.55 5045.66 1139.43"/><rect class="cls-2" x="5083.47" y="1094.15" width="27.15" height="24.81"/><line class="cls-2" x1="5070.91" y1="1105.93" x2="5123.19" y2="1105.93"/><rect class="cls-2" x="5070.91" y="1103.27" width="52.28" height="5.32"/><path class="cls-2" d="M5113.29,1035.85c0-8.68-6.93-19.85-7.93-21.84-1-1.99,0-42.61,0-42.61h-4.36s-7.9,0-7.9,0h-4.36s1,40.62,0,42.61c-1,1.99-7.93,13.16-7.93,21.84,0,8.68-4.85,66.36-4.85,66.36h16.62s8.93,0,8.93,0h16.62s-4.85-57.68-4.85-66.36Z"/><line class="cls-2" x1="5006.86" y1="1589.31" x2="5187.24" y2="1589.31"/><rect class="cls-2" x="5006.86" y="1578.66" width="180.38" height="21.29"/><line class="cls-1" x1="5047.3" y1="1186.56" x2="5071.93" y2="1186.56"/><rect class="cls-1" x="5047.3" y="1185.67" width="24.63" height="1.77"/><line class="cls-1" x1="5047.3" y1="1197.73" x2="5071.93" y2="1197.73"/><rect class="cls-1" x="5047.3" y="1196.84" width="24.63" height="1.77"/><line class="cls-1" x1="5047.3" y1="1208.89" x2="5109.33" y2="1208.89"/><rect class="cls-1" x="5047.3" y="1208" width="62.02" height="1.77"/><line class="cls-1" x1="5047.3" y1="1269.67" x2="5109.33" y2="1269.67"/><rect class="cls-1" x="5047.3" y="1268.78" width="62.02" height="1.77"/><line class="cls-1" x1="5047.3" y1="1220.05" x2="5071.93" y2="1220.05"/><rect class="cls-1" x="5047.3" y="1219.17" width="24.63" height="1.77"/><line class="cls-1" x1="5047.3" y1="1233.7" x2="5071.93" y2="1233.7"/><rect class="cls-1" x="5047.3" y="1232.81" width="24.63" height="1.77"/><line class="cls-1" x1="5047.3" y1="1246.1" x2="5071.93" y2="1246.1"/><rect class="cls-1" x="5047.3" y="1245.22" width="24.63" height="1.77"/><line class="cls-1" x1="5047.3" y1="1258.51" x2="5071.93" y2="1258.51"/><rect class="cls-1" x="5047.3" y="1257.62" width="24.63" height="1.77"/><line class="cls-1" x1="5047.3" y1="1279.63" x2="5071.93" y2="1279.63"/><rect class="cls-1" x="5047.3" y="1278.74" width="24.63" height="1.77"/><line class="cls-1" x1="5047.3" y1="1290.8" x2="5071.93" y2="1290.8"/><rect class="cls-1" x="5047.3" y="1289.91" width="24.63" height="1.77"/><line class="cls-1" x1="5047.3" y1="1325.68" x2="5109.33" y2="1325.68"/><rect class="cls-1" x="5047.3" y="1324.79" width="62.02" height="1.77"/><line class="cls-1" x1="5047.3" y1="1301.59" x2="5071.93" y2="1301.59"/><rect class="cls-1" x="5047.3" y="1300.71" width="24.63" height="1.77"/><line class="cls-1" x1="5047.3" y1="1312.77" x2="5071.93" y2="1312.77"/><rect class="cls-1" x="5047.3" y="1311.88" width="24.63" height="1.77"/><line class="cls-1" x1="5047.31" y1="1339.17" x2="5071.93" y2="1339.17"/><rect class="cls-1" x="5047.3" y="1338.29" width="24.63" height="1.77"/><line class="cls-1" x1="5047.31" y1="1351.58" x2="5071.93" y2="1351.58"/><rect class="cls-1" x="5047.31" y="1350.69" width="24.63" height="1.77"/><line class="cls-2" x1="5097.05" y1="975.77" x2="5097.05" y2="764.99"/><path class="cls-2" d="M5095.28,975.77c-.84-4.39-1.11-8.78-1.21-13.17-.04-4.39,0-8.78,0-13.17l.06-26.35,.15-52.69,.36-52.69,.29-26.35c.09-8.78,.2-17.56,.35-26.35,.02-.98,.82-1.76,1.8-1.75,.96,.02,1.73,.79,1.75,1.75,.15,8.78,.26,17.56,.35,26.35l.29,26.35,.36,52.69,.15,52.69,.06,26.35c0,4.39,.05,8.78,0,13.17-.1,4.39-.37,8.78-1.21,13.17-.19,.98-1.13,1.62-2.11,1.43-.75-.14-1.3-.73-1.43-1.43Z"/></g></g></g></svg>