<?xml version="1.0" encoding="UTF-8"?><svg xmlns="http://www.w3.org/2000/svg" viewBox="0 0 6000 8000"><defs><style>.cls-1{fill:#f4aa40;}.cls-2{fill:#f99393;}.cls-3{fill:#efaf5b;}.cls-4{fill:#e8c09e;}.cls-5{fill:#e8e9ea;}.cls-6{fill:#fff;}.cls-7{fill:#ffedd7;}.cls-8{fill:#fff4c5;}.cls-9{fill:#eacd8c;}.cls-10{fill:#efcaa6;}.cls-11{fill:#edd0a6;}.cls-12{fill:#ffd0a1;}.cls-13{fill:#fcc35e;}.cls-14{fill:#e5d8a3;}.cls-15{fill:#664b3d;}.cls-16{fill:#c90e48;}.cls-17{fill:#e2667b;}.cls-18{fill:#3e3f3f;}.cls-19{fill:#2d1f0e;}.cls-20{fill:#3d2b22;}.cls-21{fill:#754c3d;}.cls-22{mix-blend-mode:multiply;}.cls-23{isolation:isolate;}</style></defs><g class="cls-23"><g id="_Слой_1"><g><rect class="cls-7" width="6000" height="8000"/><g><g><path class="cls-3" d="M1653.84,1643.32h-32.31c-12.47,0-19.85,6.8-19.85,19.27v371.34c0,12.48,7.38,19.85,19.85,19.85h32.31c12.48,0,19.84-7.37,19.84-19.85v-371.34c0-12.47-7.36-19.27-19.84-19.27Z"/><path class="cls-3" d="M1911.79,1643.32h-28.35c-12.47,0-19.84,6.8-19.84,19.27v144.57l7.37,96.38-5.1,.57-24.95-93.55-47.05-152.5c-2.84-8.51-7.94-14.74-19.84-14.74h-35.16c-12.46,0-19.84,6.8-19.84,19.27v371.34c0,12.48,7.38,19.85,19.84,19.85h28.35c12.48,0,19.28-7.37,19.28-19.85v-144l-7.37-96.37,5.1-.57,24.95,93.54,47.05,152.51c3.4,8.5,7.94,14.74,19.84,14.74h35.72c12.47,0,19.28-7.37,19.28-19.85v-371.34c0-12.47-6.81-19.27-19.28-19.27Z"/><path class="cls-3" d="M2160.11,1643.32h-186.53c-12.47,0-19.84,6.8-19.84,19.27v16.44c0,12.48,7.37,19.84,19.84,19.84h57.27v335.06c0,12.48,7.36,19.85,19.84,19.85h32.31c12.47,0,19.85-7.37,19.85-19.85v-335.06h57.26c12.47,0,19.84-7.36,19.84-19.84v-16.44c0-12.47-7.37-19.27-19.84-19.27Z"/><path class="cls-3" d="M2360.22,1698.87c12.48,0,19.85-7.36,19.85-19.84v-16.44c0-12.47-7.37-19.27-19.85-19.27h-137.76c-12.47,0-19.84,6.8-19.84,19.27v371.34c0,12.48,7.37,19.85,19.84,19.85h137.76c12.48,0,19.85-7.37,19.85-19.85v-16.43c0-12.48-7.37-19.28-19.85-19.28h-85.6v-121.89h64.06c12.47,0,19.85-7.37,19.85-19.84v-16.45c0-12.47-7.38-19.28-19.85-19.28h-64.06v-121.89h85.6Z"/><path class="cls-3" d="M2626.12,2026l-56.13-148.54c31.75-12.47,44.78-39.12,44.78-79.37v-64.64c0-60.65-32.88-90.13-106.01-90.13h-80.51c-12.47,0-19.84,6.8-19.84,19.27v371.34c0,12.48,7.37,19.85,19.84,19.85h32.32c12.47,0,19.84-7.37,19.84-19.85v-145.13h18.71l55.56,151.94c2.83,8.5,9.07,13.04,19.28,13.04h34.58c18.71,0,21.54-17.57,17.58-27.78Zm-82.78-227.91c0,20.98-9.64,35.15-34.58,35.15h-28.35v-134.37h28.35c24.94,0,34.58,14.18,34.58,34.58v64.64Z"/><path class="cls-3" d="M2852.88,1643.32h-28.35c-12.47,0-19.84,6.8-19.84,19.27v144.57l7.37,96.38-5.1,.57-24.95-93.55-47.05-152.5c-2.84-8.51-7.94-14.74-19.84-14.74h-35.16c-12.47,0-19.84,6.8-19.84,19.27v371.34c0,12.48,7.37,19.85,19.84,19.85h28.35c12.47,0,19.27-7.37,19.27-19.85v-144l-7.36-96.37,5.1-.57,24.94,93.54,47.06,152.51c3.4,8.5,7.93,14.74,19.85,14.74h35.71c12.47,0,19.27-7.37,19.27-19.85v-371.34c0-12.47-6.8-19.27-19.27-19.27Z"/><path class="cls-3" d="M3127.27,2029.97l-56.12-367.95c-1.71-13.6-8.51-18.7-19.85-18.7h-73.7c-11.34,0-18.71,5.1-20.41,18.7l-56.13,367.95c-2.26,13.6,4.54,23.81,18.71,23.81h30.62c9.64,0,18.14-4.54,19.84-17.57l7.93-63.5h72l8.51,63.5c1.13,13.03,10.21,17.57,19.28,17.57h30.61c14.17,0,20.98-9.64,18.71-23.81Zm-142.3-112.83l11.91-87.3,14.73-137.2h5.11l14.74,137.2,11.34,87.3h-57.83Z"/><path class="cls-3" d="M3311.53,1643.32h-186.52c-12.48,0-19.85,6.8-19.85,19.27v16.44c0,12.48,7.37,19.84,19.85,19.84h57.25v335.06c0,12.48,7.37,19.85,19.85,19.85h32.31c12.48,0,19.85-7.37,19.85-19.85v-335.06h57.26c12.47,0,19.84-7.36,19.84-19.84v-16.44c0-12.47-7.37-19.27-19.84-19.27Z"/><path class="cls-3" d="M3406.2,1643.32h-32.32c-12.47,0-19.84,6.8-19.84,19.27v371.34c0,12.48,7.37,19.85,19.84,19.85h32.32c12.47,0,19.84-7.37,19.84-19.85v-371.34c0-12.47-7.37-19.27-19.84-19.27Z"/><path class="cls-3" d="M3575.14,1640.48c-71.44,0-103.76,28.91-103.76,87.87v240.39c0,58.96,32.32,87.88,103.76,87.88s104.31-28.92,104.31-87.88v-240.39c0-58.96-32.88-87.87-104.31-87.87Zm32.31,328.26c0,19.28-9.07,32.31-32.31,32.31s-31.75-13.03-31.75-32.31v-240.39c0-19.27,8.5-32.31,31.75-32.31s32.31,13.04,32.31,32.31v240.39Z"/><path class="cls-3" d="M3917.56,1643.32h-28.35c-12.47,0-19.84,6.8-19.84,19.27v144.57l7.37,96.38-5.11,.57-24.94-93.55-47.05-152.5c-2.84-8.51-7.94-14.74-19.85-14.74h-35.15c-12.47,0-19.84,6.8-19.84,19.27v371.34c0,12.48,7.37,19.85,19.84,19.85h28.35c12.47,0,19.27-7.37,19.27-19.85v-144l-7.36-96.37,5.1-.57,24.94,93.54,47.06,152.51c3.4,8.5,7.94,14.74,19.84,14.74h35.72c12.47,0,19.28-7.37,19.28-19.85v-371.34c0-12.47-6.81-19.27-19.28-19.27Z"/><path class="cls-3" d="M4191.96,2029.97l-56.14-367.95c-1.7-13.6-8.5-18.7-19.84-18.7h-73.7c-11.34,0-18.71,5.1-20.41,18.7l-56.13,367.95c-2.26,13.6,4.54,23.81,18.71,23.81h30.61c9.64,0,18.15-4.54,19.85-17.57l7.94-63.5h72l8.5,63.5c1.14,13.03,10.21,17.57,19.28,17.57h30.62c14.17,0,20.97-9.64,18.71-23.81Zm-142.31-112.83l11.91-87.3,14.74-137.2h5.1l14.74,137.2,11.34,87.3h-57.83Z"/><path class="cls-3" d="M4378.47,1998.22h-85.61v-335.63c0-12.47-7.37-19.27-19.84-19.27h-32.32c-12.47,0-19.84,6.8-19.84,19.27v371.34c0,12.48,7.37,19.85,19.84,19.85h137.77c12.47,0,19.84-7.37,19.84-19.85v-16.43c0-12.48-7.37-19.28-19.84-19.28Z"/></g><g><g><path class="cls-16" d="M1496.24,2185.28h-39.73c-14.37,0-27.9,6.76-28.74,26.2l-28.74,319.53-10.99,174.13h-6.76l-7.61-174.13-27.05-319.53c-1.69-20.28-15.21-26.2-29.58-26.2h-76.08c-14.37,0-27.89,6.76-29.59,26.2l-27.05,319.53-7.6,174.13h-7.62l-10.14-174.13-28.73-319.53c-1.69-20.28-15.22-26.2-28.75-26.2h-39.73c-20.28,0-29.58,14.37-27.89,35.5l60.02,548.6c2.53,20.29,13.52,27.89,30.43,27.89h91.29c16.9,0,28.74-7.6,29.58-27.89l23.67-311.92,6.77-154.69h6.76l6.76,154.69,22.83,311.92c1.68,20.29,13.52,27.89,30.43,27.89h91.29c16.9,0,27.89-7.6,29.58-27.89l60.86-548.6c1.69-21.13-7.61-35.5-27.89-35.5Z"/><path class="cls-16" d="M1847.38,2181.05c-173.39,0-251.84,43.11-251.84,131.02v358.41c0,87.91,78.45,131.02,251.84,131.02,58.35,0,106.1-4.88,143.77-14.71,74.3-19.38,109.43-57.98,109.43-116.31v-358.41c0-87.91-79.81-131.02-253.2-131.02Zm78.43,489.43c0,28.74-22.02,48.18-78.43,48.18s-77.07-19.44-77.07-48.18v-358.41c0-28.74,20.64-48.18,77.07-48.18s78.43,19.44,78.43,48.18v358.41Z"/><path class="cls-16" d="M2564.08,2185.28h-82.84c-18.6,0-27.89,9.3-30.43,27.9l-35.5,181.73-19.45,144.55h-7.6l-20.29-144.55-34.66-181.73c-3.38-18.6-11.83-27.9-30.43-27.9h-82.83c-18.6,0-29.59,10.14-29.59,28.74v553.67c0,18.59,10.99,29.58,29.59,29.58h35.5c18.59,0,29.58-10.99,29.58-29.58v-291.63l-7.61-119.18h6.77l49.87,301.77c2.54,13.52,11.83,22.82,29.59,22.82h56.63c17.75,0,27.05-9.3,28.74-22.82l50.72-301.77h6.76l-7.61,119.18v291.63c0,18.59,10.99,29.58,29.59,29.58h35.5c18.59,0,29.58-10.99,29.58-29.58v-553.67c0-18.6-11.83-28.74-29.58-28.74Z"/><path class="cls-16" d="M2896.27,2268.12c18.6,0,29.58-10.99,29.58-29.59v-24.51c0-18.6-10.98-28.74-29.58-28.74h-205.41c-18.59,0-29.58,10.14-29.58,28.74v553.67c0,18.59,10.99,29.58,29.58,29.58h205.41c18.6,0,29.58-10.99,29.58-29.58v-24.52c0-18.6-10.98-28.74-29.58-28.74h-127.64v-181.73h95.52c18.6,0,29.59-10.99,29.59-29.59v-24.51c0-18.6-10.99-28.74-29.59-28.74h-95.52v-181.74h127.64Z"/><path class="cls-16" d="M3255.51,2185.28h-42.26c-18.6,0-29.59,10.14-29.59,28.74v215.55l10.99,143.7-7.61,.84-37.19-139.47-70.16-227.38c-4.22-12.68-11.83-21.98-29.58-21.98h-52.41c-18.6,0-29.59,10.14-29.59,28.74v553.67c0,18.59,10.99,29.58,29.59,29.58h42.26c18.6,0,28.74-10.99,28.74-29.58v-214.7l-10.99-143.71,7.61-.85,37.19,139.48,70.16,227.38c5.07,12.68,11.84,21.98,29.59,21.98h53.25c18.6,0,28.74-10.99,28.74-29.58v-553.67c0-18.6-10.14-28.74-28.74-28.74Z"/><path class="cls-16" d="M3428.79,2185.28h-47.34c-18.6,0-30.43,10.14-28.73,28.74l16.05,180.89c.85,18.6,10.14,28.74,28.74,28.74h16.06c18.6,0,27.9-10.14,28.74-28.74l16.07-180.89c.84-18.6-10.99-28.74-29.59-28.74Z"/><path class="cls-16" d="M3752.53,2407.59h49.02c18.6,0,28.74-10.15,28.74-28.74v-66.78c0-87.91-48.18-131.02-154.69-131.02s-154.69,43.11-154.69,131.02c0,81.99,10.99,121.72,64.24,169.06l95.52,86.22c36.35,32.97,43.11,55.79,43.11,103.13,0,28.74-13.52,48.18-48.18,48.18s-48.18-19.44-48.18-48.18v-66.78c0-18.6-10.15-29.59-28.74-29.59h-49.03c-18.59,0-28.74,10.99-28.74,29.59v66.78c0,87.91,48.19,131.02,154.69,131.02s154.69-43.11,154.69-131.02c0-82-11.83-121.72-65.08-169.06l-94.68-86.22c-36.35-32.97-43.11-55.79-43.11-103.13,0-28.74,13.52-48.18,48.18-48.18s48.18,19.44,48.18,48.18v66.78c0,18.59,10.15,28.74,28.75,28.74Z"/></g><g><path class="cls-16" d="M4151.66,2214.47h-115.14c-17.83,0-28.38,9.73-28.38,27.56v531.09c0,17.84,10.55,28.38,28.38,28.38h115.14c104.59,0,151.62-42.16,151.62-129.73v-328.38c0-86.76-47.03-128.92-151.62-128.92Zm49.46,457.3c0,30-13.78,50.27-49.46,50.27h-40.54v-428.11h40.54c35.68,0,49.46,20.27,49.46,49.46v328.38Z"/><path class="cls-16" d="M4668.14,2767.45l-80.28-526.23c-2.43-19.46-12.16-26.75-28.37-26.75h-105.41c-16.22,0-26.76,7.29-29.19,26.75l-80.27,526.23c-3.25,19.46,6.49,34.05,26.76,34.05h43.78c13.78,0,25.95-6.49,28.38-25.14l11.35-90.81h102.98l12.16,90.81c1.62,18.65,14.59,25.14,27.56,25.14h43.79c20.27,0,30-13.78,26.76-34.05Zm-203.52-161.36l17.03-124.86,21.08-196.22h7.29l21.09,196.22,16.21,124.86h-82.7Z"/><path class="cls-16" d="M4938.94,2214.47h-43.78c-11.35,0-23.51,4.86-27.56,19.46l-35.68,131.35-22.7,117.57h-6.49l-23.52-117.57-34.86-131.35c-4.05-14.6-16.22-19.46-27.57-19.46h-43.78c-24.33,0-31.62,19.46-25.95,38.92l107.84,337.29v182.44c0,17.84,9.73,28.38,27.57,28.38h47.03c17.84,0,27.56-10.54,27.56-28.38v-182.44l107.03-337.29c6.49-19.46-.81-38.92-25.14-38.92Z"/></g></g></g><g><path class="cls-19" d="M2725.85,3713.4c46.9-5.68,92.78,13.69,110.99,46.86,16.86,30.71,54.46,44.96,83.9,78.35,60.51,68.62,23.2,81.59,57.28,186.02,35.04,107.35-612.29,542.14-630.02,677.38-.84,6.42,376.54,361.52,590,477,177.6,96.08,425-109,338.65-402.12-35.8-121.53-87.25-123.74-59.01-257.92,28.24-134.18-36.16-254.76-53.48-316.48-12.91-46.01,21.16-175.11-33.19-323.45-54.35-148.34-31.1-127.12-129.5-212.7-98.39-85.58-120.58-138.95-257.73-148.1-137.15-9.15-302.35,32.23-393.21,133.86-90.86,101.62-148.33,180.24-134.21,325.09,14.12,144.85-3.57,144.04-78.93,232.89-75.36,88.85-82.88,161.47-46.57,243.81,36.3,82.34,16.06,105.27-31.37,163.84-47.43,58.57-43.28,195.61,5.23,254.48,38.43,46.64,49.86,370.49,159.32,342.79,161.21-40.79,508.42-53.61,443-112-52.15-46.54-231.19-699.04-240.48-730.43-10.08-34.06-5.71-63.37-60.86-142.2-56.17-80.3,11.68-217.11,51.11-254.07,46.1-43.22,84.95-221.72,153.52-238.49,36.64-8.96,102.32-17.96,155.56-24.41Z"/><polygon class="cls-21" points="2838.58 5107.52 2470.8 5088.34 2521.7 4647.81 2536.53 4519.33 2781.93 4519.33 2795.21 4657.26 2838.58 5107.52"/><g class="cls-22"><path class="cls-21" d="M2795.21,4657.26c-37.65,15.04-80.56,23.55-126.13,23.55-54.38,0-105-12.11-147.39-33l14.83-128.48h245.4l13.28,137.93Z"/></g><path class="cls-21" d="M3049.88,4205.37c0-48.35-23.33-89.13-55.2-101.77-2.85-47.71-10.13-93.49-21.25-136.33-47.72-184.05-165.83-314.28-303.98-314.28-48.96,0-95.41,16.37-137.11,45.68-103.68,72.9-177.92,225.96-188.25,406.82-29.67,14.45-50.94,53.71-50.94,99.88,0,54.35,29.48,99.13,67.43,105.13,44.14,194.54,165.75,334.32,308.87,334.32s264.5-139.53,308.74-333.81c39.98-3.19,71.69-49.26,71.69-105.64Z"/><path class="cls-19" d="M2554.45,3652.99s15.23,99.16,61.66,127.57c46.42,28.41,60.37,59.78,76.05,117.3,15.69,57.52,45.32,40.09,109.81,80.18,64.49,40.09,27.89,102.84,62.75,151.64,34.86,48.8,125.5-27.89,141.18-61.01,15.69-33.12,15.67-507.17-451.45-415.69Z"/><path class="cls-19" d="M2653.82,3711.35s-111.93,49.64-138.76,132.02c-26.83,82.37-28.51,92.66-105.23,135.45-76.72,42.79-92.27,116.49-92.27,116.49,0,0,36.46-631.47,336.26-383.96Z"/><path class="cls-6" d="M3810.82,6784h-426.59l-81.38-813.69v813.69H2000.94v-813.69l-85.4,813.69h-17.78v-1533.05c40.7-18.91,74.27-32.46,104.13-43.58,76.82-28.6,129.15-41.2,215.16-88.02,21.14-11.5,44.34-25.08,70.43-41.47,208.77-131.18,194.11-232.2,194.11-232.2h340.65s-14.66,101.02,194.09,232.2c27.03,16.99,50.96,30.97,72.73,42.73,86.14,46.61,138.56,58.87,216.91,88.28,54.71,20.55,122.07,49.47,222.38,104.31,210.28,114.95,267.19,1024.07,282.48,1470.8Z"/><path class="cls-17" d="M3251.98,5726.29l44.48,1057.71H2011.23l44.48-1057.71-53.88-505.34c-.48-4.58-.46-9.12,.06-13.57,2.51-22.49,17.23-42.29,38.94-50.87l115.54-45.65c21.46-8.48,44.13-4.17,60.68,8.49,12.93,9.86,22.1,24.84,24,42.77l52.11,488.43h721.38l52.11-488.43c1.83-17.17,10.32-31.63,22.4-41.51,16.66-13.63,40.13-18.5,62.28-9.75l115.54,45.65c22.2,8.77,37.08,29.27,39.09,52.39,.37,3.95,.33,8-.09,12.06l-53.88,505.34Z"/><circle class="cls-13" cx="3019.52" cy="4319.8" r="50.78"/><circle class="cls-13" cx="2323.38" cy="4319.8" r="50.78"/></g><g><ellipse class="cls-5" cx="1420.33" cy="4964.95" rx="75.51" ry="104.96"/><rect class="cls-5" x="1586.21" y="5298.83" width="243.4" height="550.82"/><path class="cls-5" d="M1829.61,5298.83v121.54c-37.03,12.79-79.12,20.03-123.77,20.03s-83.61-6.7-119.63-18.63v-122.94h243.4Z"/><ellipse class="cls-5" cx="2019.87" cy="4964.95" rx="75.51" ry="104.96"/><path class="cls-5" d="M1377.04,4866.4s65.44,195.92,97.15,212.2l-97.15-212.2Z"/><path class="cls-5" d="M2039.07,4855.8s-58.22,242.42-70.18,254.38l70.18-254.38Z"/><path class="cls-5" d="M1985.75,5209.96c0,111.75-120.01,202.34-268.06,202.34s-268.06-90.59-268.06-202.34c0-51.4-34.45-161.28,7.55-186.7,49.32-29.85,181.13,8.01,261.09,8.01s213.98-39.92,262.95-8.01c38.87,25.33,4.53,137.25,4.53,186.7Z"/><rect class="cls-20" x="1297.96" y="5061.36" width="806.62" height="1020.62"/><polygon class="cls-13" points="1537.86 6013.57 1923.33 6014.1 1955.99 6126.8 1589.2 6198.16 1533.15 6105.87 1537.86 6013.57"/><ellipse class="cls-10" cx="1433.66" cy="5319.85" rx="75.51" ry="104.96"/><rect class="cls-10" x="1599.54" y="5653.73" width="243.4" height="550.82"/><ellipse class="cls-10" cx="2033.2" cy="5319.85" rx="75.51" ry="104.96"/><path class="cls-8" d="M1920.12,6086.72c-3.25,16.31-6.5,32.64-9.74,48.95-43.46,218.21-86.93,436.44-130.41,654.65-1.41,7.1-2.82,14.21-4.24,21.31-2.59,12.99-5.17,25.98-7.77,38.97l-.07,17.05-.09,20.35-3.72,902h-221.78l-15.36-524.01-26.92-918.7-3.39-115.83v-.02l-4.38-149.46-.07-2.14c1.75,.71,3.53,1.43,5.35,2.14,10.71,4.24,22.81,8.65,36.17,12.96,7.96,2.56,16.36,5.08,25.22,7.5,1.09,.3,2.19,.6,3.3,.88,2.74,.74,5.51,1.47,8.31,2.17,9.25,2.33,18.92,4.54,28.98,6.53,28.54,5.7,60.35,9.85,94.97,11.05,56.87,1.96,107.09-4.54,148.45-13.7,15.41-3.41,29.58-7.2,42.42-11.05,3.25-.97,6.41-1.94,9.48-2.93,.83-.26,1.64-.53,2.45-.79,8.28-2.67,15.9-5.33,22.82-7.89Z"/><path class="cls-13" d="M1733.61,8000H967.02l-.78-233.48c-2.01-60.33-84.18-76.27-108.73-21.11-.55,1.2-1.09,2.44-1.64,3.64-6.72,14.93-13.66,238.56-20.76,250.95H45.02c2.09-224.72,30.59-684.21,197.13-925.44,5.32-7.7,15.13-22.56,28.9-42.54v-.02c49.85-72.46,149.7-213.58,254.22-340.32,1.24-1.5,2.47-3,3.71-4.48,15.78-19.06,31.65-37.77,47.45-55.83,33.7-38.52,67.11-74.15,98.73-104.13,33.36-31.63,64.75-57,92.37-72.87,22.68-13.03,76.31-31.28,142.94-50.59h.02c34.49-9.97,72.44-20.23,111.42-30.2,127.44-32.55,265.57-61.85,327.35-67.46,21.8-1.98,40.6-16.1,48.56-36.47l73.36-187.65,12.39-31.7c3.64-9.3,9.48-17.23,16.8-23.34h.02c9.5-7.93,21.46-12.73,34.26-13.31,.88-.05,1.78-.07,2.68-.07l.44,1.61v.09l18.53,66.72,5.93,21.34,25.72,92.74v.04l.02,.04,126.97,457.62,8.6,30.91v.02l.3,1.08v.02l9.34,33.68v13.82l.02,28.4v14.35l.05,113.32v14.33l.37,1096.31Z"/><path class="cls-13" d="M3406.76,8000h-785.9c-7.1-12.39-14.03-236.02-20.76-250.95-.55-1.2-1.11-2.44-1.64-3.64-24.55-55.16-106.72-39.22-108.75,21.11l-.78,233.48h-770l-5.4-1095.9-.09-14.26-.71-114.17-.09-14.26-.16-28.12-.07-10.36,8.37-28.75,2.75-9.48v-.02l8.98-30.91,149-512.48,13.33-45.88,3.9-13.42,19.73-67.89,.16-.53c.81,0,1.61,.02,2.42,.05,7.04,.28,13.84,1.85,20.12,4.54,14.02,5.95,25.44,17.35,31.23,32.13l12.39,31.7,73.34,187.65c7.98,20.37,26.78,34.49,48.58,36.47,44.82,4.08,129.83,20.62,221.78,41.82,148.43,34.23,314.99,80.63,359.95,106.44,171.15,98.25,485.91,560.99,525.37,620.19,204.62,306.93,205.02,786.29,192.95,925.44Z"/><g class="cls-22"><path class="cls-13" d="M2556,7646.06c-14.67-37.49-36.64-115.8-57.96-275.92-12.73-95.64-19.29-176.32-19.35-177.13l7.04-.57c.07,.8,6.61,81.34,19.32,176.8,16.8,126.17,36.69,221,57.53,274.25l-6.57,2.57Z"/></g><g class="cls-22"><path class="cls-13" d="M926.46,7650.69l-6.57-2.57c20.84-53.24,40.73-148.08,57.53-274.25,12.71-95.46,19.25-175.99,19.32-176.8l7.04,.57c-.06,.81-6.62,81.49-19.35,177.13-21.32,160.12-43.28,238.42-57.96,275.92Z"/></g><polygon class="cls-7" points="1704.66 6653.76 1739.05 6653.76 1753.13 6691.3 1739.05 6733.29 1702.51 6733.29 1689.62 6688.15 1704.66 6653.76"/><rect class="cls-7" x="1713.43" y="6724.24" width="15.89" height="42.35"/><path class="cls-7" d="M1779.96,6790.32c-10.98-15.01-27.62-25.62-46.77-28.63-1.27-.2-2.56-.38-3.87-.52-2.44-.24-4.91-.37-7.4-.37-2.87,0-5.7,.18-8.49,.51-.26,.02-.53,.06-.79,.09-35.27,4.57-62.61,34.79-62.61,71.3s27.78,67.23,63.49,71.4c2.76,.33,5.56,.49,8.4,.49,3.85,0,7.63-.3,11.32-.9,13.01-2.04,24.85-7.62,34.56-15.69,15.89-13.19,26.02-33.08,26.02-55.3,0-15.84-5.15-30.49-13.86-42.38Zm-12.07,77.33c-8.37,11-20.6,18.9-34.65,21.71-3.67,.72-7.45,1.11-11.32,1.11-2.87,0-5.71-.21-8.49-.63-27.85-4.12-49.28-28.18-49.28-57.14s21.08-52.62,48.58-57.03c3-.5,6.07-.75,9.19-.75,3.85,0,7.61,.37,11.27,1.12,19.45,3.84,35.42,17.51,42.54,35.58,2.56,6.53,3.97,13.65,3.97,21.08,0,13.11-4.4,25.24-11.81,34.95Z"/><path class="cls-7" d="M1924.42,6002.16l-3.77,12.85-199.59,680.19-187.01-683.71-2.46-8.96c-.1-2.59,1-4.94,2.75-5.71,2.47-1.1,6.63,.76,7.88,5.19l1.76,6.45,177.41,648.66,188.41-642.1,3.77-12.85c1.36-4.53,5.54-6.43,8.02-5.34,1.7,.74,2.75,2.93,2.82,5.34Z"/><g class="cls-22"><path class="cls-10" d="M1842.94,5653.73v156.82c-38.03,23.82-79.71,36.95-123.41,36.95s-82.88-12.36-119.99-34.84v-158.93h243.4Z"/></g><ellipse class="cls-10" cx="1731.37" cy="5286.32" rx="323.93" ry="491.87"/><path class="cls-15" d="M2324.99,6306.04c-28.01-162.04-86.54-162.34-58.53-338.38,28.01-176.04-35.87-334.23-53.04-415.2-12.8-60.36,20.98-229.73-32.92-424.34s-30.85-166.78-128.44-279.06c-97.59-112.28-119.6-182.29-255.63-194.29-136.03-12-329.88-.59-419.99,132.73s-194.14,245.35-180.14,435.39c14,190.04,73.47,222.96-1.28,339.53-74.74,116.57-147.27,232.25-111.27,340.27s28.07,166.39-18.97,243.23c-47.04,76.84-77.4,178-29.29,255.23,38.11,61.18,186.99,113.19,298.14,95.11,133.21-21.67,210.34-184.74,162.79-265.22-26.95-45.6-19.07-138.26,12.8-232.29,28.36-83.67-18.22-181.96-27.44-223.15-10-44.69-5.67-83.14-60.36-186.57-48.85-92.38-30.84-308.94,.7-393.56,77.48-66.52,79.38-67.4,157.18-90.74,121.02-36.31,154.72-12.73,236.59-71.34,35.88-25.68,58.08-50.81,66.46-73.91,2.4,4.06,4.55,8.32,6.41,12.78,16.72,40.29,54.02,58.98,83.22,102.79,60.01,90.02,39.36,188.58,73.16,325.58,34.75,140.84-88.55,223.7-47.56,363.99s-88.59,114.78-50.86,286.63-121.86,366.17,70.98,437.69c192.84,71.51,335.29-20.87,307.28-182.91Z"/></g><g><path class="cls-14" d="M397.78,6628.87c38.41-14.32,101.11-32.36,179.95-31.66,74.25,.66,133.52,17.69,170.97,31.66-53.1,53.87-106.2,107.75-159.31,161.62l-191.61-161.62Z"/><polygon class="cls-4" points="752.68 6842.14 392.78 6835.48 433.45 6531.16 437.05 6512.02 493.2 6213.98 658.16 6213.98 711.18 6510.32 714.88 6530.99 752.68 6842.14"/><g class="cls-22"><path class="cls-4" d="M711.18,6510.32c-40.11,19.36-87.74,30.56-138.85,30.56s-95.94-10.55-135.28-28.86l56.15-298.04h164.96l53.02,296.34Z"/></g><ellipse class="cls-10" cx="935.97" cy="6009.04" rx="54.99" ry="96.64"/><path class="cls-8" d="M1713.97,7999h-498.6l-2.15-21.5-15.06-150.62v172.12H516.38c-.49-7.15-.97-14.32-1.45-21.5H0v-896.21c12.89-4.49,25.34-8.8,37.77-13.29,50.96-18.36,101.71-39.66,180.82-88.67,2.93-1.81,5.92-3.65,8.94-5.56,11.19-7.04,21.62-13.96,31.35-20.81,.61-.44,1.23-.86,1.85-1.3,4.76-3.37,9.35-6.71,13.78-10.03,43.99-32.94,71.76-63.21,89.06-89.46,8.93-13.52,15.09-25.98,19.27-37.17,7.02-18.83,10.74-62.57,12.72-102.93,.83-16.89,1.35-33.18,1.67-46.81,.5-21.18,.55-35.9,.55-36.39,0,0,0-.01,0,0,5.08,3.66,12.04,8.45,20.77,13.69h.01c29.32,17.65,78.48,40.42,142.5,42.96,76.43,3.04,135.27-24.3,167.29-43.58,.25-.16,.5-.31,.75-.45,0,0,0-.01,.02-.01,8.34-5.08,14.84-9.56,19.25-12.73,0,0,0,0,0,0,.11-.09,.21-.16,.32-.23-.04,.1-.07,.21-.11,.32-.02,.05-.03,.12-.05,.19-5.03,15.69-11.23,38.46-13.87,64.96v.07c-1.51,14.98-1.86,31.15-.22,47.87,1.72,17.25,5.55,35.06,12.45,52.78,0,0,0,.02,0,.02,0,0,0,0,0,.01v.04c2.2,5.65,4.71,11.3,7.57,16.89,3.85,7.56,8.61,15.73,14.49,24.45l.02,.03c.93,1.4,1.9,2.79,2.91,4.22,20.67,29.32,53.93,64.43,107.41,103.18,9.29,6.7,19.19,13.54,29.73,20.47,4.92,3.23,9.99,6.48,15.19,9.76,26.39,16.58,49.68,30.15,70.83,41.55,0,.01,0,.01,0,.01,38.76,20.88,70.38,34.49,100.88,46.01h.02c23.42,8.88,46.19,16.51,71.03,25.28,50.59,17.85,109.77,40.39,200.56,87.48,14.54,7.56,29.88,15.71,46.14,24.61,2.26,1.24,4.48,2.56,6.72,3.97,119.88,76.08,217.94,421.03,289.23,774.82,1.45,7.17,2.88,14.33,4.3,21.5Z"/><path class="cls-2" d="M557.49,8000H0v-986.17c68.52-26.78,143.62-47.53,225.93-61.24,4.98-.85,10.01-1.65,15.04-2.44l-.29-10.02,7.88-162.66c-1.72-59.55,42.49-110.48,101.67-117.16l4.98-.56,18.28-2.06c.56-.06,1.12-.09,1.68-.09,7.3,0,13.64,5.38,14.65,12.78,1.31,9.5,3.24,23.56,5.74,41.69,1.98,14.36,4.31,31.29,6.96,50.53,2.66,19.27,5.64,40.86,8.9,64.53h0c.4,2.88,.8,5.78,1.21,8.72,13.97,101.06,32.94,237.94,54.55,392.88v.02c29.22,209.62,57.82,528.92,90.18,770.25,.04,.33,.09,.66,.13,1Z"/><path class="cls-2" d="M1910.19,7999H650.57c27.1-388.12,55.53-820.11,72.74-1084.71v-.02c.39-6.11,.78-12.14,1.16-18.08,1.25-19.17,2.44-37.35,3.55-54.51,2.52-39.03,4.7-72.64,6.44-99.77,.79-12.13,1.5-22.95,2.1-32.41v-.05c.87-13.61,1.56-24.35,2.05-31.98,.49-7.63,6.71-13.63,14.35-13.84l16.39-.46c47.11-1.32,88.15,29.41,101.29,73.06,1.8,6.02,3.09,12.29,3.78,18.75l21.06,196.67c43.56,3.44,85.36,8.93,125.5,16.31,340.99,62.56,560.74,261.19,701.46,507.03,93.06,162.59,151.57,345.81,187.74,524.01Z"/><g class="cls-22"><path class="cls-2" d="M1325.79,7999c-12.92-95.39-24.13-160.03-24.32-161.05-.58-3.37,1.68-6.57,5.03-7.15s6.57,1.66,7.15,5.01c.18,1.02,11.56,66.6,24.61,163.19h-12.46Z"/></g><ellipse class="cls-4" cx="211.16" cy="6009.04" rx="54.99" ry="96.64"/><path class="cls-4" d="M910.09,6019.08c0,166.12-73.55,310.2-181.15,381.51-45.9,30.44-98.02,47.64-153.26,47.64-184.7,0-334.43-192.13-334.43-429.15,0-63.48,10.73-123.72,29.99-177.92,33.16-93.29,91.59-168.65,164.04-211.71,42.71-25.38,90.26-39.54,140.4-39.54,141.46,0,262.4,112.7,311.27,271.98,14.93,48.67,23.14,101.71,23.14,157.19Z"/><path class="cls-16" d="M581.06,5685.79s74.98,88.31,141.63,149.96c66.65,61.65,124.42,120.71,143.02,234.48,18.6,113.76-136.03,273.94-121.2,387.13,14.83,113.19-71.81,336.47-5.16,513.09,66.65,176.62,98.02,296.7,106.49,399.12,0,0,65.13-253.98,145.1-349.04,79.98-95.06,81.64-398.32,149.96-484.96,68.31-86.64,6.66-661.49-94.97-813.11-101.64-151.63-333.24-334.91-484.87-261.6-151.63,73.31-253.26,78.98-296.59,171.95-43.32,92.97-23.33,386.23-23.33,386.23,0,0-13.39-329.08,339.91-333.24Z"/></g><g><path class="cls-1" d="M4895.83,4074.57s153.93,168.32,327.1,368.74c173.17,200.42,485.35,251.53,485.35,251.53,0,0-611.71,24.8-694.37-157.65-82.66-182.45-118.08-462.62-118.08-462.62Z"/><rect class="cls-17" x="4849.46" y="4030.13" width="83.25" height="74.73" rx="18.47" ry="18.47" transform="translate(-1438.52 3432.39) rotate(-34.02)"/><path class="cls-17" d="M6000,5491.2v1411.43h-1368.17v2.25h-1721.87c-2.41-31.88-5.09-72.78-6.75-120.88-1.74-50.24-2.38-108.31-.45-172.14h0c2.72-90.37,10.57-192.26,27.67-299.74,.39-2.46,.79-4.92,1.18-7.38,3.8-23.29,8.02-46.82,12.72-70.54,29.87-150.68,79.02-309.22,158.15-460.26,.37-.72,.75-1.43,1.12-2.14,17.96-34.16,91.58-171.75,183.25-325.33h0c8.1-13.57,16.34-27.27,24.69-41.03,0,0,0,0,0,0,6.06-9.98,12.18-19.99,18.35-30.02,1.94-3.16,3.89-6.31,5.84-9.47,26.73-43.22,54.33-86.5,82.02-128.01,52.61-78.84,105.52-151.29,153.32-204.71,19.31-21.58,37.78-40.05,55.06-54.59,5.37-4.52,10.63-8.66,15.76-12.39,40.65-29.57,180.12-81.48,318.09-124.85,8.88-2.79,17.76-5.55,26.6-8.27,104.61-32.09,204.59-58.07,255.62-64.31h0c.64-.07,1.26-.15,1.88-.22,10.94-1.26,103.68,128.54,195.65,261.42,80.56,116.36,160.54,235.11,184.43,270.16,.01,.01,.01,.02,.02,.03,.96,1.44,1.84,2.72,2.62,3.86h0c.73,1.08,1.37,2.01,1.93,2.81,.57-.8,1.36-1.97,2.37-3.45h.02s.01-.02,.02-.03c.66-.97,1.42-2.05,2.26-3.31,0-.01,.03-.02,.04-.04,21.79-31.6,102.84-148.86,185.31-264.93,94.69-133.25,191.3-264.95,202.35-263.67,1.2,.15,2.44,.3,3.71,.44h0s.03,.01,.05,.01c124.45,15.93,518.45,138.39,592.28,192.1,105.51,76.78,264.28,324.94,382.83,527.21Z"/><path class="cls-12" d="M4629.53,5303.98c-160.11-112.62-287.61-284.85-390.74-491.11-5.62-11.24-6.78-21.37-3.91-31.91,1.33-4.89,4.11-9.26,7.87-12.66,27.88-25.22,168.2-156,193.2-254.8l36.79-284.69,16.33-126.4h249.39l23.29,132.53,48.98,278.56s85.22,230.29,210.38,257.34c117.69,25.44-391.59,533.14-391.59,533.14Z"/><g class="cls-22"><path class="cls-12" d="M4761.76,4234.93c-40.55,17.82-87.68,28.02-137.97,28.02-55.8,0-107.7-12.56-151.04-34.15l16.33-126.4h249.39l23.29,132.53Z"/></g><path class="cls-6" d="M4347.48,5002.51s308.81,120.54,559.69,0c0,0-246.48,302.77-277.17,310.49-30.69,7.72-269.3-255.62-282.52-310.49Z"/><path class="cls-12" d="M5010.78,3760.31c0-50.03-24.58-92.08-57.87-104.09-22.37-245.33-161.03-434.23-328.74-434.23s-307.06,189.82-328.92,436.01c-31.05,13.98-53.5,54.5-53.5,102.32,0,52.82,27.4,96.74,63.52,105.82,39.98,210.13,167.62,363.81,318.9,363.81s278.52-153.22,318.71-362.89c38.27-6.48,67.91-51.8,67.91-106.74Z"/><path class="cls-1" d="M4450.62,3408.84s41.8,36.34,164.74,115.14c122.93,78.8,299.04,191.81,329.47,224.96,30.43,33.15,134.93-502.56-161.19-573.92-294.04-70.85-473.38-37.61-529.63,198.39-56.25,236,38.97,352.5,38.97,352.5l157.65-317.07Z"/></g><g><path class="cls-8" d="M4951,6138.5c-84.09,0-152.5-68.41-152.5-152.5s68.41-152.5,152.5-152.5,152.5,68.41,152.5,152.5-68.41,152.5-152.5,152.5Zm0-297c-79.68,0-144.5,64.82-144.5,144.5s64.82,144.5,144.5,144.5,144.5-64.82,144.5-144.5-64.82-144.5-144.5-144.5Z"/><path class="cls-8" d="M5709,6138.5c-84.09,0-152.5-68.41-152.5-152.5s68.41-152.5,152.5-152.5,152.5,68.41,152.5,152.5-68.41,152.5-152.5,152.5Zm0-297c-79.68,0-144.5,64.82-144.5,144.5s64.82,144.5,144.5,144.5,144.5-64.82,144.5-144.5-64.82-144.5-144.5-144.5Z"/><ellipse class="cls-21" cx="4950.5" cy="5770.5" rx="63.5" ry="100.5"/><ellipse class="cls-21" cx="5721.5" cy="5770.5" rx="63.5" ry="100.5"/><path class="cls-13" d="M6000,6687.63v1312.37h-74.15l-77.31-332.34c.7,4.3,22.99,141.14,49.71,325.84,.31,2.16,.62,4.32,.94,6.5h-1236.91c.32-2.18,.63-4.34,.94-6.5,26.72-184.7,49.01-321.54,49.71-325.84l-78.24,325.84-1.56,6.5h-461.37c.06-2.16,.09-4.33,.12-6.5,2.58-201.41-72.86-436.97-54.98-619.14,15.78-160.79,86.08-306.93,185.74-436.25,8.63-11.2,17.48-22.28,26.54-33.23,102.93-124.42,232.19-232.36,363.78-321.73,2.95-2,5.86-3.97,8.71-5.87l.06-.06c8.24-5.54,16.08-10.71,23.42-15.44,26.9-17.34,47.2-28.81,56.71-31.06,15.92-3.74-22.91,7.88-56.36,31.86-47.64,34.14-84.37,93.34,63.35,168.93h.01c42.84,21.91,101.19,45.2,179.27,69.66h0c15.84,4.95,32.47,9.96,49.98,15.03h0c69.83,20.17,153.12,41.08,252.18,62.6h.03c3.43,.75,6.9,1.5,10.39,2.25,1.39-.3,2.76-.6,4.15-.9,57.03-12.33,108.92-24.45,156.04-36.35,10.11-2.55,20-5.1,29.68-7.63h.01c715.05-187.13,260.79-316.8,309.02-305.45,13.01,3.06,46.22,23.44,88.89,52.43,46.71,31.72,90.61,66.67,131.48,104.48Z"/><path class="cls-9" d="M5971.25,6568.42c31.75-69.82-80.79-137.42-158.78-173.07-77.99-35.66-222.84-62.4-274.09-73.54-13.56-2.95-38.33-3.57-67.4-2.85-56.37,1.35-128.98,7.61-167.6,11.27-26.94-3.51-61.45-7.41-92.68-9.12-26.49-1.46-50.63-1.33-65.77,1.95-51.25,11.15-196.1,37.89-274.09,73.55-62.02,28.35-145.86,76.88-161.64,130.69-4.06,13.86-3.61,28.07,2.89,42.38,0,0-4.24,2.63-10.36,7.54l-.06,.06c-17.41,14-49.8,46.46-42.61,89.72,3.79,22.79,59.06,54.35,137.09,87.27,50.56,21.34,110.67,43.25,172.52,63.71,17.54,5.8,35.26,11.51,52.93,17.04,94.22,29.51,187.3,54.38,252.09,67.61,19.79,4.04,36.94,6.99,50.68,8.66h.02c.07,0,.15,.02,.22,.03,6.42,.77,12.08,1.26,16.91,1.45h.06c2.85,.11,5.41,.13,7.67,.02,14.63-1.89,33.65-5.36,55.99-10.16,70.27-15.08,173.31-43.18,275.27-75.79,17.76-5.67,35.47-11.48,52.96-17.38h.01c114.75-38.71,220.39-81.35,266.52-115.19v-100.74c-14.05-16.02-28.75-25.11-28.75-25.11Zm-631.5,339.69c-3.88-1.32-8.64-3.12-14.12-5.48-11.15-4.81-25.23-12-40.75-22.48-20.77-14.01-44.13-33.94-66.46-62.02-62.34-78.36-175.18-276.34-166.6-303.04,17-52.97,124.2-91.46,124.2-91.46l34.68-17.21,83.68-41.51h.05s28.81-14.32,28.81-14.32l40.25,15.2h.05s107.44,40.59,107.44,40.59l74.8,28.25s78.34,37.09,85.72,79.2c4.84,27.63-104.26,224.7-166.58,303.05-7.92,9.96-15.99,18.91-24,26.92-33.01,32.97-65.48,50.27-86.2,58.83-6.11,2.53-11.19,4.29-14.97,5.48Z"/><path class="cls-6" d="M5625.72,6435.66c-58.45-35.43-320.61-120.45-472.95-33.66,0,0-141.26,57.65-125.54,128.02,15.72,70.37,226.69,393.99,314.28,382.75,87.59-11.25,304.62-238.85,304.16-255.24-.46-16.39,38.51-186.44-19.95-221.87Z"/><path class="cls-2" d="M5971.25,6568.42c31.75-69.82-80.79-137.42-158.78-173.07-77.99-35.66-222.84-62.4-274.09-73.54-13.56-2.95-38.33-3.57-67.4-2.85-56.37,1.35-128.98,7.61-167.6,11.27-26.94-3.51-61.45-7.41-92.68-9.12-26.49-1.46-50.63-1.33-65.77,1.95-51.25,11.15-196.1,37.89-274.09,73.55-62.02,28.35-145.86,76.88-161.64,130.69-4.06,13.86-3.61,28.07,2.89,42.38,0,0-4.24,2.63-10.36,7.54l-.06,.06c-17.41,14-49.8,46.46-42.61,89.72,3.79,22.79,59.06,54.35,137.09,87.27,50.56,21.34,110.67,43.25,172.52,63.71,17.54,5.8,35.26,11.51,52.93,17.04,94.22,29.51,187.3,54.38,252.09,67.61,19.79,4.04,36.94,6.99,50.68,8.66h.02c.07,0,.15,.02,.22,.03,6.42,.77,12.08,1.26,16.91,1.45h.06c2.85,.11,5.41,.13,7.67,.02,14.63-1.89,33.65-5.36,55.99-10.16,70.27-15.08,173.31-43.18,275.27-75.79,17.76-5.67,35.47-11.48,52.96-17.38h.01c114.75-38.71,220.39-81.35,266.52-115.19v-100.74c-14.05-16.02-28.75-25.11-28.75-25.11Zm-631.5,339.69c-3.88-1.32-8.64-3.12-14.12-5.48-11.15-4.81-25.23-12-40.75-22.48-20.77-14.01-44.13-33.94-66.46-62.02-62.34-78.36-175.18-276.34-166.6-303.04,17-52.97,124.2-91.46,124.2-91.46l34.68-17.21,83.68-41.51h.05s28.81-14.32,28.81-14.32l40.25,15.2h.05s107.44,40.59,107.44,40.59l74.8,28.25s78.34,37.09,85.72,79.2c4.84,27.63-104.26,224.7-166.58,303.05-7.92,9.96-15.99,18.91-24,26.92-33.01,32.97-65.48,50.27-86.2,58.83-6.11,2.53-11.19,4.29-14.97,5.48Z"/><path class="cls-21" d="M5470.98,6067.57v514.83c0,12.63-260.28,12.63-260.28,0v-514.83c0-12.63,10.33-22.97,22.97-22.97h214.35c12.63,0,22.97,10.33,22.97,22.97Z"/><g class="cls-22"><path class="cls-21" d="M5470.98,6067.57v179.35c-41.36,20.19-85.95,31.18-132.46,31.18s-87.79-10.18-127.83-28.96v-181.57c0-12.63,10.33-22.97,22.97-22.97h214.35c12.63,0,22.97,10.33,22.97,22.97Z"/></g><path class="cls-19" d="M5502.47,5093.05c-.87,10.54-2.34,20.65-4.11,30.02-6.22,32.82-16.03,56.47-16.03,56.47h-304.3s-8.25-19.95-14.56-48.62c-2.04-9.21-3.86-19.33-5.15-29.99-8.79-72.38,7.33-169.34,154.55-174.27,170.95-5.7,195.86,90.94,189.61,166.38Z"/><path class="cls-6" d="M5005.29,7450.8c-12.12,0-22.63-9.02-24.18-21.36-.11-.91-11.43-91.63-18.75-189.08-13.65-181.49-2.47-228.87,7.13-248.71,22.41-46.35,6.33-143.95-1.76-177.65-3.14-13.1,4.92-26.27,18.02-29.42,13.09-3.15,26.26,4.9,29.42,18,.33,1.39,8.25,34.51,12.26,76.17,5.61,58.17,.89,103.3-14.02,134.14-3.9,8.07-15.61,48.04-2.41,223.64,7.23,96.26,18.41,185.95,18.53,186.85,1.67,13.37-7.8,25.56-21.17,27.24-1.03,.13-2.05,.19-3.06,.19Z"/><path class="cls-21" d="M5599.02,5311.51c-68.78-82.14-159.17-131.97-258.19-131.97-63.25,0-123,20.33-175.82,56.45-127.17,86.88-215.12,265.08-214.35,470.81,.34,91.19,32.74,217.12,34.45,216.91,61.2,183,197.45,310.35,355.73,310.35,141.42,0,265.29-101.71,333.7-253.94,2.57-5.69,5.05-11.46,7.46-17.29,.8-1.93,1.59-3.88,2.36-5.83,1.1-2.73,2.18-5.46,3.22-8.22,26.89-70.2,42.44-149.63,43.38-233.82,.02-.09,.02-.18,0-.27,.04-2.64,.05-5.26,.05-7.9,0-157.4-51.03-298.69-131.98-395.29Z"/><path class="cls-6" d="M5695.25,7451.46c-1.01,0-2.03-.06-3.06-.19-13.37-1.67-22.85-13.87-21.17-27.24,.11-.89,11.29-90.59,18.53-186.85,3.34-44.39,13.02-191.72-2.42-223.64-14.91-30.84-19.63-75.97-14.02-134.14,4.02-41.66,11.93-74.78,12.26-76.17,3.16-13.1,16.33-21.15,29.43-18,13.1,3.16,21.16,16.33,18,29.43-8.09,33.71-24.17,131.29-1.76,177.64,9.6,19.84,20.78,67.22,7.13,248.71-7.33,97.45-18.64,188.17-18.75,189.08-1.55,12.34-12.05,21.36-24.18,21.36Z"/><circle class="cls-6" cx="5005.75" cy="7438.25" r="46.06"/><circle class="cls-6" cx="5694.8" cy="7448.88" r="46.06"/><path class="cls-8" d="M5502.47,5093.05c-.87,10.54-2.34,20.65-4.11,30.02-144.77-37.55-274.52-10.1-334.89,7.85-2.04-9.21-3.86-19.33-5.15-29.99,20.88-6.09,48.77-12.98,82.07-18.28,63.49-10.1,158.43-15.78,262.09,10.4Z"/><path class="cls-6" d="M5030.05,7436.13l1.55,5.89,1.66,6.1c1.13,4.07,2.31,8.14,3.52,12.19,2.43,8.1,5.04,16.1,7.79,23.96,2.75,7.86,5.73,15.52,8.83,22.95,3.14,7.39,6.52,14.44,10.02,20.98,10.46,19.51,3.12,43.8-16.38,54.25-19.51,10.46-43.8,3.12-54.25-16.38-1.87-3.48-3.17-7.12-3.93-10.8l-.28-1.42c-2.04-10.06-3.52-19.83-4.61-29.41-1.03-9.57-1.79-19.01-2.25-28.34-.46-9.34-.7-18.6-.74-27.82-.02-4.61,0-9.21,.08-13.83l.15-6.93,.23-7.16c.43-13.55,11.76-24.19,25.31-23.76,11.11,.35,20.26,8.03,22.96,18.25l.33,1.28Z"/><path class="cls-6" d="M5719.88,7456.31l.23,7.16,.15,6.93c.08,4.61,.1,9.21,.08,13.83-.04,9.22-.29,18.48-.74,27.82-.46,9.34-1.22,18.77-2.25,28.34-1.09,9.59-2.57,19.35-4.61,29.41l-.25,1.23c-4.39,21.69-25.54,35.72-47.23,31.32-21.69-4.39-35.72-25.54-31.32-47.23,.78-3.87,2.2-7.66,3.96-10.98,3.5-6.54,6.88-13.58,10.02-20.98,3.1-7.43,6.08-15.09,8.83-22.95,2.75-7.86,5.35-15.87,7.79-23.96,1.21-4.05,2.4-8.12,3.52-12.19l1.66-6.1,1.55-5.89,.33-1.25c3.46-13.11,16.89-20.94,30-17.48,10.75,2.83,17.94,12.4,18.28,22.96Z"/><path class="cls-19" d="M4914,5631h660l57-130,94,108s40-442.28-361-478.2c-401-35.92-450,500.2-450,500.2Z"/></g><g><polygon class="cls-18" points="3274.05 5035.08 2905.68 6318.5 4283.07 6318.62 3912.34 5030.46 3274.05 5035.08"/><path class="cls-16" d="M3404.36,5669.81c46.25-11.62,107.08-22.31,178.76-22.99,78.45-.75,144.53,10.71,193.43,22.99-69.48,54.08-138.96,108.15-208.44,162.23l-163.75-162.23Z"/><path class="cls-16" d="M5001.28,8000h-615.07l-91.16-911.4-.96-9.5v920.89h-1422.49v-920.89l-96.64,920.89h-615.49c64.68-475.27,230.89-1510.46,465.76-1638.88,152.09-83.15,234.85-111.75,307.56-137.06,9.27-3.23,18.35-6.4,27.4-9.61,63.01-22.41,124.1-47.35,224.47-110.42,159.9-100.49,204.84-339.43,219.71-434.23,9.85,2.25,20.32,4.45,31.34,6.53,45.84,8.65,101.41,15.16,164.48,14.43,53.71-.62,101.63-6.38,142.37-13.92,11.97-2.21,23.31-4.6,34-7.04,0,0-23.64,290.88,204.47,434.23,127.79,80.3,191.88,98.78,277.39,128.94h.02c67.1,23.68,147.4,54.53,282.03,128.15,234.87,128.41,397.71,1163.61,460.82,1638.88Z"/><path class="cls-7" d="M4337.1,8000h-1508.01c14.17-306.96,28.34-613.91,42.5-920.89,31.75-112.52,61.12-246.43,78.53-398.58,15.2-132.69,18.46-254.44,15.27-362.02-1.07-36.35-2.57-71.52-4.9-104.51,19.72,35.45,40.26,70.64,61.91,104.53,228.71,358.06,541.46,442.02,558.59,456.47,17.13-14.43,331.36-98.69,558.72-456.4,21.75-34.21,42.87-69.82,62.78-105.6-2.42,34.1-4.19,69.52-4.98,105.62-2.18,102.14,2.76,213.96,17.77,345.13,17.41,152.15,46.78,286.06,78.53,398.58,.41,8.76,.81,17.51,1.22,26.27,14.02,303.81,28.04,607.6,42.05,911.4Z"/><path class="cls-1" d="M3817.27,4573.12c-210.92-100.76-469.4-63.81-600.27,129.88-63.96,94.66-111.87,256.56-130,428-55,520-109,964-241,1067s-182,564,260,616,799,77,1177-53,179-488,71-600-221.39-551.3-266-959c-36-329-99.55-547.11-270.73-628.88Z"/><path class="cls-11" d="M3785,5916c-.52,114.81-83.33,195.18-181,196-119,1-167.37-74.39-198.86-171.13l35.44-306.75,4.33-37.48,11.88-102.9h268.13l11.4,118.42,3.11,32.28,45.57,271.56Z"/><g class="cls-22"><path class="cls-11" d="M3736.32,5612.16c-41.46,25.59-86.8,39.69-134.31,39.69-56.38,0-109.7-19.85-157.1-55.21l11.88-102.9h268.13l11.4,118.42Z"/></g><path class="cls-7" d="M3254.31,5241.92s-109.45,191.75-26.33,205.78c83.12,14.04,26.33-205.78,26.33-205.78Z"/><path class="cls-7" d="M3951.43,5241.49s97.18,198.25,13.34,207.03c-83.84,8.78-13.34-207.03-13.34-207.03Z"/><path class="cls-11" d="M4017.69,5150.7c0-52.82-25.48-97.37-60.29-111.19-.31-5.18-.66-10.34-1.06-15.48-3.68-46.57-11.25-91.33-22.18-133.49-33-127.24-96.77-230.93-177.4-289.93-46.82-34.28-99.3-53.46-154.75-53.46s-102.93,17.41-148.03,48.69c-.6,.39-1.19,.81-1.77,1.22-107.86,75.83-186.58,231.07-203.6,416.32-.86,9.32-1.56,18.72-2.11,28.19-32.4,15.8-55.64,58.69-55.64,109.12,0,59.39,32.21,108.31,73.67,114.87,48.23,212.56,181.11,365.28,337.47,365.28s289.01-152.45,337.35-364.73c43.68-3.49,78.33-53.83,78.33-115.42Z"/><path class="cls-18" d="M3236.42,4989.92l175.21-19.04,59.04-121.89,43.8,125.69,445.64,24.76s35.95-453.26-358.04-453.26-365.66,443.74-365.66,443.74Z"/></g><path class="cls-1" d="M3235,5030s285.08-700.17,735-6l13-229-163-209-236-62-204,61-100,96-98.54,264.05,53.54,84.95Z"/></g></g></g></svg>